<?xml version="1.0" encoding="UTF-8"?>
<svg width="44px" height="45px" viewBox="0 0 44 45" version="1.1" xmlns="http://www.w3.org/2000/svg" xmlns:xlink="http://www.w3.org/1999/xlink">
    <!-- Generator: Sketch 43.1 (39012) - http://www.bohemiancoding.com/sketch -->
    <title>Group 18</title>
    <desc>Created with Sketch.</desc>
    <defs></defs>
    <g id="Page-1" stroke="none" stroke-width="1" fill="none" fill-rule="evenodd">
        <g id="Home-Copy-3" transform="translate(-193.000000, -5190.000000)">
            <g id="Group-13" transform="translate(133.000000, 5188.000000)">
                <g id="Group-18" transform="translate(60.000000, 2.000000)">
                    <rect id="Rectangle" x="0" y="0.443650814" width="44" height="44"></rect>
                    <circle id="Oval" stroke="#F7F7F7" stroke-width="2" cx="22" cy="22.4436508" r="21"></circle>
                    <path d="M26.8355771,22.825654 L16.1452182,33.1433617 L16.1319691,33.1562428 L15.8239277,33.4436508 C16.2950985,33.1787846 25.2398899,28.1656474 25.2398899,28.1656474 L29.7429241,25.6264737 L29.6013244,25.5016887 L26.8355771,22.825654 Z M30.2960736,19.498322 L30.2323123,19.5611171 L30.2190632,19.5611171 L30.1163828,19.6738261 L28.8038949,20.9369724 L27.4019756,22.2878708 L27.3754775,22.3007518 L27.3754775,22.3120228 L27.272797,22.4005799 L30.1163828,25.1514856 L30.2190632,25.2641946 L30.2323123,25.2641946 L30.2960736,25.3261846 L34.6061679,22.900525 C35.0773387,22.6356587 35.105493,22.2806252 34.7982797,22.0374957 C34.7767499,22.0197843 34.7469395,22.003683 34.7212694,21.9875817 L34.6442591,21.9368627 C34.2186321,21.7146648 30.7730408,19.7664085 30.2960736,19.498322 L30.2960736,19.498322 Z M15.1291786,11.5434788 C15.0521683,11.644917 15,11.7874134 15,11.969358 L15,22.4126558 L15,33.0564147 C15,33.1691238 15.024842,33.2657315 15.0645893,33.3430177 L15.0778384,33.3317468 L15.0902594,33.3317468 L15.2318591,33.1811998 L26.3983571,22.4005799 L26.3080977,22.3120228 L26.2956767,22.3120228 L26.2567575,22.2878708 L15.2956203,11.6940259 L15.1805188,11.5813169 L15.1283506,11.5434788 L15.1291786,11.5434788 Z M15.9009381,11.4436508 L16.119548,11.6441119 L16.1452182,11.669874 L16.1576392,11.669874 L26.8355771,21.9875817 L27.9675461,20.8991344 L29.6013244,19.3228179 L29.7429241,19.1980329 L25.2398899,16.6596643 L16.0168676,11.4814888 C16.0044466,11.4742433 15.9903694,11.4750483 15.9779484,11.4694129 C15.9522783,11.4557268 15.9257801,11.4549217 15.9009381,11.4436508 L15.9009381,11.4436508 Z" id="Shape" fill="#F7F7F7"></path>
                </g>
            </g>
        </g>
    </g>
</svg>