<?xml version="1.0" encoding="UTF-8"?>
<svg width="29px" height="24px" viewBox="0 0 29 24" version="1.1" xmlns="http://www.w3.org/2000/svg" xmlns:xlink="http://www.w3.org/1999/xlink">
    <!-- Generator: Sketch 43.2 (39069) - http://www.bohemiancoding.com/sketch -->
    <title>Group 12</title>
    <desc>Created with Sketch.</desc>
    <defs></defs>
    <g id="Home-Desktop-Designs" stroke="none" stroke-width="1" fill="none" fill-rule="evenodd">
        <g id="Home_Desktop" transform="translate(-798.000000, -1051.000000)">
            <g id="Group-12" transform="translate(794.000000, 1045.000000)">
                <rect id="Rectangle-3" x="0" y="0" width="36" height="36"></rect>
                <g id="Group-7" transform="translate(4.000000, 6.000000)" fill="#000000">
                    <path d="M15.2752579,16.6785059 C14.7871208,17.0815966 14.7263208,17.7940623 15.1397608,18.2699804 C15.3690636,18.5336265 15.6956465,18.6691192 16.0239665,18.6691192 C16.2885912,18.6691192 16.5543741,18.5816135 16.772096,18.4020857 L19.7049722,15.980154 C20.0761417,15.6736018 20.2110598,15.1745371 20.0442941,14.7296695 C19.8769493,14.2848018 19.4426636,13.9889761 18.9568427,13.9889761 L3.32255695,13.9889761 C3.00350171,13.9889761 2.74350933,13.7360565 2.74350933,13.4244233 L2.74350933,3.26247207 C2.74350933,2.95140345 3.00350171,2.69791922 3.32255695,2.69791922 L17.2196998,2.69791922 C17.538755,2.69791922 17.7987474,2.95140345 17.7987474,3.26247207 C17.7987474,3.88630296 18.316995,4.39157776 18.9568427,4.39157776 C19.5961112,4.39157776 20.1149379,3.88630296 20.1149379,3.26247207 C20.1149379,1.70599987 18.8161341,0.439707837 17.2196998,0.439707837 L3.32255695,0.439707837 C1.72612267,0.439707837 0.427318857,1.70599987 0.427318857,3.26247207 L0.427318857,13.4244233 C0.427318857,14.9808955 1.72612267,16.2471875 3.32255695,16.2471875 L15.7975589,16.2471875 L15.2752579,16.6785059 Z" id="Fill-3"></path>
                    <path d="M25.5276434,7.48301268 L13.0352701,7.48301268 L13.6988587,6.93088 C14.1852587,6.52666016 14.2431634,5.81362992 13.8279863,5.33940553 C13.4133882,4.86518114 12.682051,4.8081613 12.195651,5.21294569 L9.1417539,7.7534335 C8.77232152,8.05998569 8.63856152,8.55905041 8.80706438,9.00278894 C8.97440914,9.44652748 9.40811581,9.74122407 9.89335771,9.74122407 L25.5276434,9.74122407 C25.8466987,9.74122407 26.106691,9.99470829 26.106691,10.3057769 L26.106691,20.4677281 C26.106691,20.7787967 25.8466987,21.032281 25.5276434,21.032281 L11.6305006,21.032281 C11.3114453,21.032281 11.051453,20.7787967 11.051453,20.4677281 C11.051453,19.8444618 10.5326263,19.3386224 9.89335771,19.3386224 C9.25408914,19.3386224 8.73526248,19.8444618 8.73526248,20.4677281 C8.73526248,22.0242003 10.0340663,23.2904924 11.6305006,23.2904924 L25.5276434,23.2904924 C27.1240777,23.2904924 28.4228815,22.0242003 28.4228815,20.4677281 L28.4228815,10.3057769 C28.4228815,8.74930472 27.1240777,7.48301268 25.5276434,7.48301268" id="Fill-5"></path>
                </g>
            </g>
        </g>
    </g>
</svg>