<?xml version="1.0" encoding="UTF-8"?>
<svg width="23px" height="25px" viewBox="0 0 23 25" version="1.1" xmlns="http://www.w3.org/2000/svg" xmlns:xlink="http://www.w3.org/1999/xlink">
    <!-- Generator: Sketch 43.2 (39069) - http://www.bohemiancoding.com/sketch -->
    <title>Group 5</title>
    <desc>Created with Sketch.</desc>
    <defs></defs>
    <g id="Home-Desktop-Designs" stroke="none" stroke-width="1" fill="none" fill-rule="evenodd">
        <g id="Home_Desktop" transform="translate(-801.000000, -956.000000)">
            <g id="Group-5" transform="translate(794.000000, 950.000000)">
                <rect id="Rectangle-3" x="0" y="0" width="36" height="36"></rect>
                <path d="M18.2,8.05310862 C17.9704,8.05310862 17.7413091,8.13066679 17.5534545,8.28578314 L9.42887273,15.0158806 C9.17941818,15.22236 9.03636364,15.5325927 9.03636364,15.8679933 L9.03636364,27.5048008 C9.03636364,28.1006119 9.49301818,28.5854789 10.0545455,28.5854789 L26.3454545,28.5854789 C26.9069818,28.5854789 27.3636364,28.1006119 27.3636364,27.5048008 L27.3636364,15.8679933 C27.3636364,15.5325927 27.2205818,15.22236 26.9716364,15.0158806 L18.8460364,8.28578314 C18.6586909,8.13066679 18.4296,8.05310862 18.2,8.05310862 M26.3454545,30.64 L10.0545455,30.64 C8.36996364,30.64 7,29.2336803 7,27.5048008 L7,15.8679933 C7,14.9152091 7.4144,14.0256015 8.1368,13.4272222 L16.2618909,6.69763832 C17.3849455,5.76745389 19.0150545,5.76745389 20.1381091,6.69763832 L28.2637091,13.4277358 C28.9861091,14.0256015 29.4,14.9152091 29.4,15.8679933 L29.4,27.5048008 C29.4,29.2336803 28.0300364,30.64 26.3454545,30.64" id="Fill-7" fill="#FFFFFF"></path>
            </g>
        </g>
    </g>
</svg>