<?xml version="1.0" encoding="UTF-8"?>
<svg width="44px" height="45px" viewBox="0 0 44 45" version="1.1" xmlns="http://www.w3.org/2000/svg" xmlns:xlink="http://www.w3.org/1999/xlink">
    <!-- Generator: Sketch 43.1 (39012) - http://www.bohemiancoding.com/sketch -->
    <title>Group 21</title>
    <desc>Created with Sketch.</desc>
    <defs></defs>
    <g id="Page-1" stroke="none" stroke-width="1" fill="none" fill-rule="evenodd">
        <g id="Home-Copy-3" transform="translate(-551.000000, -5188.000000)">
            <g id="Group-13" transform="translate(133.000000, 5188.000000)">
                <g id="Group-21" transform="translate(418.000000, 0.000000)">
                    <rect id="Rectangle" x="0" y="0.443650814" width="44" height="44"></rect>
                    <circle id="Oval" stroke="#F7F7F7" stroke-width="2" cx="22" cy="22.4436508" r="21"></circle>
                    <path d="M30.526149,17.2893824 C31.4160944,16.7277762 32.0989611,15.8372663 32.41944,14.7764545 C31.5861948,15.2977603 30.6654341,15.6747645 29.6830428,15.8788668 C28.899102,14.9948569 27.7786582,14.4436508 26.5386512,14.4436508 C24.1597112,14.4436508 22.231907,16.4781734 22.231907,18.9872013 C22.231907,19.3434053 22.2676528,19.6905091 22.3416094,20.0220128 C18.762106,19.8322107 15.5881317,18.0251906 13.4618771,15.27436 C13.0908611,15.9477675 12.8788519,16.7277762 12.8788519,17.5597854 C12.8788519,19.1354029 13.6393731,20.5264184 14.7955626,21.3428275 C14.0892763,21.3194272 13.4248987,21.1127249 12.8431062,20.7747212 L12.8431062,20.8306218 C12.8431062,23.0328462 14.3271703,24.8697667 16.3005811,25.2857713 C15.9381933,25.3923725 15.558549,25.4456731 15.1641134,25.4456731 C14.8867758,25.4456731 14.6156013,25.4183728 14.3542877,25.3650722 C14.9015672,27.1694922 16.4928685,28.4851068 18.3787639,28.5202072 C16.9033281,29.7396208 15.0457827,30.4650288 13.0279979,30.4650288 C12.6804015,30.4650288 12.3365029,30.4455286 12,30.4026281 C13.9068498,31.6909425 16.1711569,32.4436508 18.6043317,32.4436508 C26.5300229,32.4436508 30.8614193,25.5197739 30.8614193,19.5150072 C30.8614193,19.317405 30.858954,19.1211028 30.8503258,18.9274006 C31.6921993,18.2864935 32.4243705,17.4856846 33,16.5743745 C32.2271527,16.9357785 31.3963726,17.1801812 30.526149,17.2893824 Z" id="Shape" fill="#F7F7F7"></path>
                </g>
            </g>
        </g>
    </g>
</svg>