<?xml version="1.0" encoding="utf-8"?>
<!-- Generator: Adobe Illustrator 22.0.1, SVG Export Plug-In . SVG Version: 6.00 Build 0)  -->
<svg version="1.1" id="Layer_1" xmlns="http://www.w3.org/2000/svg" xmlns:xlink="http://www.w3.org/1999/xlink" x="0px" y="0px"
	 viewBox="0 0 45 45" style="enable-background:new 0 0 45 45;" xml:space="preserve">
<style type="text/css">
	.st0{fill:none;stroke:#57585C;stroke-width:1.0225;stroke-miterlimit:10;}
	.st1{clip-path:url(#SVGID_2_);fill:#F89F27;}
	.st2{clip-path:url(#SVGID_4_);fill:#F89F27;}
	.st3{fill:none;stroke:#57585C;stroke-width:0.9856;stroke-miterlimit:10;}
	.st4{fill:none;stroke:#F89F27;stroke-width:0.4544;stroke-miterlimit:10;}
	.st5{fill:none;stroke:#F89F27;stroke-width:1.0454;stroke-miterlimit:10;}
	.st6{fill:none;stroke:#54565A;stroke-width:1.0454;stroke-miterlimit:10;}
	.st7{fill:none;stroke:#F69E27;stroke-width:1.0454;stroke-miterlimit:10;}
	.st8{fill:none;stroke:#54565A;stroke-width:1.046;stroke-miterlimit:10;}
	.st9{fill:none;stroke:#54565A;stroke-width:1.0892;stroke-miterlimit:10;}
	.st10{fill:none;stroke:#FFA400;stroke-width:0.9682;stroke-miterlimit:10;}
	.st11{fill:none;stroke:#F9A027;stroke-width:1.2516;stroke-miterlimit:10;}
	.st12{fill:none;stroke:#54565A;stroke-width:1.2516;stroke-miterlimit:10;}
	.st13{fill:none;stroke:#58595D;stroke-width:1.0303;stroke-miterlimit:10;}
	.st14{fill:none;stroke:#F69E27;stroke-width:1.0303;stroke-miterlimit:10;}
	.st15{fill:none;stroke:#F89F27;stroke-width:1.2254;stroke-miterlimit:10;}
	.st16{fill:none;stroke:#58595D;stroke-width:1.2254;stroke-miterlimit:10;}
	.st17{fill:none;stroke:#54565A;stroke-width:1.121;stroke-miterlimit:10;}
	.st18{fill:none;stroke:#54565A;stroke-width:1.0089;stroke-miterlimit:10;}
	.st19{fill:none;stroke:#58595D;stroke-width:1.121;stroke-miterlimit:10;}
	.st20{fill:none;stroke:#F89F27;stroke-width:1.121;stroke-miterlimit:10;}
	.st21{fill:none;stroke:#FFA400;stroke-width:0.8982;stroke-miterlimit:10;}
	.st22{fill:none;stroke:#54565A;stroke-width:1.0104;stroke-miterlimit:10;}
	.st23{fill:none;stroke:#57585C;stroke-width:1.2403;stroke-miterlimit:10;}
	.st24{fill:none;stroke:#F69E27;stroke-width:1.2403;stroke-miterlimit:10;}
	.st25{fill:none;stroke:#57585C;stroke-width:1.2293;stroke-miterlimit:10;}
	.st26{fill-rule:evenodd;clip-rule:evenodd;fill:none;stroke:#F89F27;stroke-width:1.2293;stroke-miterlimit:10;}
	.st27{clip-path:url(#SVGID_6_);fill:#57585C;}
	.st28{clip-path:url(#SVGID_8_);fill:#57585C;}
	.st29{fill:none;stroke:#F69E27;stroke-width:1.0225;stroke-miterlimit:10;}
	.st30{fill:none;stroke:#54565A;stroke-width:0.8962;stroke-linejoin:round;stroke-miterlimit:10;}
	.st31{fill:none;stroke:#F89F27;stroke-width:0.8962;stroke-miterlimit:10;}
	.st32{fill:none;stroke:#54565A;stroke-width:1.0203;stroke-miterlimit:10;}
	.st33{fill:none;stroke:#57585C;stroke-width:1.0203;stroke-miterlimit:10;}
	.st34{fill:none;stroke:#F89F27;stroke-width:1.0203;stroke-miterlimit:10;}
	.st35{fill:none;stroke:#F69E27;stroke-width:1.0564;stroke-miterlimit:10;}
	.st36{fill:none;stroke:#54565A;stroke-width:1.0564;stroke-miterlimit:10;}
	.st37{fill:none;stroke:#54565A;stroke-width:1.0279;stroke-miterlimit:10;}
	.st38{fill:none;stroke:#58595D;stroke-width:1.0279;stroke-miterlimit:10;}
	.st39{fill:none;stroke:#F89F27;stroke-width:1.0279;stroke-miterlimit:10;}
	.st40{fill:none;stroke:#57585C;stroke-width:1.121;stroke-miterlimit:10;}
	.st41{clip-path:url(#SVGID_10_);fill:#F89F27;}
	.st42{clip-path:url(#SVGID_12_);fill:#F89F27;}
	.st43{fill:none;stroke:#F89F27;stroke-width:1.0225;stroke-miterlimit:10;}
	.st44{fill:none;stroke:#54565A;stroke-width:1.0225;stroke-miterlimit:10;}
	.st45{fill:none;stroke:#57585C;stroke-width:1.0303;stroke-miterlimit:10;}
	.st46{fill:none;stroke:#F89F27;stroke-width:0.5724;stroke-miterlimit:10;}
</style>
<g>
	<path class="st23" d="M36.3,23.5c0.4,0,0.8,0.1,1.1,0.1c4.5,0.6,7.1,1.9,7.1,2.9c0,1.3-4.7,3.2-12.2,3.2s-12.2-1.9-12.2-3.2
		c0-1,2.5-2.2,6.8-2.8c0.7-0.1,1.4-0.2,2.1-0.2c0.4,0,0.8-0.1,1.3-0.1c0.2,0,0.4,0,0.6,0"/>
	<polygon class="st24" points="36.4,10.4 36.4,20.5 39,20.5 35.4,24.3 33.7,26.1 28.4,20.5 30.9,20.5 30.9,10.4 	"/>
	<path class="st23" d="M44.5,26.8v4.3c0,1.3-4.7,3.2-12.2,3.2s-12.2-1.9-12.2-3.2v-4.3"/>
	<path class="st23" d="M44.5,31.1v4.7c0,1.3-4.7,3.2-12.2,3.2s-12.2-1.9-12.2-3.2v-1.5v-3.2"/>
	<path class="st23" d="M44.5,35.6v4.7c0,1.3-4.7,3.2-12.2,3.2s-12.2-1.9-12.2-3.2v-4.7"/>
	<g>
		<path class="st23" d="M12.7,1.5c7.5,0,12.2,1.9,12.2,3.2s-4.7,3.2-12.2,3.2S0.5,6,0.5,4.7S5.2,1.5,12.7,1.5z"/>
		<path class="st23" d="M24.9,5v4.3c0,1.3-4.7,3.2-12.2,3.2S0.5,10.6,0.5,9.3V5"/>
		<path class="st23" d="M24.9,9.2v4.7c0,1.3-4.7,3.2-12.2,3.2S0.5,15.3,0.5,13.9V9.2"/>
		<path class="st23" d="M24.9,13.8v4.7c0,1.3-4.7,3.2-12.2,3.2S0.5,19.8,0.5,18.5v-4.7"/>
		<path class="st23" d="M24.9,18.3V23c0,1.3-4.7,3.2-12.2,3.2S0.5,24.3,0.5,23v-4.7"/>
		<path class="st23" d="M20.1,30.1c-2,0.4-4.5,0.7-7.4,0.7c-7.5,0-12.2-1.9-12.2-3.2v-4.7"/>
		<path class="st23" d="M20.1,34.6c-2,0.4-4.5,0.7-7.4,0.7c-7.5,0-12.2-1.9-12.2-3.2v-4.7"/>
		<path class="st23" d="M20.1,39.1c-2,0.4-4.5,0.7-7.4,0.7c-7.5,0-12.2-1.9-12.2-3.2v-4.7"/>
	</g>
</g>
</svg>
