<?xml version="1.0" encoding="utf-8"?>
<!-- Generator: Adobe Illustrator 22.0.1, SVG Export Plug-In . SVG Version: 6.00 Build 0)  -->
<svg version="1.1" id="Layer_1" xmlns="http://www.w3.org/2000/svg" xmlns:xlink="http://www.w3.org/1999/xlink" x="0px" y="0px"
	 viewBox="0 0 45 45" style="enable-background:new 0 0 45 45;" xml:space="preserve">
<style type="text/css">
	.st0{fill:none;stroke:#F8A028;stroke-width:1.5;stroke-miterlimit:10;}
	.st1{fill:none;stroke:#56575B;stroke-width:1.5;stroke-miterlimit:10;}
	.st2{fill:none;stroke:#F9A028;stroke-width:1.5;stroke-miterlimit:10;}
	.st3{fill:none;stroke:#54565A;stroke-width:1.5;stroke-miterlimit:10;}
	.st4{fill:none;stroke:#57585C;stroke-width:1.224;stroke-miterlimit:10;}
	.st5{fill:none;stroke:#F9A129;stroke-width:1.224;stroke-miterlimit:10;}
	.st6{fill:none;stroke:#56575B;stroke-width:1.2265;stroke-miterlimit:10;}
	.st7{fill:none;stroke:#F9A027;stroke-width:1.2265;stroke-miterlimit:10;}
	.st8{fill:none;stroke:#F9A027;stroke-width:1.5;stroke-miterlimit:10;}
	.st9{fill:none;stroke:#57585C;stroke-width:1.5;stroke-miterlimit:10;}
	.st10{fill:none;stroke:#57585C;stroke-width:1.2255;stroke-miterlimit:10;}
	.st11{fill:none;stroke:#F8A029;stroke-width:1.2255;stroke-miterlimit:10;}
	.st12{fill:none;stroke:#57585C;stroke-width:1.0277;stroke-miterlimit:10;}
	.st13{fill:none;stroke:#F8A028;stroke-width:1.0277;stroke-miterlimit:10;}
	.st14{fill:none;stroke:#56575B;stroke-width:1.0315;stroke-miterlimit:10;}
	.st15{fill:#F8A028;}
	.st16{fill:none;stroke:#F8A028;stroke-width:1.0315;stroke-miterlimit:10;}
	.st17{fill:none;stroke:#56575B;stroke-width:1.0315;stroke-linejoin:round;stroke-miterlimit:10;}
	.st18{fill:none;stroke:#56575B;stroke-width:1.0354;stroke-miterlimit:10;}
	.st19{fill-rule:evenodd;clip-rule:evenodd;fill:none;stroke:#F9A027;stroke-width:1.0354;stroke-miterlimit:10;}
	.st20{fill:none;stroke:#54565A;stroke-width:1.0329;stroke-miterlimit:10;}
	.st21{fill:none;stroke:#F9A027;stroke-width:1.0329;stroke-miterlimit:10;}
	.st22{fill:#F9A027;}
	.st23{fill-rule:evenodd;clip-rule:evenodd;fill:none;stroke:#54565A;stroke-width:0.9983;stroke-miterlimit:10;}
	.st24{fill:none;stroke:#56575B;stroke-width:0.9983;stroke-miterlimit:10;}
	.st25{fill:none;stroke:#54565A;stroke-width:0.9983;stroke-miterlimit:10;}
	.st26{fill:none;stroke:#F9A027;stroke-width:0.9983;stroke-miterlimit:10;}
	.st27{fill:none;stroke:#56575B;stroke-miterlimit:10;}
	.st28{fill:none;stroke:#F9A028;stroke-miterlimit:10;}
</style>
<g>
	<path class="st3" d="M26.7,29.3l0-4.8h-3.5c-0.2-0.9-0.6-1.8-1.1-2.6l2.5-2.5L21.2,16l-2.5,2.5c-0.8-0.5-1.7-0.8-2.6-1.1l0-3.5
		l-4.8,0l0,3.5c-0.9,0.2-1.8,0.6-2.6,1.1L6.1,16l-3.4,3.4l2.5,2.5c-0.5,0.8-0.8,1.7-1.1,2.6l-3.5,0l0,4.8l3.5,0
		c0.2,0.9,0.6,1.8,1.1,2.6l-2.5,2.5l3.4,3.4l2.5-2.5c0.8,0.5,1.7,0.8,2.6,1.1l0,3.5l4.8,0l0-3.5c0.9-0.2,1.8-0.6,2.6-1.1l2.5,2.5
		l3.4-3.4l-2.5-2.5c0.5-0.8,0.8-1.7,1.1-2.6L26.7,29.3z"/>
	<path class="st3" d="M40.2,23.3l2.6-2.6l-1.9-1.9c0.4-0.6,0.6-1.3,0.8-2h2.7l0-3.7l-2.7,0c-0.2-0.7-0.4-1.4-0.8-2l1.9-1.9l-2.6-2.6
		l-1.9,1.9c-0.6-0.4-1.3-0.6-2-0.8l0-2.7l-3.7,0l0,2.7c-0.7,0.2-1.4,0.4-2,0.8l-1.9-1.9l-2.6,2.6l1.9,1.9c-0.4,0.6-0.6,1.3-0.8,2
		l-2.7,0l0,3.7h2.7c0.2,0.7,0.4,1.4,0.8,2l-1.9,1.9l2.6,2.6l1.9-1.9c0.6,0.4,1.3,0.6,2,0.8l0,2.7l3.7,0l0-2.7c0.7-0.2,1.4-0.4,2-0.8
		L40.2,23.3z"/>
	<path class="st0" d="M13.7,32.6c-3.2,0-5.7-2.6-5.7-5.7s2.6-5.7,5.7-5.7c3.2,0,5.7,2.6,5.7,5.7C19.4,30.1,16.8,32.6,13.7,32.6z"/>
	<path class="st0" d="M32.4,17.1c-1.2-1.2-1.2-3,0-4.2c1.2-1.2,3-1.2,4.2,0c1.2,1.2,1.2,3,0,4.2C35.4,18.2,33.5,18.2,32.4,17.1z"/>
</g>
</svg>
