<?xml version="1.0" encoding="utf-8"?>
<!-- Generator: Adobe Illustrator 22.0.1, SVG Export Plug-In . SVG Version: 6.00 Build 0)  -->
<svg version="1.1" id="Layer_1" xmlns="http://www.w3.org/2000/svg" xmlns:xlink="http://www.w3.org/1999/xlink" x="0px" y="0px"
	 viewBox="0 0 45 45" style="enable-background:new 0 0 45 45;" xml:space="preserve">
<style type="text/css">
	.st0{fill:none;stroke:#F8A028;stroke-width:1.5;stroke-miterlimit:10;}
	.st1{fill:none;stroke:#56575B;stroke-width:1.5;stroke-miterlimit:10;}
	.st2{fill:none;stroke:#F9A028;stroke-width:1.5;stroke-miterlimit:10;}
	.st3{fill:none;stroke:#54565A;stroke-width:1.5;stroke-miterlimit:10;}
	.st4{fill:none;stroke:#57585C;stroke-width:1.224;stroke-miterlimit:10;}
	.st5{fill:none;stroke:#F9A129;stroke-width:1.224;stroke-miterlimit:10;}
	.st6{fill:none;stroke:#56575B;stroke-width:1.2265;stroke-miterlimit:10;}
	.st7{fill:none;stroke:#F9A027;stroke-width:1.2265;stroke-miterlimit:10;}
	.st8{fill:none;stroke:#F9A027;stroke-width:1.5;stroke-miterlimit:10;}
	.st9{fill:none;stroke:#57585C;stroke-width:1.5;stroke-miterlimit:10;}
	.st10{fill:none;stroke:#57585C;stroke-width:1.2255;stroke-miterlimit:10;}
	.st11{fill:none;stroke:#F8A029;stroke-width:1.2255;stroke-miterlimit:10;}
	.st12{fill:none;stroke:#57585C;stroke-width:1.0277;stroke-miterlimit:10;}
	.st13{fill:none;stroke:#F8A028;stroke-width:1.0277;stroke-miterlimit:10;}
	.st14{fill:none;stroke:#56575B;stroke-width:1.0315;stroke-miterlimit:10;}
	.st15{fill:#F8A028;}
	.st16{fill:none;stroke:#F8A028;stroke-width:1.0315;stroke-miterlimit:10;}
	.st17{fill:none;stroke:#56575B;stroke-width:1.0315;stroke-linejoin:round;stroke-miterlimit:10;}
	.st18{fill:none;stroke:#56575B;stroke-width:1.0354;stroke-miterlimit:10;}
	.st19{fill-rule:evenodd;clip-rule:evenodd;fill:none;stroke:#F9A027;stroke-width:1.0354;stroke-miterlimit:10;}
	.st20{fill:none;stroke:#54565A;stroke-width:1.0329;stroke-miterlimit:10;}
	.st21{fill:none;stroke:#F9A027;stroke-width:1.0329;stroke-miterlimit:10;}
	.st22{fill:#F9A027;}
	.st23{fill-rule:evenodd;clip-rule:evenodd;fill:none;stroke:#54565A;stroke-width:0.9983;stroke-miterlimit:10;}
	.st24{fill:none;stroke:#56575B;stroke-width:0.9983;stroke-miterlimit:10;}
	.st25{fill:none;stroke:#54565A;stroke-width:0.9983;stroke-miterlimit:10;}
	.st26{fill:none;stroke:#F9A027;stroke-width:0.9983;stroke-miterlimit:10;}
	.st27{fill:none;stroke:#56575B;stroke-miterlimit:10;}
	.st28{fill:none;stroke:#F9A028;stroke-miterlimit:10;}
</style>
<g>
	<g>
		<path class="st3" d="M14.1,7.6h9.8c1.6-1.5,3.7-3.9,3.8-5c0-0.1,0-0.1,0-0.1c0,0-0.2-0.1-0.5-0.1c-0.4,0-1,0.1-1.6,0.2
			c-1,0.2-2.1,0.4-2.9,0.2c-0.7-0.2-1.4-0.7-2-1.1c-0.6-0.4-1.2-0.9-1.7-0.9c-0.5,0-1.1,0.4-1.7,0.9c-0.6,0.4-1.3,0.9-2,1.1
			c-0.8,0.2-1.9,0.1-2.9-0.2c-0.6-0.1-1.1-0.2-1.6-0.2c-0.3,0-0.4,0-0.5,0.1c0,0,0,0,0,0.1C10.4,3.7,12.5,6.1,14.1,7.6z"/>
		<path class="st3" d="M34.8,27C33.5,20.7,29.3,12.9,24,9.4H14C7.6,13.7,2.8,24.2,2.8,30.9c0,8.5,6.7,9.1,16.2,9.1
			c2.6,0,5,0,7.1-0.3"/>
		<path class="st3" d="M15.3,16.1c0-3.8,1.6-6.8,3.7-6.8s3.7,3.1,3.7,6.8"/>
		<g>
			<line class="st3" x1="13.7" y1="21" x2="24.3" y2="21"/>
			<line class="st3" x1="15.1" y1="24" x2="23.1" y2="24"/>
			<path class="st3" d="M17.5,21c0,0,3,0.3,2.9,2.9c0,0,0,3-5.1,2.6l0,0l6,7.8"/>
		</g>
	</g>
	<g>
		<g>
			<path class="st8" d="M35.2,40.5H32c-1,0-1.8-0.8-1.8-1.8v-3.3c0-1,0.8-1.8,1.8-1.8h3.3c1,0,1.8,0.8,1.8,1.8v3.3
				C37.1,39.7,36.3,40.5,35.2,40.5z"/>
			<path class="st8" d="M35.3,33.6v-1.2c0-0.9-0.8-1.7-1.7-1.7c-0.9,0-1.7,0.8-1.7,1.7l0.1,1.2"/>
			<line class="st8" x1="33.6" y1="37.1" x2="33.6" y2="39.1"/>
		</g>
		<path class="st1" d="M39.7,41.7c-3.4,3.4-8.8,3.4-12.2,0c-0.8-0.8-1.4-1.7-1.8-2.6c-1.4-3.2-0.8-7,1.8-9.6c3.4-3.4,8.8-3.4,12.2,0
			S43.1,38.4,39.7,41.7z"/>
	</g>
</g>
</svg>
