<?xml version="1.0" encoding="utf-8"?>
<!-- Generator: Adobe Illustrator 22.0.1, SVG Export Plug-In . SVG Version: 6.00 Build 0)  -->
<svg version="1.1" id="Layer_1" xmlns="http://www.w3.org/2000/svg" xmlns:xlink="http://www.w3.org/1999/xlink" x="0px" y="0px"
	 viewBox="0 0 45 45" style="enable-background:new 0 0 45 45;" xml:space="preserve">
<style type="text/css">
	.st0{fill:none;stroke:#57585C;stroke-width:1.0225;stroke-miterlimit:10;}
	.st1{clip-path:url(#SVGID_2_);fill:#F89F27;}
	.st2{clip-path:url(#SVGID_4_);fill:#F89F27;}
	.st3{fill:none;stroke:#57585C;stroke-width:0.9856;stroke-miterlimit:10;}
	.st4{fill:none;stroke:#F89F27;stroke-width:0.4544;stroke-miterlimit:10;}
	.st5{fill:none;stroke:#F89F27;stroke-width:1.0454;stroke-miterlimit:10;}
	.st6{fill:none;stroke:#54565A;stroke-width:1.0454;stroke-miterlimit:10;}
	.st7{fill:none;stroke:#F69E27;stroke-width:1.0454;stroke-miterlimit:10;}
	.st8{fill:none;stroke:#54565A;stroke-width:1.046;stroke-miterlimit:10;}
	.st9{fill:none;stroke:#54565A;stroke-width:1.0892;stroke-miterlimit:10;}
	.st10{fill:none;stroke:#FFA400;stroke-width:0.9682;stroke-miterlimit:10;}
	.st11{fill:none;stroke:#F9A027;stroke-width:1.2516;stroke-miterlimit:10;}
	.st12{fill:none;stroke:#54565A;stroke-width:1.2516;stroke-miterlimit:10;}
	.st13{fill:none;stroke:#58595D;stroke-width:1.0303;stroke-miterlimit:10;}
	.st14{fill:none;stroke:#F69E27;stroke-width:1.0303;stroke-miterlimit:10;}
	.st15{fill:none;stroke:#F89F27;stroke-width:1.2254;stroke-miterlimit:10;}
	.st16{fill:none;stroke:#58595D;stroke-width:1.2254;stroke-miterlimit:10;}
	.st17{fill:none;stroke:#54565A;stroke-width:1.121;stroke-miterlimit:10;}
	.st18{fill:none;stroke:#54565A;stroke-width:1.0089;stroke-miterlimit:10;}
	.st19{fill:none;stroke:#58595D;stroke-width:1.121;stroke-miterlimit:10;}
	.st20{fill:none;stroke:#F89F27;stroke-width:1.121;stroke-miterlimit:10;}
	.st21{fill:none;stroke:#FFA400;stroke-width:0.8982;stroke-miterlimit:10;}
	.st22{fill:none;stroke:#54565A;stroke-width:1.0104;stroke-miterlimit:10;}
	.st23{fill:none;stroke:#57585C;stroke-width:1.2403;stroke-miterlimit:10;}
	.st24{fill:none;stroke:#F69E27;stroke-width:1.2403;stroke-miterlimit:10;}
	.st25{fill:none;stroke:#57585C;stroke-width:1.2293;stroke-miterlimit:10;}
	.st26{fill-rule:evenodd;clip-rule:evenodd;fill:none;stroke:#F89F27;stroke-width:1.2293;stroke-miterlimit:10;}
	.st27{clip-path:url(#SVGID_6_);fill:#57585C;}
	.st28{clip-path:url(#SVGID_8_);fill:#57585C;}
	.st29{fill:none;stroke:#F69E27;stroke-width:1.0225;stroke-miterlimit:10;}
	.st30{fill:none;stroke:#54565A;stroke-width:0.8962;stroke-linejoin:round;stroke-miterlimit:10;}
	.st31{fill:none;stroke:#F89F27;stroke-width:0.8962;stroke-miterlimit:10;}
	.st32{fill:none;stroke:#54565A;stroke-width:1.0203;stroke-miterlimit:10;}
	.st33{fill:none;stroke:#57585C;stroke-width:1.0203;stroke-miterlimit:10;}
	.st34{fill:none;stroke:#F89F27;stroke-width:1.0203;stroke-miterlimit:10;}
	.st35{fill:none;stroke:#F69E27;stroke-width:1.0564;stroke-miterlimit:10;}
	.st36{fill:none;stroke:#54565A;stroke-width:1.0564;stroke-miterlimit:10;}
	.st37{fill:none;stroke:#54565A;stroke-width:1.0279;stroke-miterlimit:10;}
	.st38{fill:none;stroke:#58595D;stroke-width:1.0279;stroke-miterlimit:10;}
	.st39{fill:none;stroke:#F89F27;stroke-width:1.0279;stroke-miterlimit:10;}
	.st40{fill:none;stroke:#57585C;stroke-width:1.121;stroke-miterlimit:10;}
	.st41{clip-path:url(#SVGID_10_);fill:#F89F27;}
	.st42{clip-path:url(#SVGID_12_);fill:#F89F27;}
	.st43{fill:none;stroke:#F89F27;stroke-width:1.0225;stroke-miterlimit:10;}
	.st44{fill:none;stroke:#54565A;stroke-width:1.0225;stroke-miterlimit:10;}
	.st45{fill:none;stroke:#57585C;stroke-width:1.0303;stroke-miterlimit:10;}
	.st46{fill:none;stroke:#F89F27;stroke-width:0.5724;stroke-miterlimit:10;}
</style>
<g>
	<path class="st12" d="M4.2,6.7v14.4c0,14.4,15.2,22,18.3,23.4c3.1-1.4,18.3-9,18.3-23.4V6.7c-3.2-0.2-11-1.2-18.3-6.2
		C15.3,5.5,7.4,6.5,4.2,6.7z"/>
	<g>
		<path class="st11" d="M19.5,13.7h5.9c1-0.9,2.2-2.3,2.3-3c0-0.1,0-0.1,0-0.1c0,0-0.1-0.1-0.3-0.1c-0.3,0-0.6,0.1-0.9,0.1
			c-0.6,0.1-1.3,0.2-1.7,0.1c-0.4-0.1-0.8-0.4-1.2-0.7c-0.4-0.3-0.7-0.5-1-0.5c-0.3,0-0.7,0.3-1.1,0.5c-0.4,0.3-0.8,0.5-1.2,0.7
			c-0.5,0.1-1.1,0-1.7-0.1c-0.3-0.1-0.7-0.1-0.9-0.1c-0.2,0-0.3,0-0.3,0.1c0,0,0,0,0,0.1C17.3,11.3,18.6,12.8,19.5,13.7z"/>
		<path class="st11" d="M25.5,15.3h-6c-3.9,2.6-6.8,8.9-6.8,13c0,5.1,4.1,5.5,9.8,5.5c5.7,0,9.8-0.4,9.8-5.5
			C32.3,24.2,29.4,17.9,25.5,15.3z"/>
		<path class="st11" d="M20.3,19.3c0-2.3,1-4.1,2.2-4.1s2.2,1.8,2.2,4.1"/>
	</g>
</g>
</svg>
