<?xml version="1.0" encoding="utf-8"?>
<!-- Generator: Adobe Illustrator 22.0.1, SVG Export Plug-In . SVG Version: 6.00 Build 0)  -->
<svg version="1.1" id="Layer_1" xmlns="http://www.w3.org/2000/svg" xmlns:xlink="http://www.w3.org/1999/xlink" x="0px" y="0px"
	 viewBox="0 0 45 45" style="enable-background:new 0 0 45 45;" xml:space="preserve">
<style type="text/css">
	.st0{fill:none;stroke:#F8A028;stroke-width:1.5;stroke-miterlimit:10;}
	.st1{fill:none;stroke:#56575B;stroke-width:1.5;stroke-miterlimit:10;}
	.st2{fill:none;stroke:#F9A028;stroke-width:1.5;stroke-miterlimit:10;}
	.st3{fill:none;stroke:#54565A;stroke-width:1.5;stroke-miterlimit:10;}
	.st4{fill:none;stroke:#57585C;stroke-width:1.224;stroke-miterlimit:10;}
	.st5{fill:none;stroke:#F9A129;stroke-width:1.224;stroke-miterlimit:10;}
	.st6{fill:none;stroke:#56575B;stroke-width:1.2265;stroke-miterlimit:10;}
	.st7{fill:none;stroke:#F9A027;stroke-width:1.2265;stroke-miterlimit:10;}
	.st8{fill:none;stroke:#F9A027;stroke-width:1.5;stroke-miterlimit:10;}
	.st9{fill:none;stroke:#57585C;stroke-width:1.5;stroke-miterlimit:10;}
	.st10{fill:none;stroke:#57585C;stroke-width:1.2255;stroke-miterlimit:10;}
	.st11{fill:none;stroke:#F8A029;stroke-width:1.2255;stroke-miterlimit:10;}
	.st12{fill:none;stroke:#57585C;stroke-width:1.0277;stroke-miterlimit:10;}
	.st13{fill:none;stroke:#F8A028;stroke-width:1.0277;stroke-miterlimit:10;}
	.st14{fill:none;stroke:#56575B;stroke-width:1.0315;stroke-miterlimit:10;}
	.st15{fill:#F8A028;}
	.st16{fill:none;stroke:#F8A028;stroke-width:1.0315;stroke-miterlimit:10;}
	.st17{fill:none;stroke:#56575B;stroke-width:1.0315;stroke-linejoin:round;stroke-miterlimit:10;}
	.st18{fill:none;stroke:#56575B;stroke-width:1.0354;stroke-miterlimit:10;}
	.st19{fill-rule:evenodd;clip-rule:evenodd;fill:none;stroke:#F9A027;stroke-width:1.0354;stroke-miterlimit:10;}
	.st20{fill:none;stroke:#54565A;stroke-width:1.0329;stroke-miterlimit:10;}
	.st21{fill:none;stroke:#F9A027;stroke-width:1.0329;stroke-miterlimit:10;}
	.st22{fill:#F9A027;}
	.st23{fill-rule:evenodd;clip-rule:evenodd;fill:none;stroke:#54565A;stroke-width:0.9983;stroke-miterlimit:10;}
	.st24{fill:none;stroke:#56575B;stroke-width:0.9983;stroke-miterlimit:10;}
	.st25{fill:none;stroke:#54565A;stroke-width:0.9983;stroke-miterlimit:10;}
	.st26{fill:none;stroke:#F9A027;stroke-width:0.9983;stroke-miterlimit:10;}
	.st27{fill:none;stroke:#56575B;stroke-miterlimit:10;}
	.st28{fill:none;stroke:#F9A028;stroke-miterlimit:10;}
</style>
<g>
	<g>
		<path class="st10" d="M41.9,39.9H31.2c-1.4,0-2.5-1.1-2.5-2.5v0c0-1.4,1.1-2.5,2.5-2.5h10.8c1.4,0,2.5,1.1,2.5,2.5v0
			C44.4,38.7,43.3,39.9,41.9,39.9z"/>
		<path class="st10" d="M38.3,34.9V21.1c0,0-0.9-8-7.9-12.8S18,5.2,18,5.2s-1.7,0.3-1.7,2.3s2.3,2,2.3,2s11,0,13.6,7.5l-4.9,4.9
			L15.4,30c0,0-1.5,1.4-0.6,2.9c1.1,1.8,2.6,1.2,2.6,1.2l9.9-6.4v5.8l-8.1,1.7H2.9c0,0-2.3,0-2.3,2.6s2,2.3,2,2.3h16.5l9.6-2"/>
	</g>
	<g>
		<path class="st11" d="M19.4,17c0-2.5,2-4.4,4.5-4.4c2.5,0,4.5,2,4.5,4.4c0,2.4-2,4.4-4.5,4.4C21.4,21.4,19.4,19.4,19.4,17z"/>
	</g>
</g>
</svg>
