<?xml version="1.0" encoding="utf-8"?>
<!-- Generator: Adobe Illustrator 22.0.1, SVG Export Plug-In . SVG Version: 6.00 Build 0)  -->
<svg version="1.1" id="Layer_1" xmlns="http://www.w3.org/2000/svg" xmlns:xlink="http://www.w3.org/1999/xlink" x="0px" y="0px"
	 viewBox="0 0 45 45" style="enable-background:new 0 0 45 45;" xml:space="preserve">
<style type="text/css">
	.st0{fill:none;stroke:#F8A028;stroke-width:1.5;stroke-miterlimit:10;}
	.st1{fill:none;stroke:#56575B;stroke-width:1.5;stroke-miterlimit:10;}
	.st2{fill:none;stroke:#F9A028;stroke-width:1.5;stroke-miterlimit:10;}
	.st3{fill:none;stroke:#54565A;stroke-width:1.5;stroke-miterlimit:10;}
	.st4{fill:none;stroke:#57585C;stroke-width:1.224;stroke-miterlimit:10;}
	.st5{fill:none;stroke:#F9A129;stroke-width:1.224;stroke-miterlimit:10;}
	.st6{fill:none;stroke:#56575B;stroke-width:1.2265;stroke-miterlimit:10;}
	.st7{fill:none;stroke:#F9A027;stroke-width:1.2265;stroke-miterlimit:10;}
	.st8{fill:none;stroke:#F9A027;stroke-width:1.5;stroke-miterlimit:10;}
	.st9{fill:none;stroke:#57585C;stroke-width:1.5;stroke-miterlimit:10;}
	.st10{fill:none;stroke:#57585C;stroke-width:1.2255;stroke-miterlimit:10;}
	.st11{fill:none;stroke:#F8A029;stroke-width:1.2255;stroke-miterlimit:10;}
	.st12{fill:none;stroke:#57585C;stroke-width:1.0277;stroke-miterlimit:10;}
	.st13{fill:none;stroke:#F8A028;stroke-width:1.0277;stroke-miterlimit:10;}
	.st14{fill:none;stroke:#56575B;stroke-width:1.0315;stroke-miterlimit:10;}
	.st15{fill:#F8A028;}
	.st16{fill:none;stroke:#F8A028;stroke-width:1.0315;stroke-miterlimit:10;}
	.st17{fill:none;stroke:#56575B;stroke-width:1.0315;stroke-linejoin:round;stroke-miterlimit:10;}
	.st18{fill:none;stroke:#56575B;stroke-width:1.0354;stroke-miterlimit:10;}
	.st19{fill-rule:evenodd;clip-rule:evenodd;fill:none;stroke:#F9A027;stroke-width:1.0354;stroke-miterlimit:10;}
	.st20{fill:none;stroke:#54565A;stroke-width:1.0329;stroke-miterlimit:10;}
	.st21{fill:none;stroke:#F9A027;stroke-width:1.0329;stroke-miterlimit:10;}
	.st22{fill:#F9A027;}
	.st23{fill-rule:evenodd;clip-rule:evenodd;fill:none;stroke:#54565A;stroke-width:0.9983;stroke-miterlimit:10;}
	.st24{fill:none;stroke:#56575B;stroke-width:0.9983;stroke-miterlimit:10;}
	.st25{fill:none;stroke:#54565A;stroke-width:0.9983;stroke-miterlimit:10;}
	.st26{fill:none;stroke:#F9A027;stroke-width:0.9983;stroke-miterlimit:10;}
	.st27{fill:none;stroke:#56575B;stroke-miterlimit:10;}
	.st28{fill:none;stroke:#F9A028;stroke-miterlimit:10;}
</style>
<g>
	<g>
		<g>
			<path class="st12" d="M42.2,33.9v3.4c0,1.2-0.9,2.1-2.1,2.1h-5.2c-1.2,0-2.1-0.9-2.1-2.1v-3.4"/>
		</g>
	</g>
	<g>
		<path class="st12" d="M12.5,33.9v3.4c0,1.2-0.9,2.1-2.1,2.1H5.2c-1.2,0-2.1-0.9-2.1-2.1v-3.4"/>
	</g>
	<g>
		<path class="st12" d="M1,28.9v-6.8c0-0.2,0.1-0.4,0.2-0.5l3.8-4c0.4-4.3,2.8-11.9,9.5-11.9h15.8c6.8,0,9.2,7.6,9.5,11.9l3.8,4
			c0.1,0.1,0.2,0.3,0.2,0.5V29"/>
	</g>
	<g>
		<path class="st12" d="M30.7,26.3H14.3c-0.4,0-0.8-0.4-0.8-0.8v-3.3c0-0.4,0.4-0.8,0.8-0.8h16.4c0.4,0,0.8,0.4,0.8,0.8v3.3
			C31.5,26,31.2,26.3,30.7,26.3z"/>
	</g>
	<g>
		<path class="st12" d="M35.6,17.7H9.4c-0.2,0-0.4-0.1-0.6-0.3c-0.2-0.2-0.2-0.4-0.2-0.6c0.3-1.9,1.7-8,7.6-8h12.5
			c5.9,0,7.3,6.1,7.6,8c0,0.2,0,0.5-0.2,0.6C36,17.6,35.8,17.7,35.6,17.7z"/>
	</g>
	<g>
		<path class="st13" d="M43.7,34H1.3c-0.4,0-0.8-0.4-0.8-0.8v-3.6c0-0.4,0.4-0.8,0.8-0.8h42.5c0.4,0,0.8,0.4,0.8,0.8v3.6
			C44.5,33.7,44.2,34,43.7,34z"/>
	</g>
	<circle class="st12" cx="7.8" cy="24.1" r="3.3"/>
	<circle class="st12" cx="37.5" cy="24.1" r="3.3"/>
</g>
</svg>
