<?xml version="1.0" encoding="utf-8"?>
<!-- Generator: Adobe Illustrator 22.0.1, SVG Export Plug-In . SVG Version: 6.00 Build 0)  -->
<svg version="1.1" id="Layer_1" xmlns="http://www.w3.org/2000/svg" xmlns:xlink="http://www.w3.org/1999/xlink" x="0px" y="0px"
	 viewBox="0 0 45 45" style="enable-background:new 0 0 45 45;" xml:space="preserve">
<style type="text/css">
	.st0{fill:none;stroke:#56575B;stroke-width:1.0273;stroke-miterlimit:10;}
	.st1{fill:none;stroke:#F9A027;stroke-width:1.0273;stroke-miterlimit:10;}
	.st2{fill:none;stroke:#56575B;stroke-width:1.1137;stroke-miterlimit:10;}
	.st3{fill:none;stroke:#56575B;stroke-width:1.2215;stroke-miterlimit:10;}
	.st4{fill:none;stroke:#F9A027;stroke-width:1.2215;stroke-miterlimit:10;}
	.st5{fill:none;stroke:#54565A;stroke-width:1.2292;stroke-miterlimit:10;}
	.st6{fill:none;stroke:#FAA51D;stroke-width:1.2292;stroke-miterlimit:10;}
	.st7{fill:none;stroke:#F8A028;stroke-width:1.0242;stroke-miterlimit:10;}
	.st8{fill:none;stroke:#54565A;stroke-width:1.0242;stroke-miterlimit:10;}
	.st9{fill:none;stroke:#54565A;stroke-width:1.2418;stroke-miterlimit:10;}
	.st10{fill:none;stroke:#F8A028;stroke-width:1.2418;stroke-miterlimit:10;}
	.st11{fill:none;stroke:#54565A;stroke-width:1.0234;stroke-miterlimit:10;}
	.st12{fill:none;stroke:#F9A027;stroke-width:1.0234;stroke-miterlimit:10;}
	.st13{fill:none;stroke:#56575B;stroke-width:1.0376;stroke-miterlimit:10;}
	.st14{fill:none;stroke:#56575B;stroke-width:0.5764;stroke-miterlimit:10;}
	.st15{fill:none;stroke:#F9A027;stroke-width:1.0376;stroke-miterlimit:10;}
	.st16{fill:none;stroke:#56575B;stroke-width:1.2204;stroke-miterlimit:10;}
	.st17{fill:none;stroke:#F9A027;stroke-width:1.2204;stroke-miterlimit:10;}
	.st18{fill:none;stroke:#56575B;stroke-width:1.0364;stroke-miterlimit:10;}
	.st19{fill:#F8A028;}
	.st20{fill:none;stroke:#F8A028;stroke-width:1.0364;stroke-miterlimit:10;}
	.st21{fill:none;stroke:#56575B;stroke-width:1.0364;stroke-linejoin:round;stroke-miterlimit:10;}
	.st22{fill:none;stroke:#54565A;stroke-width:1.0237;stroke-miterlimit:10;}
	.st23{fill:none;stroke:#F9A027;stroke-width:1.0237;stroke-miterlimit:10;}
	.st24{fill:none;stroke:#57585C;stroke-width:1.0247;stroke-miterlimit:10;}
	.st25{fill:none;stroke:#54565A;stroke-width:1.0247;stroke-miterlimit:10;}
	.st26{fill:none;stroke:#F8A028;stroke-width:1.0247;stroke-miterlimit:10;}
	.st27{fill:none;stroke:#56575B;stroke-width:1.1166;stroke-miterlimit:10;}
	.st28{fill:none;stroke:#56575B;stroke-width:1.2247;stroke-miterlimit:10;}
	.st29{fill:none;stroke:#F9A027;stroke-width:1.2247;stroke-miterlimit:10;}
	.st30{fill:none;stroke:#54565A;stroke-width:1.2328;stroke-miterlimit:10;}
	.st31{fill:none;stroke:#F8A028;stroke-width:1.2328;stroke-miterlimit:10;}
	.st32{fill:#FFFFFF;stroke:#54565A;stroke-width:1.0215;stroke-miterlimit:10;}
	.st33{fill:none;stroke:#54565A;stroke-width:1.0215;stroke-miterlimit:10;}
	.st34{fill:none;stroke:#57585C;stroke-width:1.0261;stroke-miterlimit:10;}
	.st35{fill:none;stroke:#56575B;stroke-width:1.0261;stroke-miterlimit:10;}
	.st36{fill:none;stroke:#F9A027;stroke-width:0.57;stroke-miterlimit:10;}
	.st37{fill-rule:evenodd;clip-rule:evenodd;fill:none;stroke:#57575B;stroke-width:1.1008;stroke-miterlimit:10;}
	.st38{fill:none;stroke:#57575B;stroke-width:1.1008;stroke-miterlimit:10;}
	.st39{fill:none;stroke:#56575B;stroke-width:1.0519;stroke-miterlimit:10;}
	.st40{fill-rule:evenodd;clip-rule:evenodd;fill:none;stroke:#F9A027;stroke-width:1.0519;stroke-miterlimit:10;}
	.st41{fill:none;stroke:#56565A;stroke-width:0.7123;stroke-miterlimit:10;}
	.st42{fill:none;stroke:#56565A;stroke-width:0.5088;stroke-miterlimit:10;}
	.st43{fill:#FAA21B;}
</style>
<g>
	<path class="st24" d="M10.1,40.2L0.6,31l6.8-6.7c2.8-2.8,7-3.7,10.7-2.4l1.5,0.5h9.2c1.6,0,2.9,1.3,2.9,2.9c0,0,0,0.1,0,0.1
		c-0.1,1.6-1.4,2.8-3,2.8h-5.5c-0.6,0-1.1,0.5-1.1,1.1c0,0.6,0.5,1.1,1.1,1.1H30l9.6-10.1c1.1-1.2,2.6-1.8,3.8-0.8
		c1.3,1,1.2,2.6,0.1,3.9c0,0,0,0.1-0.1,0.1L33.3,35.1C32,36.6,30,37.5,28,37.5H12.7L10.1,40.2z"/>
	<g>
		<path class="st25" d="M26.6,7.1v5.3c0,5.3,5.6,8.2,6.8,8.7c1.1-0.5,6.8-3.3,6.8-8.7V7.1C39,7,36.1,6.7,33.4,4.8
			C30.7,6.7,27.8,7,26.6,7.1z"/>
		<g>
			<line class="st26" x1="29.2" y1="12.9" x2="37.7" y2="12.9"/>
			<line class="st26" x1="33.4" y1="8.7" x2="33.4" y2="17.2"/>
		</g>
	</g>
</g>
</svg>
