<?xml version="1.0" standalone="no"?>
<!DOCTYPE svg PUBLIC "-//W3C//DTD SVG 1.1//EN" "http://www.w3.org/Graphics/SVG/1.1/DTD/svg11.dtd" >
<svg xmlns="http://www.w3.org/2000/svg">
<metadata></metadata>
<defs>
<font id="dax_otlight" horiz-adv-x="454" >
<font-face units-per-em="2048" ascent="1608" descent="-440" />
<missing-glyph horiz-adv-x="573" />
<glyph horiz-adv-x="0" />
<glyph horiz-adv-x="0" />
<glyph horiz-adv-x="682" />
<glyph unicode="&#xd;" horiz-adv-x="573" />
<glyph unicode=" "  horiz-adv-x="573" />
<glyph unicode="&#x09;" horiz-adv-x="573" />
<glyph unicode="&#xa0;" horiz-adv-x="573" />
<glyph unicode="!" horiz-adv-x="520" d="M184 76q0 35 25.5 60.5t60.5 25.5t60.5 -25.5t25.5 -60.5t-25.5 -60.5t-60.5 -25.5t-60.5 25.5t-25.5 60.5zM207 1409h127l-23 -969h-82z" />
<glyph unicode="&#x22;" horiz-adv-x="737" d="M156 1391q24 34 63 34q40 0 64 -34l-31 -478h-66zM455 1391q24 34 63 34q40 0 64 -34l-31 -478h-66z" />
<glyph unicode="#" horiz-adv-x="1310" d="M123 477v66h256l47 352h-246v66h254l62 448h73l-61 -448h360l62 448h74l-62 -448h246v-66h-254l-47 -352h243v-66h-253l-64 -477h-74l64 477h-361l-63 -477h-74l64 477h-246zM453 543h360l47 352h-360z" />
<glyph unicode="$" horiz-adv-x="1003" d="M121 55l39 78q107 -65 284 -65q136 0 221 76t85 212q0 79 -34 138t-88 96t-119 69t-130.5 67t-119.5 78.5t-88 115t-34 165.5q0 141 88 231t236 109v232h82v-227q150 -3 268 -76l-37 -72q-46 29 -113 47.5t-131 18.5q-132 0 -205 -69t-73 -192q0 -78 34 -136.5t88 -95 t119.5 -68t131 -67t119.5 -79.5t88 -117.5t34 -171.5q0 -144 -94 -245t-252 -123v-242h-82v238q-195 0 -317 75z" />
<glyph unicode="%" horiz-adv-x="1679" d="M131 993q0 66 9 127.5t29.5 118.5t50.5 99t75.5 67t101.5 25q69 0 122.5 -37.5t84 -101.5t45.5 -139t15 -159q0 -83 -15 -158.5t-45.5 -139t-84 -101t-122.5 -37.5t-122.5 37.5t-83.5 101t-45 138.5t-15 159zM223 995q0 -68 9 -130t28 -118t54 -89t83 -33t83 33t54 89 t28 118t9 130t-9 130t-28 118t-54 89.5t-83 33.5t-83 -33.5t-54 -89.5t-28 -118t-9 -130zM559 12l485 1409l74 -24l-485 -1409zM1016 416q0 84 15 159t45 138.5t83.5 101t122.5 37.5t122.5 -37.5t83.5 -101t45 -138.5t15 -159t-15 -159t-45 -138.5t-83.5 -101t-122.5 -37.5 t-122.5 37.5t-83.5 101t-45 138.5t-15 159zM1108 418q0 -68 9 -130t28 -118t54 -89.5t83 -33.5t83 33.5t54 89.5t28 118t9 130t-9 130t-28 118t-54 89t-83 33t-83 -33t-54 -89t-28 -118t-9 -130z" />
<glyph unicode="&#x26;" horiz-adv-x="1216" d="M109 360q0 83 31 152t87 118t123 84t150 60v4q-153 29 -233.5 113t-80.5 211q0 79 32.5 143t87 103.5t122 60.5t141.5 21q146 0 260 -70l-34 -70q-99 60 -226 60q-113 0 -191.5 -64t-78.5 -184q0 -119 85 -195t216 -76q114 0 283 33l295 62l16 -80l-258 -43v-746 q-56 -35 -151 -56t-189 -21q-229 0 -358 99t-129 281zM227 360q0 -140 95 -220.5t276 -80.5q132 0 229 41v686q-315 -50 -457.5 -148.5t-142.5 -277.5z" />
<glyph unicode="'" horiz-adv-x="438" d="M156 1391q24 34 63 34q40 0 64 -34l-31 -478h-66z" />
<glyph unicode="(" horiz-adv-x="667" d="M135 586q0 576 397 1046l66 -45q-167 -212 -256.5 -469t-89.5 -532t89.5 -532.5t256.5 -469.5l-66 -45q-397 470 -397 1047z" />
<glyph unicode=")" horiz-adv-x="667" d="M70 -416q167 212 256.5 469.5t89.5 532.5t-89.5 532t-256.5 469l65 45q397 -470 397 -1046q0 -577 -397 -1047z" />
<glyph unicode="*" horiz-adv-x="847" d="M123 1509q0 34 23 57t57 23t57 -23t23 -57t-23 -56.5t-57 -22.5t-57 22.5t-23 56.5zM207 1253q0 34 23 57t57 23q33 0 56.5 -23.5t23.5 -56.5t-23.5 -56t-56.5 -23q-34 0 -57 22.5t-23 56.5zM344 1673q0 34 23 57t57 23t57 -23t23 -57t-23 -57t-57 -23t-57 23t-23 57z M352 1442q0 30 21 50.5t51 20.5q31 0 51.5 -20t20.5 -51t-20.5 -51.5t-51.5 -20.5q-30 0 -51 21t-21 51zM481 1253q0 34 23 57t57 23t57 -23t23 -57t-23 -56.5t-57 -22.5t-57 22.5t-23 56.5zM565 1509q0 34 23 57t57 23t57 -23t23 -57t-23 -56.5t-57 -22.5t-57 22.5 t-23 56.5z" />
<glyph unicode="+" horiz-adv-x="1044" d="M135 651v82h342v346h90v-346h342v-82h-342v-346h-90v346h-342z" />
<glyph unicode="," horiz-adv-x="487" d="M49 -297l150 420q26 39 77 39q21 0 37.5 -10.5t22.5 -28.5l-217 -420h-70z" />
<glyph unicode="-" horiz-adv-x="692" d="M133 643v98h426v-98h-426z" />
<glyph unicode="." horiz-adv-x="483" d="M156 76q0 35 25.5 60.5t60.5 25.5t60.5 -25.5t25.5 -60.5t-25.5 -60.5t-60.5 -25.5t-60.5 25.5t-25.5 60.5z" />
<glyph unicode="/" horiz-adv-x="888" d="M8 -403l705 2031l94 -37l-705 -2031z" />
<glyph unicode="0" horiz-adv-x="1052" d="M127 705q0 111 11.5 210t40 195t72.5 165.5t114.5 112t160.5 42.5t160.5 -42.5t115 -112t73 -165.5t40 -195.5t11.5 -209.5t-11.5 -209.5t-40 -195.5t-73 -165.5t-115 -112t-160.5 -42.5t-160.5 42.5t-114.5 112t-72.5 165.5t-40 195t-11.5 210zM238 707q0 -94 6.5 -177 t25.5 -173t49.5 -153.5t83.5 -105t123 -41.5t123 41.5t83.5 105t50 153.5t26 173t6.5 177t-6.5 177t-26 172.5t-50 153.5t-83.5 105t-123 41t-123 -41t-83.5 -105t-49.5 -153.5t-25.5 -172.5t-6.5 -177z" />
<glyph unicode="1" horiz-adv-x="782" d="M49 1190q317 52 428 219h72v-1409h-111v1237q-64 -40 -175 -72.5t-200 -42.5z" />
<glyph unicode="2" horiz-adv-x="958" d="M49 0l512 725q78 109 104.5 186t26.5 154q0 134 -77 206t-230 72q-142 0 -264 -61l-35 74q139 74 317 74q200 0 305 -97t105 -268q0 -161 -170 -393l-424 -580h617v-92h-787z" />
<glyph unicode="3" horiz-adv-x="929" d="M49 49l33 78q55 -29 132 -46.5t148 -17.5q152 0 244 89t92 245q0 88 -31 154t-85 104.5t-121 57t-146 18.5h-49v72q165 12 270 94.5t105 212.5q0 63 -22.5 110.5t-60.5 74t-83 39t-96 12.5q-138 0 -264 -60l-35 74q140 70 309 70q95 0 177 -33.5t136 -105t54 -167.5 q0 -69 -26 -127t-69.5 -98t-89 -66.5t-96.5 -44.5v-4q47 -10 90.5 -27t90.5 -48.5t81 -72.5t56 -103t22 -136q0 -188 -124.5 -302.5t-311.5 -114.5q-201 0 -330 69z" />
<glyph unicode="4" horiz-adv-x="983" d="M82 342v82l584 985h100v-991h119v-76h-119v-342h-98v342h-586zM172 418h496v661q0 88 6 211h-4q-33 -76 -99 -190z" />
<glyph unicode="5" horiz-adv-x="929" d="M49 49l33 78q118 -64 280 -64q149 0 242.5 97.5t93.5 234.5q0 169 -95.5 264t-289.5 95q-98 0 -192 -15l69 670h596v-92h-516l-55 -500q90 10 139 10q210 0 335.5 -114t125.5 -314q0 -171 -125.5 -295t-314.5 -124q-89 0 -177.5 18t-148.5 51z" />
<glyph unicode="6" horiz-adv-x="1040" d="M123 504q0 341 182 581.5t506 344.5l29 -74q-152 -55 -256 -122.5t-187 -178t-137 -269.5q105 43 225 43q202 0 321.5 -111.5t119.5 -314.5q0 -81 -24 -155t-70.5 -134.5t-124.5 -97t-177 -36.5q-193 0 -300 136.5t-107 387.5zM229 504q0 -212 77 -328.5t229 -116.5 q73 0 128.5 29t88 79t49 110.5t16.5 128.5q0 174 -87 264t-255 90q-116 0 -227 -43q-19 -95 -19 -213z" />
<glyph unicode="7" horiz-adv-x="909" d="M49 1317v92h811l-194 -442q-110 -250 -217.5 -534.5t-149.5 -432.5h-141l569 1317h-678z" />
<glyph unicode="8" horiz-adv-x="1036" d="M115 324q0 64 19.5 120t47 94.5t76 78t86 62.5t98.5 56q-51 28 -86.5 50.5t-76 57t-64.5 70t-40.5 85t-16.5 106.5q0 142 104.5 234t255.5 92t256 -92t105 -234q0 -55 -16 -103t-40 -83t-63.5 -69t-75 -56.5t-86.5 -51.5q59 -32 98 -56t86 -62.5t74.5 -78.5t46.5 -97 t19 -123q0 -148 -117 -246t-287 -98q-104 0 -194.5 39t-149.5 119t-59 186zM221 326q0 -121 87 -194t210 -73q127 0 212 75t85 190q0 58 -17.5 108.5t-42.5 85.5t-68.5 70t-79.5 56.5t-91 51.5q-55 -31 -90 -52.5t-78.5 -57t-68 -70t-41.5 -84t-17 -106.5zM258 1104 q0 -59 20 -107t62 -87.5t81 -66t103 -61.5q47 27 79 48t68 52t57.5 61.5t35.5 72t14 88.5q0 113 -72.5 181.5t-187.5 68.5t-187.5 -68t-72.5 -182z" />
<glyph unicode="9" horiz-adv-x="1040" d="M115 1006q0 81 24 155t70.5 135t124 97.5t176.5 36.5q193 0 300.5 -137t107.5 -388q0 -341 -182.5 -581t-506.5 -344l-28 73q113 41 197.5 88t158 114t128 157.5t95.5 210.5q-105 -43 -225 -43q-202 0 -321 111.5t-119 314.5zM223 1006q0 -174 87 -264.5t255 -90.5 q117 0 228 43q18 90 18 213q0 212 -76.5 329.5t-228.5 117.5q-58 0 -106 -19.5t-80.5 -52.5t-54.5 -77.5t-32 -94.5t-10 -104z" />
<glyph unicode=":" horiz-adv-x="503" d="M176 76q0 35 25.5 60.5t60.5 25.5t60.5 -25.5t25.5 -60.5t-25.5 -60.5t-60.5 -25.5t-60.5 25.5t-25.5 60.5zM176 690q0 35 25.5 60.5t60.5 25.5t60.5 -25.5t25.5 -60.5t-25.5 -60.5t-60.5 -25.5t-60.5 25.5t-25.5 60.5z" />
<glyph unicode=";" horiz-adv-x="503" d="M66 -297l149 420q26 39 78 39q21 0 37 -10.5t22 -28.5l-217 -420h-69zM176 690q0 35 25.5 60.5t60.5 25.5t60.5 -25.5t25.5 -60.5t-25.5 -60.5t-60.5 -25.5t-60.5 25.5t-25.5 60.5z" />
<glyph unicode="&#x3c;" horiz-adv-x="1044" d="M135 651v82l774 352v-96l-676 -295v-4l676 -295v-96z" />
<glyph unicode="=" horiz-adv-x="1044" d="M135 479v82h774v-82h-774zM135 823v82h774v-82h-774z" />
<glyph unicode="&#x3e;" horiz-adv-x="1044" d="M135 299v96l676 295v4l-676 295v96l774 -352v-82z" />
<glyph unicode="?" horiz-adv-x="778" d="M111 1356q51 34 124 54t142 20q164 0 262 -87t98 -235q0 -64 -30 -122t-76.5 -98.5t-95.5 -67.5t-95 -40l-16 -340h-82l-16 379q39 10 76.5 24.5t79 40t72.5 56t51 74.5t20 94q0 108 -66 173t-194 65q-127 0 -218 -56zM297 76q0 35 25.5 60.5t60.5 25.5t60.5 -25.5 t25.5 -60.5t-25.5 -60.5t-60.5 -25.5t-60.5 25.5t-25.5 60.5z" />
<glyph unicode="@" horiz-adv-x="1871" d="M117 438q0 151 42 296t126.5 270.5t200 220.5t273.5 150t337 55q161 0 289 -55t207.5 -149t121 -213.5t41.5 -254.5q0 -114 -32 -226.5t-96.5 -212t-151.5 -176.5t-206 -121.5t-253 -44.5q-115 0 -206 38t-147 104t-85 151.5t-29 184.5q0 163 60 299.5t175.5 220.5 t264.5 84q81 0 151.5 -25.5t112.5 -60.5l-137 -905q92 23 177.5 79.5t155 141.5t111 207t41.5 262q0 96 -20.5 183.5t-66 164t-111 132t-161.5 88t-212 32.5q-162 0 -304.5 -51t-246 -139t-178.5 -204t-112.5 -248.5t-37.5 -269.5q0 -122 28 -233.5t87.5 -210t144.5 -170.5 t207 -114t268 -42q452 0 758 281l47 -55q-158 -147 -363 -223t-442 -76q-161 0 -296.5 44.5t-233 122.5t-165.5 183.5t-101 228t-33 256.5zM643 457q0 -191 99 -298.5t280 -107.5q39 0 59 2l131 889q-75 47 -174 47q-120 0 -212 -77t-137.5 -196.5t-45.5 -258.5z" />
<glyph unicode="A" horiz-adv-x="1171" d="M53 0l486 1409h94l485 -1409h-123l-155 481h-518l-158 -481h-111zM346 557h467l-184 569q-20 63 -45 183h-4q-28 -121 -48 -183z" />
<glyph unicode="B" horiz-adv-x="1112" d="M170 53v1303q148 74 334 74q206 0 323 -94t117 -249q0 -133 -74.5 -217.5t-207.5 -117.5v-4q139 -21 240.5 -124.5t101.5 -246.5q0 -104 -38 -182t-105.5 -124t-152.5 -68.5t-186 -22.5q-215 0 -352 73zM279 98q88 -39 233 -39q79 0 144.5 16.5t118 52t81.5 96.5t29 143 q0 182 -119.5 265t-364.5 83h-122v-617zM279 776h122q223 0 326.5 74.5t103.5 226.5q0 277 -333 277q-126 0 -219 -37v-541z" />
<glyph unicode="C" horiz-adv-x="966" d="M121 705q0 116 19.5 222t61.5 198t101.5 159.5t144.5 106.5t187 39q147 0 260 -76l-35 -72q-43 29 -104 47.5t-121 18.5q-100 0 -177 -54t-122.5 -146t-68.5 -203.5t-23 -237.5q0 -125 23 -237.5t69 -204t123 -145.5t176 -54q60 0 121.5 18t103.5 47l35 -76 q-112 -75 -260 -75q-102 0 -187 39t-144.5 106.5t-101.5 159.5t-61.5 198t-19.5 222z" />
<glyph unicode="D" horiz-adv-x="1193" d="M170 53v1303q148 74 338 74q266 0 415.5 -193t149.5 -532t-149.5 -532t-415.5 -193q-192 0 -338 73zM287 98q82 -35 217 -35q221 0 334.5 169t113.5 475t-113.5 474.5t-334.5 168.5q-135 0 -217 -35v-1217z" />
<glyph unicode="E" horiz-adv-x="886" d="M170 0v1409h621v-80h-504v-557h456v-80h-456v-612h504v-80h-621z" />
<glyph unicode="F" horiz-adv-x="870" d="M170 0v1409h616v-80h-499v-557h454v-80h-454v-692h-117z" />
<glyph unicode="G" horiz-adv-x="1193" d="M121 705q0 335 161 530t427 195q165 0 297 -76l-35 -72q-121 64 -262 64q-218 0 -342.5 -171.5t-124.5 -469.5q0 -160 37.5 -285.5t101.5 -202t145 -115.5t172 -39q139 0 222 35v594h-302v80h418v-719q-60 -34 -153 -53.5t-185 -19.5q-89 0 -171 26t-156.5 83.5 t-129.5 140.5t-87.5 205t-32.5 270z" />
<glyph unicode="H" horiz-adv-x="1189" d="M170 0v1409h117v-637h616v637h117v-1409h-117v692h-616v-692h-117z" />
<glyph unicode="I" horiz-adv-x="473" d="M178 0v1409h117v-1409h-117z" />
<glyph unicode="J" horiz-adv-x="473" d="M-96 -365q128 55 201 184.5t73 317.5v1272h117v-1272q0 -218 -103.5 -374t-287.5 -214v86z" />
<glyph unicode="K" horiz-adv-x="1044" d="M178 0v1409h113v-661h4l545 661h139l-576 -661l596 -748h-149l-555 743h-4v-743h-113z" />
<glyph unicode="L" horiz-adv-x="819" d="M178 0v1409h117v-1329h457v-80h-574z" />
<glyph unicode="M" horiz-adv-x="1585" d="M123 0l176 1409h137l318 -1130q23 -84 37 -173h4q16 96 36 173l318 1130h137l176 -1409h-114l-127 1178q-9 87 -13 161h-4q-22 -110 -37 -161l-331 -1178h-99l-329 1178q-22 78 -37 161h-4q-3 -58 -13 -161l-129 -1178h-102z" />
<glyph unicode="N" horiz-adv-x="1318" d="M170 0v1409h149l658 -1137q45 -75 76 -149h4q-6 85 -6 170v1116h98v-1409h-119l-686 1180q-46 75 -78 151h-4q6 -111 6 -176v-1155h-98z" />
<glyph unicode="O" horiz-adv-x="1220" d="M121 705q0 123 17.5 230t56 198.5t94.5 157t138 102.5t183 37q125 0 221 -56.5t153.5 -156.5t86.5 -229t29 -283t-29 -283t-86.5 -229t-153.5 -156.5t-221 -56.5q-101 0 -183 37t-138 102.5t-94.5 157t-56 198.5t-17.5 230zM240 707q0 -104 11 -194.5t38 -174t68.5 -143 t106 -94.5t146.5 -35q102 0 176.5 52.5t115.5 145t60 202t19 241.5t-19 241.5t-60 202t-115.5 145t-176.5 52.5q-82 0 -146.5 -35t-106 -94.5t-68.5 -143t-38 -174t-11 -194.5z" />
<glyph unicode="P" horiz-adv-x="1026" d="M170 0v1356q145 74 313 74q221 0 336 -111t115 -303q0 -87 -28.5 -160.5t-86 -131.5t-153 -91t-220.5 -33q-75 0 -161 14v-614h-115zM285 688q70 -12 161 -12q101 0 175.5 27t116.5 75.5t61.5 108.5t19.5 133q0 159 -82 246.5t-254 87.5q-105 0 -198 -35v-631z" />
<glyph unicode="Q" horiz-adv-x="1220" d="M121 705q0 123 17.5 230t56 198.5t94.5 157t138 102.5t183 37q125 0 221 -56.5t153.5 -156.5t86.5 -229t29 -283q0 -240 -69 -419t-208 -255l252 -326l-90 -82l-231 379q-68 -22 -144 -22q-101 0 -183 37t-138 102.5t-94.5 157t-56 198.5t-17.5 230zM240 707 q0 -104 11 -194.5t38 -174t68.5 -143t106 -94.5t146.5 -35q102 0 176.5 52.5t115.5 145t60 202t19 241.5t-19 241.5t-60 202t-115.5 145t-176.5 52.5q-82 0 -146.5 -35t-106 -94.5t-68.5 -143t-38 -174t-11 -194.5z" />
<glyph unicode="R" horiz-adv-x="1069" d="M174 0v1356q63 34 148 54t165 20q218 0 336.5 -100.5t118.5 -287.5q0 -157 -121 -267.5t-309 -125.5v-4q79 -59 141 -153l330 -492h-139l-305 481q-104 162 -252 189v-670h-113zM287 723q65 -12 149 -12q177 0 285 91.5t108 239.5q0 155 -87 233.5t-255 78.5 q-107 0 -200 -35v-596z" />
<glyph unicode="S" horiz-adv-x="970" d="M102 55l39 78q107 -65 285 -65q144 0 224.5 79t80.5 203q0 80 -34 140t-87.5 97.5t-119 70t-131 67.5t-119 78.5t-87.5 115t-34 166.5q0 158 108.5 251.5t284.5 93.5q161 0 281 -76l-37 -72q-46 29 -113 47.5t-131 18.5q-132 0 -205.5 -69t-73.5 -192q0 -62 21 -111 t56.5 -82.5t82 -61.5t97 -52.5t101.5 -50t97.5 -59.5t82 -75.5t56.5 -103.5t21 -139q0 -162 -116.5 -267t-305.5 -105q-202 0 -324 75z" />
<glyph unicode="T" horiz-adv-x="874" d="M61 1329v80h752v-80h-317v-1329h-117v1329h-318z" />
<glyph unicode="U" horiz-adv-x="1167" d="M170 395v1014h117v-1014q0 -147 88.5 -235t214.5 -88t214.5 88t88.5 235v1014h104v-1014q0 -114 -47 -208t-142.5 -152t-223.5 -58q-191 0 -302.5 121t-111.5 297z" />
<glyph unicode="V" horiz-adv-x="1048" d="M66 1409h124l291 -1077q20 -74 47 -219h4q21 121 48 219l297 1077h110l-409 -1409h-103z" />
<glyph unicode="W" horiz-adv-x="1650" d="M90 1409h125l234 -1116q19 -98 28 -174h4q13 87 33 174l272 1116h99l264 -1116q17 -76 31 -174h4q16 109 30 174l242 1116h109l-336 -1409h-103l-268 1104q-17 74 -29 168h-4q-13 -103 -28 -168l-269 -1104h-102z" />
<glyph unicode="X" horiz-adv-x="1040" d="M66 0l397 733l-357 676h125l287 -584h4l299 584h113l-356 -664l397 -745h-131l-322 653h-4l-334 -653h-118z" />
<glyph unicode="Y" horiz-adv-x="995" d="M51 1409h129l322 -690h4l330 690h112l-391 -768v-641h-117v641z" />
<glyph unicode="Z" horiz-adv-x="876" d="M57 0l582 1329h-557v80h709l-580 -1329h598v-80h-752z" />
<glyph unicode="[" horiz-adv-x="634" d="M172 -440v2048h360v-70h-258v-1907h258v-71h-360z" />
<glyph unicode="\" horiz-adv-x="888" d="M82 1591l94 37l705 -2031l-95 -37z" />
<glyph unicode="]" horiz-adv-x="634" d="M102 -369h258v1907h-258v70h361v-2048h-361v71z" />
<glyph unicode="^" horiz-adv-x="962" d="M123 1040l297 357q22 28 61 28q40 0 62 -28l297 -357l-58 -45l-301 324l-301 -324z" />
<glyph unicode="_" horiz-adv-x="1003" d="M-20 -154h1044v-82h-1044v82z" />
<glyph unicode="`" d="M25 1493q15 37 61 37q40 0 70 -27l155 -274h-69z" />
<glyph unicode="a" horiz-adv-x="978" d="M100 307q0 96 44 168.5t128.5 120t193 76.5t251.5 43v76q0 129 -64.5 191t-193.5 62q-141 0 -266 -71l-31 71q143 80 299 80q171 0 265.5 -85.5t94.5 -250.5v-733q-143 -75 -334 -75q-182 0 -284.5 84.5t-102.5 242.5zM209 307q0 -124 74 -191t219 -67q130 0 215 45v553 q-254 -30 -381 -106.5t-127 -233.5z" />
<glyph unicode="b" horiz-adv-x="1034" d="M158 55v1553h108v-541q100 53 236 53q189 0 304.5 -151.5t115.5 -403.5q0 -172 -52 -302.5t-159.5 -206.5t-259.5 -76q-83 0 -163.5 21.5t-129.5 53.5zM266 90q70 -33 185 -33q95 0 165.5 37.5t112.5 107t62 160t20 203.5q0 221 -90 352.5t-248 131.5q-112 0 -207 -50 v-909z" />
<glyph unicode="c" horiz-adv-x="833" d="M113 553q0 166 46.5 293.5t139.5 202.5t221 75q147 0 232 -69l-31 -70q-79 59 -193 59q-96 0 -166 -66.5t-103.5 -175.5t-33.5 -247q0 -136 34 -246t104 -178t165 -68q110 0 191 60l33 -74q-85 -69 -232 -69q-128 0 -221 75.5t-139.5 203.5t-46.5 294z" />
<glyph unicode="d" horiz-adv-x="1034" d="M113 528q0 122 30 227t87.5 186.5t150 128t209.5 46.5q83 0 178 -26v518h109v-1553q-46 -32 -129.5 -53.5t-178.5 -21.5q-149 0 -253.5 72.5t-153.5 194t-49 281.5zM223 543q0 -105 20 -190.5t61.5 -153t111.5 -105t164 -37.5q124 0 188 37v928q-80 22 -162 22 q-84 0 -150.5 -28.5t-109.5 -76t-71 -113.5t-40 -135.5t-12 -147.5z" />
<glyph unicode="e" horiz-adv-x="1038" d="M113 555q0 262 111 415.5t306 153.5q189 0 292.5 -127.5t103.5 -388.5l-709 -108q11 -204 105 -320.5t266 -116.5q72 0 145 19.5t119 48.5l35 -76q-52 -32 -134 -53.5t-167 -21.5q-224 0 -348.5 149.5t-124.5 425.5zM215 571l602 93q-6 385 -287 385q-153 0 -234 -129.5 t-81 -348.5z" />
<glyph unicode="f" horiz-adv-x="591" d="M88 1036v68h129v178q0 147 77.5 236.5t225.5 89.5h12v-74q-109 0 -156.5 -64.5t-47.5 -185.5v-180h204v-68h-204v-1036h-111v1036h-129z" />
<glyph unicode="g" horiz-adv-x="1034" d="M113 535q0 174 52 305.5t159 207.5t258 76q87 0 165.5 -20t129.5 -53v-1082q0 -198 -103 -314t-291 -116q-84 0 -166 20.5t-139 53.5l41 76q46 -27 114.5 -45.5t133.5 -18.5q155 0 229 89.5t74 238.5v86q-88 -55 -233 -55q-197 0 -310.5 148.5t-113.5 402.5zM223 535 q0 -476 342 -476q120 0 205 54v903q-73 37 -186 37q-182 0 -271.5 -138.5t-89.5 -379.5z" />
<glyph unicode="h" horiz-adv-x="1046" d="M158 0v1608h110v-572q118 76 262 76q81 0 145 -19.5t103 -50.5t65 -73.5t36 -85t10 -88.5v-795h-111v791q0 51 -12 92.5t-39.5 78t-79 56.5t-123.5 20q-139 0 -256 -71v-967h-110z" />
<glyph unicode="i" d="M152 1413q0 31 22 53.5t53 22.5t53.5 -22.5t22.5 -53.5t-22.5 -53.5t-53.5 -22.5t-53 22.5t-22 53.5zM172 0v1104h111v-1104h-111z" />
<glyph unicode="j" horiz-adv-x="464" d="M-31 -377q119 79 166 192.5t47 311.5v977h111v-965q0 -231 -74 -374.5t-250 -217.5v76zM162 1413q0 31 22.5 53.5t53.5 22.5t53 -22.5t22 -53.5t-22 -53.5t-53 -22.5t-53.5 22.5t-22.5 53.5z" />
<glyph unicode="k" horiz-adv-x="929" d="M170 0v1608h106v-1028h5l454 524h131l-477 -526l520 -578h-139l-489 575h-5v-575h-106z" />
<glyph unicode="l" horiz-adv-x="458" d="M174 0v1608h111v-1608h-111z" />
<glyph unicode="m" horiz-adv-x="1667" d="M158 0v1049q160 75 354 75q120 0 195.5 -34t128.5 -105q52 65 131.5 102t173.5 37q186 0 277 -91.5t91 -254.5v-778h-110v778q0 129 -62.5 201t-195.5 72q-153 0 -252 -127v-924h-111v815q0 109 -66 172.5t-200 63.5q-144 0 -244 -43v-1008h-110z" />
<glyph unicode="n" horiz-adv-x="1046" d="M158 0v1049q153 75 338 75q201 0 297 -89t96 -265v-770h-111v770q0 146 -65 213.5t-217 67.5q-130 0 -228 -43v-1008h-110z" />
<glyph unicode="o" horiz-adv-x="1036" d="M113 553q0 126 24 228t72 180t126.5 120.5t182.5 42.5t182.5 -42.5t127 -120t72.5 -180.5t24 -228q0 -170 -41.5 -296t-134.5 -201.5t-230 -75.5q-104 0 -182.5 42.5t-126.5 120.5t-72 181t-24 229zM223 557q0 -82 9.5 -153t31 -135.5t55 -110t84.5 -72.5t115 -27t115 27 t84.5 72.5t55 110t31 135.5t9.5 153q0 102 -15.5 187.5t-48.5 156t-92 110.5t-139 40t-139 -39.5t-92 -110t-48.5 -156t-15.5 -188.5z" />
<glyph unicode="p" horiz-adv-x="1034" d="M158 -440v1491q127 73 305 73q147 0 252 -71.5t156 -194t51 -283.5q0 -279 -129 -435t-351 -156q-97 0 -176 28v-452h-108zM266 86q75 -27 158 -27q188 0 287.5 132.5t99.5 371.5q0 490 -358 490q-112 0 -187 -37v-930z" />
<glyph unicode="q" horiz-adv-x="1034" d="M113 535q0 174 52 305.5t159 207.5t258 76q87 0 165.5 -20t129.5 -53v-1491h-107v479q-88 -55 -233 -55q-197 0 -310.5 148.5t-113.5 402.5zM223 535q0 -476 342 -476q120 0 205 54v903q-73 37 -186 37q-182 0 -271.5 -138.5t-89.5 -379.5z" />
<glyph unicode="r" horiz-adv-x="620" d="M158 0v1049q146 73 340 73q33 0 73 -4l-30 -92q-46 14 -111 14q-95 0 -162 -34v-1006h-110z" />
<glyph unicode="s" horiz-adv-x="827" d="M96 53l35 76q98 -66 234 -66q108 0 175.5 64.5t67.5 161.5q0 63 -27 108.5t-70 72t-95 49t-103.5 47t-94.5 56t-70 87t-27 131.5q0 119 86 201.5t229 82.5q148 0 246 -73l-33 -72q-93 65 -209 65q-104 0 -158.5 -57t-54.5 -145q0 -58 27 -99.5t70.5 -67t96 -47t105 -47.5 t96 -60t70.5 -92.5t27 -137.5q0 -127 -99.5 -219t-248.5 -92q-74 0 -150 20t-125 53z" />
<glyph unicode="t" horiz-adv-x="612" d="M88 1036v68h129v264l111 41v-305h204v-68h-204v-790q0 -83 39 -128.5t114 -45.5q30 0 51 6v-74q-31 -10 -81 -10q-103 0 -168.5 65.5t-65.5 186.5v790h-129z" />
<glyph unicode="u" horiz-adv-x="1024" d="M158 326v778h110v-778q0 -269 256 -269q147 0 232 45v1002h110v-1043q-58 -34 -153.5 -57.5t-188.5 -23.5q-366 0 -366 346z" />
<glyph unicode="v" horiz-adv-x="966" d="M74 1104h119l266 -866q12 -38 28 -127h5q7 63 28 127l275 866h102l-367 -1104h-90z" />
<glyph unicode="w" horiz-adv-x="1548" d="M86 1104h117l225 -871q18 -69 23 -122h4q12 69 26 122l252 871h101l247 -871q17 -63 25 -122h4q7 53 25 122l227 871h104l-319 -1104h-88l-256 885q-16 56 -25 121h-4q-11 -77 -24 -121l-256 -885h-88z" />
<glyph unicode="x" horiz-adv-x="921" d="M68 0l340 578l-304 526h117l240 -442h4l244 442h108l-303 -520l340 -584h-121l-272 500h-4l-275 -500h-114z" />
<glyph unicode="y" horiz-adv-x="966" d="M74 1104h119l268 -871q19 -61 26 -122h5q14 70 30 122l273 871h102l-512 -1544h-123l184 440z" />
<glyph unicode="z" horiz-adv-x="831" d="M68 0l507 1036h-475v68h623l-506 -1036h526v-68h-675z" />
<glyph unicode="{" horiz-adv-x="696" d="M94 553v70q80 14 109.5 72t29.5 169v393q0 170 84.5 260.5t255.5 90.5h21v-70q-142 0 -200 -71t-58 -210v-393q0 -119 -31.5 -180.5t-114.5 -93.5v-4q83 -31 114.5 -93.5t31.5 -181.5v-401q0 -137 58 -208t200 -71v-71h-21q-171 0 -255.5 90t-84.5 260v401 q0 111 -29.5 169.5t-109.5 72.5z" />
<glyph unicode="|" horiz-adv-x="446" d="M174 -440v2048h98v-2048h-98z" />
<glyph unicode="}" horiz-adv-x="696" d="M102 -369q142 0 200 71t58 208v401q0 119 31.5 181.5t114.5 93.5v4q-83 32 -114.5 93.5t-31.5 180.5v393q0 139 -58 210t-200 71v70h21q171 0 255.5 -90.5t84.5 -260.5v-393q0 -111 29.5 -169t109.5 -72v-70q-80 -14 -109.5 -72.5t-29.5 -169.5v-401q0 -170 -84.5 -260 t-255.5 -90h-21v71z" />
<glyph unicode="~" horiz-adv-x="962" d="M123 641q20 90 71.5 143.5t133.5 53.5q39 0 81 -21t72.5 -45.5t72.5 -45.5t81 -21q101 0 135 124l70 -24q-20 -90 -71.5 -143.5t-133.5 -53.5q-39 0 -81 21t-72.5 45.5t-72.5 45.5t-81 21q-101 0 -135 -125z" />
<glyph unicode="&#xa1;" horiz-adv-x="520" d="M184 893q0 35 25.5 60.5t60.5 25.5t60.5 -25.5t25.5 -60.5t-25.5 -60.5t-60.5 -25.5t-60.5 25.5t-25.5 60.5zM207 -440l22 968h82l23 -968h-127z" />
<glyph unicode="&#xa2;" horiz-adv-x="876" d="M131 702q0 206 93.5 336t252.5 152v219h78v-217q129 -3 211 -59l-29 -66q-81 47 -182 47q-109 0 -181 -54t-103 -142.5t-31 -208.5q0 -190 80 -302t231 -112q106 0 184 47l31 -70q-64 -53 -211 -59v-213h-78v215q-161 19 -253.5 145.5t-92.5 341.5z" />
<glyph unicode="&#xa3;" horiz-adv-x="1044" d="M123 0q215 258 215 485q0 87 -27 201h-188v82h164q-49 153 -49 256q0 187 111 296.5t302 109.5q164 0 277 -74l-35 -74q-99 61 -238 61q-143 0 -222 -86.5t-79 -232.5q0 -47 7.5 -98t13 -75.5t20.5 -82.5h365v-82h-344q18 -99 18 -201q0 -93 -40 -203.5t-99 -189.5h635 v-92h-807z" />
<glyph unicode="&#xa4;" horiz-adv-x="1118" d="M123 348l156 156q-50 98 -50 219t50 219l-156 156l61 61l144 -143q91 108 231 108q141 0 232 -108l143 143l61 -61l-155 -156q49 -96 49 -219t-49 -219l155 -156l-61 -61l-143 143q-91 -108 -232 -108q-140 0 -231 108l-144 -143zM328 725q0 -148 65 -241t166 -93 t166.5 93t65.5 241t-65.5 241t-166.5 93t-166 -93t-65 -241z" />
<glyph unicode="&#xa5;" horiz-adv-x="1249" d="M139 1409h129l359 -750h4l366 750h113l-256 -483h213v-70h-248l-139 -262h387v-70h-387v-524h-111v524h-387v70h387l-139 262h-248v70h213z" />
<glyph unicode="&#xa6;" horiz-adv-x="446" d="M174 365h98v-805h-98v805zM174 803v805h98v-805h-98z" />
<glyph unicode="&#xa7;" horiz-adv-x="1056" d="M135 571q0 197 244 336q-123 104 -123 238q0 119 86 202t229 83q147 0 246 -74l-33 -72q-95 66 -209 66q-105 0 -159 -58t-54 -147q0 -58 31 -107.5t80.5 -87.5t109 -74.5t119 -77.5t109 -87t80.5 -112t31 -144q0 -105 -69 -188.5t-181 -143.5q76 -59 116.5 -122.5 t40.5 -147.5q0 -127 -99.5 -219.5t-248.5 -92.5q-74 0 -149.5 20t-124.5 54l35 76q98 -66 233 -66q110 0 177 65t67 163q0 47 -20 89.5t-54 75.5t-77.5 64.5t-92 61.5t-97 61t-92 68.5t-77.5 79.5t-54 98t-20 120zM240 586q0 -44 10.5 -83.5t34 -74t46 -60.5t63 -56.5 t66.5 -48.5t75 -49t71 -46q215 114 215 274q0 52 -18 99t-43 80t-68.5 69t-78 58t-89 56.5t-84.5 55.5q-200 -116 -200 -274z" />
<glyph unicode="&#xa8;" d="M6 1331q0 29 20.5 49.5t49.5 20.5t49 -20.5t20 -49.5t-20 -49t-49 -20t-49.5 20t-20.5 49zM309 1331q0 29 20.5 49.5t49.5 20.5t49.5 -20.5t20.5 -49.5t-20.5 -49t-49.5 -20t-49.5 20t-20.5 49z" />
<glyph unicode="&#xa9;" horiz-adv-x="1699" d="M123 705q0 197 97.5 364.5t265 265t364.5 97.5t364.5 -97.5t265 -265t97.5 -364.5q0 -148 -57.5 -282.5t-155 -232t-232 -155.5t-282.5 -58t-282.5 58t-232 155.5t-155 232t-57.5 282.5zM221 707q0 -130 49 -249.5t133 -207t201 -139.5t246 -52t246 52t201 139.5t133 207 t49 249.5q0 174 -83 322.5t-228 236.5t-318 88t-318 -88t-228 -236.5t-83 -322.5zM494 711q0 179 97.5 301.5t264.5 122.5q112 0 186 -43l-28 -62q-60 31 -144 31q-70 0 -123.5 -29.5t-84.5 -80t-46.5 -111t-15.5 -129.5q0 -93 28 -169.5t91 -126.5t151 -50q80 0 142 30 l30 -65q-65 -43 -186 -43q-169 0 -265.5 120t-96.5 304z" />
<glyph unicode="&#xaa;" horiz-adv-x="761" d="M98 874q0 66 30.5 116t88 82t130.5 51.5t169 29.5v49q0 82 -42 121t-126 39q-96 0 -182 -47l-27 59q100 56 215 56q120 0 186 -59t66 -175v-494q-97 -51 -237 -51q-128 0 -199.5 57t-71.5 166zM190 877q0 -80 49 -124t142 -44q73 0 135 30v357q-163 -20 -244.5 -69.5 t-81.5 -149.5z" />
<glyph unicode="&#xab;" horiz-adv-x="942" d="M123 684l258 449l70 -46l-234 -403l234 -403l-70 -45zM471 684l258 449l70 -46l-234 -403l234 -403l-70 -45z" />
<glyph unicode="&#xac;" horiz-adv-x="1044" d="M135 651v82h774v-428h-90v346h-684z" />
<glyph unicode="&#xad;" horiz-adv-x="692" d="M133 643v98h426v-98h-426z" />
<glyph unicode="&#xae;" horiz-adv-x="1699" d="M123 705q0 197 97.5 364.5t265 265t364.5 97.5t364.5 -97.5t265 -265t97.5 -364.5q0 -148 -57.5 -282.5t-155 -232t-232 -155.5t-282.5 -58t-282.5 58t-232 155.5t-155 232t-57.5 282.5zM221 707q0 -130 49 -249.5t133 -207t201 -139.5t246 -52t246 52t201 139.5t133 207 t49 249.5q0 174 -83 322.5t-228 236.5t-318 88t-318 -88t-228 -236.5t-83 -322.5zM627 299v803q88 45 202 45q137 0 211 -60.5t74 -175.5q0 -90 -66 -153.5t-171 -77.5v-4q42 -34 81 -94l183 -283h-117l-164 276q-55 92 -135 111v-387h-98zM725 729q35 -6 80 -6 q96 0 153.5 51.5t57.5 134.5q0 176 -187 176q-55 0 -104 -18v-338z" />
<glyph unicode="&#xaf;" d="M-10 1270v80h475v-80h-475z" />
<glyph unicode="&#xb0;" horiz-adv-x="880" d="M143 1133q0 123 87 210t210 87t210 -87t87 -210t-87 -210t-210 -87t-210 87t-87 210zM221 1133q0 -92 64 -158t155 -66t155 66t64 158t-64 157.5t-155 65.5t-155 -65.5t-64 -157.5z" />
<glyph unicode="&#xb1;" horiz-adv-x="1044" d="M135 0v82h774v-82h-774zM135 651v82h342v346h90v-346h342v-82h-342v-346h-90v346h-342z" />
<glyph unicode="&#xb2;" horiz-adv-x="655" d="M43 975l307 436q76 110 76 195q0 155 -176 155q-76 0 -156 -37l-26 64q85 45 200 45q127 0 191.5 -59.5t64.5 -163.5q0 -97 -104 -238l-236 -319h353v-78h-494z" />
<glyph unicode="&#xb3;" horiz-adv-x="655" d="M63 1004l27 65q69 -37 168 -37q90 0 141.5 49t51.5 136q0 95 -63 139.5t-161 44.5h-28v57q98 8 158.5 54.5t60.5 119.5q0 68 -42 99.5t-108 31.5q-90 0 -159 -34l-27 61q85 43 199 43q97 0 164 -50t67 -138q0 -75 -47 -123.5t-113 -73.5v-4q37 -8 68.5 -23t62 -41 t48.5 -68t18 -95q0 -115 -79 -185.5t-198 -70.5q-130 0 -209 43z" />
<glyph unicode="&#xb4;" d="M143 1229l156 274q30 27 70 27q46 0 61 -37l-217 -264h-70z" />
<glyph unicode="&#xb5;" horiz-adv-x="1032" d="M166 -440v1544h110v-969q108 -78 256 -78q131 0 232 70v977h110v-1018q-145 -106 -342 -106q-150 0 -256 69v-489h-110z" />
<glyph unicode="&#xb6;" horiz-adv-x="1187" d="M102 1014q0 89 29.5 160t80 118.5t119 79t144 45t158.5 13.5q209 0 383 -74v-1796h-111v1751q-125 41 -272 41q-50 0 -125 -11v-1781h-111v1073q-142 35 -218.5 140.5t-76.5 240.5z" />
<glyph unicode="&#xb7;" horiz-adv-x="483" d="M156 690q0 35 25.5 60.5t60.5 25.5t60.5 -25.5t25.5 -60.5t-25.5 -60.5t-60.5 -25.5t-60.5 25.5t-25.5 60.5z" />
<glyph unicode="&#xb8;" d="M0 -393l29 57q54 -6 96 -6q101 0 169 23t68 65q0 72 -155 72q-55 0 -109 -4l27 55q69 6 119 6q115 0 169 -35.5t54 -93.5q0 -71 -86.5 -109t-239.5 -38q-61 0 -141 8z" />
<glyph unicode="&#xb9;" horiz-adv-x="655" d="M119 1688q197 31 262 131h63v-844h-94v717q-35 -22 -99 -39.5t-120 -22.5z" />
<glyph unicode="&#xba;" horiz-adv-x="794" d="M111 1040q0 78 16 146t49 124t89.5 88t131.5 32q60 0 109 -21.5t81.5 -58t54.5 -86.5t32 -106t10 -118t-10 -117.5t-32 -106t-54.5 -86.5t-81.5 -57.5t-109 -21.5q-75 0 -131.5 32t-89.5 87.5t-49 123.5t-16 146zM205 1042q0 -63 9 -116.5t29.5 -101t59.5 -74.5t94 -27 t94 27t60 74.5t30 101t9 116.5t-9 116.5t-30 101t-60 75t-94 27.5t-94 -27.5t-59.5 -75t-29.5 -101t-9 -116.5z" />
<glyph unicode="&#xbb;" horiz-adv-x="942" d="M143 281l234 403l-234 403l70 46l258 -449l-258 -448zM492 281l233 403l-233 403l69 46l258 -449l-258 -448z" />
<glyph unicode="&#xbc;" horiz-adv-x="1576" d="M119 1278q197 31 262 131h63v-844h-94v717q-35 -22 -99 -39t-120 -22zM453 16l655 1411l70 -34l-656 -1411zM956 199v63l347 582h86v-586h69v-59h-69v-199h-84v199h-349zM1030 258h277v365q0 69 4 127h-4q-31 -71 -58 -117z" />
<glyph unicode="&#xbd;" horiz-adv-x="1576" d="M119 1278q197 31 262 131h63v-844h-94v717q-35 -22 -99 -39t-120 -22zM362 16l656 1411l69 -34l-655 -1411zM965 0l307 436q76 110 76 195q0 155 -177 155q-78 0 -155 -36l-27 63q85 45 201 45q127 0 191.5 -59.5t64.5 -163.5q0 -96 -105 -238l-235 -319h352v-78h-493z " />
<glyph unicode="&#xbe;" horiz-adv-x="1576" d="M66 594l26 65q67 -36 168 -36q90 0 141.5 48.5t51.5 135.5q0 95 -63 139.5t-161 44.5h-28v58q98 8 158.5 54.5t60.5 119.5q0 68 -42 99.5t-108 31.5q-87 0 -159 -35l-27 61q85 43 199 43q97 0 164 -50t67 -138q0 -75 -47 -123.5t-113 -73.5v-4q37 -8 68.5 -23t62 -41 t48.5 -68t18 -95q0 -115 -79 -185.5t-198 -70.5q-129 0 -208 43zM467 16l655 1411l70 -34l-655 -1411zM956 199v63l347 582h86v-586h69v-59h-69v-199h-84v199h-349zM1030 258h277v365q0 69 4 127h-4q-22 -60 -58 -117z" />
<glyph unicode="&#xbf;" horiz-adv-x="778" d="M111 -139q0 64 30 122t76.5 98t95.5 67t95 40l16 340h82l16 -378q-39 -10 -76.5 -24.5t-79 -40t-72.5 -56t-51 -74.5t-20 -94q0 -108 66 -173t194 -65q127 0 217 55l37 -65q-51 -34 -124 -54t-142 -20q-164 0 -262 87t-98 235zM379 893q0 35 25.5 60.5t60.5 25.5 t60.5 -25.5t25.5 -60.5t-25.5 -60.5t-60.5 -25.5t-60.5 25.5t-25.5 60.5z" />
<glyph unicode="&#xc0;" horiz-adv-x="1171" d="M53 0l486 1409h94l485 -1409h-123l-155 481h-518l-158 -481h-111zM346 557h467l-184 569q-20 63 -45 183h-4q-28 -121 -48 -183zM346 1798q15 37 62 37q39 0 69 -27l156 -274h-70z" />
<glyph unicode="&#xc1;" horiz-adv-x="1171" d="M53 0l486 1409h94l485 -1409h-123l-155 481h-518l-158 -481h-111zM346 557h467l-184 569q-20 63 -45 183h-4q-28 -121 -48 -183zM539 1534l155 274q30 27 70 27q46 0 61 -37l-217 -264h-69z" />
<glyph unicode="&#xc2;" horiz-adv-x="1171" d="M53 0l486 1409h94l485 -1409h-123l-155 481h-518l-158 -481h-111zM346 557h467l-184 569q-20 63 -45 183h-4q-28 -121 -48 -183zM346 1565l182 198q24 27 58 27q33 0 57 -27l182 -198l-45 -39l-194 172l-195 -172z" />
<glyph unicode="&#xc3;" horiz-adv-x="1171" d="M53 0l486 1409h94l485 -1409h-123l-155 481h-518l-158 -481h-111zM344 1575q28 141 143 141q43 0 103.5 -42t97.5 -42q64 0 82 80l61 -20q-28 -142 -143 -142q-43 0 -103.5 42t-97.5 42q-63 0 -81 -80zM346 557h467l-184 569q-20 63 -45 183h-4q-28 -121 -48 -183z" />
<glyph unicode="&#xc4;" horiz-adv-x="1171" d="M53 0l486 1409h94l485 -1409h-123l-155 481h-518l-158 -481h-111zM346 557h467l-184 569q-20 63 -45 183h-4q-28 -121 -48 -183zM365 1636q0 29 20 49.5t49 20.5t49.5 -20.5t20.5 -49.5t-20.5 -49t-49.5 -20t-49 20t-20 49zM668 1636q0 29 20 49.5t49 20.5t49.5 -20.5 t20.5 -49.5t-20.5 -49t-49.5 -20t-49 20t-20 49z" />
<glyph unicode="&#xc5;" horiz-adv-x="1171" d="M53 0l486 1409h94l485 -1409h-123l-155 481h-518l-158 -481h-111zM346 557h467l-184 569q-20 63 -45 183h-4q-28 -121 -48 -183zM428 1688q0 66 46 111.5t112 45.5t111.5 -45.5t45.5 -111.5t-45.5 -112t-111.5 -46t-112 46t-46 112zM489 1688q0 -41 28.5 -71t68.5 -30 t68 30t28 71t-28 70.5t-68 29.5t-68.5 -29.5t-28.5 -70.5z" />
<glyph unicode="&#xc6;" horiz-adv-x="1519" d="M25 0l593 1409h721v-80h-589l141 -557h446v-80h-426l156 -612h403v-80h-497l-117 481h-522l-197 -481h-112zM365 557h473l-140 571q-12 51 -36 181h-5l-10 -33q-10 -33 -23 -72.5t-28 -75.5z" />
<glyph unicode="&#xc7;" horiz-adv-x="966" d="M121 705q0 116 19.5 222t61.5 198t101.5 159.5t144.5 106.5t187 39q147 0 260 -76l-35 -72q-43 29 -104 47.5t-121 18.5q-100 0 -177 -54t-122.5 -146t-68.5 -203.5t-23 -237.5q0 -125 23 -237.5t69 -204t123 -145.5t176 -54q60 0 121.5 18t103.5 47l35 -76 q-112 -75 -260 -75q-102 0 -187 39t-144.5 106.5t-101.5 159.5t-61.5 198t-19.5 222zM287 -393l28 57q54 -6 97 -6q101 0 169 23t68 65q0 72 -155 72q-55 0 -109 -4l27 55q69 6 118 6q115 0 169.5 -35.5t54.5 -93.5q0 -71 -86.5 -109t-239.5 -38q-61 0 -141 8z" />
<glyph unicode="&#xc8;" horiz-adv-x="886" d="M170 0v1409h621v-80h-504v-557h456v-80h-456v-612h504v-80h-621zM260 1798q15 37 62 37q39 0 69 -27l156 -274h-70z" />
<glyph unicode="&#xc9;" horiz-adv-x="886" d="M170 0v1409h621v-80h-504v-557h456v-80h-456v-612h504v-80h-621zM414 1534l155 274q30 27 70 27q46 0 61 -37l-217 -264h-69z" />
<glyph unicode="&#xca;" horiz-adv-x="886" d="M170 0v1409h621v-80h-504v-557h456v-80h-456v-612h504v-80h-621zM231 1565l183 198q24 27 57 27t57 -27l183 -198l-45 -39l-195 172l-195 -172z" />
<glyph unicode="&#xcb;" horiz-adv-x="886" d="M170 0v1409h621v-80h-504v-557h456v-80h-456v-612h504v-80h-621zM252 1636q0 29 20.5 49.5t49.5 20.5t49 -20.5t20 -49.5t-20 -49t-49 -20t-49.5 20t-20.5 49zM555 1636q0 29 20.5 49.5t49.5 20.5t49 -20.5t20 -49.5t-20 -49t-49 -20t-49.5 20t-20.5 49z" />
<glyph unicode="&#xcc;" horiz-adv-x="473" d="M10 1798q15 37 62 37q39 0 69 -27l156 -274h-70zM178 0v1409h117v-1409h-117z" />
<glyph unicode="&#xcd;" horiz-adv-x="473" d="M176 1534l156 274q30 27 69 27q47 0 62 -37l-217 -264h-70zM178 0v1409h117v-1409h-117z" />
<glyph unicode="&#xce;" horiz-adv-x="473" d="M-2 1565l182 198q24 27 58 27q33 0 57 -27l182 -198l-45 -39l-194 172l-195 -172zM178 0v1409h117v-1409h-117z" />
<glyph unicode="&#xcf;" horiz-adv-x="473" d="M16 1636q0 29 20.5 49.5t49.5 20.5t49.5 -20.5t20.5 -49.5t-20.5 -49t-49.5 -20t-49.5 20t-20.5 49zM178 0v1409h117v-1409h-117zM319 1636q0 29 20.5 49.5t49.5 20.5t49.5 -20.5t20.5 -49.5t-20.5 -49t-49.5 -20t-49.5 20t-20.5 49z" />
<glyph unicode="&#xd0;" horiz-adv-x="1210" d="M47 707v71h139v576q63 35 154.5 55.5t189.5 20.5q265 0 412.5 -185.5t147.5 -521.5q0 -347 -141.5 -545t-413.5 -198q-101 0 -194 19.5t-155 53.5v654h-139zM303 98q82 -35 215 -35q236 0 343.5 169t107.5 491q0 308 -114.5 469.5t-340.5 161.5q-129 0 -211 -33v-543h272 v-71h-272v-609z" />
<glyph unicode="&#xd1;" horiz-adv-x="1318" d="M170 0v1409h149l658 -1137q45 -75 76 -149h4q-6 85 -6 170v1116h98v-1409h-119l-686 1180q-46 75 -78 151h-4q6 -111 6 -176v-1155h-98zM422 1575q28 141 143 141q43 0 103.5 -42t97.5 -42q64 0 82 80l61 -20q-28 -142 -143 -142q-43 0 -103.5 42t-97.5 42q-64 0 -82 -80 z" />
<glyph unicode="&#xd2;" horiz-adv-x="1220" d="M121 705q0 123 17.5 230t56 198.5t94.5 157t138 102.5t183 37q125 0 221 -56.5t153.5 -156.5t86.5 -229t29 -283t-29 -283t-86.5 -229t-153.5 -156.5t-221 -56.5q-101 0 -183 37t-138 102.5t-94.5 157t-56 198.5t-17.5 230zM240 707q0 -104 11 -194.5t38 -174t68.5 -143 t106 -94.5t146.5 -35q102 0 176.5 52.5t115.5 145t60 202t19 241.5t-19 241.5t-60 202t-115.5 145t-176.5 52.5q-82 0 -146.5 -35t-106 -94.5t-68.5 -143t-38 -174t-11 -194.5zM385 1798q15 37 61 37q40 0 70 -27l156 -274h-70z" />
<glyph unicode="&#xd3;" horiz-adv-x="1220" d="M121 705q0 123 17.5 230t56 198.5t94.5 157t138 102.5t183 37q125 0 221 -56.5t153.5 -156.5t86.5 -229t29 -283t-29 -283t-86.5 -229t-153.5 -156.5t-221 -56.5q-101 0 -183 37t-138 102.5t-94.5 157t-56 198.5t-17.5 230zM240 707q0 -104 11 -194.5t38 -174t68.5 -143 t106 -94.5t146.5 -35q102 0 176.5 52.5t115.5 145t60 202t19 241.5t-19 241.5t-60 202t-115.5 145t-176.5 52.5q-82 0 -146.5 -35t-106 -94.5t-68.5 -143t-38 -174t-11 -194.5zM549 1534l156 274q30 27 69 27q47 0 62 -37l-218 -264h-69z" />
<glyph unicode="&#xd4;" horiz-adv-x="1220" d="M121 705q0 123 17.5 230t56 198.5t94.5 157t138 102.5t183 37q125 0 221 -56.5t153.5 -156.5t86.5 -229t29 -283t-29 -283t-86.5 -229t-153.5 -156.5t-221 -56.5q-101 0 -183 37t-138 102.5t-94.5 157t-56 198.5t-17.5 230zM240 707q0 -104 11 -194.5t38 -174t68.5 -143 t106 -94.5t146.5 -35q102 0 176.5 52.5t115.5 145t60 202t19 241.5t-19 241.5t-60 202t-115.5 145t-176.5 52.5q-82 0 -146.5 -35t-106 -94.5t-68.5 -143t-38 -174t-11 -194.5zM371 1565l182 198q24 27 57 27q34 0 58 -27l182 -198l-45 -39l-195 172l-194 -172z" />
<glyph unicode="&#xd5;" horiz-adv-x="1220" d="M121 705q0 123 17.5 230t56 198.5t94.5 157t138 102.5t183 37q125 0 221 -56.5t153.5 -156.5t86.5 -229t29 -283t-29 -283t-86.5 -229t-153.5 -156.5t-221 -56.5q-101 0 -183 37t-138 102.5t-94.5 157t-56 198.5t-17.5 230zM240 707q0 -104 11 -194.5t38 -174t68.5 -143 t106 -94.5t146.5 -35q102 0 176.5 52.5t115.5 145t60 202t19 241.5t-19 241.5t-60 202t-115.5 145t-176.5 52.5q-82 0 -146.5 -35t-106 -94.5t-68.5 -143t-38 -174t-11 -194.5zM367 1575q28 141 143 141q43 0 103.5 -42t97.5 -42q64 0 82 80l61 -20q-28 -142 -143 -142 q-43 0 -103.5 42t-97.5 42q-64 0 -82 -80z" />
<glyph unicode="&#xd6;" horiz-adv-x="1220" d="M121 705q0 123 17.5 230t56 198.5t94.5 157t138 102.5t183 37q125 0 221 -56.5t153.5 -156.5t86.5 -229t29 -283t-29 -283t-86.5 -229t-153.5 -156.5t-221 -56.5q-101 0 -183 37t-138 102.5t-94.5 157t-56 198.5t-17.5 230zM240 707q0 -104 11 -194.5t38 -174t68.5 -143 t106 -94.5t146.5 -35q102 0 176.5 52.5t115.5 145t60 202t19 241.5t-19 241.5t-60 202t-115.5 145t-176.5 52.5q-82 0 -146.5 -35t-106 -94.5t-68.5 -143t-38 -174t-11 -194.5zM389 1636q0 29 20.5 49.5t49.5 20.5t49 -20.5t20 -49.5t-20 -49t-49 -20t-49.5 20t-20.5 49z M692 1636q0 29 20.5 49.5t49.5 20.5t49 -20.5t20 -49.5t-20 -49t-49 -20t-49.5 20t-20.5 49z" />
<glyph unicode="&#xd7;" horiz-adv-x="1044" d="M135 362l330 330l-330 330l58 57l329 -329l330 329l57 -57l-329 -330l329 -330l-57 -57l-330 330l-329 -330z" />
<glyph unicode="&#xd8;" horiz-adv-x="1220" d="M121 705q0 123 17.5 230t56 198.5t94.5 157t138 102.5t183 37q193 0 318 -138l114 191l54 -33l-127 -211q131 -198 131 -534q0 -154 -29 -283t-86.5 -229t-153.5 -156.5t-221 -56.5q-193 0 -317 137l-115 -191l-53 33l127 211q-131 198 -131 535zM233 709q0 -274 78 -443 l568 942q-97 148 -269 148q-84 0 -150 -36t-108 -96t-69.5 -145t-38.5 -175.5t-11 -194.5zM346 205q97 -144 264 -144q84 0 150 36t108 96.5t69.5 145.5t38.5 175.5t11 194.5q0 265 -76 436z" />
<glyph unicode="&#xd9;" horiz-adv-x="1167" d="M170 395v1014h117v-1014q0 -147 88.5 -235t214.5 -88t214.5 88t88.5 235v1014h104v-1014q0 -114 -47 -208t-142.5 -152t-223.5 -58q-191 0 -302.5 121t-111.5 297zM385 1798q15 37 61 37q40 0 70 -27l156 -274h-70z" />
<glyph unicode="&#xda;" horiz-adv-x="1167" d="M170 395v1014h117v-1014q0 -147 88.5 -235t214.5 -88t214.5 88t88.5 235v1014h104v-1014q0 -114 -47 -208t-142.5 -152t-223.5 -58q-191 0 -302.5 121t-111.5 297zM508 1534l156 274q30 27 69 27q47 0 62 -37l-217 -264h-70z" />
<glyph unicode="&#xdb;" horiz-adv-x="1167" d="M170 395v1014h117v-1014q0 -147 88.5 -235t214.5 -88t214.5 88t88.5 235v1014h104v-1014q0 -114 -47 -208t-142.5 -152t-223.5 -58q-191 0 -302.5 121t-111.5 297zM348 1565l182 198q24 27 58 27q33 0 57 -27l182 -198l-45 -39l-194 172l-195 -172z" />
<glyph unicode="&#xdc;" horiz-adv-x="1167" d="M170 395v1014h117v-1014q0 -147 88.5 -235t214.5 -88t214.5 88t88.5 235v1014h104v-1014q0 -114 -47 -208t-142.5 -152t-223.5 -58q-191 0 -302.5 121t-111.5 297zM369 1636q0 29 20 49.5t49 20.5t49.5 -20.5t20.5 -49.5t-20.5 -49t-49.5 -20t-49 20t-20 49zM672 1636 q0 29 20 49.5t49 20.5t49.5 -20.5t20.5 -49.5t-20.5 -49t-49.5 -20t-49 20t-20 49z" />
<glyph unicode="&#xdd;" horiz-adv-x="995" d="M51 1409h129l322 -690h4l330 690h112l-391 -768v-641h-117v641zM442 1534l156 274q30 27 70 27q46 0 61 -37l-217 -264h-70z" />
<glyph unicode="&#xde;" horiz-adv-x="1044" d="M170 0v1409h115v-256q98 29 198 29q221 0 336 -111t115 -303q0 -87 -28.5 -160t-86 -131t-153 -90.5t-220.5 -32.5q-68 0 -161 11v-365h-115zM285 438q82 -10 161 -10q101 0 175.5 27t116.5 75.5t61.5 108.5t19.5 133q0 159 -82 247.5t-254 88.5q-111 0 -198 -33v-637z " />
<glyph unicode="&#xdf;" horiz-adv-x="1110" d="M162 0v1112q0 106 22 196t67 162.5t122 114t180 41.5q90 0 161.5 -31.5t115.5 -86t67 -124t23 -149.5q0 -101 -29 -186q-132 -8 -202.5 -63t-70.5 -157q0 -43 21.5 -80.5t55.5 -67t75.5 -58.5t83 -62t75.5 -70t55.5 -89t21.5 -113q0 -137 -96 -221t-251 -84 q-49 0 -112 16.5t-105 40.5l31 78q35 -21 88.5 -36t97.5 -15q110 0 173 59t63 162q0 48 -21 90t-55 73t-74.5 61t-81.5 61.5t-75 66t-55 82.5t-21 104q0 118 78.5 190t212.5 91q8 74 8 127q0 63 -14.5 118t-44 100.5t-81 72t-118.5 26.5q-62 0 -111 -25t-80.5 -66.5t-52 -99 t-29 -118.5t-8.5 -129v-1114h-110z" />
<glyph unicode="&#xe0;" horiz-adv-x="978" d="M100 307q0 96 44 168.5t128.5 120t193 76.5t251.5 43v76q0 129 -64.5 191t-193.5 62q-141 0 -266 -71l-31 71q143 80 299 80q171 0 265.5 -85.5t94.5 -250.5v-733q-143 -75 -334 -75q-182 0 -284.5 84.5t-102.5 242.5zM209 307q0 -124 74 -191t219 -67q130 0 215 45v553 q-254 -30 -381 -106.5t-127 -233.5zM289 1493q15 37 61 37q40 0 70 -27l155 -274h-69z" />
<glyph unicode="&#xe1;" horiz-adv-x="978" d="M100 307q0 96 44 168.5t128.5 120t193 76.5t251.5 43v76q0 129 -64.5 191t-193.5 62q-141 0 -266 -71l-31 71q143 80 299 80q171 0 265.5 -85.5t94.5 -250.5v-733q-143 -75 -334 -75q-182 0 -284.5 84.5t-102.5 242.5zM209 307q0 -124 74 -191t219 -67q130 0 215 45v553 q-254 -30 -381 -106.5t-127 -233.5zM434 1229l156 274q30 27 69 27q47 0 62 -37l-217 -264h-70z" />
<glyph unicode="&#xe2;" horiz-adv-x="978" d="M100 307q0 96 44 168.5t128.5 120t193 76.5t251.5 43v76q0 129 -64.5 191t-193.5 62q-141 0 -266 -71l-31 71q143 80 299 80q171 0 265.5 -85.5t94.5 -250.5v-733q-143 -75 -334 -75q-182 0 -284.5 84.5t-102.5 242.5zM209 307q0 -124 74 -191t219 -67q130 0 215 45v553 q-254 -30 -381 -106.5t-127 -233.5zM250 1260l182 198q24 27 57 27q34 0 58 -27l182 -198l-45 -39l-195 172l-194 -172z" />
<glyph unicode="&#xe3;" horiz-adv-x="978" d="M100 307q0 96 44 168.5t128.5 120t193 76.5t251.5 43v76q0 129 -64.5 191t-193.5 62q-141 0 -266 -71l-31 71q143 80 299 80q171 0 265.5 -85.5t94.5 -250.5v-733q-143 -75 -334 -75q-182 0 -284.5 84.5t-102.5 242.5zM209 307q0 -124 74 -191t219 -67q130 0 215 45v553 q-254 -30 -381 -106.5t-127 -233.5zM240 1270q28 141 143 141q43 0 103.5 -42t97.5 -42q64 0 82 80l61 -21q-28 -141 -143 -141q-43 0 -103.5 42t-97.5 42q-64 0 -82 -80z" />
<glyph unicode="&#xe4;" horiz-adv-x="978" d="M100 307q0 96 44 168.5t128.5 120t193 76.5t251.5 43v76q0 129 -64.5 191t-193.5 62q-141 0 -266 -71l-31 71q143 80 299 80q171 0 265.5 -85.5t94.5 -250.5v-733q-143 -75 -334 -75q-182 0 -284.5 84.5t-102.5 242.5zM209 307q0 -124 74 -191t219 -67q130 0 215 45v553 q-254 -30 -381 -106.5t-127 -233.5zM276 1331q0 29 20.5 49.5t49.5 20.5t49.5 -20.5t20.5 -49.5t-20.5 -49t-49.5 -20t-49.5 20t-20.5 49zM580 1331q0 29 20 49.5t49 20.5t49.5 -20.5t20.5 -49.5t-20.5 -49t-49.5 -20t-49 20t-20 49z" />
<glyph unicode="&#xe5;" horiz-adv-x="978" d="M100 307q0 96 44 168.5t128.5 120t193 76.5t251.5 43v76q0 129 -64.5 191t-193.5 62q-141 0 -266 -71l-31 71q143 80 299 80q171 0 265.5 -85.5t94.5 -250.5v-733q-143 -75 -334 -75q-182 0 -284.5 84.5t-102.5 242.5zM209 307q0 -124 74 -191t219 -67q130 0 215 45v553 q-254 -30 -381 -106.5t-127 -233.5zM338 1386q0 66 46 112t112 46t111.5 -46t45.5 -112t-45.5 -111.5t-111.5 -45.5t-112 45.5t-46 111.5zM399 1386q0 -41 28.5 -70.5t68.5 -29.5t68 29.5t28 70.5t-28 71t-68 30t-68.5 -30t-28.5 -71z" />
<glyph unicode="&#xe6;" horiz-adv-x="1617" d="M100 307q0 96 44 168.5t128.5 120t193 76.5t251.5 43v76q0 253 -268 253q-133 0 -256 -71l-31 71q54 31 133.5 55.5t165.5 24.5q75 0 136 -20.5t110.5 -71t72.5 -127.5q51 113 140 166t190 53q189 0 292 -127.5t103 -388.5l-708 -108q11 -204 104.5 -320.5t265.5 -116.5 q72 0 145.5 19.5t119.5 48.5l34 -76q-52 -32 -134 -53.5t-167 -21.5q-124 0 -222 57t-157 166q-92 -223 -327 -223q-164 0 -261.5 89t-97.5 238zM209 307q0 -117 65.5 -187.5t190.5 -70.5q101 0 176.5 75.5t75.5 188.5v334q-254 -30 -381 -106.5t-127 -233.5zM795 571 l602 93q-6 385 -287 385q-140 0 -227.5 -119t-87.5 -359z" />
<glyph unicode="&#xe7;" horiz-adv-x="833" d="M113 553q0 166 46.5 293.5t139.5 202.5t221 75q147 0 232 -69l-31 -70q-79 59 -193 59q-96 0 -166 -66.5t-103.5 -175.5t-33.5 -247q0 -136 34 -246t104 -178t165 -68q110 0 191 60l33 -74q-85 -69 -232 -69q-128 0 -221 75.5t-139.5 203.5t-46.5 294zM186 -393l29 57 q54 -6 96 -6q101 0 169.5 23t68.5 65q0 72 -156 72q-54 0 -108 -4l26 55q69 6 119 6q115 0 169 -35.5t54 -93.5q0 -71 -86 -109t-239 -38q-62 0 -142 8z" />
<glyph unicode="&#xe8;" horiz-adv-x="1038" d="M113 555q0 262 111 415.5t306 153.5q189 0 292.5 -127.5t103.5 -388.5l-709 -108q11 -204 105 -320.5t266 -116.5q72 0 145 19.5t119 48.5l35 -76q-52 -32 -134 -53.5t-167 -21.5q-224 0 -348.5 149.5t-124.5 425.5zM215 571l602 93q-6 385 -287 385q-153 0 -234 -129.5 t-81 -348.5zM311 1493q15 37 62 37q39 0 69 -27l156 -274h-70z" />
<glyph unicode="&#xe9;" horiz-adv-x="1038" d="M113 555q0 262 111 415.5t306 153.5q189 0 292.5 -127.5t103.5 -388.5l-709 -108q11 -204 105 -320.5t266 -116.5q72 0 145 19.5t119 48.5l35 -76q-52 -32 -134 -53.5t-167 -21.5q-224 0 -348.5 149.5t-124.5 425.5zM215 571l602 93q-6 385 -287 385q-153 0 -234 -129.5 t-81 -348.5zM463 1229l155 274q30 27 70 27q47 0 62 -37l-218 -264h-69z" />
<glyph unicode="&#xea;" horiz-adv-x="1038" d="M113 555q0 262 111 415.5t306 153.5q189 0 292.5 -127.5t103.5 -388.5l-709 -108q11 -204 105 -320.5t266 -116.5q72 0 145 19.5t119 48.5l35 -76q-52 -32 -134 -53.5t-167 -21.5q-224 0 -348.5 149.5t-124.5 425.5zM215 571l602 93q-6 385 -287 385q-153 0 -234 -129.5 t-81 -348.5zM293 1260l182 198q24 27 57 27q34 0 58 -27l182 -198l-45 -39l-195 172l-194 -172z" />
<glyph unicode="&#xeb;" horiz-adv-x="1038" d="M113 555q0 262 111 415.5t306 153.5q189 0 292.5 -127.5t103.5 -388.5l-709 -108q11 -204 105 -320.5t266 -116.5q72 0 145 19.5t119 48.5l35 -76q-52 -32 -134 -53.5t-167 -21.5q-224 0 -348.5 149.5t-124.5 425.5zM215 571l602 93q-6 385 -287 385q-153 0 -234 -129.5 t-81 -348.5zM313 1331q0 29 20.5 49.5t49.5 20.5t49.5 -20.5t20.5 -49.5t-20.5 -49t-49.5 -20t-49.5 20t-20.5 49zM616 1331q0 29 20.5 49.5t49.5 20.5t49.5 -20.5t20.5 -49.5t-20.5 -49t-49.5 -20t-49.5 20t-20.5 49z" />
<glyph unicode="&#xec;" d="M25 1493q15 37 61 37q40 0 70 -27l155 -274h-69zM172 0v1104h111v-1104h-111z" />
<glyph unicode="&#xed;" d="M143 1229l156 274q30 27 70 27q46 0 61 -37l-217 -264h-70zM172 0v1104h111v-1104h-111z" />
<glyph unicode="&#xee;" d="M-12 1260l182 198q24 27 57 27q34 0 58 -27l182 -198l-45 -39l-195 172l-194 -172zM172 0v1104h111v-1104h-111z" />
<glyph unicode="&#xef;" d="M6 1331q0 29 20.5 49.5t49.5 20.5t49 -20.5t20 -49.5t-20 -49t-49 -20t-49.5 20t-20.5 49zM172 0v1104h111v-1104h-111zM309 1331q0 29 20.5 49.5t49.5 20.5t49.5 -20.5t20.5 -49.5t-20.5 -49t-49.5 -20t-49.5 20t-20.5 49z" />
<glyph unicode="&#xf0;" horiz-adv-x="1036" d="M113 539q0 162 51.5 290.5t153 204.5t237.5 76q74 0 139 -20q-67 140 -178 266l-209 -135l-35 57l197 129l-160 166l68 59l168 -176l190 123l35 -57l-178 -117q332 -376 332 -866q0 -123 -24 -223.5t-72 -176.5t-127.5 -117.5t-184.5 -41.5q-193 0 -298 149.5t-105 409.5 zM223 539q0 -217 74 -348.5t221 -131.5q67 0 119 28.5t84.5 74.5t53.5 110.5t29.5 131t8.5 141.5q0 252 -86 471q-72 28 -156 28q-116 0 -196 -70t-116 -181t-36 -254z" />
<glyph unicode="&#xf1;" horiz-adv-x="1046" d="M158 0v1049q153 75 338 75q201 0 297 -89t96 -265v-770h-111v770q0 146 -65 213.5t-217 67.5q-130 0 -228 -43v-1008h-110zM268 1270q28 141 144 141q43 0 103 -42t97 -42q64 0 82 80l62 -21q-28 -141 -144 -141q-43 0 -103 42t-97 42q-64 0 -82 -80z" />
<glyph unicode="&#xf2;" horiz-adv-x="1036" d="M113 553q0 126 24 228t72 180t126.5 120.5t182.5 42.5t182.5 -42.5t127 -120t72.5 -180.5t24 -228q0 -170 -41.5 -296t-134.5 -201.5t-230 -75.5q-104 0 -182.5 42.5t-126.5 120.5t-72 181t-24 229zM223 557q0 -82 9.5 -153t31 -135.5t55 -110t84.5 -72.5t115 -27t115 27 t84.5 72.5t55 110t31 135.5t9.5 153q0 102 -15.5 187.5t-48.5 156t-92 110.5t-139 40t-139 -39.5t-92 -110t-48.5 -156t-15.5 -188.5zM293 1493q15 37 61 37q40 0 70 -27l156 -274h-70z" />
<glyph unicode="&#xf3;" horiz-adv-x="1036" d="M113 553q0 126 24 228t72 180t126.5 120.5t182.5 42.5t182.5 -42.5t127 -120t72.5 -180.5t24 -228q0 -170 -41.5 -296t-134.5 -201.5t-230 -75.5q-104 0 -182.5 42.5t-126.5 120.5t-72 181t-24 229zM223 557q0 -82 9.5 -153t31 -135.5t55 -110t84.5 -72.5t115 -27t115 27 t84.5 72.5t55 110t31 135.5t9.5 153q0 102 -15.5 187.5t-48.5 156t-92 110.5t-139 40t-139 -39.5t-92 -110t-48.5 -156t-15.5 -188.5zM453 1229l155 274q30 27 70 27q46 0 61 -37l-217 -264h-69z" />
<glyph unicode="&#xf4;" horiz-adv-x="1036" d="M113 553q0 126 24 228t72 180t126.5 120.5t182.5 42.5t182.5 -42.5t127 -120t72.5 -180.5t24 -228q0 -170 -41.5 -296t-134.5 -201.5t-230 -75.5q-104 0 -182.5 42.5t-126.5 120.5t-72 181t-24 229zM223 557q0 -82 9.5 -153t31 -135.5t55 -110t84.5 -72.5t115 -27t115 27 t84.5 72.5t55 110t31 135.5t9.5 153q0 102 -15.5 187.5t-48.5 156t-92 110.5t-139 40t-139 -39.5t-92 -110t-48.5 -156t-15.5 -188.5zM279 1260l182 198q24 27 57 27t57 -27l183 -198l-45 -39l-195 172l-194 -172z" />
<glyph unicode="&#xf5;" horiz-adv-x="1036" d="M113 553q0 126 24 228t72 180t126.5 120.5t182.5 42.5t182.5 -42.5t127 -120t72.5 -180.5t24 -228q0 -170 -41.5 -296t-134.5 -201.5t-230 -75.5q-104 0 -182.5 42.5t-126.5 120.5t-72 181t-24 229zM223 557q0 -82 9.5 -153t31 -135.5t55 -110t84.5 -72.5t115 -27t115 27 t84.5 72.5t55 110t31 135.5t9.5 153q0 102 -15.5 187.5t-48.5 156t-92 110.5t-139 40t-139 -39.5t-92 -110t-48.5 -156t-15.5 -188.5zM274 1270q28 141 144 141q43 0 103 -42t97 -42q64 0 82 80l62 -21q-28 -141 -144 -141q-43 0 -103 42t-97 42q-64 0 -82 -80z" />
<glyph unicode="&#xf6;" horiz-adv-x="1036" d="M113 553q0 126 24 228t72 180t126.5 120.5t182.5 42.5t182.5 -42.5t127 -120t72.5 -180.5t24 -228q0 -170 -41.5 -296t-134.5 -201.5t-230 -75.5q-104 0 -182.5 42.5t-126.5 120.5t-72 181t-24 229zM223 557q0 -82 9.5 -153t31 -135.5t55 -110t84.5 -72.5t115 -27t115 27 t84.5 72.5t55 110t31 135.5t9.5 153q0 102 -15.5 187.5t-48.5 156t-92 110.5t-139 40t-139 -39.5t-92 -110t-48.5 -156t-15.5 -188.5zM297 1331q0 29 20.5 49.5t49.5 20.5t49 -20.5t20 -49.5t-20 -49t-49 -20t-49.5 20t-20.5 49zM600 1331q0 29 20.5 49.5t49.5 20.5 t49 -20.5t20 -49.5t-20 -49t-49 -20t-49.5 20t-20.5 49z" />
<glyph unicode="&#xf7;" horiz-adv-x="1044" d="M135 651v82h774v-82h-774zM438 373q0 35 24.5 59.5t59.5 24.5t59.5 -24.5t24.5 -59.5t-24.5 -59.5t-59.5 -24.5t-59.5 24.5t-24.5 59.5zM438 1012q0 35 24.5 59.5t59.5 24.5t59.5 -24.5t24.5 -59.5t-24.5 -59.5t-59.5 -24.5t-59.5 24.5t-24.5 59.5z" />
<glyph unicode="&#xf8;" horiz-adv-x="1036" d="M113 553q0 126 24 228t72 180t126.5 120.5t182.5 42.5q163 0 260 -102l94 152l50 -29l-105 -168q107 -147 107 -424q0 -170 -41.5 -296t-134.5 -201.5t-230 -75.5q-163 0 -260 102l-94 -152l-49 29l104 168q-106 146 -106 426zM217 557q0 -212 59 -338l453 725 q-76 113 -211 113q-66 0 -118 -27t-86 -73t-56 -111t-31.5 -136t-9.5 -153zM309 162q75 -109 209 -109q66 0 118 27.5t86 74t56 112t31.5 137t9.5 153.5q0 207 -57 332z" />
<glyph unicode="&#xf9;" horiz-adv-x="1024" d="M158 326v778h110v-778q0 -269 256 -269q147 0 232 45v1002h110v-1043q-58 -34 -153.5 -57.5t-188.5 -23.5q-366 0 -366 346zM317 1493q15 37 62 37q40 0 70 -27l155 -274h-69z" />
<glyph unicode="&#xfa;" horiz-adv-x="1024" d="M158 326v778h110v-778q0 -269 256 -269q147 0 232 45v1002h110v-1043q-58 -34 -153.5 -57.5t-188.5 -23.5q-366 0 -366 346zM451 1229l155 274q30 27 70 27q46 0 61 -37l-217 -264h-69z" />
<glyph unicode="&#xfb;" horiz-adv-x="1024" d="M158 326v778h110v-778q0 -269 256 -269q147 0 232 45v1002h110v-1043q-58 -34 -153.5 -57.5t-188.5 -23.5q-366 0 -366 346zM272 1260l183 198q24 27 57 27t57 -27l183 -198l-45 -39l-195 172l-195 -172z" />
<glyph unicode="&#xfc;" horiz-adv-x="1024" d="M158 326v778h110v-778q0 -269 256 -269q147 0 232 45v1002h110v-1043q-58 -34 -153.5 -57.5t-188.5 -23.5q-366 0 -366 346zM291 1331q0 29 20 49.5t49 20.5t49.5 -20.5t20.5 -49.5t-20.5 -49t-49.5 -20t-49 20t-20 49zM594 1331q0 29 20.5 49.5t49.5 20.5t49 -20.5 t20 -49.5t-20 -49t-49 -20t-49.5 20t-20.5 49z" />
<glyph unicode="&#xfd;" horiz-adv-x="966" d="M74 1104h119l268 -871q19 -61 26 -122h5q14 70 30 122l273 871h102l-512 -1544h-123l184 440zM420 1229l155 274q30 27 70 27q47 0 62 -37l-218 -264h-69z" />
<glyph unicode="&#xfe;" horiz-adv-x="1036" d="M160 -440v2048h108v-545q101 55 236 55q189 0 304.5 -150.5t115.5 -402.5q0 -172 -52 -302.5t-159.5 -206.5t-259.5 -76q-97 0 -185 30v-450h-108zM268 90q70 -33 185 -33q95 0 165.5 37.5t112.5 107t62 160t20 203.5q0 137 -36.5 244.5t-114 173.5t-187.5 66 q-112 0 -207 -50v-909z" />
<glyph unicode="&#xff;" horiz-adv-x="966" d="M74 1104h119l268 -871q19 -61 26 -122h5q14 70 30 122l273 871h102l-512 -1544h-123l184 440zM274 1331q0 29 20.5 49.5t49.5 20.5t49.5 -20.5t20.5 -49.5t-20.5 -49t-49.5 -20t-49.5 20t-20.5 49zM578 1331q0 29 20 49.5t49 20.5t49.5 -20.5t20.5 -49.5t-20.5 -49 t-49.5 -20t-49 20t-20 49z" />
<glyph unicode="&#x152;" horiz-adv-x="1540" d="M121 705q0 154 31.5 282.5t95.5 229t169.5 157t244.5 56.5q90 0 169 -21h613v-80h-502v-557h459v-80h-459v-612h502v-80h-613q-75 -20 -169 -20q-139 0 -244.5 56.5t-169.5 157t-95.5 229t-31.5 282.5zM240 705q0 -105 13.5 -197.5t45 -176.5t79 -143.5t120 -95 t164.5 -35.5q98 0 169 19v1259q-86 23 -169 23q-114 0 -198.5 -53.5t-132 -147.5t-69.5 -206.5t-22 -245.5z" />
<glyph unicode="&#x153;" horiz-adv-x="1720" d="M113 553q0 126 24 228t72 180t126.5 120.5t182.5 42.5q241 0 342 -268q48 133 144.5 200.5t207.5 67.5q189 0 292.5 -127.5t103.5 -388.5l-709 -108q11 -204 105 -320.5t266 -116.5q72 0 145 19.5t119 48.5l35 -76q-52 -32 -134 -53.5t-167 -21.5q-147 0 -250 74.5 t-158 213.5q-41 -132 -126 -210t-216 -78q-104 0 -182.5 42.5t-126.5 120.5t-72 181t-24 229zM223 557q0 -82 9.5 -153t31 -135.5t55 -110t84.5 -72.5t115 -27t115 27t84.5 72.5t55 110t31 135.5t9.5 153q0 102 -15.5 187.5t-48.5 156t-92 110.5t-139 40t-139 -39.5 t-92 -110t-48.5 -156t-15.5 -188.5zM897 571l602 93q-6 385 -287 385q-153 0 -234 -129.5t-81 -348.5z" />
<glyph unicode="&#x178;" horiz-adv-x="995" d="M51 1409h129l322 -690h4l330 690h112l-391 -768v-641h-117v641zM285 1636q0 29 20 49.5t49 20.5t49.5 -20.5t20.5 -49.5t-20.5 -49t-49.5 -20t-49 20t-20 49zM588 1636q0 29 20 49.5t49 20.5t49.5 -20.5t20.5 -49.5t-20.5 -49t-49.5 -20t-49 20t-20 49z" />
<glyph unicode="&#x2c6;" d="M-12 1260l182 198q24 27 57 27q34 0 58 -27l182 -198l-45 -39l-195 172l-194 -172z" />
<glyph unicode="&#x2dc;" d="M-16 1270q28 141 143 141q43 0 103.5 -42t97.5 -42q64 0 82 80l61 -21q-28 -141 -143 -141q-43 0 -103.5 42t-97.5 42q-64 0 -82 -80z" />
<glyph unicode="&#x2000;" horiz-adv-x="922" />
<glyph unicode="&#x2001;" horiz-adv-x="1845" />
<glyph unicode="&#x2002;" horiz-adv-x="922" />
<glyph unicode="&#x2003;" horiz-adv-x="1845" />
<glyph unicode="&#x2004;" horiz-adv-x="615" />
<glyph unicode="&#x2005;" horiz-adv-x="461" />
<glyph unicode="&#x2006;" horiz-adv-x="307" />
<glyph unicode="&#x2007;" horiz-adv-x="307" />
<glyph unicode="&#x2008;" horiz-adv-x="230" />
<glyph unicode="&#x2009;" horiz-adv-x="369" />
<glyph unicode="&#x200a;" horiz-adv-x="102" />
<glyph unicode="&#x2010;" horiz-adv-x="692" d="M133 643v98h426v-98h-426z" />
<glyph unicode="&#x2011;" horiz-adv-x="692" d="M133 643v98h426v-98h-426z" />
<glyph unicode="&#x2012;" horiz-adv-x="692" d="M133 643v98h426v-98h-426z" />
<glyph unicode="&#x2013;" horiz-adv-x="737" d="M0 647v90h737v-90h-737z" />
<glyph unicode="&#x2014;" horiz-adv-x="1474" d="M0 651v82h1475v-82h-1475z" />
<glyph unicode="&#x2018;" horiz-adv-x="479" d="M102 1184l209 424h70l-152 -424q-24 -35 -73 -35q-45 0 -54 35z" />
<glyph unicode="&#x2019;" horiz-adv-x="479" d="M98 1161l152 424q24 35 74 35q44 0 53 -35l-209 -424h-70z" />
<glyph unicode="&#x201a;" horiz-adv-x="479" d="M98 -297l152 424q24 35 74 35q44 0 53 -35l-209 -424h-70z" />
<glyph unicode="&#x201c;" horiz-adv-x="794" d="M102 1184l209 424h70l-152 -424q-24 -35 -73 -35q-45 0 -54 35zM418 1184l209 424h69l-151 -424q-24 -35 -74 -35q-44 0 -53 35z" />
<glyph unicode="&#x201d;" horiz-adv-x="794" d="M98 1161l152 424q24 35 74 35q44 0 53 -35l-209 -424h-70zM414 1161l151 424q24 35 74 35q44 0 53 -35l-209 -424h-69z" />
<glyph unicode="&#x201e;" horiz-adv-x="794" d="M98 -297l152 424q24 35 74 35q44 0 53 -35l-209 -424h-70zM414 -297l151 424q24 35 74 35q44 0 53 -35l-209 -424h-69z" />
<glyph unicode="&#x2022;" horiz-adv-x="593" d="M154 723q0 60 41.5 101.5t101.5 41.5t101.5 -41.5t41.5 -101.5t-41.5 -101.5t-101.5 -41.5t-101.5 41.5t-41.5 101.5z" />
<glyph unicode="&#x2026;" horiz-adv-x="1449" d="M156 76q0 35 25.5 60.5t60.5 25.5t60.5 -25.5t25.5 -60.5t-25.5 -60.5t-60.5 -25.5t-60.5 25.5t-25.5 60.5zM639 76q0 35 25.5 60.5t60.5 25.5t60.5 -25.5t25.5 -60.5t-25.5 -60.5t-60.5 -25.5t-60.5 25.5t-25.5 60.5zM1122 76q0 35 25.5 60.5t60.5 25.5t60.5 -25.5 t25.5 -60.5t-25.5 -60.5t-60.5 -25.5t-60.5 25.5t-25.5 60.5z" />
<glyph unicode="&#x202f;" horiz-adv-x="369" />
<glyph unicode="&#x2039;" horiz-adv-x="593" d="M123 684l258 449l70 -46l-234 -403l234 -403l-70 -45z" />
<glyph unicode="&#x203a;" horiz-adv-x="593" d="M143 281l234 403l-234 403l70 46l258 -449l-258 -448z" />
<glyph unicode="&#x205f;" horiz-adv-x="461" />
<glyph unicode="&#x20ac;" horiz-adv-x="1290" d="M127 524v70h203q-6 56 -6 111q0 66 10 151h-207v70h219q22 106 66 195t110.5 161t163 113t213.5 41q83 0 162 -22.5t123 -53.5l-37 -70q-101 64 -238 64q-99 0 -178 -34t-132 -95t-87.5 -135t-52.5 -164h538v-70h-548q-11 -90 -11 -149q0 -57 6 -113h553v-70h-544 q16 -96 49 -175.5t86.5 -146.5t135.5 -105t185 -38q138 0 238 60l37 -70q-44 -31 -123 -53.5t-162 -22.5q-99 0 -184 29.5t-146.5 80t-109.5 121t-77 150.5t-44 170h-211z" />
<glyph unicode="&#x2122;" horiz-adv-x="1536" d="M61 1341v68h476v-68h-191v-751h-94v751h-191zM588 590l104 819h109l186 -618q14 -50 23 -101h4q9 59 20 101l187 618h108l105 -819h-93l-69 649q-6 59 -6 92h-4q-7 -34 -23 -92l-195 -649h-75l-193 649q-10 33 -24 92h-4q0 -37 -7 -92l-73 -649h-80z" />
<glyph unicode="&#x25fc;" horiz-adv-x="1105" d="M0 0v1106h1106v-1106h-1106z" />
<glyph unicode="&#xfb01;" horiz-adv-x="1046" d="M88 1036v68h129v178q0 147 77.5 236.5t225.5 89.5h12v-74q-109 0 -156.5 -64.5t-47.5 -185.5v-180h204v-68h-204v-1036h-111v1036h-129zM743 1413q0 31 22.5 53.5t53.5 22.5t53.5 -22.5t22.5 -53.5t-22.5 -53.5t-53.5 -22.5t-53.5 22.5t-22.5 53.5zM764 0v1104h110v-1104 h-110z" />
<glyph unicode="&#xfb02;" horiz-adv-x="1081" d="M88 1036v68h129v178q0 147 77.5 236.5t225.5 89.5h12v-74q-109 0 -156.5 -64.5t-47.5 -185.5v-180h204v-68h-204v-1036h-111v1036h-129zM797 0v1608h110v-1608h-110z" />
</font>
</defs>
</svg>
