<?xml version="1.0" standalone="no"?>
<!DOCTYPE svg PUBLIC "-//W3C//DTD SVG 1.1//EN" "http://www.w3.org/Graphics/SVG/1.1/DTD/svg11.dtd" >
<svg>
<metadata>
Created by FontForge 20090622 at Thu Aug 20 10:11:24 2015
 By deploy user
2005 Hans Reichel published by FSI FontShop International GmbH
</metadata>
<defs>
<font id="DaxOT-Medium" horiz-adv-x="546" >
  <font-face 
    font-family="DaxOT-Medium"
    font-weight="500"
    font-stretch="normal"
    units-per-em="1000"
    panose-1="2 11 6 4 3 1 1 2 1 2"
    ascent="785"
    descent="-215"
    x-height="539"
    cap-height="688"
    bbox="-126 -310 1136 983"
    underline-thickness="64"
    underline-position="-43"
    unicode-range="U+000D-U+FB02"
  />
<missing-glyph horiz-adv-x="555" 
d="M65 0v688h425v-688h-425zM141 76h273v536h-273v-536z" />
    <glyph glyph-name=".notdef" horiz-adv-x="555" 
d="M65 0v688h425v-688h-425zM141 76h273v536h-273v-536z" />
    <glyph glyph-name=".null" horiz-adv-x="0" 
 />
    <glyph glyph-name=".null" horiz-adv-x="0" 
 />
    <glyph glyph-name="nonmarkingreturn" horiz-adv-x="333" 
 />
    <glyph glyph-name="CR" unicode="&#xd;" horiz-adv-x="272" 
 />
    <glyph glyph-name="space" unicode=" " horiz-adv-x="272" 
 />
    <glyph glyph-name="exclam" unicode="!" horiz-adv-x="302" 
d="M229 688l-26 -448h-93l-25 448h144zM230 65q0 -30 -21.5 -51.5t-51.5 -21.5t-51.5 21.5t-21.5 51.5t21.5 51.5t51.5 21.5t51.5 -21.5t21.5 -51.5z" />
    <glyph glyph-name="quotedbl" unicode="&#x22;" horiz-adv-x="420" 
d="M356 667l-23 -261h-65l-23 261q20 31 56 31q35 0 55 -31zM175 667l-23 -261h-65l-23 261q20 31 55 31q36 0 56 -31z" />
    <glyph glyph-name="numbersign" unicode="#" horiz-adv-x="664" 
d="M608 421h-115l-19 -142h106v-64h-115l-29 -215h-78l29 215h-147l-29 -215h-78l29 215h-106v64h115l19 142h-106v64h115l27 203h78l-28 -203h147l28 203h78l-27 -203h106v-64zM415 421h-147l-19 -142h147z" />
    <glyph glyph-name="dollar" unicode="$" horiz-adv-x="515" 
d="M459 190q0 -75 -46 -127.5t-125 -67.5v-126h-71v121q-101 2 -167 39l34 86q53 -32 131 -32q53 0 83.5 27t30.5 72q0 40 -28 68t-67.5 47.5t-79.5 42t-68 65.5t-28 104q0 73 46 123t124 63v117h70v-114q81 -5 137 -38l-30 -78q-51 30 -114 30q-50 0 -79 -24.5t-29 -69.5
q0 -40 28.5 -67.5t69 -46.5t81 -41.5t69 -66t28.5 -106.5z" />
    <glyph glyph-name="percent" unicode="%" horiz-adv-x="880" 
d="M827 203q0 -90 -38 -152t-112 -62t-112 62t-38 152t38 152t112 62t112 -62t38 -152zM591 676l-236 -688l-67 24l236 688zM353 485q0 -90 -38 -152t-112 -62t-112 62t-38 152t38 152t112 62t112 -62t38 -152zM743 205q0 70 -16 114t-50 44t-50 -44t-16 -114t16 -114
t50 -44t50 44t16 114zM269 487q0 70 -16 114t-50 44t-50 -44t-16 -114t16 -114t50 -44t50 44t16 114z" />
    <glyph glyph-name="ampersand" unicode="&#x26;" horiz-adv-x="632" 
d="M623 387l-114 -19v-339q-74 -40 -202 -40q-125 0 -194.5 50.5t-69.5 144.5q0 134 165 193v2q-126 38 -126 151q0 78 59 123.5t148 45.5t156 -38l-36 -72q-45 24 -99 24q-46 0 -76 -24.5t-30 -67.5t33 -71.5t85 -28.5q57 0 145 18l138 30zM389 81v275
q-113 -17 -164.5 -57.5t-51.5 -111.5q0 -55 35.5 -87t103.5 -32q44 0 77 13z" />
    <glyph glyph-name="quotesingle" unicode="'" horiz-adv-x="239" 
d="M175 667l-23 -261h-65l-23 261q20 31 55 31q36 0 56 -31z" />
    <glyph glyph-name="parenleft" unicode="(" horiz-adv-x="360" 
d="M335 -194l-60 -41q-221 219 -221 521t221 521l60 -41q-75 -100 -115 -224t-40 -256t40 -256t115 -224z" />
    <glyph glyph-name="parenright" unicode=")" horiz-adv-x="360" 
d="M306 286q0 -302 -221 -521l-60 41q75 100 115 224t40 256t-40 256t-115 224l60 41q221 -219 221 -521z" />
    <glyph glyph-name="asterisk" unicode="*" horiz-adv-x="447" 
d="M397 720q0 -21 -15.5 -36t-36.5 -15t-36 15t-15 36t15 36.5t36 15.5t36.5 -15.5t15.5 -36.5zM275 810q0 -21 -15.5 -36.5t-36.5 -15.5t-36 15.5t-15 36.5t15 36t36 15t36.5 -15t15.5 -36zM265 682q0 -17 -12.5 -29t-29.5 -12t-29 12t-12 29t12 29.5t29 12.5t29.5 -12.5
t12.5 -29.5zM351 579q0 -21 -15.5 -36.5t-36.5 -15.5t-36 15.5t-15 36.5t15 36t36 15t36.5 -15t15.5 -36zM153 720q0 -21 -15.5 -36t-36.5 -15t-36 15t-15 36t15 36.5t36 15.5t36.5 -15.5t15.5 -36.5zM199 579q0 -22 -15 -37t-36 -15q-22 0 -37 15t-15 37t15 36.5t37 14.5
q21 0 36 -14.5t15 -36.5z" />
    <glyph glyph-name="plus" unicode="+" horiz-adv-x="526" 
d="M468 288h-159v-161h-92v161h-159v84h159v160h92v-160h159v-84z" />
    <glyph glyph-name="comma" unicode="," horiz-adv-x="276" 
d="M218 100l-134 -245h-74l81 245q25 39 73 39q45 0 54 -39z" />
    <glyph glyph-name="hyphen" unicode="-" horiz-adv-x="350" 
d="M297 284h-244v92h244v-92z" />
    <glyph glyph-name="period" unicode="." horiz-adv-x="266" 
d="M206 65q0 -30 -21.5 -51.5t-51.5 -21.5t-51.5 21.5t-21.5 51.5t21.5 51.5t51.5 21.5t51.5 -21.5t21.5 -51.5z" />
    <glyph glyph-name="slash" unicode="/" horiz-adv-x="457" 
d="M432 768l-341 -983l-99 37l340 983z" />
    <glyph glyph-name="zero" unicode="0" horiz-adv-x="556" 
d="M504 344q0 -96 -21 -173t-74 -129.5t-131 -52.5t-131 52.5t-74 129.5t-21 173t21 173t74 129.5t131 52.5t131 -52.5t74 -129.5t21 -173zM384 346q0 274 -106 274q-105 0 -105 -274t105 -274q106 0 106 274z" />
    <glyph glyph-name="one" unicode="1" horiz-adv-x="416" 
d="M325 0h-124v551q-61 -34 -169 -41l-15 73q80 11 138.5 39t82.5 66h87v-688z" />
    <glyph glyph-name="two" unicode="2" horiz-adv-x="501" 
d="M450 0h-435l247 358q54 78 54 141q0 110 -125 110q-67 0 -125 -27l-30 77q80 40 180 40q114 0 171 -51t57 -138q0 -79 -88 -195l-163 -214h257v-101z" />
    <glyph glyph-name="three" unicode="3" horiz-adv-x="497" 
d="M450 203q0 -96 -68.5 -155t-175.5 -59q-114 0 -188 38l33 83q57 -30 135 -30q62 0 99 33t37 91q0 64 -45.5 95.5t-120.5 31.5h-18v67q75 7 119 40t44 84q0 45 -29.5 67t-76.5 22q-69 0 -129 -27l-31 77q81 38 179 38q93 0 151 -43t58 -119q0 -54 -35 -92.5t-84 -57.5v-2
q62 -19 104 -64t42 -118z" />
    <glyph glyph-name="four" unicode="4" horiz-adv-x="523" 
d="M482 146h-54v-146h-114v146h-278v75l273 467h119v-472h54v-70zM318 572h-2q-22 -51 -48 -96l-151 -260h197v253q0 39 4 103z" />
    <glyph glyph-name="five" unicode="5" horiz-adv-x="497" 
d="M450 204q0 -90 -68.5 -152.5t-176.5 -62.5q-114 0 -187 38l33 83q57 -30 135 -30q62 0 99 36t37 88q0 63 -41 99.5t-129 36.5q-43 0 -99 -8l40 356h332v-101h-246l-20 -179q21 3 44 3q120 0 183.5 -55.5t63.5 -151.5z" />
    <glyph glyph-name="six" unicode="6" horiz-adv-x="544" 
d="M497 208q0 -93 -57.5 -156t-163.5 -63q-108 0 -167 71t-59 193q0 171 101.5 288.5t272.5 157.5l24 -82q-95 -29 -158 -78.5t-99 -135.5q37 14 81 14q104 0 164.5 -56t60.5 -153zM381 210q0 142 -133 142q-39 0 -75 -14q-8 -41 -8 -88q0 -85 28.5 -132.5t84.5 -47.5
q51 0 77 39.5t26 100.5z" />
    <glyph glyph-name="seven" unicode="7" horiz-adv-x="488" 
d="M472 688l-90 -213q-119 -283 -164 -475h-148l256 587h-301v101h447z" />
    <glyph glyph-name="eight" unicode="8" horiz-adv-x="541" 
d="M494 168q0 -79 -63 -129t-161 -50q-95 0 -159 47.5t-64 130.5q0 36 11 64.5t34 51.5t44.5 38.5t56.5 35.5q-61 37 -93.5 76t-32.5 97q0 74 58 121.5t145 47.5t145.5 -47t58.5 -121q0 -57 -31.5 -95.5t-92.5 -73.5q69 -41 106.5 -84t37.5 -110zM374 532q0 42 -28.5 69
t-72.5 27q-45 0 -73 -26t-28 -69q0 -41 25 -69t78 -61q51 31 75 59.5t24 69.5zM382 168q0 50 -27.5 82t-86.5 66q-58 -33 -85.5 -65t-27.5 -81q0 -45 33.5 -74.5t80.5 -29.5q49 0 81 29t32 73z" />
    <glyph glyph-name="nine" unicode="9" horiz-adv-x="544" 
d="M494 435q0 -171 -101.5 -288.5t-272.5 -157.5l-25 82q96 29 160 78.5t99 135.5q-37 -14 -82 -14q-104 0 -164.5 56t-60.5 153q0 93 57.5 156t163.5 63q108 0 167 -71t59 -193zM379 440q0 85 -28.5 133t-84.5 48q-51 0 -77 -40t-26 -101q0 -142 133 -142q42 0 75 13
q8 41 8 89z" />
    <glyph glyph-name="colon" unicode=":" horiz-adv-x="276" 
d="M216 374q0 -30 -21.5 -51.5t-51.5 -21.5t-51.5 21.5t-21.5 51.5t21.5 51.5t51.5 21.5t51.5 -21.5t21.5 -51.5zM216 65q0 -30 -21.5 -51.5t-51.5 -21.5t-51.5 21.5t-21.5 51.5t21.5 51.5t51.5 21.5t51.5 -21.5t21.5 -51.5z" />
    <glyph glyph-name="semicolon" unicode=";" horiz-adv-x="280" 
d="M220 375q0 -30 -21.5 -52t-51.5 -22t-51.5 22t-21.5 52t21.5 51.5t51.5 21.5t51.5 -21.5t21.5 -51.5zM223 100l-135 -245h-73l81 245q25 39 73 39q45 0 54 -39z" />
    <glyph glyph-name="less" unicode="&#x3c;" horiz-adv-x="526" 
d="M468 119l-410 173v76l410 172v-93l-303 -116v-2l303 -116v-94z" />
    <glyph glyph-name="equal" unicode="=" horiz-adv-x="526" 
d="M468 387h-410v84h410v-84zM468 188h-410v84h410v-84z" />
    <glyph glyph-name="greater" unicode="&#x3e;" horiz-adv-x="526" 
d="M468 292l-410 -173v94l303 116v2l-303 116v93l410 -172v-76z" />
    <glyph glyph-name="question" unicode="?" horiz-adv-x="430" 
d="M414 534q0 -60 -45 -103t-102 -60l-8 -131h-93l-11 167q53 11 92.5 41t39.5 75q0 41 -26 65.5t-81 24.5q-60 0 -103 -25l-33 72q66 39 159 39q97 0 154 -44.5t57 -120.5zM285 65q0 -30 -21.5 -51.5t-51.5 -21.5t-51.5 21.5t-21.5 51.5t21.5 51.5t51.5 21.5t51.5 -21.5
t21.5 -51.5z" />
    <glyph glyph-name="at" unicode="@" horiz-adv-x="910" 
d="M863 374q0 -156 -108 -270.5t-267 -114.5q-110 0 -169.5 66t-59.5 170q0 121 68 207.5t180 86.5q85 0 141 -48l-60 -398q81 28 137 109t56 192q0 113 -65.5 186.5t-188.5 73.5t-216 -61t-137.5 -153.5t-44.5 -198.5q0 -153 89 -250t244 -97q209 0 357 131l42 -52
q-78 -71 -182.5 -109t-219.5 -38q-185 0 -298.5 113.5t-113.5 294.5q0 94 34 181t95 155t153.5 108.5t201.5 40.5q155 0 243.5 -92.5t88.5 -232.5zM561 438q-28 16 -64 16q-70 0 -112.5 -68t-42.5 -158q0 -80 38.5 -125t111.5 -45h13z" />
    <glyph glyph-name="A" unicode="A" horiz-adv-x="608" 
d="M596 0h-134l-52 181h-224l-53 -181h-121l227 688h129zM389 255l-70 242q-11 34 -18 89h-2q-10 -56 -20 -89l-71 -242h181z" />
    <glyph glyph-name="B" unicode="B" horiz-adv-x="582" 
d="M538 188q0 -100 -70.5 -149.5t-192.5 -49.5q-121 0 -204 39v632q83 39 196 39q120 0 184 -49.5t64 -129.5q0 -60 -34.5 -99.5t-92.5 -55.5v-2q62 -14 106 -62.5t44 -112.5zM394 512q0 113 -127 113q-46 0 -75 -11v-224h44q83 0 120.5 30t37.5 92zM412 190q0 139 -176 139
h-44v-250q30 -12 79 -12q141 0 141 123z" />
    <glyph glyph-name="C" unicode="C" horiz-adv-x="486" 
d="M457 29q-59 -40 -143 -40q-67 0 -119 29.5t-83 80t-47 113t-16 132.5t16 132.5t47 113t83 80t119 29.5q85 0 143 -39l-30 -78q-43 26 -91 26q-54 0 -90 -39.5t-51 -96.5t-15 -127q0 -107 39 -183t116 -76q48 0 91 26z" />
    <glyph glyph-name="D" unicode="D" horiz-adv-x="609" 
d="M560 344q0 -167 -78.5 -261t-219.5 -94q-107 0 -191 39v632q84 39 191 39q141 0 219.5 -94t78.5 -261zM431 347q0 268 -164 268q-43 0 -70 -11v-515q27 -11 70 -11q164 0 164 269z" />
    <glyph glyph-name="E" unicode="E" horiz-adv-x="450" 
d="M406 0h-335v688h335v-85h-208v-208h185v-84h-185v-226h208v-85z" />
    <glyph glyph-name="F" unicode="F" horiz-adv-x="443" 
d="M405 603h-207v-208h184v-84h-184v-311h-127v688h334v-85z" />
    <glyph glyph-name="G" unicode="G" horiz-adv-x="605" 
d="M539 28q-71 -39 -186 -39q-140 0 -222 94t-82 260q0 158 84.5 257t231.5 99q93 0 165 -40l-35 -79q-54 28 -120 28q-95 0 -146.5 -72.5t-51.5 -198.5q0 -123 49 -191t122 -68q44 0 72 12v227h-108v78h227v-367z" />
    <glyph glyph-name="H" unicode="H" horiz-adv-x="613" 
d="M542 0h-127v311h-217v-311h-127v688h127v-293h217v293h127v-688z" />
    <glyph glyph-name="I" unicode="I" horiz-adv-x="273" 
d="M200 0h-127v688h127v-688z" />
    <glyph glyph-name="J" unicode="J" horiz-adv-x="273" 
d="M200 688v-608q0 -124 -62 -204t-178 -97v89q113 40 113 203v617h127z" />
    <glyph glyph-name="K" unicode="K" horiz-adv-x="570" 
d="M557 0h-147l-210 348h-2v-348h-125v688h125v-315h2l210 315h135l-231 -319z" />
    <glyph glyph-name="L" unicode="L" horiz-adv-x="422" 
d="M391 0h-318v688h127v-603h191v-85z" />
    <glyph glyph-name="M" unicode="M" horiz-adv-x="791" 
d="M745 0h-120l-43 456q-4 36 -4 81h-2q-10 -50 -20 -81l-132 -456h-70l-130 456q-12 42 -19 81h-2q-2 -50 -5 -81l-44 -456h-108l78 688h128l124 -440q12 -42 18 -87h2q8 49 19 87l124 440h128z" />
    <glyph glyph-name="N" unicode="N" horiz-adv-x="650" 
d="M579 0h-102l-264 451q-15 25 -37 72h-2q3 -43 3 -82v-441h-106v688h119l247 -423q16 -27 37 -71h2q-3 39 -3 80v414h106v-688z" />
    <glyph glyph-name="O" unicode="O" horiz-adv-x="616" 
d="M567 344q0 -159 -65.5 -257t-193.5 -98t-193.5 98t-65.5 257t65.5 257t193.5 98t193.5 -98t65.5 -257zM439 347q0 265 -131 265t-131 -265q0 -266 131 -266t131 266z" />
    <glyph glyph-name="P" unicode="P" horiz-adv-x="551" 
d="M513 484q0 -96 -65.5 -155.5t-196.5 -59.5q-28 0 -56 4v-273h-124v660q85 39 190 39q127 0 189.5 -59t62.5 -156zM391 486q0 139 -129 139q-34 0 -67 -11v-267q28 -4 56 -4q140 0 140 143z" />
    <glyph glyph-name="Q" unicode="Q" horiz-adv-x="616" 
d="M567 344q0 -110 -31 -192.5t-94 -123.5l118 -143l-95 -75l-102 187q-27 -8 -55 -8q-128 0 -193.5 98t-65.5 257t65.5 257t193.5 98t193.5 -98t65.5 -257zM439 347q0 265 -131 265t-131 -265q0 -266 131 -266t131 266z" />
    <glyph glyph-name="R" unicode="R" horiz-adv-x="571" 
d="M543 0h-141l-112 216q-37 70 -94 89v-305h-124v660q86 39 189 39q123 0 190 -51.5t67 -151.5q0 -70 -47 -119t-126 -66v-2q35 -30 68 -85zM395 493q0 132 -131 132q-35 0 -68 -11v-256q25 -5 53 -5q67 0 106.5 39.5t39.5 100.5z" />
    <glyph glyph-name="S" unicode="S" horiz-adv-x="495" 
d="M447 191q0 -88 -62.5 -145t-165.5 -57q-108 0 -180 40l33 86q57 -32 132 -32q53 0 83.5 27t30.5 70q0 40 -28 68.5t-68 47.5t-80 42t-68 66t-28 104q0 85 60.5 138t158.5 53q92 0 159 -39l-31 -78q-53 30 -113 30q-51 0 -79.5 -24t-28.5 -69q0 -34 20.5 -59t51 -39.5
t66 -34.5t66 -41t51 -61t20.5 -93z" />
    <glyph glyph-name="T" unicode="T" horiz-adv-x="457" 
d="M426 603h-134v-603h-127v603h-134v85h395v-85z" />
    <glyph glyph-name="U" unicode="U" horiz-adv-x="600" 
d="M529 200q0 -93 -63.5 -152t-165.5 -59t-165.5 59t-63.5 152v488h127v-489q0 -51 31 -81.5t76 -30.5t75.5 30.5t30.5 81.5v489h118v-488z" />
    <glyph glyph-name="V" unicode="V" horiz-adv-x="550" 
d="M536 688l-205 -688h-111l-205 688h135l111 -442q11 -42 19 -95h2q8 56 18 95l114 442h122z" />
    <glyph glyph-name="W" unicode="W" horiz-adv-x="829" 
d="M802 688l-158 -688h-113l-102 421q-9 33 -13 76h-2q-7 -52 -13 -76l-102 -421h-112l-158 688h127l86 -450q8 -36 11 -82h2q4 38 14 82l105 450h94l101 -450q7 -31 13 -82h2q4 40 12 82l90 450h116z" />
    <glyph glyph-name="X" unicode="X" horiz-adv-x="544" 
d="M529 0h-142l-118 263h-2l-122 -263h-130l188 352l-170 336h134l107 -240h2l113 240h122l-171 -324z" />
    <glyph glyph-name="Y" unicode="Y" horiz-adv-x="516" 
d="M508 688l-186 -391v-297h-127v297l-186 391h135l118 -286h2l123 286h121z" />
    <glyph glyph-name="Z" unicode="Z" horiz-adv-x="461" 
d="M427 0h-406l241 603h-222v85h381l-236 -603h242v-85z" />
    <glyph glyph-name="bracketleft" unicode="[" horiz-adv-x="338" 
d="M296 -215h-224v1000h224v-68h-116v-863h116v-69z" />
    <glyph glyph-name="backslash" unicode="\" horiz-adv-x="457" 
d="M465 -178l-99 -37l-340 983l99 37z" />
    <glyph glyph-name="bracketright" unicode="]" horiz-adv-x="338" 
d="M266 -215h-224v69h116v863h-116v68h224v-1000z" />
    <glyph glyph-name="asciicircum" unicode="^" horiz-adv-x="494" 
d="M442 502l-51 -49l-144 142l-144 -142l-51 49l147 176q18 22 48 22t48 -22z" />
    <glyph glyph-name="underscore" unicode="_" horiz-adv-x="510" 
d="M520 -139h-530v64h530v-64z" />
    <glyph glyph-name="grave" unicode="`" horiz-adv-x="260" 
d="M197 597h-69l-121 135q16 23 56 23q39 0 62 -17z" />
    <glyph glyph-name="a" unicode="a" horiz-adv-x="520" 
d="M455 28q-76 -39 -195 -39q-107 0 -163.5 42.5t-56.5 124.5q0 92 79.5 137t221.5 58v29q0 91 -103 91q-72 0 -140 -34l-27 72q89 41 182 41q96 0 149 -45.5t53 -140.5v-336zM341 73v219q-94 -10 -140 -41t-46 -91q0 -102 113 -102q45 0 73 15z" />
    <glyph glyph-name="b" unicode="b" horiz-adv-x="549" 
d="M504 284q0 -137 -68.5 -216t-193.5 -79q-109 0 -177 39v757h121v-259q43 21 102 21q98 0 157 -71.5t59 -191.5zM383 274q0 96 -32.5 148.5t-93.5 52.5q-41 0 -71 -15v-385q23 -10 62 -10q135 0 135 209z" />
    <glyph glyph-name="c" unicode="c" horiz-adv-x="423" 
d="M393 26q-48 -37 -129 -37q-99 0 -159 77t-60 204t60.5 203.5t158.5 76.5q81 0 129 -37l-27 -69q-31 23 -77 23q-55 0 -87 -53.5t-32 -141.5q0 -87 32 -141t87 -54q44 0 75 23z" />
    <glyph glyph-name="d" unicode="d" horiz-adv-x="549" 
d="M484 28q-70 -39 -190 -39q-118 0 -183.5 72t-65.5 200q0 125 63.5 205t175.5 80q38 0 79 -11v250h121v-757zM363 79v389q-29 8 -57 8q-73 0 -106.5 -56.5t-33.5 -149.5q0 -202 133 -202q43 0 64 11z" />
    <glyph glyph-name="e" unicode="e" horiz-adv-x="541" 
d="M496 274l-332 -49q7 -71 46 -110.5t105 -39.5q76 0 133 31l29 -78q-75 -39 -179 -39q-120 0 -186.5 76.5t-66.5 205.5q0 128 61.5 203.5t170.5 75.5q105 0 162 -67t57 -193v-16zM379 322q-2 155 -106 155q-56 0 -86 -48.5t-30 -130.5v-11z" />
    <glyph glyph-name="f" unicode="f" horiz-adv-x="332" 
d="M306 462h-88v-462h-122v462h-60v77h60v66q0 85 47 133t133 48q12 0 30 -2v-77h-10q-78 0 -78 -99v-69h88v-77z" />
    <glyph glyph-name="g" unicode="g" horiz-adv-x="549" 
d="M484 -1q0 -108 -59.5 -166t-164.5 -58q-112 0 -183 39l32 80q57 -31 130 -31q124 0 124 124v30q-35 -20 -101 -20q-99 0 -158 71t-59 193q0 135 68.5 212t195.5 77q104 0 175 -39v-512zM363 87v379q-24 12 -63 12q-134 0 -134 -211q0 -197 128 -197q40 0 69 17z" />
    <glyph glyph-name="h" unicode="h" horiz-adv-x="556" 
d="M491 0h-122v375q0 94 -95 94q-46 0 -87 -22v-447h-122v785h122v-269q52 29 120 29q94 0 139 -48t45 -119v-378z" />
    <glyph glyph-name="i" unicode="i" horiz-adv-x="260" 
d="M198 692q0 -25 -20 -43t-48 -18t-48 18t-20 43t20 43.5t48 18.5t48 -18.5t20 -43.5zM191 0h-122v539h122v-539z" />
    <glyph glyph-name="j" unicode="j" horiz-adv-x="263" 
d="M201 692q0 -25 -19.5 -43t-47.5 -18q-29 0 -49 18t-20 43t20 43.5t48 18.5t48 -18.5t20 -43.5zM194 76q0 -252 -216 -297v83q51 27 72.5 73.5t21.5 126.5v477h122v-463z" />
    <glyph glyph-name="k" unicode="k" horiz-adv-x="524" 
d="M518 0h-142l-185 269h-2v-269h-120v785h120v-496h2l177 250h131l-199 -254z" />
    <glyph glyph-name="l" unicode="l" horiz-adv-x="262" 
d="M192 0h-122v785h122v-785z" />
    <glyph glyph-name="m" unicode="m" horiz-adv-x="853" 
d="M788 0h-119v371q0 102 -97 102q-51 0 -86 -40v-433h-119v382q0 91 -99 91q-49 0 -84 -14v-459h-119v510q93 39 197 39q107 0 165 -58q64 58 162 58q100 0 149.5 -48t49.5 -131v-370z" />
    <glyph glyph-name="n" unicode="n" horiz-adv-x="556" 
d="M491 0h-122v369q0 54 -24 79t-79 25q-47 0 -79 -14v-459h-122v510q91 39 201 39q225 0 225 -181v-368z" />
    <glyph glyph-name="o" unicode="o" 
d="M501 270q0 -127 -58.5 -204t-169.5 -77t-169.5 77t-58.5 204q0 126 58.5 203t169.5 77t169.5 -77t58.5 -203zM379 272q0 202 -106 202t-106 -202t106 -202t106 202z" />
    <glyph glyph-name="p" unicode="p" horiz-adv-x="549" 
d="M504 276q0 -131 -65 -207.5t-172 -76.5q-45 0 -81 12v-219h-121v726q79 39 186 39q120 0 186.5 -72.5t66.5 -201.5zM383 273q0 203 -134 203q-40 0 -63 -11v-389q23 -9 54 -9q143 0 143 206z" />
    <glyph glyph-name="q" unicode="q" horiz-adv-x="549" 
d="M484 -215h-121v228q-42 -21 -99 -21q-100 0 -159.5 73t-59.5 194q0 135 68.5 213t195.5 78q104 0 175 -39v-726zM363 85v381q-24 12 -63 12q-134 0 -134 -211q0 -199 127 -199q41 0 70 17z" />
    <glyph glyph-name="r" unicode="r" horiz-adv-x="340" 
d="M325 546l-25 -87q-25 11 -55 11q-36 0 -58 -11v-459h-122v511q79 38 202 38q28 0 58 -3z" />
    <glyph glyph-name="s" unicode="s" horiz-adv-x="432" 
d="M390 157q0 -71 -55 -119.5t-144 -48.5q-93 0 -156 39l34 76q50 -31 108 -31q40 0 64 21.5t24 54.5q0 30 -22.5 50.5t-54.5 34t-63.5 30t-54 49t-22.5 80.5q0 69 50.5 113t126.5 44q89 0 150 -39l-31 -69q-48 30 -96 30q-38 0 -59 -20t-21 -51q0 -29 23 -48.5t55.5 -33
t65 -30t55.5 -50t23 -82.5z" />
    <glyph glyph-name="t" unicode="t" horiz-adv-x="343" 
d="M306 5q-24 -12 -66 -12q-68 0 -106 39t-38 110v320h-60v77h60v119l122 34v-153h88v-77h-88v-320q0 -65 58 -65q15 0 30 5v-77z" />
    <glyph glyph-name="u" unicode="u" horiz-adv-x="548" 
d="M483 30q-82 -41 -203 -41q-108 0 -161.5 44.5t-53.5 138.5v367h122v-371q0 -97 95 -97q50 0 79 15v453h122v-509z" />
    <glyph glyph-name="v" unicode="v" horiz-adv-x="513" 
d="M492 539l-178 -539h-114l-178 539h131l94 -350q9 -32 13 -77h2q5 47 14 77l100 350h116z" />
    <glyph glyph-name="w" unicode="w" horiz-adv-x="790" 
d="M763 539l-152 -539h-110l-93 343q-8 29 -11 64h-2q-5 -36 -12 -64l-92 -343h-111l-152 539h125l78 -350q7 -31 10 -73h2q7 48 14 73l95 350h101l91 -350q8 -32 13 -73h2q4 44 11 73l82 350h111z" />
    <glyph glyph-name="x" unicode="x" horiz-adv-x="500" 
d="M483 0h-135l-101 197h-2l-104 -197h-124l169 276l-152 263h128l91 -179h2l95 179h116l-152 -254z" />
    <glyph glyph-name="y" unicode="y" horiz-adv-x="513" 
d="M492 539l-250 -754h-129l90 215l-181 539h131l94 -356q9 -36 12 -76h2q5 39 15 76l100 356h116z" />
    <glyph glyph-name="z" unicode="z" horiz-adv-x="428" 
d="M392 0h-364l205 462h-188v77h341l-202 -462h208v-77z" />
    <glyph glyph-name="braceleft" unicode="{" horiz-adv-x="374" 
d="M332 -215h-25q-97 0 -148 52t-51 145v169q0 93 -68 101v69q37 4 52.5 29t15.5 71v167q0 93 51 145t148 52h25v-68q-63 0 -89.5 -31.5t-26.5 -94.5v-166q0 -56 -17 -89.5t-57 -48.5v-2q40 -15 57 -48.5t17 -89.5v-167q0 -63 26.5 -94.5t89.5 -31.5v-69z" />
    <glyph glyph-name="bar" unicode="|" horiz-adv-x="239" 
d="M168 -215h-97v1000h97v-1000z" />
    <glyph glyph-name="braceright" unicode="}" horiz-adv-x="374" 
d="M334 252q-68 -8 -68 -101v-169q0 -93 -51 -145t-148 -52h-25v69q63 0 89.5 31.5t26.5 94.5v167q0 56 17 89.5t57 48.5v2q-40 15 -57 48.5t-17 89.5v166q0 63 -26.5 94.5t-89.5 31.5v68h25q97 0 148 -52t51 -145v-167q0 -46 15.5 -71t52.5 -29v-69z" />
    <glyph glyph-name="asciitilde" unicode="~" horiz-adv-x="494" 
d="M442 398q-20 -133 -119 -133q-33 0 -75.5 31.5t-70.5 31.5q-46 0 -60 -62l-65 25q20 132 119 132q33 0 75.5 -31.5t70.5 -31.5q46 0 60 63z" />
    <glyph glyph-name="uni00A0" unicode="&#xa0;" horiz-adv-x="272" 
 />
    <glyph glyph-name="exclamdown" unicode="&#xa1;" horiz-adv-x="302" 
d="M230 408q0 -30 -21.5 -51.5t-51.5 -21.5t-51.5 21.5t-21.5 51.5t21.5 51.5t51.5 21.5t51.5 -21.5t21.5 -51.5zM229 -215h-144l25 448h93z" />
    <glyph glyph-name="cent" unicode="&#xa2;" horiz-adv-x="439" 
d="M396 136q-35 -27 -104 -30v-106h-67v109q-79 14 -125 74.5t-46 162.5q0 98 47 160t124 76v106h67v-104q63 -3 104 -30l-27 -65q-36 20 -72 20q-60 0 -90 -43.5t-30 -117.5q0 -76 30.5 -119t88.5 -43q42 0 73 19z" />
    <glyph glyph-name="sterling" unicode="&#xa3;" 
d="M492 0h-436q109 126 109 245q0 31 -9 71h-96v80h73q-17 57 -17 99q0 96 59 150t158 54q90 0 158 -39l-28 -78q-44 26 -108 26q-58 0 -89.5 -33.5t-31.5 -92.5q0 -43 10 -86h168v-80h-152q4 -27 4 -67q0 -35 -13 -76.5t-33 -71.5h274v-101z" />
    <glyph glyph-name="currency" unicode="&#xa4;" horiz-adv-x="566" 
d="M520 144l-49 -48l-70 70q-52 -47 -118 -47t-118 47l-70 -70l-49 48l74 74q-29 53 -29 116t29 116l-74 73l49 49l70 -70q52 47 118 47t118 -47l70 70l49 -49l-74 -73q29 -53 29 -116t-29 -116zM374 336q0 60 -26 99t-65 39t-65 -39t-26 -99t26 -99.5t65 -39.5t65 39.5
t26 99.5z" />
    <glyph glyph-name="yen" unicode="&#xa5;" horiz-adv-x="626" 
d="M573 688l-123 -242h98v-55h-125l-51 -100h176v-55h-176v-236h-118v236h-176v55h176l-51 100h-125v55h98l-123 242h128l135 -309h2l142 309h113z" />
    <glyph glyph-name="brokenbar" unicode="&#xa6;" horiz-adv-x="239" 
d="M168 388h-97v397h97v-397zM168 -215h-97v397h97v-397z" />
    <glyph glyph-name="section" unicode="&#xa7;" horiz-adv-x="548" 
d="M494 227q0 -97 -111 -163q60 -55 60 -122q0 -75 -55.5 -120.5t-138.5 -45.5q-94 0 -156 40l31 79q47 -32 109 -32q40 0 64.5 22t24.5 57q0 28 -20 53t-49.5 42.5t-64.5 41t-64.5 47.5t-49.5 62.5t-20 84.5q0 97 110 163q-47 47 -47 107q0 70 51.5 113t129.5 43
q82 0 143 -40l-30 -74q-49 32 -98 32q-39 0 -59.5 -21t-20.5 -53q0 -27 19.5 -50.5t48.5 -40.5t62.5 -39t62.5 -45t48.5 -59.5t19.5 -81.5zM392 216q0 24 -8.5 44.5t-30 39.5t-35.5 29.5t-49 32l-46 28.5q-69 -44 -69 -103q0 -17 4 -32.5t15.5 -30l20 -24.5t28 -24.5t29 -21
t35 -22t32.5 -20.5q74 42 74 104z" />
    <glyph glyph-name="dieresis" unicode="&#xa8;" horiz-adv-x="260" 
d="M270 659q0 -23 -16 -38.5t-38 -15.5t-38 15.5t-16 38.5t16 38.5t38 15.5t38 -15.5t16 -38.5zM98 659q0 -23 -16 -38.5t-38 -15.5t-38 15.5t-16 38.5t16 38.5t38 15.5t38 -15.5t16 -38.5z" />
    <glyph glyph-name="copyright" unicode="&#xa9;" horiz-adv-x="814" 
d="M764 344q0 -147 -104.5 -251t-252.5 -104t-252.5 104t-104.5 251t104.5 251t252.5 104t252.5 -104t104.5 -251zM691 345q0 122 -83 209t-201 87t-201 -87t-83 -209t83 -209t201 -87t201 87t83 209zM500 169q-32 -21 -90 -21q-80 0 -125 57t-45 142q0 83 45 141t125 58
q56 0 90 -21l-17 -43q-24 13 -60 13q-55 0 -82.5 -43t-27.5 -105q0 -61 28.5 -103t81.5 -42q35 0 59 13z" />
    <glyph glyph-name="ordfeminine" unicode="&#xaa;" horiz-adv-x="384" 
d="M322 345q-51 -27 -131 -27q-72 0 -112 28.5t-40 84.5q0 63 53.5 93t147.5 39v18q0 59 -67 59q-49 0 -93 -22l-20 52q58 28 125 28q137 0 137 -128v-225zM240 378v141q-60 -7 -90 -26.5t-30 -58.5q0 -31 19 -48.5t55 -17.5q24 0 46 10z" />
    <glyph glyph-name="guillemotleft" unicode="&#xab;" horiz-adv-x="504" 
d="M450 141l-70 -40l-134 233l134 234l70 -41l-112 -193zM248 141l-70 -40l-134 233l134 234l70 -41l-112 -193z" />
    <glyph glyph-name="logicalnot" unicode="&#xac;" horiz-adv-x="526" 
d="M468 127h-92v161h-318v84h410v-245z" />
    <glyph glyph-name="uni00AD" unicode="&#xad;" horiz-adv-x="350" 
d="M297 284h-244v92h244v-92z" />
    <glyph glyph-name="registered" unicode="&#xae;" horiz-adv-x="814" 
d="M764 344q0 -147 -104.5 -251t-252.5 -104t-252.5 104t-104.5 251t104.5 251t252.5 104t252.5 -104t104.5 -251zM691 345q0 122 -83 209t-201 87t-201 -87t-83 -209t83 -209t201 -87t201 87t83 209zM554 157h-78l-64 122q-19 39 -53 50v-172h-69v373q44 22 106 22
q70 0 107 -29t37 -86q0 -40 -26.5 -68t-71.5 -37v-2q21 -18 38 -47zM472 435q0 75 -75 75q-20 0 -38 -6v-145q12 -3 30 -3q38 0 60.5 22t22.5 57z" />
    <glyph glyph-name="macron" unicode="&#xaf;" horiz-adv-x="260" 
d="M263 612h-266v68h266v-68z" />
    <glyph glyph-name="degree" unicode="&#xb0;" horiz-adv-x="422" 
d="M364 546q0 -63 -45 -108t-108 -45t-108 45t-45 108t45 108t108 45t108 -45t45 -108zM299 546q0 37 -26 63.5t-62 26.5t-62 -26.5t-26 -63.5t26 -63.5t62 -26.5t62 26.5t26 63.5z" />
    <glyph glyph-name="plusminus" unicode="&#xb1;" horiz-adv-x="526" 
d="M468 318h-159v-155h-92v155h-159v78h159v154h92v-154h159v-78zM468 0h-410v78h410v-78z" />
    <glyph glyph-name="twosuperior" unicode="&#xb2;" horiz-adv-x="356" 
d="M302 476h-280l154 215q31 43 31 81q0 63 -74 63q-39 0 -77 -17l-21 54q50 24 117 24q73 0 110 -31.5t37 -83.5q0 -47 -56 -117l-95 -120h154v-68z" />
    <glyph glyph-name="threesuperior" unicode="&#xb3;" horiz-adv-x="356" 
d="M310 598q0 -58 -44.5 -94t-114.5 -36q-75 0 -121 23l23 57q32 -17 84 -17q38 0 59.5 18.5t21.5 50.5q0 71 -101 71h-11v44q46 4 73 23t27 48q0 50 -64 50q-42 0 -80 -16l-20 53q51 23 115 23q62 0 98.5 -26t36.5 -73q0 -61 -71 -89v-2q89 -27 89 -108z" />
    <glyph glyph-name="acute" unicode="&#xb4;" horiz-adv-x="260" 
d="M253 732l-121 -135h-69l72 141q23 17 62 17q40 0 56 -23z" />
    <glyph glyph-name="mu" unicode="&#xb5;" horiz-adv-x="550" 
d="M485 41q-78 -51 -184 -51q-65 0 -112 24v-229h-122v754h122v-442q37 -26 90 -26q49 0 84 23v445h122v-498z" />
    <glyph glyph-name="paragraph" unicode="&#xb6;" horiz-adv-x="628" 
d="M556 -215h-106v821q-48 14 -107 14q-18 0 -45 -3v-832h-106v492q-73 21 -112.5 75.5t-39.5 124.5q0 59 25.5 103.5t69.5 69.5t96.5 37t111.5 12q116 0 213 -39v-875z" />
    <glyph glyph-name="periodcentered" unicode="&#xb7;" horiz-adv-x="266" 
d="M206 330q0 -30 -21.5 -51.5t-51.5 -21.5t-51.5 21.5t-21.5 51.5t21.5 51.5t51.5 21.5t51.5 -21.5t21.5 -51.5z" />
    <glyph glyph-name="cedilla" unicode="&#xb8;" horiz-adv-x="260" 
d="M259 -124q0 -41 -46.5 -62t-130.5 -21q-43 0 -78 5l21 44q27 -3 51 -3q97 0 97 37q0 29 -66 29q-29 0 -53 -2l19 40q36 4 65 4q121 0 121 -71z" />
    <glyph glyph-name="onesuperior" unicode="&#xb9;" horiz-adv-x="356" 
d="M258 476h-90v322q-38 -18 -103 -22l-11 50q105 13 140 62h64v-412z" />
    <glyph glyph-name="ordmasculine" unicode="&#xba;" horiz-adv-x="396" 
d="M352 508q0 -82 -40 -136t-114 -54t-114 54t-40 136t40 136t114 54t114 -54t40 -136zM266 510q0 130 -68 130t-68 -130q0 -131 68 -131t68 131z" />
    <glyph glyph-name="guillemotright" unicode="&#xbb;" horiz-adv-x="504" 
d="M460 334l-134 -233l-70 40l112 193l-112 193l70 41zM258 334l-134 -233l-70 40l112 193l-112 193l70 41z" />
    <glyph glyph-name="onequarter" unicode="&#xbc;" horiz-adv-x="842" 
d="M783 86h-35v-86h-81v86h-173v49l170 277h84v-279h35v-47zM617 674l-310 -689l-64 29l310 690zM258 276h-90v322q-38 -18 -103 -22l-11 50q105 13 140 62h64v-412zM670 336h-2q-12 -32 -29 -59l-86 -144h115v141q0 32 2 62z" />
    <glyph glyph-name="onehalf" unicode="&#xbd;" horiz-adv-x="842" 
d="M788 0h-281l154 215q32 44 32 81q0 63 -74 63q-37 0 -75 -17l-21 54q50 24 115 24q73 0 109.5 -31.5t36.5 -83.5q0 -48 -55 -117l-95 -120h154v-68zM582 674l-309 -689l-64 29l309 690zM258 276h-90v322q-38 -18 -103 -22l-11 50q105 13 140 62h64v-412z" />
    <glyph glyph-name="threequarters" unicode="&#xbe;" horiz-adv-x="842" 
d="M783 86h-35v-86h-81v86h-173v49l170 277h84v-279h35v-47zM624 674l-309 -689l-64 29l309 690zM308 398q0 -58 -44.5 -94t-114.5 -36q-75 0 -121 23l23 57q32 -17 84 -17q38 0 59.5 18.5t21.5 50.5q0 71 -101 71h-11v44q46 4 73 23t27 48q0 50 -64 50q-42 0 -80 -16
l-20 53q51 23 115 23q62 0 98.5 -26t36.5 -73q0 -61 -71 -89v-2q89 -27 89 -108zM670 336h-2q-11 -30 -29 -59l-86 -144h115v141q0 30 2 62z" />
    <glyph glyph-name="questiondown" unicode="&#xbf;" horiz-adv-x="430" 
d="M320 408q0 -30 -21.5 -51.5t-51.5 -21.5t-51.5 21.5t-21.5 51.5t21.5 51.5t51.5 21.5t51.5 -21.5t21.5 -51.5zM414 -187q-66 -39 -158 -39q-97 0 -154.5 44.5t-57.5 120.5q0 60 45.5 103t102.5 60l8 131h93l11 -167q-53 -11 -92.5 -41t-39.5 -75q0 -41 26 -65.5t81 -24.5
q60 0 103 25z" />
    <glyph glyph-name="Agrave" unicode="&#xc0;" horiz-adv-x="608" 
d="M596 0h-134l-52 181h-224l-53 -181h-121l227 688h129zM389 255l-70 242q-11 34 -18 89h-2q-10 -56 -20 -89l-71 -242h181zM345 745h-69l-121 135q16 23 56 23q39 0 62 -17z" />
    <glyph glyph-name="Aacute" unicode="&#xc1;" horiz-adv-x="608" 
d="M596 0h-134l-52 181h-224l-53 -181h-121l227 688h129zM389 255l-70 242q-11 34 -18 89h-2q-10 -56 -20 -89l-71 -242h181zM450 880l-121 -135h-69l72 141q23 17 62 17q40 0 56 -23z" />
    <glyph glyph-name="Acircumflex" unicode="&#xc2;" horiz-adv-x="608" 
d="M596 0h-134l-52 181h-224l-53 -181h-121l227 688h129zM389 255l-70 242q-11 34 -18 89h-2q-10 -56 -20 -89l-71 -242h181zM438 770l-37 -33l-98 79l-98 -79l-37 33l96 103q17 17 39 17t39 -17z" />
    <glyph glyph-name="Atilde" unicode="&#xc3;" horiz-adv-x="608" 
d="M596 0h-134l-52 181h-224l-53 -181h-121l227 688h129zM389 255l-70 242q-11 34 -18 89h-2q-10 -56 -20 -89l-71 -242h181zM440 840q-12 -91 -84 -91q-25 0 -55 20.5t-48 20.5q-32 0 -39 -41l-50 17q12 92 85 92q25 0 54.5 -20.5t47.5 -20.5q32 0 39 40z" />
    <glyph glyph-name="Adieresis" unicode="&#xc4;" horiz-adv-x="608" 
d="M596 0h-134l-52 181h-224l-53 -181h-121l227 688h129zM389 255l-70 242q-11 34 -18 89h-2q-10 -56 -20 -89l-71 -242h181zM272 807q0 -23 -16 -38.5t-38 -15.5t-38 15.5t-16 38.5t16 38.5t38 15.5t38 -15.5t16 -38.5zM444 807q0 -23 -16 -38.5t-38 -15.5t-38 15.5
t-16 38.5t16 38.5t38 15.5t38 -15.5t16 -38.5z" />
    <glyph glyph-name="Aring" unicode="&#xc5;" horiz-adv-x="608" 
d="M596 0h-134l-52 181h-224l-53 -181h-121l227 688h129zM389 255l-70 242q-11 34 -18 89h-2q-10 -56 -20 -89l-71 -242h181zM389 825q0 -35 -25.5 -60.5t-60.5 -25.5t-60.5 25.5t-25.5 60.5t25.5 60t60.5 25t60.5 -25t25.5 -60zM345 825q0 18 -12.5 30.5t-29.5 12.5
t-29.5 -12.5t-12.5 -30.5t12.5 -31t29.5 -13t29.5 13t12.5 31z" />
    <glyph glyph-name="AE" unicode="&#xc6;" horiz-adv-x="761" 
d="M734 0h-285l-36 181h-225l-70 -181h-121l290 688h389v-85h-241l50 -208h190v-84h-172l54 -226h177v-85zM399 255l-48 242q-7 36 -13 89h-2q-12 -49 -27 -89l-93 -242h183z" />
    <glyph glyph-name="Ccedilla" unicode="&#xc7;" horiz-adv-x="486" 
d="M457 29q-59 -40 -143 -40q-67 0 -119 29.5t-83 80t-47 113t-16 132.5t16 132.5t47 113t83 80t119 29.5q85 0 143 -39l-30 -78q-43 26 -91 26q-54 0 -90 -39.5t-51 -96.5t-15 -127q0 -107 39 -183t116 -76q48 0 91 26zM379 -124q0 -41 -46.5 -62t-130.5 -21q-43 0 -78 5
l21 44q27 -3 51 -3q97 0 97 37q0 29 -66 29q-29 0 -53 -2l19 40q36 4 65 4q121 0 121 -71z" />
    <glyph glyph-name="Egrave" unicode="&#xc8;" horiz-adv-x="450" 
d="M406 0h-335v688h335v-85h-208v-208h185v-84h-185v-226h208v-85zM295 745h-69l-121 135q16 23 56 23q39 0 62 -17z" />
    <glyph glyph-name="Eacute" unicode="&#xc9;" horiz-adv-x="450" 
d="M406 0h-335v688h335v-85h-208v-208h185v-84h-185v-226h208v-85zM373 880l-121 -135h-69l72 141q23 17 62 17q40 0 56 -23z" />
    <glyph glyph-name="Ecircumflex" unicode="&#xca;" horiz-adv-x="450" 
d="M406 0h-335v688h335v-85h-208v-208h185v-84h-185v-226h208v-85zM367 773l-37 -33l-98 79l-98 -79l-37 33l96 103q17 17 39 17t39 -17z" />
    <glyph glyph-name="Edieresis" unicode="&#xcb;" horiz-adv-x="450" 
d="M406 0h-335v688h335v-85h-208v-208h185v-84h-185v-226h208v-85zM205 807q0 -23 -15.5 -38.5t-38.5 -15.5t-38.5 15.5t-15.5 38.5t15.5 38.5t38.5 15.5t38.5 -15.5t15.5 -38.5zM377 807q0 -23 -15.5 -38.5t-38.5 -15.5t-38.5 15.5t-15.5 38.5t15.5 38.5t38.5 15.5
t38.5 -15.5t15.5 -38.5z" />
    <glyph glyph-name="Igrave" unicode="&#xcc;" horiz-adv-x="273" 
d="M200 0h-127v688h127v-688zM190 745h-69l-121 135q16 23 56 23q39 0 62 -17z" />
    <glyph glyph-name="Iacute" unicode="&#xcd;" horiz-adv-x="273" 
d="M200 0h-127v688h127v-688zM273 880l-121 -135h-69l72 141q23 17 62 17q40 0 56 -23z" />
    <glyph glyph-name="Icircumflex" unicode="&#xce;" horiz-adv-x="273" 
d="M200 0h-127v688h127v-688zM272 773l-37 -33l-98 79l-98 -79l-37 33l96 103q17 17 39 17t39 -17z" />
    <glyph glyph-name="Idieresis" unicode="&#xcf;" horiz-adv-x="273" 
d="M200 0h-127v688h127v-688zM105 807q0 -23 -15.5 -38.5t-38.5 -15.5t-38.5 15.5t-15.5 38.5t15.5 38.5t38.5 15.5t38.5 -15.5t15.5 -38.5zM276 807q0 -23 -16 -38.5t-38 -15.5t-38 15.5t-16 38.5t16 38.5t38 15.5t38 -15.5t16 -38.5z" />
    <glyph glyph-name="Eth" unicode="&#xd0;" horiz-adv-x="618" 
d="M569 349q0 -169 -76 -264.5t-219 -95.5q-114 0 -194 39v292h-60v76h60v264q80 39 193 39q140 0 218 -92t78 -258zM441 351q0 266 -168 266q-41 0 -69 -11v-210h100v-76h-100v-232q28 -11 70 -11q88 0 127.5 67.5t39.5 206.5z" />
    <glyph glyph-name="Ntilde" unicode="&#xd1;" horiz-adv-x="650" 
d="M579 0h-102l-264 451q-15 25 -37 72h-2q3 -43 3 -82v-441h-106v688h119l247 -423q16 -27 37 -71h2q-3 39 -3 80v414h106v-688zM462 840q-12 -91 -84 -91q-25 0 -55 20.5t-48 20.5q-32 0 -39 -41l-50 17q12 92 85 92q25 0 54.5 -20.5t47.5 -20.5q32 0 39 40z" />
    <glyph glyph-name="Ograve" unicode="&#xd2;" horiz-adv-x="616" 
d="M567 344q0 -159 -65.5 -257t-193.5 -98t-193.5 98t-65.5 257t65.5 257t193.5 98t193.5 -98t65.5 -257zM439 347q0 265 -131 265t-131 -265q0 -266 131 -266t131 266zM362 746h-69l-121 135q16 23 56 23q39 0 62 -17z" />
    <glyph glyph-name="Oacute" unicode="&#xd3;" horiz-adv-x="616" 
d="M567 344q0 -159 -65.5 -257t-193.5 -98t-193.5 98t-65.5 257t65.5 257t193.5 98t193.5 -98t65.5 -257zM439 347q0 265 -131 265t-131 -265q0 -266 131 -266t131 266zM443 881l-121 -135h-69l72 141q23 17 62 17q40 0 56 -23z" />
    <glyph glyph-name="Ocircumflex" unicode="&#xd4;" horiz-adv-x="616" 
d="M567 344q0 -159 -65.5 -257t-193.5 -98t-193.5 98t-65.5 257t65.5 257t193.5 98t193.5 -98t65.5 -257zM439 347q0 265 -131 265t-131 -265q0 -266 131 -266t131 266zM443 772l-37 -33l-98 79l-98 -79l-37 33l96 103q17 17 39 17t39 -17z" />
    <glyph glyph-name="Otilde" unicode="&#xd5;" horiz-adv-x="616" 
d="M567 344q0 -159 -65.5 -257t-193.5 -98t-193.5 98t-65.5 257t65.5 257t193.5 98t193.5 -98t65.5 -257zM439 347q0 265 -131 265t-131 -265q0 -266 131 -266t131 266zM446 841q-12 -91 -84 -91q-25 0 -55 20.5t-48 20.5q-32 0 -39 -41l-50 17q12 92 85 92q25 0 54.5 -20.5
t47.5 -20.5q32 0 39 40z" />
    <glyph glyph-name="Odieresis" unicode="&#xd6;" horiz-adv-x="616" 
d="M567 344q0 -159 -65.5 -257t-193.5 -98t-193.5 98t-65.5 257t65.5 257t193.5 98t193.5 -98t65.5 -257zM439 347q0 265 -131 265t-131 -265q0 -266 131 -266t131 266zM275 808q0 -22 -15.5 -38t-38.5 -16t-38.5 16t-15.5 38t15.5 38t38.5 16t38.5 -16t15.5 -38zM448 808
q0 -22 -16 -38t-38 -16t-38 16t-16 38t16 38t38 16t38 -16t16 -38z" />
    <glyph glyph-name="multiply" unicode="&#xd7;" horiz-adv-x="526" 
d="M468 189l-60 -59l-145 146l-145 -146l-60 59l146 146l-146 145l60 59l145 -145l145 145l60 -59l-146 -145z" />
    <glyph glyph-name="Oslash" unicode="&#xd8;" horiz-adv-x="616" 
d="M567 344q0 -159 -65.5 -257t-193.5 -98q-96 0 -159 58l-57 -91l-37 24l63 101q-69 94 -69 263q0 159 65.5 257t193.5 98q96 0 159 -58l57 91l36 -24l-63 -101q70 -95 70 -263zM411 550q-36 68 -103 68q-138 0 -138 -271q0 -95 17 -156zM445 347q0 92 -15 151l-223 -358
q35 -64 101 -64q137 0 137 271z" />
    <glyph glyph-name="Ugrave" unicode="&#xd9;" horiz-adv-x="600" 
d="M529 200q0 -93 -63.5 -152t-165.5 -59t-165.5 59t-63.5 152v488h127v-489q0 -51 31 -81.5t76 -30.5t75.5 30.5t30.5 81.5v489h118v-488zM365 745h-69l-121 135q16 23 56 23q39 0 62 -17z" />
    <glyph glyph-name="Uacute" unicode="&#xda;" horiz-adv-x="600" 
d="M529 200q0 -93 -63.5 -152t-165.5 -59t-165.5 59t-63.5 152v488h127v-489q0 -51 31 -81.5t76 -30.5t75.5 30.5t30.5 81.5v489h118v-488zM434 880l-121 -135h-69l72 141q23 17 62 17q40 0 56 -23z" />
    <glyph glyph-name="Ucircumflex" unicode="&#xdb;" horiz-adv-x="600" 
d="M529 200q0 -93 -63.5 -152t-165.5 -59t-165.5 59t-63.5 152v488h127v-489q0 -51 31 -81.5t76 -30.5t75.5 30.5t30.5 81.5v489h118v-488zM438 773l-37 -33l-98 79l-98 -79l-37 33l96 103q17 17 39 17t39 -17z" />
    <glyph glyph-name="Udieresis" unicode="&#xdc;" horiz-adv-x="600" 
d="M529 200q0 -93 -63.5 -152t-165.5 -59t-165.5 59t-63.5 152v488h127v-489q0 -51 31 -81.5t76 -30.5t75.5 30.5t30.5 81.5v489h118v-488zM272 807q0 -23 -16 -38.5t-38 -15.5t-38 15.5t-16 38.5t16 38.5t38 15.5t38 -15.5t16 -38.5zM445 807q0 -23 -15.5 -38.5
t-38.5 -15.5t-38.5 15.5t-15.5 38.5t15.5 38.5t38.5 15.5t38.5 -15.5t15.5 -38.5z" />
    <glyph glyph-name="Yacute" unicode="&#xdd;" horiz-adv-x="516" 
d="M508 688l-186 -391v-297h-127v297l-186 391h135l118 -286h2l123 286h121zM405 881l-121 -135h-69l72 141q23 17 62 17q40 0 56 -23z" />
    <glyph glyph-name="Thorn" unicode="&#xde;" horiz-adv-x="556" 
d="M512 368q0 -96 -65 -155.5t-196 -59.5q-26 0 -56 4v-157h-124v688h124v-115q32 9 68 9q123 0 186 -56t63 -158zM390 371q0 139 -128 139q-38 0 -67 -11v-267q28 -4 56 -4q139 0 139 143z" />
    <glyph glyph-name="germandbls" unicode="&#xdf;" horiz-adv-x="589" 
d="M548 153q0 -73 -51.5 -117.5t-132.5 -44.5q-61 0 -114 31l22 76q37 -21 73 -21q39 0 60.5 20.5t21.5 55.5q0 26 -15.5 48.5t-37.5 40.5l-44.5 38t-38 50t-15.5 67q0 49 30 83.5t79 46.5q3 33 3 52q0 58 -23.5 96t-71.5 38q-105 0 -105 -186v-527h-122v519
q0 125 57.5 200.5t168.5 75.5q101 0 158.5 -62t57.5 -153q0 -45 -13 -88q-104 -9 -104 -90q0 -24 16 -46t39.5 -40.5t46.5 -39.5t39 -53t16 -70z" />
    <glyph glyph-name="agrave" unicode="&#xe0;" horiz-adv-x="520" 
d="M455 28q-76 -39 -195 -39q-107 0 -163.5 42.5t-56.5 124.5q0 92 79.5 137t221.5 58v29q0 91 -103 91q-72 0 -140 -34l-27 72q89 41 182 41q96 0 149 -45.5t53 -140.5v-336zM341 73v219q-94 -10 -140 -41t-46 -91q0 -102 113 -102q45 0 73 15zM325 597h-69l-121 135
q16 23 56 23q39 0 62 -17z" />
    <glyph glyph-name="aacute" unicode="&#xe1;" horiz-adv-x="520" 
d="M455 28q-76 -39 -195 -39q-107 0 -163.5 42.5t-56.5 124.5q0 92 79.5 137t221.5 58v29q0 91 -103 91q-72 0 -140 -34l-27 72q89 41 182 41q96 0 149 -45.5t53 -140.5v-336zM341 73v219q-94 -10 -140 -41t-46 -91q0 -102 113 -102q45 0 73 15zM410 732l-121 -135h-69
l72 141q23 17 62 17q40 0 56 -23z" />
    <glyph glyph-name="acircumflex" unicode="&#xe2;" horiz-adv-x="520" 
d="M455 28q-76 -39 -195 -39q-107 0 -163.5 42.5t-56.5 124.5q0 92 79.5 137t221.5 58v29q0 91 -103 91q-72 0 -140 -34l-27 72q89 41 182 41q96 0 149 -45.5t53 -140.5v-336zM341 73v219q-94 -10 -140 -41t-46 -91q0 -102 113 -102q45 0 73 15zM398 623l-37 -33l-98 79
l-98 -79l-37 33l96 103q17 17 39 17t39 -17z" />
    <glyph glyph-name="atilde" unicode="&#xe3;" horiz-adv-x="520" 
d="M455 28q-76 -39 -195 -39q-107 0 -163.5 42.5t-56.5 124.5q0 92 79.5 137t221.5 58v29q0 91 -103 91q-72 0 -140 -34l-27 72q89 41 182 41q96 0 149 -45.5t53 -140.5v-336zM341 73v219q-94 -10 -140 -41t-46 -91q0 -102 113 -102q45 0 73 15zM399 692q-12 -91 -84 -91
q-25 0 -55 20.5t-48 20.5q-32 0 -39 -41l-50 17q12 92 85 92q25 0 54.5 -20.5t47.5 -20.5q32 0 39 40z" />
    <glyph glyph-name="adieresis" unicode="&#xe4;" horiz-adv-x="520" 
d="M455 28q-76 -39 -195 -39q-107 0 -163.5 42.5t-56.5 124.5q0 92 79.5 137t221.5 58v29q0 91 -103 91q-72 0 -140 -34l-27 72q89 41 182 41q96 0 149 -45.5t53 -140.5v-336zM341 73v219q-94 -10 -140 -41t-46 -91q0 -102 113 -102q45 0 73 15zM235 659q0 -23 -15.5 -38.5
t-38.5 -15.5t-38.5 15.5t-15.5 38.5t15.5 38.5t38.5 15.5t38.5 -15.5t15.5 -38.5zM407 659q0 -23 -15.5 -38.5t-38.5 -15.5t-38.5 15.5t-15.5 38.5t15.5 38.5t38.5 15.5t38.5 -15.5t15.5 -38.5z" />
    <glyph glyph-name="aring" unicode="&#xe5;" horiz-adv-x="520" 
d="M455 28q-76 -39 -195 -39q-107 0 -163.5 42.5t-56.5 124.5q0 92 79.5 137t221.5 58v29q0 91 -103 91q-72 0 -140 -34l-27 72q89 41 182 41q96 0 149 -45.5t53 -140.5v-336zM341 73v219q-94 -10 -140 -41t-46 -91q0 -102 113 -102q45 0 73 15zM352 681q0 -35 -25.5 -60.5
t-60.5 -25.5t-60.5 25.5t-25.5 60.5t25.5 60t60.5 25t60.5 -25t25.5 -60zM308 681q0 18 -12.5 30.5t-29.5 12.5t-29.5 -12.5t-12.5 -30.5t12.5 -31t29.5 -13t29.5 13t12.5 31z" />
    <glyph glyph-name="ae" unicode="&#xe6;" horiz-adv-x="819" 
d="M774 273l-329 -48q6 -70 44.5 -110t106.5 -40q75 0 131 31l29 -78q-71 -39 -173 -39q-120 0 -179 90q-45 -90 -163 -90q-92 0 -146.5 43.5t-54.5 123.5q0 91 79 136t220 59v29q0 91 -104 91q-69 0 -137 -34l-28 72q87 41 180 41q115 0 152 -85q25 41 68.5 63t89.5 22
q103 0 158.5 -66t55.5 -194v-17zM660 322q-2 155 -106 155q-51 0 -83.5 -46t-32.5 -130v-14zM339 157v135q-93 -10 -140 -40.5t-47 -91.5q0 -46 24.5 -74t70.5 -28q38 0 65 28.5t27 70.5z" />
    <glyph glyph-name="ccedilla" unicode="&#xe7;" horiz-adv-x="423" 
d="M393 26q-48 -37 -129 -37q-99 0 -159 77t-60 204t60.5 203.5t158.5 76.5q81 0 129 -37l-27 -69q-31 23 -77 23q-55 0 -87 -53.5t-32 -141.5q0 -87 32 -141t87 -54q44 0 75 23zM336 -124q0 -41 -46.5 -62t-130.5 -21q-43 0 -78 5l21 44q27 -3 51 -3q97 0 97 37
q0 29 -66 29q-29 0 -53 -2l19 40q36 4 65 4q121 0 121 -71z" />
    <glyph glyph-name="egrave" unicode="&#xe8;" horiz-adv-x="541" 
d="M496 274l-332 -49q7 -71 46 -110.5t105 -39.5q76 0 133 31l29 -78q-75 -39 -179 -39q-120 0 -186.5 76.5t-66.5 205.5q0 128 61.5 203.5t170.5 75.5q105 0 162 -67t57 -193v-16zM379 322q-2 155 -106 155q-56 0 -86 -48.5t-30 -130.5v-11zM329 597h-69l-121 135
q16 23 56 23q39 0 62 -17z" />
    <glyph glyph-name="eacute" unicode="&#xe9;" horiz-adv-x="541" 
d="M496 274l-332 -49q7 -71 46 -110.5t105 -39.5q76 0 133 31l29 -78q-75 -39 -179 -39q-120 0 -186.5 76.5t-66.5 205.5q0 128 61.5 203.5t170.5 75.5q105 0 162 -67t57 -193v-16zM379 322q-2 155 -106 155q-56 0 -86 -48.5t-30 -130.5v-11zM419 732l-121 -135h-69l72 141
q23 17 62 17q40 0 56 -23z" />
    <glyph glyph-name="ecircumflex" unicode="&#xea;" horiz-adv-x="541" 
d="M496 274l-332 -49q7 -71 46 -110.5t105 -39.5q76 0 133 31l29 -78q-75 -39 -179 -39q-120 0 -186.5 76.5t-66.5 205.5q0 128 61.5 203.5t170.5 75.5q105 0 162 -67t57 -193v-16zM379 322q-2 155 -106 155q-56 0 -86 -48.5t-30 -130.5v-11zM412 623l-37 -33l-98 79
l-98 -79l-37 33l96 103q17 17 39 17t39 -17z" />
    <glyph glyph-name="edieresis" unicode="&#xeb;" horiz-adv-x="541" 
d="M496 274l-332 -49q7 -71 46 -110.5t105 -39.5q76 0 133 31l29 -78q-75 -39 -179 -39q-120 0 -186.5 76.5t-66.5 205.5q0 128 61.5 203.5t170.5 75.5q105 0 162 -67t57 -193v-16zM379 322q-2 155 -106 155q-56 0 -86 -48.5t-30 -130.5v-11zM245 659q0 -23 -15.5 -38.5
t-38.5 -15.5t-38.5 15.5t-15.5 38.5t15.5 38.5t38.5 15.5t38.5 -15.5t15.5 -38.5zM417 659q0 -23 -15.5 -38.5t-38.5 -15.5t-38.5 15.5t-15.5 38.5t15.5 38.5t38.5 15.5t38.5 -15.5t15.5 -38.5z" />
    <glyph glyph-name="igrave" unicode="&#xec;" horiz-adv-x="260" 
d="M191 0h-122v539h122v-539zM191 596h-69l-121 135q16 23 56 23q39 0 62 -17z" />
    <glyph glyph-name="iacute" unicode="&#xed;" horiz-adv-x="260" 
d="M191 0h-122v539h122v-539zM259 731l-121 -135h-69l72 141q23 17 62 17q40 0 56 -23z" />
    <glyph glyph-name="icircumflex" unicode="&#xee;" horiz-adv-x="260" 
d="M191 0h-122v539h122v-539zM265 624l-37 -33l-98 79l-98 -79l-37 33l96 103q17 17 39 17t39 -17z" />
    <glyph glyph-name="idieresis" unicode="&#xef;" horiz-adv-x="260" 
d="M191 0h-122v539h122v-539zM98 658q0 -22 -16 -38t-38 -16t-38 16t-16 38t16 38t38 16t38 -16t16 -38zM270 658q0 -22 -16 -38t-38 -16t-38 16t-16 38t16 38t38 16t38 -16t16 -38z" />
    <glyph glyph-name="eth" unicode="&#xf0;" 
d="M501 274q0 -128 -56.5 -206.5t-172.5 -78.5q-109 0 -168 72t-59 200q0 116 62 193.5t165 77.5q26 0 48 -6q-26 51 -70 102l-102 -58l-35 49l90 55l-71 69l80 56l79 -75l92 55l42 -57l-83 -48q159 -176 159 -400zM379 272q0 100 -30 185q-22 9 -54 9q-63 0 -95.5 -57.5
t-32.5 -146.5q0 -88 26 -140t80 -52q106 0 106 202z" />
    <glyph glyph-name="ntilde" unicode="&#xf1;" horiz-adv-x="556" 
d="M491 0h-122v369q0 54 -24 79t-79 25q-47 0 -79 -14v-459h-122v510q91 39 201 39q225 0 225 -181v-368zM411 692q-12 -91 -84 -91q-25 0 -55 20.5t-48 20.5q-32 0 -39 -41l-50 17q12 92 85 92q25 0 54.5 -20.5t47.5 -20.5q32 0 39 40z" />
    <glyph glyph-name="ograve" unicode="&#xf2;" 
d="M501 270q0 -127 -58.5 -204t-169.5 -77t-169.5 77t-58.5 204q0 126 58.5 203t169.5 77t169.5 -77t58.5 -203zM379 272q0 202 -106 202t-106 -202t106 -202t106 202zM325 597h-69l-121 135q16 23 56 23q39 0 62 -17z" />
    <glyph glyph-name="oacute" unicode="&#xf3;" 
d="M501 270q0 -127 -58.5 -204t-169.5 -77t-169.5 77t-58.5 204q0 126 58.5 203t169.5 77t169.5 -77t58.5 -203zM379 272q0 202 -106 202t-106 -202t106 -202t106 202zM414 732l-121 -135h-69l72 141q23 17 62 17q40 0 56 -23z" />
    <glyph glyph-name="ocircumflex" unicode="&#xf4;" 
d="M501 270q0 -127 -58.5 -204t-169.5 -77t-169.5 77t-58.5 204q0 126 58.5 203t169.5 77t169.5 -77t58.5 -203zM379 272q0 202 -106 202t-106 -202t106 -202t106 202zM408 623l-37 -33l-98 79l-98 -79l-37 33l96 103q17 17 39 17t39 -17z" />
    <glyph glyph-name="otilde" unicode="&#xf5;" 
d="M501 270q0 -127 -58.5 -204t-169.5 -77t-169.5 77t-58.5 204q0 126 58.5 203t169.5 77t169.5 -77t58.5 -203zM379 272q0 202 -106 202t-106 -202t106 -202t106 202zM411 692q-12 -91 -84 -91q-25 0 -55 20.5t-48 20.5q-32 0 -39 -41l-50 17q12 92 85 92q25 0 54.5 -20.5
t47.5 -20.5q32 0 39 40z" />
    <glyph glyph-name="odieresis" unicode="&#xf6;" 
d="M501 270q0 -127 -58.5 -204t-169.5 -77t-169.5 77t-58.5 204q0 126 58.5 203t169.5 77t169.5 -77t58.5 -203zM379 272q0 202 -106 202t-106 -202t106 -202t106 202zM241 659q0 -23 -15.5 -38.5t-38.5 -15.5t-38.5 15.5t-15.5 38.5t15.5 38.5t38.5 15.5t38.5 -15.5
t15.5 -38.5zM413 659q0 -23 -15.5 -38.5t-38.5 -15.5t-38.5 15.5t-15.5 38.5t15.5 38.5t38.5 15.5t38.5 -15.5t15.5 -38.5z" />
    <glyph glyph-name="divide" unicode="&#xf7;" horiz-adv-x="526" 
d="M324 496q0 -25 -18 -43t-43 -18t-43 18t-18 43t18 42.5t43 17.5t43 -17.5t18 -42.5zM468 296h-410v68h410v-68zM324 164q0 -25 -18 -43t-43 -18t-43 18t-18 43t18 42.5t43 17.5t43 -17.5t18 -42.5z" />
    <glyph glyph-name="oslash" unicode="&#xf8;" 
d="M501 270q0 -127 -58.5 -204t-169.5 -77q-80 0 -134 42l-49 -73l-34 22l53 79q-64 74 -64 211q0 126 58.5 203t169.5 77q80 0 134 -42l49 73l34 -22l-53 -79q64 -74 64 -210zM355 430q-29 50 -82 50q-112 0 -112 -208q0 -67 13 -115zM385 272q0 63 -12 111l-181 -271
q29 -48 81 -48q112 0 112 208z" />
    <glyph glyph-name="ugrave" unicode="&#xf9;" horiz-adv-x="548" 
d="M483 30q-82 -41 -203 -41q-108 0 -161.5 44.5t-53.5 138.5v367h122v-371q0 -97 95 -97q50 0 79 15v453h122v-509zM336 596h-69l-121 135q16 23 56 23q39 0 62 -17z" />
    <glyph glyph-name="uacute" unicode="&#xfa;" horiz-adv-x="548" 
d="M483 30q-82 -41 -203 -41q-108 0 -161.5 44.5t-53.5 138.5v367h122v-371q0 -97 95 -97q50 0 79 15v453h122v-509zM416 731l-121 -135h-69l72 141q23 17 62 17q40 0 56 -23z" />
    <glyph glyph-name="ucircumflex" unicode="&#xfb;" horiz-adv-x="548" 
d="M483 30q-82 -41 -203 -41q-108 0 -161.5 44.5t-53.5 138.5v367h122v-371q0 -97 95 -97q50 0 79 15v453h122v-509zM409 624l-37 -33l-98 79l-98 -79l-37 33l96 103q17 17 39 17t39 -17z" />
    <glyph glyph-name="udieresis" unicode="&#xfc;" horiz-adv-x="548" 
d="M483 30q-82 -41 -203 -41q-108 0 -161.5 44.5t-53.5 138.5v367h122v-371q0 -97 95 -97q50 0 79 15v453h122v-509zM241 658q0 -22 -15.5 -38t-38.5 -16t-38.5 16t-15.5 38t15.5 38t38.5 16t38.5 -16t15.5 -38zM414 658q0 -22 -16 -38t-38 -16t-38 16t-16 38t16 38t38 16
t38 -16t16 -38z" />
    <glyph glyph-name="yacute" unicode="&#xfd;" horiz-adv-x="513" 
d="M492 539l-250 -754h-129l90 215l-181 539h131l94 -356q9 -36 12 -76h2q5 39 15 76l100 356h116zM401 732l-121 -135h-69l72 141q23 17 62 17q40 0 56 -23z" />
    <glyph glyph-name="thorn" unicode="&#xfe;" horiz-adv-x="549" 
d="M504 284q0 -134 -64 -213t-173 -79q-49 0 -80 11v-218h-121v1000h121v-260q44 21 101 21q99 0 157.5 -71t58.5 -191zM383 274q0 95 -32 148t-94 53q-40 0 -70 -15v-382q25 -11 61 -11q135 0 135 207z" />
    <glyph glyph-name="ydieresis" unicode="&#xff;" horiz-adv-x="513" 
d="M492 539l-250 -754h-129l90 215l-181 539h131l94 -356q9 -36 12 -76h2q5 39 15 76l100 356h116zM233 659q0 -23 -15.5 -38.5t-38.5 -15.5t-38.5 15.5t-15.5 38.5t15.5 38.5t38.5 15.5t38.5 -15.5t15.5 -38.5zM412 659q0 -23 -16 -38.5t-38 -15.5t-38 15.5t-16 38.5
t16 38.5t38 15.5t38 -15.5t16 -38.5z" />
    <glyph glyph-name="dotlessi" unicode="&#x131;" horiz-adv-x="260" 
d="M191 0h-122v539h122v-539z" />
    <glyph glyph-name="IJ" unicode="&#x132;" horiz-adv-x="547" 
d="M474 688v-612q0 -123 -62 -201t-178 -95v89q113 39 113 198v621h127zM200 0h-127v688h127v-688z" />
    <glyph glyph-name="ij" unicode="&#x133;" horiz-adv-x="523" 
d="M461 692q0 -25 -19.5 -43t-47.5 -18t-48 17.5t-20 43.5q0 25 20 43.5t48 18.5t47.5 -18.5t19.5 -43.5zM198 692q0 -25 -20 -43t-48 -18t-48 18t-20 43t20 43.5t48 18.5t48 -18.5t20 -43.5zM455 76q0 -252 -216 -297v83q51 27 72.5 73.5t21.5 126.5v477h122v-463zM191 0
h-122v539h122v-539z" />
    <glyph glyph-name="Lslash" unicode="&#x141;" horiz-adv-x="432" 
d="M401 0h-318v319l-64 -30v79l64 30v290h127v-239l87 39v-79l-87 -39v-285h191v-85z" />
    <glyph glyph-name="lslash" unicode="&#x142;" horiz-adv-x="280" 
d="M266 463l-66 -31v-432h-122v384l-65 -30v75l65 30v326h122v-277l66 30v-75z" />
    <glyph glyph-name="OE" unicode="&#x152;" horiz-adv-x="764" 
d="M719 0h-309q-37 -11 -83 -11q-139 0 -208.5 97.5t-69.5 257.5t69.5 257.5t208.5 97.5q46 0 83 -11h309v-85h-207v-208h185v-84h-185v-226h207v-85zM393 84v524q-32 10 -61 10q-155 0 -155 -272q0 -123 37 -196.5t118 -73.5q35 0 61 8z" />
    <glyph glyph-name="oe" unicode="&#x153;" horiz-adv-x="852" 
d="M807 273l-328 -48q7 -71 44.5 -110.5t105.5 -39.5q76 0 132 31l29 -78q-71 -39 -173 -39q-65 0 -113.5 29.5t-74.5 80.5q-22 -50 -64.5 -80t-99.5 -30q-106 0 -163 76t-57 205q0 128 57 204t163 76q111 0 163 -103q26 51 71 77t96 26q102 0 157 -67.5t55 -194.5v-15z
M694 322q-2 155 -106 155q-56 0 -86 -48.5t-30 -130.5v-11zM375 272q0 202 -106 202t-106 -202t106 -202t106 202z" />
    <glyph glyph-name="Scaron" unicode="&#x160;" horiz-adv-x="495" 
d="M447 191q0 -88 -62.5 -145t-165.5 -57q-108 0 -180 40l33 86q57 -32 132 -32q53 0 83.5 27t30.5 70q0 40 -28 68.5t-68 47.5t-80 42t-68 66t-28 104q0 85 60.5 138t158.5 53q92 0 159 -39l-31 -78q-53 30 -113 30q-51 0 -79.5 -24t-28.5 -69q0 -34 20.5 -59t51 -39.5
t66 -34.5t66 -41t51 -61t20.5 -93zM388 869l-96 -103q-17 -17 -39 -17t-39 17l-96 103l37 33l98 -79l98 79z" />
    <glyph glyph-name="scaron" unicode="&#x161;" horiz-adv-x="432" 
d="M390 157q0 -71 -55 -119.5t-144 -48.5q-93 0 -156 39l34 76q50 -31 108 -31q40 0 64 21.5t24 54.5q0 30 -22.5 50.5t-54.5 34t-63.5 30t-54 49t-22.5 80.5q0 69 50.5 113t126.5 44q89 0 150 -39l-31 -69q-48 30 -96 30q-38 0 -59 -20t-21 -51q0 -29 23 -48.5t55.5 -33
t65 -30t55.5 -50t23 -82.5zM353 718l-96 -103q-17 -17 -39 -17t-39 17l-96 103l37 33l98 -79l98 79z" />
    <glyph glyph-name="Ydieresis" unicode="&#x178;" horiz-adv-x="516" 
d="M508 688l-186 -391v-297h-127v297l-186 391h135l118 -286h2l123 286h121zM233 807q0 -23 -15.5 -38.5t-38.5 -15.5t-38.5 15.5t-15.5 38.5t15.5 38.5t38.5 15.5t38.5 -15.5t15.5 -38.5zM405 807q0 -23 -15.5 -38.5t-38.5 -15.5t-38.5 15.5t-15.5 38.5t15.5 38.5
t38.5 15.5t38.5 -15.5t15.5 -38.5z" />
    <glyph glyph-name="Zcaron" unicode="&#x17d;" horiz-adv-x="461" 
d="M427 0h-406l241 603h-222v85h381l-236 -603h242v-85zM365 865l-96 -103q-17 -17 -39 -17t-39 17l-96 103l37 33l98 -79l98 79z" />
    <glyph glyph-name="zcaron" unicode="&#x17e;" horiz-adv-x="428" 
d="M392 0h-364l205 462h-188v77h341l-202 -462h208v-77zM347 716l-96 -103q-17 -17 -39 -17t-39 17l-96 103l37 33l98 -79l98 79z" />
    <glyph glyph-name="longs" unicode="&#x17f;" horiz-adv-x="324" 
d="M332 778l-15 -77q-20 6 -41 6q-85 0 -85 -106v-816h-121v810q0 92 50 143.5t135 51.5q43 0 77 -12z" />
    <glyph glyph-name="florin" unicode="&#x192;" 
d="M508 679l-15 -78q-24 11 -55 11q-85 0 -101 -132l-9 -72h113v-80h-124l-42 -329q-14 -106 -65.5 -163t-141.5 -57q-51 0 -87 18l16 82q26 -12 56 -12q83 0 101 132l42 329h-97v80h108l9 72q28 216 205 216q51 0 87 -17z" />
    <glyph glyph-name="uni02BB" unicode="&#x2bb;" horiz-adv-x="280" 
d="M240 785l-81 -247q-22 -37 -68 -37q-42 0 -49 37l132 247h66z" />
    <glyph glyph-name="afii57929" unicode="&#x2bc;" horiz-adv-x="280" 
d="M238 756l-132 -247h-66l81 247q22 37 68 37q42 0 49 -37z" />
    <glyph glyph-name="circumflex" unicode="&#x2c6;" horiz-adv-x="260" 
d="M265 625l-37 -33l-98 79l-98 -79l-37 33l96 103q17 17 39 17t39 -17z" />
    <glyph glyph-name="caron" unicode="&#x2c7;" horiz-adv-x="260" 
d="M265 716l-96 -103q-17 -17 -39 -17t-39 17l-96 103l37 33l98 -79l98 79z" />
    <glyph glyph-name="uni02C9" unicode="&#x2c9;" horiz-adv-x="260" 
d="M263 612h-266v68h266v-68z" />
    <glyph glyph-name="breve" unicode="&#x2d8;" horiz-adv-x="260" 
d="M260 733q0 -63 -36 -100t-94 -37t-94 37t-36 100l53 8q4 -37 24.5 -56.5t52.5 -19.5t53 19.5t25 56.5z" />
    <glyph glyph-name="dotaccent" unicode="&#x2d9;" horiz-adv-x="260" 
d="M190 665q0 -25 -17.5 -42.5t-42.5 -17.5t-42.5 17.5t-17.5 42.5t17.5 42.5t42.5 17.5t42.5 -17.5t17.5 -42.5z" />
    <glyph glyph-name="ring" unicode="&#x2da;" horiz-adv-x="260" 
d="M216 681q0 -35 -25.5 -60.5t-60.5 -25.5t-60.5 25.5t-25.5 60.5t25.5 60t60.5 25t60.5 -25t25.5 -60zM172 681q0 18 -12.5 30.5t-29.5 12.5t-29.5 -12.5t-12.5 -30.5t12.5 -31t29.5 -13t29.5 13t12.5 31z" />
    <glyph glyph-name="ogonek" unicode="&#x2db;" horiz-adv-x="260" 
d="M245 -171q-34 -16 -85 -16q-56 0 -89.5 23t-33.5 64q0 32 23.5 61.5t62.5 50.5h73q-73 -44 -73 -95q0 -21 16 -34.5t41 -13.5q26 0 54 11z" />
    <glyph glyph-name="tilde" unicode="&#x2dc;" horiz-adv-x="260" 
d="M268 692q-12 -91 -84 -91q-25 0 -55 20.5t-48 20.5q-32 0 -39 -41l-50 17q12 92 85 92q25 0 54.5 -20.5t47.5 -20.5q32 0 39 40z" />
    <glyph glyph-name="hungarumlaut" unicode="&#x2dd;" horiz-adv-x="260" 
d="M320 732l-114 -135h-55l85 138q20 18 46 18q27 0 38 -21zM181 732l-114 -135h-55l85 138q19 18 46 18t38 -21z" />
    <glyph glyph-name="uni037E" unicode="&#x37e;" horiz-adv-x="280" 
d="M220 375q0 -30 -21.5 -52t-51.5 -22t-51.5 22t-21.5 52t21.5 51.5t51.5 21.5t51.5 -21.5t21.5 -51.5zM223 100l-135 -245h-73l81 245q25 39 73 39q45 0 54 -39z" />
    <glyph glyph-name="uni0394" unicode="&#x394;" horiz-adv-x="608" 
d="M596 0h-584l227 688h129zM443 76l-124 421q-12 41 -18 88h-2q-9 -50 -20 -88l-126 -421h290z" />
    <glyph glyph-name="uni03A9" unicode="&#x3a9;" horiz-adv-x="628" 
d="M580 0h-231v85q102 127 102 299q0 94 -35 161t-102 67t-102.5 -67.5t-35.5 -160.5q0 -172 102 -299v-85h-230v85h126q-125 145 -125 307q0 128 69.5 217.5t195.5 89.5t195 -89.5t69 -217.5q0 -163 -124 -307h126v-85z" />
    <glyph glyph-name="uni03BC" unicode="&#x3bc;" horiz-adv-x="550" 
d="M485 41q-78 -51 -184 -51q-65 0 -112 24v-229h-122v754h122v-442q37 -26 90 -26q49 0 84 23v445h122v-498z" />
    <glyph glyph-name="pi" unicode="&#x3c0;" horiz-adv-x="598" 
d="M562 460h-66v-460h-120v460h-144l-58 -460h-121l61 460h-70v79h518v-79z" />
    <glyph glyph-name="uni2007" unicode="&#x2007;" horiz-adv-x="556" 
 />
    <glyph glyph-name="uni2008" unicode="&#x2008;" horiz-adv-x="266" 
 />
    <glyph glyph-name="uni200B" unicode="&#x200b;" horiz-adv-x="0" 
 />
    <glyph glyph-name="endash" unicode="&#x2013;" horiz-adv-x="392" 
d="M392 286h-392v88h392v-88z" />
    <glyph glyph-name="emdash" unicode="&#x2014;" horiz-adv-x="784" 
d="M784 288h-784v84h784v-84z" />
    <glyph glyph-name="quoteleft" unicode="&#x2018;" horiz-adv-x="280" 
d="M240 785l-81 -247q-22 -37 -68 -37q-42 0 -49 37l132 247h66z" />
    <glyph glyph-name="quoteright" unicode="&#x2019;" horiz-adv-x="280" 
d="M238 756l-132 -247h-66l81 247q22 37 68 37q42 0 49 -37z" />
    <glyph glyph-name="quotesinglbase" unicode="&#x201a;" horiz-adv-x="280" 
d="M238 102l-132 -247h-66l81 247q22 37 68 37q42 0 49 -37z" />
    <glyph glyph-name="quotedblleft" unicode="&#x201c;" horiz-adv-x="476" 
d="M436 785l-81 -247q-22 -37 -68 -37q-42 0 -49 37l132 247h66zM240 785l-81 -247q-22 -37 -68 -37q-42 0 -49 37l132 247h66z" />
    <glyph glyph-name="quotedblright" unicode="&#x201d;" horiz-adv-x="476" 
d="M434 756l-132 -247h-66l81 247q22 37 68 37q42 0 49 -37zM238 756l-132 -247h-66l81 247q22 37 68 37q42 0 49 -37z" />
    <glyph glyph-name="quotedblbase" unicode="&#x201e;" horiz-adv-x="476" 
d="M434 102l-132 -247h-66l81 247q22 37 68 37q42 0 49 -37zM238 102l-132 -247h-66l81 247q22 37 68 37q42 0 49 -37z" />
    <glyph glyph-name="dagger" unicode="&#x2020;" horiz-adv-x="586" 
d="M538 425l-193 11l11 -651h-127l12 651l-193 -11v120l193 -11l-12 251h127l-11 -251l193 11v-120z" />
    <glyph glyph-name="daggerdbl" unicode="&#x2021;" horiz-adv-x="586" 
d="M538 133l-193 11l11 -359h-127l12 359l-193 -11v119l193 -12v198l-193 -11v118l193 -11l-12 251h127l-11 -251l193 11v-118l-193 11v-198l193 12v-119z" />
    <glyph glyph-name="bullet" unicode="&#x2022;" horiz-adv-x="358" 
d="M297 359q0 -49 -34.5 -83.5t-83.5 -34.5t-83.5 34.5t-34.5 83.5t34.5 83.5t83.5 34.5t83.5 -34.5t34.5 -83.5z" />
    <glyph glyph-name="ellipsis" unicode="&#x2026;" horiz-adv-x="798" 
d="M738 65q0 -30 -21.5 -51.5t-51.5 -21.5t-51.5 21.5t-21.5 51.5t21.5 51.5t51.5 21.5t51.5 -21.5t21.5 -51.5zM472 65q0 -30 -21.5 -51.5t-51.5 -21.5t-51.5 21.5t-21.5 51.5t21.5 51.5t51.5 21.5t51.5 -21.5t21.5 -51.5zM206 65q0 -30 -21.5 -51.5t-51.5 -21.5
t-51.5 21.5t-21.5 51.5t21.5 51.5t51.5 21.5t51.5 -21.5t21.5 -51.5z" />
    <glyph glyph-name="perthousand" unicode="&#x2030;" horiz-adv-x="1184" 
d="M1131 186q0 -82 -37 -139.5t-106 -57.5t-106 57.5t-37 139.5t37 139.5t106 57.5t106 -57.5t37 -139.5zM775 186q0 -82 -37 -139.5t-106 -57.5t-106 57.5t-37 139.5t37 139.5t106 57.5t106 -57.5t37 -139.5zM564 678l-236 -688l-63 20l236 689zM339 502q0 -82 -37 -139.5
t-106 -57.5t-106 57.5t-37 139.5t37 139.5t106 57.5t106 -57.5t37 -139.5zM1050 188q0 143 -62 143t-62 -143t62 -143t62 143zM694 188q0 143 -62 143t-62 -143t62 -143t62 143zM258 504q0 143 -62 143t-62 -143t62 -143t62 143z" />
    <glyph glyph-name="guilsinglleft" unicode="&#x2039;" horiz-adv-x="302" 
d="M248 141l-70 -40l-134 233l134 234l70 -41l-112 -193z" />
    <glyph glyph-name="guilsinglright" unicode="&#x203a;" horiz-adv-x="302" 
d="M258 334l-134 -233l-70 40l112 193l-112 193l70 41z" />
    <glyph glyph-name="fraction" unicode="&#x2044;" horiz-adv-x="132" 
d="M248 674l-310 -689l-64 29l310 690z" />
    <glyph glyph-name="uni2070" unicode="&#x2070;" horiz-adv-x="356" 
d="M323 682q0 -91 -36 -152.5t-109 -61.5t-109 61.5t-36 152.5t36 152.5t109 61.5t109 -61.5t36 -152.5zM238 684q0 158 -60 158t-60 -158t60 -158t60 158z" />
    <glyph glyph-name="uni2074" unicode="&#x2074;" horiz-adv-x="356" 
d="M322 562h-35v-86h-81v86h-173v49l170 277h84v-279h35v-47zM209 812h-2q-13 -32 -29 -59l-86 -144h115v141q0 26 2 62z" />
    <glyph glyph-name="uni2075" unicode="&#x2075;" horiz-adv-x="356" 
d="M310 598q0 -55 -44 -92.5t-114 -37.5q-76 0 -122 23l24 57q34 -18 84 -18q37 0 58.5 19.5t21.5 48.5q0 75 -102 75q-32 0 -63 -4l25 219h215v-67h-154l-11 -100q12 1 23 1q78 0 118.5 -33.5t40.5 -90.5z" />
    <glyph glyph-name="uni2076" unicode="&#x2076;" horiz-adv-x="356" 
d="M324 602q0 -57 -37.5 -95.5t-105.5 -38.5q-71 0 -108.5 43t-37.5 117q0 106 66 176t171 91l18 -56q-115 -30 -155 -120q22 8 47 8q66 0 104 -33.5t38 -91.5zM241 602q0 82 -78 82q-20 0 -41 -8q-5 -21 -5 -51q0 -103 65 -103q29 0 44 22.5t15 57.5z" />
    <glyph glyph-name="uni2077" unicode="&#x2077;" horiz-adv-x="356" 
d="M328 888l-56 -127q-78 -179 -103 -285h-104l158 345h-186v67h291z" />
    <glyph glyph-name="uni2078" unicode="&#x2078;" horiz-adv-x="356" 
d="M323 577q0 -48 -41 -78.5t-105 -30.5q-62 0 -103 28.5t-41 79.5q0 39 23 64.5t66 49.5q-37 22 -57 45.5t-20 57.5q0 45 37.5 74t94.5 29t95.5 -28.5t38.5 -73.5q0 -34 -19.5 -57t-57.5 -44q43 -25 66 -51t23 -65zM240 794q0 24 -17.5 39t-43.5 15q-27 0 -43 -14.5
t-16 -38.5t14 -39.5t46 -34.5q31 19 45.5 34.5t14.5 38.5zM243 577q0 28 -16 47t-51 39q-34 -19 -50 -37.5t-16 -46.5q0 -25 20 -42t47 -17q29 0 47.5 16t18.5 41z" />
    <glyph glyph-name="uni2079" unicode="&#x2079;" horiz-adv-x="356" 
d="M321 736q0 -106 -66 -176t-171 -91l-18 57q117 33 156 119q-22 -8 -47 -8q-66 0 -104.5 33.5t-38.5 91.5q0 57 38.5 95.5t105.5 38.5q70 0 107.5 -43t37.5 -117zM239 740q0 103 -64 103q-29 0 -44.5 -22.5t-15.5 -57.5q0 -81 78 -81q23 0 41 7q5 21 5 51z" />
    <glyph glyph-name="uni207A" unicode="&#x207a;" horiz-adv-x="360" 
d="M310 653h-96v-97h-67v97h-97v62h97v97h67v-97h96v-62z" />
    <glyph glyph-name="uni207B" unicode="&#x207b;" horiz-adv-x="360" 
d="M310 653h-260v62h260v-62z" />
    <glyph glyph-name="uni207C" unicode="&#x207c;" horiz-adv-x="360" 
d="M310 718h-260v62h260v-62zM310 588h-260v62h260v-62z" />
    <glyph glyph-name="uni207D" unicode="&#x207d;" horiz-adv-x="226" 
d="M213 412l-43 -31q-134 123 -134 301t134 301l43 -31q-90 -115 -90 -270t90 -270z" />
    <glyph glyph-name="uni207E" unicode="&#x207e;" horiz-adv-x="226" 
d="M190 682q0 -178 -134 -301l-43 31q90 115 90 270t-90 270l43 31q134 -123 134 -301z" />
    <glyph glyph-name="uni207F" unicode="&#x207f;" horiz-adv-x="398" 
d="M346 476h-89v239q0 62 -62 62q-32 0 -53 -9v-292h-90v329q64 26 142 26q152 0 152 -114v-241z" />
    <glyph glyph-name="uni2080" unicode="&#x2080;" horiz-adv-x="356" 
d="M323 -9q0 -91 -36 -152.5t-109 -61.5t-109 61.5t-36 152.5t36 152.5t109 61.5t109 -61.5t36 -152.5zM238 -7q0 158 -60 158t-60 -158t60 -158t60 158z" />
    <glyph glyph-name="uni2081" unicode="&#x2081;" horiz-adv-x="356" 
d="M258 -215h-90v322q-38 -18 -103 -22l-11 50q105 13 140 62h64v-412z" />
    <glyph glyph-name="uni2082" unicode="&#x2082;" horiz-adv-x="356" 
d="M302 -215h-280l154 215q31 43 31 81q0 63 -74 63q-39 0 -77 -17l-21 54q50 24 117 24q73 0 110 -31.5t37 -83.5q0 -47 -56 -117l-95 -120h154v-68z" />
    <glyph glyph-name="uni2083" unicode="&#x2083;" horiz-adv-x="356" 
d="M310 -93q0 -58 -44.5 -94t-114.5 -36q-75 0 -121 23l23 57q32 -17 84 -17q38 0 59.5 18.5t21.5 50.5q0 71 -101 71h-11v44q46 4 73 23t27 48q0 50 -64 50q-42 0 -80 -16l-20 53q51 23 115 23q62 0 98.5 -26t36.5 -73q0 -61 -71 -89v-2q89 -27 89 -108z" />
    <glyph glyph-name="uni2084" unicode="&#x2084;" horiz-adv-x="356" 
d="M322 -129h-35v-86h-81v86h-173v49l170 277h84v-279h35v-47zM209 121h-2q-13 -32 -29 -59l-86 -144h115v141q0 26 2 62z" />
    <glyph glyph-name="uni2085" unicode="&#x2085;" horiz-adv-x="356" 
d="M310 -93q0 -55 -44 -92.5t-114 -37.5q-76 0 -122 23l24 57q34 -18 84 -18q37 0 58.5 19.5t21.5 48.5q0 75 -102 75q-32 0 -63 -4l25 219h215v-67h-154l-11 -100q12 1 23 1q78 0 118.5 -33.5t40.5 -90.5z" />
    <glyph glyph-name="uni2086" unicode="&#x2086;" horiz-adv-x="356" 
d="M324 -89q0 -57 -37.5 -95.5t-105.5 -38.5q-71 0 -108.5 43t-37.5 117q0 106 66 176t171 91l18 -56q-115 -30 -155 -120q22 8 47 8q66 0 104 -33.5t38 -91.5zM241 -89q0 82 -78 82q-20 0 -41 -8q-5 -21 -5 -51q0 -103 65 -103q29 0 44 22.5t15 57.5z" />
    <glyph glyph-name="uni2087" unicode="&#x2087;" horiz-adv-x="356" 
d="M328 197l-56 -127q-78 -179 -103 -285h-104l158 345h-186v67h291z" />
    <glyph glyph-name="uni2088" unicode="&#x2088;" horiz-adv-x="356" 
d="M323 -114q0 -48 -41 -78.5t-105 -30.5q-62 0 -103 28.5t-41 79.5q0 39 23 64.5t66 49.5q-37 22 -57 45.5t-20 57.5q0 45 37.5 74t94.5 29t95.5 -28.5t38.5 -73.5q0 -34 -19.5 -57t-57.5 -44q43 -25 66 -51t23 -65zM240 103q0 24 -17.5 39t-43.5 15q-27 0 -43 -14.5
t-16 -38.5t14 -39.5t46 -34.5q31 19 45.5 34.5t14.5 38.5zM243 -114q0 28 -16 47t-51 39q-34 -19 -50 -37.5t-16 -46.5q0 -25 20 -42t47 -17q29 0 47.5 16t18.5 41z" />
    <glyph glyph-name="uni2089" unicode="&#x2089;" horiz-adv-x="356" 
d="M321 45q0 -106 -66 -176t-171 -91l-18 57q117 33 156 119q-22 -8 -47 -8q-66 0 -104.5 33.5t-38.5 91.5q0 57 38 95.5t106 38.5q70 0 107.5 -43t37.5 -117zM239 49q0 103 -64 103q-29 0 -44.5 -22.5t-15.5 -57.5q0 -81 78 -81q23 0 41 7q5 21 5 51z" />
    <glyph glyph-name="uni208A" unicode="&#x208a;" horiz-adv-x="360" 
d="M310 -38h-96v-97h-67v97h-97v62h97v97h67v-97h96v-62z" />
    <glyph glyph-name="uni208B" unicode="&#x208b;" horiz-adv-x="360" 
d="M310 -38h-260v62h260v-62z" />
    <glyph glyph-name="uni208C" unicode="&#x208c;" horiz-adv-x="360" 
d="M310 27h-260v62h260v-62zM310 -103h-260v62h260v-62z" />
    <glyph glyph-name="uni208D" unicode="&#x208d;" horiz-adv-x="226" 
d="M213 -279l-43 -31q-134 123 -134 301t134 301l43 -31q-90 -115 -90 -270t90 -270z" />
    <glyph glyph-name="uni208E" unicode="&#x208e;" horiz-adv-x="226" 
d="M190 -9q0 -178 -134 -301l-43 31q90 115 90 270t-90 270l43 31q134 -123 134 -301z" />
    <glyph glyph-name="Euro" unicode="&#x20ac;" horiz-adv-x="646" 
d="M600 27q-56 -40 -151 -40q-122 0 -194 72t-94 187h-104v55h97q-2 28 -2 43q0 28 3 57h-98v55h107q25 109 97.5 177t187.5 68q93 0 151 -39l-28 -75q-41 25 -102 25q-140 0 -179 -156h229v-55h-239q-3 -29 -3 -56q0 -22 2 -44h240v-55h-231q17 -74 61.5 -119.5
t119.5 -45.5q59 0 100 25z" />
    <glyph glyph-name="uni20B4" unicode="&#x20b4;" 
d="M500 246h-266q-22 -34 -22 -72q0 -39 29 -66t71 -27q62 0 111 31l31 -83q-62 -40 -155 -40q-89 0 -146.5 51t-57.5 134q0 39 11 72h-60v55h89q12 15 29.5 30.5t29.5 24.5t35.5 24.5l31.5 20.5h-215v55h272q18 29 18 64q0 42 -28 66.5t-73 24.5q-61 0 -105 -29l-30 78
q63 39 148 39q90 0 145.5 -48t55.5 -130q0 -36 -9 -65h60v-55h-88q-11 -15 -27.5 -30.5t-28.5 -24.5l-33.5 -24l-30.5 -21h208v-55z" />
    <glyph glyph-name="afii61289" unicode="&#x2113;" horiz-adv-x="312" 
d="M281 5q-24 -12 -66 -12q-68 0 -106.5 39t-38.5 110v643h122v-643q0 -65 59 -65q15 0 30 5v-77z" />
    <glyph glyph-name="afii61352" unicode="&#x2116;" horiz-adv-x="983" 
d="M937 336q0 -82 -40 -136t-115 -54t-115 54t-40 136t40 136t115 54t115 -54t40 -136zM927 0h-290v70h290v-70zM549 0h-102l-238 450q-20 38 -34 73h-2q4 -37 4 -82v-441h-106v688h120l222 -422q20 -38 32 -72h2q-4 37 -4 80v414h106v-688zM851 338q0 130 -69 130t-69 -130
q0 -131 69 -131t69 131z" />
    <glyph glyph-name="uni2117" unicode="&#x2117;" horiz-adv-x="814" 
d="M764 344q0 -147 -104.5 -251t-252.5 -104t-252.5 104t-104.5 251t104.5 251t252.5 104t252.5 -104t104.5 -251zM691 345q0 122 -83 209t-201 87t-201 -87t-83 -209t83 -209t201 -87t201 87t83 209zM552 428q0 -53 -34.5 -87t-102.5 -34q-27 0 -42 3v-158h-69v374
q42 21 106 21q71 0 106.5 -32.5t35.5 -86.5zM483 428q0 78 -74 78q-20 0 -36 -6v-148q24 -3 31 -3q79 0 79 79z" />
    <glyph glyph-name="trademark" unicode="&#x2122;" horiz-adv-x="786" 
d="M740 288h-79l-24 255q-3 42 -3 46h-2q-5 -26 -11 -46l-78 -255h-47l-77 255q-6 19 -11 46h-2q0 -11 -3 -46l-26 -255h-70l47 400h84l74 -244q6 -20 11 -51h2q3 28 10 51l73 244h85zM285 631h-86v-343h-83v343h-86v57h255v-57z" />
    <glyph glyph-name="Omega" unicode="&#x2126;" horiz-adv-x="628" 
d="M580 0h-231v85q102 127 102 299q0 94 -35 161t-102 67t-102.5 -67.5t-35.5 -160.5q0 -172 102 -299v-85h-230v85h126q-125 145 -125 307q0 128 69.5 217.5t195.5 89.5t195 -89.5t69 -217.5q0 -163 -124 -307h126v-85z" />
    <glyph glyph-name="estimated" unicode="&#x212e;" horiz-adv-x="878" 
d="M838 330h-633q5 -150 80 -224t184 -74q88 0 168.5 44.5t119.5 118.5l36 -23q-47 -84 -137 -134t-217 -50q-96 0 -174 30.5t-126 81.5t-73.5 113.5t-25.5 130.5t25.5 130.5t73.5 113.5t126 81.5t174 30.5t174 -30.5t126 -81.5t73.5 -113.5t25.5 -130.5v-14zM672 371
q-8 138 -76 214.5t-157 76.5t-157 -76.5t-76 -214.5h466z" />
    <glyph glyph-name="uni2150" unicode="&#x2150;" horiz-adv-x="842" 
d="M802 412l-55 -127q-78 -179 -103 -285h-105l158 345h-177v67h282zM579 674l-309 -689l-64 29l309 690zM258 276h-90v322q-38 -18 -103 -22l-11 50q105 13 140 62h64v-412z" />
    <glyph glyph-name="uni2151" unicode="&#x2151;" horiz-adv-x="842" 
d="M797 260q0 -106 -66.5 -176t-171.5 -91l-17 57q117 33 156 119q-22 -8 -48 -8q-66 0 -104 33.5t-38 91.5q0 57 38.5 95.5t104.5 38.5q71 0 108.5 -43t37.5 -117zM587 674l-310 -689l-64 29l310 690zM258 276h-90v322q-38 -18 -103 -22l-11 50q105 13 140 62h64v-412z
M715 264q0 103 -65 103q-29 0 -44 -22.5t-15 -57.5q0 -81 77 -81q24 0 42 7q5 21 5 51z" />
    <glyph glyph-name="uni2152" unicode="&#x2152;" horiz-adv-x="1140" 
d="M1094 206q0 -91 -36 -152.5t-109 -61.5t-108.5 61.5t-35.5 152.5t35.5 152.5t108.5 61.5t109 -61.5t36 -152.5zM716 0h-90v322q-38 -18 -103 -22l-11 50q104 13 139 62h65v-412zM588 674l-310 -689l-64 29l310 690zM258 276h-90v322q-38 -18 -103 -22l-11 50
q105 13 140 62h64v-412zM1009 208q0 158 -60 158t-60 -158t60 -158t60 158z" />
    <glyph glyph-name="onethird" unicode="&#x2153;" horiz-adv-x="842" 
d="M794 122q0 -58 -44.5 -94t-114.5 -36q-75 0 -121 23l23 57q32 -17 84 -17q38 0 59.5 18.5t21.5 50.5q0 71 -101 71h-10v44q46 4 72.5 23t26.5 48q0 50 -63 50q-43 0 -81 -16l-20 53q51 23 115 23q62 0 98.5 -26t36.5 -73q0 -61 -70 -89v-2q88 -27 88 -108zM585 674
l-309 -689l-64 29l309 690zM258 276h-90v322q-38 -18 -103 -22l-11 50q105 13 140 62h64v-412z" />
    <glyph glyph-name="twothirds" unicode="&#x2154;" horiz-adv-x="842" 
d="M794 122q0 -58 -44.5 -94t-114.5 -36q-75 0 -121 23l23 57q32 -17 84 -17q38 0 59.5 18.5t21.5 50.5q0 71 -101 71h-10v44q46 4 72.5 23t26.5 48q0 50 -63 50q-40 0 -78 -16l-21 53q51 23 113 23t98.5 -26t36.5 -73q0 -61 -70 -89v-2q88 -27 88 -108zM606 674l-310 -689
l-64 29l310 690zM298 276h-280l153 215q32 46 32 81q0 63 -74 63q-38 0 -76 -17l-21 54q50 24 116 24q73 0 109.5 -31.5t36.5 -83.5q0 -48 -55 -117l-95 -120h154v-68z" />
    <glyph glyph-name="uni2155" unicode="&#x2155;" horiz-adv-x="842" 
d="M794 122q0 -55 -44 -92.5t-114 -37.5q-76 0 -122 23l24 57q34 -18 84 -18q37 0 58.5 19.5t21.5 48.5q0 75 -102 75q-32 0 -63 -4l25 219h215v-67h-154l-11 -100q11 1 23 1q78 0 118.5 -33.5t40.5 -90.5zM596 674l-309 -689l-64 29l309 690zM258 276h-90v322
q-38 -18 -103 -22l-11 50q105 13 140 62h64v-412z" />
    <glyph glyph-name="uni2156" unicode="&#x2156;" horiz-adv-x="842" 
d="M794 122q0 -55 -44 -92.5t-114 -37.5q-76 0 -122 23l24 57q34 -18 84 -18q37 0 58.5 19.5t21.5 48.5q0 75 -102 75q-32 0 -63 -4l25 219h215v-67h-154l-11 -100q11 1 23 1q78 0 118.5 -33.5t40.5 -90.5zM615 674l-309 -689l-64 29l309 690zM299 276h-281l154 215
q32 44 32 81q0 63 -74 63q-39 0 -77 -17l-21 54q50 24 117 24q73 0 109.5 -31.5t36.5 -83.5q0 -47 -56 -117l-94 -120h154v-68z" />
    <glyph glyph-name="uni2157" unicode="&#x2157;" horiz-adv-x="842" 
d="M794 122q0 -55 -44 -92.5t-114 -37.5q-76 0 -122 23l24 57q34 -18 84 -18q37 0 58.5 19.5t21.5 48.5q0 75 -102 75q-32 0 -63 -4l25 219h215v-67h-154l-11 -100q13 1 23 1q78 0 118.5 -33.5t40.5 -90.5zM601 674l-309 -689l-64 29l309 690zM308 398q0 -58 -44.5 -94
t-114.5 -36q-75 0 -121 23l23 57q32 -17 84 -17q38 0 59.5 18.5t21.5 50.5q0 71 -101 71h-11v44q46 4 73 23t27 48q0 50 -64 50q-42 0 -80 -16l-20 53q51 23 115 23q62 0 98.5 -26t36.5 -73q0 -61 -71 -89v-2q89 -27 89 -108z" />
    <glyph glyph-name="uni2158" unicode="&#x2158;" horiz-adv-x="842" 
d="M794 122q0 -55 -44 -92.5t-114 -37.5q-76 0 -122 23l24 57q34 -18 84 -18q37 0 58.5 19.5t21.5 48.5q0 75 -102 75q-32 0 -63 -4l25 219h215v-67h-154l-11 -100q13 1 23 1q78 0 118.5 -33.5t40.5 -90.5zM612 674l-309 -689l-64 29l309 690zM321 362h-35v-86h-81v86h-173
v49l170 277h84v-279h35v-47zM208 612h-2q-9 -26 -29 -59l-86 -144h115v141q0 30 2 62z" />
    <glyph glyph-name="uni2159" unicode="&#x2159;" horiz-adv-x="842" 
d="M793 126q0 -57 -37.5 -95.5t-105.5 -38.5q-70 0 -107.5 43t-37.5 117q0 106 66 176t171 91l17 -56q-115 -30 -155 -120q22 8 47 8q66 0 104 -33.5t38 -91.5zM603 674l-309 -689l-64 29l309 690zM258 276h-90v322q-38 -18 -103 -22l-11 50q105 13 140 62h64v-412zM710 126
q0 82 -77 82q-21 0 -42 -8q-4 -17 -4 -51q0 -103 64 -103q29 0 44 22.5t15 57.5z" />
    <glyph glyph-name="uni215A" unicode="&#x215a;" horiz-adv-x="842" 
d="M793 126q0 -57 -37.5 -95.5t-105.5 -38.5q-70 0 -107.5 43t-37.5 117q0 106 66 176t171 91l17 -56q-115 -30 -155 -120q22 8 47 8q66 0 104 -33.5t38 -91.5zM615 674l-309 -689l-64 29l309 690zM309 398q0 -55 -44.5 -92.5t-114.5 -37.5q-75 0 -121 23l23 57
q34 -18 85 -18q37 0 58.5 19.5t21.5 48.5q0 75 -103 75q-31 0 -62 -4l25 219h214v-67h-153l-11 -100q14 1 23 1q78 0 118.5 -33.5t40.5 -90.5zM710 126q0 82 -77 82q-21 0 -42 -8q-4 -17 -4 -51q0 -103 64 -103q29 0 44 22.5t15 57.5z" />
    <glyph glyph-name="oneeighth" unicode="&#x215b;" horiz-adv-x="842" 
d="M795 101q0 -49 -40.5 -79t-104.5 -30q-62 0 -103 28.5t-41 79.5q0 39 23 64.5t66 49.5q-37 22 -57 45.5t-20 57.5q0 45 37.5 74t94.5 29t95 -28.5t38 -73.5q0 -34 -19.5 -57t-57.5 -44q43 -25 66 -51t23 -65zM589 674l-309 -689l-64 29l309 690zM258 276h-90v322
q-38 -18 -103 -22l-11 50q105 13 140 62h64v-412zM712 318q0 24 -17 39t-43 15q-27 0 -43 -14.5t-16 -38.5t14 -39.5t46 -34.5q31 18 45 34t14 39zM715 101q0 28 -16 47t-50 39q-34 -19 -50 -37.5t-16 -46.5q0 -25 20 -42t47 -17q29 0 47 16t18 41z" />
    <glyph glyph-name="threeeighths" unicode="&#x215c;" horiz-adv-x="842" 
d="M795 101q0 -49 -40.5 -79t-104.5 -30q-62 0 -103 28.5t-41 79.5q0 39 23 64.5t66 49.5q-37 22 -57 45.5t-20 57.5q0 45 37.5 74t94.5 29t95 -28.5t38 -73.5q0 -34 -19.5 -57t-57.5 -44q43 -25 66 -51t23 -65zM595 674l-309 -689l-64 29l309 690zM308 398q0 -58 -44.5 -94
t-114.5 -36q-75 0 -121 23l23 57q32 -17 84 -17q38 0 59.5 18.5t21.5 50.5q0 71 -101 71h-11v44q46 4 73 23t27 48q0 50 -64 50q-42 0 -80 -16l-20 53q51 23 115 23q62 0 98.5 -26t36.5 -73q0 -61 -71 -89v-2q89 -27 89 -108zM712 318q0 24 -17 39t-43 15q-27 0 -43 -14.5
t-16 -38.5t14 -39.5t46 -34.5q31 18 45 34t14 39zM715 101q0 28 -16 47t-50 39q-34 -19 -50 -37.5t-16 -46.5q0 -25 20 -42t47 -17q29 0 47 16t18 41z" />
    <glyph glyph-name="fiveeighths" unicode="&#x215d;" horiz-adv-x="842" 
d="M795 101q0 -49 -40.5 -79t-104.5 -30q-62 0 -103 28.5t-41 79.5q0 39 23 64.5t66 49.5q-37 22 -57 45.5t-20 57.5q0 45 37.5 74t94.5 29t95 -28.5t38 -73.5q0 -34 -19.5 -57t-57.5 -44q43 -25 66 -51t23 -65zM597 674l-309 -689l-64 29l309 690zM309 398
q0 -55 -44.5 -92.5t-114.5 -37.5q-75 0 -121 23l23 57q34 -18 85 -18q37 0 58.5 19.5t21.5 48.5q0 75 -103 75q-31 0 -62 -4l25 219h214v-67h-153l-11 -100q14 1 23 1q78 0 118.5 -33.5t40.5 -90.5zM712 318q0 24 -17 39t-43 15q-27 0 -43 -14.5t-16 -38.5t14 -39.5
t46 -34.5q31 18 45 34t14 39zM715 101q0 28 -16 47t-50 39q-34 -19 -50 -37.5t-16 -46.5q0 -25 20 -42t47 -17q29 0 47 16t18 41z" />
    <glyph glyph-name="seveneighths" unicode="&#x215e;" horiz-adv-x="842" 
d="M795 101q0 -49 -40.5 -79t-104.5 -30q-62 0 -103 28.5t-41 79.5q0 39 23 64.5t66 49.5q-37 22 -57 45.5t-20 57.5q0 45 37.5 74t94.5 29t95 -28.5t38 -73.5q0 -34 -19.5 -57t-57.5 -44q43 -25 66 -51t23 -65zM563 674l-309 -689l-64 29l309 690zM336 688l-55 -127
q-78 -179 -103 -285h-105l158 345h-186v67h291zM712 318q0 24 -17 39t-43 15q-27 0 -43 -14.5t-16 -38.5t14 -39.5t46 -34.5q31 18 45 34t14 39zM715 101q0 28 -16 47t-50 39q-34 -19 -50 -37.5t-16 -46.5q0 -25 20 -42t47 -17q29 0 47 16t18 41z" />
    <glyph glyph-name="uni215F" unicode="&#x215f;" horiz-adv-x="474" 
d="M590 674l-310 -689l-64 29l310 690zM258 276h-90v322q-38 -18 -103 -22l-11 50q105 13 140 62h64v-412z" />
    <glyph glyph-name="uni2189" unicode="&#x2189;" horiz-adv-x="842" 
d="M800 122q0 -58 -44.5 -94t-114.5 -36q-75 0 -121 23l23 57q32 -17 84 -17q38 0 59.5 18.5t21.5 50.5q0 71 -101 71h-10v44q46 4 72.5 23t26.5 48q0 50 -63 50q-40 0 -77 -16l-20 54q50 22 111 22q62 0 98.5 -26t36.5 -73q0 -61 -70 -89v-2q88 -27 88 -108zM608 674
l-310 -689l-64 29l310 690zM331 482q0 -91 -35.5 -152.5t-108.5 -61.5t-109 61.5t-36 152.5t36 152.5t109 61.5t108.5 -61.5t35.5 -152.5zM247 484q0 158 -60 158t-60 -158t60 -158t60 158z" />
    <glyph glyph-name="arrowleft" unicode="&#x2190;" horiz-adv-x="940" 
d="M944 288h-719l179 -179l-60 -59l-280 280l280 280l60 -60l-179 -178h719v-84z" />
    <glyph glyph-name="arrowup" unicode="&#x2191;" horiz-adv-x="696" 
d="M632 511l-58 -59l-180 180v-632h-92v632l-180 -180l-58 59l284 284z" />
    <glyph glyph-name="arrowright" unicode="&#x2192;" horiz-adv-x="940" 
d="M876 330l-280 -280l-60 59l179 179h-719v84h719l-179 178l60 60z" />
    <glyph glyph-name="arrowdown" unicode="&#x2193;" horiz-adv-x="696" 
d="M632 274l-284 -284l-284 284l58 59l180 -180v632h92v-632l180 180z" />
    <glyph glyph-name="arrowboth" unicode="&#x2194;" horiz-adv-x="1200" 
d="M1136 330l-280 -280l-60 59l179 179h-750l179 -179l-60 -59l-280 280l280 280l60 -60l-179 -178h750l-179 178l60 60z" />
    <glyph glyph-name="uni2196" unicode="&#x2196;" horiz-adv-x="696" 
d="M656 171l-64 -64l-431 430v-253h-86v404h389v-80h-246z" />
    <glyph glyph-name="uni2197" unicode="&#x2197;" horiz-adv-x="696" 
d="M621 284h-86v253l-431 -430l-64 64l438 437h-246v80h389v-404z" />
    <glyph glyph-name="uni2198" unicode="&#x2198;" horiz-adv-x="696" 
d="M621 0h-389v80h246l-438 437l64 64l431 -430v253h86v-404z" />
    <glyph glyph-name="uni2199" unicode="&#x2199;" horiz-adv-x="696" 
d="M656 517l-438 -437h246v-80h-389v404h86v-253l431 430z" />
    <glyph glyph-name="carriagereturn" unicode="&#x21b5;" horiz-adv-x="940" 
d="M862 0h-643l166 -166l-60 -59l-267 267l267 267l60 -59l-166 -166h550v252h-181v84h274v-420z" />
    <glyph glyph-name="uni21E6" unicode="&#x21e6;" horiz-adv-x="880" 
d="M806 158l-387 39v-197h-53l-344 344l344 344h53v-197l387 39v-372zM729 242v204l-383 -36v150l-215 -216l215 -216v150z" />
    <glyph glyph-name="uni21E7" unicode="&#x21e7;" horiz-adv-x="782" 
d="M736 387h-196l43 -387h-384l43 387h-196v52l345 345l345 -345v-52zM611 455l-220 220l-220 -220h155l-35 -382h200l-35 382h155z" />
    <glyph glyph-name="uni21E8" unicode="&#x21e8;" horiz-adv-x="880" 
d="M858 344l-344 -344h-53v197l-387 -39v372l387 -39v197h53zM749 344l-215 216v-150l-383 36v-204l383 36v-150z" />
    <glyph glyph-name="uni21E9" unicode="&#x21e9;" horiz-adv-x="782" 
d="M736 249l-345 -345l-345 345v52h196l-43 387h384l-43 -387h196v-52zM611 233h-155l35 382h-200l35 -382h-155l220 -220z" />
    <glyph glyph-name="partialdiff" unicode="&#x2202;" 
d="M495 253q0 -122 -59 -193t-167 -71q-106 0 -163 63t-57 156q0 97 60 153t164 56q45 0 82 -14q-64 155 -255 213l25 82q166 -38 268 -154.5t102 -290.5zM380 250q0 47 -8 88q-36 14 -75 14q-132 0 -132 -142q0 -61 26 -100.5t77 -39.5q56 0 84 47.5t28 132.5z" />
    <glyph glyph-name="Delta" unicode="&#x2206;" horiz-adv-x="608" 
d="M596 0h-584l227 688h129zM443 76l-124 421q-12 41 -18 88h-2q-9 -50 -20 -88l-126 -421h290z" />
    <glyph glyph-name="product" unicode="&#x220f;" horiz-adv-x="744" 
d="M700 603h-93v-818h-127v818h-216v-818h-127v818h-93v85h656v-85z" />
    <glyph glyph-name="summation" unicode="&#x2211;" 
d="M496 -215h-456l239 471l-236 432h447v-93h-268l187 -339l-192 -373h279v-98z" />
    <glyph glyph-name="minus" unicode="&#x2212;" horiz-adv-x="526" 
d="M468 288h-410v84h410v-84z" />
    <glyph glyph-name="uni2219" unicode="&#x2219;" horiz-adv-x="526" 
d="M381 359q0 -49 -34.5 -83.5t-83.5 -34.5t-83.5 34.5t-34.5 83.5t34.5 83.5t83.5 34.5t83.5 -34.5t34.5 -83.5z" />
    <glyph glyph-name="radical" unicode="&#x221a;" 
d="M524 785l-179 -785h-109l-132 428h-82v72h172l92 -354h2l128 639h108z" />
    <glyph glyph-name="infinity" unicode="&#x221e;" horiz-adv-x="750" 
d="M700 340q0 -80 -44 -133t-116 -53q-54 0 -92.5 30.5t-73.5 86.5q-37 -58 -72.5 -87.5t-89.5 -29.5q-73 0 -117.5 52.5t-44.5 133.5q0 80 45 133t117 53q53 0 90 -30.5t74 -87.5q35 57 71.5 87.5t90.5 30.5q72 0 117 -53.5t45 -132.5zM626 341q0 44 -24 72t-64 28
q-36 0 -61 -24t-55 -73q32 -53 57 -77.5t60 -24.5q40 0 63.5 27t23.5 72zM328 336q-30 51 -55.5 76t-61.5 25q-40 0 -64 -27.5t-24 -71.5t24.5 -72t63.5 -28q36 0 61.5 24.5t55.5 73.5z" />
    <glyph glyph-name="integral" unicode="&#x222b;" horiz-adv-x="408" 
d="M376 778l-15 -77q-20 6 -41 6q-84 0 -84 -106v-626q0 -92 -50 -143t-135 -51q-46 0 -77 11l15 81q20 -6 41 -6q85 0 85 106v622q0 92 49.5 143.5t134.5 51.5q43 0 77 -12z" />
    <glyph glyph-name="approxequal" unicode="&#x2248;" horiz-adv-x="526" 
d="M468 401q-41 -46 -110 -46q-34 0 -95.5 31t-95.5 31q-67 0 -109 -47v87q38 45 109 45q35 0 96 -30.5t95 -30.5q71 0 110 47v-87zM468 203q-41 -46 -110 -46q-34 0 -95.5 30.5t-95.5 30.5q-68 0 -109 -46v87q37 44 109 44q35 0 96 -30.5t95 -30.5q71 0 110 48v-87z" />
    <glyph glyph-name="notequal" unicode="&#x2260;" horiz-adv-x="526" 
d="M468 188h-232l-51 -120l-53 24l40 96h-114v84h149l48 115h-197v84h232l50 117l53 -24l-39 -93h114v-84h-150l-47 -115h197v-84z" />
    <glyph glyph-name="lessequal" unicode="&#x2264;" horiz-adv-x="526" 
d="M468 156l-410 165v71l410 166v-87l-303 -113v-2l303 -113v-87zM468 0h-410v78h410v-78z" />
    <glyph glyph-name="greaterequal" unicode="&#x2265;" horiz-adv-x="526" 
d="M468 321l-410 -165v87l303 113v2l-303 113v87l410 -166v-71zM468 0h-410v78h410v-78z" />
    <glyph glyph-name="dotmath" unicode="&#x22c5;" horiz-adv-x="526" 
d="M336 330q0 -30 -21.5 -51.5t-51.5 -21.5t-51.5 21.5t-21.5 51.5t21.5 51.5t51.5 21.5t51.5 -21.5t21.5 -51.5z" />
    <glyph glyph-name="uni2300" unicode="&#x2300;" horiz-adv-x="850" 
d="M808 666l-103 -102q78 -96 78 -220q0 -147 -105 -251t-253 -104q-122 0 -219 76l-103 -103l-61 60l103 102q-78 96 -78 220q0 147 105 251t253 104q122 0 219 -76l103 104zM582 562q-68 54 -157 54q-111 0 -190 -80t-79 -192q0 -88 52 -156zM694 344q0 87 -53 156
l-374 -374q68 -54 158 -54q111 0 190 80t79 192z" />
    <glyph glyph-name="uni2318" unicode="&#x2318;" horiz-adv-x="860" 
d="M801 125q0 -58 -42.5 -97t-104.5 -39q-74 0 -114 42t-40 116v63h-140v-63q0 -74 -40 -116t-114 -42q-62 0 -104.5 39t-42.5 97q0 65 45 103.5t125 38.5h56v154h-56q-80 0 -125 38.5t-45 103.5q0 58 42.5 97t104.5 39q74 0 114 -42t40 -116v-63h140v63q0 74 40 116t114 42
q62 0 104.5 -39t42.5 -97q0 -65 -45 -103.5t-125 -38.5h-56v-154h56q80 0 125 -38.5t45 -103.5zM726 563q0 34 -20.5 57.5t-51.5 23.5q-38 0 -58.5 -27.5t-20.5 -75.5v-63h58q45 0 69 23t24 62zM726 125q0 39 -24 62t-69 23h-58v-63q0 -48 20.5 -75.5t58.5 -27.5
q31 0 51.5 23.5t20.5 57.5zM500 267v154h-140v-154h140zM285 478v63q0 48 -20.5 75.5t-58.5 27.5q-31 0 -51.5 -23.5t-20.5 -57.5q0 -39 24 -62t69 -23h58zM285 147v63h-58q-45 0 -69 -23t-24 -62q0 -34 20.5 -57.5t51.5 -23.5q38 0 58.5 27.5t20.5 75.5z" />
    <glyph glyph-name="uni2324" unicode="&#x2324;" horiz-adv-x="800" 
d="M728 604h-656v84h656v-84zM678 325l-61 -61l-217 216l-217 -216l-61 61l278 278z" />
    <glyph glyph-name="uni2325" unicode="&#x2325;" horiz-adv-x="860" 
d="M798 336h-366v84h366v-84zM798 0h-417l-153 336h-166v84h230l153 -336h353v-84z" />
    <glyph glyph-name="uni2326" unicode="&#x2326;" horiz-adv-x="1160" 
d="M1108 344l-344 -344h-686v688h686zM998 344l-271 270h-567v-540h567zM696 190l-54 -54l-155 156l-155 -156l-54 54l155 155l-155 155l54 55l155 -156l155 156l54 -55l-155 -155z" />
    <glyph glyph-name="uni232B" unicode="&#x232b;" horiz-adv-x="1160" 
d="M1082 0h-686l-344 344l344 344h686v-688zM1000 74v540h-567l-271 -270l271 -270h567zM882 190l-54 -54l-155 156l-155 -156l-54 54l155 155l-155 155l54 55l155 -156l155 156l54 -55l-155 -155z" />
    <glyph glyph-name="uni2460" unicode="&#x2460;" horiz-adv-x="910" 
d="M857 392q0 -166 -117.5 -284t-284.5 -118t-284.5 118t-117.5 284t117.5 284t284.5 118t284.5 -118t117.5 -284zM788 393q0 143 -97.5 243.5t-235.5 100.5t-235.5 -100.5t-97.5 -243.5t97.5 -243.5t235.5 -100.5t235.5 100.5t97.5 243.5zM516 192h-83v323q-37 -18 -99 -22
l-10 49q100 13 134 62h58v-412z" />
    <glyph glyph-name="uni2461" unicode="&#x2461;" horiz-adv-x="910" 
d="M857 392q0 -166 -117.5 -284t-284.5 -118t-284.5 118t-117.5 284t117.5 284t284.5 118t284.5 -118t117.5 -284zM788 393q0 143 -97.5 243.5t-235.5 100.5t-235.5 -100.5t-97.5 -243.5t97.5 -243.5t235.5 -100.5t235.5 100.5t97.5 243.5zM589 192h-268l148 215
q31 44 31 83q0 62 -72 62q-38 0 -74 -17l-20 52q46 24 111 24q71 0 105.5 -31t34.5 -83q0 -45 -54 -117l-92 -121h150v-67z" />
    <glyph glyph-name="uni2462" unicode="&#x2462;" horiz-adv-x="910" 
d="M857 392q0 -166 -117.5 -284t-284.5 -118t-284.5 118t-117.5 284t117.5 284t284.5 118t284.5 -118t117.5 -284zM788 393q0 143 -97.5 243.5t-235.5 100.5t-235.5 -100.5t-97.5 -243.5t97.5 -243.5t235.5 -100.5t235.5 100.5t97.5 243.5zM603 315q0 -58 -42 -94t-108 -36
q-73 0 -117 23l22 55q31 -17 81 -17q36 0 57.5 18t21.5 51q0 36 -26.5 54t-70.5 18h-11v44q45 4 70.5 23.5t25.5 48.5q0 50 -61 50q-41 0 -78 -16l-20 51q48 23 111 23q58 0 93 -26t35 -72q0 -32 -20 -55t-48 -34v-2q85 -27 85 -107z" />
    <glyph glyph-name="uni2463" unicode="&#x2463;" horiz-adv-x="910" 
d="M857 392q0 -166 -117.5 -284t-284.5 -118t-284.5 118t-117.5 284t117.5 284t284.5 118t284.5 -118t117.5 -284zM788 393q0 143 -97.5 243.5t-235.5 100.5t-235.5 -100.5t-97.5 -243.5t97.5 -243.5t235.5 -100.5t235.5 100.5t97.5 243.5zM585 278h-46v-86h-75v86h-166v49
l163 277h78v-280h46v-46zM467 528h-2q-10 -29 -28 -59l-85 -145h113v142q0 26 2 62z" />
    <glyph glyph-name="uni2464" unicode="&#x2464;" horiz-adv-x="910" 
d="M857 392q0 -166 -117.5 -284t-284.5 -118t-284.5 118t-117.5 284t117.5 284t284.5 118t284.5 -118t117.5 -284zM788 393q0 143 -97.5 243.5t-235.5 100.5t-235.5 -100.5t-97.5 -243.5t97.5 -243.5t235.5 -100.5t235.5 100.5t97.5 243.5zM590 314q0 -55 -42 -92t-108 -37
q-72 0 -116 23l22 55q33 -18 81 -18q36 0 57 20t21 50q0 76 -99 76q-31 0 -60 -4l24 217h204v-66h-147l-11 -101q16 2 23 2q74 0 112.5 -34t38.5 -91z" />
    <glyph glyph-name="uni2465" unicode="&#x2465;" horiz-adv-x="910" 
d="M857 392q0 -166 -117.5 -284t-284.5 -118t-284.5 118t-117.5 284t117.5 284t284.5 118t284.5 -118t117.5 -284zM788 393q0 143 -97.5 243.5t-235.5 100.5t-235.5 -100.5t-97.5 -243.5t97.5 -243.5t235.5 -100.5t235.5 100.5t97.5 243.5zM587 318q0 -57 -35.5 -95
t-100.5 -38q-67 0 -102.5 43t-35.5 116q0 105 63.5 175t162.5 91l16 -54q-109 -31 -149 -121q22 8 46 8q63 0 99 -33.5t36 -91.5zM511 319q0 81 -76 81q-20 0 -41 -8q-5 -21 -5 -51q0 -102 63 -102q29 0 44 22.5t15 57.5z" />
    <glyph glyph-name="uni2466" unicode="&#x2466;" horiz-adv-x="910" 
d="M857 392q0 -166 -117.5 -284t-284.5 -118t-284.5 118t-117.5 284t117.5 284t284.5 118t284.5 -118t117.5 -284zM788 393q0 143 -97.5 243.5t-235.5 100.5t-235.5 -100.5t-97.5 -243.5t97.5 -243.5t235.5 -100.5t235.5 100.5t97.5 243.5zM600 604l-53 -127
q-73 -174 -99 -285h-99l153 345h-177v67h275z" />
    <glyph glyph-name="uni2467" unicode="&#x2467;" horiz-adv-x="910" 
d="M857 392q0 -166 -117.5 -284t-284.5 -118t-284.5 118t-117.5 284t117.5 284t284.5 118t284.5 -118t117.5 -284zM788 393q0 143 -97.5 243.5t-235.5 100.5t-235.5 -100.5t-97.5 -243.5t97.5 -243.5t235.5 -100.5t235.5 100.5t97.5 243.5zM593 293q0 -48 -38.5 -78
t-99.5 -30q-59 0 -98 28.5t-39 79.5q0 39 22 63.5t64 49.5q-36 22 -55 45.5t-19 57.5q0 45 35.5 73.5t89.5 28.5q55 0 90.5 -28t35.5 -73q0 -34 -19 -56.5t-55 -44.5q41 -24 63.5 -50.5t22.5 -65.5zM515 510q0 24 -16.5 39t-41.5 15q-26 0 -42 -15t-16 -39t13.5 -39
t45.5 -35q29 18 43 34.5t14 39.5zM518 294q0 28 -15.5 46.5t-48.5 38.5q-33 -19 -49 -38t-16 -46q0 -25 19 -41.5t46 -16.5q28 0 46 16t18 41z" />
    <glyph glyph-name="uni2468" unicode="&#x2468;" horiz-adv-x="910" 
d="M857 392q0 -166 -117.5 -284t-284.5 -118t-284.5 118t-117.5 284t117.5 284t284.5 118t284.5 -118t117.5 -284zM788 393q0 143 -97.5 243.5t-235.5 100.5t-235.5 -100.5t-97.5 -243.5t97.5 -243.5t235.5 -100.5t235.5 100.5t97.5 243.5zM595 452q0 -105 -63 -175
t-162 -91l-17 54q111 31 150 121q-22 -8 -46 -8q-63 0 -99.5 33.5t-36.5 91.5q0 57 35.5 95t100.5 38q67 0 102.5 -43t35.5 -116zM519 456q0 103 -63 103q-29 0 -43.5 -22.5t-14.5 -57.5q0 -81 75 -81q24 0 42 7q4 17 4 51z" />
    <glyph glyph-name="uni2469" unicode="&#x2469;" horiz-adv-x="1172" 
d="M1119 392q0 -166 -117.5 -284t-284.5 -118h-262q-167 0 -284.5 118t-117.5 284t117.5 284t284.5 118h262q167 0 284.5 -118t117.5 -284zM1050 393q0 143 -97.5 243.5t-235.5 100.5h-262q-138 0 -235.5 -100.5t-97.5 -243.5t97.5 -243.5t235.5 -100.5h262
q138 0 235.5 100.5t97.5 243.5zM866 398q0 -91 -34 -152t-103 -61t-103 61t-34 152t34 152t103 61t103 -61t34 -152zM490 192h-83v323q-37 -18 -99 -22l-10 49q100 13 134 62h58v-412zM788 399q0 159 -59 159q-58 0 -58 -159q0 -158 58 -158q59 0 59 158z" />
    <glyph glyph-name="uni246A" unicode="&#x246a;" horiz-adv-x="1172" 
d="M1119 392q0 -166 -117.5 -284t-284.5 -118h-262q-167 0 -284.5 118t-117.5 284t117.5 284t284.5 118h262q167 0 284.5 -118t117.5 -284zM1050 393q0 143 -97.5 243.5t-235.5 100.5h-262q-138 0 -235.5 -100.5t-97.5 -243.5t97.5 -243.5t235.5 -100.5h262
q138 0 235.5 100.5t97.5 243.5zM792 192h-82v323q-37 -18 -99 -22l-11 49q100 13 134 62h58v-412zM511 192h-83v323q-37 -18 -99 -22l-10 49q100 13 134 62h58v-412z" />
    <glyph glyph-name="uni246B" unicode="&#x246b;" horiz-adv-x="1172" 
d="M1119 392q0 -166 -117.5 -284t-284.5 -118h-262q-167 0 -284.5 118t-117.5 284t117.5 284t284.5 118h262q167 0 284.5 -118t117.5 -284zM1050 393q0 143 -97.5 243.5t-235.5 100.5h-262q-138 0 -235.5 -100.5t-97.5 -243.5t97.5 -243.5t235.5 -100.5h262
q138 0 235.5 100.5t97.5 243.5zM842 192h-268l149 215q31 44 31 83q0 62 -73 62q-38 0 -74 -17l-19 52q46 24 111 24q71 0 105.5 -31t34.5 -83q0 -45 -54 -117l-92 -121h149v-67zM494 192h-83v323q-37 -18 -99 -22l-11 49q100 13 134 62h59v-412z" />
    <glyph glyph-name="uni246C" unicode="&#x246c;" horiz-adv-x="1172" 
d="M1119 392q0 -166 -117.5 -284t-284.5 -118h-262q-167 0 -284.5 118t-117.5 284t117.5 284t284.5 118h262q167 0 284.5 -118t117.5 -284zM1050 393q0 143 -97.5 243.5t-235.5 100.5h-262q-138 0 -235.5 -100.5t-97.5 -243.5t97.5 -243.5t235.5 -100.5h262
q138 0 235.5 100.5t97.5 243.5zM844 315q0 -58 -42 -94t-108 -36q-73 0 -117 23l22 55q31 -17 81 -17q36 0 57.5 18t21.5 51q0 36 -26.5 54t-70.5 18h-11v44q45 4 70.5 23.5t25.5 48.5q0 50 -61 50q-41 0 -78 -16l-20 51q48 23 111 23q58 0 93 -26t35 -72q0 -32 -20 -55
t-48 -34v-2q85 -27 85 -107zM494 192h-83v323q-37 -18 -99 -22l-11 49q100 13 134 62h59v-412z" />
    <glyph glyph-name="uni246D" unicode="&#x246d;" horiz-adv-x="1172" 
d="M1119 392q0 -166 -117.5 -284t-284.5 -118h-262q-167 0 -284.5 118t-117.5 284t117.5 284t284.5 118h262q167 0 284.5 -118t117.5 -284zM1050 393q0 143 -97.5 243.5t-235.5 100.5h-262q-138 0 -235.5 -100.5t-97.5 -243.5t97.5 -243.5t235.5 -100.5h262
q138 0 235.5 100.5t97.5 243.5zM859 278h-42v-86h-75v86h-166v49l163 277h78v-280h42v-46zM489 192h-83v323q-37 -18 -99 -22l-10 49q100 13 134 62h58v-412zM745 528h-2q-11 -30 -28 -59l-85 -145h112v142q0 23 3 62z" />
    <glyph glyph-name="uni246E" unicode="&#x246e;" horiz-adv-x="1172" 
d="M1119 392q0 -166 -117.5 -284t-284.5 -118h-262q-167 0 -284.5 118t-117.5 284t117.5 284t284.5 118h262q167 0 284.5 -118t117.5 -284zM1050 393q0 143 -97.5 243.5t-235.5 100.5h-262q-138 0 -235.5 -100.5t-97.5 -243.5t97.5 -243.5t235.5 -100.5h262
q138 0 235.5 100.5t97.5 243.5zM841 314q0 -55 -42 -92t-109 -37q-72 0 -116 23l23 55q33 -18 80 -18q36 0 57.5 20t21.5 50q0 76 -100 76q-31 0 -60 -4l25 217h204v-66h-148l-11 -101q13 2 23 2q74 0 113 -34t39 -91zM490 192h-83v323q-37 -18 -99 -22l-11 49
q100 13 134 62h59v-412z" />
    <glyph glyph-name="uni246F" unicode="&#x246f;" horiz-adv-x="1172" 
d="M1119 392q0 -166 -117.5 -284t-284.5 -118h-262q-167 0 -284.5 118t-117.5 284t117.5 284t284.5 118h262q167 0 284.5 -118t117.5 -284zM1050 393q0 143 -97.5 243.5t-235.5 100.5h-262q-138 0 -235.5 -100.5t-97.5 -243.5t97.5 -243.5t235.5 -100.5h262
q138 0 235.5 100.5t97.5 243.5zM855 318q0 -57 -35.5 -95t-100.5 -38q-67 0 -102.5 43t-35.5 116q0 105 63.5 175t162.5 91l16 -54q-109 -31 -149 -121q22 8 46 8q63 0 99 -33.5t36 -91.5zM486 192h-83v323q-37 -18 -99 -22l-10 49q100 13 134 62h58v-412zM779 319
q0 81 -76 81q-20 0 -41 -8q-5 -21 -5 -51q0 -102 63 -102q29 0 44 22.5t15 57.5z" />
    <glyph glyph-name="uni2470" unicode="&#x2470;" horiz-adv-x="1172" 
d="M1119 392q0 -166 -117.5 -284t-284.5 -118h-262q-167 0 -284.5 118t-117.5 284t117.5 284t284.5 118h262q167 0 284.5 -118t117.5 -284zM1050 393q0 143 -97.5 243.5t-235.5 100.5h-262q-138 0 -235.5 -100.5t-97.5 -243.5t97.5 -243.5t235.5 -100.5h262
q138 0 235.5 100.5t97.5 243.5zM857 604l-53 -127q-75 -180 -100 -285h-99l154 345h-179v67h277zM486 192h-82v323q-37 -18 -100 -22l-10 49q100 13 134 62h58v-412z" />
    <glyph glyph-name="uni2471" unicode="&#x2471;" horiz-adv-x="1172" 
d="M1119 392q0 -166 -117.5 -284t-284.5 -118h-262q-167 0 -284.5 118t-117.5 284t117.5 284t284.5 118h262q167 0 284.5 -118t117.5 -284zM1050 393q0 143 -97.5 243.5t-235.5 100.5h-262q-138 0 -235.5 -100.5t-97.5 -243.5t97.5 -243.5t235.5 -100.5h262
q138 0 235.5 100.5t97.5 243.5zM855 293q0 -48 -38.5 -78t-99.5 -30q-59 0 -98 28.5t-39 79.5q0 39 22 63.5t64 49.5q-36 22 -55 45.5t-19 57.5q0 45 35.5 73.5t89.5 28.5q55 0 90.5 -28t35.5 -73q0 -34 -18.5 -57t-54.5 -44q40 -24 62.5 -50.5t22.5 -65.5zM488 192h-83v323
q-37 -18 -99 -22l-11 49q100 13 134 62h59v-412zM777 510q0 24 -16.5 39t-41.5 15q-26 0 -42 -15t-16 -39t13.5 -39t45.5 -35q29 18 43 34.5t14 39.5zM780 294q0 28 -15.5 46.5t-48.5 38.5q-33 -19 -49 -38t-16 -46q0 -25 19.5 -41.5t46.5 -16.5q28 0 45.5 16t17.5 41z" />
    <glyph glyph-name="uni2472" unicode="&#x2472;" horiz-adv-x="1172" 
d="M1119 392q0 -166 -117.5 -284t-284.5 -118h-262q-167 0 -284.5 118t-117.5 284t117.5 284t284.5 118h262q167 0 284.5 -118t117.5 -284zM1050 393q0 143 -97.5 243.5t-235.5 100.5h-262q-138 0 -235.5 -100.5t-97.5 -243.5t97.5 -243.5t235.5 -100.5h262
q138 0 235.5 100.5t97.5 243.5zM859 452q0 -105 -63 -175t-162 -91l-17 54q111 31 150 121q-22 -8 -46 -8q-63 0 -99.5 33.5t-36.5 91.5q0 57 35.5 95t100.5 38q67 0 102.5 -43t35.5 -116zM490 192h-82v323q-37 -18 -100 -22l-10 49q100 13 134 62h58v-412zM784 456
q0 103 -64 103q-29 0 -43.5 -22.5t-14.5 -57.5q0 -81 76 -81q23 0 41 7q5 21 5 51z" />
    <glyph glyph-name="uni2473" unicode="&#x2473;" horiz-adv-x="1172" 
d="M1119 392q0 -166 -117.5 -284t-284.5 -118h-262q-167 0 -284.5 118t-117.5 284t117.5 284t284.5 118h262q167 0 284.5 -118t117.5 -284zM1050 393q0 143 -97.5 243.5t-235.5 100.5h-262q-138 0 -235.5 -100.5t-97.5 -243.5t97.5 -243.5t235.5 -100.5h262
q138 0 235.5 100.5t97.5 243.5zM894 398q0 -91 -34 -152t-103 -61t-103 61t-34 152t34 152t103 61t103 -61t34 -152zM556 192h-262l142 215q31 47 31 83q0 62 -72 62q-38 0 -74 -17l-20 52q46 24 111 24q71 0 105.5 -31t34.5 -83q0 -43 -54 -117l-88 -121h146v-67zM815 399
q0 159 -58 159q-59 0 -59 -159q0 -158 59 -158q58 0 58 158z" />
    <glyph glyph-name="uni24EA" unicode="&#x24ea;" horiz-adv-x="910" 
d="M857 392q0 -166 -117.5 -284t-284.5 -118t-284.5 118t-117.5 284t117.5 284t284.5 118t284.5 -118t117.5 -284zM788 393q0 143 -97.5 243.5t-235.5 100.5t-235.5 -100.5t-97.5 -243.5t97.5 -243.5t235.5 -100.5t235.5 100.5t97.5 243.5zM592 398q0 -91 -34 -152t-103 -61
t-103 61t-34 152t34 152t103 61t103 -61t34 -152zM513 399q0 159 -58 159q-59 0 -59 -159q0 -158 59 -158q58 0 58 158z" />
    <glyph glyph-name="lozenge" unicode="&#x25ca;" horiz-adv-x="632" 
d="M586 344l-270 -354l-270 354l270 354zM480 344l-164 216l-165 -216l165 -214z" />
    <glyph glyph-name="uni2713" unicode="&#x2713;" horiz-adv-x="740" 
d="M698 647l-363 -662l-293 361l88 74l194 -260l276 539z" />
    <glyph glyph-name="fi" unicode="&#xfb01;" horiz-adv-x="592" 
d="M530 692q0 -25 -20 -43t-49 -18t-49 18t-20 43q0 26 20.5 44t48.5 18t48.5 -18t20.5 -44zM523 0h-122v539h122v-539zM306 462h-88v-462h-122v462h-60v77h60v66q0 85 47 133t133 48q14 0 30 -2v-77h-10q-78 0 -78 -99v-69h88v-77z" />
    <glyph glyph-name="fl" unicode="&#xfb02;" horiz-adv-x="607" 
d="M537 0h-122v785h122v-785zM306 462h-88v-462h-122v462h-60v77h60v66q0 85 47 133t133 48q16 0 30 -2v-77h-10q-78 0 -78 -99v-69h88v-77z" />
    <glyph glyph-name="n.subs" horiz-adv-x="398" 
d="M346 -215h-89v239q0 62 -62 62q-32 0 -53 -9v-292h-90v329q64 26 142 26q152 0 152 -114v-241z" />
    <glyph glyph-name="parenleft.numr" horiz-adv-x="226" 
d="M213 212l-43 -31q-134 123 -134 301t134 301l43 -31q-90 -115 -90 -270t90 -270z" />
    <glyph glyph-name="parenright.numr" horiz-adv-x="226" 
d="M190 482q0 -178 -134 -301l-43 31q90 115 90 270t-90 270l43 31q134 -123 134 -301z" />
    <glyph glyph-name="plus.numr" horiz-adv-x="360" 
d="M310 453h-96v-97h-67v97h-97v62h97v97h67v-97h96v-62z" />
    <glyph glyph-name="zero.numr" horiz-adv-x="356" 
d="M323 482q0 -91 -36 -152.5t-109 -61.5t-109 61.5t-36 152.5t36 152.5t109 61.5t109 -61.5t36 -152.5zM238 484q0 158 -60 158t-60 -158t60 -158t60 158z" />
    <glyph glyph-name="one.numr" horiz-adv-x="356" 
d="M258 276h-90v322q-38 -18 -103 -22l-11 50q105 13 140 62h64v-412z" />
    <glyph glyph-name="two.numr" horiz-adv-x="356" 
d="M302 276h-280l154 215q31 43 31 81q0 63 -74 63q-39 0 -77 -17l-21 54q50 24 117 24q73 0 110 -31.5t37 -83.5q0 -47 -56 -117l-95 -120h154v-68z" />
    <glyph glyph-name="three.numr" horiz-adv-x="356" 
d="M310 398q0 -58 -44.5 -94t-114.5 -36q-75 0 -121 23l23 57q32 -17 84 -17q38 0 59.5 18.5t21.5 50.5q0 71 -101 71h-11v44q46 4 73 23t27 48q0 50 -64 50q-42 0 -80 -16l-20 53q51 23 115 23q62 0 98.5 -26t36.5 -73q0 -61 -71 -89v-2q89 -27 89 -108z" />
    <glyph glyph-name="four.numr" horiz-adv-x="356" 
d="M322 362h-35v-86h-81v86h-173v49l170 277h84v-279h35v-47zM209 612h-2q-13 -32 -29 -59l-86 -144h115v141q0 26 2 62z" />
    <glyph glyph-name="five.numr" horiz-adv-x="356" 
d="M310 398q0 -55 -44 -92.5t-114 -37.5q-76 0 -122 23l24 57q34 -18 84 -18q37 0 58.5 19.5t21.5 48.5q0 75 -102 75q-32 0 -63 -4l25 219h215v-67h-154l-11 -100q12 1 23 1q78 0 118.5 -33.5t40.5 -90.5z" />
    <glyph glyph-name="six.numr" horiz-adv-x="356" 
d="M324 402q0 -57 -37.5 -95.5t-105.5 -38.5q-71 0 -108.5 43t-37.5 117q0 106 66 176t171 91l18 -56q-115 -30 -155 -120q22 8 47 8q66 0 104 -33.5t38 -91.5zM241 402q0 82 -78 82q-20 0 -41 -8q-5 -21 -5 -51q0 -103 65 -103q29 0 44 22.5t15 57.5z" />
    <glyph glyph-name="seven.numr" horiz-adv-x="356" 
d="M328 688l-56 -127q-78 -179 -103 -285h-104l158 345h-186v67h291z" />
    <glyph glyph-name="eight.numr" horiz-adv-x="356" 
d="M323 377q0 -48 -41 -78.5t-105 -30.5q-62 0 -103 28.5t-41 79.5q0 39 23 64.5t66 49.5q-37 22 -57 45.5t-20 57.5q0 45 37.5 74t94.5 29t95.5 -28.5t38.5 -73.5q0 -34 -19.5 -57t-57.5 -44q43 -25 66 -51t23 -65zM240 594q0 24 -17.5 39t-43.5 15q-27 0 -43 -14.5
t-16 -38.5t14 -39.5t46 -34.5q31 19 45.5 34.5t14.5 38.5zM243 377q0 28 -16 47t-51 39q-34 -19 -50 -37.5t-16 -46.5q0 -25 20 -42t47 -17q29 0 47.5 16t18.5 41z" />
    <glyph glyph-name="nine.numr" horiz-adv-x="356" 
d="M321 536q0 -106 -66 -176t-171 -91l-18 57q117 33 156 119q-22 -8 -47 -8q-66 0 -104.5 33.5t-38.5 91.5q0 57 38 95.5t106 38.5q70 0 107.5 -43t37.5 -117zM239 540q0 103 -64 103q-29 0 -44.5 -22.5t-15.5 -57.5q0 -81 78 -81q23 0 41 7q5 21 5 51z" />
    <glyph glyph-name="equal.numr" horiz-adv-x="360" 
d="M310 518h-260v62h260v-62zM310 388h-260v62h260v-62z" />
    <glyph glyph-name="n.numr" horiz-adv-x="398" 
d="M346 276h-89v239q0 62 -62 62q-32 0 -53 -9v-292h-90v329q64 26 142 26q152 0 152 -114v-241z" />
    <glyph glyph-name="minus.numr" horiz-adv-x="360" 
d="M310 453h-260v62h260v-62z" />
    <glyph glyph-name="parenleft.dnom" horiz-adv-x="226" 
d="M213 -64l-43 -31q-134 123 -134 301t134 301l43 -31q-90 -115 -90 -270t90 -270z" />
    <glyph glyph-name="parenright.dnom" horiz-adv-x="226" 
d="M190 206q0 -178 -134 -301l-43 31q90 115 90 270t-90 270l43 31q134 -123 134 -301z" />
    <glyph glyph-name="plus.dnom" horiz-adv-x="360" 
d="M310 177h-96v-97h-67v97h-97v62h97v97h67v-97h96v-62z" />
    <glyph glyph-name="zero.dnom" horiz-adv-x="356" 
d="M323 206q0 -91 -36 -152.5t-109 -61.5t-109 61.5t-36 152.5t36 152.5t109 61.5t109 -61.5t36 -152.5zM238 208q0 158 -60 158t-60 -158t60 -158t60 158z" />
    <glyph glyph-name="one.dnom" horiz-adv-x="356" 
d="M258 0h-90v322q-38 -18 -103 -22l-11 50q105 13 140 62h64v-412z" />
    <glyph glyph-name="two.dnom" horiz-adv-x="356" 
d="M302 0h-280l154 215q31 43 31 81q0 63 -74 63q-39 0 -77 -17l-21 54q50 24 117 24q73 0 110 -31.5t37 -83.5q0 -47 -56 -117l-95 -120h154v-68z" />
    <glyph glyph-name="three.dnom" horiz-adv-x="356" 
d="M310 122q0 -58 -44.5 -94t-114.5 -36q-75 0 -121 23l23 57q32 -17 84 -17q38 0 59.5 18.5t21.5 50.5q0 71 -101 71h-11v44q46 4 73 23t27 48q0 50 -64 50q-42 0 -80 -16l-20 53q51 23 115 23q62 0 98.5 -26t36.5 -73q0 -61 -71 -89v-2q89 -27 89 -108z" />
    <glyph glyph-name="four.dnom" horiz-adv-x="356" 
d="M322 86h-35v-86h-81v86h-173v49l170 277h84v-279h35v-47zM209 336h-2q-13 -32 -29 -59l-86 -144h115v141q0 26 2 62z" />
    <glyph glyph-name="five.dnom" horiz-adv-x="356" 
d="M310 122q0 -55 -44 -92.5t-114 -37.5q-76 0 -122 23l24 57q34 -18 84 -18q37 0 58.5 19.5t21.5 48.5q0 75 -102 75q-32 0 -63 -4l25 219h215v-67h-154l-11 -100q12 1 23 1q78 0 118.5 -33.5t40.5 -90.5z" />
    <glyph glyph-name="six.dnom" horiz-adv-x="356" 
d="M324 126q0 -57 -37.5 -95.5t-105.5 -38.5q-71 0 -108.5 43t-37.5 117q0 106 66 176t171 91l18 -56q-115 -30 -155 -120q22 8 47 8q66 0 104 -33.5t38 -91.5zM241 126q0 82 -78 82q-20 0 -41 -8q-5 -21 -5 -51q0 -103 65 -103q29 0 44 22.5t15 57.5z" />
    <glyph glyph-name="seven.dnom" horiz-adv-x="356" 
d="M328 412l-56 -127q-78 -179 -103 -285h-104l158 345h-186v67h291z" />
    <glyph glyph-name="eight.dnom" horiz-adv-x="356" 
d="M323 101q0 -48 -41 -78.5t-105 -30.5q-62 0 -103 28.5t-41 79.5q0 39 23 64.5t66 49.5q-37 22 -57 45.5t-20 57.5q0 45 37.5 74t94.5 29t95.5 -28.5t38.5 -73.5q0 -34 -19.5 -57t-57.5 -44q43 -25 66 -51t23 -65zM240 318q0 24 -17.5 39t-43.5 15q-27 0 -43 -14.5
t-16 -38.5t14 -39.5t46 -34.5q31 19 45.5 34.5t14.5 38.5zM243 101q0 28 -16 47t-51 39q-34 -19 -50 -37.5t-16 -46.5q0 -25 20 -42t47 -17q29 0 47.5 16t18.5 41z" />
    <glyph glyph-name="nine.dnom" horiz-adv-x="356" 
d="M321 260q0 -106 -66 -176t-171 -91l-18 57q117 33 156 119q-22 -8 -47 -8q-66 0 -104.5 33.5t-38.5 91.5q0 57 38 95.5t106 38.5q70 0 107.5 -43t37.5 -117zM239 264q0 103 -64 103q-29 0 -44.5 -22.5t-15.5 -57.5q0 -81 78 -81q23 0 41 7q5 21 5 51z" />
    <glyph glyph-name="equal.dnom" horiz-adv-x="360" 
d="M310 242h-260v62h260v-62zM310 112h-260v62h260v-62z" />
    <glyph glyph-name="n.dnom" horiz-adv-x="398" 
d="M346 0h-89v239q0 62 -62 62q-32 0 -53 -9v-292h-90v329q64 26 142 26q152 0 152 -114v-241z" />
    <glyph glyph-name="minus.dnom" horiz-adv-x="360" 
d="M310 177h-260v62h260v-62z" />
    <glyph glyph-name="space.frac" horiz-adv-x="54" 
 />
    <glyph glyph-name="numbersign.osf" horiz-adv-x="570" 
d="M513 332h-94l-16 -118h86v-62h-94l-21 -152h-67l20 152h-119l-21 -152h-67l20 152h-83v62h92l16 118h-84v62h92l20 145h67l-20 -145h120l20 145h67l-20 -145h86v-62zM352 333h-120l-16 -120h120z" />
    <glyph glyph-name="dollar.osf" horiz-adv-x="474" 
d="M417 156q0 -59 -41.5 -104t-111.5 -58v-124h-67v120q-93 3 -148 38l34 76q53 -31 114 -31q43 0 69 21t26 56q0 29 -23.5 49t-57.5 34t-68 30.5t-57.5 49.5t-23.5 81q0 59 40.5 101t105.5 52v119h67v-117q72 -5 127 -38l-33 -68q-47 29 -99 29q-42 0 -64.5 -19.5
t-22.5 -52.5q0 -24 17.5 -42t43.5 -28.5t56 -25t56 -30.5t43.5 -46.5t17.5 -71.5z" />
    <glyph glyph-name="percent.osf" horiz-adv-x="844" 
d="M790 172q0 -80 -36.5 -131.5t-102.5 -51.5t-102.5 51.5t-36.5 131.5t36.5 131.5t102.5 51.5t102.5 -51.5t36.5 -131.5zM543 529l-185 -540l-59 21l186 540zM332 367q0 -80 -36.5 -131.5t-102.5 -51.5t-102.5 51.5t-36.5 131.5t36.5 131.5t102.5 51.5t102.5 -51.5
t36.5 -131.5zM712 174q0 129 -61 129t-61 -129t61 -129t61 129zM254 369q0 129 -61 129t-61 -129t61 -129t61 129z" />
    <glyph glyph-name="zero.osf" horiz-adv-x="560" 
d="M509 270q0 -120 -61 -200.5t-168 -80.5t-168 80.5t-61 200.5t60.5 200t168.5 80t168.5 -80t60.5 -200zM385 272q0 87 -24.5 145.5t-80.5 58.5t-80.5 -58.5t-24.5 -145.5t24.5 -145t80.5 -58t80.5 58t24.5 145z" />
    <glyph glyph-name="one.osf" horiz-adv-x="412" 
d="M334 0h-123v402q-61 -34 -169 -41l-16 73q80 11 138.5 39t82.5 66h87v-539z" />
    <glyph glyph-name="two.osf" horiz-adv-x="484" 
d="M439 0h-415l226 269q53 63 53 113q0 36 -27 57t-76 21q-69 0 -125 -27l-31 77q80 40 184 40q96 0 148.5 -44t52.5 -112q0 -70 -73 -147l-138 -146h221v-101z" />
    <glyph glyph-name="three.osf" horiz-adv-x="492" 
d="M447 54q0 -96 -68.5 -155t-175.5 -59q-115 0 -189 38l34 83q57 -30 135 -30q62 0 99 33t37 91q0 64 -45.5 95.5t-120.5 31.5h-18v67q75 7 119 40t44 84q0 45 -29.5 67t-76.5 22q-69 0 -129 -27l-31 77q81 38 179 38q93 0 150.5 -43t57.5 -119q0 -54 -34.5 -92.5
t-83.5 -57.5v-2q62 -19 104 -64t42 -118z" />
    <glyph glyph-name="four.osf" horiz-adv-x="560" 
d="M510 0h-59v-149h-114v149h-290v75l285 464h119v-470h59v-69zM340 427h-2q-22 -49 -49 -94l-161 -264h209v258q0 37 3 100z" />
    <glyph glyph-name="five.osf" horiz-adv-x="492" 
d="M447 55q0 -90 -68.5 -152.5t-176.5 -62.5q-115 0 -188 38l34 83q57 -30 135 -30q62 0 99 36t37 88q0 63 -41 99.5t-129 36.5q-43 0 -99 -8l40 356h332v-101h-246l-20 -179q24 3 43 3q120 0 184 -56t64 -151z" />
    <glyph glyph-name="six.osf" horiz-adv-x="544" 
d="M497 208q0 -93 -57.5 -156t-163.5 -63q-108 0 -167 71t-59 193q0 171 101.5 288.5t272.5 157.5l24 -82q-95 -29 -158 -78.5t-99 -135.5q37 14 81 14q104 0 164.5 -56t60.5 -153zM381 210q0 142 -133 142q-39 0 -75 -14q-8 -41 -8 -88q0 -85 28.5 -132.5t84.5 -47.5
q51 0 77 39.5t26 100.5z" />
    <glyph glyph-name="seven.osf" horiz-adv-x="516" 
d="M485 539l-90 -213q-119 -283 -164 -475h-149l257 587h-301v101h447z" />
    <glyph glyph-name="eight.osf" horiz-adv-x="538" 
d="M492 168q0 -79 -62.5 -129t-160.5 -50q-95 0 -159 47.5t-64 130.5q0 67 36.5 108t108.5 82q-61 37 -93.5 76t-32.5 97q0 74 58.5 121.5t145.5 47.5t145.5 -47t58.5 -121q0 -57 -32 -95t-93 -74q69 -41 106.5 -84t37.5 -110zM372 532q0 42 -28.5 69t-72.5 27
q-45 0 -73 -26t-28 -69q0 -41 25 -69t78 -61q51 31 75 59.5t24 69.5zM380 168q0 50 -27.5 82t-85.5 66q-58 -33 -85.5 -65t-27.5 -81q0 -45 33 -74.5t80 -29.5q49 0 81 29t32 73z" />
    <glyph glyph-name="nine.osf" horiz-adv-x="544" 
d="M494 286q0 -171 -101.5 -288.5t-272.5 -157.5l-25 82q96 29 160 78.5t99 135.5q-37 -14 -82 -14q-104 0 -164.5 56t-60.5 153q0 93 57.5 156t163.5 63q108 0 167 -71t59 -193zM379 291q0 85 -28.5 133t-84.5 48q-51 0 -77 -40t-26 -101q0 -142 133 -142q42 0 75 13
q8 41 8 89z" />
    <glyph glyph-name="cent.osf" horiz-adv-x="439" 
d="M396 132q-38 -27 -102 -30v-102h-67v105q-80 13 -126.5 70.5t-46.5 149.5q0 88 47.5 146.5t125.5 71.5v100h67v-97q63 -3 102 -29l-28 -62q-31 19 -70 19q-59 0 -90.5 -40t-31.5 -108q0 -69 32 -108.5t90 -39.5q39 0 70 19z" />
    <glyph glyph-name="sterling.osf" horiz-adv-x="534" 
d="M474 0h-402q93 96 93 196q0 27 -7 57h-90v62h71q-12 38 -12 72q0 75 51 119t144 44q85 0 149 -35l-27 -69q-43 25 -98 25q-53 0 -79.5 -26t-26.5 -71q0 -32 6 -59h140v-62h-127q4 -32 4 -55q0 -63 -34 -110h245v-88z" />
    <glyph glyph-name="currency.osf" horiz-adv-x="566" 
d="M520 81l-49 -48l-70 70q-52 -47 -118 -47t-118 47l-70 -70l-49 48l74 74q-29 53 -29 116t29 116l-74 73l49 49l70 -70q52 47 118 47t118 -47l70 70l49 -49l-74 -73q29 -53 29 -116t-29 -116zM374 273q0 60 -26 99t-65 39t-65 -39t-26 -99t26 -99.5t65 -39.5t65 39.5
t26 99.5z" />
    <glyph glyph-name="yen.osf" horiz-adv-x="570" 
d="M520 539l-103 -187h74v-50h-101l-45 -81h146v-50h-146v-171h-120v171h-146v50h146l-45 81h-101v50h74l-103 187h130l109 -244h2l111 244h118z" />
    <glyph glyph-name="florin.osf" horiz-adv-x="520" 
d="M466 535l-16 -76q-22 9 -49 9q-72 0 -85 -107l-8 -59h100v-75h-109l-33 -257q-11 -91 -59.5 -140t-130.5 -49q-49 0 -83 16l18 81q24 -10 49 -10q72 0 86 107l32 252h-86v75h96l8 64q24 184 187 184q48 0 83 -15z" />
    <glyph glyph-name="perthousand.osf" horiz-adv-x="1136" 
d="M1082 159q0 -73 -35.5 -121.5t-97.5 -48.5t-97.5 48.5t-35.5 121.5t35.5 121.5t97.5 48.5t97.5 -48.5t35.5 -121.5zM751 159q0 -73 -35.5 -121.5t-97.5 -48.5t-97.5 48.5t-35.5 121.5t35.5 121.5t97.5 48.5t97.5 -48.5t35.5 -121.5zM523 529l-185 -540l-57 21l186 540z
M320 380q0 -73 -35.5 -121.5t-97.5 -48.5t-97.5 48.5t-35.5 121.5t35.5 121.5t97.5 48.5t97.5 -48.5t35.5 -121.5zM1008 161q0 52 -15 84.5t-44 32.5t-43.5 -32.5t-14.5 -84.5t14.5 -84.5t43.5 -32.5t44 32.5t15 84.5zM676 161q0 52 -14.5 84.5t-43.5 32.5t-44 -32.5
t-15 -84.5t15 -84.5t44 -32.5t43.5 32.5t14.5 84.5zM245 382q0 52 -14.5 84.5t-43.5 32.5t-44 -32.5t-15 -84.5t15 -84.5t44 -32.5t43.5 32.5t14.5 84.5z" />
    <glyph glyph-name="Euro.osf" horiz-adv-x="576" 
d="M532 22q-52 -32 -141 -32q-101 0 -164.5 55t-83.5 145h-86v45h80q-2 22 -2 35q0 23 3 44h-81v46h89q22 86 85 137.5t160 51.5q89 0 141 -32l-27 -65q-42 22 -91 22q-112 0 -148 -114h203v-46h-213q-3 -21 -3 -43q0 -12 2 -36h214v-45h-205q35 -122 150 -122q48 0 90 22z
" />
    <glyph glyph-name="numbersign.tf" 
d="M500 421h-91l-19 -142h82v-64h-91l-29 -215h-70l29 215h-117l-29 -215h-70l29 215h-83v64h92l19 142h-83v64h92l27 203h70l-28 -203h118l27 203h70l-27 -203h82v-64zM339 421h-117l-19 -142h117z" />
    <glyph glyph-name="dollar.tf" 
d="M474 190q0 -75 -46 -127.5t-125 -67.5v-126h-71v121q-101 2 -167 39l34 86q53 -32 131 -32q53 0 83.5 27t30.5 72q0 40 -28 68t-68 47.5t-79.5 42t-67.5 65.5t-28 104q0 73 46 123t124 63v117h70v-114q81 -5 137 -38l-30 -78q-51 30 -114 30q-50 0 -79 -24.5t-29 -69.5
q0 -40 28.5 -67.5t69 -46.5t81 -41.5t69 -66t28.5 -106.5z" />
    <glyph glyph-name="percent.tf" horiz-adv-x="880" 
d="M827 203q0 -90 -38 -152t-112 -62t-112 62t-38 152t38 152t112 62t112 -62t38 -152zM591 676l-236 -688l-67 24l236 688zM353 485q0 -90 -38 -152t-112 -62t-112 62t-38 152t38 152t112 62t112 -62t38 -152zM743 205q0 70 -16 114t-50 44t-50 -44t-16 -114t16 -114
t50 -44t50 44t16 114zM269 487q0 70 -16 114t-50 44t-50 -44t-16 -114t16 -114t50 -44t50 44t16 114z" />
    <glyph glyph-name="zero.tf" 
d="M496 344q0 -96 -21 -173t-72.5 -129.5t-129.5 -52.5t-129.5 52.5t-72.5 129.5t-21 173t21 173t72.5 129.5t129.5 52.5t129.5 -52.5t72.5 -129.5t21 -173zM378 346q0 274 -105 274t-105 -274t105 -274t105 274z" />
    <glyph glyph-name="one.tf" 
d="M389 0h-123v551q-61 -34 -169 -41l-16 73q80 11 138.5 39t82.5 66h87v-688z" />
    <glyph glyph-name="two.tf" 
d="M470 0h-435l247 358q53 76 53 141q0 110 -125 110q-67 0 -125 -27l-30 77q80 40 180 40q114 0 171 -51t57 -138q0 -79 -88 -195l-162 -214h257v-101z" />
    <glyph glyph-name="three.tf" 
d="M475 203q0 -96 -68.5 -155t-175.5 -59q-114 0 -188 38l33 83q57 -30 135 -30q62 0 99 33t37 91q0 64 -45.5 95.5t-119.5 31.5h-18v67q75 7 119 40t44 84q0 45 -30 67t-77 22q-68 0 -128 -27l-31 77q81 38 178 38q93 0 151 -43t58 -119q0 -54 -34.5 -92.5t-83.5 -57.5v-2
q62 -19 103.5 -64t41.5 -118z" />
    <glyph glyph-name="four.tf" 
d="M494 146h-53v-146h-114v146h-278v75l273 467h119v-472h53v-70zM331 572h-2q-20 -49 -48 -96l-151 -260h197v253q0 55 4 103z" />
    <glyph glyph-name="five.tf" 
d="M479 204q0 -90 -68.5 -152.5t-176.5 -62.5q-114 0 -187 38l33 83q57 -30 135 -30q62 0 99 36t37 88q0 63 -41 99.5t-129 36.5q-42 0 -98 -8l39 356h332v-101h-246l-19 -179q27 3 43 3q120 0 183.5 -55.5t63.5 -151.5z" />
    <glyph glyph-name="six.tf" 
d="M497 208q0 -93 -57 -156t-163 -63q-108 0 -167 71t-59 193q0 171 101 288.5t272 157.5l25 -82q-95 -29 -158.5 -78.5t-99.5 -135.5q37 14 82 14q104 0 164 -56t60 -153zM381 210q0 142 -132 142q-39 0 -75 -14q-8 -41 -8 -88q0 -85 28 -132.5t84 -47.5q51 0 77 39.5
t26 100.5z" />
    <glyph glyph-name="seven.tf" 
d="M508 688l-90 -213q-128 -305 -168 -475h-150l260 587h-307v101h455z" />
    <glyph glyph-name="eight.tf" 
d="M496 168q0 -79 -62.5 -129t-160.5 -50q-95 0 -159 47.5t-64 130.5q0 67 36.5 108t108.5 82q-61 37 -93.5 76t-32.5 97q0 74 58.5 121.5t145.5 47.5t145.5 -47t58.5 -121q0 -57 -32 -95t-93 -74q69 -41 106.5 -84t37.5 -110zM376 532q0 42 -28.5 69t-72.5 27
q-45 0 -73 -26t-28 -69q0 -41 25 -69t78 -61q51 31 75 59.5t24 69.5zM384 168q0 50 -27.5 82t-85.5 66q-58 -33 -85.5 -65t-27.5 -81q0 -45 33 -74.5t80 -29.5q49 0 81 29t32 73z" />
    <glyph glyph-name="nine.tf" 
d="M495 435q0 -171 -101 -288.5t-272 -157.5l-25 82q95 29 158.5 78.5t99.5 135.5q-37 -14 -82 -14q-104 0 -164 56t-60 153q0 93 57 156t163 63q108 0 167 -71t59 -193zM380 440q0 85 -28 133t-84 48q-51 0 -77 -40t-26 -101q0 -142 132 -142q42 0 75 13q8 41 8 89z" />
    <glyph glyph-name="cent.tf" 
d="M428 136q-35 -27 -105 -30v-106h-66v109q-79 14 -125 74.5t-46 162.5q0 98 47 160t124 76v106h66v-104q63 -3 104 -30l-26 -65q-36 20 -72 20q-60 0 -90.5 -43.5t-30.5 -117.5q0 -76 31 -119t89 -43q42 0 73 19z" />
    <glyph glyph-name="sterling.tf" 
d="M496 0h-432q108 127 108 245q0 39 -10 79h-96v75h73q-17 57 -17 97q0 94 58.5 148.5t155.5 54.5q93 0 156 -37l-28 -75q-43 24 -103 24q-58 0 -90 -34t-32 -91q0 -38 11 -87h152v-75h-136q6 -33 6 -75q0 -35 -14 -77.5t-32 -70.5h270v-101z" />
    <glyph glyph-name="currency.tf" 
d="M510 144l-49 -48l-70 70q-52 -47 -118 -47t-118 47l-70 -70l-49 48l74 74q-29 53 -29 116t29 116l-74 73l49 49l70 -70q52 47 118 47t118 -47l70 70l49 -49l-74 -73q29 -53 29 -116t-29 -116zM364 336q0 60 -26 99t-65 39t-65 -39t-26 -99t26 -99.5t65 -39.5t65 39.5
t26 99.5z" />
    <glyph glyph-name="yen.tf" 
d="M517 688l-113 -242h94v-55h-119l-47 -100h166v-55h-166v-236h-118v236h-166v55h166l-47 100h-119v55h94l-113 242h127l120 -304h2l127 304h112z" />
    <glyph glyph-name="florin.tf" 
d="M508 679l-15 -78q-24 11 -55 11q-85 0 -101 -132l-9 -72h113v-80h-124l-42 -329q-14 -106 -65.5 -163t-141.5 -57q-51 0 -87 18l16 82q26 -12 56 -12q83 0 101 132l42 329h-97v80h108l9 72q28 216 205 216q51 0 87 -17z" />
    <glyph glyph-name="uni2007.tf" 
 />
    <glyph glyph-name="perthousand.tf" horiz-adv-x="1184" 
d="M1131 186q0 -82 -37 -139.5t-106 -57.5t-106 57.5t-37 139.5t37 139.5t106 57.5t106 -57.5t37 -139.5zM775 186q0 -82 -37 -139.5t-106 -57.5t-106 57.5t-37 139.5t37 139.5t106 57.5t106 -57.5t37 -139.5zM564 678l-236 -688l-63 20l236 689zM339 502q0 -82 -37 -139.5
t-106 -57.5t-106 57.5t-37 139.5t37 139.5t106 57.5t106 -57.5t37 -139.5zM1050 188q0 143 -62 143t-62 -143t62 -143t62 143zM694 188q0 143 -62 143t-62 -143t62 -143t62 143zM258 504q0 143 -62 143t-62 -143t62 -143t62 143z" />
    <glyph glyph-name="Euro.tf" 
d="M514 29q-51 -40 -133 -40q-108 0 -168.5 73t-79.5 184h-86v55h80q-2 22 -2 43q0 28 3 57h-81v55h89q21 106 81.5 174.5t162.5 68.5q84 0 134 -39l-28 -74q-36 25 -85 25q-112 0 -142 -155h183v-55h-190q-2 -19 -2 -56q0 -29 1 -44h191v-55h-184q27 -163 142 -163
q44 0 84 25z" />
    <glyph glyph-name="numbersign.tosf" 
d="M493 332h-89l-16 -118h80v-62h-88l-21 -152h-68l21 152h-114l-21 -152h-67l21 152h-78v62h86l16 118h-78v62h86l20 145h67l-20 -145h114l20 145h68l-20 -145h81v-62zM336 333h-114l-16 -120h114z" />
    <glyph glyph-name="dollar.tosf" 
d="M453 156q0 -59 -41.5 -104t-111.5 -58v-124h-67v120q-93 3 -148 38l34 76q53 -31 114 -31q43 0 69 21t26 56q0 29 -23.5 49t-57.5 34t-68 30.5t-57.5 49.5t-23.5 81q0 59 40.5 101t105.5 52v119h67v-117q72 -5 127 -38l-33 -68q-47 29 -99 29q-42 0 -64.5 -19.5
t-22.5 -52.5q0 -24 17.5 -42t43.5 -28.5t56 -25t56 -30.5t43.5 -46.5t17.5 -71.5z" />
    <glyph glyph-name="percent.tosf" horiz-adv-x="844" 
d="M790 172q0 -80 -36.5 -131.5t-102.5 -51.5t-102.5 51.5t-36.5 131.5t36.5 131.5t102.5 51.5t102.5 -51.5t36.5 -131.5zM543 529l-185 -540l-59 21l186 540zM332 367q0 -80 -36.5 -131.5t-102.5 -51.5t-102.5 51.5t-36.5 131.5t36.5 131.5t102.5 51.5t102.5 -51.5
t36.5 -131.5zM712 174q0 129 -61 129t-61 -129t61 -129t61 129zM254 369q0 129 -61 129t-61 -129t61 -129t61 129z" />
    <glyph glyph-name="zero.tosf" 
d="M497 270q0 -120 -59.5 -200.5t-164.5 -80.5t-164.5 80.5t-59.5 200.5t59.5 200t164.5 80t164.5 -80t59.5 -200zM378 272q0 87 -24.5 146t-80.5 59t-80.5 -59t-24.5 -146t24.5 -145t80.5 -58t80.5 58t24.5 145z" />
    <glyph glyph-name="one.tosf" 
d="M388 0h-123v402q-61 -34 -169 -41l-16 73q80 11 138.5 39t82.5 66h87v-539z" />
    <glyph glyph-name="two.tosf" 
d="M460 0h-415l226 269q53 63 53 113q0 36 -27 57t-76 21q-69 0 -125 -27l-31 77q80 40 184 40q96 0 148.5 -44t52.5 -112q0 -70 -73 -147l-138 -146h221v-101z" />
    <glyph glyph-name="three.tosf" 
d="M468 54q0 -96 -68.5 -155t-175.5 -59q-115 0 -189 38l34 83q57 -30 135 -30q62 0 99 33t37 91q0 64 -45.5 95.5t-120.5 31.5h-18v67q75 7 119 40t44 84q0 45 -29.5 67t-76.5 22q-69 0 -129 -27l-31 77q81 38 179 38q93 0 150.5 -43t57.5 -119q0 -54 -34.5 -92.5
t-83.5 -57.5v-2q62 -19 104 -64t42 -118z" />
    <glyph glyph-name="four.tosf" 
d="M501 0h-59v-149h-114v149h-290v75l285 464h119v-470h59v-69zM331 427h-2q-24 -52 -49 -94l-161 -264h209v258q0 46 3 100z" />
    <glyph glyph-name="five.tosf" 
d="M478 55q0 -90 -68.5 -152.5t-176.5 -62.5q-115 0 -188 38l34 83q57 -30 135 -30q62 0 99 36t37 88q0 63 -41 99.5t-129 36.5q-43 0 -99 -8l40 356h332v-101h-246l-20 -179q24 3 43 3q120 0 184 -56t64 -151z" />
    <glyph glyph-name="six.tosf" 
d="M498 208q0 -93 -57.5 -156t-163.5 -63q-108 0 -167 71t-59 193q0 171 101.5 288.5t272.5 157.5l24 -82q-95 -29 -158 -78.5t-99 -135.5q37 14 81 14q104 0 164.5 -56t60.5 -153zM382 210q0 142 -133 142q-39 0 -75 -14q-8 -41 -8 -88q0 -85 28.5 -132.5t84.5 -47.5
q51 0 77 39.5t26 100.5z" />
    <glyph glyph-name="seven.tosf" 
d="M503 539l-90 -213q-119 -283 -164 -475h-149l257 587h-301v101h447z" />
    <glyph glyph-name="eight.tosf" 
d="M496 168q0 -79 -62.5 -129t-160.5 -50q-95 0 -159 47.5t-64 130.5q0 67 36.5 108t108.5 82q-61 37 -93.5 76t-32.5 97q0 74 58.5 121.5t145.5 47.5t145.5 -47t58.5 -121q0 -57 -32 -95t-93 -74q69 -41 106.5 -84t37.5 -110zM376 532q0 42 -28.5 69t-72.5 27
q-45 0 -73 -26t-28 -69q0 -41 25 -69t78 -61q51 31 75 59.5t24 69.5zM384 168q0 50 -27.5 82t-85.5 66q-58 -33 -85.5 -65t-27.5 -81q0 -45 33 -74.5t80 -29.5q49 0 81 29t32 73z" />
    <glyph glyph-name="nine.tosf" 
d="M494 286q0 -171 -101.5 -288.5t-272.5 -157.5l-25 82q96 29 160 78.5t99 135.5q-37 -14 -82 -14q-104 0 -164.5 56t-60.5 153q0 93 57.5 156t163.5 63q108 0 167 -71t59 -193zM379 291q0 85 -28.5 133t-84.5 48q-51 0 -77 -40t-26 -101q0 -142 133 -142q42 0 75 13
q8 41 8 89z" />
    <glyph glyph-name="cent.tosf" 
d="M422 132q-38 -27 -102 -30v-102h-67v105q-80 13 -126.5 70.5t-46.5 149.5q0 88 47.5 146.5t125.5 71.5v100h67v-97q63 -3 102 -29l-28 -62q-31 19 -70 19q-59 0 -90.5 -40t-31.5 -108q0 -69 32 -108.5t90 -39.5q39 0 70 19z" />
    <glyph glyph-name="sterling.tosf" 
d="M480 0h-402q93 96 93 196q0 27 -7 57h-90v62h71q-12 38 -12 72q0 75 51 119t144 44q85 0 149 -35l-27 -69q-43 25 -98 25q-53 0 -79.5 -26t-26.5 -71q0 -32 6 -59h140v-62h-127q4 -32 4 -55q0 -63 -34 -110h245v-88z" />
    <glyph glyph-name="currency.tosf" 
d="M510 81l-49 -48l-70 70q-52 -47 -118 -47t-118 47l-70 -70l-49 48l74 74q-29 53 -29 116t29 116l-74 73l49 49l70 -70q52 47 118 47t118 -47l70 70l49 -49l-74 -73q29 -53 29 -116t-29 -116zM364 273q0 60 -26 99t-65 39t-65 -39t-26 -99t26 -99.5t65 -39.5t65 39.5
t26 99.5z" />
    <glyph glyph-name="yen.tosf" 
d="M503 539l-100 -187h70v-50h-97l-43 -81h140v-50h-140v-171h-120v171h-140v50h140l-43 81h-97v50h70l-100 187h130l104 -243h2l106 243h118z" />
    <glyph glyph-name="florin.tosf" 
d="M479 535l-16 -76q-22 9 -49 9q-72 0 -85 -107l-8 -59h100v-75h-109l-33 -257q-11 -91 -59.5 -140t-130.5 -49q-49 0 -83 16l18 81q24 -10 49 -10q72 0 86 107l32 252h-86v75h96l8 64q24 184 187 184q48 0 83 -15z" />
    <glyph glyph-name="uni2007.tosf" 
 />
    <glyph glyph-name="perthousand.tosf" horiz-adv-x="1136" 
d="M1082 159q0 -73 -35.5 -121.5t-97.5 -48.5t-97.5 48.5t-35.5 121.5t35.5 121.5t97.5 48.5t97.5 -48.5t35.5 -121.5zM751 159q0 -73 -35.5 -121.5t-97.5 -48.5t-97.5 48.5t-35.5 121.5t35.5 121.5t97.5 48.5t97.5 -48.5t35.5 -121.5zM523 529l-185 -540l-57 21l186 540z
M320 380q0 -73 -35.5 -121.5t-97.5 -48.5t-97.5 48.5t-35.5 121.5t35.5 121.5t97.5 48.5t97.5 -48.5t35.5 -121.5zM1008 161q0 52 -15 84.5t-44 32.5t-43.5 -32.5t-14.5 -84.5t14.5 -84.5t43.5 -32.5t44 32.5t15 84.5zM676 161q0 52 -14.5 84.5t-43.5 32.5t-44 -32.5
t-15 -84.5t15 -84.5t44 -32.5t43.5 32.5t14.5 84.5zM245 382q0 52 -14.5 84.5t-43.5 32.5t-44 -32.5t-15 -84.5t15 -84.5t44 -32.5t43.5 32.5t14.5 84.5z" />
    <glyph glyph-name="Euro.tosf" 
d="M504 22q-49 -32 -132 -32q-96 0 -156.5 55t-79.5 145h-80v45h73q-1 11 -1 35q0 28 3 44h-75v46h83q21 86 81 137.5t152 51.5q83 0 132 -32l-26 -65q-40 22 -85 22q-104 0 -136 -114h188v-46h-197q-3 -21 -3 -43q0 -12 2 -36h198v-45h-190q31 -122 138 -122q45 0 85 22z
" />
    <glyph glyph-name="ampersand.sc" horiz-adv-x="554" 
d="M534 301l-94 -15v-262q-30 -15 -80.5 -25t-95.5 -10q-107 0 -166 39.5t-59 114.5q0 105 134 152v2q-101 31 -101 118q0 62 50.5 98.5t127.5 36.5q78 0 135 -30l-30 -61q-40 19 -85 19q-37 0 -61 -18.5t-24 -51.5t26.5 -55t68.5 -22q53 0 123 15l116 23zM329 66v210
q-89 -14 -129.5 -44.5t-40.5 -85.5q0 -43 28.5 -67t82.5 -24q30 0 59 11z" />
    <glyph glyph-name="asterisk.sc" horiz-adv-x="447" 
d="M397 583q0 -21 -15.5 -36.5t-36.5 -15.5t-36 15.5t-15 36.5t15 36t36 15t36.5 -15t15.5 -36zM275 672q0 -21 -15.5 -36t-36.5 -15t-36 15t-15 36t15 36.5t36 15.5t36.5 -15.5t15.5 -36.5zM265 545q0 -17 -12.5 -29.5t-29.5 -12.5t-29 12.5t-12 29.5t12 29.5t29 12.5
t29.5 -12.5t12.5 -29.5zM351 441q0 -21 -15.5 -36t-36.5 -15t-36 15t-15 36t15 36.5t36 15.5t36.5 -15.5t15.5 -36.5zM153 583q0 -21 -15.5 -36.5t-36.5 -15.5t-36 15.5t-15 36.5t15 36t36 15t36.5 -15t15.5 -36zM199 441q0 -22 -15 -36.5t-36 -14.5q-22 0 -37 14.5
t-15 36.5t15 37t37 15q21 0 36 -15t15 -37z" />
    <glyph glyph-name="at.sc" horiz-adv-x="763" 
d="M715 294q0 -124 -88.5 -214.5t-217.5 -90.5q-90 0 -139 53t-49 135q0 95 55.5 163.5t147.5 68.5q68 0 116 -38l-48 -311q65 22 108.5 85t43.5 149q0 89 -52 145.5t-151 56.5q-100 0 -175 -48t-111 -120.5t-36 -155.5q0 -120 72.5 -195.5t196.5 -75.5q166 0 289 104
l37 -44q-133 -116 -329 -116q-150 0 -243.5 89t-93.5 233q0 74 27.5 143t77.5 122.5t125.5 85.5t164.5 32q126 0 199 -72.5t73 -183.5zM464 343q-21 12 -49 12q-55 0 -88.5 -52.5t-33.5 -122.5q0 -62 30.5 -97t87.5 -35h9z" />
    <glyph glyph-name="a.sc" horiz-adv-x="549" 
d="M532 0h-129l-40 136h-188l-42 -136h-116l188 539h139zM344 200l-57 190q-9 32 -16 70h-2q-7 -42 -16 -70l-58 -190h149z" />
    <glyph glyph-name="b.sc" horiz-adv-x="519" 
d="M479 146q0 -77 -61 -117t-175 -40q-102 0 -176 36v489q78 36 173 36q107 0 164 -37t57 -104q0 -48 -30.5 -81.5t-77.5 -42.5v-2q55 -12 90.5 -49t35.5 -88zM348 400q0 87 -105 87q-35 0 -60 -9v-172h40q66 0 95.5 23.5t29.5 70.5zM360 151q0 103 -137 103h-40v-188
q28 -11 63 -11q114 0 114 96z" />
    <glyph glyph-name="c.sc" horiz-adv-x="431" 
d="M400 25q-49 -36 -130 -36q-102 0 -163.5 79.5t-61.5 201.5t61.5 201t163.5 79q81 0 130 -36l-28 -69q-29 22 -77 22q-61 0 -93.5 -55.5t-32.5 -139.5t33 -139.5t93 -55.5q46 0 75 22z" />
    <glyph glyph-name="d.sc" 
d="M501 270q0 -123 -67 -202t-196 -79q-99 0 -173 36v489q78 36 172 36q130 0 197 -78t67 -202zM380 272q0 96 -35.5 150.5t-102.5 54.5q-35 0 -57 -8v-396q22 -8 59 -8q67 0 101.5 55t34.5 152z" />
    <glyph glyph-name="e.sc" horiz-adv-x="412" 
d="M367 0h-302v539h302v-74h-180v-153h163v-73h-163v-165h180v-74z" />
    <glyph glyph-name="f.sc" horiz-adv-x="406" 
d="M367 465h-180v-153h161v-73h-161v-239h-122v539h302v-74z" />
    <glyph glyph-name="g.sc" horiz-adv-x="537" 
d="M476 25q-69 -36 -167 -36q-129 0 -196.5 78.5t-67.5 202.5q0 119 73 199.5t196 80.5q85 0 155 -32l-31 -70q-51 23 -109 23q-79 0 -120 -58t-41 -144t36.5 -145t102.5 -59q35 0 58 9v171h-82v67h193v-287z" />
    <glyph glyph-name="h.sc" horiz-adv-x="556" 
d="M491 0h-122v239h-182v-239h-122v539h122v-227h182v227h122v-539z" />
    <glyph glyph-name="i.sc" horiz-adv-x="260" 
d="M191 0h-122v539h122v-539z" />
    <glyph glyph-name="j.sc" horiz-adv-x="263" 
d="M194 92q0 -252 -216 -297v82q51 27 72.5 73.5t21.5 127.5v461h122v-447z" />
    <glyph glyph-name="k.sc" horiz-adv-x="526" 
d="M515 0h-142l-183 269h-2v-269h-121v539h121v-250h2l175 250h132l-198 -254z" />
    <glyph glyph-name="l.sc" horiz-adv-x="387" 
d="M355 0h-288v539h122v-459h166v-80z" />
    <glyph glyph-name="m.sc" horiz-adv-x="702" 
d="M658 0h-116l-33 348q-4 48 -4 68h-2q-9 -41 -17 -68l-107 -348h-69l-105 348q-9 31 -17 68h-2q0 -32 -3 -68l-35 -348h-104l66 539h125l99 -337q9 -30 16 -68h2q7 40 15 68l100 337h124z" />
    <glyph glyph-name="n.sc" horiz-adv-x="577" 
d="M512 0h-99l-213 339q-16 25 -34 62h-2q3 -41 3 -69v-332h-102v539h113l201 -316q17 -27 31 -59h2q-3 39 -3 65v310h103v-539z" />
    <glyph glyph-name="o.sc" horiz-adv-x="548" 
d="M503 270q0 -127 -59 -204t-170 -77t-170 77t-59 204q0 126 59 203t170 77t170 -77t59 -203zM380 272q0 202 -106 202t-106 -202t106 -202t106 202z" />
    <glyph glyph-name="p.sc" horiz-adv-x="499" 
d="M462 379q0 -82 -57 -129.5t-169 -47.5q-34 0 -50 3v-205h-119v514q75 36 170 36q110 0 167.5 -46t57.5 -125zM345 378q0 105 -103 105q-35 0 -56 -8v-204q15 -3 48 -3q111 0 111 110z" />
    <glyph glyph-name="q.sc" horiz-adv-x="547" 
d="M502 270q0 -184 -109 -249l89 -108l-86 -73l-79 154q-22 -5 -43 -5q-111 0 -170 77t-59 204q0 126 59 203t170 77t169.5 -77t58.5 -203zM380 272q0 202 -106 202t-106 -202t106 -202t106 202z" />
    <glyph glyph-name="r.sc" horiz-adv-x="508" 
d="M482 0h-133l-88 169q-28 54 -75 70v-239h-119v514q77 36 168 36q108 0 166.5 -41t58.5 -120q0 -55 -38 -92.5t-103 -51.5v-2q32 -26 58 -68zM341 384q0 101 -103 101q-29 0 -52 -9v-196q22 -4 41 -4q53 0 83.5 30.5t30.5 77.5z" />
    <glyph glyph-name="s.sc" horiz-adv-x="432" 
d="M390 157q0 -71 -55 -119.5t-144 -48.5q-93 0 -156 39l34 76q50 -31 108 -31q40 0 64 21.5t24 54.5q0 30 -22.5 50.5t-54.5 34t-63.5 30t-54 49t-22.5 80.5q0 69 50.5 113t126.5 44q89 0 150 -39l-31 -69q-48 30 -96 30q-38 0 -59 -20t-21 -51q0 -29 23 -48.5t55.5 -33
t65 -30t55.5 -50t23 -82.5z" />
    <glyph glyph-name="t.sc" horiz-adv-x="411" 
d="M380 459h-113v-459h-122v459h-114v80h349v-80z" />
    <glyph glyph-name="u.sc" horiz-adv-x="539" 
d="M474 180q0 -90 -59 -140.5t-146 -50.5t-145.5 50.5t-58.5 140.5v359h122v-369q0 -44 25.5 -68.5t61.5 -24.5q37 0 62 24.5t25 68.5v369h113v-359z" />
    <glyph glyph-name="v.sc" horiz-adv-x="513" 
d="M492 539l-178 -539h-114l-178 539h131l94 -350q10 -38 13 -77h2q2 38 14 77l100 350h116z" />
    <glyph glyph-name="w.sc" horiz-adv-x="748" 
d="M718 539l-137 -539h-114l-80 329q-9 39 -11 74h-2q-5 -44 -12 -74l-80 -329h-113l-138 539h121l70 -344q7 -34 10 -77h2q4 45 12 77l85 344h99l81 -344q8 -31 12 -77h2q3 46 10 77l74 344h109z" />
    <glyph glyph-name="x.sc" horiz-adv-x="500" 
d="M483 0h-135l-101 197h-2l-104 -197h-124l169 276l-152 263h128l91 -179h2l95 179h116l-152 -254z" />
    <glyph glyph-name="y.sc" horiz-adv-x="483" 
d="M468 539l-165 -314v-225h-122v225l-165 314h131l99 -231h2l103 231h117z" />
    <glyph glyph-name="z.sc" horiz-adv-x="430" 
d="M393 0h-365l204 459h-187v80h342l-201 -459h207v-80z" />
    <glyph glyph-name="exclamdown.sc" horiz-adv-x="302" 
d="M230 623q0 -30 -21.5 -51.5t-51.5 -21.5t-51.5 21.5t-21.5 51.5t21.5 51.5t51.5 21.5t51.5 -21.5t21.5 -51.5zM229 0h-144l25 448h93z" />
    <glyph glyph-name="copyright.sc" horiz-adv-x="664" 
d="M614 270q0 -116 -82.5 -198.5t-199.5 -82.5t-199.5 82.5t-82.5 198.5t82.5 198t199.5 82t199.5 -82t82.5 -198zM553 270q0 95 -65 163t-156 68t-156 -68t-65 -163t65 -163t156 -68t156 68t65 163zM406 133q-26 -17 -72 -17q-63 0 -98 44.5t-35 110.5q0 65 35.5 110.5
t97.5 45.5q46 0 72 -17l-15 -37q-20 11 -46 11q-42 0 -63 -32.5t-21 -79.5q0 -46 22 -78.5t62 -32.5q23 0 45 11z" />
    <glyph glyph-name="ordfeminine.sc" horiz-adv-x="393" 
d="M374 328h-91l-29 94h-125l-29 -94h-81l128 360h98zM181 585l-38 -119h97l-36 119q-7 23 -10 46h-2q-4 -24 -11 -46z" />
    <glyph glyph-name="registered.sc" horiz-adv-x="664" 
d="M614 270q0 -116 -82.5 -198.5t-199.5 -82.5t-199.5 82.5t-82.5 198.5t82.5 198t199.5 82t199.5 -82t82.5 -198zM553 270q0 95 -65 163t-156 68t-156 -68t-65 -163t65 -163t156 -68t156 68t65 163zM450 124h-65l-48 95q-15 31 -40 39v-134h-57v291q32 16 85 16
q55 0 84.5 -22.5t29.5 -66.5q0 -31 -20.5 -51.5t-55.5 -28.5v-2q14 -11 30 -38zM383 341q0 57 -57 57q-20 0 -29 -4v-112q12 -2 23 -2q29 0 46 17t17 44z" />
    <glyph glyph-name="mu.sc" horiz-adv-x="702" 
d="M658 0h-116l-33 348q-4 48 -4 68h-2q-9 -41 -17 -68l-107 -348h-69l-105 348q-9 31 -17 68h-2q0 -32 -3 -68l-35 -348h-104l66 539h125l99 -337q9 -30 16 -68h2q7 40 15 68l100 337h124z" />
    <glyph glyph-name="ordmasculine.sc" horiz-adv-x="397" 
d="M353 508q0 -82 -40 -136t-115 -54q-74 0 -114 54t-40 136t40 136t114 54q75 0 115 -54t40 -136zM267 510q0 130 -69 130q-68 0 -68 -130q0 -131 68 -131q69 0 69 131z" />
    <glyph glyph-name="questiondown.sc" horiz-adv-x="430" 
d="M320 623q0 -30 -21.5 -51.5t-51.5 -21.5t-51.5 21.5t-21.5 51.5t21.5 51.5t51.5 21.5t51.5 -21.5t21.5 -51.5zM414 28q-66 -39 -158 -39q-97 0 -154.5 44.5t-57.5 120.5q0 60 45.5 103t102.5 60l8 131h93l11 -167q-53 -11 -92.5 -41t-39.5 -75q0 -41 26 -65.5t81 -24.5
q60 0 103 25z" />
    <glyph glyph-name="germandbls.sc" horiz-adv-x="852" 
d="M390 157q0 -71 -55 -119.5t-144 -48.5q-93 0 -156 39l34 76q50 -31 108 -31q40 0 64 21.5t24 54.5q0 30 -22.5 50.5t-54.5 34t-63.5 30t-54 49t-22.5 80.5q0 69 50.5 113t126.5 44q89 0 150 -39l-31 -69q-48 30 -96 30q-38 0 -59 -20t-21 -51q0 -29 23 -48.5t55.5 -33
t65 -30t55.5 -50t23 -82.5zM810 157q0 -71 -55 -119.5t-144 -48.5q-93 0 -156 39l34 76q50 -31 108 -31q40 0 64 21.5t24 54.5q0 30 -22.5 50.5t-54.5 34t-63.5 30t-54 49t-22.5 80.5q0 69 50.5 113t126.5 44q89 0 150 -39l-31 -69q-48 30 -96 30q-38 0 -59 -20t-21 -51
q0 -29 23 -48.5t55.5 -33t65 -30t55.5 -50t23 -82.5z" />
    <glyph glyph-name="agrave.sc" horiz-adv-x="549" 
d="M532 0h-129l-40 136h-188l-42 -136h-116l188 539h139zM344 200l-57 190q-9 32 -16 70h-2q-7 -42 -16 -70l-58 -190h149zM317 596h-69l-121 135q16 23 56 23q39 0 62 -17z" />
    <glyph glyph-name="aacute.sc" horiz-adv-x="549" 
d="M532 0h-129l-40 136h-188l-42 -136h-116l188 539h139zM344 200l-57 190q-9 32 -16 70h-2q-7 -42 -16 -70l-58 -190h149zM422 731l-121 -135h-69l72 141q23 17 62 17q40 0 56 -23z" />
    <glyph glyph-name="acircumflex.sc" horiz-adv-x="549" 
d="M532 0h-129l-40 136h-188l-42 -136h-116l188 539h139zM344 200l-57 190q-9 32 -16 70h-2q-7 -42 -16 -70l-58 -190h149zM409 620l-37 -33l-98 79l-98 -79l-37 33l96 103q17 17 39 17t39 -17z" />
    <glyph glyph-name="atilde.sc" horiz-adv-x="549" 
d="M532 0h-129l-40 136h-188l-42 -136h-116l188 539h139zM344 200l-57 190q-9 32 -16 70h-2q-7 -42 -16 -70l-58 -190h149zM412 691q-12 -91 -84 -91q-25 0 -55 20.5t-48 20.5q-32 0 -39 -41l-50 17q12 92 85 92q25 0 54.5 -20.5t47.5 -20.5q32 0 39 40z" />
    <glyph glyph-name="adieresis.sc" horiz-adv-x="549" 
d="M532 0h-129l-40 136h-188l-42 -136h-116l188 539h139zM344 200l-57 190q-9 32 -16 70h-2q-7 -42 -16 -70l-58 -190h149zM242 658q0 -22 -16 -38t-38 -16t-38 16t-16 38t16 38t38 16t38 -16t16 -38zM415 658q0 -22 -15.5 -38t-38.5 -16t-38.5 16t-15.5 38t15.5 38t38.5 16
t38.5 -16t15.5 -38z" />
    <glyph glyph-name="aring.sc" horiz-adv-x="549" 
d="M532 0h-129l-40 136h-188l-42 -136h-116l188 539h139zM344 200l-57 190q-9 32 -16 70h-2q-7 -42 -16 -70l-58 -190h149zM361 680q0 -35 -25.5 -60.5t-60.5 -25.5t-60.5 25.5t-25.5 60.5t25.5 60t60.5 25t60.5 -25t25.5 -60zM317 680q0 18 -12.5 30.5t-29.5 12.5
t-29.5 -12.5t-12.5 -30.5t12.5 -31t29.5 -13t29.5 13t12.5 31z" />
    <glyph glyph-name="ae.sc" horiz-adv-x="662" 
d="M630 0h-253l-26 137h-179l-52 -137h-118l230 539h351v-74h-193l37 -153h156v-73h-141l39 -165h149v-74zM339 200l-37 190q-6 31 -10 69h-2q-10 -41 -21 -69l-73 -190h143z" />
    <glyph glyph-name="ccedilla.sc" horiz-adv-x="431" 
d="M400 25q-49 -36 -130 -36q-102 0 -163.5 79.5t-61.5 201.5t61.5 201t163.5 79q81 0 130 -36l-28 -69q-29 22 -77 22q-61 0 -93.5 -55.5t-32.5 -139.5t33 -139.5t93 -55.5q46 0 75 22zM340 -124q0 -41 -46.5 -62t-130.5 -21q-43 0 -78 5l21 44q27 -3 51 -3q97 0 97 37
q0 29 -66 29q-29 0 -53 -2l19 40q36 4 65 4q121 0 121 -71z" />
    <glyph glyph-name="egrave.sc" horiz-adv-x="412" 
d="M367 0h-302v539h302v-74h-180v-153h163v-73h-163v-165h180v-74zM273 596h-69l-121 135q16 23 56 23q39 0 62 -17z" />
    <glyph glyph-name="eacute.sc" horiz-adv-x="412" 
d="M367 0h-302v539h302v-74h-180v-153h163v-73h-163v-165h180v-74zM343 731l-121 -135h-69l72 141q23 17 62 17q40 0 56 -23z" />
    <glyph glyph-name="ecircumflex.sc" horiz-adv-x="412" 
d="M367 0h-302v539h302v-74h-180v-153h163v-73h-163v-165h180v-74zM351 624l-37 -33l-98 79l-98 -79l-37 33l96 103q17 17 39 17t39 -17z" />
    <glyph glyph-name="edieresis.sc" horiz-adv-x="412" 
d="M367 0h-302v539h302v-74h-180v-153h163v-73h-163v-165h180v-74zM185 658q0 -22 -15.5 -38t-38.5 -16t-38.5 16t-15.5 38t15.5 38t38.5 16t38.5 -16t15.5 -38zM356 658q0 -22 -16 -38t-38 -16t-38 16t-16 38t16 38t38 16t38 -16t16 -38z" />
    <glyph glyph-name="igrave.sc" horiz-adv-x="260" 
d="M191 0h-122v539h122v-539zM192 596h-69l-121 135q16 23 56 23q39 0 62 -17z" />
    <glyph glyph-name="iacute.sc" horiz-adv-x="260" 
d="M191 0h-122v539h122v-539zM258 731l-121 -135h-69l72 141q23 17 62 17q40 0 56 -23z" />
    <glyph glyph-name="icircumflex.sc" horiz-adv-x="260" 
d="M191 0h-122v539h122v-539zM265 624l-37 -33l-98 79l-98 -79l-37 33l96 103q17 17 39 17t39 -17z" />
    <glyph glyph-name="idieresis.sc" horiz-adv-x="260" 
d="M191 0h-122v539h122v-539zM98 658q0 -22 -16 -38t-38 -16t-38 16t-16 38t16 38t38 16t38 -16t16 -38zM270 658q0 -22 -16 -38t-38 -16t-38 16t-16 38t16 38t38 16t38 -16t16 -38z" />
    <glyph glyph-name="eth.sc" horiz-adv-x="554" 
d="M509 270q0 -123 -67 -202t-196 -79q-99 0 -173 36v219h-46v67h46v203q78 36 172 36q130 0 197 -78t67 -202zM390 272q0 96 -36 152t-104 56q-36 0 -60 -9v-160h78v-67h-78v-173q21 -8 62 -8q69 0 103.5 55.5t34.5 153.5z" />
    <glyph glyph-name="ntilde.sc" horiz-adv-x="577" 
d="M512 0h-99l-213 339q-16 25 -34 62h-2q3 -41 3 -69v-332h-102v539h113l201 -316q17 -27 31 -59h2q-3 39 -3 65v310h103v-539zM429 691q-12 -91 -84 -91q-25 0 -55 20.5t-48 20.5q-32 0 -39 -41l-50 17q12 92 85 92q25 0 54.5 -20.5t47.5 -20.5q32 0 39 40z" />
    <glyph glyph-name="ograve.sc" horiz-adv-x="548" 
d="M503 270q0 -127 -59 -204t-170 -77t-170 77t-59 204q0 126 59 203t170 77t170 -77t59 -203zM380 272q0 202 -106 202t-106 -202t106 -202t106 202zM323 597h-69l-121 135q16 23 56 23q39 0 62 -17z" />
    <glyph glyph-name="oacute.sc" horiz-adv-x="548" 
d="M503 270q0 -127 -59 -204t-170 -77t-170 77t-59 204q0 126 59 203t170 77t170 -77t59 -203zM380 272q0 202 -106 202t-106 -202t106 -202t106 202zM414 732l-121 -135h-69l72 141q23 17 62 17q40 0 56 -23z" />
    <glyph glyph-name="ocircumflex.sc" horiz-adv-x="548" 
d="M503 270q0 -127 -59 -204t-170 -77t-170 77t-59 204q0 126 59 203t170 77t170 -77t59 -203zM380 272q0 202 -106 202t-106 -202t106 -202t106 202zM409 623l-37 -33l-98 79l-98 -79l-37 33l96 103q17 17 39 17t39 -17z" />
    <glyph glyph-name="otilde.sc" horiz-adv-x="548" 
d="M503 270q0 -127 -59 -204t-170 -77t-170 77t-59 204q0 126 59 203t170 77t170 -77t59 -203zM380 272q0 202 -106 202t-106 -202t106 -202t106 202zM412 692q-12 -91 -84 -91q-25 0 -55 20.5t-48 20.5q-32 0 -39 -41l-50 17q12 92 85 92q25 0 54.5 -20.5t47.5 -20.5
q32 0 39 40z" />
    <glyph glyph-name="odieresis.sc" horiz-adv-x="548" 
d="M503 270q0 -127 -59 -204t-170 -77t-170 77t-59 204q0 126 59 203t170 77t170 -77t59 -203zM380 272q0 202 -106 202t-106 -202t106 -202t106 202zM241 659q0 -23 -15.5 -38.5t-38.5 -15.5t-38.5 15.5t-15.5 38.5t15.5 38.5t38.5 15.5t38.5 -15.5t15.5 -38.5zM414 659
q0 -23 -16 -38.5t-38 -15.5t-38 15.5t-16 38.5t16 38.5t38 15.5t38 -15.5t16 -38.5z" />
    <glyph glyph-name="oslash.sc" horiz-adv-x="548" 
d="M503 270q0 -127 -59 -204t-170 -77q-81 0 -135 42l-48 -73l-34 22l53 79q-65 76 -65 211q0 126 59 203t170 77q80 0 134 -42l49 73l34 -22l-53 -79q65 -76 65 -210zM356 430q-29 50 -82 50q-113 0 -113 -208q0 -68 13 -116zM387 272q0 59 -13 111l-181 -272
q28 -47 81 -47q113 0 113 208z" />
    <glyph glyph-name="ugrave.sc" horiz-adv-x="539" 
d="M474 180q0 -90 -59 -140.5t-146 -50.5t-145.5 50.5t-58.5 140.5v359h122v-369q0 -44 25.5 -68.5t61.5 -24.5q37 0 62 24.5t25 68.5v369h113v-359zM328 596h-69l-121 135q16 23 56 23q39 0 62 -17z" />
    <glyph glyph-name="uacute.sc" horiz-adv-x="539" 
d="M474 180q0 -90 -59 -140.5t-146 -50.5t-145.5 50.5t-58.5 140.5v359h122v-369q0 -44 25.5 -68.5t61.5 -24.5q37 0 62 24.5t25 68.5v369h113v-359zM410 731l-121 -135h-69l72 141q23 17 62 17q40 0 56 -23z" />
    <glyph glyph-name="ucircumflex.sc" horiz-adv-x="539" 
d="M474 180q0 -90 -59 -140.5t-146 -50.5t-145.5 50.5t-58.5 140.5v359h122v-369q0 -44 25.5 -68.5t61.5 -24.5q37 0 62 24.5t25 68.5v369h113v-359zM409 624l-37 -33l-98 79l-98 -79l-37 33l96 103q17 17 39 17t39 -17z" />
    <glyph glyph-name="udieresis.sc" horiz-adv-x="539" 
d="M474 180q0 -90 -59 -140.5t-146 -50.5t-145.5 50.5t-58.5 140.5v359h122v-369q0 -44 25.5 -68.5t61.5 -24.5q37 0 62 24.5t25 68.5v369h113v-359zM241 658q0 -22 -15.5 -38t-38.5 -16t-38.5 16t-15.5 38t15.5 38t38.5 16t38.5 -16t15.5 -38zM413 658q0 -22 -15.5 -38
t-38.5 -16t-38.5 16t-15.5 38t15.5 38t38.5 16t38.5 -16t15.5 -38z" />
    <glyph glyph-name="yacute.sc" horiz-adv-x="483" 
d="M468 539l-165 -314v-225h-122v225l-165 314h131l99 -231h2l103 231h117zM385 731l-121 -135h-69l72 141q23 17 62 17q40 0 56 -23z" />
    <glyph glyph-name="thorn.sc" horiz-adv-x="502" 
d="M462 279q0 -81 -58 -128t-168 -47q-28 0 -50 4v-108h-119v539h119v-94q26 7 58 7q107 0 162.5 -45.5t55.5 -127.5zM345 281q0 105 -103 105q-33 0 -56 -9v-203q20 -4 48 -4q111 0 111 111z" />
    <glyph glyph-name="ydieresis.sc" horiz-adv-x="483" 
d="M468 539l-165 -314v-225h-122v225l-165 314h131l99 -231h2l103 231h117zM215 658q0 -22 -15.5 -38t-38.5 -16t-38.5 16t-15.5 38t15.5 38t38.5 16t38.5 -16t15.5 -38zM387 658q0 -22 -15.5 -38t-38.5 -16t-38.5 16t-15.5 38t15.5 38t38.5 16t38.5 -16t15.5 -38z" />
    <glyph glyph-name="dotlessi.sc" horiz-adv-x="260" 
d="M191 0h-122v539h122v-539z" />
    <glyph glyph-name="ij.sc" horiz-adv-x="524" 
d="M455 539v-447q0 -252 -216 -297v82q51 27 72.5 73.5t21.5 127.5v461h122zM191 0h-122v539h122v-539z" />
    <glyph glyph-name="lslash.sc" horiz-adv-x="394" 
d="M362 0h-288v248l-54 -24v72l54 24v219h122v-171l70 31v-71l-70 -32v-216h166v-80z" />
    <glyph glyph-name="oe.sc" horiz-adv-x="690" 
d="M645 0h-281q-38 -11 -85 -11q-116 0 -175 80.5t-59 200.5t59 200t175 80q47 0 85 -11h281v-74h-179v-153h161v-73h-161v-165h179v-74zM350 73v398q-21 6 -58 6q-65 0 -94.5 -59t-29.5 -146q0 -55 10.5 -99t39.5 -75.5t74 -31.5q38 0 58 7z" />
    <glyph glyph-name="scaron.sc" horiz-adv-x="432" 
d="M390 157q0 -71 -55 -119.5t-144 -48.5q-93 0 -156 39l34 76q50 -31 108 -31q40 0 64 21.5t24 54.5q0 30 -22.5 50.5t-54.5 34t-63.5 30t-54 49t-22.5 80.5q0 69 50.5 113t126.5 44q89 0 150 -39l-31 -69q-48 30 -96 30q-38 0 -59 -20t-21 -51q0 -29 23 -48.5t55.5 -33
t65 -30t55.5 -50t23 -82.5zM354 718l-96 -103q-17 -17 -39 -17t-39 17l-96 103l37 33l98 -79l98 79z" />
    <glyph glyph-name="zcaron.sc" horiz-adv-x="430" 
d="M393 0h-365l204 459h-187v80h342l-201 -459h207v-80zM349 716l-96 -103q-17 -17 -39 -17t-39 17l-96 103l37 33l98 -79l98 79z" />
    <glyph glyph-name="longs.sc" horiz-adv-x="432" 
d="M390 157q0 -71 -55 -119.5t-144 -48.5q-93 0 -156 39l34 76q50 -31 108 -31q40 0 64 21.5t24 54.5q0 30 -22.5 50.5t-54.5 34t-63.5 30t-54 49t-22.5 80.5q0 69 50.5 113t126.5 44q89 0 150 -39l-31 -69q-48 30 -96 30q-38 0 -59 -20t-21 -51q0 -29 23 -48.5t55.5 -33
t65 -30t55.5 -50t23 -82.5z" />
    <glyph glyph-name="florin.sc" horiz-adv-x="520" 
d="M466 535l-16 -76q-22 9 -49 9q-72 0 -85 -107l-8 -59h100v-75h-109l-33 -257q-11 -91 -59.5 -140t-130.5 -49q-49 0 -83 16l18 81q24 -10 49 -10q72 0 86 107l32 252h-86v75h96l8 64q24 184 187 184q48 0 83 -15z" />
    <glyph glyph-name="uni03BC.sc" horiz-adv-x="702" 
d="M658 0h-116l-33 348q-4 48 -4 68h-2q-9 -41 -17 -68l-107 -348h-69l-105 348q-9 31 -17 68h-2q0 -32 -3 -68l-35 -348h-104l66 539h125l99 -337q9 -30 16 -68h2q7 40 15 68l100 337h124z" />
    <glyph glyph-name="pi.sc" horiz-adv-x="556" 
d="M491 0h-122v459h-182v-459h-122v539h426v-539z" />
    <glyph glyph-name="ellipsis.sc" horiz-adv-x="798" 
d="M738 65q0 -30 -21.5 -51.5t-51.5 -21.5t-51.5 21.5t-21.5 51.5t21.5 51.5t51.5 21.5t51.5 -21.5t21.5 -51.5zM472 65q0 -30 -21.5 -51.5t-51.5 -21.5t-51.5 21.5t-21.5 51.5t21.5 51.5t51.5 21.5t51.5 -21.5t21.5 -51.5zM206 65q0 -30 -21.5 -51.5t-51.5 -21.5
t-51.5 21.5t-21.5 51.5t21.5 51.5t51.5 21.5t51.5 -21.5t21.5 -51.5z" />
    <glyph glyph-name="Euro.sc" horiz-adv-x="576" 
d="M532 22q-52 -32 -141 -32q-101 0 -164.5 55t-83.5 145h-86v45h80q-2 22 -2 35q0 23 3 44h-81v46h89q22 86 85 137.5t160 51.5q89 0 141 -32l-27 -65q-42 22 -91 22q-112 0 -148 -114h203v-46h-213q-3 -21 -3 -43q0 -12 2 -36h214v-45h-205q35 -122 150 -122q48 0 90 22z
" />
    <glyph glyph-name="uni2117.sc" horiz-adv-x="664" 
d="M614 270q0 -116 -82.5 -198.5t-199.5 -82.5t-199.5 82.5t-82.5 198.5t82.5 198t199.5 82t199.5 -82t82.5 -198zM553 270q0 95 -65 163t-156 68t-156 -68t-65 -163t65 -163t156 -68t156 68t65 163zM446 334q0 -41 -27 -67.5t-81 -26.5q-14 0 -30 2v-122h-58v290
q34 17 85 17q56 0 83.5 -25t27.5 -68zM389 334q0 60 -55 60q-14 0 -26 -4v-114q6 -1 22 -1q59 0 59 59z" />
    <glyph glyph-name="fi.sc" horiz-adv-x="666" 
d="M597 0h-122v539h122v-539zM367 465h-180v-153h161v-73h-161v-239h-122v539h302v-74z" />
    <glyph glyph-name="fl.sc" horiz-adv-x="793" 
d="M761 0h-288v539h122v-459h166v-80zM367 465h-180v-153h161v-73h-161v-239h-122v539h302v-74z" />
    <glyph glyph-name="parenleft.case" horiz-adv-x="360" 
d="M335 -136l-60 -41q-221 219 -221 521t221 521l60 -41q-75 -100 -115 -224t-40 -256t40 -256t115 -224z" />
    <glyph glyph-name="parenright.case" horiz-adv-x="360" 
d="M306 344q0 -302 -221 -521l-60 41q75 100 115 224t40 256t-40 256t-115 224l60 41q221 -219 221 -521z" />
    <glyph glyph-name="hyphen.case" horiz-adv-x="350" 
d="M297 298h-244v92h244v-92z" />
    <glyph glyph-name="bracketleft.case" horiz-adv-x="338" 
d="M296 -156h-224v1000h224v-68h-116v-863h116v-69z" />
    <glyph glyph-name="bracketright.case" horiz-adv-x="338" 
d="M266 -156h-224v69h116v863h-116v68h224v-1000z" />
    <glyph glyph-name="braceleft.case" horiz-adv-x="374" 
d="M332 -156h-25q-97 0 -148 52t-51 145v169q0 93 -68 101v69q37 4 52.5 29t15.5 71v167q0 93 51 145t148 52h25v-68q-63 0 -89.5 -31.5t-26.5 -94.5v-166q0 -56 -17 -89.5t-57 -48.5v-2q40 -15 57 -48.5t17 -89.5v-167q0 -63 26.5 -94.5t89.5 -31.5v-69z" />
    <glyph glyph-name="braceright.case" horiz-adv-x="374" 
d="M334 311q-68 -8 -68 -101v-169q0 -93 -51 -145t-148 -52h-25v69q63 0 89.5 31.5t26.5 94.5v167q0 56 17 89.5t57 48.5v2q-40 15 -57 48.5t-17 89.5v166q0 63 -26.5 94.5t-89.5 31.5v68h25q97 0 148 -52t51 -145v-167q0 -46 15.5 -71t52.5 -29v-69z" />
    <glyph glyph-name="exclamdown.case" horiz-adv-x="302" 
d="M230 623q0 -30 -21.5 -51.5t-51.5 -21.5t-51.5 21.5t-21.5 51.5t21.5 51.5t51.5 21.5t51.5 -21.5t21.5 -51.5zM229 0h-144l25 448h93z" />
    <glyph glyph-name="guillemotleft.case" horiz-adv-x="504" 
d="M450 150l-70 -40l-134 233l134 234l70 -41l-112 -193zM248 150l-70 -40l-134 233l134 234l70 -41l-112 -193z" />
    <glyph glyph-name="uni00AD.case" horiz-adv-x="350" 
d="M297 298h-244v92h244v-92z" />
    <glyph glyph-name="periodcentered.case" horiz-adv-x="266" 
d="M206 345q0 -30 -21.5 -51.5t-51.5 -21.5t-51.5 21.5t-21.5 51.5t21.5 51.5t51.5 21.5t51.5 -21.5t21.5 -51.5z" />
    <glyph glyph-name="guillemotright.case" horiz-adv-x="504" 
d="M460 343l-134 -233l-70 40l112 193l-112 193l70 41zM258 343l-134 -233l-70 40l112 193l-112 193l70 41z" />
    <glyph glyph-name="questiondown.case" horiz-adv-x="430" 
d="M320 623q0 -30 -21.5 -51.5t-51.5 -21.5t-51.5 21.5t-21.5 51.5t21.5 51.5t51.5 21.5t51.5 -21.5t21.5 -51.5zM414 28q-66 -39 -158 -39q-97 0 -154.5 44.5t-57.5 120.5q0 60 45.5 103t102.5 60l8 131h93l11 -167q-53 -11 -92.5 -41t-39.5 -75q0 -41 26 -65.5t81 -24.5
q60 0 103 25z" />
    <glyph glyph-name="endash.case" horiz-adv-x="392" 
d="M392 300h-392v88h392v-88z" />
    <glyph glyph-name="emdash.case" horiz-adv-x="784" 
d="M784 302h-784v84h784v-84z" />
    <glyph glyph-name="guilsinglleft.case" horiz-adv-x="302" 
d="M248 150l-70 -40l-134 233l134 234l70 -41l-112 -193z" />
    <glyph glyph-name="guilsinglright.case" horiz-adv-x="302" 
d="M258 343l-134 -233l-70 40l112 193l-112 193l70 41z" />
    <glyph glyph-name="zero.tf.zero" 
d="M496 344q0 -96 -21 -173t-72.5 -129.5t-129.5 -52.5t-129.5 52.5t-72.5 129.5t-21 173t21 173t72.5 129.5t129.5 52.5t129.5 -52.5t72.5 -129.5t21 -173zM371 499q-24 126 -98 126q-110 0 -110 -279q0 -38 3 -74zM383 346q0 40 -3 78l-205 -228q24 -128 98 -128
q110 0 110 278z" />
    <glyph glyph-name="pi.ss03" horiz-adv-x="616" 
d="M569 460h-68v-333q0 -24 12 -38t33 -14q10 0 17 2v-78q-20 -7 -49 -7q-62 0 -97 35.5t-35 99.5v333h-157v-460h-119v460h-70v79h533v-79z" />
    </font>
</defs>
</svg>
