<?xml version="1.0" encoding="utf-8"?>
<!DOCTYPE svg PUBLIC "-//W3C//DTD SVG 1.1//EN" "http://www.w3.org/Graphics/SVG/1.1/DTD/svg11.dtd">
<svg version="1.1" xmlns="http://www.w3.org/2000/svg" xmlns:xlink="http://www.w3.org/1999/xlink" height="0" width="0">
    <defs>
        <clipPath id="headerExtraMask">
            <path d="M1,26.155c-0.333,0.063-0.667,0.122-1,0.186v427.534c0.333-0.063,0.667-0.123,1-0.186c477.152-90.807,961.839,90.612,1439,0.186V26.341C962.848,116.79,478.144-64.671,1,26.155z"/>
        </clipPath>

        <clipPath id="curveBottom">
            <path d="M17.067,9.333C177.474,24.295,355.461,34.104,515,15.723c-12.365-1.165-41.688-3.558-54.055-4.723
                C312.945-1.09,164.325-5.399,17.067,9.333z"/>
        </clipPath>

        <clipPath id="navDrop">
            <path d="M0.052,7.293C1.042,8.204,2.473,8.52,3.374,8.641c1.826,0.244,3.731-0.354,4.95-1.798c0.999-1.184,1.528-2.723,2.503-3.945
            c1.546-1.938,4.009-3.198,6.525-2.723c4.976,0.938,7.186,6.776,4.334,10.785c-4.07,5.721-13.119,4.645-17.733,0.627
            C2.517,10.335,1.17,8.941,0.052,7.293" />
        </clipPath>

        <clipPath id="hroCarouselGradient">
            <path d="M895.758,6.878c-161.182,16.317-322.788,6.99-484.818-7.189
            c-40.684,4.121-81.589,9.872-122.173,17.597C192.699,35.573,96.5,42.817-0.5,43.47v350.007c137,6.316,274.354,21.758,411.356,33.743
            c161.162-16.314,322.66-6.984,484.665,7.188c40.721-4.121,226.979-31.215,266.979-38.945V31.195
            C1122.5,27.357,936.415,10.436,895.758,6.878z"/>
        </clipPath>

        <clipPath id="headerMask">
            <path d="M1440,0H0v43.57c0.333-0.039,0.667,0.174,1,0.135C364.507,0.814,732.387,56,1097.98,60h77.572c88.342-1,176.522-6.1,264.447-16.43V0z"/>
        </clipPath>

        <clipPath id="accessibilityMask">
            <path d="M1441,0H1v17.07c0.333-0.039,0.667,0.174,1,0.135C365.507-25.686,733.387,29.5,1098.98,33.5h77.571
    c88.343-1,176.522-6.1,264.447-16.43L1441,0z"/>
        </clipPath>

        <clipPath id="footerMask">
            <path d="M653.5,26.501C436.751,67.751,219,52.825,0,32.726V232h1440V32.726C1178,8.548,914.236-23.119,653.5,26.501z" />
        </clipPath>

        <clipPath id="contentBg">
            <path d="M1,17.386c-0.333,0.039-0.667,0.075-1,0.115V33h1440V17.501C962.848,73.579,478.144-38.926,1,17.386z"/>
        </clipPath>

        <clipPath id="cascade">

                <path d="M386.604,122.672c-0.93-4.197-3.521-7.91-7.111-10.179c-1.793-1.132-3.785-1.868-5.916-2.222
                    c1.629-2.648,2.922-4.787,3.65-5.943l-63.256-39.938c0,0-18.33,27.117-19.898,35.154c-3.08,15.779,2.328,25.896,15.535,34.566
                    l-0.018,0.025c0.039,0.023,6.443,4.068,6.482,4.094l0.018-0.026c12.863,7.808,23.879,8.639,36.059,0.44
                    c0.514,0.376,1.025,0.764,1.572,1.111c9.445,5.964,24.047,5.393,30.715-4.965C386.766,131.183,387.529,126.877,386.604,122.672z
                     M357.986,133.303c3.285-3.943,7.156-9.655,10.609-15.049c1.115-0.414,2.305-0.59,3.533-0.414c6.055,0.861,9.047,7.779,5.83,12.77
                    C373.701,137.209,363.994,137.02,357.986,133.303z"/>
                <path d="M348.242,77.395c1.521-2.202,4.145-3.429,5.84-4.064c3.434-1.287,7.379-0.973,10.387,1.287
                    c2.457,1.841,4.158,4.6,6.586,6.537c3.861,3.076,9.188,4.422,13.848,2.386c9.223-4.02,10.92-16.298,3.633-22.8
                    c-10.418-9.293-27.477-3.215-34.635,6.62C351.674,70.427,349.686,73.707,348.242,77.395"/>
                <path d="M343.738,74.58c-1.404-0.611-2.395-1.964-2.939-2.839c-1.109-1.806-1.377-4.063-0.43-6.005
                    c0.771-1.592,2.137-2.859,2.959-4.448c1.309-2.509,1.475-5.665-0.191-8.069c-3.287-4.756-10.404-4.357-13.264,0.475
                    c-4.082,6.906,1.232,15.858,7.58,18.805C339.426,73.414,341.504,74.173,343.738,74.58"/>

            <path d="M849.547,60.637c0.141-4.506,2.734-8.637,4.551-11.08c3.686-4.961,9.553-8.114,15.875-7.662
                c5.152,0.363,10.08,2.711,15.285,3.24c8.268,0.828,17.031-2.13,21.77-9.267c9.381-14.104,0.576-33.028-15.67-35.575
                c-23.223-3.643-41.812,20.527-42.965,40.979C848.041,47.645,848.219,54.1,849.547,60.637"/>
            <path d="M840.604,60.766c-2.551,0.416-5.182-0.595-6.752-1.333c-3.217-1.544-5.656-4.493-6.09-8.108
                c-0.357-2.956,0.414-5.994,0.129-8.994c-0.438-4.744-3.086-9.36-7.637-11.244c-8.99-3.727-18.701,3.334-18.336,12.781
                c0.525,13.498,16.217,21.315,27.891,19.689C833.438,63.051,837.068,62.23,840.604,60.766"/>

                <path d="M749.172,244.108c-1.252-3.012-4.656-4.458-7.588-3.241l-35.307,14.653c-2.934,1.219-4.307,4.646-3.057,7.661
                    l10.232,24.658c1.254,3.021,4.658,4.479,7.592,3.257l35.309-14.648c2.93-1.217,4.305-4.659,3.053-7.678L749.172,244.108z"/>
                <path d="M730.512,199.145c-1.256-3.005-4.66-4.454-7.596-3.24l-35.295,14.656c-2.939,1.214-4.312,4.646-3.066,7.657l10.24,24.657
                    c1.244,3.014,4.654,4.487,7.588,3.267l35.311-14.65c2.93-1.221,4.295-4.68,3.053-7.688L730.512,199.145z"/>
                <path d="M806.701,220.234c-1.25-3.014-4.654-4.46-7.588-3.243l-35.309,14.652c-2.926,1.218-4.307,4.653-3.051,7.662l10.225,24.658
                    c1.254,3.02,4.662,4.481,7.596,3.26l35.305-14.65c2.938-1.219,4.305-4.664,3.055-7.685L806.701,220.234z"/>
                <path d="M788.035,175.267c-1.248-3.006-4.652-4.453-7.584-3.238l-35.305,14.655c-2.934,1.215-4.311,4.65-3.062,7.656L752.318,219
                    c1.248,3.007,4.664,4.484,7.598,3.267l35.303-14.653c2.936-1.221,4.301-4.677,3.049-7.687L788.035,175.267z"/>
                <path d="M711.463,153.26c-1.246-3.004-4.65-4.455-7.588-3.238l-35.305,14.652c-2.93,1.219-4.301,4.654-3.055,7.664l10.234,24.668
                    c1.246,3.004,4.65,4.47,7.596,3.245l35.299-14.648c2.936-1.216,4.305-4.663,3.059-7.674L711.463,153.26z"/>
                <path d="M768.994,129.389c-1.244-3.006-4.65-4.466-7.588-3.248l-35.305,14.652c-2.93,1.219-4.309,4.66-3.057,7.663l10.236,24.672
                    c1.248,3.004,4.656,4.468,7.59,3.253l35.307-14.654c2.934-1.221,4.301-4.664,3.055-7.672L768.994,129.389z"/>
                <path d="M661.113,209.483c2.934-1.222,4.303-4.666,3.059-7.67l-10.238-24.676c-1.246-3.001-4.656-4.458-7.59-3.238l-31.395,13.028
                    c-0.004-0.024,0-0.035,0-0.053l-56.846,23.591c-4.461,1.856-6.713,6.685-5.018,10.775l46.367,111.72
                    c1.699,4.09,6.709,5.905,11.168,4.055l78.619-32.633c-0.002-0.022-0.008-0.053-0.004-0.075l9.58-3.976
                    c2.934-1.222,4.305-4.666,3.049-7.685l-10.229-24.661c-1.25-3.011-4.658-4.459-7.59-3.239l-7.32,3.034
                    c-2.041-2.88-4.297-5.612-6.729-8.196l10.158-4.218c2.936-1.218,4.303-4.675,3.055-7.686l-10.238-24.654
                    c-1.242-3.013-4.648-4.463-7.586-3.245l-31.045,12.887c-2.012-1.62-3.965-3.29-5.77-5.106c-1.072-1.078-2.025-2.226-2.963-3.368
                    c0.066-0.023,0.131-0.033,0.197-0.062L661.113,209.483z M641.672,251.132c6.324,4.149,12.301,8.086,17.26,12.774
                    c10.135,9.636,16.734,21.831,18.721,34.285l-68.762,28.54l-44.732-107.765l40.133-16.651c1.748,12.431,7.227,23.646,16.049,32.529
                    C626.832,241.366,634.373,246.329,641.672,251.132z"/>


                <path d="M89.267,235.05c-0.047-0.766-0.693-1.351-1.441-1.306l-8.992,0.539c-0.746,0.045-1.316,0.704-1.271,1.472l0.381,6.282
                    c0.047,0.767,0.691,1.357,1.438,1.311l8.994-0.543c0.746-0.046,1.317-0.708,1.271-1.477L89.267,235.05z"/>
                <path d="M88.576,223.597c-0.049-0.769-0.693-1.351-1.441-1.308l-8.993,0.545c-0.747,0.045-1.315,0.701-1.271,1.469l0.378,6.28
                    c0.049,0.767,0.693,1.359,1.443,1.313l8.99-0.543c0.747-0.046,1.318-0.71,1.272-1.479L88.576,223.597z"/>
                <path d="M103.919,234.166c-0.047-0.768-0.692-1.355-1.441-1.312l-8.992,0.545c-0.744,0.047-1.318,0.705-1.271,1.473l0.379,6.28
                    c0.049,0.771,0.694,1.358,1.44,1.311l8.993-0.542c0.748-0.045,1.316-0.709,1.272-1.472L103.919,234.166z"/>
                <path d="M103.227,222.714c-0.048-0.77-0.69-1.352-1.439-1.308l-8.993,0.543c-0.746,0.043-1.317,0.702-1.271,1.472l0.377,6.278
                    c0.051,0.768,0.695,1.358,1.443,1.313l8.99-0.541c0.751-0.047,1.318-0.713,1.275-1.478L103.227,222.714z"/>
                <path d="M87.871,211.909c-0.047-0.766-0.693-1.353-1.441-1.305l-8.991,0.54c-0.749,0.048-1.319,0.706-1.273,1.473l0.381,6.283
                    c0.045,0.765,0.69,1.357,1.438,1.309l8.992-0.544c0.749-0.044,1.318-0.707,1.273-1.475L87.871,211.909z"/>
                <path d="M102.521,211.025c-0.043-0.765-0.689-1.354-1.438-1.308l-8.993,0.546c-0.745,0.043-1.319,0.705-1.269,1.473l0.375,6.282
                    c0.048,0.763,0.693,1.351,1.441,1.307l8.993-0.543c0.746-0.048,1.316-0.707,1.271-1.474L102.521,211.025z"/>
                <path d="M72.322,220.553c0.747-0.045,1.318-0.71,1.274-1.473l-0.381-6.285c-0.047-0.767-0.692-1.352-1.441-1.308l-7.995,0.482
                    c0.004-0.004,0.004-0.005,0.006-0.01l-14.479,0.873c-1.138,0.068-2.011,0.969-1.948,2.013l1.717,28.453
                    c0.062,1.043,1.041,1.831,2.178,1.767l20.02-1.21c0.005-0.009,0.005-0.014,0.008-0.017l2.439-0.148
                    c0.749-0.048,1.319-0.708,1.272-1.475l-0.38-6.281c-0.044-0.768-0.69-1.354-1.44-1.307l-1.864,0.111
                    c-0.231-0.799-0.525-1.582-0.865-2.345l2.587-0.154c0.746-0.047,1.318-0.713,1.274-1.478l-0.381-6.281
                    c-0.044-0.767-0.691-1.353-1.44-1.308l-7.907,0.479c-0.322-0.519-0.631-1.041-0.891-1.582c-0.156-0.321-0.282-0.652-0.4-0.977
                    c0.016,0,0.031,0,0.049,0.001L72.322,220.553z M64.783,228.328c1.088,1.413,2.117,2.748,2.861,4.177
                    c1.514,2.926,2.044,6.151,1.525,9.078l-17.514,1.058l-1.658-27.447l10.223-0.617c-0.568,2.904-0.215,5.825,1.067,8.482
                    C62.23,225.009,63.529,226.695,64.783,228.328z"/>


                <path d="M324.957,210.371c0.658-1.214,0.229-2.719-0.953-3.36l-14.227-7.715c-1.186-0.643-2.678-0.185-3.338,1.035l-5.391,9.935
                    c-0.662,1.215-0.232,2.728,0.951,3.37l14.227,7.72c1.184,0.637,2.682,0.173,3.34-1.043L324.957,210.371z"/>
                <path d="M334.787,192.253c0.654-1.212,0.227-2.72-0.957-3.363l-14.223-7.714c-1.186-0.646-2.684-0.178-3.34,1.03l-5.389,9.941
                    c-0.664,1.212-0.236,2.729,0.949,3.366l14.223,7.718c1.186,0.643,2.688,0.169,3.348-1.043L334.787,192.253z"/>
                <path d="M348.145,222.948c0.654-1.214,0.227-2.719-0.955-3.36l-14.227-7.717c-1.182-0.642-2.68-0.18-3.34,1.033l-5.393,9.938
                    c-0.656,1.216-0.23,2.726,0.953,3.368l14.227,7.715c1.186,0.646,2.684,0.18,3.342-1.04L348.145,222.948z"/>
                <path d="M357.969,204.828c0.662-1.211,0.23-2.72-0.951-3.361l-14.225-7.717c-1.184-0.641-2.686-0.18-3.34,1.036l-5.391,9.937
                    c-0.656,1.211-0.234,2.728,0.947,3.37l14.229,7.715c1.184,0.644,2.686,0.17,3.34-1.044L357.969,204.828z"/>
                <path d="M344.816,173.762c0.658-1.215,0.229-2.722-0.955-3.361l-14.229-7.717c-1.182-0.641-2.68-0.178-3.338,1.035l-5.389,9.94
                    c-0.662,1.212-0.234,2.721,0.953,3.363l14.227,7.714c1.18,0.646,2.68,0.176,3.336-1.035L344.816,173.762z"/>
                <path d="M368,186.337c0.658-1.213,0.23-2.721-0.955-3.361l-14.225-7.722c-1.184-0.638-2.682-0.173-3.34,1.04l-5.393,9.94
                    c-0.656,1.214-0.23,2.722,0.955,3.362l14.227,7.718c1.188,0.644,2.682,0.175,3.34-1.038L368,186.337z"/>
                <path d="M312.896,172.166c1.182,0.64,2.686,0.174,3.342-1.034l5.393-9.948c0.658-1.209,0.229-2.72-0.955-3.36l-12.652-6.858
                    c0.006-0.012,0.012-0.014,0.016-0.016l-22.906-12.43c-1.801-0.975-3.99-0.427-4.885,1.221l-24.42,45.024
                    c-0.893,1.646-0.158,3.782,1.645,4.757l31.68,17.185c0.008-0.012,0.016-0.019,0.027-0.026l3.863,2.1
                    c1.182,0.641,2.68,0.171,3.336-1.046l5.393-9.934c0.656-1.216,0.227-2.723-0.955-3.366l-2.951-1.602
                    c0.408-1.437,0.707-2.909,0.906-4.396l4.1,2.221c1.178,0.642,2.682,0.175,3.342-1.042l5.385-9.938
                    c0.662-1.211,0.23-2.719-0.953-3.361l-12.514-6.784c0-1.099,0.033-2.183,0.145-3.264c0.07-0.639,0.197-1.258,0.32-1.873
                    c0.025,0.02,0.045,0.039,0.078,0.053L312.896,172.166z M294.01,176.861c0.318,3.188,0.617,6.203,0.395,9.085
                    c-0.473,5.902-2.729,11.319-6.299,15.295l-27.711-15.029l23.555-43.436l16.172,8.774c-3.629,3.888-5.863,8.68-6.432,13.949
                    C293.273,169.375,293.65,173.178,294.01,176.861z"/>

            <path d="M237.51,186.556l0.002-0.003c1.439-0.757,2.301-2.493,1.707-4.227c-0.236-0.679-0.705-1.218-1.289-1.596l0.012-0.155
                c1.439-0.761,2.303-2.492,1.707-4.225c-0.236-0.688-0.705-1.218-1.291-1.599l0.012-0.159c1.443-0.758,2.305-2.492,1.705-4.222
                c-0.232-0.685-0.705-1.218-1.287-1.598l0.012-0.157c1.441-0.759,2.299-2.492,1.707-4.224c-0.236-0.68-0.705-1.219-1.291-1.596
                l0.012-0.16c1.439-0.763,2.307-2.491,1.707-4.225c-0.234-0.682-0.703-1.217-1.289-1.6l0.014-0.154
                c1.439-0.756,2.301-2.489,1.705-4.22c-0.236-0.683-0.705-1.221-1.285-1.6l0.002-0.022v-0.096c1.059-0.342,1.982-1.082,2.355-2.168
                c0.885-2.586-1.262-5.182-3.902-4.916c-1.314,0.129-2.387,0.782-3.219,1.69c-0.285-0.71-0.775-1.327-1.484-1.688
                c-1.686-0.868-3.586-0.196-4.516,1.212c-0.285-0.691-0.771-1.287-1.465-1.646c-1.68-0.864-3.586-0.19-4.516,1.213
                c-0.285-0.688-0.77-1.286-1.457-1.641c-1.689-0.864-3.592-0.192-4.523,1.216c-0.281-0.691-0.768-1.291-1.457-1.645
                c-1.688-0.865-3.59-0.194-4.52,1.213c-0.285-0.688-0.77-1.288-1.459-1.64c-1.684-0.868-3.586-0.196-4.52,1.211
                c-0.281-0.69-0.77-1.288-1.461-1.644c-1.682-0.863-3.59-0.194-4.516,1.215c-0.287-0.691-0.77-1.291-1.463-1.645
                c-1.682-0.86-3.588-0.193-4.516,1.217c-0.287-0.689-0.771-1.293-1.459-1.646c-1.688-0.863-3.59-0.194-4.52,1.216
                c-0.287-0.693-0.771-1.291-1.461-1.645c-1.658-0.852-3.529-0.211-4.471,1.154c-0.691-0.965-1.637-1.713-2.866-2.021
                c-2.577-0.639-5.078,1.631-4.567,4.313c0.219,1.126,1.025,1.99,2.02,2.481l-0.006,0.095l-0.002,0.066
                c-0.6,0.292-1.108,0.745-1.428,1.358c-0.822,1.6-0.254,3.4,1.016,4.372l-0.019,0.247c-0.595,0.291-1.11,0.742-1.425,1.356
                c-0.822,1.603-0.257,3.401,1.014,4.372l-0.02,0.248c-0.598,0.293-1.107,0.744-1.421,1.359c-0.825,1.602-0.257,3.398,1.008,4.372
                l-0.015,0.243c-0.598,0.301-1.107,0.752-1.426,1.361c-0.82,1.603-0.254,3.402,1.014,4.372l-0.019,0.248
                c-0.597,0.294-1.106,0.744-1.427,1.363c-0.817,1.598-0.252,3.398,1.016,4.372l-0.016,0.242c-0.598,0.298-1.11,0.749-1.426,1.361
                c-0.822,1.601-0.256,3.401,1.014,4.37l-0.002,0.036l-0.002,0.016c-1.055,0.345-1.98,1.081-2.355,2.166
                c-0.891,2.585,1.263,5.185,3.904,4.923c1.302-0.133,2.396-1.05,3.228-2.021c0.777,1.41,2.484,2.247,4.2,1.655
                c0.73-0.25,1.301-0.773,1.678-1.419c0.719,1.526,2.51,2.464,4.299,1.848c0.736-0.252,1.299-0.774,1.681-1.42
                c0.719,1.529,2.511,2.465,4.298,1.85c0.732-0.25,1.301-0.773,1.68-1.419c0.721,1.528,2.51,2.466,4.299,1.851
                c0.732-0.254,1.299-0.779,1.68-1.424c0.719,1.53,2.51,2.462,4.301,1.854c0.73-0.256,1.299-0.778,1.678-1.421
                c0.717,1.525,2.51,2.464,4.299,1.847c0.73-0.248,1.301-0.773,1.68-1.42c0.717,1.529,2.508,2.468,4.301,1.851
                c0.73-0.252,1.297-0.777,1.68-1.421c0.713,1.525,2.508,2.464,4.295,1.85c0.736-0.25,1.301-0.775,1.682-1.418
                c0.717,1.523,2.51,2.463,4.299,1.845c0.701-0.241,1.254-0.735,1.635-1.346c0.689,1.123,1.668,2.252,2.977,2.576
                c2.582,0.638,5.076-1.627,4.566-4.314C239.316,187.907,238.508,187.042,237.51,186.556z M184.197,181.496
                c-1.252-0.085-2.194-1.18-2.102-2.429c0.086-1.246,1.176-2.192,2.428-2.102c1.251,0.088,2.194,1.176,2.104,2.426
                C186.537,180.646,185.45,181.589,184.197,181.496z M184.887,171.88c-1.249-0.088-2.197-1.177-2.104-2.432
                c0.091-1.247,1.178-2.19,2.43-2.1c1.253,0.089,2.191,1.177,2.105,2.427C187.228,171.023,186.14,171.968,184.887,171.88z
                 M185.578,162.262c-1.25-0.086-2.191-1.178-2.106-2.428c0.091-1.251,1.183-2.197,2.434-2.105c1.25,0.09,2.191,1.181,2.103,2.431
                C187.917,161.408,186.83,162.355,185.578,162.262z M186.268,152.645c-1.249-0.091-2.196-1.181-2.106-2.428
                c0.092-1.251,1.181-2.195,2.435-2.103c1.247,0.088,2.191,1.179,2.1,2.429C188.607,151.791,187.517,152.733,186.268,152.645z
                 M195.158,182.284c-1.252-0.09-2.196-1.178-2.105-2.429c0.092-1.249,1.18-2.198,2.432-2.104c1.248,0.092,2.191,1.18,2.104,2.43
                C197.498,181.431,196.41,182.376,195.158,182.284z M195.848,172.666c-1.248-0.086-2.193-1.181-2.105-2.432
                c0.09-1.248,1.182-2.19,2.432-2.1c1.252,0.088,2.193,1.178,2.105,2.426C198.191,171.811,197.102,172.759,195.848,172.666z
                 M196.539,163.051c-1.25-0.09-2.193-1.177-2.105-2.428c0.088-1.254,1.18-2.199,2.432-2.107c1.25,0.089,2.195,1.178,2.102,2.43
                C198.879,162.194,197.789,163.135,196.539,163.051z M197.23,153.432c-1.25-0.09-2.195-1.18-2.109-2.428
                c0.094-1.252,1.18-2.192,2.436-2.105c1.246,0.093,2.191,1.18,2.1,2.432C199.568,152.578,198.479,153.523,197.23,153.432z
                 M206.121,183.074c-1.252-0.094-2.195-1.182-2.109-2.431c0.092-1.252,1.182-2.196,2.432-2.107c1.25,0.093,2.193,1.184,2.102,2.432
                C208.459,182.218,207.369,183.161,206.121,183.074z M206.809,173.455c-1.25-0.093-2.193-1.181-2.105-2.432
                c0.088-1.25,1.182-2.193,2.432-2.102c1.252,0.086,2.193,1.176,2.104,2.425C209.146,172.599,208.061,173.543,206.809,173.455z
                 M207.496,163.836c-1.246-0.086-2.191-1.18-2.102-2.427c0.092-1.251,1.18-2.198,2.432-2.108c1.25,0.09,2.193,1.182,2.102,2.43
                C209.84,162.981,208.75,163.928,207.496,163.836z M208.189,154.217c-1.25-0.089-2.195-1.177-2.104-2.428
                c0.088-1.249,1.176-2.193,2.43-2.106c1.25,0.093,2.195,1.183,2.105,2.432C210.529,153.362,209.438,154.311,208.189,154.217z
                 M217.08,183.858c-1.254-0.091-2.197-1.18-2.104-2.431c0.09-1.249,1.178-2.194,2.432-2.105c1.246,0.092,2.193,1.183,2.102,2.431
                C219.42,183.004,218.332,183.95,217.08,183.858z M217.768,174.241c-1.25-0.089-2.191-1.184-2.102-2.434
                c0.092-1.248,1.18-2.19,2.426-2.101c1.256,0.089,2.197,1.181,2.107,2.425C220.111,173.388,219.02,174.33,217.768,174.241z
                 M218.459,164.62c-1.25-0.089-2.189-1.175-2.102-2.425c0.09-1.252,1.178-2.196,2.43-2.109c1.252,0.092,2.191,1.184,2.105,2.435
                C220.801,163.771,219.709,164.713,218.459,164.62z M219.15,155.004c-1.25-0.086-2.197-1.178-2.104-2.426
                c0.092-1.251,1.18-2.194,2.428-2.107c1.25,0.09,2.197,1.181,2.105,2.431C221.49,154.151,220.402,155.097,219.15,155.004z
                 M228.041,184.645c-1.252-0.089-2.197-1.18-2.102-2.431c0.086-1.251,1.176-2.195,2.424-2.104c1.252,0.092,2.197,1.182,2.107,2.433
                C230.379,183.789,229.293,184.737,228.041,184.645z M228.727,175.026c-1.248-0.09-2.189-1.18-2.1-2.431
                c0.09-1.247,1.178-2.19,2.432-2.102c1.248,0.092,2.191,1.179,2.104,2.425C231.072,174.174,229.982,175.116,228.727,175.026z
                 M229.42,165.41c-1.248-0.088-2.191-1.178-2.102-2.43c0.092-1.252,1.176-2.193,2.428-2.106c1.25,0.091,2.193,1.185,2.105,2.432
                C231.762,164.555,230.672,165.498,229.42,165.41z M230.111,155.789c-1.25-0.086-2.193-1.175-2.104-2.427
                c0.092-1.249,1.18-2.195,2.426-2.103c1.254,0.088,2.197,1.18,2.109,2.428C232.449,154.941,231.365,155.883,230.111,155.789z"/>

                <path d="M136.79,178.551c-9.132-4.509-18.227-6.237-28.109-6.237l-2.525,5.115c-0.001,0.004,0.001,0.002,0,0.004l-0.312,0.635
                    c0.928,1.477,2.018,2.931,3.237,4.353l2.497-5.056l6.122,3.023l-3.533,7.154c0.781,0.685,1.588,1.355,2.421,2.009l3.856-7.808
                    l6.123,3.027l-4.322,8.748c0.869,0.54,1.745,1.068,2.639,1.569l4.428-8.963l6.123,3.022l-4.436,8.975
                    c0.955,0.406,1.904,0.788,2.855,1.135l4.324-8.751l6.123,3.023l-3.821,7.734c1.028,0.244,2.058,0.462,3.093,0.651l3.475-7.029
                    l6.12,3.023l-2.416,4.894c1.739,0.117,3.503,0.18,5.298,0.182l0.36-0.73l0.001,0.003l2.479-5.015
                    C154.297,189.904,145.964,183.087,136.79,178.551z"/>
                <path d="M125.458,198.544c-9.092-4.489-16.188-10.546-20.97-17.739l-8.45,17.108l50.254,24.82l8.459-17.118
                    C144.859,205.46,134.548,203.036,125.458,198.544z M123.35,206.021c-1.414-0.697-2.851-1.286-4.298-1.795
                    c1.268-1.929,3.799-2.654,5.918-1.606c2.113,1.046,3.076,3.481,2.332,5.653C126.025,207.448,124.708,206.691,123.35,206.021z"/>


                <path d="M471.584,301.48c-6.91-0.346-12.713,2.974-12.932,7.39c-0.223,4.421,5.225,8.295,12.139,8.638
                    c6.914,0.347,12.717-2.975,12.932-7.392C483.943,305.695,478.498,301.821,471.584,301.48z"/>
                <path d="M502.242,281.296c-7.518-8.312-17.842-13.2-29.072-13.755c-11.213-0.558-21.965,3.273-30.27,10.787
                    c-17.178,15.547-18.516,42.17-2.973,59.347c7.523,8.314,17.854,13.206,29.082,13.761c0,0,0.002-0.004,0.008,0.003
                    c11.209,0.553,21.953-3.281,30.258-10.791c8.309-7.516,13.197-17.836,13.758-29.063
                    C513.6,300.363,509.764,289.606,502.242,281.296z M491.406,282.55l5.512,1.71c0.801,0.242,1.514,1.128,1.594,1.959l0.537,5.672
                    c0.076,0.832-0.287,0.981-0.816,0.333l-7.311-8.947C490.389,282.629,490.609,282.304,491.406,282.55z M489.064,293.932
                    c0.697-0.633,1.771-0.578,2.404,0.117c0.625,0.704,0.574,1.773-0.121,2.411c-0.693,0.627-1.779,0.571-2.402-0.118
                    C488.314,295.639,488.365,294.568,489.064,293.932z M464.494,284.188c0.086-0.554,0.398-0.745,0.617-0.812
                    c0.135-0.065,4.082-0.635,5.348-4.177c0,0,0.227-0.937,0.861-1.183c0.021-0.007,0.398-0.074,0.471-0.066
                    c0.074-0.002,0.439,0.102,0.459,0.114c0.613,0.303,0.742,1.256,0.742,1.256c0.91,3.656,4.787,4.615,4.914,4.689
                    c0.207,0.086,0.498,0.309,0.535,0.865c0.006,0.07-0.004,0.226-0.016,0.287c-0.092,0.552-0.404,0.745-0.617,0.813
                    c-0.129,0.062-4.086,0.633-5.354,4.18c0,0-0.221,0.932-0.859,1.178c-0.023,0.011-0.396,0.077-0.471,0.065
                    c-0.072,0.005-0.439-0.1-0.461-0.112c-0.615-0.311-0.742-1.257-0.742-1.257c-0.912-3.654-4.783-4.61-4.912-4.688
                    c-0.203-0.09-0.5-0.309-0.529-0.868C464.475,284.409,464.48,284.253,464.494,284.188z M443.875,289.083l1.707-5.507
                    c0.246-0.799,1.125-1.514,1.959-1.596l5.674-0.535c0.836-0.074,0.984,0.294,0.336,0.815l-8.951,7.309
                    C443.955,290.101,443.629,289.882,443.875,289.083z M442.082,314.878c-0.021,0.004-0.396,0.072-0.473,0.06
                    c-0.07,0.01-0.439-0.097-0.455-0.105c-0.621-0.307-0.748-1.261-0.748-1.261c-0.904-3.65-4.785-4.61-4.914-4.686
                    c-0.203-0.084-0.498-0.315-0.531-0.871c-0.01-0.065,0.002-0.218,0.012-0.282c0.09-0.552,0.406-0.751,0.617-0.815
                    c0.137-0.065,4.088-0.631,5.35-4.173c0,0,0.227-0.941,0.863-1.186c0.025-0.008,0.404-0.072,0.475-0.062
                    c0.074-0.004,0.439,0.097,0.459,0.107c0.611,0.307,0.74,1.266,0.74,1.266c0.914,3.652,4.783,4.602,4.912,4.681
                    c0.207,0.083,0.502,0.312,0.531,0.876c0.006,0.062,0,0.217-0.014,0.277c-0.086,0.551-0.404,0.752-0.613,0.814
                    c-0.135,0.07-4.086,0.636-5.354,4.174C442.939,313.692,442.719,314.632,442.082,314.878z M450.408,336.62l-5.508-1.707
                    c-0.797-0.247-1.512-1.128-1.59-1.959l-0.543-5.678c-0.08-0.83,0.291-0.979,0.814-0.333l7.322,8.949
                    C451.428,336.538,451.209,336.867,450.408,336.62z M454.098,324.718c-0.697,0.625-1.777,0.574-2.404-0.127
                    c-0.629-0.693-0.576-1.77,0.123-2.402c0.689-0.627,1.77-0.574,2.404,0.118C454.85,323.004,454.791,324.084,454.098,324.718z
                     M455.59,294.684c-0.701,0.631-1.777,0.579-2.408-0.116c-0.627-0.701-0.578-1.776,0.121-2.411
                    c0.693-0.629,1.771-0.575,2.406,0.119C456.336,292.977,456.281,294.056,455.59,294.684z M475.895,336.022
                    c-0.09,0.557-0.404,0.746-0.617,0.818c-0.133,0.062-4.086,0.626-5.354,4.173c0,0-0.219,0.939-0.857,1.178
                    c-0.025,0.008-0.4,0.079-0.473,0.064c-0.072,0.005-0.438-0.101-0.461-0.103c-0.609-0.309-0.74-1.265-0.74-1.265
                    c-0.908-3.652-4.785-4.609-4.916-4.684c-0.203-0.09-0.494-0.315-0.529-0.874c-0.004-0.062,0.006-0.218,0.016-0.285
                    c0.09-0.555,0.402-0.749,0.613-0.814c0.137-0.064,4.09-0.632,5.355-4.176c0,0,0.221-0.933,0.857-1.182
                    c0.021-0.007,0.402-0.07,0.473-0.061c0.074-0.002,0.436,0.098,0.459,0.109c0.615,0.307,0.738,1.259,0.738,1.259
                    c0.912,3.648,4.791,4.608,4.918,4.688c0.201,0.085,0.502,0.31,0.531,0.866C475.912,335.803,475.908,335.961,475.895,336.022z
                     M470.686,319.638c-8.088-0.404-14.438-5.279-14.158-10.872c0.275-5.588,7.076-9.812,15.164-9.413
                    c8.082,0.402,14.438,5.277,14.162,10.865C485.578,315.812,478.771,320.037,470.686,319.638z M487.576,323.963
                    c0.695-0.627,1.771-0.576,2.406,0.118c0.629,0.695,0.57,1.773-0.127,2.406c-0.691,0.629-1.771,0.576-2.398-0.118
                    C486.824,325.669,486.881,324.595,487.576,323.963z M497.949,330.084l-1.717,5.508c-0.248,0.796-1.127,1.517-1.965,1.592
                    l-5.664,0.537c-0.836,0.077-0.986-0.287-0.338-0.818l8.951-7.308C497.863,329.065,498.191,329.285,497.949,330.084z
                     M506.77,311.886c-0.133,0.068-4.086,0.639-5.35,4.179c0,0-0.225,0.935-0.859,1.19c-0.021,0.002-0.402,0.068-0.471,0.057
                    c-0.074,0.006-0.438-0.101-0.459-0.107c-0.619-0.307-0.742-1.264-0.742-1.264c-0.914-3.648-4.785-4.611-4.918-4.691
                    c-0.197-0.079-0.494-0.305-0.527-0.862c-0.002-0.065,0.004-0.228,0.016-0.286c0.09-0.555,0.4-0.745,0.611-0.816
                    c0.133-0.059,4.084-0.63,5.354-4.17c0,0,0.219-0.938,0.854-1.188c0.021-0.006,0.402-0.073,0.48-0.059
                    c0.068-0.007,0.436,0.099,0.455,0.105c0.617,0.308,0.742,1.266,0.742,1.266c0.91,3.649,4.785,4.609,4.914,4.679
                    c0.203,0.09,0.498,0.319,0.533,0.875c0.004,0.064,0,0.22-0.016,0.287C507.297,311.627,506.984,311.823,506.77,311.886z"/>
                <path d="M554.648,282.939c-13.43-19.46-37.568-27.211-59.092-20.827c-19.184-9.886-43.326-7.485-60.254,7.827
                    c-21.799,19.729-23.49,53.522-3.764,75.331c14.201,15.7,35.693,20.969,54.748,15.335c16.941,8.709,38.025,8.07,54.764-3.489
                    C565.25,340.415,571.348,307.136,554.648,282.939z M468.877,354.209l-0.008-0.002c-11.967-0.594-22.98-5.798-31.002-14.666
                    c-16.566-18.316-15.148-46.703,3.168-63.274c8.852-8.011,20.318-12.095,32.271-11.502c11.971,0.591,22.982,5.8,30.998,14.669
                    c8.02,8.86,12.105,20.33,11.504,32.288c-0.598,11.963-5.807,22.967-14.67,30.984C492.289,350.717,480.826,354.799,468.877,354.209
                    z M535.213,348.67c-10.883,7.516-24.039,9.312-35.893,6.054c2.633-1.646,5.164-3.528,7.547-5.683
                    c21.799-19.733,23.498-53.52,3.768-75.331c-1.076-1.193-2.209-2.312-3.369-3.385c14.834-1.181,29.891,5.335,38.924,18.439
                    C559.682,308.312,554.762,335.179,535.213,348.67z"/>




                        <path d="M406.861,183.456c-1.775-0.507-3.162-1.942-3.939-2.902c-1.598-1.952-2.264-4.594-1.461-7.045
                            c0.658-2.011,2.076-3.719,2.797-5.747c1.15-3.182,0.85-6.941-1.5-9.523c-4.652-5.119-13.023-3.52-15.65,2.666
                            c-3.748,8.834,3.977,18.603,11.965,21.084C401.561,182.764,404.139,183.324,406.861,183.456"/>


                        <path d="M406.92,183.226c-1.795-0.428-3.705,0.161-4.867,0.615c-2.332,0.933-4.207,2.903-4.693,5.436
                            c-0.406,2.083,0.002,4.266-0.35,6.373c-0.553,3.346-2.646,6.488-5.959,7.604c-6.557,2.191-13.086-3.283-12.359-9.957
                            c1.027-9.547,12.523-14.302,20.711-12.583C401.953,181.25,404.484,182.017,406.92,183.226"/>




                        <path d="M520.375,211.677c1.795,0.426,3.695-0.157,4.852-0.613c2.344-0.924,4.209-2.896,4.707-5.439
                            c0.404-2.075,0-4.263,0.342-6.378c0.559-3.339,2.652-6.48,5.965-7.6c6.561-2.194,13.086,3.284,12.365,9.956
                            c-1.041,9.548-12.535,14.312-20.721,12.597C525.334,213.658,522.805,212.886,520.375,211.677"/>


                        <path d="M520.436,211.458c1.77,0.498,3.154,1.934,3.932,2.897c1.602,1.945,2.27,4.588,1.467,7.037
                            c-0.664,2.011-2.076,3.721-2.807,5.742c-1.145,3.183-0.848,6.949,1.504,9.543c4.66,5.106,13.021,3.508,15.648-2.68
                            c3.744-8.826-3.977-18.599-11.959-21.089C525.729,212.144,523.15,211.578,520.436,211.458"/>



                    <path d="M436.289,183.853c5.363-0.954,10.438-2.953,15.797-5.068c4.938-1.95,10.029-3.954,15.381-5.078
                        c8.574-1.797,17.41-1.661,25.535,0.417c5.98,1.536,11.422,4.075,16.125,7.499c-7.383-9.906-18.58-19.644-35.336-23.926
                        c-32.857-8.394-57.09,11.869-64.789,19.467C417.045,182.992,426.928,185.538,436.289,183.853z"/>
                    <path d="M513.309,193.676c-5.453-6.536-13.008-11.185-21.863-13.443c-7.574-1.936-15.807-2.073-23.826-0.385
                        c-5.033,1.057-9.98,3.016-14.764,4.893c-5.301,2.095-10.789,4.251-16.525,5.276c-10.516,1.892-21.611-1.009-30.529-7.617
                        c0.229,1.112,8.912,41.646,48.457,51.749c40.1,10.243,67.377-22.212,67.377-22.212s-1.045-5.15-4.133-12.258
                        C516.275,197.59,514.877,195.583,513.309,193.676z"/>


            <path d="M-0.79,222.088c1.466-1.699,3.776-2.493,5.246-2.867c2.984-0.752,6.25-0.135,8.549,2.034
                c1.887,1.771,3.053,4.216,4.905,6.062c2.939,2.918,7.251,4.532,11.334,3.266c8.069-2.511,10.628-12.6,5.127-18.701
                c-7.841-8.719-22.636-5.214-29.515,2.347C2.71,216.576,0.749,219.144-0.79,222.088"/>
            <path d="M165.144,197.319c0.711,2.626,2.817,4.703,4.23,5.877c2.863,2.39,6.754,3.419,10.398,2.258
                c2.988-0.945,5.539-3.007,8.53-4.053c4.738-1.647,10.292-1.153,14.087,2.369c7.494,6.968,5.01,19.324-4.191,23.105
                c-13.128,5.416-27.453-6.16-31.004-18.014C166.082,205.169,165.282,201.345,165.144,197.319"/>
            <path d="M750.193,38.281c0.094,6.929-3.611,13.485-6.246,17.363c-5.355,7.854-14.156,13.105-23.908,12.803
                c-7.979-0.222-15.676-3.49-23.736-3.957c-12.762-0.723-26.027,4.381-32.867,15.666c-13.488,22.324,1.256,50.859,26.455,53.692
                c35.957,4.087,62.959-34.31,63.365-65.847C753.395,58.169,752.672,48.236,750.193,38.281"/>
            <path d="M754.852,305.338c5.523-3.81,12.793-4.355,17.332-4.323c9.201,0.081,18.166,4.335,23.172,12.343
                c4.117,6.539,5.631,14.494,9.594,21.23c6.291,10.655,17.535,18.581,30.297,18.013c25.225-1.166,40.248-28.391,28.963-50.191
                c-16.068-31.133-61.5-32.187-87.094-15.538C769.129,292.053,761.527,297.98,754.852,305.338"/>
            <path d="M402.568,286.415c1.102-4.074-0.096-8.501-1.066-11.18c-1.973-5.439-6.371-9.861-12.168-11.155
                c-4.738-1.071-9.77-0.303-14.596-1.243c-7.629-1.495-14.684-6.505-17.018-14.19c-4.59-15.195,8.404-29.801,23.688-27.673
                c21.82,3.01,31.959,29.719,27.443,48.375C407.451,275.166,405.531,280.919,402.568,286.415"/>
            <path d="M911,240.93c-3.559,1.831-6.867,4.36-9.67,7.468c-2.162,2.396-3.883,5.107-5.543,7.731
                c-1.768,2.795-3.434,5.426-5.58,7.671c-0.264,0.286-0.574,0.505-0.857,0.771l-14.049-39.003L911,217.644v-10.161l-39.088,8.672
                l-8.049-22.336l-40.59-5.731l-1.027,7.204l36.258,5.123l6.242,17.331l-21.002,4.657l42.846,112.271l24.41-5.416V240.93z
                 M880.355,269.282c-2.566,0.565-5.311,0.666-7.996,0.281l-15.252-39.966l11.031-2.446l14.895,41.345
                C882.17,268.806,881.268,269.076,880.355,269.282z"/>
            <path d="M911,72.333L789.178,73.52c0,0-1.182,55.101,3.936,67.904c10.043,25.14,26.932,34.516,53.533,34.731l0.217,0.054
                c0.078,0,12.137-0.124,13.137-0.126v-0.054c25-0.692,41.447-9.572,51.199-32.289c0.007,0-0.206,0.001-0.199,0.001V72.333z"/>
        </clipPath>
    </defs>
</svg>