<?xml version="1.0" standalone="no"?>
<!DOCTYPE svg PUBLIC "-//W3C//DTD SVG 1.1//EN" "http://www.w3.org/Graphics/SVG/1.1/DTD/svg11.dtd" >
<svg xmlns="http://www.w3.org/2000/svg">
<metadata></metadata>
<defs>
<font id="bupaquantamediumregular" horiz-adv-x="1350" vert-adv-y="2048" >
<font-face units-per-em="2048" ascent="1536" descent="-512" />
<missing-glyph horiz-adv-x="510" />
<glyph horiz-adv-x="2048" vert-adv-y="0" />
<glyph horiz-adv-x="2048" vert-adv-y="0" />
<glyph unicode="&#xd;" horiz-adv-x="2048" vert-adv-y="0" />
<glyph unicode=" " horiz-adv-x="510" vert-adv-y="2458" />
<glyph unicode="!" horiz-adv-x="541" vert-adv-y="2458" d="M158 1487h225l-24 -1211h-181zM172 -18v199h190v-199h-190z" />
<glyph unicode="&#x22;" horiz-adv-x="592" vert-adv-y="2458" d="M86 1077v479h123l-25 -479h-98zM379 1077v479h127l-27 -479h-100z" />
<glyph unicode="#" horiz-adv-x="1294" vert-adv-y="2458" d="M102 516v182l217 -10l27 291l-201 -8v180l211 -8l19 293h202l-41 -299h291l15 299h202l-40 -293l188 8v-178l-211 6l-31 -291l199 10v-182l-209 8l-14 -295h-203l41 303h-289l-17 -303h-202l41 295zM483 684h303l27 301h-301z" />
<glyph unicode="$" horiz-adv-x="1008" vert-adv-y="2458" d="M80 152v219q140 -115 346 -115q264 0 264 190q0 80 -61 140q-34 34 -165 100l-72 37q-103 52 -110 55q-67 31 -116 94q-72 91 -72 223q0 214 194 308q77 38 163 39l-15 160h162l-12 -157q134 -3 272 -52v-194q-128 80 -290 80q-241 0 -241 -183q0 -106 99 -172 q26 -17 146 -71q43 -19 55 -24q63 -29 73 -33q84 -36 118 -68q110 -102 110 -268q0 -232 -203 -333q-85 -41 -176 -43l20 -203h-155l6 191q-185 2 -340 80z" />
<glyph unicode="%" horiz-adv-x="1313" vert-adv-y="2458" d="M66 0l969 1493h186l-965 -1493h-190zM82 1206q0 140 78 221q79 82 230 82q306 0 306 -299q0 -143 -83 -229q-82 -86 -222 -86q-143 0 -226 86q-83 84 -83 225zM234 1205q0 -185 155 -185q152 0 152 186q0 179 -152 179q-155 0 -155 -180zM637 301q0 303 304 303 q176 0 250 -106q55 -79 55 -199q0 -142 -82 -227q-82 -84 -221 -84t-222 84q-84 85 -84 229zM789 294q0 -185 156 -185q151 0 151 185q0 179 -152 179q-155 0 -155 -179z" />
<glyph unicode="&#x26;" horiz-adv-x="1401" vert-adv-y="2458" d="M49 448q0 209 163 349q58 49 181 119q-64 105 -84 139q-43 76 -43 165q0 163 127 234q106 60 277 60q156 0 248 -78q92 -79 92 -196q0 -116 -118 -223q-72 -66 -214 -142q105 -175 317 -455q112 169 117 268l-178 4v123l418 -2v-121l-76 -2q-7 -110 -178 -393 q21 -29 121 -150q95 -118 123 -145h-285q-8 10 -28 36q-23 31 -77 98l-20 26l-92 -80l-19 -16q-122 -76 -273 -76q-213 0 -349 115q-150 125 -150 343zM280 458q0 -129 80 -221q81 -92 207 -92q124 0 210 68q48 38 73 59q-250 328 -350 494q-99 -50 -148 -108 q-72 -84 -72 -200zM491 1217q0 -54 33 -123q13 -27 30 -55q25 -40 26 -39q106 52 141 76q88 64 88 155q0 54 -41 95q-43 43 -108 43q-91 0 -134 -48q-35 -39 -35 -104z" />
<glyph unicode="'" horiz-adv-x="518" vert-adv-y="2458" d="M197 1075v481h125l-27 -481h-98z" />
<glyph unicode="(" horiz-adv-x="602" vert-adv-y="2458" d="M76 811q0 277 88 529q50 143 145 307l220 -27q-96 -201 -143 -358q-72 -236 -72 -453q0 -382 215 -807l-215 -27q-107 172 -160 332q-78 236 -78 504z" />
<glyph unicode=")" horiz-adv-x="614" vert-adv-y="2458" d="M84 2q209 423 209 805q0 359 -209 813l213 27q122 -209 176 -401q60 -210 60 -436q0 -282 -90 -534q-51 -142 -146 -301z" />
<glyph unicode="*" horiz-adv-x="870" vert-adv-y="2458" d="M35 1065l14 8q42 23 90 47q40 20 63 28q91 30 146 50l-174 68q-29 11 -135 76l76 131l12 -7q51 -30 70 -42q25 -15 28 -17q15 -9 24 -16q35 -29 148 -107q-28 173 -28 205q0 47 6 121h141q9 -83 9 -118q0 -36 -37 -206l139 109q33 26 131 78l78 -131q-86 -55 -226 -112 l-45 -18l-32 -14l155 -57q23 -8 144 -84l-76 -131q-38 21 -89 51q-24 14 -29 17q-17 10 -38 27q-35 28 -112 87q38 -177 37 -206v-9q-3 -59 -5 -107l-2 -24h-141q-8 98 -8 137q0 37 28 213l-139 -106q-26 -21 -137 -82z" />
<glyph unicode="+" horiz-adv-x="858" vert-adv-y="2458" d="M80 699v139l274 -4l-6 284h160l-6 -284l276 4v-137l-276 2l6 -289h-160l6 289z" />
<glyph unicode="," horiz-adv-x="518" vert-adv-y="2458" d="M115 -139l121 377h172l-199 -377h-94z" />
<glyph unicode="-" horiz-adv-x="668" vert-adv-y="2458" d="M72 688v160h524v-158z" />
<glyph unicode="." horiz-adv-x="518" vert-adv-y="2458" d="M164 -18v199h190v-199h-190z" />
<glyph unicode="/" horiz-adv-x="780" vert-adv-y="2458" d="M35 -12l492 1517h98l121 2l-492 -1519h-219z" />
<glyph unicode="0" vert-adv-y="2458" d="M102 762q0 338 156 543q157 207 417 207q294 0 458 -268q116 -190 116 -480q0 -335 -158 -555q-159 -221 -414 -221q-263 0 -421 219q-154 213 -154 555zM301 764q0 -246 100 -407q105 -168 274 -168q192 0 299 214q76 151 76 357q0 221 -86 373q-106 189 -287 189 q-166 0 -271 -158q-105 -157 -105 -400z" />
<glyph unicode="1" vert-adv-y="2458" d="M256 1155v191l373 145h182v-1491h-229v1303z" />
<glyph unicode="2" vert-adv-y="2458" d="M180 0v184q113 113 171 169q280 276 349 354q178 204 178 364q0 117 -73 182q-77 68 -229 68q-150 0 -335 -82v213q280 58 404 58q216 0 331 -70q156 -95 156 -316q0 -188 -154 -411q-69 -101 -167 -210q-32 -35 -105 -110q-86 -89 -199 -209l371 -4h24q9 0 269 4v-196 q-341 12 -469 12h-522z" />
<glyph unicode="3" vert-adv-y="2458" d="M225 29v184q32 -18 121 -39q115 -27 189 -27q113 0 198 49q127 74 127 229q0 174 -164 241q-93 37 -264 41v139q117 2 225 51q183 84 183 229q0 123 -95 185q-72 47 -185 47q-131 0 -290 -61v172q191 43 350 43q188 0 310 -72q160 -94 160 -285q0 -163 -119 -262 q-71 -61 -209 -104q108 -24 182 -68q184 -111 184 -321q0 -221 -193 -331q-144 -82 -347 -82q-171 0 -363 42z" />
<glyph unicode="4" vert-adv-y="2458" d="M152 410v162l651 921h254v-911h144v-170h-142v-412h-231v410h-676zM359 582h467l2 661z" />
<glyph unicode="5" vert-adv-y="2458" d="M229 31v184q155 -54 302 -54q140 0 230 68q103 77 103 218q0 288 -327 288q-69 0 -245 -16l15 764h426q97 0 293 8v-200l-30 2q-126 12 -192 12q-25 0 -106 -1q-61 -1 -184 -1l-15 -408q88 8 149 8q254 0 373 -132q103 -114 103 -320q0 -228 -176 -355 q-151 -109 -379 -109q-156 0 -340 44z" />
<glyph unicode="6" vert-adv-y="2458" d="M152 676q0 437 256 664q193 170 450 170q94 0 189 -29v-178q-94 33 -179 33q-183 0 -315 -133q-174 -176 -174 -525q0 -253 92 -387q85 -123 224 -123q129 0 209 88q82 91 82 228q0 154 -82 228q-68 62 -187 62q-159 0 -282 -141v172q136 123 329 123q224 0 339 -137 q98 -116 98 -311q0 -230 -156 -367q-142 -125 -352 -125q-230 0 -371 146q-170 175 -170 542z" />
<glyph unicode="7" vert-adv-y="2458" d="M215 1290v197l356 -2l566 2v-133l-492 -1354h-250l498 1311l-410 -8q-89 -2 -268 -13z" />
<glyph unicode="8" vert-adv-y="2458" d="M141 411q0 236 193 345q57 32 151 51q-88 19 -133 44q-162 90 -162 303q0 202 149 288q121 70 336 70q486 0 486 -357q0 -152 -80 -243q-47 -53 -115 -80q-27 -11 -84 -25q101 -21 164 -64q164 -109 164 -329q0 -209 -141 -318t-392 -109q-250 0 -390 105 q-146 108 -146 319zM381 420q0 -298 295 -298q297 0 297 295q0 130 -72 211q-82 93 -225 93q-149 0 -229 -93q-66 -75 -66 -208zM413 1141q0 -120 58 -189q70 -84 214 -84q251 0 251 281q0 242 -258 242q-265 0 -265 -250z" />
<glyph unicode="9" vert-adv-y="2458" d="M156 1040q0 214 133 343q134 129 364 129q544 0 544 -639q0 -446 -211 -691q-174 -201 -427 -201q-135 0 -266 42v186q115 -54 244 -54q223 0 329 187q104 185 104 510q0 233 -66 347q-78 137 -253 137q-132 0 -212 -97q-70 -84 -70 -199q0 -117 58 -207 q70 -109 202 -109q152 0 289 120v-131q-153 -140 -354 -140q-187 0 -297 129q-111 130 -111 338z" />
<glyph unicode=":" horiz-adv-x="518" vert-adv-y="2458" d="M164 -18v205h193v-205h-193zM164 583v201h193v-199z" />
<glyph unicode=";" horiz-adv-x="518" vert-adv-y="2458" d="M59 -139l121 377h170l-197 -377h-94zM165 583v201h190v-199z" />
<glyph unicode="&#x3c;" horiz-adv-x="877" vert-adv-y="2458" d="M47 731v72l692 368l88 -114l-559 -289l561 -293l-92 -110z" />
<glyph unicode="=" horiz-adv-x="971" vert-adv-y="2458" d="M121 514v141h729v-141h-729zM121 879v141h729v-141h-729z" />
<glyph unicode="&#x3e;" horiz-adv-x="874" vert-adv-y="2458" d="M45 475l563 291l-561 291l88 114l694 -366v-74l-688 -366z" />
<glyph unicode="?" horiz-adv-x="944" vert-adv-y="2458" d="M98 1442q135 70 310 70q244 0 354 -120q86 -95 86 -257q0 -190 -151 -348q-89 -95 -263 -197l6 -314h-166l-29 365q167 80 250 163q120 119 120 271q0 132 -73 198q-65 59 -184 59q-127 0 -254 -89zM252 -18v199h190v-199h-190z" />
<glyph unicode="@" horiz-adv-x="1253" vert-adv-y="2458" d="M66 664q0 349 221 520q168 129 416 129q204 0 340 -88q145 -95 145 -252v-690l-172 -9l-4 222q-49 -95 -111 -142q-91 -69 -219 -69q-126 0 -202 88t-76 218q0 145 96 235q108 100 318 100q93 0 190 -35v74q0 105 -90 165q-83 56 -213 56q-175 0 -303 -102 q-174 -141 -174 -420q0 -277 166 -418q130 -111 329 -111q159 0 465 66v-107q-269 -76 -467 -76q-277 0 -444 131q-211 166 -211 515zM560 621q0 -92 55 -148q46 -45 115 -45q121 0 198 84t80 211l2 86q-84 33 -160 33q-290 0 -290 -221z" />
<glyph unicode="A" horiz-adv-x="1378" vert-adv-y="2458" d="M10 0l272 762q31 85 240 725q60 -2 130 -2h46h44q68 0 130 2q93 -276 165 -502q62 -198 103 -317l54 -158l56 -164l68 -200l50 -146h-268l-154 492h-506l-160 -492h-270zM481 662h422l-205 622h-6z" />
<glyph unicode="B" horiz-adv-x="1241" vert-adv-y="2458" d="M166 0q4 419 4 656l-3 647l-1 184l526 6h11q149 0 242 -53q161 -93 161 -328q0 -193 -146 -305q-72 -55 -141 -60q140 -4 224 -106q86 -105 86 -276q0 -172 -117 -275q-116 -103 -318 -103q-61 0 -184 8q-71 5 -131 5h-213zM416 162q147 -11 177 -11q288 0 288 252 q0 138 -77 207q-71 64 -201 64q-4 0 -23 -1q-37 -1 -97 -1h-67v-510zM416 815h182q136 0 202 73q54 60 58 189l2 -2q-2 75 -17 113q-52 141 -247 141q-13 0 -42 -1l-138 -3v-510z" />
<glyph unicode="C" horiz-adv-x="1335" vert-adv-y="2458" d="M84 759q0 753 746 753q228 0 409 -60v-233q-159 94 -393 94q-496 0 -496 -551q0 -264 125 -420q130 -162 355 -162q169 0 444 135v-243q-223 -91 -452 -91q-371 0 -562 217q-176 201 -176 561z" />
<glyph unicode="D" horiz-adv-x="1528" vert-adv-y="2458" d="M166 2l4 756v26q0 59 -1 165q-2 180 -3 538l37 1l164 3h43q89 2 182 2h53q501 0 677 -250q124 -177 124 -481q0 -344 -211 -559t-545 -215q-34 0 -151 6q-84 5 -193 6zM422 197q144 -16 246 -16q278 0 412 205q92 140 96 372h2q-4 255 -93 383q-122 176 -428 176 q-107 0 -235 -12v-1108z" />
<glyph unicode="E" horiz-adv-x="1104" vert-adv-y="2458" d="M166 0l6 768v27q0 127 -6 692h791v-184l-29 1q-136 7 -230 7h-270v-455h508v-188q-111 20 -238 20h-270v-500h270q84 0 247 7l36 1v-202q-61 3 -260 4z" />
<glyph unicode="F" horiz-adv-x="1032" vert-adv-y="2458" d="M166 0l4 757q0 16 -1 126q-2 301 -3 604l450 -2h72q79 0 188 1l52 1v-184q-21 1 -69 3q-81 5 -151 5h-280v-488h278q118 0 203 2v-180q-70 10 -201 10h-278v-655h-264z" />
<glyph unicode="G" horiz-adv-x="1448" vert-adv-y="2458" d="M84 762q0 750 737 750q247 0 447 -62v-252q-187 117 -417 117q-499 0 -499 -552q0 -275 117 -432q119 -160 339 -160q132 0 276 58l-4 514h223v-677q-57 -25 -164 -47q-189 -38 -333 -38q-368 0 -556 225q-166 200 -166 556z" />
<glyph unicode="H" horiz-adv-x="1550" vert-adv-y="2458" d="M166 0l4 758q0 3 -1 192l-3 537h258v-604q55 -4 352 -4h138q179 0 215 2v606h256l-4 -729q0 -26 1 -190l1 -238l1 -179l1 -151h-254v680h-707v-680h-258z" />
<glyph unicode="I" horiz-adv-x="598" vert-adv-y="2458" d="M166 0l4 758q0 3 -1 191l-3 538h266l-4 -729q0 -26 1 -190l1 -238l1 -179l1 -151h-266z" />
<glyph unicode="J" horiz-adv-x="760" vert-adv-y="2458" d="M-115 -78q83 -53 189 -53q263 0 262 348l-5 1270h263l-2 -1262q-1 -281 -138 -411q-105 -101 -289 -101q-173 0 -268 41z" />
<glyph unicode="K" horiz-adv-x="1237" vert-adv-y="2458" d="M166 0l4 758q0 15 -1 191l-3 538h260v-668h6l432 668h299l-504 -715l557 -772h-296l-488 699h-6v-699h-260z" />
<glyph unicode="L" horiz-adv-x="1016" vert-adv-y="2458" d="M166 0l4 758q0 3 -1 191l-3 538h264l-4 -729v-16v-56q0 -178 1 -390l1 -108l266 -4h11q81 0 270 12v-196h-809z" />
<glyph unicode="M" horiz-adv-x="1868" vert-adv-y="2458" d="M166 0l4 744v26q-1 49 -4 721l315 -4l447 -1102h8l455 1102l309 4l-4 -747v-9q0 -4 1 -182l1 -233l1 -172l1 -148h-225l6 1118l-12 -12q-35 -72 -236 -557l-129 -314l-96 -235h-158l-461 1118l4 -1118h-227z" />
<glyph unicode="N" horiz-adv-x="1567" vert-adv-y="2458" d="M166 0l4 789v25q0 60 -1 166q-2 169 -3 507h334q277 -492 657 -1133l18 -20q2 83 3 352v235q0 457 -7 566h228l-4 -723q0 -13 -0.5 -60.5t0.5 -129.5l2 -240l1 -182l1 -152h-320q-310 532 -672 1127l-16 18q-2 -60 -2 -345v-218v-219q0 -286 4 -363h-227z" />
<glyph unicode="O" horiz-adv-x="1561" vert-adv-y="2458" d="M84 759q0 364 170 554q179 199 527 199q400 0 572 -257q126 -187 126 -497q0 -375 -193 -580q-184 -197 -507 -197q-320 0 -502 193q-193 204 -193 585zM350 762q0 -269 117 -428q118 -160 319 -160q259 0 355 187q70 137 70 394q0 289 -103 423q-103 135 -325 135 q-433 0 -433 -551z" />
<glyph unicode="P" horiz-adv-x="1171" vert-adv-y="2458" d="M166 0l4 758v26q0 59 -1 165q-2 180 -3 538l426 6h18q240 0 365 -103q125 -102 125 -325q0 -220 -152 -361q-142 -131 -331 -131q-72 0 -150 17l-1 18l-3 56l-3 58l-1 20q54 -9 100 -9q116 0 197 82q90 92 90 245q0 267 -272 267q-21 0 -123 -5l-29 -1v-1321h-256z" />
<glyph unicode="Q" horiz-adv-x="1561" vert-adv-y="2458" d="M84 759q0 753 697 753q354 0 531 -197q169 -188 169 -549q0 -479 -340 -672q44 -19 405 -114l-127 -121q-390 137 -450 141q-10 2 -17 2q-20 0 -65 -8q-69 -13 -124 -13q-196 0 -347 81q-332 178 -332 697zM352 761q0 -265 109 -423q113 -164 320 -164q235 0 350 211 q80 145 80 375q0 553 -428 553q-431 0 -431 -552z" />
<glyph unicode="R" horiz-adv-x="1253" vert-adv-y="2458" d="M166 0l2 757v82v149l-1 158v197l-1 144l487 6h14q445 0 445 -380q0 -217 -164 -337q-75 -55 -137 -57q95 -6 172 -148q52 -96 129 -307q72 -197 111 -264l-279 -2l-60 159q-94 254 -123 313q-70 144 -163 144h-180v-614h-252zM418 778l174 -2h3q99 0 177 70q88 80 88 221 q0 262 -250 262h-6l-186 -2v-549z" />
<glyph unicode="S" horiz-adv-x="1098" vert-adv-y="2458" d="M84 63v240q176 -131 384 -131q131 0 216 60q82 57 82 160q0 115 -91 183q-70 51 -265 133q-158 66 -236 161q-82 99 -82 259q0 180 127 281q129 103 357 103q209 0 358 -54v-219q-149 93 -315 93q-130 0 -205 -53q-74 -53 -74 -147q0 -116 97 -184q70 -49 241 -116 q183 -72 260 -170q78 -100 78 -266q0 -188 -144 -302q-141 -113 -377 -113q-243 0 -411 82z" />
<glyph unicode="T" horiz-adv-x="1163" vert-adv-y="2458" d="M20 1293v198l557 -6l565 6v-198q-166 12 -264 12h-166l-4 -547v-83l1 -154v-164l2 -206l1 -151h-262l2 1303h-166q-137 0 -266 -10z" />
<glyph unicode="U" horiz-adv-x="1544" vert-adv-y="2458" d="M166 1430v57h252v-55q0 -558 14 -790q16 -250 95 -356q81 -108 240 -108q210 0 292 185q40 91 52 267q18 246 18 800v57h249v-55q0 -648 -24 -883q-59 -568 -583 -568q-407 0 -526 326q-47 132 -61 348q-18 289 -18 775z" />
<glyph unicode="V" horiz-adv-x="1411" vert-adv-y="2458" d="M10 1487h291l381 -1235h6l422 1235h291l-277 -729l-76 -199l-213 -559h-321l-248 758q-3 10 -256 729z" />
<glyph unicode="W" horiz-adv-x="1942" vert-adv-y="2458" d="M10 1487h270l244 -1229h6l344 1223h213l340 -1223h6l228 1229h270l-305 -1487h-350l-299 1112h-9l-296 -1112h-345l-157 758z" />
<glyph unicode="X" horiz-adv-x="1313" vert-adv-y="2458" d="M31 0l498 770l-439 717h293l289 -537h6l301 537h295l-475 -696l483 -791h-295l-325 586h-4l-334 -586h-293z" />
<glyph unicode="Y" horiz-adv-x="1114" vert-adv-y="2458" d="M10 1487h279l270 -733h6l287 733h252l-418 -926l4 -561h-262l4 559z" />
<glyph unicode="Z" horiz-adv-x="1212" vert-adv-y="2458" d="M84 0v123l772 1184q-45 -1 -184 -3q-180 -3 -221 -3q-69 0 -113 -1q-138 -4 -231 -12v199l1007 -2v-150l-731 -1153l420 2q67 1 328 11v-201q-381 8 -549 8h-84h-98l-109 -1h-123z" />
<glyph unicode="[" horiz-adv-x="623" vert-adv-y="2458" d="M109 -137v1763l406 -4v-139l-173 -33v-1415l173 -33v-141z" />
<glyph unicode="\" horiz-adv-x="784" vert-adv-y="2458" d="M51 1522h217l498 -1534h-215z" />
<glyph unicode="]" horiz-adv-x="623" vert-adv-y="2458" d="M109 0l172 33v1415l-172 35v139l405 4v-1763l-405 -2v139z" />
<glyph unicode="^" horiz-adv-x="2" vert-adv-y="2458" d="M-8 1274l352 317h103l348 -317l-60 -76l-342 272l-342 -272z" />
<glyph unicode="_" horiz-adv-x="1245" vert-adv-y="2458" d="M25 -232h1249v-51h-1249v51z" />
<glyph unicode="`" horiz-adv-x="2" vert-adv-y="2458" d="M-186 1640h152l223 -444l-90 -2z" />
<glyph unicode="a" horiz-adv-x="1128" vert-adv-y="2458" d="M104 286q0 154 105 244q118 103 345 103q75 0 179 -6v90q0 99 -51 137q-50 37 -159 37q-143 0 -331 -106v170q180 86 373 86q280 0 369 -148q39 -66 39 -200l-1 -139v-166q1 -324 4 -388h-237l-6 221q-35 -48 -66 -92q-48 -59 -94 -89q-76 -52 -182 -52q-123 0 -205 82 t-82 216zM301 315q0 -79 49 -128q50 -49 120 -49q103 0 177 80q75 82 82 214l4 84q-89 8 -142 8q-142 0 -216 -57t-74 -152z" />
<glyph unicode="b" horiz-adv-x="1223" vert-adv-y="2458" d="M152 -6v1614h242v-760q57 86 122 130q94 63 227 63q399 0 399 -459q0 -258 -125 -420q-136 -177 -381 -177q-132 0 -244 33zM392 160q66 -36 175 -36q169 0 267 170q63 108 66 267h2q-3 105 -22 160q-55 164 -235 164q-108 0 -181 -80q-72 -78 -72 -184v-461z" />
<glyph unicode="c" horiz-adv-x="989" vert-adv-y="2458" d="M84 531q0 271 166 407q128 105 313 105q181 0 338 -64v-176q-127 70 -268 70q-125 0 -209 -70q-107 -89 -107 -269q0 -195 97 -294q80 -82 218 -82q164 0 283 75l-2 -170q-189 -75 -360 -75q-469 0 -469 543z" />
<glyph unicode="d" horiz-adv-x="1231" vert-adv-y="2458" d="M83 493q0 276 135 417q127 131 355 131q115 0 266 -27v594h240v-1608h-234l-4 225q-14 -56 -77 -119t-122 -89q-69 -32 -154 -32q-189 0 -293 117q-112 128 -112 391zM323 497q0 -354 262 -354q109 0 178 84q75 92 76 252l2 394q-81 29 -183 29q-154 0 -241 -99 q-94 -107 -94 -306z" />
<glyph unicode="e" horiz-adv-x="1124" vert-adv-y="2458" d="M84 539q0 240 131 371q135 133 367 133q259 0 379 -154q80 -103 80 -256v-27l-5 -106q-294 -1 -718 -12q3 -102 22 -155q62 -175 282 -175q169 0 396 90v-168q-214 -94 -431 -94q-503 0 -503 553zM316 610q217 1 408 5l124 4q-11 125 -52 190q-60 95 -191 95 q-173 0 -252 -150q-36 -70 -37 -144z" />
<glyph unicode="f" horiz-adv-x="690" vert-adv-y="2458" d="M49 830v141h100v254q0 197 105 287q83 72 223 72q177 0 250 -37l4 -166q-66 49 -149 49q-191 0 -191 -252v-207h307v-141h-307v-830h-240v830h-102z" />
<glyph unicode="g" horiz-adv-x="1155" vert-adv-y="2458" d="M84 526q0 247 146 388q132 127 338 127q100 0 233 -23l203 10v-1038q0 -233 -135 -352q-124 -109 -346 -109q-225 0 -363 68v202q115 -81 295 -81q160 0 243 102q70 85 70 219v231q-16 -53 -70 -109q-103 -106 -249 -106q-160 0 -258 115q-107 125 -107 356zM324 502 q0 -297 204 -297q115 0 189 122q51 84 51 206v346q-61 18 -131 18q-128 0 -217 -105q-96 -114 -96 -290z" />
<glyph unicode="h" horiz-adv-x="1243" vert-adv-y="2458" d="M152 0v1608h242v-748q51 81 113 121q90 60 222 60q363 0 363 -353v-688h-231v557q0 154 -51 223q-52 70 -161 70q-110 0 -183 -82q-72 -81 -72 -209v-559h-242z" />
<glyph unicode="i" horiz-adv-x="545" vert-adv-y="2458" d="M152 0v1014h242v-1014h-242zM156 1235v248h233v-248h-233z" />
<glyph unicode="j" horiz-adv-x="545" vert-adv-y="2458" d="M-231 -264q59 -41 161 -41q122 0 173 80q49 77 49 258v981h242v-997q0 -488 -363 -488q-133 0 -262 39v168zM156 1235v248h231v-248h-231z" />
<glyph unicode="k" horiz-adv-x="1098" vert-adv-y="2458" d="M152 0v1608h242v-1020l346 459h291q-59 -86 -240 -270q-64 -66 -129 -132l-36 -36l-23 -23q39 -58 233 -270q184 -201 262 -316h-297q-24 51 -250 343q-140 182 -157 225v-568h-242z" />
<glyph unicode="l" horiz-adv-x="545" vert-adv-y="2458" d="M152 0v1608h242v-1608h-242z" />
<glyph unicode="m" horiz-adv-x="1835" vert-adv-y="2458" d="M152 0v1014h228l8 -182q48 93 108 140q88 69 217 69q137 0 218 -69q61 -52 92 -161q47 103 109 155q91 75 226 75q184 0 267 -125q59 -90 59 -224v-692h-233l2 522q1 328 -186 328q-105 0 -169 -88q-61 -86 -61 -240v-522h-236v522q0 328 -183 328q-103 0 -167 -88 q-63 -88 -63 -240v-522h-236z" />
<glyph unicode="n" horiz-adv-x="1247" vert-adv-y="2458" d="M152 0v1014h234l8 -158q58 83 122 124q93 61 220 61q360 0 360 -353v-688h-233l4 541v6q0 303 -216 303q-103 0 -177 -80q-80 -86 -80 -219v-551h-242z" />
<glyph unicode="o" horiz-adv-x="1196" vert-adv-y="2458" d="M84 528q0 515 514 515t514 -510q0 -547 -512 -547q-516 0 -516 542zM323 533q0 -163 56 -266q69 -129 215 -129q278 0 278 395q0 360 -273 360q-276 0 -276 -360z" />
<glyph unicode="p" horiz-adv-x="1219" vert-adv-y="2458" d="M152 -477v1491h242v-172q58 89 122 135q94 66 224 66q191 0 293 -115q105 -119 105 -364q0 -263 -139 -421q-140 -158 -357 -158q-114 0 -248 38v-500h-242zM394 160q75 -36 170 -36q170 0 267 165q65 110 65 271q0 327 -257 327q-111 0 -179 -86q-66 -83 -66 -219v-422z " />
<glyph unicode="q" horiz-adv-x="1221" vert-adv-y="2458" d="M83 489q0 275 125 413q127 139 348 139q87 0 271 -37l242 20v-1501h-238v731q-42 -99 -103 -159q-111 -109 -265 -109q-380 0 -380 503zM321 504q0 -360 241 -360q108 0 187 102q74 96 76 215l6 412q-133 29 -190 29q-135 0 -224 -96q-96 -106 -96 -302z" />
<glyph unicode="r" horiz-adv-x="786" vert-adv-y="2458" d="M152 0v1014h234l6 -164q28 50 89 96q110 82 244 82q13 0 41 -2v-196q-56 18 -120 18q-103 0 -174 -72q-78 -78 -78 -209v-567h-242z" />
<glyph unicode="s" horiz-adv-x="887" vert-adv-y="2458" d="M72 49v166q146 -82 310 -82q103 0 161 35q57 35 57 97q0 58 -60 102q-32 23 -130 63q-34 14 -72 30q-43 18 -56 23q-112 45 -156 108q-46 68 -46 163q0 289 364 289q159 0 322 -45v-168q-127 67 -279 67q-194 0 -194 -118q0 -58 53 -100q25 -21 68 -40q13 -6 121 -48 l77 -30q85 -33 116 -62q85 -79 85 -211q0 -138 -94 -221q-94 -82 -282 -82q-213 0 -365 64z" />
<glyph unicode="t" horiz-adv-x="774" vert-adv-y="2458" d="M53 830v141h96l39 313h203v-313h326v-141h-326q-11 -178 -11 -340t30 -247q35 -99 159 -99q79 0 179 45l6 -160q-185 -43 -284 -43q-319 0 -319 317v527h-98z" />
<glyph unicode="u" horiz-adv-x="1243" vert-adv-y="2458" d="M152 392q0 15 2 223l1 134l2 156l1 109h242q-12 -280 -12 -499q0 -159 30 -227q49 -112 171 -112q103 0 178 90q45 55 67 130q23 80 23 212q0 47 -2 211q-1 65 -2 195h239v-1014h-225l-12 203q-52 -98 -115 -147q-92 -71 -228 -71q-193 0 -295 142q-65 91 -65 265z" />
<glyph unicode="v" horiz-adv-x="983" vert-adv-y="2458" d="M10 1014h246l227 -858l256 858h234l-338 -1014h-295z" />
<glyph unicode="w" horiz-adv-x="1561" vert-adv-y="2458" d="M10 1014h244l151 -867l244 867h227l246 -867l180 867h238l-279 -1014h-284l-215 799l-220 -799h-290z" />
<glyph unicode="x" horiz-adv-x="993" vert-adv-y="2458" d="M10 0q90 121 356 526q-137 201 -348 488h248q75 -109 221 -367l85 142l134 225h236q-70 -90 -336 -502l367 -512h-248q-12 18 -71 115l-53 88l-69 114l-51 85q-90 -163 -233 -402h-238z" />
<glyph unicode="y" horiz-adv-x="1104" vert-adv-y="2458" d="M10 1014h252l278 -834l299 834h244l-596 -1456h-244l181 438z" />
<glyph unicode="z" horiz-adv-x="1012" vert-adv-y="2458" d="M115 0v115l548 749l-530 -14v168l809 -4v-106l-551 -752l553 16v-176h-44h-72q-123 0 -242 1l-56 1q-168 2 -298 2h-73h-44z" />
<glyph unicode="{" horiz-adv-x="623" vert-adv-y="2458" d="M70 711v41q91 3 100 116l51 633q8 98 105 109l225 24l2 -149l-35 -2q-78 -5 -82 -51l-49 -564q-8 -96 -98 -133q90 -63 96 -133l51 -565q5 -47 80 -51l33 -2v-140l-223 23q-97 10 -105 110l-49 625q-8 105 -102 109z" />
<glyph unicode="|" horiz-adv-x="496" vert-adv-y="2458" d="M141 -422v2067h213v-2067h-213z" />
<glyph unicode="}" horiz-adv-x="623" vert-adv-y="2458" d="M70 -16l35 2q73 4 78 51l53 563q10 111 98 133q-86 41 -94 127l-53 572q-5 46 -82 51l-35 2v149l225 -22q95 -10 103 -107l51 -643q8 -107 104 -110v-41q-91 -4 -100 -109l-51 -622q-8 -101 -103 -111l-223 -25z" />
<glyph unicode="~" horiz-adv-x="2" vert-adv-y="2458" d="M-496 1268q153 195 284 195q68 0 228 -62t216 -62q101 0 196 113l69 -76q-139 -178 -264 -178q-63 0 -229 62t-217 62q-104 0 -209 -130z" />
<glyph unicode="&#xa0;" horiz-adv-x="510" vert-adv-y="2458" />
<glyph unicode="&#xa1;" horiz-adv-x="541" vert-adv-y="2458" d="M158 -18l18 1210h181l26 -1210h-225zM172 1288v199h193v-199h-193z" />
<glyph unicode="&#xa2;" horiz-adv-x="920" vert-adv-y="2458" d="M83 804q0 290 192 429q100 72 255 86v151h150v-160q130 -17 221 -57v-174q-83 50 -221 67v-710q149 16 235 72l-2 -168q-58 -25 -233 -66v-276h-150v266q-125 9 -189 36q-258 109 -258 504zM316 804q0 -177 81 -273q45 -54 133 -85v688q-95 -31 -143 -88 q-71 -84 -71 -242z" />
<glyph unicode="&#xa3;" horiz-adv-x="1036" vert-adv-y="2458" d="M92 0v164q107 95 161 183q79 129 79 274q0 61 -9 102l-182 -6v133h156q-2 5 -5 15l-35 105l-12 34q-45 132 -45 204q0 151 119 234q100 70 272 70q151 0 322 -43v-175q-117 56 -245 56q-233 0 -233 -198q0 -68 31 -171l9 -28q27 -91 29 -103h315v-137l-285 10 q9 -58 9 -103q0 -153 -78 -287q-44 -78 -131 -163h292q88 0 318 10v-180h-852z" />
<glyph unicode="&#xa4;" vert-adv-y="2458" d="M158 514l47 164h140q-1 26 -1 38q-1 33 -1 43q0 11 1 45q0 15 1 44h-187l47 162h154q31 155 73 236q138 266 475 266q198 0 292 -69l-54 -187q-80 65 -228 65q-136 0 -220 -75q-61 -53 -96 -139q-13 -32 -31 -97h499l-47 -162h-474q-2 -30 -2 -67v-23v-20q0 -34 2 -60 h428l-47 -164h-359q34 -129 82 -200q93 -134 261 -134q118 0 232 53v-209q-109 -43 -240 -43q-224 0 -359 129q-95 90 -145 237q-18 55 -40 167h-203z" />
<glyph unicode="&#xa5;" horiz-adv-x="1174" vert-adv-y="2458" d="M70 1487h264l260 -735h6l262 735h240l-322 -737h224v-149h-277l-4 -8v-195h281v-150h-277v-248h-262v248h-289v147h287v206h-287v147h234z" />
<glyph unicode="&#xa6;" horiz-adv-x="496" vert-adv-y="2458" d="M141 -408v869h213v-869h-213zM141 776v869h213v-869h-213z" />
<glyph unicode="&#xa7;" horiz-adv-x="1098" vert-adv-y="2458" d="M65 628q0 99 43 165q31 48 97 85q-61 73 -75 132q-11 46 -11 110q0 188 120 289q121 103 338 103q208 0 357 -54v-219q-149 93 -313 93q-119 0 -187 -54q-67 -52 -67 -146q0 -116 97 -184q70 -49 241 -116q182 -71 260 -170t78 -260q0 -72 -24 -125t-106 -116 q76 -111 76 -217q0 -202 -177 -320q-123 -82 -318 -82q-242 0 -410 82v239q176 -131 381 -131q111 0 184 48q88 60 88 137q0 92 -91 155q-71 50 -268 129q-154 61 -233 164q-80 102 -80 263zM313 635q0 -97 66 -164q54 -55 173 -102q125 -50 209 -96q32 77 32 124 q0 92 -68 154q-53 48 -217 119q-76 33 -144 76q-31 -32 -41 -54q-10 -21 -10 -57z" />
<glyph unicode="&#xa8;" horiz-adv-x="2" vert-adv-y="2458" d="M-281 1226v158h150v-158h-150zM132 1226v158h150v-158h-150z" />
<glyph unicode="&#xa9;" horiz-adv-x="1677" vert-adv-y="2458" d="M98 748q0 317 217 540q217 224 526 224q361 0 586 -294q154 -203 154 -469q0 -320 -215 -544t-525 -224t-526 224q-217 225 -217 543zM239 750q0 -254 176 -437q179 -184 424 -184q281 0 468 242q127 164 127 378q0 251 -176 435q-177 185 -419 185q-245 0 -424 -185 q-176 -182 -176 -434zM534 756q0 158 72 250q82 105 251 105q111 0 191 -31v-91q-90 34 -168 34q-227 0 -227 -261q0 -119 63 -197q63 -76 168 -76q103 0 178 58l2 -106q-103 -46 -211 -46q-162 0 -243 103q-76 96 -76 258z" />
<glyph unicode="&#xaa;" horiz-adv-x="592" vert-adv-y="2458" d="M80 1135q0 172 215 172q10 0 47 -1q15 -1 45 -1v45q0 51 -28 70q-20 12 -71 12q-69 0 -167 -54v91q89 43 186 43q143 0 186 -75q14 -25 17 -63v-105v-77q0 -157 2 -201h-121l-4 107q-45 -62 -55 -70q-46 -43 -112 -43q-62 0 -101 40t-39 110zM94 893v53h418v-53h-418z M180 1146q0 -83 80 -83q52 0 86 39q35 40 39 106l2 35q-28 3 -44 4h-12h-8q-143 0 -143 -101z" />
<glyph unicode="&#xab;" horiz-adv-x="1026" vert-adv-y="2458" d="M115 723v72l418 366l49 -119l-330 -284l332 -287l-55 -117zM443 723v72l416 366l51 -119l-330 -284l332 -287l-55 -117z" />
<glyph unicode="&#xac;" horiz-adv-x="727" vert-adv-y="2458" d="M53 777v141h621v-317l-86 -2v178h-535z" />
<glyph unicode="&#xad;" horiz-adv-x="668" vert-adv-y="2458" d="M72 688v160h524v-158z" />
<glyph unicode="&#xae;" horiz-adv-x="1679" vert-adv-y="2458" d="M90 750q0 315 219 538q220 224 528 224q359 0 594 -294q160 -201 160 -468q0 -317 -221 -543q-222 -226 -531 -226t-530 226q-219 224 -219 543zM231 750q0 -251 178 -436q180 -187 426 -187q207 0 366 133q165 138 218 324q22 80 22 189q0 201 -143 372 q-185 222 -461 222q-248 0 -428 -183q-178 -181 -178 -434zM616 358v769q163 12 209 12q110 0 180 -55q68 -54 68 -154q0 -134 -133 -197q24 -28 51 -60q25 -46 76 -166q50 -116 78 -149h-144l-17 48l-24 65q-30 82 -43 117q-16 42 -40 74q-26 36 -48 36h-100v-340h-113z M727 764h86q64 0 106 49q33 39 35 107h2q-4 147 -145 147q-36 0 -84 -6v-297z" />
<glyph unicode="&#xaf;" horiz-adv-x="2" vert-adv-y="2458" d="M-360 1200v127h723v-127h-723z" />
<glyph unicode="&#xb0;" horiz-adv-x="451" vert-adv-y="2458" d="M59 1245q0 73 49 121q51 49 119 49q74 0 128 -64q36 -42 36 -107q0 -74 -49 -122q-49 -47 -115 -47q-69 0 -119 47q-49 47 -49 123zM129 1245q0 -44 29 -73q28 -29 69 -29q95 0 95 102t-93 102q-42 0 -71 -29q-29 -28 -29 -73z" />
<glyph unicode="&#xb1;" horiz-adv-x="1010" vert-adv-y="2458" d="M131 801v135l291 -2l-4 260h155l-4 -260l291 2v-135l-291 2l4 -260h-155l4 258h-291zM149 322v135h730v-135h-730z" />
<glyph unicode="&#xb2;" horiz-adv-x="651" vert-adv-y="2458" d="M41 666v116q136 124 260 251q74 78 99 125q26 49 26 91q0 123 -152 123q-81 0 -198 -49v141q164 33 237 33q157 0 227 -76q50 -54 50 -143q0 -128 -122 -273q-40 -47 -204 -216h33h51l10 -1h9q10 0 46 -1q18 -1 30 -1q16 0 53 1q38 1 114 2v-129q-207 6 -270 6h-299z" />
<glyph unicode="&#xb3;" horiz-adv-x="604" vert-adv-y="2458" d="M41 692v129q87 -45 183 -45q72 0 115 31q53 39 53 105q0 83 -84 117q-51 20 -152 22v98q70 1 128 27q95 42 95 111q0 113 -138 113q-76 0 -175 -42v121q117 27 208 27q106 0 175 -39q94 -54 94 -165q0 -127 -149 -194q170 -61 170 -209q0 -123 -113 -187 q-85 -47 -197 -47q-88 0 -213 27z" />
<glyph unicode="&#xb4;" horiz-adv-x="2" vert-adv-y="2458" d="M-227 1194l297 428h160l-351 -428h-106z" />
<glyph unicode="&#xb5;" horiz-adv-x="1241" vert-adv-y="2458" d="M102 -391v1405h231q-12 -264 -12 -466q0 -150 30 -218q50 -113 174 -113q117 0 193 119q70 108 70 258v420h244l-5 -797q0 -125 44 -125q32 0 71 21v-76q-72 -51 -192 -51q-160 0 -160 131v129q-37 -84 -86 -127q-71 -62 -182 -62q-159 0 -211 133l14 -581h-223z" />
<glyph unicode="&#xb6;" horiz-adv-x="1208" vert-adv-y="2458" d="M155 1082q0 231 121 333q114 97 375 97l50 -1q139 -2 277 -4l75 -2l-4 -729l4 -776h-160v1448h-59v-1448h-66v1342l-19 1q-41 3 -68 4q-12 1 -17 1q-271 0 -271 -285q0 -165 98 -252q80 -70 197 -70q32 0 64 7l-9 -123q-63 -17 -116 -17q-196 0 -328 119 q-144 129 -144 355z" />
<glyph unicode="&#xb7;" horiz-adv-x="518" vert-adv-y="2458" d="M164 774v201h190v-199z" />
<glyph unicode="&#xb8;" horiz-adv-x="2" vert-adv-y="2458" d="M-184 -262q102 -62 170 -62q95 0 95 57q0 27 -42 50q-22 11 -80 30q-82 26 -82 60q0 43 64 141l82 -8q-58 -72 -58 -106q0 -19 86 -43q63 -18 93 -37q43 -28 43 -81q0 -71 -66 -110q-55 -33 -137 -33q-80 0 -168 37v105z" />
<glyph unicode="&#xb9;" horiz-adv-x="414" vert-adv-y="2458" d="M41 1278v127l217 82h113v-821h-152v688z" />
<glyph unicode="&#xba;" horiz-adv-x="612" vert-adv-y="2458" d="M47 1252q0 256 260 256q263 0 263 -255q0 -268 -260 -268q-263 0 -263 267zM90 893v53h428v-53h-428zM172 1254q0 -191 131 -191q74 0 105 57q32 57 32 138q0 174 -133 174q-135 0 -135 -178z" />
<glyph unicode="&#xbb;" horiz-adv-x="1010" vert-adv-y="2458" d="M109 471l330 287l-330 284l53 119l416 -366v-74l-414 -367zM433 471l332 287l-330 284l53 119l414 -366v-74l-414 -367z" />
<glyph unicode="&#xbc;" horiz-adv-x="1456" vert-adv-y="2458" d="M31 1278v127l217 82h113v-821h-152v690zM140 -20l966 1536h182l-968 -1536h-180zM826 217v103l364 501h158v-487h78v-115h-78v-219h-154v217h-368zM977 334h217v303z" />
<glyph unicode="&#xbd;" horiz-adv-x="1518" vert-adv-y="2458" d="M20 1278v127l217 82h113v-821h-152v690zM129 -20l966 1536h182l-968 -1536h-180zM925 0v117q66 61 100 92q181 164 236 247q50 73 50 128q0 56 -36 88q-40 35 -116 35q-78 0 -201 -54v144q178 35 240 35q156 0 226 -76q51 -56 51 -144q0 -128 -124 -276 q-39 -46 -202 -213h84q3 0 30 -1q17 -1 45 -1h15h32q61 0 142 2v-131q-187 8 -271 8h-301z" />
<glyph unicode="&#xbe;" horiz-adv-x="1456" vert-adv-y="2458" d="M43 682v127q87 -43 181 -43q63 0 106 25q64 36 64 111q0 83 -84 116q-51 20 -152 23v100q71 1 128 26q95 43 95 112q0 110 -138 110q-72 0 -175 -39v121q121 24 208 24q106 0 175 -39q94 -54 94 -163q0 -129 -149 -195q170 -59 170 -209q0 -124 -113 -187 q-86 -47 -198 -47q-96 0 -212 27zM139 -20l967 1536h182l-969 -1536h-180zM825 217v103l365 501h158v-487h77v-115h-77v-219h-154v217h-369zM977 334h217v303z" />
<glyph unicode="&#xbf;" horiz-adv-x="944" vert-adv-y="2458" d="M98 357q0 191 149 349q89 95 263 198l-6 313h167l25 -365q-165 -80 -248 -163q-119 -119 -119 -271q0 -255 258 -255q131 0 254 87l7 -199q-131 -70 -310 -70q-245 0 -354 120q-86 95 -86 256zM500 1317v194h190v-192z" />
<glyph unicode="&#xc0;" horiz-adv-x="1378" vert-adv-y="2458" d="M10 0l272 762q31 85 240 725q60 -2 130 -2h46h44q68 0 130 2q93 -276 165 -502q62 -198 103 -317l54 -158l56 -164l68 -200l50 -146h-268l-154 492h-506l-160 -492h-270zM481 662h422l-205 622h-6zM481 2015h152l223 -444l-90 -3z" />
<glyph unicode="&#xc1;" horiz-adv-x="1378" vert-adv-y="2458" d="M10 0l272 762q31 85 240 725q60 -2 130 -2h46h44q68 0 130 2q93 -276 165 -502q62 -198 103 -317l54 -158l56 -164l68 -200l50 -146h-268l-154 492h-506l-160 -492h-270zM481 662h422l-205 622h-6zM524 1568l297 428h160l-350 -428h-107z" />
<glyph unicode="&#xc2;" horiz-adv-x="1378" vert-adv-y="2458" d="M10 0l272 762q31 85 240 725q60 -2 130 -2h46h44q68 0 130 2q93 -276 165 -502q62 -198 103 -317l54 -158l56 -164l68 -200l50 -146h-268l-154 492h-506l-160 -492h-270zM303 1642l354 318h101l350 -318l-62 -75l-342 272l-340 -272zM481 662h422l-205 622h-6z" />
<glyph unicode="&#xc3;" horiz-adv-x="1378" vert-adv-y="2458" d="M10 0l272 762q31 85 240 725q60 -2 130 -2h46h44q68 0 130 2q93 -276 165 -502q62 -198 103 -317l54 -158l56 -164l68 -200l50 -146h-268l-154 492h-506l-160 -492h-270zM207 1650q153 195 284 195q69 0 264 -75q123 -48 179 -48q101 0 196 113l70 -78 q-141 -176 -265 -176q-63 0 -229 61q-165 62 -216 62q-99 0 -210 -129zM481 662h422l-205 622h-6z" />
<glyph unicode="&#xc4;" horiz-adv-x="1378" vert-adv-y="2458" d="M10 0l272 762q31 85 240 725q60 -2 130 -2h46h44q68 0 130 2q93 -276 165 -502q62 -198 103 -317l54 -158l56 -164l68 -200l50 -146h-268l-154 492h-506l-160 -492h-270zM418 1616v158h150v-158h-150zM481 662h422l-205 622h-6zM831 1616v158h150v-158h-150z" />
<glyph unicode="&#xc5;" horiz-adv-x="1378" vert-adv-y="2458" d="M10 0l272 762q31 85 240 725q60 -2 130 -2h46h44q68 0 130 2q93 -276 165 -502q62 -198 103 -317l54 -158l56 -164l68 -200l50 -146h-268l-154 492h-506l-160 -492h-270zM477 1769q0 98 68 164q67 66 159 66q110 0 181 -86q49 -59 49 -144q0 -104 -66 -167 q-65 -64 -161 -64q-95 0 -162 64q-68 63 -68 167zM481 662h422l-205 622h-6zM571 1769q0 -61 39 -102q38 -39 95 -39q66 0 105 50q26 34 27 91h2q-1 58 -29 95q-37 47 -104 47q-55 0 -96 -41q-39 -40 -39 -101z" />
<glyph unicode="&#xc6;" horiz-adv-x="1767" vert-adv-y="2458" d="M10 0l596 1487h1014v-184l-62 1q-252 6 -471 7v-453h512v-182q-123 16 -229 16h-283l4 -506q339 4 551 9v-201l-101 1l-158 2l-156 1q-240 2 -396 2l2 604h-328l-231 -604h-264zM544 727h289v580h-78z" />
<glyph unicode="&#xc7;" horiz-adv-x="1335" vert-adv-y="2458" d="M84 760q0 752 746 752q228 0 409 -60v-233q-159 94 -392 94q-497 0 -497 -551q0 -264 125 -420q130 -162 355 -162q169 0 444 136v-244q-186 -79 -410 -90q-37 -51 -37 -81q0 -18 85 -44q59 -17 87 -34q48 -29 48 -84q0 -71 -66 -109q-56 -33 -137 -33q-78 0 -166 37v104 q101 -61 169 -61q91 0 91 56q0 39 -98 73q-101 35 -101 66q0 27 41 110q-185 12 -308 64q-191 82 -291 267q-97 179 -97 447z" />
<glyph unicode="&#xc8;" horiz-adv-x="1104" vert-adv-y="2458" d="M166 0l6 768q1 73 -6 719h791v-184l-29 1q-136 7 -230 7h-270v-455h508v-188q-111 20 -238 20h-270v-500h270q84 0 247 7l36 1v-202q-61 3 -260 4zM289 2019h151l224 -444l-90 -2z" />
<glyph unicode="&#xc9;" horiz-adv-x="1104" vert-adv-y="2458" d="M166 0l6 768q1 73 -6 719h791v-184l-29 1q-136 7 -230 7h-270v-455h508v-188q-111 20 -238 20h-270v-500h270q84 0 247 7l36 1v-202q-61 3 -260 4zM451 1573l297 428h159l-350 -428h-106z" />
<glyph unicode="&#xca;" horiz-adv-x="1104" vert-adv-y="2458" d="M152 1651l354 317h101l350 -317l-62 -76l-342 272l-340 -272zM166 0l6 768q1 81 -6 719h791v-184l-29 1q-136 7 -230 7h-270v-455h508v-188q-111 20 -238 20h-270v-500h270q83 0 247 7l36 1v-202q-61 3 -260 4z" />
<glyph unicode="&#xcb;" horiz-adv-x="1104" vert-adv-y="2458" d="M166 0l6 768q1 73 -6 719h791v-184l-29 1q-136 7 -230 7h-270v-455h508v-188q-111 20 -238 20h-270v-500h270q84 0 247 7l36 1v-202q-61 3 -260 4zM293 1612v158h150v-158h-150zM706 1612v158h150v-158h-150z" />
<glyph unicode="&#xcc;" horiz-adv-x="598" vert-adv-y="2458" d="M68 2039h152l223 -444l-90 -2zM166 0l4 758q0 5 1 26q1 47 -1 165q-4 180 -4 538h267l-5 -729q0 -26 1 -190l2 -238l1 -179l1 -151h-267z" />
<glyph unicode="&#xcd;" horiz-adv-x="598" vert-adv-y="2458" d="M141 1596l297 428h160l-351 -428h-106zM166 0l4 758v26q0 80 -1 165q-3 180 -3 538h266l-4 -729q0 -26 1 -190l1 -238l1 -179l1 -151h-266z" />
<glyph unicode="&#xce;" horiz-adv-x="598" vert-adv-y="2458" d="M-100 1642l354 318h101l350 -318l-62 -75l-342 272l-340 -272zM166 0l4 758v26q0 21 -4 703h266l-4 -729q0 -26 1 -190l2 -238l1 -179v-151h-266z" />
<glyph unicode="&#xcf;" horiz-adv-x="598" vert-adv-y="2458" d="M23 1635v158h150v-158h-150zM166 0l4 758q0 5 1 26q1 47 -1 165q-4 180 -4 538h267l-4 -729q-1 -26 0 -190l2 -238l1 -179l1 -151h-267zM436 1635v158h150v-158h-150z" />
<glyph unicode="&#xd0;" horiz-adv-x="1528" vert-adv-y="2458" d="M0 688v160h170l-2 319l-2 320l37 1l164 3h42q89 2 183 2h53q501 0 677 -250q124 -177 124 -481q0 -344 -211 -559t-545 -215q-34 0 -152 6q-83 5 -192 6l-180 2l4 686h-170zM420 690l2 -493q138 -17 246 -17q278 0 412 206q91 139 96 372h2q-4 255 -93 383 q-122 176 -428 176q-107 0 -235 -12l-2 -457h176v-158h-176z" />
<glyph unicode="&#xd1;" horiz-adv-x="1567" vert-adv-y="2458" d="M166 0l4 789v25q0 60 -1 166q-2 169 -3 507h334q277 -492 657 -1133l18 -20q2 83 3 352v235q0 457 -7 566h228l-4 -723q-1 -26 0 -190l2 -240l1 -182l1 -152h-320q-310 532 -672 1127l-16 18q-2 -60 -2 -345v-218v-219q0 -286 4 -363h-227zM266 1681q153 195 284 195 q69 0 264 -76q123 -48 180 -48q101 0 196 113l70 -78q-141 -176 -265 -176q-62 0 -229 62t-216 62q-99 0 -210 -130z" />
<glyph unicode="&#xd2;" horiz-adv-x="1561" vert-adv-y="2458" d="M84 759q0 364 170 554q179 199 527 199q400 0 572 -257q126 -187 126 -497q0 -375 -193 -580q-184 -197 -507 -197q-320 0 -502 193q-193 204 -193 585zM350 762q0 -269 117 -428q118 -160 319 -160q259 0 355 187q70 137 70 394q0 289 -103 423q-103 135 -325 135 q-433 0 -433 -551zM533 2044h151l223 -444l-90 -2z" />
<glyph unicode="&#xd3;" horiz-adv-x="1561" vert-adv-y="2458" d="M84 759q0 364 170 554q179 199 527 199q400 0 572 -257q126 -187 126 -497q0 -375 -193 -580q-184 -197 -507 -197q-320 0 -502 193q-193 204 -193 585zM350 762q0 -269 117 -428q118 -160 319 -160q259 0 355 187q70 137 70 394q0 289 -103 423q-103 135 -325 135 q-433 0 -433 -551zM645 1599l297 428h160l-350 -428h-107z" />
<glyph unicode="&#xd4;" horiz-adv-x="1561" vert-adv-y="2458" d="M84 759q0 364 170 554q179 199 527 199q400 0 572 -257q126 -187 126 -497q0 -375 -193 -580q-184 -197 -507 -197q-320 0 -502 193q-193 204 -193 585zM350 762q0 -269 117 -428q118 -160 319 -160q259 0 355 187q70 137 70 394q0 289 -103 423q-103 135 -325 135 q-433 0 -433 -551zM358 1645l355 317h100l350 -317l-61 -76l-342 272l-340 -272z" />
<glyph unicode="&#xd5;" horiz-adv-x="1561" vert-adv-y="2458" d="M84 759q0 364 170 554q179 199 527 199q400 0 572 -257q126 -187 126 -497q0 -375 -193 -580q-184 -197 -507 -197q-320 0 -502 193q-193 204 -193 585zM270 1685q153 195 284 195q68 0 228 -62t216 -62q101 0 196 113l70 -78q-141 -176 -265 -176q-63 0 -229 62 q-165 62 -216 62q-99 0 -210 -130zM350 762q0 -269 117 -428q118 -160 319 -160q259 0 355 187q70 137 70 394q0 289 -103 423q-103 135 -325 135q-433 0 -433 -551z" />
<glyph unicode="&#xd6;" horiz-adv-x="1561" vert-adv-y="2458" d="M84 759q0 364 170 554q179 199 527 199q400 0 572 -257q126 -187 126 -497q0 -375 -193 -580q-184 -197 -507 -197q-320 0 -502 193q-193 204 -193 585zM350 762q0 -269 117 -428q118 -160 319 -160q259 0 355 187q70 137 70 394q0 289 -103 423q-103 135 -325 135 q-433 0 -433 -551zM500 1652v158h150v-158h-150zM913 1652v158h150v-158h-150z" />
<glyph unicode="&#xd7;" horiz-adv-x="858" vert-adv-y="2458" d="M80 699v139l274 -4l-6 284h160l-6 -284l276 4v-137l-276 2l6 -289h-160l6 289z" />
<glyph unicode="&#xd8;" horiz-adv-x="1561" vert-adv-y="2458" d="M113 758q0 753 700 753q242 0 400 -100l71 96h142l-119 -163q104 -107 150 -242q51 -147 51 -345q0 -381 -191 -583q-181 -193 -502 -193q-256 0 -426 125l-79 -106h-142l131 178q-82 90 -124 196q-62 159 -62 384zM381 764q0 -210 88 -352l607 813h2q-99 88 -263 88 q-434 0 -434 -549zM525 295q114 -121 289 -121q236 0 348 211q78 148 78 374q0 231 -101 361z" />
<glyph unicode="&#xd9;" horiz-adv-x="1544" vert-adv-y="2458" d="M166 1430v57h252v-55q0 -558 14 -790q16 -250 95 -356q81 -108 240 -108q210 0 292 185q40 91 52 267q18 246 18 800v57h249v-55q0 -648 -24 -883q-59 -568 -583 -568q-407 0 -526 326q-47 132 -61 348q-18 289 -18 775zM586 2036h151l224 -444l-90 -2z" />
<glyph unicode="&#xda;" horiz-adv-x="1544" vert-adv-y="2458" d="M166 1430v57h252v-55q0 -558 14 -790q16 -250 95 -356q81 -108 240 -108q210 0 292 185q40 91 52 267q18 246 18 800v57h249v-55q0 -648 -24 -883q-59 -568 -583 -568q-407 0 -526 326q-47 132 -61 348q-18 289 -18 775zM670 1587l297 429h160l-351 -429h-106z" />
<glyph unicode="&#xdb;" horiz-adv-x="1544" vert-adv-y="2458" d="M166 1430v57h252v-55q0 -558 14 -790q16 -250 95 -356q81 -108 240 -108q210 0 292 185q40 91 52 267q18 246 18 800v57h249v-55q0 -648 -24 -883q-59 -568 -583 -568q-407 0 -526 326q-47 132 -61 348q-18 289 -18 775zM390 1667l355 317h100l350 -317l-61 -76l-342 272 l-340 -272z" />
<glyph unicode="&#xdc;" horiz-adv-x="1544" vert-adv-y="2458" d="M166 1430v57h252v-55q0 -558 14 -790q16 -250 95 -356q81 -108 240 -108q210 0 292 185q40 91 52 267q18 246 18 800v57h249v-55q0 -648 -24 -883q-59 -568 -583 -568q-407 0 -526 326q-47 132 -61 348q-18 289 -18 775zM492 1638v158h150v-158h-150zM905 1638v158h150 v-158h-150z" />
<glyph unicode="&#xdd;" horiz-adv-x="1114" vert-adv-y="2458" d="M10 1487h279l270 -733h6l287 733h252l-418 -926l4 -561h-262l4 559zM489 1571l297 426h156l-348 -426h-105z" />
<glyph unicode="&#xde;" horiz-adv-x="1171" vert-adv-y="2458" d="M166 0l2 1487h258l-4 -307q25 0 37 1q47 1 59 1h74q310 0 416 -97q92 -85 92 -272q0 -225 -150 -389q-147 -162 -341 -162q-73 0 -142 17l-1 18l-3 55l-3 59l-1 19q57 -8 100 -8q116 0 197 82q90 92 90 246q0 266 -272 266q-26 0 -152 -6l-2 -93v-65l-1 -58 q-2 -127 -2 -180q0 -97 3 -407l2 -207h-256z" />
<glyph unicode="&#xdf;" horiz-adv-x="1243" vert-adv-y="2458" d="M66 776v135h98v248q0 353 398 353q376 0 376 -251q0 -62 -28 -115q-15 -29 -36 -52q-9 -8 -26 -25l-16 -17q-35 -38 -39 -41q-54 -57 -54 -108q0 -49 51 -96q25 -23 102 -72q131 -81 170 -119q115 -109 115 -297q0 -155 -113 -246q-112 -90 -288 -90q-148 0 -275 52 l2 155q135 -82 265 -82q97 0 151 51q55 53 55 131q0 79 -46 139q-21 27 -56 52q-46 34 -172 106q-84 48 -119 107q-37 61 -37 133q0 64 43 135q21 34 76 97q76 90 76 156q0 76 -45 116q-43 39 -120 39q-98 0 -140 -72q-37 -64 -37 -184v-1114h-233v776h-98z" />
<glyph unicode="&#xe0;" horiz-adv-x="1128" vert-adv-y="2458" d="M104 286q0 154 105 244q118 103 345 103q75 0 179 -6v90q0 99 -51 137q-50 37 -159 37q-143 0 -331 -106v170q180 86 373 86q280 0 369 -148q39 -66 39 -200l-1 -139v-166q1 -324 4 -388h-237l-6 221q-35 -48 -66 -92q-48 -59 -94 -89q-76 -52 -182 -52q-123 0 -205 82 t-82 216zM301 315q0 -79 49 -128q50 -49 120 -49q103 0 177 80q75 82 82 214l4 84q-89 8 -142 8q-142 0 -216 -57t-74 -152zM340 1640h152l223 -444l-90 -2z" />
<glyph unicode="&#xe1;" horiz-adv-x="1128" vert-adv-y="2458" d="M104 286q0 154 105 244q118 103 345 103q75 0 179 -6v90q0 99 -51 137q-50 37 -159 37q-143 0 -331 -106v170q180 86 373 86q280 0 369 -148q39 -66 39 -200l-1 -139v-166q1 -324 4 -388h-237l-6 221q-35 -48 -66 -92q-48 -59 -94 -89q-76 -52 -182 -52q-123 0 -205 82 t-82 216zM301 315q0 -79 49 -128q50 -49 120 -49q103 0 177 80q75 82 82 214l4 84q-89 8 -142 8q-142 0 -216 -57t-74 -152zM399 1194l297 428h160l-351 -428h-106z" />
<glyph unicode="&#xe2;" horiz-adv-x="1128" vert-adv-y="2458" d="M104 286q0 154 105 244q118 103 345 103q75 0 179 -6v90q0 99 -51 137q-50 37 -159 37q-143 0 -331 -106v170q180 86 373 86q280 0 369 -148q39 -66 39 -200l-1 -139v-166q1 -324 4 -388h-237l-6 221q-35 -48 -66 -92q-48 -59 -94 -89q-76 -52 -182 -52q-123 0 -205 82 t-82 216zM180 1274l354 317h101l350 -317l-62 -76l-342 272l-340 -272zM301 315q0 -79 49 -128q50 -49 120 -49q103 0 177 80q75 82 82 214l4 84q-89 8 -142 8q-142 0 -216 -57t-74 -152z" />
<glyph unicode="&#xe3;" horiz-adv-x="1128" vert-adv-y="2458" d="M51 1288q153 195 284 195q68 0 228 -62t216 -62q101 0 196 113l69 -78q-140 -176 -264 -176q-63 0 -229 62t-216 62q-99 0 -210 -130zM104 286q0 154 105 244q118 103 345 103q75 0 179 -6v90q0 99 -51 137q-50 37 -159 37q-143 0 -331 -106v170q180 86 373 86 q280 0 369 -148q39 -66 39 -200l-1 -139v-166q1 -324 4 -388h-237l-6 221q-35 -48 -66 -92q-48 -59 -94 -89q-76 -52 -182 -52q-123 0 -205 82t-82 216zM301 315q0 -79 49 -128q50 -49 120 -49q103 0 177 80q75 82 82 214l4 84q-89 8 -142 8q-142 0 -216 -57t-74 -152z" />
<glyph unicode="&#xe4;" horiz-adv-x="1128" vert-adv-y="2458" d="M104 286q0 154 105 244q118 103 345 103q75 0 179 -6v90q0 99 -51 137q-50 37 -159 37q-143 0 -331 -106v170q180 86 373 86q280 0 369 -148q39 -66 39 -200l-1 -139v-166q1 -324 4 -388h-237l-6 221q-35 -48 -66 -92q-48 -59 -94 -89q-76 -52 -182 -52q-123 0 -205 82 t-82 216zM276 1226v158h150v-158h-150zM301 315q0 -79 49 -128q50 -49 120 -49q103 0 177 80q75 82 82 214l4 84q-89 8 -142 8q-142 0 -216 -57t-74 -152zM689 1226v158h150v-158h-150z" />
<glyph unicode="&#xe5;" horiz-adv-x="1128" vert-adv-y="2458" d="M104 286q0 154 105 244q118 103 345 103q75 0 179 -6v90q0 99 -51 137q-50 37 -159 37q-143 0 -331 -106v170q180 86 373 86q280 0 369 -148q39 -66 39 -200l-1 -139v-166q1 -324 4 -388h-237l-6 221q-35 -48 -66 -92q-48 -59 -94 -89q-76 -52 -182 -52q-123 0 -205 82 t-82 216zM301 315q0 -79 49 -128q50 -49 120 -49q103 0 177 80q75 82 82 214l4 84q-89 8 -142 8q-142 0 -216 -57t-74 -152zM348 1365q0 98 68 164q67 66 160 66q109 0 180 -86q49 -59 49 -144q0 -104 -66 -167q-65 -64 -161 -64q-95 0 -162 64q-68 63 -68 167zM442 1365 q0 -61 39 -102q38 -39 94 -39q68 0 106 51q26 33 27 91h2q-1 57 -29 94q-37 47 -104 47q-55 0 -96 -41q-39 -39 -39 -101z" />
<glyph unicode="&#xe6;" horiz-adv-x="1780" vert-adv-y="2458" d="M104 287q0 164 119 256q120 92 330 92q87 0 176 -8v90q0 94 -49 135t-155 41q-136 0 -337 -108v161q188 97 384 97q152 0 236 -58q47 -32 79 -94q120 152 351 152q262 0 381 -160q77 -104 77 -271q0 -46 -7 -102l-405 -4h-45q-95 0 -275 -4v-45q0 -142 91 -223 q84 -76 230 -76q168 0 386 90v-168q-195 -94 -436 -94q-214 0 -333 105q-69 61 -118 177l-32 -55q-53 -88 -113 -141q-96 -84 -245 -84q-132 0 -210 82q-80 84 -80 217zM297 313q0 -81 47 -129q47 -47 120 -47q115 0 189 93q66 81 72 202l4 84q-94 10 -145 10 q-287 0 -287 -213zM964 625l261 -2h4h15q12 0 42 1q18 1 57 2q43 1 99 3q27 1 63 2q-17 160 -90 222q-61 51 -157 51q-143 0 -239 -129q-52 -70 -55 -150z" />
<glyph unicode="&#xe7;" horiz-adv-x="920" vert-adv-y="2458" d="M84 531q0 272 166 407q128 105 313 105q181 0 338 -64v-176q-128 70 -268 70q-125 0 -209 -70q-107 -89 -107 -269q0 -195 97 -294q80 -82 218 -82q165 0 283 76l-2 -170q-154 -62 -315 -74q-43 -55 -43 -89q0 -18 85 -44q57 -17 86 -34q48 -28 48 -84q0 -70 -65 -109 q-56 -33 -137 -33q-80 0 -166 37v104q101 -61 170 -61q90 0 90 56q0 39 -98 73q-101 35 -101 67t45 117q-117 11 -177 38q-251 111 -251 503z" />
<glyph unicode="&#xe8;" horiz-adv-x="1124" vert-adv-y="2458" d="M84 539q0 240 131 371q135 133 367 133q259 0 379 -154q80 -103 80 -256v-27l-5 -106q-294 -1 -718 -12q3 -102 22 -155q62 -175 282 -175q169 0 396 90v-168q-214 -94 -431 -94q-503 0 -503 553zM316 610q217 1 408 5l124 4q-11 125 -52 190q-60 95 -191 95 q-173 0 -252 -150q-36 -70 -37 -144zM342 1640h152l223 -444l-90 -2z" />
<glyph unicode="&#xe9;" horiz-adv-x="1124" vert-adv-y="2458" d="M84 539q0 240 131 371q135 133 367 133q259 0 379 -154q80 -103 80 -256v-27l-5 -106q-294 -1 -718 -12q3 -102 22 -155q62 -175 282 -175q169 0 396 90v-168q-214 -94 -431 -94q-503 0 -503 553zM316 610q217 1 408 5l124 4q-11 125 -52 190q-60 95 -191 95 q-173 0 -252 -150q-36 -70 -37 -144zM436 1194l297 428h160l-351 -428h-106z" />
<glyph unicode="&#xea;" horiz-adv-x="1124" vert-adv-y="2458" d="M84 539q0 240 131 371q135 133 367 133q259 0 379 -154q80 -103 80 -256v-27l-5 -106q-294 -1 -718 -12q3 -102 22 -155q62 -175 282 -175q169 0 396 90v-168q-214 -94 -431 -94q-503 0 -503 553zM184 1258l354 317h101l350 -317l-62 -76l-342 272l-340 -272zM316 610 q217 1 408 5l124 4q-11 125 -52 190q-60 95 -191 95q-173 0 -252 -150q-36 -70 -37 -144z" />
<glyph unicode="&#xeb;" horiz-adv-x="1124" vert-adv-y="2458" d="M84 539q0 240 131 371q135 133 367 133q259 0 379 -154q80 -103 80 -256v-27l-5 -106q-294 -1 -718 -12q3 -102 22 -155q62 -175 282 -175q169 0 396 90v-168q-214 -94 -431 -94q-503 0 -503 553zM305 1226v158h150v-158h-150zM316 610q217 1 408 5l124 4 q-11 125 -52 190q-60 95 -191 95q-173 0 -252 -150q-36 -70 -37 -144zM718 1226v158h150v-158h-150z" />
<glyph unicode="&#xec;" horiz-adv-x="545" vert-adv-y="2458" d="M61 1640h152l223 -444l-90 -2zM151 0v1014h242v-1014h-242z" />
<glyph unicode="&#xed;" horiz-adv-x="545" vert-adv-y="2458" d="M123 1194l297 428h160l-351 -428h-106zM152 0v1014h242v-1014h-242z" />
<glyph unicode="&#xee;" horiz-adv-x="545" vert-adv-y="2458" d="M-129 1274l354 317h101l350 -317l-62 -76l-342 272l-340 -272zM152 0v1014h242v-1014h-242z" />
<glyph unicode="&#xef;" horiz-adv-x="545" vert-adv-y="2458" d="M-8 1226v158h150v-158h-150zM152 0v1014h242v-1014h-242zM405 1226v158h150v-158h-150z" />
<glyph unicode="&#xf0;" horiz-adv-x="1196" vert-adv-y="2458" d="M76 487q0 478 519 478h25q52 -1 72 -4q-111 140 -251 235l-115 -197l-160 93l113 192q-70 27 -144 43l43 238q116 -24 224 -70l86 154l159 -95l-84 -147q244 -159 392 -391q168 -263 168 -528q0 -502 -523 -502q-524 0 -524 501zM320 489q0 -362 278 -362q279 0 279 365 q0 338 -277 338q-280 0 -280 -341z" />
<glyph unicode="&#xf1;" horiz-adv-x="1247" vert-adv-y="2458" d="M125 1282q153 195 284 195q68 0 228 -62t216 -62q101 0 196 113l69 -78q-140 -176 -264 -176q-63 0 -229 62t-216 62q-99 0 -210 -130zM152 0v1014h234l8 -158q58 83 122 124q93 61 220 61q360 0 360 -353v-688h-233l4 541q2 309 -216 309q-103 0 -177 -80 q-80 -86 -80 -219v-551h-242z" />
<glyph unicode="&#xf2;" horiz-adv-x="1196" vert-adv-y="2458" d="M84 528q0 515 514 515t514 -510q0 -547 -512 -547q-516 0 -516 542zM323 533q0 -163 56 -266q69 -129 215 -129q278 0 278 395q0 360 -273 360q-276 0 -276 -360zM383 1640h152l223 -444l-90 -2z" />
<glyph unicode="&#xf3;" horiz-adv-x="1196" vert-adv-y="2458" d="M84 528q0 515 514 515t514 -510q0 -547 -512 -547q-516 0 -516 542zM323 533q0 -163 56 -266q69 -129 215 -129q278 0 278 395q0 360 -273 360q-276 0 -276 -360zM469 1194l297 428h160l-351 -428h-106z" />
<glyph unicode="&#xf4;" horiz-adv-x="1196" vert-adv-y="2458" d="M84 528q0 515 514 515t514 -510q0 -547 -512 -547q-516 0 -516 542zM197 1260l354 317h101l350 -317l-62 -76l-342 272l-340 -272zM323 533q0 -163 56 -266q69 -129 215 -129q278 0 278 395q0 360 -273 360q-276 0 -276 -360z" />
<glyph unicode="&#xf5;" horiz-adv-x="1196" vert-adv-y="2458" d="M84 528q0 515 514 515t514 -510q0 -547 -512 -547q-516 0 -516 542zM113 1279q153 195 284 195q68 0 228 -62t216 -62q101 0 196 113l69 -78q-140 -176 -264 -176q-63 0 -229 62t-216 62q-99 0 -210 -130zM323 533q0 -163 56 -266q69 -129 215 -129q278 0 278 395 q0 360 -273 360q-276 0 -276 -360z" />
<glyph unicode="&#xf6;" horiz-adv-x="1196" vert-adv-y="2458" d="M84 528q0 515 514 515t514 -510q0 -547 -512 -547q-516 0 -516 542zM323 533q0 -163 56 -266q69 -129 215 -129q278 0 278 395q0 360 -273 360q-276 0 -276 -360zM330 1226v158h150v-158h-150zM743 1226v158h150v-158h-150z" />
<glyph unicode="&#xf7;" horiz-adv-x="1092" vert-adv-y="2458" d="M158 690v129h776v-129h-776zM457 395v170h164v-170h-164zM457 950v174h164v-174h-164z" />
<glyph unicode="&#xf8;" horiz-adv-x="1196" vert-adv-y="2458" d="M125 520q0 522 514 522q174 0 291 -63l49 59h145l-102 -122q131 -133 131 -394q0 -534 -511 -534q-193 0 -312 75l-49 -63h-150l113 137q-119 131 -119 383zM363 538q0 -113 57 -194l387 492q-68 57 -168 57q-138 0 -206 -98q-70 -100 -70 -257zM457 211q66 -73 178 -73 q278 0 278 387q0 124 -55 194z" />
<glyph unicode="&#xf9;" horiz-adv-x="1243" vert-adv-y="2458" d="M152 392q0 15 2 223l1 134l2 156l1 109h242q-12 -280 -12 -499q0 -159 30 -227q49 -112 171 -112q103 0 178 90q45 55 67 130q23 80 23 212q0 47 -2 211q-1 65 -2 195h239v-1014h-225l-12 203q-52 -98 -115 -147q-92 -71 -228 -71q-193 0 -295 142q-65 91 -65 265z M363 1640h152l223 -444l-90 -2z" />
<glyph unicode="&#xfa;" horiz-adv-x="1243" vert-adv-y="2458" d="M152 392q0 15 2 223l1 134l2 156l1 109h242q-12 -280 -12 -499q0 -159 30 -227q49 -112 171 -112q103 0 178 90q45 55 67 130q23 80 23 212q0 47 -2 211q-1 65 -2 195h239v-1014h-225l-12 203q-52 -98 -115 -147q-92 -71 -228 -71q-193 0 -295 142q-65 91 -65 265z M514 1194l297 428h160l-351 -428h-106z" />
<glyph unicode="&#xfb;" horiz-adv-x="1243" vert-adv-y="2458" d="M152 392q0 15 2 223l1 134l2 156l1 109h242q-12 -280 -12 -499q0 -159 30 -227q49 -112 171 -112q103 0 178 90q45 55 67 130q23 80 23 212q0 47 -2 211q-1 65 -2 195h239v-1014h-225l-12 203q-52 -98 -115 -147q-92 -71 -228 -71q-193 0 -295 142q-65 91 -65 265z M240 1266l354 317h101l350 -317l-62 -76l-342 272l-340 -272z" />
<glyph unicode="&#xfc;" horiz-adv-x="1243" vert-adv-y="2458" d="M152 392q0 15 2 223l1 134l2 156l1 109h242q-12 -280 -12 -499q0 -159 30 -227q49 -112 171 -112q103 0 178 90q45 55 67 130q23 80 23 212q0 47 -2 211q-1 65 -2 195h239v-1014h-225l-12 203q-52 -98 -115 -147q-92 -71 -228 -71q-193 0 -295 142q-65 91 -65 265z M359 1226v158h150v-158h-150zM772 1226v158h150v-158h-150z" />
<glyph unicode="&#xfd;" horiz-adv-x="1104" vert-adv-y="2458" d="M10 1014h252l278 -834l299 834h244l-596 -1456h-244l181 438zM477 1194l297 428h160l-351 -428h-106z" />
<glyph unicode="&#xfe;" horiz-adv-x="1219" vert-adv-y="2458" d="M152 -477v2085h242v-766q58 89 122 135q94 66 224 66q191 0 293 -115q105 -119 105 -364q0 -263 -139 -421q-140 -158 -357 -158q-114 0 -248 38v-500h-242zM394 160q75 -36 170 -36q170 0 267 165q65 110 65 271q0 327 -257 327q-111 0 -179 -86q-66 -83 -66 -219v-422z " />
<glyph unicode="&#xff;" horiz-adv-x="1104" vert-adv-y="2458" d="M10 1014h252l278 -834l299 834h244l-596 -1456h-244l181 438zM282 1226v158h150v-158h-150zM695 1226v158h150v-158h-150z" />
<glyph unicode="&#x152;" horiz-adv-x="2126" vert-adv-y="2458" d="M84 756q0 357 166 549q179 207 533 207q210 0 333 -73q85 -49 117 -128l4 176h739v-184q-208 8 -256 8h-272v-455h510v-188q-105 20 -227 20h-283v-500h317q47 0 236 8v-202q-120 6 -234 6h-550l-6 101l-5 95q-39 -94 -131 -148q-116 -67 -291 -67q-312 0 -495 180 q-205 202 -205 595zM352 761q0 -269 111 -424q117 -164 323 -164q234 0 347 211q78 147 78 376q0 553 -423 553q-436 0 -436 -552z" />
<glyph unicode="&#x153;" horiz-adv-x="1874" vert-adv-y="2458" d="M83 527q0 516 514 516q174 0 278 -67q57 -38 101 -110q48 78 114 118q100 59 254 59q221 0 334 -113q93 -93 110 -270q2 -23 2 -30l-1 -15l1 -13q0 -7 -5 -105l-424 -6q-33 0 -157 -3l-79 -2l-58 -1q3 -101 22 -154q62 -174 285 -174q171 0 393 91v-168 q-210 -93 -420 -93q-180 0 -281 76q-58 44 -96 125q-50 -89 -117 -134q-100 -67 -259 -67q-260 0 -390 146q-121 135 -121 394zM323 528q0 -391 278 -391q148 0 220 133q53 99 53 264q0 357 -273 357q-278 0 -278 -363zM1065 610h256q106 0 278 8q-1 77 -25 138 q-56 148 -218 148q-150 0 -230 -115q-26 -37 -40 -77q-9 -25 -17 -84z" />
<glyph unicode="&#x178;" horiz-adv-x="1114" vert-adv-y="2458" d="M10 1487h279l270 -733h6l287 733h252l-418 -926l4 -561h-262l4 559zM291 1619v158h150v-158h-150zM704 1619v158h150v-158h-150z" />
<glyph unicode="&#x2c6;" horiz-adv-x="2" vert-adv-y="2458" d="M-401 1274l354 317h101l350 -317l-62 -76l-342 272l-340 -272z" />
<glyph unicode="&#x2dc;" horiz-adv-x="2" vert-adv-y="2458" d="M-496 1268q153 195 284 195q68 0 228 -62t216 -62q101 0 196 113l69 -78q-140 -176 -264 -176q-63 0 -229 62t-216 62q-99 0 -210 -130z" />
<glyph unicode="&#x2000;" horiz-adv-x="1022" vert-adv-y="0" />
<glyph unicode="&#x2001;" horiz-adv-x="2044" vert-adv-y="0" />
<glyph unicode="&#x2002;" horiz-adv-x="1022" vert-adv-y="0" />
<glyph unicode="&#x2003;" horiz-adv-x="2044" vert-adv-y="0" />
<glyph unicode="&#x2004;" horiz-adv-x="681" vert-adv-y="0" />
<glyph unicode="&#x2005;" horiz-adv-x="511" vert-adv-y="0" />
<glyph unicode="&#x2006;" horiz-adv-x="340" vert-adv-y="0" />
<glyph unicode="&#x2007;" horiz-adv-x="340" vert-adv-y="0" />
<glyph unicode="&#x2008;" horiz-adv-x="255" vert-adv-y="0" />
<glyph unicode="&#x2009;" horiz-adv-x="408" vert-adv-y="0" />
<glyph unicode="&#x200a;" horiz-adv-x="113" vert-adv-y="0" />
<glyph unicode="&#x2010;" horiz-adv-x="668" vert-adv-y="2458" d="M72 688v160h524v-158z" />
<glyph unicode="&#x2011;" horiz-adv-x="668" vert-adv-y="2458" d="M72 688v160h524v-158z" />
<glyph unicode="&#x2012;" horiz-adv-x="668" vert-adv-y="2458" d="M72 688v160h524v-158z" />
<glyph unicode="&#x2013;" horiz-adv-x="969" vert-adv-y="2458" d="M139 680v160h690v-160h-690z" />
<glyph unicode="&#x2014;" horiz-adv-x="1327" vert-adv-y="2458" d="M10 680v160h1307v-160h-1307z" />
<glyph unicode="&#x2018;" horiz-adv-x="518" vert-adv-y="2458" d="M135 1622h135l115 -524l-98 -2z" />
<glyph unicode="&#x2019;" horiz-adv-x="518" vert-adv-y="2458" d="M127 1096l133 530h135l-170 -530h-98z" />
<glyph unicode="&#x201a;" horiz-adv-x="518" vert-adv-y="2458" d="M127 -14l133 526h135l-170 -526h-98z" />
<glyph unicode="&#x201c;" horiz-adv-x="592" vert-adv-y="2458" d="M43 1618h133l117 -520h-96zM297 1618h135l117 -518l-96 -2z" />
<glyph unicode="&#x201d;" horiz-adv-x="592" vert-adv-y="2458" d="M33 1096l135 528h133l-168 -528h-100zM289 1096l133 528h137l-170 -528h-100z" />
<glyph unicode="&#x201e;" horiz-adv-x="592" vert-adv-y="2458" d="M33 -18l135 526h133l-168 -526h-100zM289 -18l133 526h137l-170 -526h-100z" />
<glyph unicode="&#x2022;" horiz-adv-x="655" vert-adv-y="2458" d="M139 833q0 82 56 137q56 54 136 54q95 0 152 -71q39 -49 39 -119q0 -86 -54 -138q-57 -55 -137 -55t-136 52q-56 53 -56 140z" />
<glyph unicode="&#x2026;" horiz-adv-x="1556" vert-adv-y="2458" d="M133 -18v199h190v-199h-190zM684 -18v199h188v-199h-188zM1232 -18v199h193v-199h-193z" />
<glyph unicode="&#x202f;" horiz-adv-x="408" vert-adv-y="0" />
<glyph unicode="&#x2039;" horiz-adv-x="682" vert-adv-y="2458" d="M106 723v72l418 366l49 -119l-330 -284l332 -287l-57 -117z" />
<glyph unicode="&#x203a;" horiz-adv-x="686" vert-adv-y="2458" d="M109 471l332 287l-330 284l51 119l416 -366v-74l-414 -367z" />
<glyph unicode="&#x205f;" horiz-adv-x="511" vert-adv-y="0" />
<glyph unicode="&#x20ac;" vert-adv-y="2458" d="M158 514l47 164h140q-1 26 -1 38q-1 33 -1 43q0 11 1 45q0 15 1 44h-187l47 162h154q31 155 73 236q138 266 475 266q198 0 292 -69l-54 -187q-80 65 -228 65q-136 0 -220 -75q-61 -53 -96 -139q-13 -32 -31 -97h499l-47 -162h-474q-2 -30 -2 -67v-23v-20q0 -34 2 -60 h428l-47 -164h-359q34 -129 82 -200q93 -134 261 -134q118 0 232 53v-209q-109 -43 -240 -43q-224 0 -359 129q-95 90 -145 237q-18 55 -40 167h-203z" />
<glyph unicode="&#x2122;" horiz-adv-x="1632" vert-adv-y="2458" d="M121 1387v100h528v-100q-62 6 -154 6h-61v-650h-96v650h-57q-79 0 -160 -6zM705 743v744h88l320 -590q50 113 299 590h100v-744h-94v553l-283 -553h-51l-283 541v-541h-96z" />
<glyph unicode="&#xe000;" horiz-adv-x="1014" vert-adv-y="2029" d="M0 0v1015h1015v-1015h-1015z" />
</font>
</defs>
</svg>
