<?xml version="1.0" encoding="UTF-8" standalone="no"?>
<!DOCTYPE svg  PUBLIC '-//W3C//DTD SVG 1.1//EN'  'http://www.w3.org/Graphics/SVG/1.1/DTD/svg11.dtd'>
<svg xmlns="http://www.w3.org/2000/svg">
<defs>
<font id="DaxOT-Light" horiz-adv-x="510">
<font-face underline-position="-55" font-weight="350" descent="-200" panose-1="2 11 5 4 3 1 1 2 1 2" units-per-em="1000" unicode-range="U+0020-25CA" bbox="-120 -225 1046 901" x-height="539" underline-thickness="40" font-family="DaxOT" ascent="800" cap-height="688"/>
<missing-glyph horiz-adv-x="1000"/>
<glyph glyph-name=".notdef" horiz-adv-x="1000"/>
<glyph glyph-name=".null" horiz-adv-x="0"/>
<glyph glyph-name=".null" horiz-adv-x="0"/>
<glyph glyph-name="nonmarkingreturn" horiz-adv-x="333"/>
<glyph glyph-name="space" horiz-adv-x="280" unicode=" "/>
<glyph glyph-name="exclam" horiz-adv-x="254" unicode="!" d="M174 37q0 -17 -12.5 -29.5t-29.5 -12.5t-29.5 12.5t-12.5 29.5t12.5 29.5t29.5 12.5t29.5 -12.5t12.5 -29.5zM163 688l-11 -473h-40l-11 473h62z"/>
<glyph glyph-name="quotedbl" horiz-adv-x="360" unicode='&quot;' d="M138 679l-15 -233h-32l-15 233q12 17 31 17t31 -17zM284 679l-15 -233h-32l-15 233q12 17 31 17t31 -17z"/>
<glyph glyph-name="numbersign" horiz-adv-x="640" unicode="#" d="M420 437h-176l-23 -172h176zM580 437h-124l-23 -172h119v-32h-124l-31 -233h-36l31 233h-176l-31 -233h-36l31 233h-120v32h125l23 172h-120v32h124l30 219h36l-30 -219h176l30 219h36l-30 -219h120v-32z"/>
<glyph glyph-name="dollar" horiz-adv-x="490" unicode="$" d="M423 172q0 -70 -46 -120t-123 -60v-118h-40v116q-95 0 -155 37l19 38q52 -32 139 -32q66 0 107.5 37t41.5 104q0 52 -31 87t-74.5 56t-87.5 43.5t-75 64.5t-31 105q0 69 43 113t115 53v113h40v-111q74 -1 131 -37l-18 -35q-52 32 -119 32q-64 0 -100 -33.5t-36 -93.5 q0 -52 31 -86.5t75 -55t88 -43t75 -66t31 -108.5z"/>
<glyph glyph-name="percent" horiz-adv-x="820" unicode="%" d="M279 486q0 46 -7 84.5t-27 67.5t-51 29t-51 -29t-27 -67.5t-7 -84.5t7 -84.5t27 -67.5t51 -29t51 29t27 67.5t7 84.5zM711 204q0 46 -7 84.5t-27 67.5t-51 29t-51 -29t-27 -67.5t-7 -84.5t7 -84.5t27 -67.5t51 -29t51 29t27 67.5t7 84.5zM324 485q0 -88 -32.5 -150.5 t-97.5 -62.5t-97.5 62.5t-32.5 150.5t32.5 150.5t97.5 62.5t97.5 -62.5t32.5 -150.5zM546 682l-237 -688l-36 12l237 688zM756 203q0 -88 -32.5 -150.5t-97.5 -62.5t-97.5 62.5t-32.5 150.5t32.5 150.5t97.5 62.5t97.5 -62.5t32.5 -150.5z"/>
<glyph glyph-name="ampersand" horiz-adv-x="594" unicode="&amp;" d="M404 49v335q-153 -24 -223 -72.5t-70 -135.5q0 -68 46.5 -107.5t134.5 -39.5q64 0 112 20zM583 413l-126 -21v-364q-61 -38 -166 -38q-112 0 -175 48.5t-63 137.5q0 144 191 202v2q-75 14 -114 55t-39 103q0 76 55.5 118t131.5 42q72 0 127 -34l-17 -34q-48 29 -110 29 q-55 0 -93.5 -31t-38.5 -90q0 -58 41.5 -95t105.5 -37q58 0 138 16l144 30z"/>
<glyph glyph-name="quotesingle" horiz-adv-x="214" unicode="&apos;" d="M138 679l-15 -233h-32l-15 233q12 17 31 17t31 -17z"/>
<glyph glyph-name="parenleft" horiz-adv-x="326" unicode="(" d="M292 -203l-32 -22q-194 230 -194 511t194 511l32 -22q-169 -214 -169 -489t169 -489z"/>
<glyph glyph-name="parenright" horiz-adv-x="326" unicode=")" d="M260 286q0 -281 -194 -511l-32 22q169 214 169 489t-169 489l32 22q194 -230 194 -511z"/>
<glyph glyph-name="asterisk" horiz-adv-x="414" unicode="*" d="M179 612q0 -16 -11.5 -27.5t-27.5 -11.5t-27.5 11.5t-11.5 27.5t11.5 27.5t27.5 11.5t27.5 -11.5t11.5 -27.5zM138 737q0 -17 -11 -28t-28 -11t-28 11t-11 28t11 28t28 11t28 -11t11 -28zM313 612q0 -16 -11.5 -27.5t-27.5 -11.5t-27.5 11.5t-11.5 27.5t11.5 27.5 t27.5 11.5t27.5 -11.5t11.5 -27.5zM242 704q0 -15 -10 -25t-25 -10q-14 0 -24.5 10t-10.5 25t10.5 25t24.5 10q15 0 25 -10t10 -25zM246 817q0 -17 -11 -28t-28 -11t-28 11t-11 28t11 28t28 11t28 -11t11 -28zM354 737q0 -17 -11 -28t-28 -11t-28 11t-11 28t11 28t28 11 t28 -11t11 -28z"/>
<glyph glyph-name="plus" d="M444 318h-167v-169h-44v169h-167v40h167v169h44v-169h167v-40z" unicode="+"/>
<glyph glyph-name="comma" horiz-adv-x="238" unicode="," d="M164 60l-106 -205h-34l73 205q13 19 38 19q23 0 29 -19z"/>
<glyph glyph-name="hyphen" horiz-adv-x="338" unicode="-" d="M273 314h-208v48h208v-48z"/>
<glyph glyph-name="period" horiz-adv-x="236" unicode="." d="M160 37q0 -17 -12.5 -29.5t-29.5 -12.5t-29.5 12.5t-12.5 29.5t12.5 29.5t29.5 12.5t29.5 -12.5t12.5 -29.5z"/>
<glyph glyph-name="slash" horiz-adv-x="434" unicode="/" d="M394 777l-344 -992l-46 18l344 992z"/>
<glyph glyph-name="zero" horiz-adv-x="514" unicode="0" d="M398 345q0 59 -6 109t-20 100t-43.5 79t-71.5 29t-71.5 -29t-43.5 -79t-20 -100t-6 -109t6 -109t20 -100t43.5 -79t71.5 -29t71.5 29t43.5 79t20 100t6 109zM452 344q0 -69 -9.5 -128t-30.5 -112t-60.5 -83.5t-94.5 -30.5t-94.5 30.5t-60.5 83.5t-30.5 112t-9.5 128 t9.5 128t30.5 112t60.5 83.5t94.5 30.5t94.5 -30.5t60.5 -83.5t30.5 -112t9.5 -128z"/>
<glyph glyph-name="one" horiz-adv-x="382" unicode="1" d="M268 0h-54v604q-31 -20 -85 -35.5t-98 -20.5l-7 33q155 25 209 107h35v-688z"/>
<glyph glyph-name="two" horiz-adv-x="468" unicode="2" d="M408 0h-384l250 354q64 90 64 166q0 66 -37.5 101t-112.5 35q-69 0 -129 -30l-17 36q67 36 155 36q98 0 149 -47t51 -131q0 -79 -83 -192l-207 -283h301v-45z"/>
<glyph glyph-name="three" horiz-adv-x="454" unicode="3" d="M398 194q0 -92 -61 -148t-152 -56q-98 0 -161 34l16 38q59 -31 137 -31q74 0 119 43.5t45 119.5q0 83 -53 123t-134 40h-24v35q80 6 131.5 46t51.5 104q0 60 -37 87.5t-91 27.5q-68 0 -129 -29l-17 36q68 34 151 34q73 0 126 -39.5t53 -109.5q0 -64 -40.5 -104.5 t-96.5 -59.5v-2q30 -6 56.5 -18.5t52.5 -34t41.5 -56.5t15.5 -80z"/>
<glyph glyph-name="four" horiz-adv-x="480" unicode="4" d="M329 630h-2q-20 -44 -48 -93l-195 -333h242v323q0 43 3 103zM432 167h-58v-167h-48v167h-286v40l285 481h49v-484h58v-37z"/>
<glyph glyph-name="five" horiz-adv-x="454" unicode="5" d="M398 195q0 -84 -61 -144.5t-154 -60.5q-97 0 -159 34l16 38q57 -31 137 -31q73 0 118.5 47.5t45.5 114.5q0 82 -46.5 128.5t-141.5 46.5q-51 0 -94 -7l34 327h291v-45h-252l-27 -244q45 5 68 5q103 0 164 -55.5t61 -153.5z"/>
<glyph glyph-name="six" horiz-adv-x="508" unicode="6" d="M399 198q0 85 -42.5 129t-124.5 44q-56 0 -111 -21q-9 -44 -9 -104q0 -104 37.5 -160.5t111.5 -56.5q69 0 103.5 49t34.5 120zM452 197q0 -84 -49.5 -145.5t-143.5 -61.5t-146.5 67t-52.5 189q0 167 89 284t247 168l14 -36q-112 -40 -178 -102t-105 -176q52 21 110 21 q99 0 157 -54.5t58 -153.5z"/>
<glyph glyph-name="seven" horiz-adv-x="444" unicode="7" d="M420 688l-95 -216q-54 -122 -106 -261t-73 -211h-69l278 643h-331v45h396z"/>
<glyph glyph-name="eight" horiz-adv-x="506" unicode="8" d="M398 158q0 66 -37.5 105t-108.5 77q-34 -19 -55 -33t-44 -36t-34 -50t-11 -62q0 -59 42.5 -94.5t102.5 -35.5q62 0 103.5 36.5t41.5 92.5zM380 539q0 55 -35.5 88.5t-91.5 33.5t-91.5 -33t-35.5 -89q0 -54 33 -88t97 -69q61 35 92.5 69t31.5 88zM450 158q0 -72 -57 -120 t-140 -48q-79 0 -138 45.5t-59 122.5q0 39 12.5 70t39 55.5t48.5 39.5t60 36q-67 36 -103 75.5t-36 104.5q0 69 51.5 114t124.5 45t124.5 -45t51.5 -114q0 -63 -35 -101.5t-102 -75.5q36 -20 59.5 -35.5t48.5 -40t37.5 -56.5t12.5 -72z"/>
<glyph glyph-name="nine" horiz-adv-x="508" unicode="9" d="M396 443q0 104 -37.5 161t-111.5 57q-69 0 -103.5 -49.5t-34.5 -120.5q0 -85 42.5 -129t124.5 -44q56 0 111 21q9 44 9 104zM448 442q0 -167 -89 -284t-247 -168l-14 36q112 40 178 102t105 176q-52 -21 -110 -21q-99 0 -157 54.5t-58 153.5q0 84 49.5 145.5t143.5 61.5 t146.5 -67t52.5 -189z"/>
<glyph glyph-name="colon" horiz-adv-x="246" unicode=":" d="M170 37q0 -17 -12.5 -29.5t-29.5 -12.5t-29.5 12.5t-12.5 29.5t12.5 29.5t29.5 12.5t29.5 -12.5t12.5 -29.5zM170 337q0 -17 -12.5 -29.5t-29.5 -12.5t-29.5 12.5t-12.5 29.5t12.5 29.5t29.5 12.5t29.5 -12.5t12.5 -29.5z"/>
<glyph glyph-name="semicolon" horiz-adv-x="246" unicode=";" d="M172 60l-106 -205h-34l73 205q13 19 38 19q23 0 29 -19zM170 337q0 -17 -12.5 -29.5t-29.5 -12.5t-29.5 12.5t-12.5 29.5t12.5 29.5t29.5 12.5t29.5 -12.5t12.5 -29.5z"/>
<glyph glyph-name="less" d="M444 146l-378 172v40l378 172v-47l-330 -144v-2l330 -144v-47z" unicode="&lt;"/>
<glyph glyph-name="equal" d="M444 234h-378v40h378v-40zM444 402h-378v40h378v-40z" unicode="="/>
<glyph glyph-name="greater" d="M444 318l-378 -172v47l330 144v2l-330 144v47l378 -172v-40z" unicode="&gt;"/>
<glyph glyph-name="question" horiz-adv-x="380" unicode="?" d="M229 37q0 -17 -12.5 -29.5t-29.5 -12.5t-29.5 12.5t-12.5 29.5t12.5 29.5t29.5 12.5t29.5 -12.5t12.5 -29.5zM360 541q0 -59 -47 -102.5t-98 -57.5l-8 -166h-40l-8 185q56 14 101 49t45 92q0 53 -32.5 84.5t-94.5 31.5t-106 -27l-18 32q54 36 130 36q80 0 128 -42.5 t48 -114.5z"/>
<glyph glyph-name="at" horiz-adv-x="914" unicode="@" d="M592 460q-37 23 -85 23q-88 0 -140.5 -77.5t-52.5 -182.5q0 -93 48 -145.5t137 -52.5q19 0 29 1zM857 370q0 -70 -25.5 -137.5t-70.5 -122t-114.5 -88t-150.5 -33.5q-111 0 -169.5 66t-58.5 167q0 123 67.5 209t176.5 86q79 0 129 -42l-67 -442q96 24 166.5 114t70.5 223 q0 125 -70.5 209t-208.5 84q-99 0 -181.5 -38t-135.5 -101t-82.5 -142.5t-29.5 -163.5q0 -75 22.5 -141.5t65 -119.5t113 -84t158.5 -31q221 0 370 137l23 -27q-157 -146 -393 -146q-97 0 -175.5 33t-128 90t-75.5 130t-26 155q0 93 33 179.5t93 154.5t151.5 109t200.5 41 q154 0 238 -94.5t84 -233.5z"/>
<glyph glyph-name="A" horiz-adv-x="572" unicode="A" d="M397 272l-90 278q-9 29 -22 89h-2q-16 -66 -23 -89l-91 -278h228zM546 0h-60l-76 235h-253l-77 -235h-54l237 688h46z"/>
<glyph glyph-name="B" horiz-adv-x="543" unicode="B" d="M432 179q0 89 -58 129.5t-178 40.5h-60v-301q44 -19 114 -19q81 0 131.5 36t50.5 114zM406 526q0 135 -163 135q-61 0 -107 -18v-264h60q109 0 159.5 36.5t50.5 110.5zM490 184q0 -99 -65.5 -146.5t-169.5 -47.5q-105 0 -172 36v636q72 36 163 36q100 0 157.5 -46 t57.5 -121q0 -129 -138 -164v-2q68 -10 117.5 -60.5t49.5 -120.5z"/>
<glyph glyph-name="C" horiz-adv-x="472" unicode="C" d="M437 27q-55 -37 -127 -37q-82 0 -140 50.5t-84.5 129t-26.5 174.5t26.5 174.5t84.5 129t140 50.5q72 0 127 -37l-17 -35q-48 32 -110 32q-49 0 -86.5 -26.5t-60 -71.5t-33.5 -99.5t-11 -115.5q0 -130 48.5 -221.5t142.5 -91.5q62 0 110 32z"/>
<glyph glyph-name="D" horiz-adv-x="583" unicode="D" d="M465 345q0 149 -55.5 231.5t-163.5 82.5q-67 0 -106 -17v-594q39 -17 106 -17q108 0 163.5 82.5t55.5 231.5zM524 344q0 -166 -73 -260t-203 -94q-93 0 -165 36v636q72 36 165 36q130 0 203 -94t73 -260z"/>
<glyph glyph-name="E" horiz-adv-x="433" unicode="E" d="M386 0h-303v688h303v-39h-246v-272h223v-39h-223v-299h246v-39z"/>
<glyph glyph-name="F" horiz-adv-x="425" unicode="F" d="M384 649h-244v-272h222v-39h-222v-338h-57v688h301v-39z"/>
<glyph glyph-name="G" horiz-adv-x="583" unicode="G" d="M506 26q-63 -36 -165 -36q-55 0 -104 21t-89.5 62.5t-64.5 111t-24 159.5q0 164 78.5 259t208.5 95q81 0 145 -37l-17 -35q-59 31 -128 31q-106 0 -167 -83.5t-61 -229.5q0 -153 64.5 -233t158.5 -80q67 0 108 17v290h-147v39h204v-351z"/>
<glyph glyph-name="H" horiz-adv-x="581" unicode="H" d="M498 0h-57v338h-301v-338h-57v688h57v-311h301v311h57v-688z"/>
<glyph glyph-name="I" horiz-adv-x="231" unicode="I" d="M144 0h-57v688h57v-688z"/>
<glyph glyph-name="J" horiz-adv-x="231" unicode="J" d="M144 688v-621q0 -107 -50.5 -183t-140.5 -104v42q62 27 98 90t36 155v621h57z"/>
<glyph glyph-name="K" d="M488 0h-73l-271 363h-2v-363h-55v688h55v-323h2l266 323h68l-281 -323z" unicode="K"/>
<glyph glyph-name="L" horiz-adv-x="400" unicode="L" d="M367 0h-280v688h57v-649h223v-39z"/>
<glyph glyph-name="M" horiz-adv-x="774" unicode="M" d="M714 0h-56l-62 575q-4 34 -6 79h-2q-12 -57 -18 -79l-162 -575h-48l-161 575q-9 32 -18 79h-2q-2 -40 -6 -79l-63 -575h-50l86 688h67l155 -552q10 -37 18 -84h2q8 45 18 84l155 552h67z"/>
<glyph glyph-name="N" horiz-adv-x="644" unicode="N" d="M561 0h-58l-335 576q-21 35 -38 74h-2q3 -54 3 -86v-564h-48v688h73l321 -555q21 -35 37 -73h2q-3 42 -3 83v545h48v-688z"/>
<glyph glyph-name="O" horiz-adv-x="596" unicode="O" d="M479 345q0 87 -15.5 154t-57.5 113t-108 46t-108 -46t-57.5 -113t-15.5 -154t15.5 -154t57.5 -113t108 -46t108 46t57.5 113t15.5 154zM537 344q0 -157 -59.5 -255.5t-179.5 -98.5t-179.5 98.5t-59.5 255.5t59.5 255.5t179.5 98.5t179.5 -98.5t59.5 -255.5z"/>
<glyph glyph-name="P" horiz-adv-x="501" unicode="P" d="M400 498q0 163 -164 163q-53 0 -97 -17v-308q35 -6 79 -6q96 0 139 46.5t43 121.5zM456 496q0 -89 -59.5 -146t-178.5 -57q-37 0 -79 7v-300h-56v662q70 36 153 36q108 0 164 -54t56 -148z"/>
<glyph glyph-name="Q" horiz-adv-x="596" unicode="Q" d="M479 345q0 87 -15.5 154t-57.5 113t-108 46t-108 -46t-57.5 -113t-15.5 -154t15.5 -154t57.5 -113t108 -46t108 46t57.5 113t15.5 154zM537 344q0 -117 -33.5 -204t-101.5 -125l123 -159l-44 -40l-113 185q-33 -11 -70 -11q-120 0 -179.5 98.5t-59.5 255.5t59.5 255.5 t179.5 98.5t179.5 -98.5t59.5 -255.5z"/>
<glyph glyph-name="R" horiz-adv-x="522" unicode="R" d="M405 509q0 152 -167 152q-54 0 -98 -17v-291q31 -6 73 -6q86 0 139 45t53 117zM480 0h-68l-149 235q-51 79 -123 92v-327h-55v662q67 36 153 36q106 0 164 -49t58 -140q0 -76 -59 -130t-151 -62v-2q39 -29 69 -75z"/>
<glyph glyph-name="S" horiz-adv-x="474" unicode="S" d="M414 172q0 -79 -57 -130.5t-149 -51.5q-98 0 -158 37l19 38q52 -32 139 -32q70 0 109.5 38.5t39.5 99.5q0 53 -31 88.5t-74.5 56.5t-87.5 43.5t-75 65t-31 105.5q0 77 53 122.5t139 45.5q79 0 137 -37l-18 -35q-52 32 -119 32q-64 0 -100 -33.5t-36 -93.5q0 -52 31 -86.5 t75 -55t88 -43t75 -66t31 -108.5z"/>
<glyph glyph-name="T" horiz-adv-x="427" unicode="T" d="M397 649h-155v-649h-57v649h-155v39h367v-39z"/>
<glyph glyph-name="U" horiz-adv-x="570" unicode="U" d="M487 193q0 -86 -54.5 -145t-147.5 -59t-147.5 59t-54.5 145v495h57v-495q0 -72 43.5 -115t104.5 -43t104.5 43t43.5 115v495h51v-495z"/>
<glyph glyph-name="V" horiz-adv-x="512" unicode="V" d="M482 688l-200 -688h-50l-200 688h61l142 -526q9 -35 23 -107h2q12 64 23 107l145 526h54z"/>
<glyph glyph-name="W" horiz-adv-x="806" unicode="W" d="M764 688l-164 -688h-50l-131 539q-8 32 -14 82h-2q-6 -50 -14 -82l-131 -539h-50l-164 688h61l114 -545q10 -49 14 -85h2q8 49 16 85l133 545h48l129 -545q7 -30 15 -85h2q8 54 15 85l118 545h53z"/>
<glyph glyph-name="X" horiz-adv-x="508" unicode="X" d="M476 0h-64l-157 319h-2l-163 -319h-58l194 358l-174 330h61l140 -285h2l146 285h55l-174 -324z"/>
<glyph glyph-name="Y" horiz-adv-x="486" unicode="Y" d="M463 688l-191 -375v-313h-57v313l-190 375h63l157 -337h2l161 337h55z"/>
<glyph glyph-name="Z" horiz-adv-x="428" unicode="Z" d="M395 0h-367l284 649h-272v39h346l-283 -649h292v-39z"/>
<glyph glyph-name="bracketleft" horiz-adv-x="310" unicode="[" d="M260 -215h-176v1000h176v-34h-126v-931h126v-35z"/>
<glyph glyph-name="backslash" horiz-adv-x="434" unicode="\" d="M430 -197l-46 -18l-344 992l46 18z"/>
<glyph glyph-name="bracketright" horiz-adv-x="310" unicode="]" d="M226 -215h-176v35h126v931h-126v34h176v-1000z"/>
<glyph glyph-name="asciicircum" horiz-adv-x="470" unicode="^" d="M410 508l-28 -22l-147 158l-147 -158l-28 22l145 174q11 14 30 14t30 -14z"/>
<glyph glyph-name="underscore" horiz-adv-x="490" unicode="_" d="M500 -115h-510v40h510v-40z"/>
<glyph glyph-name="grave" horiz-adv-x="222" unicode="`" d="M152 600h-34l-106 129q7 18 30 18q19 0 34 -13z"/>
<glyph glyph-name="a" horiz-adv-x="478" unicode="a" d="M350 46v270q-124 -15 -186 -52t-62 -114q0 -61 36.5 -93.5t106.5 -32.5q63 0 105 22zM401 27q-71 -37 -163 -37q-89 0 -139 41.5t-50 118.5q0 169 301 199v37q0 124 -126 124q-68 0 -130 -35l-15 35q70 39 146 39q84 0 130 -41.5t46 -122.5v-358z"/>
<glyph glyph-name="b" horiz-adv-x="505" unicode="b" d="M396 276q0 108 -44 172t-121 64q-55 0 -101 -24v-444q35 -16 90 -16q91 0 133.5 67t42.5 181zM450 276q0 -129 -59.5 -207.5t-170.5 -78.5q-86 0 -143 37v758h53v-264q49 26 115 26q92 0 148.5 -74t56.5 -197z"/>
<glyph glyph-name="c" horiz-adv-x="407" unicode="c" d="M367 24q-42 -34 -113 -34q-94 0 -146.5 78t-52.5 202t52.5 201.5t146.5 77.5q71 0 113 -34l-15 -34q-39 29 -94 29q-70 0 -109 -67.5t-39 -171.5q0 -102 39.5 -171t108.5 -69q54 0 93 29z"/>
<glyph glyph-name="d" horiz-adv-x="505" unicode="d" d="M375 46v453q-39 11 -79 11q-51 0 -88.5 -21t-58.5 -57t-30.5 -77.5t-9.5 -89.5q0 -107 42.5 -172t131.5 -65q61 0 92 18zM428 27q-54 -37 -150 -37q-109 0 -166 74t-57 194q0 124 60 205.5t173 81.5q41 0 87 -13v253h53v-758z"/>
<glyph glyph-name="e" horiz-adv-x="507" unicode="e" d="M399 324q-3 188 -140 188q-75 0 -114.5 -63t-39.5 -170zM452 297l-346 -53q5 -100 51 -156.5t130 -56.5q76 0 129 33l17 -37q-59 -37 -147 -37q-109 0 -170 73t-61 208q0 128 54.5 203t149.5 75q92 0 142.5 -62t50.5 -190z"/>
<glyph glyph-name="f" horiz-adv-x="289" unicode="f" d="M260 506h-100v-506h-54v506h-63v33h63v87q0 72 38 115.5t110 43.5h6v-36q-100 0 -100 -122v-88h100v-33z"/>
<glyph glyph-name="g" horiz-adv-x="505" unicode="g" d="M376 55v441q-36 18 -91 18q-89 0 -132.5 -67.5t-43.5 -185.5q0 -232 167 -232q58 0 100 26zM428 -15q0 -97 -50 -153.5t-142 -56.5q-87 0 -149 36l20 37q53 -31 121 -31q76 0 112 43.5t36 116.5v42q-44 -27 -114 -27q-96 0 -151.5 72.5t-55.5 196.5q0 130 59.5 209 t169.5 79q89 0 144 -36v-528z"/>
<glyph glyph-name="h" horiz-adv-x="511" unicode="h" d="M434 0h-54v386q0 121 -124 121q-68 0 -125 -35v-472h-54v785h54v-279q57 37 128 37q93 0 134 -46t41 -109v-388z"/>
<glyph glyph-name="i" horiz-adv-x="222" unicode="i" d="M138 0h-54v539h54v-539zM148 690q0 -15 -11 -26t-26 -11t-26 11t-11 26t11 26t26 11t26 -11t11 -26z"/>
<glyph glyph-name="j" horiz-adv-x="227" unicode="j" d="M143 68q0 -113 -36 -183t-122 -106v37q58 39 81 94.5t23 151.5v477h54v-471zM153 690q0 -15 -11 -26t-26 -11t-26 11t-11 26t11 26t26 11t26 -11t11 -26z"/>
<glyph glyph-name="k" horiz-adv-x="454" unicode="k" d="M444 0h-68l-239 281h-2v-281h-52v785h52v-502h2l222 256h64l-233 -257z"/>
<glyph glyph-name="l" horiz-adv-x="224" unicode="l" d="M139 0h-54v785h54v-785z"/>
<glyph glyph-name="m" horiz-adv-x="814" unicode="m" d="M737 0h-54v380q0 133 -126 133q-74 0 -123 -62v-451h-54v398q0 53 -32 84t-98 31q-70 0 -119 -21v-492h-54v512q79 37 173 37q107 0 158 -68q53 68 149 68q91 0 135.5 -45t44.5 -124v-380z"/>
<glyph glyph-name="n" horiz-adv-x="511" unicode="n" d="M434 0h-54v376q0 71 -32 104t-106 33q-63 0 -111 -21v-492h-54v512q76 37 165 37q192 0 192 -173v-376z"/>
<glyph glyph-name="o" horiz-adv-x="506" unicode="o" d="M397 272q0 50 -7.5 91.5t-23.5 76t-45 54t-68 19.5q-52 0 -85 -34.5t-46 -86.5t-13 -120t13 -120.5t46.5 -87.5t84.5 -35t84.5 35t46.5 87.5t13 120.5zM451 270q0 -127 -49.5 -203.5t-148.5 -76.5t-148.5 76.5t-49.5 203.5t49.5 203t148.5 76t148.5 -76t49.5 -203z"/>
<glyph glyph-name="p" horiz-adv-x="505" unicode="p" d="M396 275q0 239 -175 239q-54 0 -91 -18v-454q35 -13 77 -13q92 0 140.5 64.5t48.5 181.5zM450 281q0 -136 -63 -212.5t-171 -76.5q-48 0 -86 14v-221h-53v728q63 36 149 36q107 0 165.5 -73.5t58.5 -194.5z"/>
<glyph glyph-name="q" horiz-adv-x="505" unicode="q" d="M376 55v441q-36 18 -91 18q-89 0 -132.5 -67.5t-43.5 -185.5q0 -232 167 -232q58 0 100 26zM428 -215h-52v234q-44 -27 -114 -27q-96 0 -151.5 72.5t-55.5 196.5q0 130 59.5 209t169.5 79q89 0 144 -36v-728z"/>
<glyph glyph-name="r" horiz-adv-x="303" unicode="r" d="M279 546l-15 -45q-22 7 -54 7q-45 0 -79 -17v-491h-54v512q72 36 166 36q16 0 36 -2z"/>
<glyph glyph-name="s" horiz-adv-x="404" unicode="s" d="M351 142q0 -62 -48.5 -107t-121.5 -45q-82 0 -134 36l17 37q48 -32 114 -32q53 0 86 31.5t33 78.5q0 42 -24.5 68t-59.5 40.5t-70 30t-59.5 48t-24.5 82.5q0 58 42 98.5t112 40.5q71 0 120 -36l-16 -35q-46 32 -102 32q-51 0 -77.5 -28t-26.5 -71q0 -38 24.5 -62.5 t60 -38.5t71 -30.5t60 -50.5t24.5 -87z"/>
<glyph glyph-name="t" horiz-adv-x="299" unicode="t" d="M260 2q-15 -5 -40 -5q-50 0 -82 32t-32 91v386h-63v33h63v129l54 20v-149h100v-33h-100v-386q0 -85 75 -85q15 0 25 3v-36z"/>
<glyph glyph-name="u" horiz-adv-x="500" unicode="u" d="M423 30q-69 -40 -167 -40q-179 0 -179 169v380h54v-380q0 -131 125 -131q71 0 113 22v489h54v-509z"/>
<glyph glyph-name="v" horiz-adv-x="472" unicode="v" d="M438 539l-179 -539h-44l-179 539h58l130 -423q6 -18 14 -62h2q4 31 14 62l134 423h50z"/>
<glyph glyph-name="w" horiz-adv-x="756" unicode="w" d="M716 539l-156 -539h-43l-125 432q-7 24 -12 59h-2q-5 -38 -12 -59l-125 -432h-43l-156 539h57l110 -425q8 -30 11 -60h2q6 35 13 60l123 425h49l121 -425q7 -26 12 -60h2q4 31 12 60l111 425h51z"/>
<glyph glyph-name="x" horiz-adv-x="450" unicode="x" d="M417 0h-59l-133 244h-2l-134 -244h-56l166 282l-148 257h57l117 -216h2l119 216h53l-148 -254z"/>
<glyph glyph-name="y" horiz-adv-x="472" unicode="y" d="M438 539l-250 -754h-60l90 215l-182 539h58l131 -425q10 -30 13 -60h2q8 36 15 60l133 425h50z"/>
<glyph glyph-name="z" horiz-adv-x="406" unicode="z" d="M363 0h-330l248 506h-232v33h304l-247 -506h257v-33z"/>
<glyph glyph-name="braceleft" horiz-adv-x="340" unicode="{" d="M290 -215h-10q-166 0 -166 171v196q0 54 -14.5 82.5t-53.5 35.5v34q39 7 53.5 35.5t14.5 82.5v192q0 171 166 171h10v-34q-69 0 -97.5 -34.5t-28.5 -102.5v-192q0 -58 -15.5 -88.5t-55.5 -45.5v-2q40 -15 55.5 -45.5t15.5 -88.5v-196q0 -67 28.5 -101.5t97.5 -34.5v-35z "/>
<glyph glyph-name="bar" horiz-adv-x="218" unicode="|" d="M133 -215h-48v1000h48v-1000z"/>
<glyph glyph-name="braceright" horiz-adv-x="340" unicode="}" d="M294 270q-39 -7 -53.5 -35.5t-14.5 -82.5v-196q0 -171 -166 -171h-10v35q69 0 97.5 34.5t28.5 101.5v196q0 58 15.5 88.5t55.5 45.5v2q-40 15 -55.5 45.5t-15.5 88.5v192q0 68 -28.5 102.5t-97.5 34.5v34h10q166 0 166 -171v-192q0 -54 14.5 -82.5t53.5 -35.5v-34z"/>
<glyph glyph-name="asciitilde" horiz-adv-x="470" unicode="~" d="M410 393q-21 -96 -100 -96q-28 0 -75 32.5t-75 32.5q-49 0 -66 -61l-34 12q21 96 100 96q28 0 75 -32.5t75 -32.5q49 0 66 61z"/>
<glyph glyph-name="uni00A0" horiz-adv-x="280" unicode=" "/>
<glyph glyph-name="exclamdown" horiz-adv-x="254" unicode="¡" d="M163 -215h-62l11 473h40zM174 436q0 -17 -12.5 -29.5t-29.5 -12.5t-29.5 12.5t-12.5 29.5t12.5 29.5t29.5 12.5t29.5 -12.5t12.5 -29.5z"/>
<glyph glyph-name="cent" horiz-adv-x="428" unicode="¢" d="M374 133q-31 -26 -103 -29v-104h-38v105q-79 9 -124 71t-45 167q0 101 45.5 164t123.5 74v107h38v-106q62 -1 103 -29l-14 -32q-40 23 -89 23q-79 0 -116.5 -54t-37.5 -144q0 -93 39 -147.5t113 -54.5q51 0 90 23z"/>
<glyph glyph-name="sterling" d="M454 0h-394q105 127 105 237q0 44 -13 98h-92v40h80q-24 76 -24 125q0 91 54.5 144.5t147.5 53.5q80 0 135 -36l-17 -36q-49 30 -116 30q-70 0 -108.5 -42.5t-38.5 -113.5q0 -49 20 -125h178v-40h-168q9 -49 9 -98q0 -45 -19.5 -99t-48.5 -93h310v-45z" unicode="£"/>
<glyph glyph-name="currency" horiz-adv-x="546" unicode="¤" d="M386 354q0 72 -32 117.5t-81 45.5t-81 -45.5t-32 -117.5t32 -117.5t81 -45.5t81 45.5t32 117.5zM486 170l-30 -30l-70 70q-45 -53 -113 -53t-113 53l-70 -70l-30 30l76 76q-24 48 -24 107t24 107l-76 76l30 30l70 -70q45 53 113 53t113 -53l70 70l30 -30l-76 -76 q24 -48 24 -107t-24 -107z"/>
<glyph glyph-name="yen" horiz-adv-x="610" unicode="¥" d="M542 688l-125 -236h104v-34h-121l-68 -128h189v-34h-189v-256h-54v256h-189v34h189l-68 128h-121v34h104l-125 236h63l175 -366h2l179 366h55z"/>
<glyph glyph-name="brokenbar" horiz-adv-x="218" unicode="¦" d="M133 -215h-48v393h48v-393zM133 392h-48v393h48v-393z"/>
<glyph glyph-name="section" horiz-adv-x="516" unicode="§" d="M401 216q0 30 -10.5 55.5t-33 47t-40.5 35t-52.5 35t-49.5 31.5q-98 -57 -98 -134q0 -25 8.5 -48t18.5 -38.5t33 -35t35.5 -28t43.5 -28.5t40 -26q105 56 105 134zM450 222q0 -97 -122 -162q77 -59 77 -132q0 -62 -48.5 -107t-121.5 -45q-82 0 -134 36l17 37 q48 -32 114 -32q54 0 86.5 31.5t32.5 79.5q0 40 -29.5 72.5t-71 58t-83.5 53.5t-71.5 70.5t-29.5 96.5q0 96 119 164q-60 51 -60 116q0 58 42 98.5t112 40.5q71 0 120 -36l-16 -35q-46 32 -102 32q-51 0 -77.5 -28.5t-26.5 -71.5q0 -38 28 -69.5t68.5 -56t80.5 -51t68 -67.5 t28 -93z"/>
<glyph glyph-name="dieresis" horiz-adv-x="222" unicode="¨" d="M71 650q0 -14 -10 -24t-24 -10t-24 10t-10 24t10 24t24 10t24 -10t10 -24zM219 650q0 -14 -10 -24t-24 -10t-24 10t-10 24t10 24t24 10t24 -10t10 -24z"/>
<glyph glyph-name="copyright" horiz-adv-x="830" unicode="©" d="M509 161q-32 -21 -91 -21q-83 0 -130 58.5t-47 148.5q0 88 47.5 147.5t129.5 59.5q54 0 91 -21l-14 -30q-28 15 -70 15q-66 0 -99 -50t-33 -121t34 -120t98 -49q39 0 69 15zM722 345q0 130 -89.5 223t-217.5 93t-217.5 -93t-89.5 -223t89.5 -223t217.5 -93t217.5 93 t89.5 223zM770 344q0 -147 -104 -251t-251 -104t-251 104t-104 251t104 251t251 104t251 -104t104 -251z"/>
<glyph glyph-name="ordfeminine" horiz-adv-x="372" unicode="ª" d="M252 361v174q-80 -10 -119.5 -34t-39.5 -73q0 -39 24 -60.5t69 -21.5q36 0 66 15zM296 343q-48 -25 -116 -25q-62 0 -97 28t-35 81q0 115 204 136v24q0 78 -82 78q-46 0 -89 -23l-13 29q49 27 105 27q58 0 90.5 -28.5t32.5 -85.5v-241z"/>
<glyph glyph-name="guillemotleft" horiz-adv-x="460" unicode="«" d="M220 137l-34 -22l-126 219l126 219l34 -22l-114 -197zM390 137l-34 -22l-126 219l126 219l34 -22l-114 -197z"/>
<glyph glyph-name="logicalnot" d="M444 149h-44v169h-334v40h378v-209z" unicode="¬"/>
<glyph glyph-name="uni00AD" horiz-adv-x="338" unicode="­" d="M273 314h-208v48h208v-48z"/>
<glyph glyph-name="registered" horiz-adv-x="830" unicode="®" d="M496 444q0 86 -91 86q-27 0 -51 -9v-165q17 -3 39 -3q47 0 75 25.5t28 65.5zM557 146h-57l-80 135q-26 44 -66 54v-189h-48v392q44 22 99 22q67 0 103 -29.5t36 -85.5q0 -44 -32.5 -75t-83.5 -38v-2q22 -18 40 -46zM722 345q0 130 -89.5 223t-217.5 93t-217.5 -93 t-89.5 -223t89.5 -223t217.5 -93t217.5 93t89.5 223zM770 344q0 -147 -104 -251t-251 -104t-251 104t-104 251t104 251t251 104t251 -104t104 -251z"/>
<glyph glyph-name="macron" horiz-adv-x="222" unicode="¯" d="M227 620h-232v39h232v-39z"/>
<glyph glyph-name="degree" horiz-adv-x="430" unicode="°" d="M322 553q0 45 -31.5 77t-75.5 32t-75.5 -32t-31.5 -77t31.5 -77t75.5 -32t75.5 32t31.5 77zM360 553q0 -60 -42.5 -102.5t-102.5 -42.5t-102.5 42.5t-42.5 102.5t42.5 102.5t102.5 42.5t102.5 -42.5t42.5 -102.5z"/>
<glyph glyph-name="plusminus" d="M444 0h-378v40h378v-40zM444 318h-167v-169h-44v169h-167v40h167v169h44v-169h167v-40z" unicode="±"/>
<glyph glyph-name="twosuperior" horiz-adv-x="320" unicode="²" d="M262 476h-241l150 213q37 53 37 95q0 76 -86 76q-38 0 -76 -18l-13 31q42 22 98 22q62 0 93.5 -29t31.5 -80q0 -47 -51 -116l-115 -156h172v-38z"/>
<glyph glyph-name="threesuperior" horiz-adv-x="320" unicode="³" d="M268 594q0 -56 -38.5 -90.5t-96.5 -34.5q-63 0 -102 21l13 32q34 -18 82 -18q44 0 69 24t25 66q0 46 -30.5 68t-78.5 22h-14v28q48 4 77.5 26.5t29.5 58.5q0 33 -20.5 48.5t-52.5 15.5q-42 0 -78 -17l-13 30q42 21 97 21q48 0 80.5 -24.5t32.5 -67.5q0 -67 -78 -96v-2 q96 -22 96 -111z"/>
<glyph glyph-name="acute" horiz-adv-x="222" unicode="´" d="M210 729l-106 -129h-34l76 134q15 13 34 13q22 0 30 -18z"/>
<glyph glyph-name="mu" horiz-adv-x="504" unicode="µ" d="M427 42q-71 -52 -167 -52q-73 0 -125 34v-239h-54v754h54v-473q52 -38 125 -38q64 0 113 34v477h54v-497z"/>
<glyph glyph-name="paragraph" horiz-adv-x="580" unicode="¶" d="M496 -215h-54v855q-62 20 -133 20q-28 0 -61 -5v-870h-54v524q-69 17 -106.5 68.5t-37.5 117.5q0 54 21.5 94.5t59 63.5t82.5 34t96 11q102 0 187 -36v-877z"/>
<glyph glyph-name="periodcentered" horiz-adv-x="236" unicode="·" d="M160 337q0 -17 -12.5 -29.5t-29.5 -12.5t-29.5 12.5t-12.5 29.5t12.5 29.5t29.5 12.5t29.5 -12.5t12.5 -29.5z"/>
<glyph glyph-name="cedilla" horiz-adv-x="222" unicode="¸" d="M228 -124q0 -35 -42 -53.5t-117 -18.5q-29 0 -69 4l14 28q27 -3 47 -3q50 0 83 11t33 32q0 35 -76 35q-27 0 -53 -2l13 27q33 3 58 3q109 0 109 -63z"/>
<glyph glyph-name="onesuperior" horiz-adv-x="320" unicode="¹" d="M217 476h-46v350q-38 -24 -107 -30l-6 28q96 15 128 64h31v-412z"/>
<glyph glyph-name="ordmasculine" horiz-adv-x="388" unicode="º" d="M288 509q0 67 -21.5 111.5t-72.5 44.5t-72.5 -44.5t-21.5 -111.5t21.5 -111.5t72.5 -44.5t72.5 44.5t21.5 111.5zM334 508q0 -81 -34.5 -135.5t-105.5 -54.5t-105.5 54.5t-34.5 135.5t34.5 135.5t105.5 54.5t105.5 -54.5t34.5 -135.5z"/>
<glyph glyph-name="guillemotright" horiz-adv-x="460" unicode="»" d="M230 334l-126 -219l-34 22l114 197l-114 197l34 22zM400 334l-126 -219l-34 22l114 197l-114 197l34 22z"/>
<glyph glyph-name="onequarter" horiz-adv-x="770" unicode="¼" d="M640 366h-2q-15 -35 -28 -57l-107 -183h135v178q0 34 2 62zM712 97h-34v-97h-41v97h-170v31l169 284h42v-286h34v-29zM575 680l-320 -689l-34 17l320 689zM217 276h-46v350q-38 -24 -107 -30l-6 28q96 15 128 64h31v-412z"/>
<glyph glyph-name="onehalf" horiz-adv-x="770" unicode="½" d="M712 0h-241l150 213q37 53 37 95q0 76 -86 76q-38 0 -76 -18l-13 31q42 22 98 22q62 0 93.5 -29t31.5 -80q0 -47 -51 -116l-115 -156h172v-38zM531 680l-320 -689l-34 17l320 689zM217 276h-46v350q-38 -24 -107 -30l-6 28q96 15 128 64h31v-412z"/>
<glyph glyph-name="threequarters" horiz-adv-x="770" unicode="¾" d="M269 394q0 -56 -38.5 -90.5t-96.5 -34.5q-63 0 -102 21l13 32q34 -18 82 -18q44 0 69 24t25 66q0 46 -30.5 68t-78.5 22h-14v28q48 4 77.5 26.5t29.5 58.5q0 33 -20.5 48.5t-52.5 15.5q-42 0 -78 -17l-13 30q42 21 97 21q48 0 80.5 -24.5t32.5 -67.5q0 -67 -78 -96v-2 q96 -22 96 -111zM640 366h-2q-11 -29 -28 -57l-107 -183h135v178q0 34 2 62zM712 97h-34v-97h-41v97h-170v31l169 284h42v-286h34v-29zM582 680l-320 -689l-34 17l320 689z"/>
<glyph glyph-name="questiondown" horiz-adv-x="380" unicode="¿" d="M360 -189q-54 -36 -130 -36q-80 0 -128 42.5t-48 114.5q0 59 47 102.5t98 57.5l8 166h40l8 -185q-56 -14 -101 -49t-45 -92q0 -53 32.5 -84.5t94.5 -31.5t106 27zM269 436q0 -17 -12.5 -29.5t-29.5 -12.5t-29.5 12.5t-12.5 29.5t12.5 29.5t29.5 12.5t29.5 -12.5 t12.5 -29.5z"/>
<glyph glyph-name="Agrave" horiz-adv-x="572" unicode="À" d="M309 749h-34l-106 129q7 18 30 18q19 0 34 -13zM397 272l-90 278q-9 29 -22 89h-2q-16 -66 -23 -89l-91 -278h228zM546 0h-60l-76 235h-253l-77 -235h-54l237 688h46z"/>
<glyph glyph-name="Aacute" horiz-adv-x="572" unicode="Á" d="M403 878l-106 -129h-34l76 134q15 13 34 13q23 0 30 -18zM397 272l-90 278q-9 29 -22 89h-2q-16 -66 -23 -89l-91 -278h228zM546 0h-60l-76 235h-253l-77 -235h-54l237 688h46z"/>
<glyph glyph-name="Acircumflex" horiz-adv-x="572" unicode="Â" d="M403 764l-22 -19l-95 84l-95 -84l-22 19l89 97q12 13 28 13t28 -13zM397 272l-90 278q-9 29 -22 89h-2q-16 -66 -23 -89l-91 -278h228zM546 0h-60l-76 235h-253l-77 -235h-54l237 688h46z"/>
<glyph glyph-name="Atilde" horiz-adv-x="572" unicode="Ã" d="M406 826q-14 -69 -70 -69q-21 0 -50.5 20.5t-47.5 20.5q-31 0 -40 -39l-30 10q14 69 70 69q21 0 50.5 -20.5t47.5 -20.5q31 0 40 39zM397 272l-90 278q-9 29 -22 89h-2q-16 -66 -23 -89l-91 -278h228zM546 0h-60l-76 235h-253l-77 -235h-54l237 688h46z"/>
<glyph glyph-name="Adieresis" horiz-adv-x="572" unicode="Ä" d="M394 799q0 -14 -10 -24t-24 -10t-24 10t-10 24t10 24t24 10t24 -10t10 -24zM246 799q0 -14 -10 -24t-24 -10t-24 10t-10 24t10 24t24 10t24 -10t10 -24zM397 272l-90 278q-9 29 -22 89h-2q-16 -66 -23 -89l-91 -278h228zM546 0h-60l-76 235h-253l-77 -235h-54l237 688h46 z"/>
<glyph glyph-name="Aring" horiz-adv-x="572" unicode="Å" d="M333 824q0 20 -14 34.5t-33 14.5t-33 -14.5t-14 -34.5t14 -34.5t33 -14.5t33 14.5t14 34.5zM363 824q0 -32 -22.5 -54.5t-54.5 -22.5t-54.5 22.5t-22.5 54.5t22.5 54.5t54.5 22.5t54.5 -22.5t22.5 -54.5zM397 272l-90 278q-9 29 -22 89h-2q-16 -66 -23 -89l-91 -278h228z M546 0h-60l-76 235h-253l-77 -235h-54l237 688h46z"/>
<glyph glyph-name="AE" horiz-adv-x="742" unicode="Æ" d="M409 272l-68 279q-6 24 -18 88h-2q-26 -78 -30 -88l-113 -279h231zM718 0h-243l-57 235h-255l-96 -235h-55l290 688h352v-39h-288l69 -272h218v-39h-208l76 -299h197v-39z"/>
<glyph glyph-name="Ccedilla" horiz-adv-x="472" unicode="Ç" d="M368 -124q0 -35 -42 -53.5t-117 -18.5q-29 0 -69 4l14 28q27 -3 47 -3q50 0 83 11t33 32q0 35 -76 35q-27 0 -53 -2l13 27q33 3 58 3q109 0 109 -63zM437 27q-55 -37 -127 -37q-82 0 -140 50.5t-84.5 129t-26.5 174.5t26.5 174.5t84.5 129t140 50.5q72 0 127 -37l-17 -35 q-48 32 -110 32q-49 0 -86.5 -26.5t-60 -71.5t-33.5 -99.5t-11 -115.5q0 -130 48.5 -221.5t142.5 -91.5q62 0 110 32z"/>
<glyph glyph-name="Egrave" horiz-adv-x="433" unicode="È" d="M267 749h-34l-106 129q8 18 30 18q19 0 34 -13zM386 0h-303v688h303v-39h-246v-272h223v-39h-223v-299h246v-39z"/>
<glyph glyph-name="Eacute" horiz-adv-x="433" unicode="É" d="M342 878l-106 -129h-34l76 134q15 13 34 13q22 0 30 -18zM386 0h-303v688h303v-39h-246v-272h223v-39h-223v-299h246v-39z"/>
<glyph glyph-name="Ecircumflex" horiz-adv-x="433" unicode="Ê" d="M347 764l-22 -19l-95 84l-95 -84l-22 19l89 97q12 13 28 13t28 -13zM386 0h-303v688h303v-39h-246v-272h223v-39h-223v-299h246v-39z"/>
<glyph glyph-name="Edieresis" horiz-adv-x="433" unicode="Ë" d="M339 799q0 -14 -10 -24t-24 -10t-24 10t-10 24t10 24t24 10t24 -10t10 -24zM191 799q0 -14 -10 -24t-24 -10t-24 10t-10 24t10 24t24 10t24 -10t10 -24zM386 0h-303v688h303v-39h-246v-272h223v-39h-223v-299h246v-39z"/>
<glyph glyph-name="Igrave" horiz-adv-x="231" unicode="Ì" d="M145 749h-34l-106 129q7 18 30 18q19 0 34 -13zM144 0h-57v688h57v-688z"/>
<glyph glyph-name="Iacute" horiz-adv-x="231" unicode="Í" d="M226 878l-106 -129h-34l76 134q15 13 34 13q22 0 30 -18zM144 0h-57v688h57v-688z"/>
<glyph glyph-name="Icircumflex" horiz-adv-x="231" unicode="Î" d="M233 764l-22 -19l-95 84l-95 -84l-22 19l89 97q12 13 28 13t28 -13zM144 0h-57v688h57v-688z"/>
<glyph glyph-name="Idieresis" horiz-adv-x="231" unicode="Ï" d="M224 799q0 -14 -10 -24t-24 -10t-24 10t-10 24t10 24t24 10t24 -10t10 -24zM76 799q0 -14 -10 -24t-24 -10t-24 10t-10 24t10 24t24 10t24 -10t10 -24zM144 0h-57v688h57v-688z"/>
<glyph glyph-name="Eth" horiz-adv-x="591" unicode="Ð" d="M473 353q0 150 -56 229t-166 79q-62 0 -103 -16v-265h133v-35h-133v-297q39 -17 105 -17q220 0 220 322zM532 353q0 -169 -69 -266t-202 -97q-105 0 -170 36v319h-68v35h68v281q67 37 168 37q129 0 201 -90.5t72 -254.5z"/>
<glyph glyph-name="Ntilde" horiz-adv-x="644" unicode="Ñ" d="M444 826q-14 -69 -70 -69q-21 0 -50.5 20.5t-47.5 20.5q-31 0 -40 -39l-30 10q14 69 70 69q21 0 50.5 -20.5t47.5 -20.5q31 0 40 39zM561 0h-58l-335 576q-21 35 -38 74h-2q3 -54 3 -86v-564h-48v688h73l321 -555q21 -35 37 -73h2q-3 42 -3 83v545h48v-688z"/>
<glyph glyph-name="Ograve" horiz-adv-x="596" unicode="Ò" d="M328 749h-34l-106 129q8 18 30 18q19 0 34 -13zM479 345q0 87 -15.5 154t-57.5 113t-108 46t-108 -46t-57.5 -113t-15.5 -154t15.5 -154t57.5 -113t108 -46t108 46t57.5 113t15.5 154zM537 344q0 -157 -59.5 -255.5t-179.5 -98.5t-179.5 98.5t-59.5 255.5t59.5 255.5 t179.5 98.5t179.5 -98.5t59.5 -255.5z"/>
<glyph glyph-name="Oacute" horiz-adv-x="596" unicode="Ó" d="M408 878l-106 -129h-34l76 134q15 13 34 13q22 0 30 -18zM479 345q0 87 -15.5 154t-57.5 113t-108 46t-108 -46t-57.5 -113t-15.5 -154t15.5 -154t57.5 -113t108 -46t108 46t57.5 113t15.5 154zM537 344q0 -157 -59.5 -255.5t-179.5 -98.5t-179.5 98.5t-59.5 255.5 t59.5 255.5t179.5 98.5t179.5 -98.5t59.5 -255.5z"/>
<glyph glyph-name="Ocircumflex" horiz-adv-x="596" unicode="Ô" d="M415 764l-22 -19l-95 84l-95 -84l-22 19l89 97q12 13 28 13t28 -13zM479 345q0 87 -15.5 154t-57.5 113t-108 46t-108 -46t-57.5 -113t-15.5 -154t15.5 -154t57.5 -113t108 -46t108 46t57.5 113t15.5 154zM537 344q0 -157 -59.5 -255.5t-179.5 -98.5t-179.5 98.5 t-59.5 255.5t59.5 255.5t179.5 98.5t179.5 -98.5t59.5 -255.5z"/>
<glyph glyph-name="Otilde" horiz-adv-x="596" unicode="Õ" d="M417 826q-14 -69 -70 -69q-21 0 -50.5 20.5t-47.5 20.5q-31 0 -40 -39l-30 10q14 69 70 69q21 0 50.5 -20.5t47.5 -20.5q31 0 40 39zM479 345q0 87 -15.5 154t-57.5 113t-108 46t-108 -46t-57.5 -113t-15.5 -154t15.5 -154t57.5 -113t108 -46t108 46t57.5 113t15.5 154z M537 344q0 -157 -59.5 -255.5t-179.5 -98.5t-179.5 98.5t-59.5 255.5t59.5 255.5t179.5 98.5t179.5 -98.5t59.5 -255.5z"/>
<glyph glyph-name="Odieresis" horiz-adv-x="596" unicode="Ö" d="M406 799q0 -14 -10 -24t-24 -10t-24 10t-10 24t10 24t24 10t24 -10t10 -24zM258 799q0 -14 -10 -24t-24 -10t-24 10t-10 24t10 24t24 10t24 -10t10 -24zM479 345q0 87 -15.5 154t-57.5 113t-108 46t-108 -46t-57.5 -113t-15.5 -154t15.5 -154t57.5 -113t108 -46t108 46 t57.5 113t15.5 154zM537 344q0 -157 -59.5 -255.5t-179.5 -98.5t-179.5 98.5t-59.5 255.5t59.5 255.5t179.5 98.5t179.5 -98.5t59.5 -255.5z"/>
<glyph glyph-name="multiply" d="M444 177l-28 -28l-161 161l-161 -161l-28 28l161 161l-161 161l28 28l161 -161l161 161l28 -28l-161 -161z" unicode="×"/>
<glyph glyph-name="Oslash" horiz-adv-x="596" unicode="Ø" d="M482 346q0 130 -37 213l-276 -459q47 -70 129 -70q67 0 110 47t58.5 114.5t15.5 154.5zM429 590q-47 72 -131 72q-67 0 -110 -47t-58.5 -114.5t-15.5 -154.5q0 -134 38 -216zM537 344q0 -157 -59.5 -255.5t-179.5 -98.5q-94 0 -155 67l-56 -93l-26 16l62 103 q-64 97 -64 261q0 157 59.5 255.5t179.5 98.5q94 0 155 -67l56 93l26 -16l-62 -103q64 -97 64 -261z"/>
<glyph glyph-name="Ugrave" horiz-adv-x="570" unicode="Ù" d="M328 749h-34l-106 129q8 18 30 18q19 0 34 -13zM487 193q0 -86 -54.5 -145t-147.5 -59t-147.5 59t-54.5 145v495h57v-495q0 -72 43.5 -115t104.5 -43t104.5 43t43.5 115v495h51v-495z"/>
<glyph glyph-name="Uacute" horiz-adv-x="570" unicode="Ú" d="M388 878l-106 -129h-34l76 134q15 13 34 13q22 0 30 -18zM487 193q0 -86 -54.5 -145t-147.5 -59t-147.5 59t-54.5 145v495h57v-495q0 -72 43.5 -115t104.5 -43t104.5 43t43.5 115v495h51v-495z"/>
<glyph glyph-name="Ucircumflex" horiz-adv-x="570" unicode="Û" d="M404 764l-22 -19l-95 84l-95 -84l-22 19l89 97q12 13 28 13t28 -13zM487 193q0 -86 -54.5 -145t-147.5 -59t-147.5 59t-54.5 145v495h57v-495q0 -72 43.5 -115t104.5 -43t104.5 43t43.5 115v495h51v-495z"/>
<glyph glyph-name="Udieresis" horiz-adv-x="570" unicode="Ü" d="M396 799q0 -14 -10 -24t-24 -10t-24 10t-10 24t10 24t24 10t24 -10t10 -24zM248 799q0 -14 -10 -24t-24 -10t-24 10t-10 24t10 24t24 10t24 -10t10 -24zM487 193q0 -86 -54.5 -145t-147.5 -59t-147.5 59t-54.5 145v495h57v-495q0 -72 43.5 -115t104.5 -43t104.5 43 t43.5 115v495h51v-495z"/>
<glyph glyph-name="Yacute" horiz-adv-x="486" unicode="Ý" d="M356 878l-106 -129h-34l76 134q15 13 34 13q22 0 30 -18zM463 688l-191 -375v-313h-57v313l-190 375h63l157 -337h2l161 337h55z"/>
<glyph glyph-name="Thorn" d="M400 377q0 164 -164 164q-55 0 -97 -16v-311q40 -5 79 -5q96 0 139 46.5t43 121.5zM456 375q0 -89 -59.5 -145.5t-178.5 -56.5q-37 0 -79 5v-178h-56v688h56v-125q47 14 97 14q108 0 164 -54t56 -148z" unicode="Þ"/>
<glyph glyph-name="germandbls" horiz-adv-x="542" unicode="ß" d="M491 141q0 -67 -47 -108t-122 -41q-56 0 -106 28l15 38q42 -25 91 -25q54 0 84.5 29t30.5 79q0 32 -19.5 58.5t-46.5 46t-54.5 40t-47 51t-19.5 67.5q0 57 38.5 92.5t103.5 44.5q4 36 4 62q0 66 -31 110.5t-95 44.5q-49 0 -81 -32.5t-44 -78t-12 -103.5v-544h-54v543 q0 109 47 180t144 71q86 0 132.5 -54.5t46.5 -136.5q0 -51 -14 -91q-133 -8 -133 -107q0 -28 19.5 -52t47 -43.5t55.5 -41t47.5 -54t19.5 -73.5z"/>
<glyph glyph-name="agrave" horiz-adv-x="478" unicode="à" d="M281 600h-34l-106 129q7 18 30 18q19 0 34 -13zM350 46v270q-124 -15 -186 -52t-62 -114q0 -61 36.5 -93.5t106.5 -32.5q63 0 105 22zM401 27q-71 -37 -163 -37q-89 0 -139 41.5t-50 118.5q0 169 301 199v37q0 124 -126 124q-68 0 -130 -35l-15 35q70 39 146 39 q84 0 130 -41.5t46 -122.5v-358z"/>
<glyph glyph-name="aacute" horiz-adv-x="478" unicode="á" d="M352 729l-106 -129h-34l76 134q15 13 34 13q22 0 30 -18zM350 46v270q-124 -15 -186 -52t-62 -114q0 -61 36.5 -93.5t106.5 -32.5q63 0 105 22zM401 27q-71 -37 -163 -37q-89 0 -139 41.5t-50 118.5q0 169 301 199v37q0 124 -126 124q-68 0 -130 -35l-15 35q70 39 146 39 q84 0 130 -41.5t46 -122.5v-358z"/>
<glyph glyph-name="acircumflex" horiz-adv-x="478" unicode="â" d="M356 615l-22 -19l-95 84l-95 -84l-22 19l89 97q12 13 28 13t28 -13zM350 46v270q-124 -15 -186 -52t-62 -114q0 -61 36.5 -93.5t106.5 -32.5q63 0 105 22zM401 27q-71 -37 -163 -37q-89 0 -139 41.5t-50 118.5q0 169 301 199v37q0 124 -126 124q-68 0 -130 -35l-15 35 q70 39 146 39q84 0 130 -41.5t46 -122.5v-358z"/>
<glyph glyph-name="atilde" horiz-adv-x="478" unicode="ã" d="M355 677q-14 -69 -70 -69q-21 0 -50.5 20.5t-47.5 20.5q-31 0 -40 -39l-30 10q14 69 70 69q21 0 50.5 -20.5t47.5 -20.5q31 0 40 39zM350 46v270q-124 -15 -186 -52t-62 -114q0 -61 36.5 -93.5t106.5 -32.5q63 0 105 22zM401 27q-71 -37 -163 -37q-89 0 -139 41.5 t-50 118.5q0 169 301 199v37q0 124 -126 124q-68 0 -130 -35l-15 35q70 39 146 39q84 0 130 -41.5t46 -122.5v-358z"/>
<glyph glyph-name="adieresis" horiz-adv-x="478" unicode="ä" d="M351 650q0 -14 -10 -24t-24 -10t-24 10t-10 24t10 24t24 10t24 -10t10 -24zM203 650q0 -14 -10 -24t-24 -10t-24 10t-10 24t10 24t24 10t24 -10t10 -24zM350 46v270q-124 -15 -186 -52t-62 -114q0 -61 36.5 -93.5t106.5 -32.5q63 0 105 22zM401 27q-71 -37 -163 -37 q-89 0 -139 41.5t-50 118.5q0 169 301 199v37q0 124 -126 124q-68 0 -130 -35l-15 35q70 39 146 39q84 0 130 -41.5t46 -122.5v-358z"/>
<glyph glyph-name="aring" horiz-adv-x="478" unicode="å" d="M289 677q0 20 -14 34.5t-33 14.5t-33 -14.5t-14 -34.5t14 -34.5t33 -14.5t33 14.5t14 34.5zM319 677q0 -32 -22.5 -54.5t-54.5 -22.5t-54.5 22.5t-22.5 54.5t22.5 54.5t54.5 22.5t54.5 -22.5t22.5 -54.5zM350 46v270q-124 -15 -186 -52t-62 -114q0 -61 36.5 -93.5 t106.5 -32.5q63 0 105 22zM401 27q-71 -37 -163 -37q-89 0 -139 41.5t-50 118.5q0 169 301 199v37q0 124 -126 124q-68 0 -130 -35l-15 35q70 39 146 39q84 0 130 -41.5t46 -122.5v-358z"/>
<glyph glyph-name="ae" horiz-adv-x="790" unicode="æ" d="M350 153v163q-124 -15 -186 -52t-62 -114q0 -57 32 -91.5t93 -34.5q49 0 86 37t37 92zM682 324q-3 188 -140 188q-68 0 -111 -58t-43 -175zM735 297l-346 -53q5 -100 51 -156.5t130 -56.5q76 0 129 33l17 -37q-59 -37 -147 -37q-126 0 -185 109q-46 -109 -160 -109 q-80 0 -127.5 43.5t-47.5 116.5q0 169 301 199v37q0 124 -131 124q-64 0 -125 -35l-15 35q68 39 146 39q124 0 156 -107q25 55 68.5 81t92.5 26q92 0 142.5 -62t50.5 -190z"/>
<glyph glyph-name="ccedilla" horiz-adv-x="407" unicode="ç" d="M319 -124q0 -35 -42 -53.5t-117 -18.5q-29 0 -69 4l14 28q27 -3 47 -3q50 0 83 11t33 32q0 35 -76 35q-27 0 -53 -2l13 27q33 3 58 3q109 0 109 -63zM367 24q-42 -34 -113 -34q-94 0 -146.5 78t-52.5 202t52.5 201.5t146.5 77.5q71 0 113 -34l-15 -34q-39 29 -94 29 q-70 0 -109 -67.5t-39 -171.5q0 -102 39.5 -171t108.5 -69q54 0 93 29z"/>
<glyph glyph-name="egrave" horiz-adv-x="507" unicode="è" d="M292 600h-34l-106 129q8 18 30 18q19 0 34 -13zM399 324q-3 188 -140 188q-75 0 -114.5 -63t-39.5 -170zM452 297l-346 -53q5 -100 51 -156.5t130 -56.5q76 0 129 33l17 -37q-59 -37 -147 -37q-109 0 -170 73t-61 208q0 128 54.5 203t149.5 75q92 0 142.5 -62t50.5 -190z "/>
<glyph glyph-name="eacute" horiz-adv-x="507" unicode="é" d="M366 729l-106 -129h-34l76 134q15 13 34 13q22 0 30 -18zM399 324q-3 188 -140 188q-75 0 -114.5 -63t-39.5 -170zM452 297l-346 -53q5 -100 51 -156.5t130 -56.5q76 0 129 33l17 -37q-59 -37 -147 -37q-109 0 -170 73t-61 208q0 128 54.5 203t149.5 75q92 0 142.5 -62 t50.5 -190z"/>
<glyph glyph-name="ecircumflex" horiz-adv-x="507" unicode="ê" d="M377 615l-22 -19l-95 84l-95 -84l-22 19l89 97q12 13 28 13t28 -13zM399 324q-3 188 -140 188q-75 0 -114.5 -63t-39.5 -170zM452 297l-346 -53q5 -100 51 -156.5t130 -56.5q76 0 129 33l17 -37q-59 -37 -147 -37q-109 0 -170 73t-61 208q0 128 54.5 203t149.5 75 q92 0 142.5 -62t50.5 -190z"/>
<glyph glyph-name="edieresis" horiz-adv-x="507" unicode="ë" d="M369 650q0 -14 -10 -24t-24 -10t-24 10t-10 24t10 24t24 10t24 -10t10 -24zM221 650q0 -14 -10 -24t-24 -10t-24 10t-10 24t10 24t24 10t24 -10t10 -24zM399 324q-3 188 -140 188q-75 0 -114.5 -63t-39.5 -170zM452 297l-346 -53q5 -100 51 -156.5t130 -56.5q76 0 129 33 l17 -37q-59 -37 -147 -37q-109 0 -170 73t-61 208q0 128 54.5 203t149.5 75q92 0 142.5 -62t50.5 -190z"/>
<glyph glyph-name="igrave" horiz-adv-x="222" unicode="ì" d="M152 600h-34l-106 129q7 18 30 18q19 0 34 -13zM138 0h-54v539h54v-539z"/>
<glyph glyph-name="iacute" horiz-adv-x="222" unicode="í" d="M210 729l-106 -129h-34l76 134q15 13 34 13q22 0 30 -18zM138 0h-54v539h54v-539z"/>
<glyph glyph-name="icircumflex" horiz-adv-x="222" unicode="î" d="M228 615l-22 -19l-95 84l-95 -84l-22 19l89 97q12 13 28 13t28 -13zM138 0h-54v539h54v-539z"/>
<glyph glyph-name="idieresis" horiz-adv-x="222" unicode="ï" d="M219 650q0 -14 -10 -24t-24 -10t-24 10t-10 24t10 24t24 10t24 -10t10 -24zM71 650q0 -14 -10 -24t-24 -10t-24 10t-10 24t10 24t24 10t24 -10t10 -24zM138 0h-54v539h54v-539z"/>
<glyph glyph-name="eth" horiz-adv-x="506" unicode="ð" d="M397 266q0 124 -42 230q-35 14 -76 14q-84 0 -127 -69.5t-43 -177.5q0 -106 36 -170t108 -64q41 0 70 20.5t44.5 55.5t22.5 75t7 86zM451 263q0 -125 -49 -199t-150 -74q-94 0 -145.5 73t-51.5 200q0 121 58.5 200t157.5 79q36 0 68 -10q-32 68 -87 130l-102 -66l-17 28 l96 63l-78 81l33 29l82 -86l93 60l17 -28l-87 -57q162 -183 162 -423z"/>
<glyph glyph-name="ntilde" horiz-adv-x="511" unicode="ñ" d="M369 677q-14 -69 -70 -69q-21 0 -50.5 20.5t-47.5 20.5q-31 0 -40 -39l-30 10q14 69 70 69q21 0 50.5 -20.5t47.5 -20.5q31 0 40 39zM434 0h-54v376q0 71 -32 104t-106 33q-63 0 -111 -21v-492h-54v512q76 37 165 37q192 0 192 -173v-376z"/>
<glyph glyph-name="ograve" horiz-adv-x="506" unicode="ò" d="M283 600h-34l-106 129q7 18 30 18q19 0 34 -13zM397 272q0 50 -7.5 91.5t-23.5 76t-45 54t-68 19.5q-52 0 -85 -34.5t-46 -86.5t-13 -120t13 -120.5t46.5 -87.5t84.5 -35t84.5 35t46.5 87.5t13 120.5zM451 270q0 -127 -49.5 -203.5t-148.5 -76.5t-148.5 76.5t-49.5 203.5 t49.5 203t148.5 76t148.5 -76t49.5 -203z"/>
<glyph glyph-name="oacute" horiz-adv-x="506" unicode="ó" d="M361 729l-106 -129h-34l76 134q15 13 34 13q23 0 30 -18zM397 272q0 50 -7.5 91.5t-23.5 76t-45 54t-68 19.5q-52 0 -85 -34.5t-46 -86.5t-13 -120t13 -120.5t46.5 -87.5t84.5 -35t84.5 35t46.5 87.5t13 120.5zM451 270q0 -127 -49.5 -203.5t-148.5 -76.5t-148.5 76.5 t-49.5 203.5t49.5 203t148.5 76t148.5 -76t49.5 -203z"/>
<glyph glyph-name="ocircumflex" horiz-adv-x="506" unicode="ô" d="M370 615l-22 -19l-95 84l-95 -84l-22 19l89 97q12 13 28 13t28 -13zM397 272q0 50 -7.5 91.5t-23.5 76t-45 54t-68 19.5q-52 0 -85 -34.5t-46 -86.5t-13 -120t13 -120.5t46.5 -87.5t84.5 -35t84.5 35t46.5 87.5t13 120.5zM451 270q0 -127 -49.5 -203.5t-148.5 -76.5 t-148.5 76.5t-49.5 203.5t49.5 203t148.5 76t148.5 -76t49.5 -203z"/>
<glyph glyph-name="otilde" horiz-adv-x="506" unicode="õ" d="M372 677q-14 -69 -70 -69q-21 0 -50.5 20.5t-47.5 20.5q-31 0 -40 -39l-30 10q14 69 70 69q21 0 50.5 -20.5t47.5 -20.5q31 0 40 39zM397 272q0 50 -7.5 91.5t-23.5 76t-45 54t-68 19.5q-52 0 -85 -34.5t-46 -86.5t-13 -120t13 -120.5t46.5 -87.5t84.5 -35t84.5 35 t46.5 87.5t13 120.5zM451 270q0 -127 -49.5 -203.5t-148.5 -76.5t-148.5 76.5t-49.5 203.5t49.5 203t148.5 76t148.5 -76t49.5 -203z"/>
<glyph glyph-name="odieresis" horiz-adv-x="506" unicode="ö" d="M361 650q0 -14 -10 -24t-24 -10t-24 10t-10 24t10 24t24 10t24 -10t10 -24zM213 650q0 -14 -10 -24t-24 -10t-24 10t-10 24t10 24t24 10t24 -10t10 -24zM397 272q0 50 -7.5 91.5t-23.5 76t-45 54t-68 19.5q-52 0 -85 -34.5t-46 -86.5t-13 -120t13 -120.5t46.5 -87.5 t84.5 -35t84.5 35t46.5 87.5t13 120.5zM451 270q0 -127 -49.5 -203.5t-148.5 -76.5t-148.5 76.5t-49.5 203.5t49.5 203t148.5 76t148.5 -76t49.5 -203z"/>
<glyph glyph-name="divide" d="M296 182q0 -17 -12 -29t-29 -12t-29 12t-12 29t12 29t29 12t29 -12t12 -29zM444 318h-378v40h378v-40zM296 494q0 -17 -12 -29t-29 -12t-29 12t-12 29t12 29t29 12t29 -12t12 -29z" unicode="÷"/>
<glyph glyph-name="oslash" horiz-adv-x="506" unicode="ø" d="M400 272q0 100 -28 162l-221 -355q37 -53 102 -53q77 0 112 69t35 177zM356 461q-37 55 -103 55q-53 0 -87 -35.5t-47 -87.5t-13 -121q0 -103 29 -165zM451 270q0 -127 -49.5 -203.5t-148.5 -76.5q-79 0 -127 50l-46 -74l-24 14l51 82q-52 72 -52 208q0 127 49.5 203 t148.5 76q79 0 127 -50l46 74l24 -14l-51 -82q52 -72 52 -207z"/>
<glyph glyph-name="ugrave" horiz-adv-x="500" unicode="ù" d="M295 600h-34l-106 129q7 18 30 18q19 0 34 -13zM423 30q-69 -40 -167 -40q-179 0 -179 169v380h54v-380q0 -131 125 -131q71 0 113 22v489h54v-509z"/>
<glyph glyph-name="uacute" horiz-adv-x="500" unicode="ú" d="M360 729l-106 -129h-34l76 134q15 13 34 13q22 0 30 -18zM423 30q-69 -40 -167 -40q-179 0 -179 169v380h54v-380q0 -131 125 -131q71 0 113 22v489h54v-509z"/>
<glyph glyph-name="ucircumflex" horiz-adv-x="500" unicode="û" d="M367 615l-22 -19l-95 84l-95 -84l-22 19l89 97q12 13 28 13t28 -13zM423 30q-69 -40 -167 -40q-179 0 -179 169v380h54v-380q0 -131 125 -131q71 0 113 22v489h54v-509z"/>
<glyph glyph-name="udieresis" horiz-adv-x="500" unicode="ü" d="M358 650q0 -14 -10 -24t-24 -10t-24 10t-10 24t10 24t24 10t24 -10t10 -24zM210 650q0 -14 -10 -24t-24 -10t-24 10t-10 24t10 24t24 10t24 -10t10 -24zM423 30q-69 -40 -167 -40q-179 0 -179 169v380h54v-380q0 -131 125 -131q71 0 113 22v489h54v-509z"/>
<glyph glyph-name="yacute" horiz-adv-x="472" unicode="ý" d="M345 729l-106 -129h-34l76 134q15 13 34 13q23 0 30 -18zM438 539l-250 -754h-60l90 215l-182 539h58l131 -425q10 -30 13 -60h2q8 36 15 60l133 425h50z"/>
<glyph glyph-name="thorn" horiz-adv-x="506" unicode="þ" d="M397 276q0 103 -42.5 169.5t-122.5 66.5q-55 0 -101 -24v-444q35 -16 90 -16q91 0 133.5 67t42.5 181zM451 276q0 -129 -59.5 -207.5t-170.5 -78.5q-47 0 -90 15v-220h-53v1000h53v-266q50 27 115 27q92 0 148.5 -73.5t56.5 -196.5z"/>
<glyph glyph-name="OE" horiz-adv-x="752" unicode="Œ" d="M406 37v615q-40 11 -83 11q-56 0 -97 -26t-64 -72t-34 -101t-11 -120t11 -119.5t34 -100t64 -71t97 -25.5q50 0 83 9zM705 0h-299q-37 -10 -83 -10q-90 0 -150.5 49t-87 126.5t-26.5 178.5t26.5 178.5t87 126.5t150.5 49q46 0 83 -10h299v-39h-245v-272h224v-39h-224 v-299h245v-39z"/>
<glyph glyph-name="oe" horiz-adv-x="840" unicode="œ" d="M397 272q0 50 -7.5 91.5t-23.5 76t-45 54t-68 19.5q-52 0 -85 -34.5t-46 -86.5t-13 -120t13 -120.5t46.5 -87.5t84.5 -35t84.5 35t46.5 87.5t13 120.5zM732 324q-3 188 -140 188q-75 0 -114.5 -63t-39.5 -170zM785 297l-346 -53q5 -100 51 -156.5t130 -56.5q76 0 129 33 l17 -37q-59 -37 -147 -37q-144 0 -199 141q-44 -141 -167 -141q-99 0 -148.5 76.5t-49.5 203.5t49.5 203t148.5 76q118 0 167 -131q23 65 70.5 98t101.5 33q92 0 142.5 -62t50.5 -190z"/>
<glyph glyph-name="Scaron" horiz-adv-x="474" unicode="Š" d="M356 860l-89 -97q-12 -13 -28 -13t-28 13l-89 97l22 19l95 -84l95 84zM414 172q0 -79 -57 -130.5t-149 -51.5q-98 0 -158 37l19 38q52 -32 139 -32q70 0 109.5 38.5t39.5 99.5q0 53 -31 88.5t-74.5 56.5t-87.5 43.5t-75 65t-31 105.5q0 77 53 122.5t139 45.5 q79 0 137 -37l-18 -35q-52 32 -119 32q-64 0 -100 -33.5t-36 -93.5q0 -52 31 -86.5t75 -55t88 -43t75 -66t31 -108.5z"/>
<glyph glyph-name="scaron" horiz-adv-x="404" unicode="š" d="M321 711l-89 -97q-12 -13 -28 -13t-28 13l-89 97l22 19l95 -84l95 84zM351 142q0 -62 -48.5 -107t-121.5 -45q-82 0 -134 36l17 37q48 -32 114 -32q53 0 86 31.5t33 78.5q0 42 -24.5 68t-59.5 40.5t-70 30t-59.5 48t-24.5 82.5q0 58 42 98.5t112 40.5q71 0 120 -36 l-16 -35q-46 32 -102 32q-51 0 -77.5 -28t-26.5 -71q0 -38 24.5 -62.5t60 -38.5t71 -30.5t60 -50.5t24.5 -87z"/>
<glyph glyph-name="Ydieresis" horiz-adv-x="486" unicode="Ÿ" d="M355 799q0 -14 -10 -24t-24 -10t-24 10t-10 24t10 24t24 10t24 -10t10 -24zM207 799q0 -14 -10 -24t-24 -10t-24 10t-10 24t10 24t24 10t24 -10t10 -24zM463 688l-191 -375v-313h-57v313l-190 375h63l157 -337h2l161 337h55z"/>
<glyph glyph-name="circumflex" horiz-adv-x="222" unicode="ˆ" d="M228 615l-22 -19l-95 84l-95 -84l-22 19l89 97q12 13 28 13t28 -13z"/>
<glyph glyph-name="tilde" horiz-adv-x="222" unicode="˜" d="M230 677q-14 -69 -70 -69q-21 0 -50.5 20.5t-47.5 20.5q-31 0 -40 -39l-30 10q14 69 70 69q21 0 50.5 -20.5t47.5 -20.5q31 0 40 39z"/>
<glyph glyph-name="uni0394" horiz-adv-x="572" unicode="Δ" d="M473 39l-166 511q-10 33 -22 88h-2q-10 -48 -23 -88l-167 -511h380zM546 0h-520l237 688h46z"/>
<glyph glyph-name="uni03BC" horiz-adv-x="504" unicode="μ" d="M427 42q-71 -52 -167 -52q-73 0 -125 34v-239h-54v754h54v-473q52 -38 125 -38q64 0 113 34v477h54v-497z"/>
<glyph glyph-name="pi" horiz-adv-x="558" unicode="π" d="M518 504h-80v-504h-54v504h-196l-68 -504h-55l69 504h-84v35h468v-35z"/>
<glyph glyph-name="endash" horiz-adv-x="360" unicode="–" d="M360 316h-360v44h360v-44z"/>
<glyph glyph-name="emdash" horiz-adv-x="720" unicode="—" d="M720 318h-720v40h720v-40z"/>
<glyph glyph-name="quoteleft" horiz-adv-x="234" unicode="‘" d="M186 785l-74 -207q-12 -17 -36 -17q-21 0 -26 17l102 207h34z"/>
<glyph glyph-name="quotesinglbase" horiz-adv-x="234" unicode="‚" d="M184 62l-102 -207h-34l74 207q12 17 36 17q21 0 26 -17z"/>
<glyph glyph-name="quotedblleft" horiz-adv-x="388" unicode="“" d="M186 785l-74 -207q-12 -17 -36 -17q-21 0 -26 17l102 207h34zM340 785l-74 -207q-12 -17 -36 -17q-21 0 -26 17l102 207h34z"/>
<glyph glyph-name="quotedblright" horiz-adv-x="388" unicode="”" d="M184 774l-102 -207h-34l74 207q12 17 36 17q21 0 26 -17zM338 774l-102 -207h-34l74 207q12 17 36 17q21 0 26 -17z"/>
<glyph glyph-name="dagger" horiz-adv-x="540" unicode="†" d="M480 490l-189 8l8 -713h-58l8 713l-189 -8v54l189 -8l-8 249h58l-8 -249l189 8v-54z"/>
<glyph glyph-name="daggerdbl" horiz-adv-x="540" unicode="‡" d="M480 200l-189 8l8 -423h-58l8 423l-189 -8v54l189 -8v252l-189 -8v54l189 -8l-8 249h58l-8 -249l189 8v-54l-189 8v-252l189 8v-54z"/>
<glyph glyph-name="ellipsis" horiz-adv-x="708" unicode="…" d="M160 37q0 -17 -12.5 -29.5t-29.5 -12.5t-29.5 12.5t-12.5 29.5t12.5 29.5t29.5 12.5t29.5 -12.5t12.5 -29.5zM396 37q0 -17 -12.5 -29.5t-29.5 -12.5t-29.5 12.5t-12.5 29.5t12.5 29.5t29.5 12.5t29.5 -12.5t12.5 -29.5zM632 37q0 -17 -12.5 -29.5t-29.5 -12.5 t-29.5 12.5t-12.5 29.5t12.5 29.5t29.5 12.5t29.5 -12.5t12.5 -29.5z"/>
<glyph glyph-name="perthousand" horiz-adv-x="1110" unicode="‰" d="M269 503q0 68 -18.5 116t-61.5 48t-61.5 -48t-18.5 -116t18.5 -116t61.5 -48t61.5 48t18.5 116zM670 187q0 68 -18.5 116t-61.5 48t-61.5 -48t-18.5 -116t18.5 -116t61.5 -48t61.5 48t18.5 116zM1001 187q0 68 -18.5 116t-61.5 48t-61.5 -48t-18.5 -116t18.5 -116 t61.5 -48t61.5 48t18.5 116zM314 502q0 -80 -31.5 -138t-93.5 -58t-93.5 58t-31.5 138t31.5 138t93.5 58t93.5 -58t31.5 -138zM526 682l-237 -688l-36 12l237 688zM715 186q0 -80 -31.5 -138t-93.5 -58t-93.5 58t-31.5 138t31.5 138t93.5 58t93.5 -58t31.5 -138zM1046 186 q0 -80 -31.5 -138t-93.5 -58t-93.5 58t-31.5 138t31.5 138t93.5 58t93.5 -58t31.5 -138z"/>
<glyph glyph-name="guilsinglleft" horiz-adv-x="290" unicode="‹" d="M220 137l-34 -22l-126 219l126 219l34 -22l-114 -197z"/>
<glyph glyph-name="guilsinglright" horiz-adv-x="290" unicode="›" d="M230 334l-126 -219l-34 22l114 197l-114 197l34 22z"/>
<glyph glyph-name="fraction" horiz-adv-x="130" unicode="⁄" d="M234 680l-320 -689l-34 17l320 689z"/>
<glyph glyph-name="Euro" horiz-adv-x="630" unicode="€" d="M578 24q-53 -37 -139 -37q-117 0 -185.5 76t-88.5 193h-103v34h99q-3 27 -3 54q0 32 5 74h-101v34h107q23 109 91 179t179 70q86 0 139 -37l-18 -34q-49 31 -116 31q-93 0 -147 -58t-73 -151h263v-34h-268q-5 -40 -5 -73q0 -28 3 -55h270v-34h-266q17 -99 71.5 -163 t151.5 -64q67 0 116 29z"/>
<glyph glyph-name="trademark" horiz-adv-x="750" unicode="™" d="M262 655h-93v-367h-46v367h-93v33h232v-33zM700 288h-45l-34 317q-3 28 -3 45h-2q-6 -27 -11 -45l-95 -317h-37l-94 317q-4 14 -12 45h-2q0 -22 -3 -45l-36 -317h-39l51 400h53l91 -302q6 -20 11 -49h2q4 28 10 49l91 302h53z"/>
<glyph glyph-name="arrowleft" horiz-adv-x="940" unicode="←" d="M944 318h-787l212 -212l-29 -28l-260 260l260 260l29 -28l-212 -212h787v-40z"/>
<glyph glyph-name="arrowup" horiz-adv-x="680" unicode="↑" d="M600 535l-28 -29l-210 210v-716h-44v716l-210 -210l-28 29l260 260z"/>
<glyph glyph-name="arrowright" horiz-adv-x="940" unicode="→" d="M860 338l-260 -260l-29 28l212 212h-787v40h787l-212 212l29 28z"/>
<glyph glyph-name="arrowdown" horiz-adv-x="680" unicode="↓" d="M600 250l-260 -260l-260 260l28 29l210 -210v716h44v-716l210 210z"/>
<glyph glyph-name="carriagereturn" horiz-adv-x="940" unicode="↵" d="M850 0h-703l197 -197l-29 -28l-245 245l245 245l29 -28l-197 -197h659v316h-228v40h272v-396z"/>
<glyph glyph-name="partialdiff" d="M398 246q0 60 -9 104q-55 21 -111 21q-82 0 -124.5 -44t-42.5 -129q0 -71 34.5 -120t103.5 -49q74 0 111.5 56.5t37.5 160.5zM450 246q0 -122 -52.5 -189t-146.5 -67t-143.5 61.5t-49.5 145.5q0 99 58 153.5t157 54.5q58 0 110 -21q-37 110 -104 174t-174 102l15 36 q148 -48 239 -163.5t91 -286.5z" unicode="∂"/>
<glyph glyph-name="product" horiz-adv-x="740" unicode="∏" d="M690 649h-113v-864h-57v864h-300v-864h-57v864h-113v39h640v-39z"/>
<glyph glyph-name="summation" d="M450 -215h-399l239 471l-240 432h394v-45h-310l215 -387l-218 -425h319v-46z" unicode="∑"/>
<glyph glyph-name="minus" d="M444 318h-378v40h378v-40z" unicode="−"/>
<glyph glyph-name="radical" d="M474 785l-173 -785h-51l-136 471h-84v32h129l114 -435h2l149 717h50z" unicode="√"/>
<glyph glyph-name="infinity" horiz-adv-x="750" unicode="∞" d="M354 334q-18 33 -30 52t-30 41t-38.5 32t-44.5 10q-51 0 -81.5 -35.5t-30.5 -95.5t30.5 -95.5t81.5 -35.5q47 0 78.5 32.5t64.5 94.5zM651 338q0 60 -30.5 95.5t-81.5 35.5q-47 0 -78.5 -32.5t-64.5 -94.5q18 -33 30 -52t30 -41t38.5 -32t44.5 -10q51 0 81.5 35.5 t30.5 95.5zM690 338q0 -76 -42 -125.5t-109 -49.5q-56 0 -93 35.5t-73 100.5q-35 -65 -71 -100.5t-91 -35.5q-67 0 -109 49.5t-42 125.5t42 125.5t109 49.5q56 0 93 -35.5t73 -100.5q35 65 71 100.5t91 35.5q67 0 109 -49.5t42 -125.5z"/>
<glyph glyph-name="approxequal" d="M444 245q-36 -46 -97 -46q-33 0 -91.5 34t-92.5 34q-61 0 -97 -46v42q36 46 97 46q34 0 92.5 -34t91.5 -34q61 0 97 46v-42zM444 413q-36 -46 -97 -46q-33 0 -91.5 34t-92.5 34q-61 0 -97 -46v42q36 46 97 46q34 0 92.5 -34t91.5 -34q61 0 97 46v-42z" unicode="≈"/>
<glyph glyph-name="notequal" d="M444 234h-214l-52 -125l-32 14l47 111h-127v40h143l54 128h-197v40h214l52 124l31 -14l-46 -110h127v-40h-144l-53 -128h197v-40z" unicode="≠"/>
<glyph glyph-name="lessequal" d="M444 0h-378v40h378v-40zM444 146l-378 172v40l378 172v-47l-330 -144v-2l330 -144v-47z" unicode="≤"/>
<glyph glyph-name="greaterequal" d="M444 0h-378v40h378v-40zM444 318l-378 -172v47l330 144v2l-330 144v47l378 -172v-40z" unicode="≥"/>
<glyph glyph-name="dotmath" d="M297 337q0 -17 -12.5 -29.5t-29.5 -12.5t-29.5 12.5t-12.5 29.5t12.5 29.5t29.5 12.5t29.5 -12.5t12.5 -29.5z" unicode="⋅"/>
<glyph glyph-name="lozenge" horiz-adv-x="640" unicode="◊" d="M530 344l-210 276l-211 -276l211 -274zM590 344l-270 -354l-270 354l270 354z"/>
</font>
</defs>
</svg>
