<?xml version="1.0" encoding="UTF-8" standalone="no"?>
<!DOCTYPE svg  PUBLIC '-//W3C//DTD SVG 1.1//EN'  'http://www.w3.org/Graphics/SVG/1.1/DTD/svg11.dtd'>
<svg xmlns="http://www.w3.org/2000/svg">
<defs>
<font id="DaxOT-Medium" horiz-adv-x="526">
<font-face underline-position="-43" font-weight="500" descent="-200" panose-1="2 11 6 4 3 1 1 2 1 2" units-per-em="1000" unicode-range="U+0020-25CA" bbox="-126 -235 1131 910" x-height="539" underline-thickness="64" font-family="DaxOT" ascent="800" cap-height="688"/>
<missing-glyph horiz-adv-x="1000"/>
<glyph glyph-name=".notdef" horiz-adv-x="1000"/>
<glyph glyph-name=".null" horiz-adv-x="0"/>
<glyph glyph-name=".null" horiz-adv-x="0"/>
<glyph glyph-name="nonmarkingreturn" horiz-adv-x="333"/>
<glyph glyph-name="space" horiz-adv-x="272" unicode=" "/>
<glyph glyph-name="exclam" horiz-adv-x="302" unicode="!" d="M230 65q0 -30 -21.5 -51.5t-51.5 -21.5t-51.5 21.5t-21.5 51.5t21.5 51.5t51.5 21.5t51.5 -21.5t21.5 -51.5zM229 688l-26 -448h-93l-25 448h144z"/>
<glyph glyph-name="quotedbl" horiz-adv-x="420" unicode='&quot;' d="M175 667l-23 -261h-65l-23 261q20 31 55 31q36 0 56 -31zM356 667l-23 -261h-65l-23 261q20 31 56 31q35 0 55 -31z"/>
<glyph glyph-name="numbersign" horiz-adv-x="664" unicode="#" d="M415 421h-147l-19 -142h147zM608 421h-115l-19 -142h106v-64h-115l-29 -215h-78l29 215h-147l-29 -215h-78l29 215h-106v64h115l19 142h-106v64h115l27 203h78l-28 -203h147l28 203h78l-27 -203h106v-64z"/>
<glyph glyph-name="dollar" horiz-adv-x="515" unicode="$" d="M459 190q0 -75 -46 -127.5t-125 -67.5v-126h-71v121q-101 2 -167 39l34 86q53 -32 131 -32q53 0 83.5 27t30.5 72q0 40 -28 68t-67.5 47.5t-79.5 42t-68 65.5t-28 104q0 73 46 123t124 63v117h70v-114q81 -5 137 -38l-30 -78q-51 30 -114 30q-50 0 -79 -24.5t-29 -69.5 q0 -40 28.5 -67.5t69 -46.5t81 -41.5t69 -66t28.5 -106.5z"/>
<glyph glyph-name="percent" horiz-adv-x="880" unicode="%" d="M269 487q0 70 -16 114t-50 44t-50 -44t-16 -114t16 -114t50 -44t50 44t16 114zM743 205q0 70 -16 114t-50 44t-50 -44t-16 -114t16 -114t50 -44t50 44t16 114zM353 485q0 -90 -38 -152t-112 -62t-112 62t-38 152t38 152t112 62t112 -62t38 -152zM591 676l-236 -688 l-67 24l236 688zM827 203q0 -90 -38 -152t-112 -62t-112 62t-38 152t38 152t112 62t112 -62t38 -152z"/>
<glyph glyph-name="ampersand" horiz-adv-x="632" unicode="&amp;" d="M389 81v275q-113 -17 -164.5 -57.5t-51.5 -111.5q0 -55 35.5 -87t103.5 -32q44 0 77 13zM623 387l-114 -19v-339q-74 -40 -202 -40q-125 0 -194.5 50.5t-69.5 144.5q0 134 165 193v2q-126 38 -126 151q0 78 59 123.5t148 45.5t156 -38l-36 -72q-45 24 -99 24 q-46 0 -76 -24.5t-30 -67.5t33 -71.5t85 -28.5q57 0 145 18l138 30z"/>
<glyph glyph-name="quotesingle" horiz-adv-x="239" unicode="&apos;" d="M175 667l-23 -261h-65l-23 261q20 31 55 31q36 0 56 -31z"/>
<glyph glyph-name="parenleft" horiz-adv-x="360" unicode="(" d="M335 -194l-60 -41q-221 219 -221 521t221 521l60 -41q-75 -100 -115 -224t-40 -256t40 -256t115 -224z"/>
<glyph glyph-name="parenright" horiz-adv-x="360" unicode=")" d="M306 286q0 -302 -221 -521l-60 41q75 100 115 224t40 256t-40 256t-115 224l60 41q221 -219 221 -521z"/>
<glyph glyph-name="asterisk" horiz-adv-x="447" unicode="*" d="M199 579q0 -22 -15 -37t-36 -15q-22 0 -37 15t-15 37t15 36.5t37 14.5q21 0 36 -14.5t15 -36.5zM153 720q0 -21 -15.5 -36t-36.5 -15t-36 15t-15 36t15 36.5t36 15.5t36.5 -15.5t15.5 -36.5zM351 579q0 -21 -15.5 -36.5t-36.5 -15.5t-36 15.5t-15 36.5t15 36t36 15 t36.5 -15t15.5 -36zM265 682q0 -17 -12.5 -29t-29.5 -12t-29 12t-12 29t12 29.5t29 12.5t29.5 -12.5t12.5 -29.5zM275 810q0 -21 -15.5 -36.5t-36.5 -15.5t-36 15.5t-15 36.5t15 36t36 15t36.5 -15t15.5 -36zM397 720q0 -21 -15.5 -36t-36.5 -15t-36 15t-15 36t15 36.5 t36 15.5t36.5 -15.5t15.5 -36.5z"/>
<glyph glyph-name="plus" d="M468 288h-159v-161h-92v161h-159v84h159v160h92v-160h159v-84z" unicode="+"/>
<glyph glyph-name="comma" horiz-adv-x="276" unicode="," d="M218 100l-134 -245h-74l81 245q25 39 73 39q45 0 54 -39z"/>
<glyph glyph-name="hyphen" horiz-adv-x="350" unicode="-" d="M297 284h-244v92h244v-92z"/>
<glyph glyph-name="period" horiz-adv-x="266" unicode="." d="M206 65q0 -30 -21.5 -51.5t-51.5 -21.5t-51.5 21.5t-21.5 51.5t21.5 51.5t51.5 21.5t51.5 -21.5t21.5 -51.5z"/>
<glyph glyph-name="slash" horiz-adv-x="457" unicode="/" d="M432 768l-341 -983l-99 37l340 983z"/>
<glyph glyph-name="zero" horiz-adv-x="556" unicode="0" d="M384 346q0 274 -106 274q-105 0 -105 -274t105 -274q106 0 106 274zM504 344q0 -96 -21 -173t-74 -129.5t-131 -52.5t-131 52.5t-74 129.5t-21 173t21 173t74 129.5t131 52.5t131 -52.5t74 -129.5t21 -173z"/>
<glyph glyph-name="one" horiz-adv-x="416" unicode="1" d="M325 0h-124v551q-61 -34 -169 -41l-15 73q80 11 138.5 39t82.5 66h87v-688z"/>
<glyph glyph-name="two" horiz-adv-x="501" unicode="2" d="M450 0h-435l247 358q54 78 54 141q0 110 -125 110q-67 0 -125 -27l-30 77q80 40 180 40q114 0 171 -51t57 -138q0 -79 -88 -195l-163 -214h257v-101z"/>
<glyph glyph-name="three" horiz-adv-x="497" unicode="3" d="M450 203q0 -96 -68.5 -155t-175.5 -59q-114 0 -188 38l33 83q57 -30 135 -30q62 0 99 33t37 91q0 64 -45.5 95.5t-120.5 31.5h-18v67q75 7 119 40t44 84q0 45 -29.5 67t-76.5 22q-69 0 -129 -27l-31 77q81 38 179 38q93 0 151 -43t58 -119q0 -54 -35 -92.5t-84 -57.5v-2 q62 -19 104 -64t42 -118z"/>
<glyph glyph-name="four" horiz-adv-x="523" unicode="4" d="M318 572h-2q-22 -51 -48 -96l-151 -260h197v253q0 39 4 103zM482 146h-54v-146h-114v146h-278v75l273 467h119v-472h54v-70z"/>
<glyph glyph-name="five" horiz-adv-x="497" unicode="5" d="M450 204q0 -90 -68.5 -152.5t-176.5 -62.5q-114 0 -187 38l33 83q57 -30 135 -30q62 0 99 36t37 88q0 63 -41 99.5t-129 36.5q-43 0 -99 -8l40 356h332v-101h-246l-20 -179q21 3 44 3q120 0 183.5 -55.5t63.5 -151.5z"/>
<glyph glyph-name="six" horiz-adv-x="544" unicode="6" d="M381 210q0 142 -133 142q-39 0 -75 -14q-8 -41 -8 -88q0 -85 28.5 -132.5t84.5 -47.5q51 0 77 39.5t26 100.5zM497 208q0 -93 -57.5 -156t-163.5 -63q-108 0 -167 71t-59 193q0 171 101.5 288.5t272.5 157.5l24 -82q-95 -29 -158 -78.5t-99 -135.5q37 14 81 14 q104 0 164.5 -56t60.5 -153z"/>
<glyph glyph-name="seven" horiz-adv-x="488" unicode="7" d="M472 688l-90 -213q-119 -283 -164 -475h-148l256 587h-301v101h447z"/>
<glyph glyph-name="eight" horiz-adv-x="541" unicode="8" d="M382 168q0 50 -27.5 82t-86.5 66q-58 -33 -85.5 -65t-27.5 -81q0 -45 33.5 -74.5t80.5 -29.5q49 0 81 29t32 73zM374 532q0 42 -28.5 69t-72.5 27q-45 0 -73 -26t-28 -69q0 -41 25 -69t78 -61q51 31 75 59.5t24 69.5zM494 168q0 -79 -63 -129t-161 -50q-95 0 -159 47.5 t-64 130.5q0 36 11 64.5t34 51.5t44.5 38.5t56.5 35.5q-61 37 -93.5 76t-32.5 97q0 74 58 121.5t145 47.5t145.5 -47t58.5 -121q0 -57 -31.5 -95.5t-92.5 -73.5q69 -41 106.5 -84t37.5 -110z"/>
<glyph glyph-name="nine" horiz-adv-x="544" unicode="9" d="M379 440q0 85 -28.5 133t-84.5 48q-51 0 -77 -40t-26 -101q0 -142 133 -142q42 0 75 13q8 41 8 89zM494 435q0 -171 -101.5 -288.5t-272.5 -157.5l-25 82q96 29 160 78.5t99 135.5q-37 -14 -82 -14q-104 0 -164.5 56t-60.5 153q0 93 57.5 156t163.5 63q108 0 167 -71 t59 -193z"/>
<glyph glyph-name="colon" horiz-adv-x="276" unicode=":" d="M216 65q0 -30 -21.5 -51.5t-51.5 -21.5t-51.5 21.5t-21.5 51.5t21.5 51.5t51.5 21.5t51.5 -21.5t21.5 -51.5zM216 374q0 -30 -21.5 -51.5t-51.5 -21.5t-51.5 21.5t-21.5 51.5t21.5 51.5t51.5 21.5t51.5 -21.5t21.5 -51.5z"/>
<glyph glyph-name="semicolon" horiz-adv-x="280" unicode=";" d="M223 100l-135 -245h-73l81 245q25 39 73 39q45 0 54 -39zM220 375q0 -30 -21.5 -52t-51.5 -22t-51.5 22t-21.5 52t21.5 51.5t51.5 21.5t51.5 -21.5t21.5 -51.5z"/>
<glyph glyph-name="less" d="M468 119l-410 173v76l410 172v-93l-303 -116v-2l303 -116v-94z" unicode="&lt;"/>
<glyph glyph-name="equal" d="M468 188h-410v84h410v-84zM468 387h-410v84h410v-84z" unicode="="/>
<glyph glyph-name="greater" d="M468 292l-410 -173v94l303 116v2l-303 116v93l410 -172v-76z" unicode="&gt;"/>
<glyph glyph-name="question" horiz-adv-x="430" unicode="?" d="M285 65q0 -30 -21.5 -51.5t-51.5 -21.5t-51.5 21.5t-21.5 51.5t21.5 51.5t51.5 21.5t51.5 -21.5t21.5 -51.5zM414 534q0 -60 -45 -103t-102 -60l-8 -131h-93l-11 167q53 11 92.5 41t39.5 75q0 41 -26 65.5t-81 24.5q-60 0 -103 -25l-33 72q66 39 159 39q97 0 154 -44.5 t57 -120.5z"/>
<glyph glyph-name="at" horiz-adv-x="910" unicode="@" d="M561 438q-28 16 -64 16q-70 0 -112.5 -68t-42.5 -158q0 -80 38.5 -125t111.5 -45h13zM863 374q0 -156 -108 -270.5t-267 -114.5q-110 0 -169.5 66t-59.5 170q0 121 68 207.5t180 86.5q85 0 141 -48l-60 -398q81 28 137 109t56 192q0 113 -65.5 186.5t-188.5 73.5 t-216 -61t-137.5 -153.5t-44.5 -198.5q0 -153 89 -250t244 -97q209 0 357 131l42 -52q-78 -71 -182.5 -109t-219.5 -38q-185 0 -298.5 113.5t-113.5 294.5q0 94 34 181t95 155t153.5 108.5t201.5 40.5q155 0 243.5 -92.5t88.5 -232.5z"/>
<glyph glyph-name="A" horiz-adv-x="608" unicode="A" d="M389 255l-70 242q-11 34 -18 89h-2q-10 -56 -20 -89l-71 -242h181zM596 0h-134l-52 181h-224l-53 -181h-121l227 688h129z"/>
<glyph glyph-name="B" horiz-adv-x="582" unicode="B" d="M412 190q0 139 -176 139h-44v-250q30 -12 79 -12q141 0 141 123zM394 512q0 113 -127 113q-46 0 -75 -11v-224h44q83 0 120.5 30t37.5 92zM538 188q0 -100 -70.5 -149.5t-192.5 -49.5q-121 0 -204 39v632q83 39 196 39q120 0 184 -49.5t64 -129.5q0 -60 -34.5 -99.5 t-92.5 -55.5v-2q62 -14 106 -62.5t44 -112.5z"/>
<glyph glyph-name="C" horiz-adv-x="486" unicode="C" d="M457 29q-59 -40 -143 -40q-67 0 -119 29.5t-83 80t-47 113t-16 132.5t16 132.5t47 113t83 80t119 29.5q85 0 143 -39l-30 -78q-43 26 -91 26q-54 0 -90 -39.5t-51 -96.5t-15 -127q0 -107 39 -183t116 -76q48 0 91 26z"/>
<glyph glyph-name="D" horiz-adv-x="609" unicode="D" d="M431 347q0 268 -164 268q-43 0 -70 -11v-515q27 -11 70 -11q164 0 164 269zM560 344q0 -167 -78.5 -261t-219.5 -94q-107 0 -191 39v632q84 39 191 39q141 0 219.5 -94t78.5 -261z"/>
<glyph glyph-name="E" horiz-adv-x="450" unicode="E" d="M406 0h-335v688h335v-85h-208v-208h185v-84h-185v-226h208v-85z"/>
<glyph glyph-name="F" horiz-adv-x="443" unicode="F" d="M405 603h-207v-208h184v-84h-184v-311h-127v688h334v-85z"/>
<glyph glyph-name="G" horiz-adv-x="605" unicode="G" d="M539 28q-71 -39 -186 -39q-140 0 -222 94t-82 260q0 158 84.5 257t231.5 99q93 0 165 -40l-35 -79q-54 28 -120 28q-95 0 -146.5 -72.5t-51.5 -198.5q0 -123 49 -191t122 -68q44 0 72 12v227h-108v78h227v-367z"/>
<glyph glyph-name="H" horiz-adv-x="613" unicode="H" d="M542 0h-127v311h-217v-311h-127v688h127v-293h217v293h127v-688z"/>
<glyph glyph-name="I" horiz-adv-x="273" unicode="I" d="M200 0h-127v688h127v-688z"/>
<glyph glyph-name="J" horiz-adv-x="273" unicode="J" d="M200 688v-608q0 -124 -62 -204t-178 -97v89q113 40 113 203v617h127z"/>
<glyph glyph-name="K" horiz-adv-x="570" unicode="K" d="M557 0h-147l-210 348h-2v-348h-125v688h125v-315h2l210 315h135l-231 -319z"/>
<glyph glyph-name="L" horiz-adv-x="422" unicode="L" d="M391 0h-318v688h127v-603h191v-85z"/>
<glyph glyph-name="M" horiz-adv-x="791" unicode="M" d="M745 0h-120l-43 456q-4 36 -4 81h-2q-10 -50 -20 -81l-132 -456h-70l-130 456q-12 42 -19 81h-2q-2 -50 -5 -81l-44 -456h-108l78 688h128l124 -440q12 -42 18 -87h2q8 49 19 87l124 440h128z"/>
<glyph glyph-name="N" horiz-adv-x="650" unicode="N" d="M579 0h-102l-264 451q-15 25 -37 72h-2q3 -43 3 -82v-441h-106v688h119l247 -423q16 -27 37 -71h2q-3 39 -3 80v414h106v-688z"/>
<glyph glyph-name="O" horiz-adv-x="616" unicode="O" d="M439 347q0 265 -131 265t-131 -265q0 -266 131 -266t131 266zM567 344q0 -159 -65.5 -257t-193.5 -98t-193.5 98t-65.5 257t65.5 257t193.5 98t193.5 -98t65.5 -257z"/>
<glyph glyph-name="P" horiz-adv-x="551" unicode="P" d="M391 486q0 139 -129 139q-34 0 -67 -11v-267q28 -4 56 -4q140 0 140 143zM513 484q0 -96 -65.5 -155.5t-196.5 -59.5q-28 0 -56 4v-273h-124v660q85 39 190 39q127 0 189.5 -59t62.5 -156z"/>
<glyph glyph-name="Q" horiz-adv-x="616" unicode="Q" d="M439 347q0 265 -131 265t-131 -265q0 -266 131 -266t131 266zM567 344q0 -110 -31 -192.5t-94 -123.5l118 -143l-95 -75l-102 187q-27 -8 -55 -8q-128 0 -193.5 98t-65.5 257t65.5 257t193.5 98t193.5 -98t65.5 -257z"/>
<glyph glyph-name="R" horiz-adv-x="571" unicode="R" d="M395 493q0 132 -131 132q-35 0 -68 -11v-256q25 -5 53 -5q67 0 106.5 39.5t39.5 100.5zM543 0h-141l-112 216q-37 70 -94 89v-305h-124v660q86 39 189 39q123 0 190 -51.5t67 -151.5q0 -70 -47 -119t-126 -66v-2q35 -30 68 -85z"/>
<glyph glyph-name="S" horiz-adv-x="495" unicode="S" d="M447 191q0 -88 -62.5 -145t-165.5 -57q-108 0 -180 40l33 86q57 -32 132 -32q53 0 83.5 27t30.5 70q0 40 -28 68.5t-68 47.5t-80 42t-68 66t-28 104q0 85 60.5 138t158.5 53q92 0 159 -39l-31 -78q-53 30 -113 30q-51 0 -79.5 -24t-28.5 -69q0 -34 20.5 -59t51 -39.5 t66 -34.5t66 -41t51 -61t20.5 -93z"/>
<glyph glyph-name="T" horiz-adv-x="457" unicode="T" d="M426 603h-134v-603h-127v603h-134v85h395v-85z"/>
<glyph glyph-name="U" horiz-adv-x="600" unicode="U" d="M529 200q0 -93 -63.5 -152t-165.5 -59t-165.5 59t-63.5 152v488h127v-489q0 -51 31 -81.5t76 -30.5t75.5 30.5t30.5 81.5v489h118v-488z"/>
<glyph glyph-name="V" horiz-adv-x="550" unicode="V" d="M536 688l-205 -688h-111l-205 688h135l111 -442q11 -42 19 -95h2q8 56 18 95l114 442h122z"/>
<glyph glyph-name="W" horiz-adv-x="829" unicode="W" d="M802 688l-158 -688h-113l-102 421q-9 33 -13 76h-2q-7 -52 -13 -76l-102 -421h-112l-158 688h127l86 -450q8 -36 11 -82h2q4 38 14 82l105 450h94l101 -450q7 -31 13 -82h2q4 40 12 82l90 450h116z"/>
<glyph glyph-name="X" horiz-adv-x="544" unicode="X" d="M529 0h-142l-118 263h-2l-122 -263h-130l188 352l-170 336h134l107 -240h2l113 240h122l-171 -324z"/>
<glyph glyph-name="Y" horiz-adv-x="516" unicode="Y" d="M508 688l-186 -391v-297h-127v297l-186 391h135l118 -286h2l123 286h121z"/>
<glyph glyph-name="Z" horiz-adv-x="461" unicode="Z" d="M427 0h-406l241 603h-222v85h381l-236 -603h242v-85z"/>
<glyph glyph-name="bracketleft" horiz-adv-x="338" unicode="[" d="M296 -215h-224v1000h224v-68h-116v-863h116v-69z"/>
<glyph glyph-name="backslash" horiz-adv-x="457" unicode="\" d="M465 -178l-99 -37l-340 983l99 37z"/>
<glyph glyph-name="bracketright" horiz-adv-x="338" unicode="]" d="M266 -215h-224v69h116v863h-116v68h224v-1000z"/>
<glyph glyph-name="asciicircum" horiz-adv-x="494" unicode="^" d="M442 502l-51 -49l-144 142l-144 -142l-51 49l147 176q18 22 48 22t48 -22z"/>
<glyph glyph-name="underscore" horiz-adv-x="510" unicode="_" d="M520 -139h-530v64h530v-64z"/>
<glyph glyph-name="grave" horiz-adv-x="260" unicode="`" d="M197 597h-69l-121 135q16 23 56 23q39 0 62 -17z"/>
<glyph glyph-name="a" horiz-adv-x="520" unicode="a" d="M341 73v219q-94 -10 -140 -41t-46 -91q0 -102 113 -102q45 0 73 15zM455 28q-76 -39 -195 -39q-107 0 -163.5 42.5t-56.5 124.5q0 92 79.5 137t221.5 58v29q0 91 -103 91q-72 0 -140 -34l-27 72q89 41 182 41q96 0 149 -45.5t53 -140.5v-336z"/>
<glyph glyph-name="b" horiz-adv-x="549" unicode="b" d="M383 274q0 96 -32.5 148.5t-93.5 52.5q-41 0 -71 -15v-385q23 -10 62 -10q135 0 135 209zM504 284q0 -137 -68.5 -216t-193.5 -79q-109 0 -177 39v757h121v-259q43 21 102 21q98 0 157 -71.5t59 -191.5z"/>
<glyph glyph-name="c" horiz-adv-x="423" unicode="c" d="M393 26q-48 -37 -129 -37q-99 0 -159 77t-60 204t60.5 203.5t158.5 76.5q81 0 129 -37l-27 -69q-31 23 -77 23q-55 0 -87 -53.5t-32 -141.5q0 -87 32 -141t87 -54q44 0 75 23z"/>
<glyph glyph-name="d" horiz-adv-x="549" unicode="d" d="M363 79v389q-29 8 -57 8q-73 0 -106.5 -56.5t-33.5 -149.5q0 -202 133 -202q43 0 64 11zM484 28q-70 -39 -190 -39q-118 0 -183.5 72t-65.5 200q0 125 63.5 205t175.5 80q38 0 79 -11v250h121v-757z"/>
<glyph glyph-name="e" horiz-adv-x="541" unicode="e" d="M379 322q-2 155 -106 155q-56 0 -86 -48.5t-30 -130.5v-11zM496 274l-332 -49q7 -71 46 -110.5t105 -39.5q76 0 133 31l29 -78q-75 -39 -179 -39q-120 0 -186.5 76.5t-66.5 205.5q0 128 61.5 203.5t170.5 75.5q105 0 162 -67t57 -193v-16z"/>
<glyph glyph-name="f" horiz-adv-x="332" unicode="f" d="M306 462h-88v-462h-122v462h-60v77h60v66q0 85 47 133t133 48q12 0 30 -2v-77h-10q-78 0 -78 -99v-69h88v-77z"/>
<glyph glyph-name="g" horiz-adv-x="549" unicode="g" d="M363 87v379q-24 12 -63 12q-134 0 -134 -211q0 -197 128 -197q40 0 69 17zM484 -1q0 -108 -59.5 -166t-164.5 -58q-112 0 -183 39l32 80q57 -31 130 -31q124 0 124 124v30q-35 -20 -101 -20q-99 0 -158 71t-59 193q0 135 68.5 212t195.5 77q104 0 175 -39v-512z"/>
<glyph glyph-name="h" horiz-adv-x="556" unicode="h" d="M491 0h-122v375q0 94 -95 94q-46 0 -87 -22v-447h-122v785h122v-269q52 29 120 29q94 0 139 -48t45 -119v-378z"/>
<glyph glyph-name="i" horiz-adv-x="260" unicode="i" d="M191 0h-122v539h122v-539zM198 692q0 -25 -20 -43t-48 -18t-48 18t-20 43t20 43.5t48 18.5t48 -18.5t20 -43.5z"/>
<glyph glyph-name="j" horiz-adv-x="263" unicode="j" d="M194 76q0 -252 -216 -297v83q51 27 72.5 73.5t21.5 126.5v477h122v-463zM201 692q0 -25 -19.5 -43t-47.5 -18q-29 0 -49 18t-20 43t20 43.5t48 18.5t48 -18.5t20 -43.5z"/>
<glyph glyph-name="k" horiz-adv-x="524" unicode="k" d="M518 0h-142l-185 269h-2v-269h-120v785h120v-496h2l177 250h131l-199 -254z"/>
<glyph glyph-name="l" horiz-adv-x="262" unicode="l" d="M192 0h-122v785h122v-785z"/>
<glyph glyph-name="m" horiz-adv-x="853" unicode="m" d="M788 0h-119v371q0 102 -97 102q-51 0 -86 -40v-433h-119v382q0 91 -99 91q-49 0 -84 -14v-459h-119v510q93 39 197 39q107 0 165 -58q64 58 162 58q100 0 149.5 -48t49.5 -131v-370z"/>
<glyph glyph-name="n" horiz-adv-x="556" unicode="n" d="M491 0h-122v369q0 54 -24 79t-79 25q-47 0 -79 -14v-459h-122v510q91 39 201 39q225 0 225 -181v-368z"/>
<glyph glyph-name="o" horiz-adv-x="546" unicode="o" d="M379 272q0 202 -106 202t-106 -202t106 -202t106 202zM501 270q0 -127 -58.5 -204t-169.5 -77t-169.5 77t-58.5 204q0 126 58.5 203t169.5 77t169.5 -77t58.5 -203z"/>
<glyph glyph-name="p" horiz-adv-x="549" unicode="p" d="M383 273q0 203 -134 203q-40 0 -63 -11v-389q23 -9 54 -9q143 0 143 206zM504 276q0 -131 -65 -207.5t-172 -76.5q-45 0 -81 12v-219h-121v726q79 39 186 39q120 0 186.5 -72.5t66.5 -201.5z"/>
<glyph glyph-name="q" horiz-adv-x="549" unicode="q" d="M363 85v381q-24 12 -63 12q-134 0 -134 -211q0 -199 127 -199q41 0 70 17zM484 -215h-121v228q-42 -21 -99 -21q-100 0 -159.5 73t-59.5 194q0 135 68.5 213t195.5 78q104 0 175 -39v-726z"/>
<glyph glyph-name="r" horiz-adv-x="340" unicode="r" d="M325 546l-25 -87q-25 11 -55 11q-36 0 -58 -11v-459h-122v511q79 38 202 38q28 0 58 -3z"/>
<glyph glyph-name="s" horiz-adv-x="432" unicode="s" d="M390 157q0 -71 -55 -119.5t-144 -48.5q-93 0 -156 39l34 76q50 -31 108 -31q40 0 64 21.5t24 54.5q0 30 -22.5 50.5t-54.5 34t-63.5 30t-54 49t-22.5 80.5q0 69 50.5 113t126.5 44q89 0 150 -39l-31 -69q-48 30 -96 30q-38 0 -59 -20t-21 -51q0 -29 23 -48.5t55.5 -33 t65 -30t55.5 -50t23 -82.5z"/>
<glyph glyph-name="t" horiz-adv-x="343" unicode="t" d="M306 5q-24 -12 -66 -12q-68 0 -106 39t-38 110v320h-60v77h60v119l122 34v-153h88v-77h-88v-320q0 -65 58 -65q15 0 30 5v-77z"/>
<glyph glyph-name="u" horiz-adv-x="548" unicode="u" d="M483 30q-82 -41 -203 -41q-108 0 -161.5 44.5t-53.5 138.5v367h122v-371q0 -97 95 -97q50 0 79 15v453h122v-509z"/>
<glyph glyph-name="v" horiz-adv-x="513" unicode="v" d="M492 539l-178 -539h-114l-178 539h131l94 -350q9 -32 13 -77h2q5 47 14 77l100 350h116z"/>
<glyph glyph-name="w" horiz-adv-x="790" unicode="w" d="M763 539l-152 -539h-110l-93 343q-8 29 -11 64h-2q-5 -36 -12 -64l-92 -343h-111l-152 539h125l78 -350q7 -31 10 -73h2q7 48 14 73l95 350h101l91 -350q8 -32 13 -73h2q4 44 11 73l82 350h111z"/>
<glyph glyph-name="x" horiz-adv-x="500" unicode="x" d="M483 0h-135l-101 197h-2l-104 -197h-124l169 276l-152 263h128l91 -179h2l95 179h116l-152 -254z"/>
<glyph glyph-name="y" horiz-adv-x="513" unicode="y" d="M492 539l-250 -754h-129l90 215l-181 539h131l94 -356q9 -36 12 -76h2q5 39 15 76l100 356h116z"/>
<glyph glyph-name="z" horiz-adv-x="428" unicode="z" d="M392 0h-364l205 462h-188v77h341l-202 -462h208v-77z"/>
<glyph glyph-name="braceleft" horiz-adv-x="374" unicode="{" d="M332 -215h-25q-97 0 -148 52t-51 145v169q0 93 -68 101v69q37 4 52.5 29t15.5 71v167q0 93 51 145t148 52h25v-68q-63 0 -89.5 -31.5t-26.5 -94.5v-166q0 -56 -17 -89.5t-57 -48.5v-2q40 -15 57 -48.5t17 -89.5v-167q0 -63 26.5 -94.5t89.5 -31.5v-69z"/>
<glyph glyph-name="bar" horiz-adv-x="239" unicode="|" d="M168 -215h-97v1000h97v-1000z"/>
<glyph glyph-name="braceright" horiz-adv-x="374" unicode="}" d="M334 252q-68 -8 -68 -101v-169q0 -93 -51 -145t-148 -52h-25v69q63 0 89.5 31.5t26.5 94.5v167q0 56 17 89.5t57 48.5v2q-40 15 -57 48.5t-17 89.5v166q0 63 -26.5 94.5t-89.5 31.5v68h25q97 0 148 -52t51 -145v-167q0 -46 15.5 -71t52.5 -29v-69z"/>
<glyph glyph-name="asciitilde" horiz-adv-x="494" unicode="~" d="M442 398q-20 -133 -119 -133q-33 0 -75.5 31.5t-70.5 31.5q-46 0 -60 -62l-65 25q20 132 119 132q33 0 75.5 -31.5t70.5 -31.5q46 0 60 63z"/>
<glyph glyph-name="uni00A0" horiz-adv-x="272" unicode=" "/>
<glyph glyph-name="exclamdown" horiz-adv-x="302" unicode="¡" d="M229 -215h-144l25 448h93zM230 408q0 -30 -21.5 -51.5t-51.5 -21.5t-51.5 21.5t-21.5 51.5t21.5 51.5t51.5 21.5t51.5 -21.5t21.5 -51.5z"/>
<glyph glyph-name="cent" horiz-adv-x="439" unicode="¢" d="M396 136q-35 -27 -104 -30v-106h-67v109q-79 14 -125 74.5t-46 162.5q0 98 47 160t124 76v106h67v-104q63 -3 104 -30l-27 -65q-36 20 -72 20q-60 0 -90 -43.5t-30 -117.5q0 -76 30.5 -119t88.5 -43q42 0 73 19z"/>
<glyph glyph-name="sterling" horiz-adv-x="546" unicode="£" d="M492 0h-436q109 126 109 245q0 31 -9 71h-96v80h73q-17 57 -17 99q0 96 59 150t158 54q90 0 158 -39l-28 -78q-44 26 -108 26q-58 0 -89.5 -33.5t-31.5 -92.5q0 -43 10 -86h168v-80h-152q4 -27 4 -67q0 -35 -13 -76.5t-33 -71.5h274v-101z"/>
<glyph glyph-name="currency" horiz-adv-x="566" unicode="¤" d="M374 336q0 60 -26 99t-65 39t-65 -39t-26 -99t26 -99.5t65 -39.5t65 39.5t26 99.5zM520 144l-49 -48l-70 70q-52 -47 -118 -47t-118 47l-70 -70l-49 48l74 74q-29 53 -29 116t29 116l-74 73l49 49l70 -70q52 47 118 47t118 -47l70 70l49 -49l-74 -73q29 -53 29 -116 t-29 -116z"/>
<glyph glyph-name="yen" horiz-adv-x="626" unicode="¥" d="M573 688l-123 -242h98v-55h-125l-51 -100h176v-55h-176v-236h-118v236h-176v55h176l-51 100h-125v55h98l-123 242h128l135 -309h2l142 309h113z"/>
<glyph glyph-name="brokenbar" horiz-adv-x="239" unicode="¦" d="M168 -215h-97v397h97v-397zM168 388h-97v397h97v-397z"/>
<glyph glyph-name="section" horiz-adv-x="548" unicode="§" d="M392 216q0 24 -8.5 44.5t-30 39.5t-35.5 29.5t-49 32t-46 28.5q-69 -44 -69 -103q0 -17 4 -32.5t15.5 -30t20 -24.5t28 -24.5t29 -21t35 -22t32.5 -20.5q74 42 74 104zM494 227q0 -97 -111 -163q60 -55 60 -122q0 -75 -55.5 -120.5t-138.5 -45.5q-94 0 -156 40l31 79 q47 -32 109 -32q40 0 64.5 22t24.5 57q0 28 -20 53t-49.5 42.5t-64.5 41t-64.5 47.5t-49.5 62.5t-20 84.5q0 97 110 163q-47 47 -47 107q0 70 51.5 113t129.5 43q82 0 143 -40l-30 -74q-49 32 -98 32q-39 0 -59.5 -21t-20.5 -53q0 -27 19.5 -50.5t48.5 -40.5t62.5 -39 t62.5 -45t48.5 -59.5t19.5 -81.5z"/>
<glyph glyph-name="dieresis" horiz-adv-x="260" unicode="¨" d="M98 659q0 -23 -16 -38.5t-38 -15.5t-38 15.5t-16 38.5t16 38.5t38 15.5t38 -15.5t16 -38.5zM270 659q0 -23 -16 -38.5t-38 -15.5t-38 15.5t-16 38.5t16 38.5t38 15.5t38 -15.5t16 -38.5z"/>
<glyph glyph-name="copyright" horiz-adv-x="814" unicode="©" d="M500 169q-32 -21 -90 -21q-80 0 -125 57t-45 142q0 83 45 141t125 58q56 0 90 -21l-17 -43q-24 13 -60 13q-55 0 -82.5 -43t-27.5 -105q0 -61 28.5 -103t81.5 -42q35 0 59 13zM691 345q0 122 -83 209t-201 87t-201 -87t-83 -209t83 -209t201 -87t201 87t83 209zM764 344 q0 -147 -104.5 -251t-252.5 -104t-252.5 104t-104.5 251t104.5 251t252.5 104t252.5 -104t104.5 -251z"/>
<glyph glyph-name="ordfeminine" horiz-adv-x="384" unicode="ª" d="M240 378v141q-60 -7 -90 -26.5t-30 -58.5q0 -31 19 -48.5t55 -17.5q24 0 46 10zM322 345q-51 -27 -131 -27q-72 0 -112 28.5t-40 84.5q0 63 53.5 93t147.5 39v18q0 59 -67 59q-49 0 -93 -22l-20 52q58 28 125 28q137 0 137 -128v-225z"/>
<glyph glyph-name="guillemotleft" horiz-adv-x="504" unicode="«" d="M248 141l-70 -40l-134 233l134 234l70 -41l-112 -193zM450 141l-70 -40l-134 233l134 234l70 -41l-112 -193z"/>
<glyph glyph-name="logicalnot" d="M468 127h-92v161h-318v84h410v-245z" unicode="¬"/>
<glyph glyph-name="uni00AD" horiz-adv-x="350" unicode="­" d="M297 284h-244v92h244v-92z"/>
<glyph glyph-name="registered" horiz-adv-x="814" unicode="®" d="M472 435q0 75 -75 75q-20 0 -38 -6v-145q12 -3 30 -3q38 0 60.5 22t22.5 57zM554 157h-78l-64 122q-19 39 -53 50v-172h-69v373q44 22 106 22q70 0 107 -29t37 -86q0 -40 -26.5 -68t-71.5 -37v-2q21 -18 38 -47zM691 345q0 122 -83 209t-201 87t-201 -87t-83 -209 t83 -209t201 -87t201 87t83 209zM764 344q0 -147 -104.5 -251t-252.5 -104t-252.5 104t-104.5 251t104.5 251t252.5 104t252.5 -104t104.5 -251z"/>
<glyph glyph-name="macron" horiz-adv-x="260" unicode="¯" d="M263 612h-266v68h266v-68z"/>
<glyph glyph-name="degree" horiz-adv-x="422" unicode="°" d="M299 546q0 37 -26 63.5t-62 26.5t-62 -26.5t-26 -63.5t26 -63.5t62 -26.5t62 26.5t26 63.5zM364 546q0 -63 -45 -108t-108 -45t-108 45t-45 108t45 108t108 45t108 -45t45 -108z"/>
<glyph glyph-name="plusminus" d="M468 0h-410v78h410v-78zM468 318h-159v-155h-92v155h-159v78h159v154h92v-154h159v-78z" unicode="±"/>
<glyph glyph-name="twosuperior" horiz-adv-x="356" unicode="²" d="M302 476h-280l154 215q31 43 31 81q0 63 -74 63q-39 0 -77 -17l-21 54q50 24 117 24q73 0 110 -31.5t37 -83.5q0 -47 -56 -117l-95 -120h154v-68z"/>
<glyph glyph-name="threesuperior" horiz-adv-x="356" unicode="³" d="M310 598q0 -58 -44.5 -94t-114.5 -36q-75 0 -121 23l23 57q32 -17 84 -17q38 0 59.5 18.5t21.5 50.5q0 71 -101 71h-11v44q46 4 73 23t27 48q0 50 -64 50q-42 0 -80 -16l-20 53q51 23 115 23q62 0 98.5 -26t36.5 -73q0 -61 -71 -89v-2q89 -27 89 -108z"/>
<glyph glyph-name="acute" horiz-adv-x="260" unicode="´" d="M253 732l-121 -135h-69l72 141q23 17 62 17q40 0 56 -23z"/>
<glyph glyph-name="mu" horiz-adv-x="550" unicode="µ" d="M485 41q-78 -51 -184 -51q-65 0 -112 24v-229h-122v754h122v-442q37 -26 90 -26q49 0 84 23v445h122v-498z"/>
<glyph glyph-name="paragraph" horiz-adv-x="628" unicode="¶" d="M556 -215h-106v821q-48 14 -107 14q-18 0 -45 -3v-832h-106v492q-73 21 -112.5 75.5t-39.5 124.5q0 59 25.5 103.5t69.5 69.5t96.5 37t111.5 12q116 0 213 -39v-875z"/>
<glyph glyph-name="periodcentered" horiz-adv-x="266" unicode="·" d="M206 330q0 -30 -21.5 -51.5t-51.5 -21.5t-51.5 21.5t-21.5 51.5t21.5 51.5t51.5 21.5t51.5 -21.5t21.5 -51.5z"/>
<glyph glyph-name="cedilla" horiz-adv-x="260" unicode="¸" d="M259 -124q0 -41 -46.5 -62t-130.5 -21q-43 0 -78 5l21 44q27 -3 51 -3q97 0 97 37q0 29 -66 29q-29 0 -53 -2l19 40q36 4 65 4q121 0 121 -71z"/>
<glyph glyph-name="onesuperior" horiz-adv-x="356" unicode="¹" d="M258 476h-90v322q-38 -18 -103 -22l-11 50q105 13 140 62h64v-412z"/>
<glyph glyph-name="ordmasculine" horiz-adv-x="396" unicode="º" d="M266 510q0 130 -68 130t-68 -130q0 -131 68 -131t68 131zM352 508q0 -82 -40 -136t-114 -54t-114 54t-40 136t40 136t114 54t114 -54t40 -136z"/>
<glyph glyph-name="guillemotright" horiz-adv-x="504" unicode="»" d="M258 334l-134 -233l-70 40l112 193l-112 193l70 41zM460 334l-134 -233l-70 40l112 193l-112 193l70 41z"/>
<glyph glyph-name="onequarter" horiz-adv-x="842" unicode="¼" d="M670 336h-2q-12 -32 -29 -59l-86 -144h115v141q0 32 2 62zM258 276h-90v322q-38 -18 -103 -22l-11 50q105 13 140 62h64v-412zM617 674l-310 -689l-64 29l310 690zM783 86h-35v-86h-81v86h-173v49l170 277h84v-279h35v-47z"/>
<glyph glyph-name="onehalf" horiz-adv-x="842" unicode="½" d="M258 276h-90v322q-38 -18 -103 -22l-11 50q105 13 140 62h64v-412zM582 674l-309 -689l-64 29l309 690zM788 0h-281l154 215q32 44 32 81q0 63 -74 63q-37 0 -75 -17l-21 54q50 24 115 24q73 0 109.5 -31.5t36.5 -83.5q0 -48 -55 -117l-95 -120h154v-68z"/>
<glyph glyph-name="threequarters" horiz-adv-x="842" unicode="¾" d="M670 336h-2q-11 -30 -29 -59l-86 -144h115v141q0 30 2 62zM308 398q0 -58 -44.5 -94t-114.5 -36q-75 0 -121 23l23 57q32 -17 84 -17q38 0 59.5 18.5t21.5 50.5q0 71 -101 71h-11v44q46 4 73 23t27 48q0 50 -64 50q-42 0 -80 -16l-20 53q51 23 115 23q62 0 98.5 -26 t36.5 -73q0 -61 -71 -89v-2q89 -27 89 -108zM624 674l-309 -689l-64 29l309 690zM783 86h-35v-86h-81v86h-173v49l170 277h84v-279h35v-47z"/>
<glyph glyph-name="questiondown" horiz-adv-x="430" unicode="¿" d="M414 -187q-66 -39 -158 -39q-97 0 -154.5 44.5t-57.5 120.5q0 60 45.5 103t102.5 60l8 131h93l11 -167q-53 -11 -92.5 -41t-39.5 -75q0 -41 26 -65.5t81 -24.5q60 0 103 25zM320 408q0 -30 -21.5 -51.5t-51.5 -21.5t-51.5 21.5t-21.5 51.5t21.5 51.5t51.5 21.5 t51.5 -21.5t21.5 -51.5z"/>
<glyph glyph-name="Agrave" horiz-adv-x="608" unicode="À" d="M345 745h-69l-121 135q16 23 56 23q39 0 62 -17zM389 255l-70 242q-11 34 -18 89h-2q-10 -56 -20 -89l-71 -242h181zM596 0h-134l-52 181h-224l-53 -181h-121l227 688h129z"/>
<glyph glyph-name="Aacute" horiz-adv-x="608" unicode="Á" d="M450 880l-121 -135h-69l72 141q23 17 62 17q40 0 56 -23zM389 255l-70 242q-11 34 -18 89h-2q-10 -56 -20 -89l-71 -242h181zM596 0h-134l-52 181h-224l-53 -181h-121l227 688h129z"/>
<glyph glyph-name="Acircumflex" horiz-adv-x="608" unicode="Â" d="M438 770l-37 -33l-98 79l-98 -79l-37 33l96 103q17 17 39 17t39 -17zM389 255l-70 242q-11 34 -18 89h-2q-10 -56 -20 -89l-71 -242h181zM596 0h-134l-52 181h-224l-53 -181h-121l227 688h129z"/>
<glyph glyph-name="Atilde" horiz-adv-x="608" unicode="Ã" d="M440 840q-12 -91 -84 -91q-25 0 -55 20.5t-48 20.5q-32 0 -39 -41l-50 17q12 92 85 92q25 0 54.5 -20.5t47.5 -20.5q32 0 39 40zM389 255l-70 242q-11 34 -18 89h-2q-10 -56 -20 -89l-71 -242h181zM596 0h-134l-52 181h-224l-53 -181h-121l227 688h129z"/>
<glyph glyph-name="Adieresis" horiz-adv-x="608" unicode="Ä" d="M444 807q0 -23 -16 -38.5t-38 -15.5t-38 15.5t-16 38.5t16 38.5t38 15.5t38 -15.5t16 -38.5zM272 807q0 -23 -16 -38.5t-38 -15.5t-38 15.5t-16 38.5t16 38.5t38 15.5t38 -15.5t16 -38.5zM389 255l-70 242q-11 34 -18 89h-2q-10 -56 -20 -89l-71 -242h181zM596 0h-134 l-52 181h-224l-53 -181h-121l227 688h129z"/>
<glyph glyph-name="Aring" horiz-adv-x="608" unicode="Å" d="M345 825q0 18 -12.5 30.5t-29.5 12.5t-29.5 -12.5t-12.5 -30.5t12.5 -31t29.5 -13t29.5 13t12.5 31zM389 825q0 -35 -25.5 -60.5t-60.5 -25.5t-60.5 25.5t-25.5 60.5t25.5 60t60.5 25t60.5 -25t25.5 -60zM389 255l-70 242q-11 34 -18 89h-2q-10 -56 -20 -89l-71 -242h181 zM596 0h-134l-52 181h-224l-53 -181h-121l227 688h129z"/>
<glyph glyph-name="AE" horiz-adv-x="761" unicode="Æ" d="M399 255l-48 242q-7 36 -13 89h-2q-12 -49 -27 -89l-93 -242h183zM734 0h-285l-36 181h-225l-70 -181h-121l290 688h389v-85h-241l50 -208h190v-84h-172l54 -226h177v-85z"/>
<glyph glyph-name="Ccedilla" horiz-adv-x="486" unicode="Ç" d="M379 -124q0 -41 -46.5 -62t-130.5 -21q-43 0 -78 5l21 44q27 -3 51 -3q97 0 97 37q0 29 -66 29q-29 0 -53 -2l19 40q36 4 65 4q121 0 121 -71zM457 29q-59 -40 -143 -40q-67 0 -119 29.5t-83 80t-47 113t-16 132.5t16 132.5t47 113t83 80t119 29.5q85 0 143 -39l-30 -78 q-43 26 -91 26q-54 0 -90 -39.5t-51 -96.5t-15 -127q0 -107 39 -183t116 -76q48 0 91 26z"/>
<glyph glyph-name="Egrave" horiz-adv-x="450" unicode="È" d="M295 745h-69l-121 135q16 23 56 23q39 0 62 -17zM406 0h-335v688h335v-85h-208v-208h185v-84h-185v-226h208v-85z"/>
<glyph glyph-name="Eacute" horiz-adv-x="450" unicode="É" d="M373 880l-121 -135h-69l72 141q23 17 62 17q40 0 56 -23zM406 0h-335v688h335v-85h-208v-208h185v-84h-185v-226h208v-85z"/>
<glyph glyph-name="Ecircumflex" horiz-adv-x="450" unicode="Ê" d="M367 773l-37 -33l-98 79l-98 -79l-37 33l96 103q17 17 39 17t39 -17zM406 0h-335v688h335v-85h-208v-208h185v-84h-185v-226h208v-85z"/>
<glyph glyph-name="Edieresis" horiz-adv-x="450" unicode="Ë" d="M377 807q0 -23 -15.5 -38.5t-38.5 -15.5t-38.5 15.5t-15.5 38.5t15.5 38.5t38.5 15.5t38.5 -15.5t15.5 -38.5zM205 807q0 -23 -15.5 -38.5t-38.5 -15.5t-38.5 15.5t-15.5 38.5t15.5 38.5t38.5 15.5t38.5 -15.5t15.5 -38.5zM406 0h-335v688h335v-85h-208v-208h185v-84 h-185v-226h208v-85z"/>
<glyph glyph-name="Igrave" horiz-adv-x="273" unicode="Ì" d="M190 745h-69l-121 135q16 23 56 23q39 0 62 -17zM200 0h-127v688h127v-688z"/>
<glyph glyph-name="Iacute" horiz-adv-x="273" unicode="Í" d="M273 880l-121 -135h-69l72 141q23 17 62 17q40 0 56 -23zM200 0h-127v688h127v-688z"/>
<glyph glyph-name="Icircumflex" horiz-adv-x="273" unicode="Î" d="M272 773l-37 -33l-98 79l-98 -79l-37 33l96 103q17 17 39 17t39 -17zM200 0h-127v688h127v-688z"/>
<glyph glyph-name="Idieresis" horiz-adv-x="273" unicode="Ï" d="M276 807q0 -23 -16 -38.5t-38 -15.5t-38 15.5t-16 38.5t16 38.5t38 15.5t38 -15.5t16 -38.5zM105 807q0 -23 -15.5 -38.5t-38.5 -15.5t-38.5 15.5t-15.5 38.5t15.5 38.5t38.5 15.5t38.5 -15.5t15.5 -38.5zM200 0h-127v688h127v-688z"/>
<glyph glyph-name="Eth" horiz-adv-x="618" unicode="Ð" d="M441 351q0 266 -168 266q-41 0 -69 -11v-210h100v-76h-100v-232q28 -11 70 -11q88 0 127.5 67.5t39.5 206.5zM569 349q0 -169 -76 -264.5t-219 -95.5q-114 0 -194 39v292h-60v76h60v264q80 39 193 39q140 0 218 -92t78 -258z"/>
<glyph glyph-name="Ntilde" horiz-adv-x="650" unicode="Ñ" d="M462 840q-12 -91 -84 -91q-25 0 -55 20.5t-48 20.5q-32 0 -39 -41l-50 17q12 92 85 92q25 0 54.5 -20.5t47.5 -20.5q32 0 39 40zM579 0h-102l-264 451q-15 25 -37 72h-2q3 -43 3 -82v-441h-106v688h119l247 -423q16 -27 37 -71h2q-3 39 -3 80v414h106v-688z"/>
<glyph glyph-name="Ograve" horiz-adv-x="616" unicode="Ò" d="M362 746h-69l-121 135q16 23 56 23q39 0 62 -17zM439 347q0 265 -131 265t-131 -265q0 -266 131 -266t131 266zM567 344q0 -159 -65.5 -257t-193.5 -98t-193.5 98t-65.5 257t65.5 257t193.5 98t193.5 -98t65.5 -257z"/>
<glyph glyph-name="Oacute" horiz-adv-x="616" unicode="Ó" d="M443 881l-121 -135h-69l72 141q23 17 62 17q40 0 56 -23zM439 347q0 265 -131 265t-131 -265q0 -266 131 -266t131 266zM567 344q0 -159 -65.5 -257t-193.5 -98t-193.5 98t-65.5 257t65.5 257t193.5 98t193.5 -98t65.5 -257z"/>
<glyph glyph-name="Ocircumflex" horiz-adv-x="616" unicode="Ô" d="M443 772l-37 -33l-98 79l-98 -79l-37 33l96 103q17 17 39 17t39 -17zM439 347q0 265 -131 265t-131 -265q0 -266 131 -266t131 266zM567 344q0 -159 -65.5 -257t-193.5 -98t-193.5 98t-65.5 257t65.5 257t193.5 98t193.5 -98t65.5 -257z"/>
<glyph glyph-name="Otilde" horiz-adv-x="616" unicode="Õ" d="M446 841q-12 -91 -84 -91q-25 0 -55 20.5t-48 20.5q-32 0 -39 -41l-50 17q12 92 85 92q25 0 54.5 -20.5t47.5 -20.5q32 0 39 40zM439 347q0 265 -131 265t-131 -265q0 -266 131 -266t131 266zM567 344q0 -159 -65.5 -257t-193.5 -98t-193.5 98t-65.5 257t65.5 257 t193.5 98t193.5 -98t65.5 -257z"/>
<glyph glyph-name="Odieresis" horiz-adv-x="616" unicode="Ö" d="M448 808q0 -22 -16 -38t-38 -16t-38 16t-16 38t16 38t38 16t38 -16t16 -38zM275 808q0 -22 -15.5 -38t-38.5 -16t-38.5 16t-15.5 38t15.5 38t38.5 16t38.5 -16t15.5 -38zM439 347q0 265 -131 265t-131 -265q0 -266 131 -266t131 266zM567 344q0 -159 -65.5 -257 t-193.5 -98t-193.5 98t-65.5 257t65.5 257t193.5 98t193.5 -98t65.5 -257z"/>
<glyph glyph-name="multiply" d="M468 189l-60 -59l-145 146l-145 -146l-60 59l146 146l-146 145l60 59l145 -145l145 145l60 -59l-146 -145z" unicode="×"/>
<glyph glyph-name="Oslash" horiz-adv-x="616" unicode="Ø" d="M445 347q0 92 -15 151l-223 -358q35 -64 101 -64q137 0 137 271zM411 550q-36 68 -103 68q-138 0 -138 -271q0 -95 17 -156zM567 344q0 -159 -65.5 -257t-193.5 -98q-96 0 -159 58l-57 -91l-37 24l63 101q-69 94 -69 263q0 159 65.5 257t193.5 98q96 0 159 -58l57 91 l36 -24l-63 -101q70 -95 70 -263z"/>
<glyph glyph-name="Ugrave" horiz-adv-x="600" unicode="Ù" d="M365 745h-69l-121 135q16 23 56 23q39 0 62 -17zM529 200q0 -93 -63.5 -152t-165.5 -59t-165.5 59t-63.5 152v488h127v-489q0 -51 31 -81.5t76 -30.5t75.5 30.5t30.5 81.5v489h118v-488z"/>
<glyph glyph-name="Uacute" horiz-adv-x="600" unicode="Ú" d="M434 880l-121 -135h-69l72 141q23 17 62 17q40 0 56 -23zM529 200q0 -93 -63.5 -152t-165.5 -59t-165.5 59t-63.5 152v488h127v-489q0 -51 31 -81.5t76 -30.5t75.5 30.5t30.5 81.5v489h118v-488z"/>
<glyph glyph-name="Ucircumflex" horiz-adv-x="600" unicode="Û" d="M438 773l-37 -33l-98 79l-98 -79l-37 33l96 103q17 17 39 17t39 -17zM529 200q0 -93 -63.5 -152t-165.5 -59t-165.5 59t-63.5 152v488h127v-489q0 -51 31 -81.5t76 -30.5t75.5 30.5t30.5 81.5v489h118v-488z"/>
<glyph glyph-name="Udieresis" horiz-adv-x="600" unicode="Ü" d="M445 807q0 -23 -15.5 -38.5t-38.5 -15.5t-38.5 15.5t-15.5 38.5t15.5 38.5t38.5 15.5t38.5 -15.5t15.5 -38.5zM272 807q0 -23 -16 -38.5t-38 -15.5t-38 15.5t-16 38.5t16 38.5t38 15.5t38 -15.5t16 -38.5zM529 200q0 -93 -63.5 -152t-165.5 -59t-165.5 59t-63.5 152v488 h127v-489q0 -51 31 -81.5t76 -30.5t75.5 30.5t30.5 81.5v489h118v-488z"/>
<glyph glyph-name="Yacute" horiz-adv-x="516" unicode="Ý" d="M405 881l-121 -135h-69l72 141q23 17 62 17q40 0 56 -23zM508 688l-186 -391v-297h-127v297l-186 391h135l118 -286h2l123 286h121z"/>
<glyph glyph-name="Thorn" horiz-adv-x="556" unicode="Þ" d="M390 371q0 139 -128 139q-38 0 -67 -11v-267q28 -4 56 -4q139 0 139 143zM512 368q0 -96 -65 -155.5t-196 -59.5q-26 0 -56 4v-157h-124v688h124v-115q32 9 68 9q123 0 186 -56t63 -158z"/>
<glyph glyph-name="germandbls" horiz-adv-x="589" unicode="ß" d="M548 153q0 -73 -51.5 -117.5t-132.5 -44.5q-61 0 -114 31l22 76q37 -21 73 -21q39 0 60.5 20.5t21.5 55.5q0 26 -15.5 48.5t-37.5 40.5t-44.5 38t-38 50t-15.5 67q0 49 30 83.5t79 46.5q3 33 3 52q0 58 -23.5 96t-71.5 38q-105 0 -105 -186v-527h-122v519 q0 125 57.5 200.5t168.5 75.5q101 0 158.5 -62t57.5 -153q0 -45 -13 -88q-104 -9 -104 -90q0 -24 16 -46t39.5 -40.5t46.5 -39.5t39 -53t16 -70z"/>
<glyph glyph-name="agrave" horiz-adv-x="520" unicode="à" d="M325 597h-69l-121 135q16 23 56 23q39 0 62 -17zM341 73v219q-94 -10 -140 -41t-46 -91q0 -102 113 -102q45 0 73 15zM455 28q-76 -39 -195 -39q-107 0 -163.5 42.5t-56.5 124.5q0 92 79.5 137t221.5 58v29q0 91 -103 91q-72 0 -140 -34l-27 72q89 41 182 41 q96 0 149 -45.5t53 -140.5v-336z"/>
<glyph glyph-name="aacute" horiz-adv-x="520" unicode="á" d="M410 732l-121 -135h-69l72 141q23 17 62 17q40 0 56 -23zM341 73v219q-94 -10 -140 -41t-46 -91q0 -102 113 -102q45 0 73 15zM455 28q-76 -39 -195 -39q-107 0 -163.5 42.5t-56.5 124.5q0 92 79.5 137t221.5 58v29q0 91 -103 91q-72 0 -140 -34l-27 72q89 41 182 41 q96 0 149 -45.5t53 -140.5v-336z"/>
<glyph glyph-name="acircumflex" horiz-adv-x="520" unicode="â" d="M398 623l-37 -33l-98 79l-98 -79l-37 33l96 103q17 17 39 17t39 -17zM341 73v219q-94 -10 -140 -41t-46 -91q0 -102 113 -102q45 0 73 15zM455 28q-76 -39 -195 -39q-107 0 -163.5 42.5t-56.5 124.5q0 92 79.5 137t221.5 58v29q0 91 -103 91q-72 0 -140 -34l-27 72 q89 41 182 41q96 0 149 -45.5t53 -140.5v-336z"/>
<glyph glyph-name="atilde" horiz-adv-x="520" unicode="ã" d="M399 692q-12 -91 -84 -91q-25 0 -55 20.5t-48 20.5q-32 0 -39 -41l-50 17q12 92 85 92q25 0 54.5 -20.5t47.5 -20.5q32 0 39 40zM341 73v219q-94 -10 -140 -41t-46 -91q0 -102 113 -102q45 0 73 15zM455 28q-76 -39 -195 -39q-107 0 -163.5 42.5t-56.5 124.5 q0 92 79.5 137t221.5 58v29q0 91 -103 91q-72 0 -140 -34l-27 72q89 41 182 41q96 0 149 -45.5t53 -140.5v-336z"/>
<glyph glyph-name="adieresis" horiz-adv-x="520" unicode="ä" d="M407 659q0 -23 -15.5 -38.5t-38.5 -15.5t-38.5 15.5t-15.5 38.5t15.5 38.5t38.5 15.5t38.5 -15.5t15.5 -38.5zM235 659q0 -23 -15.5 -38.5t-38.5 -15.5t-38.5 15.5t-15.5 38.5t15.5 38.5t38.5 15.5t38.5 -15.5t15.5 -38.5zM341 73v219q-94 -10 -140 -41t-46 -91 q0 -102 113 -102q45 0 73 15zM455 28q-76 -39 -195 -39q-107 0 -163.5 42.5t-56.5 124.5q0 92 79.5 137t221.5 58v29q0 91 -103 91q-72 0 -140 -34l-27 72q89 41 182 41q96 0 149 -45.5t53 -140.5v-336z"/>
<glyph glyph-name="aring" horiz-adv-x="520" unicode="å" d="M308 681q0 18 -12.5 30.5t-29.5 12.5t-29.5 -12.5t-12.5 -30.5t12.5 -31t29.5 -13t29.5 13t12.5 31zM352 681q0 -35 -25.5 -60.5t-60.5 -25.5t-60.5 25.5t-25.5 60.5t25.5 60t60.5 25t60.5 -25t25.5 -60zM341 73v219q-94 -10 -140 -41t-46 -91q0 -102 113 -102 q45 0 73 15zM455 28q-76 -39 -195 -39q-107 0 -163.5 42.5t-56.5 124.5q0 92 79.5 137t221.5 58v29q0 91 -103 91q-72 0 -140 -34l-27 72q89 41 182 41q96 0 149 -45.5t53 -140.5v-336z"/>
<glyph glyph-name="ae" horiz-adv-x="819" unicode="æ" d="M339 157v135q-93 -10 -140 -40.5t-47 -91.5q0 -46 24.5 -74t70.5 -28q38 0 65 28.5t27 70.5zM660 322q-2 155 -106 155q-51 0 -83.5 -46t-32.5 -130v-14zM774 273l-329 -48q6 -70 44.5 -110t106.5 -40q75 0 131 31l29 -78q-71 -39 -173 -39q-120 0 -179 90 q-45 -90 -163 -90q-92 0 -146.5 43.5t-54.5 123.5q0 91 79 136t220 59v29q0 91 -104 91q-69 0 -137 -34l-28 72q87 41 180 41q115 0 152 -85q25 41 68.5 63t89.5 22q103 0 158.5 -66t55.5 -194v-17z"/>
<glyph glyph-name="ccedilla" horiz-adv-x="423" unicode="ç" d="M336 -124q0 -41 -46.5 -62t-130.5 -21q-43 0 -78 5l21 44q27 -3 51 -3q97 0 97 37q0 29 -66 29q-29 0 -53 -2l19 40q36 4 65 4q121 0 121 -71zM393 26q-48 -37 -129 -37q-99 0 -159 77t-60 204t60.5 203.5t158.5 76.5q81 0 129 -37l-27 -69q-31 23 -77 23 q-55 0 -87 -53.5t-32 -141.5q0 -87 32 -141t87 -54q44 0 75 23z"/>
<glyph glyph-name="egrave" horiz-adv-x="541" unicode="è" d="M329 597h-69l-121 135q16 23 56 23q39 0 62 -17zM379 322q-2 155 -106 155q-56 0 -86 -48.5t-30 -130.5v-11zM496 274l-332 -49q7 -71 46 -110.5t105 -39.5q76 0 133 31l29 -78q-75 -39 -179 -39q-120 0 -186.5 76.5t-66.5 205.5q0 128 61.5 203.5t170.5 75.5 q105 0 162 -67t57 -193v-16z"/>
<glyph glyph-name="eacute" horiz-adv-x="541" unicode="é" d="M419 732l-121 -135h-69l72 141q23 17 62 17q40 0 56 -23zM379 322q-2 155 -106 155q-56 0 -86 -48.5t-30 -130.5v-11zM496 274l-332 -49q7 -71 46 -110.5t105 -39.5q76 0 133 31l29 -78q-75 -39 -179 -39q-120 0 -186.5 76.5t-66.5 205.5q0 128 61.5 203.5t170.5 75.5 q105 0 162 -67t57 -193v-16z"/>
<glyph glyph-name="ecircumflex" horiz-adv-x="541" unicode="ê" d="M412 623l-37 -33l-98 79l-98 -79l-37 33l96 103q17 17 39 17t39 -17zM379 322q-2 155 -106 155q-56 0 -86 -48.5t-30 -130.5v-11zM496 274l-332 -49q7 -71 46 -110.5t105 -39.5q76 0 133 31l29 -78q-75 -39 -179 -39q-120 0 -186.5 76.5t-66.5 205.5q0 128 61.5 203.5 t170.5 75.5q105 0 162 -67t57 -193v-16z"/>
<glyph glyph-name="edieresis" horiz-adv-x="541" unicode="ë" d="M417 659q0 -23 -15.5 -38.5t-38.5 -15.5t-38.5 15.5t-15.5 38.5t15.5 38.5t38.5 15.5t38.5 -15.5t15.5 -38.5zM245 659q0 -23 -15.5 -38.5t-38.5 -15.5t-38.5 15.5t-15.5 38.5t15.5 38.5t38.5 15.5t38.5 -15.5t15.5 -38.5zM379 322q-2 155 -106 155q-56 0 -86 -48.5 t-30 -130.5v-11zM496 274l-332 -49q7 -71 46 -110.5t105 -39.5q76 0 133 31l29 -78q-75 -39 -179 -39q-120 0 -186.5 76.5t-66.5 205.5q0 128 61.5 203.5t170.5 75.5q105 0 162 -67t57 -193v-16z"/>
<glyph glyph-name="igrave" horiz-adv-x="260" unicode="ì" d="M191 596h-69l-121 135q16 23 56 23q39 0 62 -17zM191 0h-122v539h122v-539z"/>
<glyph glyph-name="iacute" horiz-adv-x="260" unicode="í" d="M259 731l-121 -135h-69l72 141q23 17 62 17q40 0 56 -23zM191 0h-122v539h122v-539z"/>
<glyph glyph-name="icircumflex" horiz-adv-x="260" unicode="î" d="M265 624l-37 -33l-98 79l-98 -79l-37 33l96 103q17 17 39 17t39 -17zM191 0h-122v539h122v-539z"/>
<glyph glyph-name="idieresis" horiz-adv-x="260" unicode="ï" d="M270 658q0 -22 -16 -38t-38 -16t-38 16t-16 38t16 38t38 16t38 -16t16 -38zM98 658q0 -22 -16 -38t-38 -16t-38 16t-16 38t16 38t38 16t38 -16t16 -38zM191 0h-122v539h122v-539z"/>
<glyph glyph-name="eth" horiz-adv-x="546" unicode="ð" d="M379 272q0 100 -30 185q-22 9 -54 9q-63 0 -95.5 -57.5t-32.5 -146.5q0 -88 26 -140t80 -52q106 0 106 202zM501 274q0 -128 -56.5 -206.5t-172.5 -78.5q-109 0 -168 72t-59 200q0 116 62 193.5t165 77.5q26 0 48 -6q-26 51 -70 102l-102 -58l-35 49l90 55l-71 69l80 56 l79 -75l92 55l42 -57l-83 -48q159 -176 159 -400z"/>
<glyph glyph-name="ntilde" horiz-adv-x="556" unicode="ñ" d="M411 692q-12 -91 -84 -91q-25 0 -55 20.5t-48 20.5q-32 0 -39 -41l-50 17q12 92 85 92q25 0 54.5 -20.5t47.5 -20.5q32 0 39 40zM491 0h-122v369q0 54 -24 79t-79 25q-47 0 -79 -14v-459h-122v510q91 39 201 39q225 0 225 -181v-368z"/>
<glyph glyph-name="ograve" horiz-adv-x="546" unicode="ò" d="M325 597h-69l-121 135q16 23 56 23q39 0 62 -17zM379 272q0 202 -106 202t-106 -202t106 -202t106 202zM501 270q0 -127 -58.5 -204t-169.5 -77t-169.5 77t-58.5 204q0 126 58.5 203t169.5 77t169.5 -77t58.5 -203z"/>
<glyph glyph-name="oacute" horiz-adv-x="546" unicode="ó" d="M414 732l-121 -135h-69l72 141q23 17 62 17q40 0 56 -23zM379 272q0 202 -106 202t-106 -202t106 -202t106 202zM501 270q0 -127 -58.5 -204t-169.5 -77t-169.5 77t-58.5 204q0 126 58.5 203t169.5 77t169.5 -77t58.5 -203z"/>
<glyph glyph-name="ocircumflex" horiz-adv-x="546" unicode="ô" d="M408 623l-37 -33l-98 79l-98 -79l-37 33l96 103q17 17 39 17t39 -17zM379 272q0 202 -106 202t-106 -202t106 -202t106 202zM501 270q0 -127 -58.5 -204t-169.5 -77t-169.5 77t-58.5 204q0 126 58.5 203t169.5 77t169.5 -77t58.5 -203z"/>
<glyph glyph-name="otilde" horiz-adv-x="546" unicode="õ" d="M411 692q-12 -91 -84 -91q-25 0 -55 20.5t-48 20.5q-32 0 -39 -41l-50 17q12 92 85 92q25 0 54.5 -20.5t47.5 -20.5q32 0 39 40zM379 272q0 202 -106 202t-106 -202t106 -202t106 202zM501 270q0 -127 -58.5 -204t-169.5 -77t-169.5 77t-58.5 204q0 126 58.5 203 t169.5 77t169.5 -77t58.5 -203z"/>
<glyph glyph-name="odieresis" horiz-adv-x="546" unicode="ö" d="M413 659q0 -23 -15.5 -38.5t-38.5 -15.5t-38.5 15.5t-15.5 38.5t15.5 38.5t38.5 15.5t38.5 -15.5t15.5 -38.5zM241 659q0 -23 -15.5 -38.5t-38.5 -15.5t-38.5 15.5t-15.5 38.5t15.5 38.5t38.5 15.5t38.5 -15.5t15.5 -38.5zM379 272q0 202 -106 202t-106 -202t106 -202 t106 202zM501 270q0 -127 -58.5 -204t-169.5 -77t-169.5 77t-58.5 204q0 126 58.5 203t169.5 77t169.5 -77t58.5 -203z"/>
<glyph glyph-name="divide" d="M324 164q0 -25 -18 -43t-43 -18t-43 18t-18 43t18 42.5t43 17.5t43 -17.5t18 -42.5zM468 296h-410v68h410v-68zM324 496q0 -25 -18 -43t-43 -18t-43 18t-18 43t18 42.5t43 17.5t43 -17.5t18 -42.5z" unicode="÷"/>
<glyph glyph-name="oslash" horiz-adv-x="546" unicode="ø" d="M385 272q0 63 -12 111l-181 -271q29 -48 81 -48q112 0 112 208zM355 430q-29 50 -82 50q-112 0 -112 -208q0 -67 13 -115zM501 270q0 -127 -58.5 -204t-169.5 -77q-80 0 -134 42l-49 -73l-34 22l53 79q-64 74 -64 211q0 126 58.5 203t169.5 77q80 0 134 -42l49 73l34 -22 l-53 -79q64 -74 64 -210z"/>
<glyph glyph-name="ugrave" horiz-adv-x="548" unicode="ù" d="M336 596h-69l-121 135q16 23 56 23q39 0 62 -17zM483 30q-82 -41 -203 -41q-108 0 -161.5 44.5t-53.5 138.5v367h122v-371q0 -97 95 -97q50 0 79 15v453h122v-509z"/>
<glyph glyph-name="uacute" horiz-adv-x="548" unicode="ú" d="M416 731l-121 -135h-69l72 141q23 17 62 17q40 0 56 -23zM483 30q-82 -41 -203 -41q-108 0 -161.5 44.5t-53.5 138.5v367h122v-371q0 -97 95 -97q50 0 79 15v453h122v-509z"/>
<glyph glyph-name="ucircumflex" horiz-adv-x="548" unicode="û" d="M409 624l-37 -33l-98 79l-98 -79l-37 33l96 103q17 17 39 17t39 -17zM483 30q-82 -41 -203 -41q-108 0 -161.5 44.5t-53.5 138.5v367h122v-371q0 -97 95 -97q50 0 79 15v453h122v-509z"/>
<glyph glyph-name="udieresis" horiz-adv-x="548" unicode="ü" d="M414 658q0 -22 -16 -38t-38 -16t-38 16t-16 38t16 38t38 16t38 -16t16 -38zM241 658q0 -22 -15.5 -38t-38.5 -16t-38.5 16t-15.5 38t15.5 38t38.5 16t38.5 -16t15.5 -38zM483 30q-82 -41 -203 -41q-108 0 -161.5 44.5t-53.5 138.5v367h122v-371q0 -97 95 -97q50 0 79 15 v453h122v-509z"/>
<glyph glyph-name="yacute" horiz-adv-x="513" unicode="ý" d="M401 732l-121 -135h-69l72 141q23 17 62 17q40 0 56 -23zM492 539l-250 -754h-129l90 215l-181 539h131l94 -356q9 -36 12 -76h2q5 39 15 76l100 356h116z"/>
<glyph glyph-name="thorn" horiz-adv-x="549" unicode="þ" d="M383 274q0 95 -32 148t-94 53q-40 0 -70 -15v-382q25 -11 61 -11q135 0 135 207zM504 284q0 -134 -64 -213t-173 -79q-49 0 -80 11v-218h-121v1000h121v-260q44 21 101 21q99 0 157.5 -71t58.5 -191z"/>
<glyph glyph-name="OE" horiz-adv-x="764" unicode="Œ" d="M393 84v524q-32 10 -61 10q-155 0 -155 -272q0 -123 37 -196.5t118 -73.5q35 0 61 8zM719 0h-309q-37 -11 -83 -11q-139 0 -208.5 97.5t-69.5 257.5t69.5 257.5t208.5 97.5q46 0 83 -11h309v-85h-207v-208h185v-84h-185v-226h207v-85z"/>
<glyph glyph-name="oe" horiz-adv-x="852" unicode="œ" d="M375 272q0 202 -106 202t-106 -202t106 -202t106 202zM694 322q-2 155 -106 155q-56 0 -86 -48.5t-30 -130.5v-11zM807 273l-328 -48q7 -71 44.5 -110.5t105.5 -39.5q76 0 132 31l29 -78q-71 -39 -173 -39q-65 0 -113.5 29.5t-74.5 80.5q-22 -50 -64.5 -80t-99.5 -30 q-106 0 -163 76t-57 205q0 128 57 204t163 76q111 0 163 -103q26 51 71 77t96 26q102 0 157 -67.5t55 -194.5v-15z"/>
<glyph glyph-name="Scaron" horiz-adv-x="495" unicode="Š" d="M388 869l-96 -103q-17 -17 -39 -17t-39 17l-96 103l37 33l98 -79l98 79zM447 191q0 -88 -62.5 -145t-165.5 -57q-108 0 -180 40l33 86q57 -32 132 -32q53 0 83.5 27t30.5 70q0 40 -28 68.5t-68 47.5t-80 42t-68 66t-28 104q0 85 60.5 138t158.5 53q92 0 159 -39l-31 -78 q-53 30 -113 30q-51 0 -79.5 -24t-28.5 -69q0 -34 20.5 -59t51 -39.5t66 -34.5t66 -41t51 -61t20.5 -93z"/>
<glyph glyph-name="scaron" horiz-adv-x="432" unicode="š" d="M353 718l-96 -103q-17 -17 -39 -17t-39 17l-96 103l37 33l98 -79l98 79zM390 157q0 -71 -55 -119.5t-144 -48.5q-93 0 -156 39l34 76q50 -31 108 -31q40 0 64 21.5t24 54.5q0 30 -22.5 50.5t-54.5 34t-63.5 30t-54 49t-22.5 80.5q0 69 50.5 113t126.5 44q89 0 150 -39 l-31 -69q-48 30 -96 30q-38 0 -59 -20t-21 -51q0 -29 23 -48.5t55.5 -33t65 -30t55.5 -50t23 -82.5z"/>
<glyph glyph-name="Ydieresis" horiz-adv-x="516" unicode="Ÿ" d="M405 807q0 -23 -15.5 -38.5t-38.5 -15.5t-38.5 15.5t-15.5 38.5t15.5 38.5t38.5 15.5t38.5 -15.5t15.5 -38.5zM233 807q0 -23 -15.5 -38.5t-38.5 -15.5t-38.5 15.5t-15.5 38.5t15.5 38.5t38.5 15.5t38.5 -15.5t15.5 -38.5zM508 688l-186 -391v-297h-127v297l-186 391h135 l118 -286h2l123 286h121z"/>
<glyph glyph-name="circumflex" horiz-adv-x="260" unicode="ˆ" d="M265 625l-37 -33l-98 79l-98 -79l-37 33l96 103q17 17 39 17t39 -17z"/>
<glyph glyph-name="tilde" horiz-adv-x="260" unicode="˜" d="M268 692q-12 -91 -84 -91q-25 0 -55 20.5t-48 20.5q-32 0 -39 -41l-50 17q12 92 85 92q25 0 54.5 -20.5t47.5 -20.5q32 0 39 40z"/>
<glyph glyph-name="uni0394" horiz-adv-x="608" unicode="Δ" d="M443 76l-124 421q-12 41 -18 88h-2q-9 -50 -20 -88l-126 -421h290zM596 0h-584l227 688h129z"/>
<glyph glyph-name="uni03BC" horiz-adv-x="550" unicode="μ" d="M485 41q-78 -51 -184 -51q-65 0 -112 24v-229h-122v754h122v-442q37 -26 90 -26q49 0 84 23v445h122v-498z"/>
<glyph glyph-name="pi" horiz-adv-x="598" unicode="π" d="M562 460h-66v-460h-120v460h-144l-58 -460h-121l61 460h-70v79h518v-79z"/>
<glyph glyph-name="endash" horiz-adv-x="392" unicode="–" d="M392 286h-392v88h392v-88z"/>
<glyph glyph-name="emdash" horiz-adv-x="784" unicode="—" d="M784 288h-784v84h784v-84z"/>
<glyph glyph-name="quoteleft" horiz-adv-x="280" unicode="‘" d="M240 785l-81 -247q-22 -37 -68 -37q-42 0 -49 37l132 247h66z"/>
<glyph glyph-name="quotesinglbase" horiz-adv-x="280" unicode="‚" d="M238 102l-132 -247h-66l81 247q22 37 68 37q42 0 49 -37z"/>
<glyph glyph-name="quotedblleft" horiz-adv-x="476" unicode="“" d="M240 785l-81 -247q-22 -37 -68 -37q-42 0 -49 37l132 247h66zM436 785l-81 -247q-22 -37 -68 -37q-42 0 -49 37l132 247h66z"/>
<glyph glyph-name="quotedblright" horiz-adv-x="476" unicode="”" d="M238 756l-132 -247h-66l81 247q22 37 68 37q42 0 49 -37zM434 756l-132 -247h-66l81 247q22 37 68 37q42 0 49 -37z"/>
<glyph glyph-name="dagger" horiz-adv-x="586" unicode="†" d="M538 425l-193 11l11 -651h-127l12 651l-193 -11v120l193 -11l-12 251h127l-11 -251l193 11v-120z"/>
<glyph glyph-name="daggerdbl" horiz-adv-x="586" unicode="‡" d="M538 133l-193 11l11 -359h-127l12 359l-193 -11v119l193 -12v198l-193 -11v118l193 -11l-12 251h127l-11 -251l193 11v-118l-193 11v-198l193 12v-119z"/>
<glyph glyph-name="ellipsis" horiz-adv-x="798" unicode="…" d="M206 65q0 -30 -21.5 -51.5t-51.5 -21.5t-51.5 21.5t-21.5 51.5t21.5 51.5t51.5 21.5t51.5 -21.5t21.5 -51.5zM472 65q0 -30 -21.5 -51.5t-51.5 -21.5t-51.5 21.5t-21.5 51.5t21.5 51.5t51.5 21.5t51.5 -21.5t21.5 -51.5zM738 65q0 -30 -21.5 -51.5t-51.5 -21.5 t-51.5 21.5t-21.5 51.5t21.5 51.5t51.5 21.5t51.5 -21.5t21.5 -51.5z"/>
<glyph glyph-name="perthousand" horiz-adv-x="1184" unicode="‰" d="M258 504q0 143 -62 143t-62 -143t62 -143t62 143zM694 188q0 143 -62 143t-62 -143t62 -143t62 143zM1050 188q0 143 -62 143t-62 -143t62 -143t62 143zM339 502q0 -82 -37 -139.5t-106 -57.5t-106 57.5t-37 139.5t37 139.5t106 57.5t106 -57.5t37 -139.5zM564 678 l-236 -688l-63 20l236 689zM775 186q0 -82 -37 -139.5t-106 -57.5t-106 57.5t-37 139.5t37 139.5t106 57.5t106 -57.5t37 -139.5zM1131 186q0 -82 -37 -139.5t-106 -57.5t-106 57.5t-37 139.5t37 139.5t106 57.5t106 -57.5t37 -139.5z"/>
<glyph glyph-name="guilsinglleft" horiz-adv-x="302" unicode="‹" d="M248 141l-70 -40l-134 233l134 234l70 -41l-112 -193z"/>
<glyph glyph-name="guilsinglright" horiz-adv-x="302" unicode="›" d="M258 334l-134 -233l-70 40l112 193l-112 193l70 41z"/>
<glyph glyph-name="fraction" horiz-adv-x="132" unicode="⁄" d="M248 674l-310 -689l-64 29l310 690z"/>
<glyph glyph-name="Euro" horiz-adv-x="646" unicode="€" d="M600 27q-56 -40 -151 -40q-122 0 -194 72t-94 187h-104v55h97q-2 28 -2 43q0 28 3 57h-98v55h107q25 109 97.5 177t187.5 68q93 0 151 -39l-28 -75q-41 25 -102 25q-140 0 -179 -156h229v-55h-239q-3 -29 -3 -56q0 -22 2 -44h240v-55h-231q17 -74 61.5 -119.5 t119.5 -45.5q59 0 100 25z"/>
<glyph glyph-name="trademark" horiz-adv-x="786" unicode="™" d="M285 631h-86v-343h-83v343h-86v57h255v-57zM740 288h-79l-24 255q-3 42 -3 46h-2q-5 -26 -11 -46l-78 -255h-47l-77 255q-6 19 -11 46h-2q0 -11 -3 -46l-26 -255h-70l47 400h84l74 -244q6 -20 11 -51h2q3 28 10 51l73 244h85z"/>
<glyph glyph-name="arrowleft" horiz-adv-x="940" unicode="←" d="M944 288h-719l179 -179l-60 -59l-280 280l280 280l60 -60l-179 -178h719v-84z"/>
<glyph glyph-name="arrowup" horiz-adv-x="696" unicode="↑" d="M632 511l-58 -59l-180 180v-632h-92v632l-180 -180l-58 59l284 284z"/>
<glyph glyph-name="arrowright" horiz-adv-x="940" unicode="→" d="M876 330l-280 -280l-60 59l179 179h-719v84h719l-179 178l60 60z"/>
<glyph glyph-name="arrowdown" horiz-adv-x="696" unicode="↓" d="M632 274l-284 -284l-284 284l58 59l180 -180v632h92v-632l180 180z"/>
<glyph glyph-name="carriagereturn" horiz-adv-x="940" unicode="↵" d="M862 0h-643l166 -166l-60 -59l-267 267l267 267l60 -59l-166 -166h550v252h-181v84h274v-420z"/>
<glyph glyph-name="partialdiff" horiz-adv-x="546" unicode="∂" d="M380 250q0 47 -8 88q-36 14 -75 14q-132 0 -132 -142q0 -61 26 -100.5t77 -39.5q56 0 84 47.5t28 132.5zM495 253q0 -122 -59 -193t-167 -71q-106 0 -163 63t-57 156q0 97 60 153t164 56q45 0 82 -14q-64 155 -255 213l25 82q166 -38 268 -154.5t102 -290.5z"/>
<glyph glyph-name="product" horiz-adv-x="744" unicode="∏" d="M700 603h-93v-818h-127v818h-216v-818h-127v818h-93v85h656v-85z"/>
<glyph glyph-name="summation" horiz-adv-x="546" unicode="∑" d="M496 -215h-456l239 471l-236 432h447v-93h-268l187 -339l-192 -373h279v-98z"/>
<glyph glyph-name="minus" d="M468 288h-410v84h410v-84z" unicode="−"/>
<glyph glyph-name="radical" horiz-adv-x="546" unicode="√" d="M524 785l-179 -785h-109l-132 428h-82v72h172l92 -354h2l128 639h108z"/>
<glyph glyph-name="infinity" horiz-adv-x="750" unicode="∞" d="M328 336q-30 51 -55.5 76t-61.5 25q-40 0 -64 -27.5t-24 -71.5t24.5 -72t63.5 -28q36 0 61.5 24.5t55.5 73.5zM626 341q0 44 -24 72t-64 28q-36 0 -61 -24t-55 -73q32 -53 57 -77.5t60 -24.5q40 0 63.5 27t23.5 72zM700 340q0 -80 -44 -133t-116 -53q-54 0 -92.5 30.5 t-73.5 86.5q-37 -58 -72.5 -87.5t-89.5 -29.5q-73 0 -117.5 52.5t-44.5 133.5q0 80 45 133t117 53q53 0 90 -30.5t74 -87.5q35 57 71.5 87.5t90.5 30.5q72 0 117 -53.5t45 -132.5z"/>
<glyph glyph-name="approxequal" d="M468 203q-41 -46 -110 -46q-34 0 -95.5 30.5t-95.5 30.5q-68 0 -109 -46v87q37 44 109 44q35 0 96 -30.5t95 -30.5q71 0 110 48v-87zM468 401q-41 -46 -110 -46q-34 0 -95.5 31t-95.5 31q-67 0 -109 -47v87q38 45 109 45q35 0 96 -30.5t95 -30.5q71 0 110 47v-87z" unicode="≈"/>
<glyph glyph-name="notequal" d="M468 188h-232l-51 -120l-53 24l40 96h-114v84h149l48 115h-197v84h232l50 117l53 -24l-39 -93h114v-84h-150l-47 -115h197v-84z" unicode="≠"/>
<glyph glyph-name="lessequal" d="M468 0h-410v78h410v-78zM468 156l-410 165v71l410 166v-87l-303 -113v-2l303 -113v-87z" unicode="≤"/>
<glyph glyph-name="greaterequal" d="M468 0h-410v78h410v-78zM468 321l-410 -165v87l303 113v2l-303 113v87l410 -166v-71z" unicode="≥"/>
<glyph glyph-name="dotmath" d="M336 330q0 -30 -21.5 -51.5t-51.5 -21.5t-51.5 21.5t-21.5 51.5t21.5 51.5t51.5 21.5t51.5 -21.5t21.5 -51.5z" unicode="⋅"/>
<glyph glyph-name="lozenge" horiz-adv-x="632" unicode="◊" d="M480 344l-164 216l-165 -216l165 -214zM586 344l-270 -354l-270 354l270 354z"/>
</font>
</defs>
</svg>
