<?xml version="1.0" encoding="UTF-8"?>
<svg width="44px" height="45px" viewBox="0 0 44 45" version="1.1" xmlns="http://www.w3.org/2000/svg" xmlns:xlink="http://www.w3.org/1999/xlink">
    <!-- Generator: Sketch 43.1 (39012) - http://www.bohemiancoding.com/sketch -->
    <title>Group 17</title>
    <desc>Created with Sketch.</desc>
    <defs></defs>
    <g id="Page-1" stroke="none" stroke-width="1" fill="none" fill-rule="evenodd">
        <g id="Home-Copy-3" transform="translate(-133.000000, -5190.000000)">
            <g id="Group-13" transform="translate(133.000000, 5188.000000)">
                <g id="Group-17" transform="translate(0.000000, 2.000000)">
                    <circle id="Oval" stroke="#F7F7F7" stroke-width="2" cx="22" cy="22.4436508" r="21"></circle>
                    <path d="M31,26.5846465 C30.5097917,27.7292604 30.2733093,28.2388399 29.6402262,29.2528255 C28.7571122,30.6651626 27.5106529,32.426704 25.9661273,32.4396375 C24.5952684,32.4538643 24.2430081,31.5019594 22.3807092,31.5135996 C20.5208737,31.5239464 20.1316631,32.456451 18.7595725,32.4435175 C17.2162785,32.4292907 16.0363299,30.8397647 15.1519842,29.4261343 C12.6812358,25.4762464 12.4213515,20.8382968 13.9461703,18.3718803 C15.030048,16.6206857 16.738387,15.5963533 18.3457283,15.5963533 C19.9801665,15.5963533 21.0086186,16.5379114 22.362234,16.5379114 C23.6739723,16.5379114 24.4733321,15.5937666 26.3651913,15.5937666 C27.7964025,15.5937666 29.3113679,16.4124565 30.3903188,17.8247936 C26.8529363,19.8618183 27.4268988,25.1645493 31,26.5846465 L31,26.5846465 Z M24.9315168,14.0145874 C25.6175621,13.0885495 26.139794,11.7796803 25.9513471,10.4436508 C24.8280557,10.5238385 23.5138541,11.2752742 22.7477496,12.2530461 C22.0506192,13.1389902 21.4766567,14.4569128 21.6995907,15.7373283 C22.9288065,15.7774221 24.1962043,15.0078795 24.9315168,14.0145874 L24.9315168,14.0145874 Z" id="Shape" fill="#F7F7F7"></path>
                </g>
            </g>
        </g>
    </g>
</svg>