<?xml version="1.0" encoding="UTF-8"?>
<svg width="44px" height="45px" viewBox="0 0 44 45" version="1.1" xmlns="http://www.w3.org/2000/svg" xmlns:xlink="http://www.w3.org/1999/xlink">
    <!-- Generator: Sketch 43.1 (39012) - http://www.bohemiancoding.com/sketch -->
    <title>Group 22</title>
    <desc>Created with Sketch.</desc>
    <defs></defs>
    <g id="Page-1" stroke="none" stroke-width="1" fill="none" fill-rule="evenodd">
        <g id="Home-Copy-3" transform="translate(-611.000000, -5188.000000)">
            <g id="Group-13" transform="translate(133.000000, 5188.000000)">
                <g id="Group-22" transform="translate(478.000000, 0.000000)">
                    <rect id="Rectangle" x="0" y="0.443650814" width="44" height="44"></rect>
                    <circle id="Oval" stroke="#F7F7F7" stroke-width="2" cx="22" cy="22.4436508" r="21"></circle>
                    <path d="M12.5044685,18.8567639 L16.4026341,18.8567639 L16.4026341,32.4423702 L12.5044685,32.4423702 L12.5044685,18.8567639 Z M14.3541863,17.1574426 L14.3259643,17.1574426 C12.9148636,17.1574426 12,16.1188973 12,14.8037481 C12,13.4617069 12.9419097,12.4436508 14.3812324,12.4436508 C15.8193791,12.4436508 16.7036689,13.4591458 16.7318909,14.7999064 C16.7318909,16.1150556 15.8193791,17.1574426 14.3541863,17.1574426 L14.3541863,17.1574426 Z M32,32.4436508 L27.5797272,32.4436508 L27.5797272,25.4120206 C27.5797272,23.5718362 26.8882879,22.316874 25.3678269,22.316874 C24.2048448,22.316874 23.5580903,23.1633332 23.2570555,23.9816198 C23.1441675,24.2735906 23.1618062,24.6820936 23.1618062,25.0918772 L23.1618062,32.4436508 L18.7826905,32.4436508 C18.7826905,32.4436508 18.8391345,19.988791 18.7826905,18.8567639 L23.1618062,18.8567639 L23.1618062,20.9889191 C23.420508,20.0566614 24.8198495,18.7261454 27.0529163,18.7261454 C29.8233772,18.7261454 32,20.6815814 32,24.888266 L32,32.4436508 L32,32.4436508 Z" id="Shape" fill="#F7F7F7"></path>
                </g>
            </g>
        </g>
    </g>
</svg>