<?xml version="1.0" encoding="UTF-8"?>
<svg width="21px" height="12px" viewBox="0 0 21 12" version="1.1" xmlns="http://www.w3.org/2000/svg" xmlns:xlink="http://www.w3.org/1999/xlink">
    <!-- Generator: Sketch 43.2 (39069) - http://www.bohemiancoding.com/sketch -->
    <title>Group 25</title>
    <desc>Created with Sketch.</desc>
    <defs></defs>
    <g id="Home-Desktop-Designs" stroke="none" stroke-width="1" fill="none" fill-rule="evenodd">
        <g id="Home_Desktop" transform="translate(-802.000000, -1164.000000)">
            <g id="Group-25" transform="translate(794.000000, 1152.000000)">
                <rect id="Rectangle-3" x="0" y="0" width="36" height="36"></rect>
                <g id="Group-10" transform="translate(8.000000, 12.000000)" fill="#000000">
                    <path d="M5.61492098,9.36 C3.79439046,9.36 2.31386835,7.85304 2.31386835,6 C2.31386835,4.14696 3.79439046,2.64 5.61492098,2.64 C7.43545151,2.64 8.91597361,4.14696 8.91597361,6 C8.91597361,7.85304 7.43545151,9.36 5.61492098,9.36 M5.61492098,0.4 C2.58125361,0.4 0.113166596,2.91216 0.113166596,6 C0.113166596,9.08784 2.58125361,11.6 5.61492098,11.6 C8.64858835,11.6 11.1166754,9.08784 11.1166754,6 C11.1166754,2.91216 8.64858835,0.4 5.61492098,0.4" id="Fill-13"></path>
                    <path d="M20.1862074,4.388096 L18.2418874,2.409056 C18.0427239,2.205776 17.767086,2.079776 17.462839,2.079776 C17.1613429,2.079776 16.8879057,2.204096 16.6892924,2.404576 C16.688192,2.405696 16.6859913,2.406816 16.6848909,2.407936 L14.7400208,4.388096 C14.3103338,4.825456 14.3103338,5.534416 14.7400208,5.972336 C15.1697078,6.409136 15.8667801,6.409136 16.2959169,5.971776 L16.3624881,5.904016 L16.3624881,8.799776 C16.3624881,9.418576 16.8554453,9.919776 17.462839,9.919776 C18.0707829,9.919776 18.5631899,9.418576 18.5631899,8.799776 L18.5631899,5.904016 L18.6303113,5.971776 C18.8448797,6.190736 19.1265695,6.299936 19.4082594,6.299936 C19.6899492,6.299936 19.971639,6.190736 20.1862074,5.971776 C20.6158945,5.534416 20.6158945,4.825456 20.1862074,4.388096" id="Fill-15"></path>
                </g>
            </g>
        </g>
    </g>
</svg>