<?xml version="1.0" encoding="UTF-8"?>
<svg width="16px" height="27px" viewBox="0 0 16 27" version="1.1" xmlns="http://www.w3.org/2000/svg" xmlns:xlink="http://www.w3.org/1999/xlink">
    <!-- Generator: Sketch 43.2 (39069) - http://www.bohemiancoding.com/sketch -->
    <title>Group 27</title>
    <desc>Created with Sketch.</desc>
    <defs></defs>
    <g id="Home-Desktop-Designs" stroke="none" stroke-width="1" fill="none" fill-rule="evenodd">
        <g id="Home_Desktop" transform="translate(-1044.000000, -955.000000)">
            <g id="Group-27" transform="translate(1034.000000, 950.000000)">
                <rect id="Rectangle-3-Copy-2" x="0" y="0" width="36" height="36"></rect>
                <g id="Group-6" transform="translate(10.000000, 5.000000)" fill="#000000">
                    <g id="Group-15" transform="translate(0.160000, 0.933333)">
                        <path d="M13.44,21.9655758 C13.44,22.5944863 12.93768,23.1059394 12.32,23.1059394 L3.36,23.1059394 C2.74232,23.1059394 2.24,22.5944863 2.24,21.9655758 L2.24,17.4041212 C2.24,14.2601387 4.75216,11.702303 7.84,11.702303 C10.92784,11.702303 13.44,14.2601387 13.44,17.4041212 L13.44,21.9655758 Z M7.84,9.42157576 C3.5168,9.42157576 0,13.0023176 0,17.4041212 L0,21.9655758 C0,23.8523074 1.50696,25.3866667 3.36,25.3866667 L12.32,25.3866667 C14.17304,25.3866667 15.68,23.8523074 15.68,21.9655758 L15.68,17.4041212 C15.68,13.0023176 12.1632,9.42157576 7.84,9.42157576 L7.84,9.42157576 Z" id="Fill-9"></path>
                        <path d="M7.84,2.28072727 C9.69304,2.28072727 11.2,3.81508655 11.2,5.70181818 C11.2,7.58854982 9.69304,9.12290909 7.84,9.12290909 C5.98696,9.12290909 4.48,7.58854982 4.48,5.70181818 C4.48,3.81508655 5.98696,2.28072727 7.84,2.28072727 M7.84,11.4036364 C10.92784,11.4036364 13.44,8.84580073 13.44,5.70181818 C13.44,2.55783564 10.92784,0 7.84,0 C4.75216,0 2.24,2.55783564 2.24,5.70181818 C2.24,8.84580073 4.75216,11.4036364 7.84,11.4036364" id="Fill-11"></path>
                    </g>
                </g>
            </g>
        </g>
    </g>
</svg>