<?xml version="1.0" encoding="utf-8"?>
<!-- Generator: Adobe Illustrator 15.1.0, SVG Export Plug-In  -->
<!DOCTYPE svg PUBLIC "-//W3C//DTD SVG 1.1//EN" "http://www.w3.org/Graphics/SVG/1.1/DTD/svg11.dtd" [
	<!ENTITY ns_flows "http://ns.adobe.com/Flows/1.0/">
]>
<svg version="1.1"
	 xmlns="http://www.w3.org/2000/svg" xmlns:xlink="http://www.w3.org/1999/xlink" xmlns:a="http://ns.adobe.com/AdobeSVGViewerExtensions/3.0/"
	 x="0px" y="0px" width="27px" height="27px" viewBox="0.0889 0 27 27" overflow="visible" enable-background="new 0.0889 0 27 27"
	 xml:space="preserve">
<defs>
</defs>
<path display="none" fill="#7BABC3" d="M27.0972,14.0078c0.0059-0.1406-0.0273-0.2793-0.0918-0.4082
	c0-0.0195,0.0039-0.041,0.0039-0.0625s-0.0039-0.043-0.0039-0.0645c0.0645-0.127,0.0977-0.2656,0.0918-0.4082
	c-0.0059-0.1465-0.0488-0.2812-0.1191-0.4023c-0.002-0.041-0.0039-0.0859-0.0078-0.1289c0.0547-0.1309,0.0762-0.2715,0.0605-0.4141
	c-0.0137-0.1406-0.0664-0.2715-0.1445-0.3848c-0.0039-0.0449-0.0117-0.0898-0.0195-0.1348
	c0.0449-0.1328,0.0586-0.2754,0.0332-0.4141s-0.0859-0.2656-0.1699-0.373c-0.0078-0.0469-0.0195-0.0918-0.0273-0.1387
	c0.0312-0.1348,0.0352-0.2754,0.002-0.4121c-0.0352-0.1367-0.1035-0.2578-0.1934-0.3574c-0.0137-0.0488-0.0254-0.0938-0.041-0.1426
	c0.0234-0.1348,0.0176-0.2754-0.0254-0.4082c-0.0449-0.1348-0.1211-0.248-0.2168-0.3438c-0.0176-0.0449-0.0332-0.0938-0.0508-0.1387
	c0.0137-0.1387-0.0039-0.2754-0.0566-0.4062s-0.1367-0.2402-0.2402-0.3281C25.8608,8.0898,25.8413,8.0449,25.8218,8
	c0.002-0.1367-0.0234-0.2734-0.0859-0.4004c-0.0605-0.127-0.1543-0.2324-0.2637-0.3125c-0.0215-0.043-0.0449-0.0859-0.0664-0.127
	c-0.0059-0.1367-0.041-0.2715-0.1113-0.3926c-0.0703-0.123-0.1719-0.2207-0.2852-0.293c-0.0254-0.041-0.0508-0.082-0.0762-0.1211
	c-0.0137-0.1387-0.0605-0.2715-0.1387-0.3867s-0.1836-0.207-0.3047-0.2715c-0.0273-0.0391-0.0566-0.0762-0.084-0.1172
	c-0.0254-0.1367-0.0801-0.2656-0.166-0.377c-0.0859-0.1094-0.1992-0.1953-0.3262-0.252c-0.0293-0.0352-0.0586-0.0703-0.0879-0.1074
	C23.7905,4.707,23.728,4.582,23.6343,4.4785s-0.2109-0.1777-0.3398-0.2266c-0.0332-0.0352-0.0664-0.0684-0.0996-0.1035
	c-0.043-0.1328-0.1152-0.252-0.2188-0.3516c-0.0977-0.0957-0.2207-0.1621-0.3516-0.2031C22.5874,3.5625,22.5522,3.5312,22.5171,3.5
	c-0.0527-0.1289-0.1328-0.2441-0.2402-0.334c-0.1035-0.0879-0.2285-0.1445-0.3613-0.1738
	c-0.0391-0.0312-0.0801-0.0645-0.1211-0.0938c-0.0605-0.123-0.1484-0.2324-0.2617-0.3145c-0.1094-0.0801-0.2363-0.127-0.3711-0.1484
	c-0.043-0.0312-0.0879-0.0605-0.1328-0.0898c-0.0664-0.1133-0.1582-0.2148-0.2773-0.2891c-0.1152-0.0723-0.2461-0.1133-0.3809-0.125
	c-0.0469-0.0273-0.0918-0.0547-0.1387-0.0801c-0.0762-0.1094-0.1758-0.2031-0.2969-0.2676
	c-0.1191-0.0625-0.2539-0.0957-0.3906-0.0977c-0.0469-0.0234-0.0938-0.0488-0.1426-0.0723
	c-0.0859-0.1035-0.1895-0.1875-0.3145-0.2441c-0.1094-0.0488-0.2266-0.0742-0.3477-0.0742c-0.0156,0-0.0293,0.002-0.0469,0.0039
	c-0.0488-0.0215-0.0996-0.043-0.1504-0.0645c-0.0918-0.0957-0.2031-0.1719-0.3301-0.2188c-0.0938-0.0332-0.1914-0.0508-0.291-0.0508
	c-0.0332,0-0.0684,0.002-0.1035,0.0059c-0.0527-0.0156-0.1055-0.0332-0.1582-0.0508c-0.0977-0.0898-0.2148-0.1582-0.3438-0.1973
	c-0.0762-0.0215-0.1562-0.0312-0.2344-0.0312c-0.0547,0-0.1074,0.0059-0.1582,0.0176c-0.0547-0.0156-0.1094-0.0273-0.1641-0.041
	c-0.1035-0.084-0.2246-0.1445-0.3594-0.1719c-0.0566-0.0137-0.1152-0.0195-0.1758-0.0195c-0.0762,0-0.1504,0.0117-0.2227,0.0312
	c-0.0527-0.0117-0.1055-0.0195-0.1602-0.0273c-0.1094-0.0781-0.2344-0.1309-0.3672-0.1484c-0.1387-0.0195-0.2734-0.002-0.3984,0.041
	c-0.0547-0.0078-0.1074-0.0117-0.1621-0.0176c-0.1113-0.0684-0.2402-0.1133-0.3789-0.123s-0.2715,0.0195-0.3906,0.0703
	c-0.0547-0.002-0.1094-0.0039-0.1621-0.0059C13.8628,0.0371,13.7319,0,13.5933,0c-0.1406,0-0.2715,0.0371-0.3906,0.0977
	c-0.0527,0.002-0.1074,0.0039-0.1621,0.0059c-0.1016-0.0449-0.2129-0.0723-0.3301-0.0723c-0.0215,0-0.041,0-0.0605,0.0039
	c-0.1348,0.0078-0.2637,0.0527-0.3789,0.1211c-0.0547,0.0059-0.1094,0.0098-0.1621,0.0176
	C12.021,0.1426,11.9292,0.125,11.8315,0.125c-0.041,0-0.082,0.002-0.1191,0.0078c-0.1348,0.0176-0.2598,0.0703-0.3691,0.1484
	c-0.0527,0.0078-0.1055,0.0176-0.1582,0.0273c-0.0723-0.0195-0.1465-0.0312-0.2227-0.0312c-0.0625,0-0.123,0.0078-0.1797,0.0195
	c-0.1309,0.0273-0.252,0.0879-0.3555,0.1719c-0.0547,0.0137-0.1094,0.0273-0.1641,0.041c-0.0527-0.0117-0.1055-0.0176-0.1582-0.0176
	c-0.082,0-0.1621,0.0098-0.2383,0.0352C9.7358,0.5645,9.6226,0.6328,9.5249,0.7207C9.4722,0.7402,9.4194,0.7559,9.3667,0.7715
	C9.3335,0.7676,9.2983,0.7656,9.2651,0.7656c-0.1016,0-0.2012,0.0176-0.293,0.0508c-0.127,0.0469-0.2383,0.123-0.3281,0.2207
	c-0.0527,0.0215-0.1016,0.041-0.1523,0.0625c-0.0156-0.002-0.0312-0.002-0.0449-0.002c-0.123,0-0.2422,0.0254-0.3496,0.0742
	C7.9761,1.2266,7.8726,1.3086,7.7886,1.4121C7.7397,1.4355,7.6909,1.4609,7.6401,1.4863c-0.1367,0.002-0.2734,0.0371-0.3906,0.0996
	C7.1304,1.6504,7.0288,1.7422,6.9526,1.8516c-0.0469,0.0273-0.0918,0.0547-0.1367,0.082c-0.1387,0.0098-0.2695,0.0527-0.3848,0.125
	C6.314,2.1328,6.2241,2.2324,6.1558,2.3457C6.1128,2.375,6.0679,2.4062,6.0229,2.4375C5.8882,2.457,5.7612,2.5059,5.6499,2.5879
	C5.5405,2.668,5.4526,2.7754,5.3901,2.8984C5.3511,2.9297,5.3101,2.9609,5.271,2.9922C5.1362,3.0215,5.0112,3.0801,4.9097,3.168
	C4.8022,3.2578,4.7222,3.3711,4.6694,3.5C4.6343,3.5312,4.5972,3.5625,4.562,3.5957C4.4272,3.6348,4.3062,3.7031,4.2065,3.8008
	C4.105,3.8965,4.0347,4.0176,3.9917,4.1504C3.9585,4.1836,3.9233,4.2188,3.8921,4.252c-0.1309,0.0488-0.25,0.125-0.3398,0.2266
	C3.4585,4.584,3.394,4.709,3.3608,4.8438C3.3315,4.8789,3.3022,4.916,3.271,4.9492C3.144,5.0078,3.0327,5.0918,2.9468,5.2031
	c-0.0879,0.1133-0.1387,0.2402-0.1641,0.373C2.7554,5.6152,2.7261,5.6562,2.6968,5.6953c-0.123,0.0664-0.2285,0.1562-0.3047,0.2715
	C2.314,6.084,2.269,6.2168,2.2515,6.3535c-0.0234,0.041-0.0488,0.082-0.0742,0.125C2.0601,6.5508,1.9604,6.6484,1.8921,6.7676
	c-0.0703,0.125-0.1055,0.2578-0.1113,0.3926c-0.0215,0.043-0.0449,0.0859-0.0664,0.127c-0.1133,0.082-0.2031,0.1895-0.2637,0.3164
	C1.3882,7.7285,1.3628,7.8652,1.3647,8C1.3452,8.0449,1.3276,8.0898,1.3062,8.1367C1.2026,8.2246,1.1187,8.334,1.0659,8.4648
	S0.9956,8.7324,1.0093,8.8711C0.9917,8.916,0.9761,8.9629,0.9585,9.0098c-0.0957,0.0957-0.1738,0.209-0.2148,0.3438
	C0.7007,9.4883,0.6929,9.627,0.7163,9.7637C0.7026,9.8105,0.689,9.8555,0.6753,9.9043c-0.0898,0.0996-0.1582,0.2207-0.1914,0.3574
	c-0.0352,0.1367-0.0312,0.2773,0,0.4121c-0.0078,0.0469-0.0195,0.0918-0.0273,0.1367c-0.0859,0.1094-0.1445,0.2344-0.168,0.375
	c-0.0254,0.1387-0.0137,0.2812,0.0293,0.4141c-0.0059,0.0449-0.0117,0.0898-0.0176,0.1309
	c-0.0781,0.1152-0.1309,0.248-0.1445,0.3926c-0.0156,0.1387,0.0078,0.2793,0.0605,0.4102c-0.002,0.043-0.0059,0.0859-0.0078,0.1289
	c-0.0703,0.1191-0.1133,0.2559-0.1191,0.4043c-0.0059,0.1445,0.0293,0.2832,0.0918,0.4062c0,0.0215-0.002,0.043-0.002,0.0645
	s0.002,0.043,0.002,0.0645c-0.0645,0.1289-0.0977,0.2676-0.0918,0.4102c0.0059,0.1445,0.0488,0.2793,0.1191,0.4004
	c0.002,0.041,0.0059,0.0859,0.0078,0.1289c-0.0527,0.1309-0.0762,0.2695-0.0605,0.4121s0.0664,0.2754,0.1445,0.3906
	c0.0059,0.043,0.0117,0.0879,0.0176,0.1309c-0.043,0.1328-0.0547,0.2754-0.0293,0.4141c0.0234,0.1387,0.084,0.2656,0.168,0.373
	c0.0078,0.0449,0.0195,0.0918,0.0273,0.1387c-0.0312,0.1348-0.0352,0.2773,0,0.4102c0.0332,0.1387,0.1035,0.2578,0.1914,0.3594
	c0.0137,0.0469,0.0273,0.0938,0.041,0.1406c-0.0234,0.1367-0.0176,0.2773,0.0254,0.4082c0.0449,0.1328,0.1211,0.25,0.2168,0.3457
	c0.0176,0.0449,0.0332,0.0918,0.0527,0.1387c-0.0156,0.1387,0,0.2754,0.0547,0.4062c0.0527,0.1289,0.1367,0.2402,0.2402,0.3281
	c0.0215,0.0449,0.0391,0.0898,0.0586,0.1348c-0.0039,0.1387,0.0234,0.2754,0.0859,0.3984c0.0605,0.1289,0.1543,0.2344,0.2656,0.3164
	c0.0195,0.041,0.043,0.084,0.0645,0.127c0.0059,0.1367,0.041,0.2715,0.1113,0.3906c0.0703,0.123,0.1699,0.2227,0.2852,0.2969
	c0.0254,0.0391,0.0508,0.0781,0.0742,0.1172c0.0156,0.1406,0.0605,0.2734,0.1406,0.3887c0.0781,0.1152,0.1836,0.2051,0.3047,0.2715
	c0.0293,0.0391,0.0547,0.0762,0.084,0.1152c0.0254,0.1367,0.0801,0.2676,0.166,0.375c0.0859,0.1133,0.1992,0.1973,0.3262,0.2559
	c0.0293,0.0352,0.0586,0.0703,0.0879,0.1035c0.0352,0.1367,0.0977,0.2617,0.1914,0.3652s0.2109,0.1797,0.3398,0.2285
	c0.0312,0.0332,0.0664,0.0684,0.0996,0.1016c0.043,0.1328,0.1152,0.2539,0.2168,0.3516c0.0996,0.0957,0.2227,0.1641,0.3535,0.2031
	c0.0352,0.0312,0.0723,0.0625,0.1074,0.0957c0.0527,0.1289,0.1328,0.2422,0.2402,0.332c0.1035,0.0879,0.2285,0.1465,0.3613,0.1758
	c0.0391,0.0312,0.0801,0.0605,0.1191,0.0938c0.0625,0.123,0.1504,0.2324,0.2617,0.3125s0.2383,0.1289,0.373,0.1504
	c0.043,0.0273,0.084,0.0566,0.1289,0.0859c0.0684,0.1191,0.1641,0.2207,0.2773,0.291c0.1172,0.0723,0.25,0.1133,0.3867,0.125
	c0.0449,0.0273,0.0898,0.0547,0.1348,0.0801c0.0762,0.1133,0.1777,0.2051,0.2969,0.2676c0.1211,0.0645,0.2559,0.0977,0.3926,0.1016
	c0.0469,0.0215,0.0938,0.0469,0.1406,0.0684c0.0859,0.1055,0.1914,0.1895,0.3145,0.2441c0.1113,0.0488,0.2285,0.0762,0.3496,0.0762
	c0.0156,0,0.0312-0.0039,0.0469-0.0039c0.0488,0.0215,0.0996,0.041,0.1484,0.0625c0.0918,0.0977,0.2031,0.1738,0.3301,0.2188
	c0.0938,0.0352,0.1914,0.0527,0.293,0.0527c0.0352,0,0.0703-0.002,0.1035-0.0059c0.0527,0.0156,0.1035,0.0332,0.1562,0.0488
	c0.0977,0.0918,0.2148,0.1602,0.3438,0.1973c0.0762,0.0215,0.1562,0.0332,0.2363,0.0332c0.0547,0,0.1074-0.0078,0.1582-0.0176
	c0.0547,0.0137,0.1094,0.0273,0.1621,0.041c0.1055,0.084,0.2266,0.1445,0.3594,0.1719c0.0586,0.0117,0.1172,0.0195,0.1777,0.0195
	c0.0762,0,0.1523-0.0117,0.2227-0.0312c0.0527,0.0098,0.1055,0.0195,0.1582,0.0273c0.1113,0.0781,0.2363,0.1309,0.3691,0.1484
	c0.041,0.0059,0.082,0.0078,0.1211,0.0078c0.0957,0,0.1895-0.0176,0.2773-0.0488c0.0527,0.0059,0.1055,0.0117,0.1582,0.0156
	c0.1172,0.0723,0.2461,0.1152,0.3828,0.123c0.0195,0.002,0.0391,0.0039,0.0586,0.0039c0.1172,0,0.2285-0.0293,0.332-0.0742
	c0.0547,0.0039,0.1094,0.0059,0.1621,0.0078c0.1172,0.0605,0.248,0.0957,0.3867,0.0957h0.002c0.1406,0,0.2715-0.0352,0.3887-0.0957
	c0.0547-0.002,0.1094-0.0039,0.1621-0.0078c0.1035,0.0449,0.2148,0.0723,0.3301,0.0723c0.0234,0,0.0449,0,0.0605-0.002
	c0.1367-0.0078,0.2656-0.0527,0.3809-0.123c0.0547-0.0039,0.1074-0.0098,0.1621-0.0156c0.0859,0.0312,0.1797,0.0488,0.2773,0.0488
	c0.0391,0,0.082-0.0039,0.1191-0.0078c0.1348-0.0195,0.2598-0.0723,0.3691-0.1484c0.0527-0.0078,0.1055-0.0176,0.1582-0.0273
	c0.0723,0.0195,0.1465,0.0312,0.2227,0.0312c0.0605,0,0.1211-0.0078,0.1797-0.0195c0.1348-0.0293,0.2539-0.0898,0.3555-0.1719
	c0.0547-0.0137,0.1094-0.0273,0.1641-0.041c0.0508,0.0098,0.1055,0.0176,0.1582,0.0176c0.082,0,0.1621-0.0117,0.2383-0.0332
	c0.1309-0.0391,0.2441-0.1074,0.3418-0.1973c0.0527-0.0156,0.1035-0.0332,0.1562-0.0508c0.0352,0.0059,0.0703,0.0078,0.1035,0.0078
	c0.1016,0,0.2012-0.0176,0.293-0.0527c0.1309-0.0469,0.2402-0.125,0.3301-0.2188c0.0488-0.0215,0.0996-0.041,0.1484-0.0625
	c0.0176,0,0.0332,0.002,0.0469,0.002c0.123,0,0.2422-0.0254,0.3496-0.0742c0.125-0.0566,0.2305-0.1406,0.3125-0.2422
	c0.0488-0.0234,0.0957-0.0488,0.1426-0.0723c0.1387-0.002,0.2734-0.0371,0.3926-0.0996c0.123-0.0645,0.2188-0.1582,0.2949-0.2656
	c0.0449-0.0273,0.0918-0.0527,0.1387-0.082c0.1367-0.0117,0.2695-0.0527,0.3828-0.125c0.1152-0.0723,0.2109-0.1738,0.2793-0.291
	c0.043-0.0293,0.0859-0.0586,0.1309-0.0859c0.1348-0.0215,0.2617-0.0703,0.373-0.1523c0.1094-0.0801,0.1973-0.1875,0.2578-0.3105
	c0.041-0.0332,0.082-0.0625,0.1211-0.0938c0.1348-0.0293,0.2598-0.0898,0.3633-0.1758c0.1074-0.0918,0.1855-0.2051,0.2344-0.3301
	c0.0371-0.0312,0.0742-0.0645,0.1113-0.0977c0.1328-0.0391,0.2559-0.1074,0.3555-0.2051c0.0996-0.0957,0.1719-0.2188,0.2148-0.3496
	c0.0332-0.0332,0.0664-0.0684,0.0996-0.1016c0.1309-0.0488,0.248-0.125,0.3398-0.2285c0.0938-0.1035,0.1562-0.2305,0.1914-0.3652
	c0.0293-0.0332,0.0605-0.0684,0.0898-0.1055c0.127-0.0566,0.2383-0.1406,0.3242-0.2539c0.0879-0.1094,0.1406-0.2383,0.166-0.375
	c0.0273-0.0391,0.0566-0.0762,0.084-0.1152c0.123-0.0664,0.2285-0.1562,0.3066-0.2734c0.0762-0.1152,0.123-0.248,0.1367-0.3867
	c0.0273-0.0391,0.0508-0.0801,0.0781-0.1211c0.1152-0.0742,0.2148-0.1719,0.2832-0.293c0.0703-0.1211,0.1055-0.2559,0.1113-0.3906
	c0.0215-0.043,0.0449-0.0859,0.0664-0.127c0.1113-0.082,0.2031-0.1875,0.2656-0.3184c0.0605-0.123,0.0859-0.2578,0.084-0.3965
	c0.0195-0.0449,0.0391-0.0898,0.0586-0.1348c0.1055-0.0898,0.1895-0.2012,0.2402-0.332c0.0527-0.127,0.0703-0.2656,0.0547-0.4023
	c0.0195-0.0469,0.0352-0.0938,0.0527-0.1406c0.0977-0.0957,0.1738-0.2109,0.2168-0.3438c0.043-0.1367,0.0488-0.2754,0.0254-0.4082
	c0.0156-0.0469,0.0273-0.0938,0.041-0.1406c0.0898-0.1035,0.1582-0.2227,0.1934-0.3594c0.0332-0.1406,0.0293-0.2793-0.002-0.4121
	c0.0078-0.0469,0.0195-0.0918,0.0273-0.1367c0.0859-0.1074,0.1465-0.2344,0.1699-0.375c0.0234-0.1387,0.0117-0.2793-0.0332-0.4141
	c0.0078-0.041,0.0137-0.0859,0.0195-0.1289c0.0781-0.1152,0.1309-0.248,0.1465-0.3945c0.0137-0.1406-0.0117-0.2793-0.0625-0.4082
	c0.0039-0.043,0.0059-0.0879,0.0078-0.1289C27.0483,14.291,27.0913,14.1562,27.0972,14.0078"/>
<path display="none" fill="#FFFFFF" d="M11.7261,21.3848v-7.3672H9.7788v-2.6504h1.9473c0,0,0-1.0879,0-2.2656
	c0-1.7793,1.1484-3.4141,3.8008-3.4141c1.0742,0,1.8672,0.1016,1.8672,0.1016l-0.0625,2.4766c0,0-0.8105-0.0078-1.6914-0.0078
	c-0.957,0-1.1094,0.4414-1.1094,1.1719c0,0.5781,0-1.2324,0,1.9375h2.877l-0.125,2.6504h-2.752v7.3672H11.7261z"/>
<path display="none" fill="#8CCEB6" d="M27.0083,14.0078c0.0059-0.1406-0.0273-0.2793-0.0918-0.4082
	c0-0.0195,0.0039-0.041,0.0039-0.0625s-0.0039-0.043-0.0039-0.0645c0.0645-0.127,0.0977-0.2656,0.0918-0.4082
	c-0.0059-0.1465-0.0488-0.2812-0.1191-0.4023c-0.002-0.041-0.0039-0.0859-0.0078-0.1289c0.0547-0.1309,0.0762-0.2715,0.0605-0.4141
	c-0.0137-0.1406-0.0664-0.2715-0.1445-0.3848c-0.0039-0.0449-0.0117-0.0898-0.0195-0.1348
	c0.0449-0.1328,0.0586-0.2754,0.0332-0.4141s-0.0859-0.2656-0.1699-0.373c-0.0078-0.0469-0.0195-0.0918-0.0273-0.1387
	c0.0312-0.1348,0.0352-0.2754,0.002-0.4121c-0.0352-0.1367-0.1035-0.2578-0.1934-0.3574c-0.0137-0.0488-0.0254-0.0938-0.041-0.1426
	c0.0234-0.1348,0.0176-0.2754-0.0254-0.4082c-0.0449-0.1348-0.1211-0.248-0.2168-0.3438c-0.0176-0.0449-0.0332-0.0938-0.0508-0.1387
	c0.0137-0.1387-0.0039-0.2754-0.0566-0.4062s-0.1367-0.2402-0.2402-0.3281C25.772,8.0898,25.7524,8.0449,25.7329,8
	c0.002-0.1367-0.0234-0.2734-0.0859-0.4004c-0.0605-0.127-0.1543-0.2324-0.2637-0.3125c-0.0215-0.043-0.0449-0.0859-0.0664-0.127
	c-0.0059-0.1367-0.041-0.2715-0.1113-0.3926c-0.0703-0.123-0.1719-0.2207-0.2852-0.293c-0.0254-0.041-0.0508-0.082-0.0762-0.1211
	c-0.0137-0.1387-0.0605-0.2715-0.1387-0.3867s-0.1836-0.207-0.3047-0.2715c-0.0273-0.0391-0.0566-0.0762-0.084-0.1172
	c-0.0254-0.1367-0.0801-0.2656-0.166-0.377c-0.0859-0.1094-0.1992-0.1953-0.3262-0.252c-0.0293-0.0352-0.0586-0.0703-0.0879-0.1074
	c-0.0352-0.1348-0.0977-0.2598-0.1914-0.3633s-0.2109-0.1777-0.3398-0.2266c-0.0332-0.0352-0.0664-0.0684-0.0996-0.1035
	c-0.043-0.1328-0.1152-0.252-0.2188-0.3516c-0.0977-0.0957-0.2207-0.1621-0.3516-0.2031C22.4985,3.5625,22.4634,3.5312,22.4282,3.5
	c-0.0527-0.1289-0.1328-0.2441-0.2402-0.334c-0.1035-0.0879-0.2285-0.1445-0.3613-0.1738
	c-0.0391-0.0312-0.0801-0.0645-0.1211-0.0938c-0.0605-0.123-0.1484-0.2324-0.2617-0.3145c-0.1094-0.0801-0.2363-0.127-0.3711-0.1484
	c-0.043-0.0312-0.0879-0.0605-0.1328-0.0898c-0.0664-0.1133-0.1582-0.2148-0.2773-0.2891c-0.1152-0.0723-0.2461-0.1133-0.3809-0.125
	c-0.0469-0.0273-0.0918-0.0547-0.1387-0.0801c-0.0762-0.1094-0.1758-0.2031-0.2969-0.2676
	c-0.1191-0.0625-0.2539-0.0957-0.3906-0.0977c-0.0469-0.0234-0.0938-0.0488-0.1426-0.0723
	c-0.0859-0.1035-0.1895-0.1875-0.3145-0.2441c-0.1094-0.0488-0.2266-0.0742-0.3477-0.0742c-0.0156,0-0.0293,0.002-0.0469,0.0039
	c-0.0488-0.0215-0.0996-0.043-0.1504-0.0645c-0.0918-0.0957-0.2031-0.1719-0.3301-0.2188c-0.0938-0.0332-0.1914-0.0508-0.291-0.0508
	c-0.0332,0-0.0684,0.002-0.1035,0.0059c-0.0527-0.0156-0.1055-0.0332-0.1582-0.0508c-0.0977-0.0898-0.2148-0.1582-0.3438-0.1973
	c-0.0762-0.0215-0.1562-0.0312-0.2344-0.0312c-0.0547,0-0.1074,0.0059-0.1582,0.0176c-0.0547-0.0156-0.1094-0.0273-0.1641-0.041
	c-0.1035-0.084-0.2246-0.1445-0.3594-0.1719c-0.0566-0.0137-0.1152-0.0195-0.1758-0.0195c-0.0762,0-0.1504,0.0117-0.2227,0.0312
	c-0.0527-0.0117-0.1055-0.0195-0.1602-0.0273c-0.1094-0.0781-0.2344-0.1309-0.3672-0.1484c-0.1387-0.0195-0.2734-0.002-0.3984,0.041
	c-0.0547-0.0078-0.1074-0.0117-0.1621-0.0176c-0.1113-0.0684-0.2402-0.1133-0.3789-0.123s-0.2715,0.0195-0.3906,0.0703
	c-0.0547-0.002-0.1094-0.0039-0.1621-0.0059C13.7739,0.0371,13.6431,0,13.5044,0c-0.1406,0-0.2715,0.0371-0.3906,0.0977
	c-0.0527,0.002-0.1074,0.0039-0.1621,0.0059c-0.1016-0.0449-0.2129-0.0723-0.3301-0.0723c-0.0215,0-0.041,0-0.0605,0.0039
	c-0.1348,0.0078-0.2637,0.0527-0.3789,0.1211C12.1274,0.1621,12.0728,0.166,12.02,0.1738
	c-0.0879-0.0312-0.1797-0.0488-0.2773-0.0488c-0.041,0-0.082,0.002-0.1191,0.0078c-0.1348,0.0176-0.2598,0.0703-0.3691,0.1484
	c-0.0527,0.0078-0.1055,0.0176-0.1582,0.0273c-0.0723-0.0195-0.1465-0.0312-0.2227-0.0312c-0.0625,0-0.123,0.0078-0.1797,0.0195
	c-0.1309,0.0273-0.252,0.0879-0.3555,0.1719c-0.0547,0.0137-0.1094,0.0273-0.1641,0.041c-0.0527-0.0117-0.1055-0.0176-0.1582-0.0176
	c-0.082,0-0.1621,0.0098-0.2383,0.0352C9.647,0.5645,9.5337,0.6328,9.436,0.7207C9.3833,0.7402,9.3306,0.7559,9.2778,0.7715
	C9.2446,0.7676,9.2095,0.7656,9.1763,0.7656c-0.1016,0-0.2012,0.0176-0.293,0.0508c-0.127,0.0469-0.2383,0.123-0.3281,0.2207
	c-0.0527,0.0215-0.1016,0.041-0.1523,0.0625c-0.0156-0.002-0.0312-0.002-0.0449-0.002c-0.123,0-0.2422,0.0254-0.3496,0.0742
	C7.8872,1.2266,7.7837,1.3086,7.6997,1.4121C7.6509,1.4355,7.6021,1.4609,7.5513,1.4863c-0.1367,0.002-0.2734,0.0371-0.3906,0.0996
	C7.0415,1.6504,6.9399,1.7422,6.8638,1.8516C6.8169,1.8789,6.772,1.9062,6.7271,1.9336c-0.1387,0.0098-0.2695,0.0527-0.3848,0.125
	c-0.1172,0.0742-0.207,0.1738-0.2754,0.2871C6.0239,2.375,5.979,2.4062,5.9341,2.4375C5.7993,2.457,5.6724,2.5059,5.561,2.5879
	C5.4517,2.668,5.3638,2.7754,5.3013,2.8984C5.2622,2.9297,5.2212,2.9609,5.1821,2.9922C5.0474,3.0215,4.9224,3.0801,4.8208,3.168
	C4.7134,3.2578,4.6333,3.3711,4.5806,3.5C4.5454,3.5312,4.5083,3.5625,4.4731,3.5957C4.3384,3.6348,4.2173,3.7031,4.1177,3.8008
	C4.0161,3.8965,3.9458,4.0176,3.9028,4.1504C3.8696,4.1836,3.8345,4.2188,3.8032,4.252c-0.1309,0.0488-0.25,0.125-0.3398,0.2266
	C3.3696,4.584,3.3052,4.709,3.272,4.8438C3.2427,4.8789,3.2134,4.916,3.1821,4.9492c-0.127,0.0586-0.2383,0.1426-0.3242,0.2539
	C2.77,5.3164,2.7192,5.4434,2.6938,5.5762C2.6665,5.6152,2.6372,5.6562,2.6079,5.6953c-0.123,0.0664-0.2285,0.1562-0.3047,0.2715
	c-0.0781,0.1172-0.123,0.25-0.1406,0.3867c-0.0234,0.041-0.0488,0.082-0.0742,0.125C1.9712,6.5508,1.8716,6.6484,1.8032,6.7676
	c-0.0703,0.125-0.1055,0.2578-0.1113,0.3926c-0.0215,0.043-0.0449,0.0859-0.0664,0.127c-0.1133,0.082-0.2031,0.1895-0.2637,0.3164
	C1.2993,7.7285,1.2739,7.8652,1.2759,8C1.2563,8.0449,1.2388,8.0898,1.2173,8.1367C1.1138,8.2246,1.0298,8.334,0.9771,8.4648
	S0.9067,8.7324,0.9204,8.8711C0.9028,8.916,0.8872,8.9629,0.8696,9.0098c-0.0957,0.0957-0.1738,0.209-0.2148,0.3438
	C0.6118,9.4883,0.604,9.627,0.6274,9.7637c-0.0137,0.0469-0.0273,0.0918-0.041,0.1406c-0.0898,0.0996-0.1582,0.2207-0.1914,0.3574
	c-0.0352,0.1367-0.0312,0.2773,0,0.4121c-0.0078,0.0469-0.0195,0.0918-0.0273,0.1367c-0.0859,0.1094-0.1445,0.2344-0.168,0.375
	c-0.0254,0.1387-0.0137,0.2812,0.0293,0.4141c-0.0059,0.0449-0.0117,0.0898-0.0176,0.1309
	c-0.0781,0.1152-0.1309,0.248-0.1445,0.3926c-0.0156,0.1387,0.0078,0.2793,0.0605,0.4102c-0.002,0.043-0.0059,0.0859-0.0078,0.1289
	c-0.0703,0.1191-0.1133,0.2559-0.1191,0.4043c-0.0059,0.1445,0.0293,0.2832,0.0918,0.4062c0,0.0215-0.002,0.043-0.002,0.0645
	s0.002,0.043,0.002,0.0645c-0.0645,0.1289-0.0977,0.2676-0.0918,0.4102c0.0059,0.1445,0.0488,0.2793,0.1191,0.4004
	c0.002,0.041,0.0059,0.0859,0.0078,0.1289c-0.0527,0.1309-0.0762,0.2695-0.0605,0.4121s0.0664,0.2754,0.1445,0.3906
	c0.0059,0.043,0.0117,0.0879,0.0176,0.1309c-0.043,0.1328-0.0547,0.2754-0.0293,0.4141c0.0234,0.1387,0.084,0.2656,0.168,0.373
	c0.0078,0.0449,0.0195,0.0918,0.0273,0.1387c-0.0312,0.1348-0.0352,0.2773,0,0.4102c0.0332,0.1387,0.1035,0.2578,0.1914,0.3594
	c0.0137,0.0469,0.0273,0.0938,0.041,0.1406c-0.0234,0.1367-0.0176,0.2773,0.0254,0.4082c0.0449,0.1328,0.1211,0.25,0.2168,0.3457
	c0.0176,0.0449,0.0332,0.0918,0.0527,0.1387c-0.0156,0.1387,0,0.2754,0.0547,0.4062c0.0527,0.1289,0.1367,0.2402,0.2402,0.3281
	c0.0215,0.0449,0.0391,0.0898,0.0586,0.1348c-0.0039,0.1387,0.0234,0.2754,0.0859,0.3984c0.0605,0.1289,0.1543,0.2344,0.2656,0.3164
	c0.0195,0.041,0.043,0.084,0.0645,0.127c0.0059,0.1367,0.041,0.2715,0.1113,0.3906c0.0703,0.123,0.1699,0.2227,0.2852,0.2969
	c0.0254,0.0391,0.0508,0.0781,0.0742,0.1172c0.0156,0.1406,0.0605,0.2734,0.1406,0.3887c0.0781,0.1152,0.1836,0.2051,0.3047,0.2715
	c0.0293,0.0391,0.0547,0.0762,0.084,0.1152c0.0254,0.1367,0.0801,0.2676,0.166,0.375c0.0859,0.1133,0.1992,0.1973,0.3262,0.2559
	c0.0293,0.0352,0.0586,0.0703,0.0879,0.1035c0.0352,0.1367,0.0977,0.2617,0.1914,0.3652s0.2109,0.1797,0.3398,0.2285
	c0.0312,0.0332,0.0664,0.0684,0.0996,0.1016c0.043,0.1328,0.1152,0.2539,0.2168,0.3516c0.0996,0.0957,0.2227,0.1641,0.3535,0.2031
	c0.0352,0.0312,0.0723,0.0625,0.1074,0.0957c0.0527,0.1289,0.1328,0.2422,0.2402,0.332c0.1035,0.0879,0.2285,0.1465,0.3613,0.1758
	c0.0391,0.0312,0.0801,0.0605,0.1191,0.0938c0.0625,0.123,0.1504,0.2324,0.2617,0.3125s0.2383,0.1289,0.373,0.1504
	c0.043,0.0273,0.084,0.0566,0.1289,0.0859c0.0684,0.1191,0.1641,0.2207,0.2773,0.291c0.1172,0.0723,0.25,0.1133,0.3867,0.125
	c0.0449,0.0273,0.0898,0.0547,0.1348,0.0801c0.0762,0.1133,0.1777,0.2051,0.2969,0.2676c0.1211,0.0645,0.2559,0.0977,0.3926,0.1016
	c0.0469,0.0215,0.0938,0.0469,0.1406,0.0684c0.0859,0.1055,0.1914,0.1895,0.3145,0.2441c0.1113,0.0488,0.2285,0.0762,0.3496,0.0762
	c0.0156,0,0.0312-0.0039,0.0469-0.0039c0.0488,0.0215,0.0996,0.041,0.1484,0.0625c0.0918,0.0977,0.2031,0.1738,0.3301,0.2188
	c0.0938,0.0352,0.1914,0.0527,0.293,0.0527c0.0352,0,0.0703-0.002,0.1035-0.0059c0.0527,0.0156,0.1035,0.0332,0.1562,0.0488
	c0.0977,0.0918,0.2148,0.1602,0.3438,0.1973c0.0762,0.0215,0.1562,0.0332,0.2363,0.0332c0.0547,0,0.1074-0.0078,0.1582-0.0176
	c0.0547,0.0137,0.1094,0.0273,0.1621,0.041c0.1055,0.084,0.2266,0.1445,0.3594,0.1719c0.0586,0.0117,0.1172,0.0195,0.1777,0.0195
	c0.0762,0,0.1523-0.0117,0.2227-0.0312c0.0527,0.0098,0.1055,0.0195,0.1582,0.0273c0.1113,0.0781,0.2363,0.1309,0.3691,0.1484
	c0.041,0.0059,0.082,0.0078,0.1211,0.0078c0.0957,0,0.1895-0.0176,0.2773-0.0488c0.0527,0.0059,0.1055,0.0117,0.1582,0.0156
	c0.1172,0.0723,0.2461,0.1152,0.3828,0.123c0.0195,0.002,0.0391,0.0039,0.0586,0.0039c0.1172,0,0.2285-0.0293,0.332-0.0742
	c0.0547,0.0039,0.1094,0.0059,0.1621,0.0078c0.1172,0.0605,0.248,0.0957,0.3867,0.0957h0.002c0.1406,0,0.2715-0.0352,0.3887-0.0957
	c0.0547-0.002,0.1094-0.0039,0.1621-0.0078c0.1035,0.0449,0.2148,0.0723,0.3301,0.0723c0.0234,0,0.0449,0,0.0605-0.002
	c0.1367-0.0078,0.2656-0.0527,0.3809-0.123c0.0547-0.0039,0.1074-0.0098,0.1621-0.0156c0.0859,0.0312,0.1797,0.0488,0.2773,0.0488
	c0.0391,0,0.082-0.0039,0.1191-0.0078c0.1348-0.0195,0.2598-0.0723,0.3691-0.1484c0.0527-0.0078,0.1055-0.0176,0.1582-0.0273
	c0.0723,0.0195,0.1465,0.0312,0.2227,0.0312c0.0605,0,0.1211-0.0078,0.1797-0.0195c0.1348-0.0293,0.2539-0.0898,0.3555-0.1719
	c0.0547-0.0137,0.1094-0.0273,0.1641-0.041c0.0508,0.0098,0.1055,0.0176,0.1582,0.0176c0.082,0,0.1621-0.0117,0.2383-0.0332
	c0.1309-0.0391,0.2441-0.1074,0.3418-0.1973c0.0527-0.0156,0.1035-0.0332,0.1562-0.0508c0.0352,0.0059,0.0703,0.0078,0.1035,0.0078
	c0.1016,0,0.2012-0.0176,0.293-0.0527c0.1309-0.0469,0.2402-0.125,0.3301-0.2188c0.0488-0.0215,0.0996-0.041,0.1484-0.0625
	c0.0176,0,0.0332,0.002,0.0469,0.002c0.123,0,0.2422-0.0254,0.3496-0.0742c0.125-0.0566,0.2305-0.1406,0.3125-0.2422
	c0.0488-0.0234,0.0957-0.0488,0.1426-0.0723c0.1387-0.002,0.2734-0.0371,0.3926-0.0996c0.123-0.0645,0.2188-0.1582,0.2949-0.2656
	c0.0449-0.0273,0.0918-0.0527,0.1387-0.082c0.1367-0.0117,0.2695-0.0527,0.3828-0.125c0.1152-0.0723,0.2109-0.1738,0.2793-0.291
	c0.043-0.0293,0.0859-0.0586,0.1309-0.0859c0.1348-0.0215,0.2617-0.0703,0.373-0.1523c0.1094-0.0801,0.1973-0.1875,0.2578-0.3105
	c0.041-0.0332,0.082-0.0625,0.1211-0.0938c0.1348-0.0293,0.2598-0.0898,0.3633-0.1758c0.1074-0.0918,0.1855-0.2051,0.2344-0.3301
	c0.0371-0.0312,0.0742-0.0645,0.1113-0.0977c0.1328-0.0391,0.2559-0.1074,0.3555-0.2051c0.0996-0.0957,0.1719-0.2188,0.2148-0.3496
	c0.0332-0.0332,0.0664-0.0684,0.0996-0.1016c0.1309-0.0488,0.248-0.125,0.3398-0.2285c0.0938-0.1035,0.1562-0.2305,0.1914-0.3652
	c0.0293-0.0332,0.0605-0.0684,0.0898-0.1055c0.127-0.0566,0.2383-0.1406,0.3242-0.2539c0.0879-0.1094,0.1406-0.2383,0.166-0.375
	c0.0273-0.0391,0.0566-0.0762,0.084-0.1152c0.123-0.0664,0.2285-0.1562,0.3066-0.2734c0.0762-0.1152,0.123-0.248,0.1367-0.3867
	c0.0273-0.0391,0.0508-0.0801,0.0781-0.1211c0.1152-0.0742,0.2148-0.1719,0.2832-0.293c0.0703-0.1211,0.1055-0.2559,0.1113-0.3906
	c0.0215-0.043,0.0449-0.0859,0.0664-0.127c0.1113-0.082,0.2031-0.1875,0.2656-0.3184c0.0605-0.123,0.0859-0.2578,0.084-0.3965
	c0.0195-0.0449,0.0391-0.0898,0.0586-0.1348c0.1055-0.0898,0.1895-0.2012,0.2402-0.332c0.0527-0.127,0.0703-0.2656,0.0547-0.4023
	c0.0195-0.0469,0.0352-0.0938,0.0527-0.1406c0.0977-0.0957,0.1738-0.2109,0.2168-0.3438c0.043-0.1367,0.0488-0.2754,0.0254-0.4082
	c0.0156-0.0469,0.0273-0.0938,0.041-0.1406c0.0898-0.1035,0.1582-0.2227,0.1934-0.3594c0.0332-0.1406,0.0293-0.2793-0.002-0.4121
	c0.0078-0.0469,0.0195-0.0918,0.0273-0.1367c0.0859-0.1074,0.1465-0.2344,0.1699-0.375c0.0234-0.1387,0.0117-0.2793-0.0332-0.4141
	c0.0078-0.041,0.0137-0.0859,0.0195-0.1289c0.0781-0.1152,0.1309-0.248,0.1465-0.3945c0.0137-0.1406-0.0117-0.2793-0.0625-0.4082
	c0.0039-0.043,0.0059-0.0879,0.0078-0.1289C26.9595,14.291,27.0024,14.1562,27.0083,14.0078"/>
<path display="none" fill="#FFFFFF" d="M22.356,8.0469c-0.6523,0.2891-1.3496,0.4844-2.0859,0.5723
	c0.75-0.4512,1.3262-1.1621,1.5977-2.0098c-0.7031,0.416-1.4805,0.7188-2.3066,0.8809c-0.6621-0.7051-1.6055-1.1465-2.6504-1.1465
	c-2.0078,0-3.6328,1.627-3.6328,3.6328c0,0.2832,0.0312,0.5605,0.0957,0.8262c-3.0215-0.1504-5.6973-1.5977-7.4883-3.7949
	C5.5728,7.5449,5.395,8.168,5.395,8.834c0,1.2598,0.6406,2.373,1.6152,3.0234c-0.5957-0.0195-1.1562-0.1816-1.6465-0.4531
	c0,0.0137,0,0.0293,0,0.0449c0,1.7598,1.2539,3.2266,2.9141,3.5605c-0.3047,0.082-0.625,0.127-0.957,0.127
	c-0.2344,0-0.4609-0.0234-0.6836-0.0645c0.4629,1.4434,1.8047,2.4922,3.3926,2.5215c-1.2422,0.9746-2.8086,1.5547-4.5098,1.5547
	c-0.293,0-0.582-0.0156-0.8672-0.0508c1.6074,1.0312,3.5176,1.6328,5.5684,1.6328c6.6797,0,10.334-5.5352,10.334-10.334
	c0-0.1582-0.0039-0.3145-0.0117-0.4688C21.2544,9.4141,21.8696,8.7754,22.356,8.0469z"/>
<path display="none" fill="#FBC9B5" d="M27.0952,14.0078c0.0059-0.1406-0.0273-0.2793-0.0898-0.4082
	c0-0.0195,0.002-0.041,0.002-0.0625s-0.002-0.043-0.002-0.0645c0.0625-0.127,0.0957-0.2656,0.0898-0.4082
	c-0.0039-0.1465-0.0488-0.2812-0.1172-0.4023c-0.0039-0.041-0.0039-0.0859-0.0078-0.1289c0.0527-0.1309,0.0762-0.2715,0.0605-0.4141
	c-0.0156-0.1406-0.0684-0.2715-0.1445-0.3848c-0.0059-0.0449-0.0117-0.0898-0.0195-0.1348
	c0.0449-0.1328,0.0566-0.2754,0.0332-0.4141c-0.0254-0.1387-0.0859-0.2656-0.1699-0.373c-0.0098-0.0469-0.0195-0.0918-0.0293-0.1387
	c0.0332-0.1348,0.0371-0.2754,0.002-0.4121c-0.0332-0.1367-0.1016-0.2578-0.1914-0.3574c-0.0137-0.0488-0.0273-0.0938-0.041-0.1426
	c0.0234-0.1348,0.0156-0.2754-0.0273-0.4082c-0.043-0.1348-0.1191-0.248-0.2168-0.3438c-0.0176-0.0449-0.0332-0.0938-0.0508-0.1387
	c0.0137-0.1387-0.0039-0.2754-0.0547-0.4062c-0.0527-0.1309-0.1367-0.2402-0.2422-0.3281C25.8608,8.0898,25.8413,8.0449,25.8198,8
	c0.0039-0.1367-0.0234-0.2734-0.084-0.4004c-0.0625-0.127-0.1543-0.2324-0.2637-0.3125c-0.0234-0.043-0.0449-0.0859-0.0684-0.127
	c-0.0059-0.1367-0.041-0.2715-0.1094-0.3926c-0.0723-0.123-0.1719-0.2207-0.2871-0.293c-0.0254-0.041-0.0508-0.082-0.0742-0.1211
	c-0.0156-0.1387-0.0625-0.2715-0.1406-0.3867c-0.0762-0.1152-0.1836-0.207-0.3027-0.2715
	c-0.0273-0.0391-0.0566-0.0762-0.0859-0.1172c-0.0234-0.1367-0.0781-0.2656-0.166-0.377c-0.0859-0.1094-0.1973-0.1953-0.3242-0.252
	c-0.0293-0.0352-0.0605-0.0703-0.0898-0.1074c-0.0332-0.1348-0.0977-0.2598-0.1914-0.3633
	c-0.0918-0.1035-0.209-0.1777-0.3379-0.2266c-0.0332-0.0352-0.0684-0.0684-0.0996-0.1035c-0.0449-0.1328-0.1152-0.252-0.2188-0.3516
	c-0.0996-0.0957-0.2207-0.1621-0.3535-0.2031C22.5874,3.5625,22.5522,3.5312,22.5151,3.5c-0.0527-0.1289-0.1309-0.2441-0.2383-0.334
	c-0.1055-0.0879-0.2285-0.1445-0.3633-0.1738c-0.0391-0.0312-0.0781-0.0645-0.1191-0.0938
	c-0.0605-0.123-0.1484-0.2324-0.2617-0.3145c-0.1094-0.0801-0.2363-0.127-0.3711-0.1484c-0.0449-0.0312-0.0898-0.0605-0.1328-0.0898
	c-0.0684-0.1133-0.1582-0.2148-0.2773-0.2891c-0.1152-0.0723-0.248-0.1133-0.3828-0.125c-0.0449-0.0273-0.0898-0.0547-0.1367-0.0801
	c-0.0762-0.1094-0.1777-0.2031-0.2969-0.2676c-0.1191-0.0625-0.2539-0.0957-0.3906-0.0977
	c-0.0469-0.0234-0.0957-0.0488-0.1445-0.0723c-0.084-0.1035-0.1895-0.1875-0.3125-0.2441
	c-0.1094-0.0488-0.2285-0.0742-0.3477-0.0742c-0.0156,0-0.0312,0.002-0.0469,0.0039c-0.0508-0.0215-0.0996-0.043-0.1523-0.0645
	c-0.0918-0.0957-0.2012-0.1719-0.3281-0.2188c-0.0938-0.0332-0.1914-0.0508-0.291-0.0508c-0.0352,0-0.0684,0.002-0.1035,0.0059
	c-0.0527-0.0156-0.1055-0.0332-0.1582-0.0508c-0.0977-0.0898-0.2168-0.1582-0.3438-0.1973
	c-0.0762-0.0215-0.1562-0.0312-0.2363-0.0312c-0.0527,0-0.1074,0.0059-0.1582,0.0176c-0.0547-0.0156-0.1074-0.0273-0.1641-0.041
	c-0.1035-0.084-0.2246-0.1445-0.3574-0.1719c-0.0566-0.0137-0.1172-0.0195-0.1758-0.0195c-0.0781,0-0.1504,0.0117-0.2227,0.0312
	c-0.0527-0.0117-0.1074-0.0195-0.1621-0.0273c-0.1094-0.0781-0.2324-0.1309-0.3672-0.1484c-0.1367-0.0195-0.2715-0.002-0.3965,0.041
	c-0.0547-0.0078-0.1074-0.0117-0.1621-0.0176c-0.1133-0.0684-0.2422-0.1133-0.3809-0.123
	c-0.1367-0.0098-0.2695,0.0195-0.3906,0.0703c-0.0527-0.002-0.1074-0.0039-0.1621-0.0059C13.8628,0.0371,13.73,0,13.5913,0
	c-0.1406,0-0.2715,0.0371-0.3887,0.0977c-0.0547,0.002-0.1074,0.0039-0.1621,0.0059c-0.1035-0.0449-0.2148-0.0723-0.3301-0.0723
	c-0.0215,0-0.043,0-0.0605,0.0039c-0.1348,0.0078-0.2656,0.0527-0.3809,0.1211c-0.0527,0.0059-0.1074,0.0098-0.1602,0.0176
	C12.019,0.1426,11.9272,0.125,11.8315,0.125c-0.041,0-0.082,0.002-0.1211,0.0078c-0.1348,0.0176-0.2598,0.0703-0.3691,0.1484
	c-0.0527,0.0078-0.1055,0.0176-0.1582,0.0273c-0.0703-0.0195-0.1445-0.0312-0.2227-0.0312c-0.0605,0-0.123,0.0078-0.1777,0.0195
	c-0.1328,0.0273-0.252,0.0879-0.3574,0.1719c-0.0527,0.0137-0.1094,0.0273-0.1641,0.041c-0.0508-0.0117-0.1035-0.0176-0.1582-0.0176
	c-0.0801,0-0.1602,0.0098-0.2363,0.0352C9.7339,0.5645,9.6206,0.6328,9.5249,0.7207C9.4722,0.7402,9.4194,0.7559,9.3647,0.7715
	C9.3335,0.7676,9.2983,0.7656,9.2632,0.7656c-0.1016,0-0.2012,0.0176-0.293,0.0508c-0.125,0.0469-0.2363,0.123-0.3281,0.2207
	c-0.0508,0.0215-0.1016,0.041-0.1523,0.0625c-0.0137-0.002-0.0293-0.002-0.0449-0.002c-0.123,0-0.2402,0.0254-0.3477,0.0742
	c-0.123,0.0547-0.2246,0.1367-0.3086,0.2402C7.7397,1.4355,7.689,1.4609,7.6401,1.4863c-0.1387,0.002-0.2754,0.0371-0.3926,0.0996
	C7.1284,1.6504,7.0288,1.7422,6.9526,1.8516C6.9058,1.8789,6.8608,1.9062,6.814,1.9336c-0.1367,0.0098-0.2676,0.0527-0.3828,0.125
	C6.314,2.1328,6.2241,2.2324,6.1558,2.3457C6.1108,2.375,6.0659,2.4062,6.0229,2.4375C5.8862,2.457,5.7593,2.5059,5.6499,2.5879
	C5.5386,2.668,5.4507,2.7754,5.3901,2.8984C5.3491,2.9297,5.3101,2.9609,5.271,2.9922C5.1362,3.0215,5.0093,3.0801,4.9077,3.168
	C4.8003,3.2578,4.7202,3.3711,4.6694,3.5C4.6343,3.5312,4.5972,3.5625,4.562,3.5957C4.4272,3.6348,4.3062,3.7031,4.2065,3.8008
	C4.105,3.8965,4.0347,4.0176,3.9917,4.1504C3.9585,4.1836,3.9233,4.2188,3.8901,4.252c-0.1309,0.0488-0.248,0.125-0.3379,0.2266
	C3.4565,4.584,3.394,4.709,3.3608,4.8438C3.3296,4.8789,3.3003,4.916,3.271,4.9492C3.144,5.0078,3.0308,5.0918,2.9448,5.2031
	c-0.0859,0.1133-0.1387,0.2402-0.1621,0.373C2.7534,5.6152,2.7241,5.6562,2.6948,5.6953C2.5737,5.7617,2.4683,5.8516,2.3921,5.9668
	C2.314,6.084,2.269,6.2168,2.2515,6.3535c-0.0234,0.041-0.0508,0.082-0.0762,0.125C2.0581,6.5508,1.9585,6.6484,1.8921,6.7676
	c-0.0723,0.125-0.1055,0.2578-0.1133,0.3926c-0.0215,0.043-0.043,0.0859-0.0664,0.127c-0.1113,0.082-0.2031,0.1895-0.2637,0.3164
	C1.3882,7.7285,1.3608,7.8652,1.3647,8C1.3452,8.0449,1.3257,8.0898,1.3062,8.1367C1.2026,8.2246,1.1167,8.334,1.064,8.4648
	C1.0132,8.5957,0.9956,8.7324,1.0093,8.8711C0.9917,8.916,0.9761,8.9629,0.9585,9.0098c-0.0957,0.0957-0.1738,0.209-0.2148,0.3438
	C0.6987,9.4883,0.6909,9.627,0.7144,9.7637C0.7026,9.8105,0.687,9.8555,0.6733,9.9043c-0.0898,0.0996-0.1582,0.2207-0.1914,0.3574
	s-0.0293,0.2773,0.002,0.4121c-0.0098,0.0469-0.0195,0.0918-0.0293,0.1367c-0.084,0.1094-0.1445,0.2344-0.168,0.375
	c-0.0254,0.1387-0.0137,0.2812,0.0312,0.4141c-0.0078,0.0449-0.0117,0.0898-0.0176,0.1309
	c-0.0781,0.1152-0.1309,0.248-0.1465,0.3926c-0.0137,0.1387,0.0098,0.2793,0.0625,0.4102c-0.0039,0.043-0.0059,0.0859-0.0078,0.1289
	c-0.0703,0.1191-0.1152,0.2559-0.1191,0.4043c-0.0059,0.1445,0.0293,0.2832,0.0898,0.4062c0,0.0215,0,0.043,0,0.0645
	s0,0.043,0,0.0645c-0.0625,0.1289-0.0957,0.2676-0.0898,0.4102c0.0039,0.1445,0.0488,0.2793,0.1191,0.4004
	c0.002,0.041,0.0039,0.0859,0.0078,0.1289c-0.0527,0.1309-0.0781,0.2695-0.0625,0.4121c0.0176,0.1426,0.0684,0.2754,0.1465,0.3906
	c0.0059,0.043,0.0117,0.0879,0.0176,0.1309c-0.0449,0.1328-0.0566,0.2754-0.0312,0.4141c0.0234,0.1387,0.084,0.2656,0.168,0.373
	c0.0098,0.0449,0.0195,0.0918,0.0293,0.1387c-0.0332,0.1348-0.0352,0.2773-0.002,0.4102c0.0332,0.1387,0.1035,0.2578,0.1914,0.3594
	c0.0137,0.0469,0.0293,0.0938,0.041,0.1406c-0.0234,0.1367-0.0156,0.2773,0.0273,0.4082c0.043,0.1328,0.1211,0.25,0.2168,0.3457
	c0.0176,0.0449,0.0332,0.0918,0.0508,0.1387c-0.0137,0.1387,0.002,0.2754,0.0547,0.4062c0.0527,0.1289,0.1387,0.2402,0.2422,0.3281
	c0.0195,0.0449,0.0391,0.0898,0.0586,0.1348c-0.0039,0.1387,0.0234,0.2754,0.084,0.3984c0.0625,0.1289,0.1543,0.2344,0.2656,0.3164
	c0.0215,0.041,0.043,0.084,0.0645,0.127c0.0078,0.1367,0.043,0.2715,0.1133,0.3906c0.0703,0.123,0.168,0.2227,0.2852,0.2969
	c0.0254,0.0391,0.0508,0.0781,0.0742,0.1172c0.0156,0.1406,0.0605,0.2734,0.1406,0.3887c0.0781,0.1152,0.1836,0.2051,0.3047,0.2715
	c0.0273,0.0391,0.0547,0.0762,0.084,0.1152c0.0234,0.1367,0.0781,0.2676,0.1641,0.375c0.0859,0.1133,0.1992,0.1973,0.3262,0.2559
	c0.0293,0.0352,0.0605,0.0703,0.0898,0.1035c0.0332,0.1367,0.0977,0.2617,0.1895,0.3652c0.0938,0.1035,0.2109,0.1797,0.3418,0.2285
	c0.0312,0.0332,0.0664,0.0684,0.0996,0.1016c0.043,0.1328,0.1133,0.2539,0.2168,0.3516c0.0996,0.0957,0.2207,0.1641,0.3535,0.2031
	c0.0352,0.0312,0.0723,0.0625,0.1074,0.0957c0.0508,0.1289,0.1309,0.2422,0.2383,0.332c0.1035,0.0879,0.2305,0.1465,0.3633,0.1758
	c0.0391,0.0312,0.0781,0.0605,0.1191,0.0938c0.0605,0.123,0.1484,0.2324,0.2617,0.3125c0.1094,0.0801,0.2363,0.1289,0.373,0.1504
	c0.041,0.0273,0.084,0.0566,0.127,0.0859c0.0703,0.1191,0.1641,0.2207,0.2793,0.291c0.1172,0.0723,0.248,0.1133,0.3867,0.125
	c0.0449,0.0273,0.0898,0.0547,0.1348,0.0801c0.0762,0.1133,0.1758,0.2051,0.2949,0.2676c0.1211,0.0645,0.2578,0.0977,0.3945,0.1016
	c0.0469,0.0215,0.0918,0.0469,0.1406,0.0684c0.0859,0.1055,0.1914,0.1895,0.3145,0.2441c0.1113,0.0488,0.2285,0.0762,0.3477,0.0762
	c0.0176,0,0.0332-0.0039,0.0488-0.0039c0.0488,0.0215,0.0996,0.041,0.1484,0.0625c0.0918,0.0977,0.2031,0.1738,0.3301,0.2188
	c0.0938,0.0352,0.1914,0.0527,0.293,0.0527c0.0352,0,0.0684-0.002,0.1035-0.0059c0.0508,0.0156,0.1035,0.0332,0.1562,0.0488
	c0.0977,0.0918,0.2129,0.1602,0.3438,0.1973c0.0762,0.0215,0.1562,0.0332,0.2363,0.0332c0.0547,0,0.1074-0.0078,0.1582-0.0176
	c0.0527,0.0137,0.1094,0.0273,0.1621,0.041c0.1055,0.084,0.2266,0.1445,0.3594,0.1719c0.0566,0.0117,0.1172,0.0195,0.1758,0.0195
	c0.0781,0,0.1523-0.0117,0.2246-0.0312c0.0527,0.0098,0.1035,0.0195,0.1562,0.0273c0.1113,0.0781,0.2363,0.1309,0.3711,0.1484
	c0.041,0.0059,0.0801,0.0078,0.1191,0.0078c0.0977,0,0.1895-0.0176,0.2793-0.0488c0.0527,0.0059,0.1055,0.0117,0.1582,0.0156
	c0.1152,0.0723,0.2461,0.1152,0.3828,0.123c0.0176,0.002,0.0391,0.0039,0.0586,0.0039c0.1172,0,0.2285-0.0293,0.332-0.0742
	c0.0527,0.0039,0.1074,0.0059,0.1602,0.0078c0.1172,0.0605,0.248,0.0957,0.3887,0.0957h0.002c0.1406,0,0.2715-0.0352,0.3887-0.0957
	c0.0547-0.002,0.1074-0.0039,0.1602-0.0078c0.1035,0.0449,0.2148,0.0723,0.332,0.0723c0.0215,0,0.0449,0,0.0605-0.002
	c0.1348-0.0078,0.2656-0.0527,0.3809-0.123c0.0527-0.0039,0.1074-0.0098,0.1602-0.0156c0.0879,0.0312,0.1797,0.0488,0.2773,0.0488
	c0.041,0,0.082-0.0039,0.1191-0.0078c0.1348-0.0195,0.2617-0.0723,0.3711-0.1484c0.0527-0.0078,0.1055-0.0176,0.1562-0.0273
	c0.0742,0.0195,0.1465,0.0312,0.2246,0.0312c0.0605,0,0.1211-0.0078,0.1797-0.0195c0.1348-0.0293,0.2539-0.0898,0.3555-0.1719
	c0.0547-0.0137,0.1074-0.0273,0.1621-0.041c0.0508,0.0098,0.1055,0.0176,0.1602,0.0176c0.0801,0,0.1621-0.0117,0.2363-0.0332
	c0.1328-0.0391,0.2461-0.1074,0.3418-0.1973c0.0547-0.0156,0.1055-0.0332,0.1582-0.0508c0.0352,0.0059,0.0684,0.0078,0.1035,0.0078
	c0.0996,0,0.2012-0.0176,0.293-0.0527c0.1289-0.0469,0.2402-0.125,0.3301-0.2188c0.0488-0.0215,0.0977-0.041,0.1484-0.0625
	c0.0156,0,0.0312,0.002,0.0469,0.002c0.123,0,0.2422-0.0254,0.3496-0.0742c0.125-0.0566,0.2305-0.1406,0.3125-0.2422
	c0.0469-0.0234,0.0957-0.0488,0.1426-0.0723c0.1367-0.002,0.2734-0.0371,0.3906-0.0996c0.123-0.0645,0.2207-0.1582,0.2949-0.2656
	c0.0469-0.0273,0.0938-0.0527,0.1387-0.082c0.1387-0.0117,0.2695-0.0527,0.3828-0.125c0.1172-0.0723,0.2109-0.1738,0.2812-0.291
	c0.043-0.0293,0.0859-0.0586,0.1289-0.0859c0.1348-0.0215,0.2637-0.0703,0.373-0.1523c0.1113-0.0801,0.1992-0.1875,0.2598-0.3105
	c0.041-0.0332,0.0801-0.0625,0.1191-0.0938c0.1348-0.0293,0.2617-0.0898,0.3652-0.1758c0.1074-0.0918,0.1836-0.2051,0.2344-0.3301
	c0.0371-0.0312,0.0742-0.0645,0.1094-0.0977c0.1348-0.0391,0.2559-0.1074,0.3555-0.2051c0.1016-0.0957,0.1719-0.2188,0.2168-0.3496
	c0.0312-0.0332,0.0664-0.0684,0.0996-0.1016c0.1289-0.0488,0.248-0.125,0.3398-0.2285s0.1562-0.2305,0.1895-0.3652
	c0.0293-0.0332,0.0625-0.0684,0.0898-0.1055c0.127-0.0566,0.2402-0.1406,0.3262-0.2539c0.0879-0.1094,0.1406-0.2383,0.1641-0.375
	c0.0293-0.0391,0.0586-0.0762,0.0859-0.1152c0.1211-0.0664,0.2266-0.1562,0.3047-0.2734c0.0762-0.1152,0.123-0.248,0.1387-0.3867
	c0.0254-0.0391,0.0508-0.0801,0.0762-0.1211c0.1152-0.0742,0.2168-0.1719,0.2852-0.293s0.1035-0.2559,0.1094-0.3906
	c0.0234-0.043,0.0449-0.0859,0.0684-0.127c0.1113-0.082,0.2031-0.1875,0.2656-0.3184c0.0586-0.123,0.0859-0.2578,0.082-0.3965
	c0.0215-0.0449,0.041-0.0898,0.0586-0.1348c0.1055-0.0898,0.1914-0.2012,0.2422-0.332c0.0508-0.127,0.0684-0.2656,0.0547-0.4023
	c0.0176-0.0469,0.0332-0.0938,0.0508-0.1406c0.0977-0.0957,0.1738-0.2109,0.2188-0.3438c0.041-0.1367,0.0469-0.2754,0.0254-0.4082
	c0.0137-0.0469,0.0273-0.0938,0.041-0.1406c0.0898-0.1035,0.1582-0.2227,0.1914-0.3594c0.0352-0.1406,0.0293-0.2793-0.002-0.4121
	c0.0098-0.0469,0.0195-0.0918,0.0293-0.1367c0.084-0.1074,0.1445-0.2344,0.1699-0.375c0.0234-0.1387,0.0117-0.2793-0.0332-0.4141
	c0.0078-0.041,0.0117-0.0859,0.0176-0.1289c0.0801-0.1152,0.1309-0.248,0.1465-0.3945c0.0137-0.1406-0.0098-0.2793-0.0605-0.4082
	c0.0039-0.043,0.0039-0.0879,0.0078-0.1289C27.0464,14.291,27.0913,14.1562,27.0952,14.0078"/>
<path display="none" fill="#FFFFFF" d="M15.1831,13.7051c0-0.834-0.6797-1.5117-1.5117-1.5117c-0.834,0-1.5117,0.6777-1.5117,1.5117
	s0.6777,1.5117,1.5117,1.5117C14.5034,15.2168,15.1831,14.5391,15.1831,13.7051z"/>
<path display="none" fill="#FFFFFF" d="M13.6714,10.0625c0.7852,0,1.5117,0.25,2.1074,0.6738h2.8594h2.625V9.668
	c0-2.1133-1.7207-3.834-3.834-3.834H9.7554c-2.1133,0-3.834,1.7207-3.834,3.834v1.0684h5.6406
	C12.1577,10.3125,12.8843,10.0625,13.6714,10.0625z M16.812,8.1641c0-0.2344,0.1934-0.4258,0.4277-0.4258h1.3164
	c0.2344,0,0.4258,0.1914,0.4258,0.4258v1.3164c0,0.2344-0.1914,0.4258-0.4258,0.4258h-1.3164c-0.2344,0-0.4277-0.1914-0.4277-0.4258
	V8.1641z"/>
<path display="none" fill="#FFFFFF" d="M17.312,13.7051c0,2.0078-1.6328,3.6406-3.6406,3.6406
	c-2.0098,0-3.6426-1.6328-3.6426-3.6406c0-0.5547,0.125-1.0781,0.3457-1.5488H5.9214v5.248c0,2.1152,1.7207,3.8359,3.834,3.8359
	h7.6738c2.1133,0,3.834-1.7207,3.834-3.8359v-5.248h-4.2949C17.189,12.627,17.312,13.1504,17.312,13.7051z"/>
<path fill="#A971AF" d="M27.0952,14.0078c0.0059-0.1406-0.0273-0.2793-0.0898-0.4082c0-0.0195,0.002-0.041,0.002-0.0625
	s-0.002-0.043-0.002-0.0645c0.0625-0.127,0.0957-0.2656,0.0898-0.4082c-0.0039-0.1465-0.0488-0.2812-0.1172-0.4023
	c-0.0039-0.041-0.0039-0.0859-0.0078-0.1289c0.0527-0.1309,0.0762-0.2715,0.0605-0.4141c-0.0156-0.1406-0.0684-0.2715-0.1445-0.3848
	c-0.0059-0.0449-0.0117-0.0898-0.0195-0.1348c0.0449-0.1328,0.0566-0.2754,0.0332-0.4141c-0.0254-0.1387-0.0859-0.2656-0.1699-0.373
	c-0.0098-0.0469-0.0195-0.0918-0.0293-0.1387c0.0332-0.1348,0.0371-0.2754,0.002-0.4121c-0.0332-0.1367-0.1016-0.2578-0.1914-0.3574
	c-0.0137-0.0488-0.0273-0.0938-0.041-0.1426c0.0234-0.1348,0.0156-0.2754-0.0273-0.4082c-0.043-0.1348-0.1191-0.248-0.2168-0.3438
	c-0.0176-0.0449-0.0332-0.0938-0.0508-0.1387c0.0137-0.1387-0.0039-0.2754-0.0547-0.4062
	c-0.0527-0.1309-0.1367-0.2402-0.2422-0.3281C25.8608,8.0898,25.8413,8.0449,25.8198,8c0.0039-0.1367-0.0234-0.2734-0.084-0.4004
	c-0.0625-0.127-0.1543-0.2324-0.2637-0.3125c-0.0234-0.043-0.0449-0.0859-0.0684-0.127c-0.0059-0.1367-0.041-0.2715-0.1094-0.3926
	c-0.0723-0.123-0.1719-0.2207-0.2871-0.293c-0.0254-0.041-0.0508-0.082-0.0742-0.1211c-0.0156-0.1387-0.0625-0.2715-0.1406-0.3867
	c-0.0762-0.1152-0.1836-0.207-0.3027-0.2715c-0.0273-0.0391-0.0566-0.0762-0.0859-0.1172c-0.0234-0.1367-0.0781-0.2656-0.166-0.377
	c-0.0859-0.1094-0.1973-0.1953-0.3242-0.252c-0.0293-0.0352-0.0605-0.0703-0.0898-0.1074
	c-0.0332-0.1348-0.0977-0.2598-0.1914-0.3633c-0.0918-0.1035-0.209-0.1777-0.3379-0.2266
	c-0.0332-0.0352-0.0684-0.0684-0.0996-0.1035c-0.0449-0.1328-0.1152-0.252-0.2188-0.3516
	c-0.0996-0.0957-0.2207-0.1621-0.3535-0.2031C22.5874,3.5625,22.5522,3.5312,22.5151,3.5c-0.0527-0.1289-0.1309-0.2441-0.2383-0.334
	c-0.1055-0.0879-0.2285-0.1445-0.3633-0.1738c-0.0391-0.0312-0.0781-0.0645-0.1191-0.0938
	c-0.0605-0.123-0.1484-0.2324-0.2617-0.3145c-0.1094-0.0801-0.2363-0.127-0.3711-0.1484c-0.0449-0.0312-0.0898-0.0605-0.1328-0.0898
	c-0.0684-0.1133-0.1582-0.2148-0.2773-0.2891c-0.1152-0.0723-0.248-0.1133-0.3828-0.125c-0.0449-0.0273-0.0898-0.0547-0.1367-0.0801
	c-0.0762-0.1094-0.1777-0.2031-0.2969-0.2676c-0.1191-0.0625-0.2539-0.0957-0.3906-0.0977
	c-0.0469-0.0234-0.0957-0.0488-0.1445-0.0723c-0.084-0.1035-0.1895-0.1875-0.3125-0.2441
	c-0.1094-0.0488-0.2285-0.0742-0.3477-0.0742c-0.0156,0-0.0312,0.002-0.0469,0.0039c-0.0508-0.0215-0.0996-0.043-0.1523-0.0645
	c-0.0918-0.0957-0.2012-0.1719-0.3281-0.2188c-0.0938-0.0332-0.1914-0.0508-0.291-0.0508c-0.0352,0-0.0684,0.002-0.1035,0.0059
	c-0.0527-0.0156-0.1055-0.0332-0.1582-0.0508c-0.0977-0.0898-0.2168-0.1582-0.3438-0.1973
	c-0.0762-0.0215-0.1562-0.0312-0.2363-0.0312c-0.0527,0-0.1074,0.0059-0.1582,0.0176c-0.0547-0.0156-0.1074-0.0273-0.1641-0.041
	c-0.1035-0.084-0.2246-0.1445-0.3574-0.1719c-0.0566-0.0137-0.1172-0.0195-0.1758-0.0195c-0.0781,0-0.1504,0.0117-0.2227,0.0312
	c-0.0527-0.0117-0.1074-0.0195-0.1621-0.0273c-0.1094-0.0781-0.2324-0.1309-0.3672-0.1484c-0.1367-0.0195-0.2715-0.002-0.3965,0.041
	c-0.0547-0.0078-0.1074-0.0117-0.1621-0.0176c-0.1133-0.0684-0.2422-0.1133-0.3809-0.123
	c-0.1367-0.0098-0.2695,0.0195-0.3906,0.0703c-0.0527-0.002-0.1074-0.0039-0.1621-0.0059C13.8628,0.0371,13.73,0,13.5913,0
	c-0.1406,0-0.2715,0.0371-0.3887,0.0977c-0.0547,0.002-0.1074,0.0039-0.1621,0.0059c-0.1035-0.0449-0.2148-0.0723-0.3301-0.0723
	c-0.0215,0-0.043,0-0.0605,0.0039c-0.1348,0.0078-0.2656,0.0527-0.3809,0.1211c-0.0527,0.0059-0.1074,0.0098-0.1602,0.0176
	C12.019,0.1426,11.9272,0.125,11.8315,0.125c-0.041,0-0.082,0.002-0.1211,0.0078c-0.1348,0.0176-0.2598,0.0703-0.3691,0.1484
	c-0.0527,0.0078-0.1055,0.0176-0.1582,0.0273c-0.0703-0.0195-0.1445-0.0312-0.2227-0.0312c-0.0605,0-0.123,0.0078-0.1777,0.0195
	c-0.1328,0.0273-0.252,0.0879-0.3574,0.1719c-0.0527,0.0137-0.1094,0.0273-0.1641,0.041c-0.0508-0.0117-0.1035-0.0176-0.1582-0.0176
	c-0.0801,0-0.1602,0.0098-0.2363,0.0352C9.7339,0.5645,9.6206,0.6328,9.5249,0.7207C9.4722,0.7402,9.4194,0.7559,9.3647,0.7715
	C9.3335,0.7676,9.2983,0.7656,9.2632,0.7656c-0.1016,0-0.2012,0.0176-0.293,0.0508c-0.125,0.0469-0.2363,0.123-0.3281,0.2207
	c-0.0508,0.0215-0.1016,0.041-0.1523,0.0625c-0.0137-0.002-0.0293-0.002-0.0449-0.002c-0.123,0-0.2402,0.0254-0.3477,0.0742
	c-0.123,0.0547-0.2246,0.1367-0.3086,0.2402C7.7397,1.4355,7.689,1.4609,7.6401,1.4863c-0.1387,0.002-0.2754,0.0371-0.3926,0.0996
	C7.1284,1.6504,7.0288,1.7422,6.9526,1.8516C6.9058,1.8789,6.8608,1.9062,6.814,1.9336c-0.1367,0.0098-0.2676,0.0527-0.3828,0.125
	C6.314,2.1328,6.2241,2.2324,6.1558,2.3457C6.1108,2.375,6.0659,2.4062,6.0229,2.4375C5.8862,2.457,5.7593,2.5059,5.6499,2.5879
	C5.5386,2.668,5.4507,2.7754,5.3901,2.8984C5.3491,2.9297,5.3101,2.9609,5.271,2.9922C5.1362,3.0215,5.0093,3.0801,4.9077,3.168
	C4.8003,3.2578,4.7202,3.3711,4.6694,3.5C4.6343,3.5312,4.5972,3.5625,4.562,3.5957C4.4272,3.6348,4.3062,3.7031,4.2065,3.8008
	C4.105,3.8965,4.0347,4.0176,3.9917,4.1504C3.9585,4.1836,3.9233,4.2188,3.8901,4.252c-0.1309,0.0488-0.248,0.125-0.3379,0.2266
	C3.4565,4.584,3.394,4.709,3.3608,4.8438C3.3296,4.8789,3.3003,4.916,3.271,4.9492C3.144,5.0078,3.0308,5.0918,2.9448,5.2031
	c-0.0859,0.1133-0.1387,0.2402-0.1621,0.373C2.7534,5.6152,2.7241,5.6562,2.6948,5.6953C2.5737,5.7617,2.4683,5.8516,2.3921,5.9668
	C2.314,6.084,2.269,6.2168,2.2515,6.3535c-0.0234,0.041-0.0508,0.082-0.0762,0.125C2.0581,6.5508,1.9585,6.6484,1.8921,6.7676
	c-0.0723,0.125-0.1055,0.2578-0.1133,0.3926c-0.0215,0.043-0.043,0.0859-0.0664,0.127c-0.1113,0.082-0.2031,0.1895-0.2637,0.3164
	C1.3882,7.7285,1.3608,7.8652,1.3647,8C1.3452,8.0449,1.3257,8.0898,1.3062,8.1367C1.2026,8.2246,1.1167,8.334,1.064,8.4648
	C1.0132,8.5957,0.9956,8.7324,1.0093,8.8711C0.9917,8.916,0.9761,8.9629,0.9585,9.0098c-0.0957,0.0957-0.1738,0.209-0.2148,0.3438
	C0.6987,9.4883,0.6909,9.627,0.7144,9.7637C0.7026,9.8105,0.687,9.8555,0.6733,9.9043c-0.0898,0.0996-0.1582,0.2207-0.1914,0.3574
	s-0.0293,0.2773,0.002,0.4121c-0.0098,0.0469-0.0195,0.0918-0.0293,0.1367c-0.084,0.1094-0.1445,0.2344-0.168,0.375
	c-0.0254,0.1387-0.0137,0.2812,0.0312,0.4141c-0.0078,0.0449-0.0117,0.0898-0.0176,0.1309
	c-0.0781,0.1152-0.1309,0.248-0.1465,0.3926c-0.0137,0.1387,0.0098,0.2793,0.0625,0.4102c-0.0039,0.043-0.0059,0.0859-0.0078,0.1289
	c-0.0703,0.1191-0.1152,0.2559-0.1191,0.4043c-0.0059,0.1445,0.0293,0.2832,0.0898,0.4062c0,0.0215,0,0.043,0,0.0645
	s0,0.043,0,0.0645c-0.0625,0.1289-0.0957,0.2676-0.0898,0.4102c0.0039,0.1445,0.0488,0.2793,0.1191,0.4004
	c0.002,0.041,0.0039,0.0859,0.0078,0.1289c-0.0527,0.1309-0.0781,0.2695-0.0625,0.4121c0.0176,0.1426,0.0684,0.2754,0.1465,0.3906
	c0.0059,0.043,0.0117,0.0879,0.0176,0.1309c-0.0449,0.1328-0.0566,0.2754-0.0312,0.4141c0.0234,0.1387,0.084,0.2656,0.168,0.373
	c0.0098,0.0449,0.0195,0.0918,0.0293,0.1387c-0.0332,0.1348-0.0352,0.2773-0.002,0.4102c0.0332,0.1387,0.1035,0.2578,0.1914,0.3594
	c0.0137,0.0469,0.0293,0.0938,0.041,0.1406c-0.0234,0.1367-0.0156,0.2773,0.0273,0.4082c0.043,0.1328,0.1211,0.25,0.2168,0.3457
	c0.0176,0.0449,0.0332,0.0918,0.0508,0.1387c-0.0137,0.1387,0.002,0.2754,0.0547,0.4062c0.0527,0.1289,0.1387,0.2402,0.2422,0.3281
	c0.0195,0.0449,0.0391,0.0898,0.0586,0.1348c-0.0039,0.1387,0.0234,0.2754,0.084,0.3984c0.0625,0.1289,0.1543,0.2344,0.2656,0.3164
	c0.0215,0.041,0.043,0.084,0.0645,0.127c0.0078,0.1367,0.043,0.2715,0.1133,0.3906c0.0703,0.123,0.168,0.2227,0.2852,0.2969
	c0.0254,0.0391,0.0508,0.0781,0.0742,0.1172c0.0156,0.1406,0.0605,0.2734,0.1406,0.3887c0.0781,0.1152,0.1836,0.2051,0.3047,0.2715
	c0.0273,0.0391,0.0547,0.0762,0.084,0.1152c0.0234,0.1367,0.0781,0.2676,0.1641,0.375c0.0859,0.1133,0.1992,0.1973,0.3262,0.2559
	c0.0293,0.0352,0.0605,0.0703,0.0898,0.1035c0.0332,0.1367,0.0977,0.2617,0.1895,0.3652c0.0938,0.1035,0.2109,0.1797,0.3418,0.2285
	c0.0312,0.0332,0.0664,0.0684,0.0996,0.1016c0.043,0.1328,0.1133,0.2539,0.2168,0.3516c0.0996,0.0957,0.2207,0.1641,0.3535,0.2031
	c0.0352,0.0312,0.0723,0.0625,0.1074,0.0957c0.0508,0.1289,0.1309,0.2422,0.2383,0.332c0.1035,0.0879,0.2305,0.1465,0.3633,0.1758
	c0.0391,0.0312,0.0781,0.0605,0.1191,0.0938c0.0605,0.123,0.1484,0.2324,0.2617,0.3125c0.1094,0.0801,0.2363,0.1289,0.373,0.1504
	c0.041,0.0273,0.084,0.0566,0.127,0.0859c0.0703,0.1191,0.1641,0.2207,0.2793,0.291c0.1172,0.0723,0.248,0.1133,0.3867,0.125
	c0.0449,0.0273,0.0898,0.0547,0.1348,0.0801c0.0762,0.1133,0.1758,0.2051,0.2949,0.2676c0.1211,0.0645,0.2578,0.0977,0.3945,0.1016
	c0.0469,0.0215,0.0918,0.0469,0.1406,0.0684c0.0859,0.1055,0.1914,0.1895,0.3145,0.2441c0.1113,0.0488,0.2285,0.0762,0.3477,0.0762
	c0.0176,0,0.0332-0.0039,0.0488-0.0039c0.0488,0.0215,0.0996,0.041,0.1484,0.0625c0.0918,0.0977,0.2031,0.1738,0.3301,0.2188
	c0.0938,0.0352,0.1914,0.0527,0.293,0.0527c0.0352,0,0.0684-0.002,0.1035-0.0059c0.0508,0.0156,0.1035,0.0332,0.1562,0.0488
	c0.0977,0.0918,0.2129,0.1602,0.3438,0.1973c0.0762,0.0215,0.1562,0.0332,0.2363,0.0332c0.0547,0,0.1074-0.0078,0.1582-0.0176
	c0.0527,0.0137,0.1094,0.0273,0.1621,0.041c0.1055,0.084,0.2266,0.1445,0.3594,0.1719c0.0566,0.0117,0.1172,0.0195,0.1758,0.0195
	c0.0781,0,0.1523-0.0117,0.2246-0.0312c0.0527,0.0098,0.1035,0.0195,0.1562,0.0273c0.1113,0.0781,0.2363,0.1309,0.3711,0.1484
	c0.041,0.0059,0.0801,0.0078,0.1191,0.0078c0.0977,0,0.1895-0.0176,0.2793-0.0488c0.0527,0.0059,0.1055,0.0117,0.1582,0.0156
	c0.1152,0.0723,0.2461,0.1152,0.3828,0.123c0.0176,0.002,0.0391,0.0039,0.0586,0.0039c0.1172,0,0.2285-0.0293,0.332-0.0742
	c0.0527,0.0039,0.1074,0.0059,0.1602,0.0078c0.1172,0.0605,0.248,0.0957,0.3887,0.0957h0.002c0.1406,0,0.2715-0.0352,0.3887-0.0957
	c0.0547-0.002,0.1074-0.0039,0.1602-0.0078c0.1035,0.0449,0.2148,0.0723,0.332,0.0723c0.0215,0,0.0449,0,0.0605-0.002
	c0.1348-0.0078,0.2656-0.0527,0.3809-0.123c0.0527-0.0039,0.1074-0.0098,0.1602-0.0156c0.0879,0.0312,0.1797,0.0488,0.2773,0.0488
	c0.041,0,0.082-0.0039,0.1191-0.0078c0.1348-0.0195,0.2617-0.0723,0.3711-0.1484c0.0527-0.0078,0.1055-0.0176,0.1562-0.0273
	c0.0742,0.0195,0.1465,0.0312,0.2246,0.0312c0.0605,0,0.1211-0.0078,0.1797-0.0195c0.1348-0.0293,0.2539-0.0898,0.3555-0.1719
	c0.0547-0.0137,0.1074-0.0273,0.1621-0.041c0.0508,0.0098,0.1055,0.0176,0.1602,0.0176c0.0801,0,0.1621-0.0117,0.2363-0.0332
	c0.1328-0.0391,0.2461-0.1074,0.3418-0.1973c0.0547-0.0156,0.1055-0.0332,0.1582-0.0508c0.0352,0.0059,0.0684,0.0078,0.1035,0.0078
	c0.0996,0,0.2012-0.0176,0.293-0.0527c0.1289-0.0469,0.2402-0.125,0.3301-0.2188c0.0488-0.0215,0.0977-0.041,0.1484-0.0625
	c0.0156,0,0.0312,0.002,0.0469,0.002c0.123,0,0.2422-0.0254,0.3496-0.0742c0.125-0.0566,0.2305-0.1406,0.3125-0.2422
	c0.0469-0.0234,0.0957-0.0488,0.1426-0.0723c0.1367-0.002,0.2734-0.0371,0.3906-0.0996c0.123-0.0645,0.2207-0.1582,0.2949-0.2656
	c0.0469-0.0273,0.0938-0.0527,0.1387-0.082c0.1387-0.0117,0.2695-0.0527,0.3828-0.125c0.1172-0.0723,0.2109-0.1738,0.2812-0.291
	c0.043-0.0293,0.0859-0.0586,0.1289-0.0859c0.1348-0.0215,0.2637-0.0703,0.373-0.1523c0.1113-0.0801,0.1992-0.1875,0.2598-0.3105
	c0.041-0.0332,0.0801-0.0625,0.1191-0.0938c0.1348-0.0293,0.2617-0.0898,0.3652-0.1758c0.1074-0.0918,0.1836-0.2051,0.2344-0.3301
	c0.0371-0.0312,0.0742-0.0645,0.1094-0.0977c0.1348-0.0391,0.2559-0.1074,0.3555-0.2051c0.1016-0.0957,0.1719-0.2188,0.2168-0.3496
	c0.0312-0.0332,0.0664-0.0684,0.0996-0.1016c0.1289-0.0488,0.248-0.125,0.3398-0.2285s0.1562-0.2305,0.1895-0.3652
	c0.0293-0.0332,0.0625-0.0684,0.0898-0.1055c0.127-0.0566,0.2402-0.1406,0.3262-0.2539c0.0879-0.1094,0.1406-0.2383,0.1641-0.375
	c0.0293-0.0391,0.0586-0.0762,0.0859-0.1152c0.1211-0.0664,0.2266-0.1562,0.3047-0.2734c0.0762-0.1152,0.123-0.248,0.1387-0.3867
	c0.0254-0.0391,0.0508-0.0801,0.0762-0.1211c0.1152-0.0742,0.2168-0.1719,0.2852-0.293s0.1035-0.2559,0.1094-0.3906
	c0.0234-0.043,0.0449-0.0859,0.0684-0.127c0.1113-0.082,0.2031-0.1875,0.2656-0.3184c0.0586-0.123,0.0859-0.2578,0.082-0.3965
	c0.0215-0.0449,0.041-0.0898,0.0586-0.1348c0.1055-0.0898,0.1914-0.2012,0.2422-0.332c0.0508-0.127,0.0684-0.2656,0.0547-0.4023
	c0.0176-0.0469,0.0332-0.0938,0.0508-0.1406c0.0977-0.0957,0.1738-0.2109,0.2188-0.3438c0.041-0.1367,0.0469-0.2754,0.0254-0.4082
	c0.0137-0.0469,0.0273-0.0938,0.041-0.1406c0.0898-0.1035,0.1582-0.2227,0.1914-0.3594c0.0352-0.1406,0.0293-0.2793-0.002-0.4121
	c0.0098-0.0469,0.0195-0.0918,0.0293-0.1367c0.084-0.1074,0.1445-0.2344,0.1699-0.375c0.0234-0.1387,0.0117-0.2793-0.0332-0.4141
	c0.0078-0.041,0.0117-0.0859,0.0176-0.1289c0.0801-0.1152,0.1309-0.248,0.1465-0.3945c0.0137-0.1406-0.0098-0.2793-0.0605-0.4082
	c0.0039-0.043,0.0039-0.0879,0.0078-0.1289C27.0464,14.291,27.0913,14.1562,27.0952,14.0078"/>
<path opacity="0.3" fill-rule="evenodd" clip-rule="evenodd" fill="#FFFFFF" d="M12.0005,4.626h-1.0312l-0.6963,2.6753L9.5493,4.626
	H8.478c0.2119,0.6318,0.4375,1.2656,0.6523,1.8975c0.3262,0.9502,0.5293,1.666,0.6221,2.1543v2.7578h1.0195V8.6777L12.0005,4.626z
	 M14.7251,9.792V8.0171c0-0.5435-0.0938-0.9395-0.2871-1.1958c-0.252-0.3491-0.6113-0.5215-1.0723-0.5215
	c-0.458,0-0.8154,0.1724-1.0693,0.5215c-0.1973,0.2563-0.2891,0.6523-0.2891,1.1958V9.792c0,0.5396,0.0918,0.9395,0.2891,1.1938
	c0.2539,0.3472,0.6113,0.519,1.0693,0.519c0.4609,0,0.8203-0.1719,1.0723-0.519C14.6313,10.7314,14.7251,10.3315,14.7251,9.792z
	 M13.8042,9.9663c0,0.4697-0.1396,0.7036-0.4385,0.7036c-0.2959,0-0.4375-0.2339-0.4375-0.7036V7.8325
	c0-0.4697,0.1416-0.7056,0.4375-0.7056c0.2988,0,0.4385,0.2358,0.4385,0.7056V9.9663z M18.1235,11.4355V6.3613h-0.9199v3.8799
	c-0.2031,0.2871-0.3955,0.4287-0.5781,0.4287c-0.125,0-0.1953-0.0718-0.2158-0.2153c-0.0098-0.0288-0.0098-0.1416-0.0098-0.3569
	V6.3613H15.481v4.0132c0,0.3569,0.0303,0.6011,0.084,0.7554c0.0898,0.2563,0.2949,0.375,0.5889,0.375
	c0.3379,0,0.6865-0.2031,1.0498-0.6216v0.5522H18.1235z"/>
<path fill-rule="evenodd" clip-rule="evenodd" fill="#FFFFFF" d="M12.0024,4.5171h-1.0312l-0.6953,2.6733L9.5513,4.5171H8.48
	c0.2119,0.6299,0.4395,1.2637,0.6523,1.896c0.3262,0.9497,0.5312,1.6655,0.6221,2.1538v2.7578h1.0215V8.5669L12.0024,4.5171z
	 M14.73,9.6831V7.9043c0-0.5415-0.0947-0.9375-0.2881-1.1938c-0.2539-0.3491-0.6133-0.521-1.0703-0.521
	c-0.46,0-0.8184,0.1719-1.0732,0.521c-0.1953,0.2563-0.2891,0.6523-0.2891,1.1938v1.7788c0,0.5376,0.0938,0.938,0.2891,1.1919
	c0.2549,0.3472,0.6133,0.5195,1.0732,0.5195c0.457,0,0.8164-0.1724,1.0703-0.5195C14.6353,10.6211,14.73,10.2207,14.73,9.6831z
	 M13.8081,9.8555c0,0.4697-0.1416,0.7036-0.4365,0.7036c-0.2998,0-0.4414-0.2339-0.4414-0.7036V7.7197
	c0-0.4678,0.1416-0.7017,0.4414-0.7017c0.2949,0,0.4365,0.2339,0.4365,0.7017V9.8555z M18.1255,11.3247V6.251h-0.918v3.8774
	c-0.2031,0.2896-0.3975,0.4307-0.5801,0.4307c-0.123,0-0.1973-0.0718-0.2158-0.2153c-0.0098-0.0288-0.0098-0.1416-0.0098-0.3569
	V6.251h-0.9189v4.0127c0,0.3574,0.0322,0.6016,0.084,0.7554c0.0898,0.2563,0.2949,0.3755,0.5908,0.3755
	c0.3359,0,0.6855-0.2031,1.0498-0.6221v0.5522H18.1255z"/>
<path fill="#FFFFFF" d="M18.6216,16.4785c-0.3037,0-0.4551,0.2324-0.4551,0.6953v0.4658h0.9082v-0.4658
	C19.0747,16.7109,18.9253,16.4785,18.6216,16.4785z"/>
<path fill="#FFFFFF" d="M15.2466,16.4785c-0.1514,0-0.3018,0.0703-0.4531,0.2188v3.0645c0.1514,0.1514,0.3018,0.2227,0.4531,0.2227
	c0.2607,0,0.3936-0.2227,0.3936-0.6768v-2.1436C15.6401,16.7109,15.5073,16.4785,15.2466,16.4785z"/>
<path fill="#FFFFFF" d="M20.8481,13.9263c-0.1855-0.8003-0.8418-1.3911-1.6299-1.4795c-1.8662-0.209-3.7559-0.2114-5.6377-0.209
	c-1.8789-0.0024-3.7705,0-5.6377,0.209c-0.79,0.0884-1.4424,0.6792-1.627,1.4795c-0.2627,1.1401-0.2666,2.3843-0.2666,3.5581
	c0,1.1748,0,2.418,0.2646,3.5605c0.1826,0.7988,0.8369,1.3896,1.627,1.4775c1.8662,0.21,3.7559,0.21,5.6377,0.21
	c1.8789,0,3.7705,0,5.6377-0.21c0.7861-0.0879,1.4404-0.6787,1.627-1.4775c0.2607-1.1426,0.2646-2.3857,0.2646-3.5605
	C21.1079,16.3105,21.1079,15.0664,20.8481,13.9263z M10.3472,14.9521H9.2554v5.79H8.2417v-5.79H7.1733V14.002h3.1738V14.9521z
	 M13.0942,20.7422h-0.9111v-0.5488c-0.3604,0.415-0.7031,0.6182-1.0381,0.6182c-0.2949,0-0.4961-0.1191-0.5869-0.374
	c-0.0488-0.1514-0.082-0.3906-0.082-0.7461v-3.9707h0.9111v3.6953c0,0.2139,0,0.3242,0.0088,0.3555
	c0.0225,0.1416,0.0898,0.2129,0.2109,0.2129c0.1846,0,0.375-0.1406,0.5762-0.4258v-3.8379h0.9111V20.7422z M16.5493,19.2344
	c0,0.4648-0.0303,0.7998-0.0918,1.0137c-0.1191,0.373-0.3633,0.5635-0.7266,0.5635c-0.3223,0-0.6357-0.1807-0.9375-0.5557v0.4863
	h-0.9131V14.002h0.9131v2.2012c0.293-0.3633,0.6006-0.5449,0.9375-0.5449c0.3633,0,0.6074,0.1904,0.7266,0.5684
	c0.0615,0.2012,0.0918,0.5332,0.0918,1.0088V19.2344z M19.9858,18.3965h-1.8193v0.8906c0,0.4658,0.1514,0.6973,0.4658,0.6973
	c0.2236,0,0.3506-0.123,0.4053-0.3652c0.0068-0.0488,0.0166-0.252,0.0166-0.6152h0.9316v0.1309
	c0,0.2939-0.0117,0.4951-0.0205,0.5879c-0.0303,0.2012-0.1025,0.3828-0.2129,0.5449c-0.2529,0.3633-0.624,0.5439-1.0977,0.5439
	c-0.4805,0-0.8418-0.1729-1.1025-0.5146c-0.1963-0.25-0.293-0.6484-0.293-1.1797v-1.7607c0-0.5381,0.0879-0.9287,0.2812-1.1836
	c0.2627-0.3428,0.626-0.5146,1.0918-0.5146c0.4551,0,0.8164,0.1719,1.0703,0.5146c0.1934,0.2549,0.2832,0.6455,0.2832,1.1836
	V18.3965z"/>
</svg>
