<?xml version="1.0" encoding="utf-8"?>
<!-- Generator: Adobe Illustrator 18.1.1, SVG Export Plug-In . SVG Version: 6.00 Build 0)  -->
<svg version="1.1" id="Layer_1" xmlns="http://www.w3.org/2000/svg" xmlns:xlink="http://www.w3.org/1999/xlink" x="0px" y="0px"
	 viewBox="0 0 165.3 87.4" enable-background="new 0 0 165.3 87.4" xml:space="preserve">
<path fill="#33473C" d="M29.9,37.4c0,0.1,0.1,0.1,0.1,0.2C30,37.5,30.1,37.4,29.9,37.4L29.9,37.4z M29.9,36c0,0.3,0,0.3,0.2,0.1
	C30,36.2,29.9,36.1,29.9,36 M30.3,35c0,0,0.1,0.1,0.1,0.1h0.1c0-0.1,0.1-0.1,0.1-0.1C30.4,35,30.4,34.9,30.3,35L30.3,35z M37.7,13.2
	c0-0.1,0-0.2-0.1-0.1C37.5,13.2,37.5,13.2,37.7,13.2 M1.1,71.4c0,0.2-0.1,0.3-0.1,0.4c0.1,0,0.1,0,0.2,0c0-0.1,0.1-0.2,0.1-0.3
	C1.2,71.5,1.2,71.4,1.1,71.4 M30.9,37v-0.2c-0.2,0-0.2,0-0.2,0.1C30.7,37,30.7,37,30.9,37 M30.9,33.8c0.1-0.1,0.1-0.2-0.1-0.2
	C30.9,33.6,30.9,33.7,30.9,33.8 M30.2,39c-0.1-0.1-0.1-0.1-0.2-0.2C30,39,30,39,30.2,39 M6.1,80.1C6.1,80.1,6.1,80.1,6.1,80.1
	c0,0.1,0,0.1,0,0.1C6.1,80.2,6.1,80.1,6.1,80.1 M30.5,34.8h0.4c0.2,0,0.4-0.1,0.7-0.3l-0.1-0.1c-0.2,0.1-0.4,0.1-0.6,0.1
	c0,0-0.1,0-0.1,0.1c-0.1,0.1-0.2,0-0.4-0.1C30.4,34.8,30.4,34.8,30.5,34.8 M30.9,38.4L30.9,38.4l0.1-0.1h-0.1V38.4z M4.2,81.7
	L4.2,81.7c0.4-0.2,0.4-0.5,0.5-0.7c-0.2-0.1-0.3-0.2-0.4-0.3C4.2,81.1,4,81.6,4.2,81.7 M4.3,80.6c0,0,0-0.1,0-0.1c0,0-0.1,0-0.1,0
	C4.2,80.6,4.3,80.6,4.3,80.6 M31.2,38.6L31.2,38.6L31.2,38.6L31.2,38.6L31.2,38.6z M31.1,39.3C31.1,39.4,31.2,39.4,31.1,39.3
	c0.1,0.1,0.1,0.1,0.1,0H31.1C31.2,39.3,31.1,39.3,31.1,39.3 M33.3,24.4c0,0.1,0,0.1,0.1,0.1C33.5,24.5,33.5,24.4,33.3,24.4
	L33.3,24.4z M31.2,32c0.1-0.1-0.1-0.3,0.3-0.4c-0.1-0.1-0.2-0.1-0.2-0.1c-0.1,0.1-0.1,0.3-0.2,0.4c-0.1-0.2-0.1-0.3-0.1-0.4
	C30.9,31.7,30.9,31.9,31.2,32 M28.8,38.9c0.1,0,0.3,0,0.3-0.1c-0.1-0.1-0.1-0.2-0.1-0.2c0,0-0.1,0-0.1,0.1V38.9z M1,72.4
	c0-0.1,0.1-0.2,0.1-0.3c-0.1,0-0.1,0-0.2,0c0-0.5-0.8,3-0.8,3c0-0.1,0-0.1,0.1-0.2c0,0,0.1-0.1,0-0.1c0,0,0,0,0,0
	c0.1-0.2,0.2-0.5,0.2-0.7v-0.1c0.1-0.4,0.3-0.8,0.4-1.2c0,0,0,0,0,0c0-0.1,0-0.3,0-0.4C0.9,72.4,0.9,72.4,1,72.4 M27.3,55.3
	c-0.2-0.1-0.2-0.1-0.4,0.1C27,55.5,27.2,55.3,27.3,55.3 M32.9,35.6c0-0.1-0.1-0.1-0.1,0.1C32.9,35.7,32.9,35.6,32.9,35.6 M32.2,46.1
	c0-0.1,0.1-0.1,0.1-0.2v-0.1l-0.1-0.1c-0.1,0.1-0.1,0.1-0.1,0.2c0,0.1-0.1,0.1-0.2,0.4C32.1,46.3,32.2,46.2,32.2,46.1 M32.8,44.8
	c-0.1,0-0.3,0-0.3,0.1c0,0.1-0.1,0.2-0.2,0.4c-0.1,0.1,0,0.1,0.1,0.1C32.8,45.3,32.7,44.9,32.8,44.8 M11.7,71.1
	c0.1-0.1,0.1-0.1,0.2-0.2c0-0.1,0-0.1,0.1-0.2c-0.1,0-0.2-0.1-0.4-0.2C11.6,70.8,11.6,71,11.7,71.1 M33.1,23.8L32.9,24
	C33.1,24.2,33.1,24.1,33.1,23.8 M33,25.6c0.1-0.1,0.2-0.2,0.3-0.2v-0.1H33V25.6z M2.6,70.2C2.7,70.2,2.7,70.2,2.6,70.2
	C2.7,70.2,2.7,70.1,2.6,70.2C2.7,70.1,2.7,70.1,2.6,70.2L2.6,70.2z M29.1,39.4c0.1,0,0.1,0,0.1-0.1c0,0,0-0.1-0.1-0.1
	c-0.1,0-0.1-0.2-0.3-0.4C28.7,39,28.8,39.4,29.1,39.4 M33.5,29.8c0-0.1-0.1-0.1-0.1-0.1C33.4,29.7,33.5,29.8,33.5,29.8 M33.5,30.6
	c-0.2-0.1-0.2-0.1-0.2,0.1C33.4,30.7,33.5,30.6,33.5,30.6 M7.6,79.8L7.6,79.8c0.1-0.1,0.1-0.2-0.1-0.4C7.5,79.6,7.6,79.7,7.6,79.8
	 M31,50.1c0-0.1,0-0.1-0.1-0.3c-0.1,0.1-0.1,0.3,0,0.3H31z M10.2,71.8c0.1,0,0.1-0.1,0.2-0.1C10.2,71.6,10.2,71.7,10.2,71.8
	 M31.2,49.5c-0.1,0-0.1-0.1-0.1-0.1C31,49.6,31,49.6,31.2,49.5 M30.7,43.6C30.6,43.6,30.6,43.6,30.7,43.6c0,0.1,0.1,0.1,0.2,0.1
	C30.9,43.6,30.7,43.5,30.7,43.6 M8.9,74.1L8.9,74.1c0.1,0.1,0.1,0.1,0.1,0.1c0,0.1,0,0.1,0.1,0.1C9.1,74.2,9,74.2,8.9,74.1
	 M29.9,45.6c0-0.1,0-0.1,0.1-0.3c-0.1,0.1-0.1,0.1-0.3,0.1C29.8,45.5,29.8,45.5,29.9,45.6 M29.9,47.5c0,0,0,0.1,0.1,0.1
	c0-0.1,0.1-0.1,0.1-0.1L30,47.4L29.9,47.5z M31.1,53.2L31.1,53.2c-0.1,0.1-0.1,0.1-0.1,0.1H31C31,53.3,31,53.2,31.1,53.2 M26.6,57.3
	c0.1,0.2,0.2,0.1,0.4,0.3c0.1-0.1,0.1-0.3,0.1-0.5h-0.4C26.7,57.2,26.6,57.2,26.6,57.3 M32.2,42.9v-0.1c-0.1,0.1-0.1,0.1-0.1,0.1
	H32.2z M27.3,55.9c-0.1-0.1-0.1-0.2-0.1-0.4C27,55.8,27,55.8,27.3,55.9 M28.8,51.3c0.1,0.1,0.1,0.1,0.2,0.1
	c-0.1-0.1-0.1-0.2-0.1-0.3C28.8,51.2,28.8,51.2,28.8,51.3 M27.4,54.7L27.4,54.7l-0.1,0.2h0.1V54.7z M27.8,54c-0.2,0-0.2,0-0.2,0.3
	C27.6,54.3,27.7,54.2,27.8,54 M28.6,41.3c-0.1,0.2-0.3,0.3-0.1,0.4h0.1c0.1-0.1,0.2-0.1,0.3-0.1C28.7,41.5,28.6,41.5,28.6,41.3
	 M30.7,50.4c0-0.2-0.1-0.2-0.2-0.2c-0.1,0.1-0.2,0.1-0.2,0.3v0.4c0,0.1,0,0.1-0.2,0.3c-0.1,0.1-0.1,0.1-0.1,0.2c0,0,0.1,0.1,0.1,0.1
	c-0.1,0.1-0.1,0.1-0.1,0.1c0.1,0.1,0.2,0.1,0.2,0.3C30,52,30,52.1,29.9,52.2c-0.1,0.1-0.1,0.3-0.1,0.4c-0.1,0.1-0.1,0.1-0.1,0.2
	c-0.1,0.1-0.1,0.1-0.1,0.3c-0.1,0.1-0.1,0.4-0.4,0.6c-0.1,0.1-0.1,0.2,0,0.4h0.5v-0.6c0.1-0.2,0.4-0.4,0.5-0.4
	c0.1-0.3,0.1-0.5,0.2-0.8h0.1c-0.1-0.2-0.1-0.4-0.1-0.6c-0.1-0.4,0-0.7,0.3-0.9C30.7,50.6,30.7,50.6,30.7,50.4 M13.8,67.5
	c-0.1,0-0.1,0-0.2,0.1c-0.1,0-0.1,0.1-0.1,0.1c0.1,0.2-0.1,0.3-0.2,0.4c-0.1,0-0.2,0-0.2,0.1c0.2,0.1,0.4,0.1,0.5,0.1
	c0-0.1,0.1-0.1,0.1-0.2C13.7,67.9,13.7,67.7,13.8,67.5 M28.1,58.2c0.1-0.1,0.1-0.2,0.1-0.4C28,58,28,58.1,28.1,58.2 M15.2,86.3
	c-0.1-0.3-0.6-0.1-0.7,0c0.2,0.1,0.2,0.2,0.2,0.2c0,0,0.1,0.1,0.1,0.1c0,0,0,0,0,0C14.8,86.5,15.2,86.4,15.2,86.3 M29.4,39.9
	c-0.2,0-0.2,0-0.4,0.1C29.2,40.2,29.2,40.2,29.4,39.9 M29.1,39.5c-0.1,0.1-0.2,0.1-0.2,0.2s0.1,0.1,0.2,0.1
	C29.1,39.7,29.1,39.6,29.1,39.5 M28.3,42.5c0.1-0.1,0.3-0.1,0.3-0.2c0,0,0,0,0,0c0,0,0-0.1-0.1-0.1h0.1c0,0,0,0-0.1-0.1
	c-0.1,0-0.2,0.1-0.2,0.1c0.1,0.1,0.1,0.1,0.1,0.2c-0.1-0.1-0.1-0.1-0.1-0.2C28.2,42.2,28.2,42.3,28.3,42.5 M29.9,54L29.9,54
	c-0.1,0.3-0.2,0.3-0.5,0.1L29.3,54c-0.1,0-0.3,0-0.4,0.3c0,0.1-0.1,0.1-0.1,0.2c-0.1,0.1-0.2,0.4-0.3,0.5v0.1
	c0.1,0.1-0.1,0.1-0.1,0.3c-0.1,0.1-0.2,0.1-0.1,0.3c0.1-0.1,0.2-0.1,0.4-0.1c0.1,0.1,0.2,0,0.3-0.1c0.1-0.2,0.1-0.3,0.1-0.4v-0.1
	c-0.1,0.1-0.1,0.1-0.2,0.1c0-0.1,0.1-0.4,0.1-0.5c0-0.1,0.1-0.1,0.1-0.1c0.1,0.1,0.2,0,0.4-0.1c0.1-0.1,0.1-0.1,0.2,0.1v0.1
	C29.9,54.3,29.9,54.2,29.9,54 M30.4,46.6c-0.1-0.1-0.1-0.1-0.3-0.1c0.1,0.1,0.1,0.2,0.1,0.3c0,0.1,0,0.2-0.1,0.3
	C30.4,47,30.4,46.7,30.4,46.6 M30.6,53.1L30.6,53.1L30.6,53.1C30.5,53.1,30.6,53.1,30.6,53.1 M28.6,57.1c0,0,0.1-0.1,0.1-0.1
	C28.6,56.9,28.6,57,28.6,57.1 M30.1,46L30.1,46c-0.1,0.1,0,0.1,0,0.1c0,0,0-0.1,0.1-0.1C30.1,46.1,30.1,46,30.1,46 M29,56.2
	c0.1-0.1,0.2-0.1,0.3-0.3C29,56.1,28.8,56.1,29,56.2 M11,71v-0.2c-0.1,0-0.2,0.1-0.3,0.1C10.8,71,10.8,71.1,11,71 M31.8,35.5
	C31.8,35.5,31.9,35.5,31.8,35.5c0.1,0,0.2-0.1,0.2-0.1v-0.1c-0.1,0-0.1-0.1-0.2,0V35.5z M37.7,16.9c-0.1,0-0.1,0.1-0.1,0.3
	c0.2-0.1,0.3-0.1,0.4-0.1C38,16.9,37.8,16.9,37.7,16.9 M37.4,14.5c0.1,0.1,0.3,0.1,0.3-0.1c-0.1-0.1-0.4-0.1-0.6-0.2
	C37,14.5,37.3,14.4,37.4,14.5 M36.4,24.8c0.1,0.1,0.2,0,0.2-0.1l-0.1-0.1C36.4,24.7,36.4,24.7,36.4,24.8 M38.2,15.9
	c-0.2,0-0.2,0-0.2,0.2C38,16.1,38.1,16.1,38.2,15.9 M37.3,17.9c0.1,0.2,0.2,0.2,0.4,0.1C37.6,17.9,37.6,17.9,37.3,17.9 M38.2,15.5
	c-0.1,0-0.1,0-0.3,0.1c0.1,0.1,0.1,0.1,0.2,0.1C38.3,15.6,38.3,15.6,38.2,15.5 M38.3,12.8L38.3,12.8c0.1,0.1,0.1,0.1,0.1,0H38.3z
	 M37.6,22.8h-0.4C37.3,22.9,37.5,22.9,37.6,22.8 M39,15.8C39,15.9,39,16,39,16.1c0.1,0.1,0.2,0.1,0.4,0.1V16
	C39.1,16.1,39.1,16.1,39,15.8 M37.7,13.9c0-0.1,0.1-0.1,0.1-0.1s0.1,0,0.1,0.1c0-0.3,0-0.3-0.1-0.5c0.1,0.2,0.1,0.2,0.1,0.3h-0.1
	C37.5,13.7,37.6,13.8,37.7,13.9 M37.3,14.6L37.3,14.6C37.2,14.7,37.2,14.7,37.3,14.6L37.3,14.6z M37.2,18.5c0.1-0.1,0.2-0.1,0.4-0.1
	C37.2,18.4,37.2,18.4,37.2,18.5 M37.7,17.4c-0.1,0.1-0.1,0.1-0.1,0.3C37.7,17.6,37.7,17.5,37.7,17.4 M39.3,13
	c-0.1,0.1-0.1,0.3,0,0.5c0.2-0.1,0.2-0.3,0.3-0.5C39.6,13,39.4,13,39.3,13 M41.9,10.6C41.9,10.6,41.8,10.6,41.9,10.6
	c-0.2,0-0.3,0-0.4,0.1c0.1,0.1,0.1,0.2,0.1,0.3C41.8,11,41.9,10.9,41.9,10.6 M39.8,12.5L39.8,12.5L39.8,12.5L39.8,12.5
	C39.8,12.5,39.8,12.5,39.8,12.5 M40,10.4c-0.1,0.1,0.1,0.1,0.1,0.1C40.1,10.5,40,10.5,40,10.4 M42,10.3L42,10.3v-0.1V10.3z
	 M42.4,10.7c-0.1-0.1-0.2-0.1-0.2-0.1c-0.1,0-0.2,0-0.2,0.1c0,0.1,0.1,0.2,0.1,0.2C42.2,10.8,42.4,10.8,42.4,10.7 M39.5,39.5h0.2
	c0-0.1,0-0.2-0.2-0.2c-0.1,0-0.2,0.1-0.2,0.1C39.4,39.4,39.4,39.5,39.5,39.5 M38.9,15.5C38.9,15.5,39,15.5,38.9,15.5L38.9,15.5
	L38.9,15.5L38.9,15.5L38.9,15.5z M40.1,15.3c-0.1,0-0.1,0.1,0,0.1c0.1,0,0.1-0.1,0.3-0.1C40.3,15.1,40.2,15.1,40.1,15.3 M39,17.8
	C39,17.8,39,17.7,39,17.8C39,17.7,38.9,17.7,39,17.8 M38.8,17.4C38.8,17.4,38.8,17.5,38.8,17.4c0.1,0.1,0.1,0.1,0.1,0v-0.1
	L38.8,17.4L38.8,17.4z M38.8,39.5c0,0.1,0.1,0.1,0.2,0.1c0.1-0.1,0.1-0.1,0.2-0.2h-0.1h-0.2C38.9,39.3,38.8,39.3,38.8,39.5
	 M36.4,22.6h-0.2v0.1L36.4,22.6L36.4,22.6z M39.5,45.5c0.1-0.1,0.1-0.1,0-0.2c-0.1,0.1-0.1,0.1-0.2,0.2
	C39.4,45.6,39.5,45.6,39.5,45.5 M36.4,16.6c0,0.1,0.1,0.1,0.1,0.1c0.1-0.1,0.1-0.1,0.1-0.4C36.4,16.5,36.4,16.6,36.4,16.6 M40,45.3
	c0.1-0.1,0.1-0.2,0.1-0.2C40,45.1,39.9,45.2,40,45.3 M37.7,44.9c-0.1,0-0.1,0.1-0.1,0.1c0,0,0.1,0,0.1,0.1
	C37.7,45,37.8,45,37.7,44.9c0.1,0,0.1,0,0.1-0.1C37.8,44.7,37.7,44.8,37.7,44.9 M38.7,45.7c0-0.1,0-0.1-0.1-0.1
	C38.6,45.6,38.6,45.7,38.7,45.7 M40.2,44.7c0,0.1-0.1,0.2-0.1,0.2V45c0.1,0,0.1,0,0.1-0.1c0-0.1,0.1-0.1,0.1-0.2
	c0-0.1-0.1-0.1-0.1-0.1H40.2z M39,45.6c0.1,0,0.1,0,0.2-0.1c0,0,0-0.1-0.1-0.1C39,45.5,39,45.6,39,45.6 M40.7,44.5
	c0.2,0.1,0.2-0.1,0.2-0.2c0.1,0,0-0.1-0.1-0.1C40.7,44.3,40.7,44.4,40.7,44.5 M14.1,66.9c-0.2,0-0.1,0.3-0.2,0.4
	c0.2-0.1,0.4-0.1,0.6-0.1C14.4,66.9,14.2,66.9,14.1,66.9 M28.2,56.5c0,0.1,0.1,0.2,0.1,0.2c0,0.2-0.2,0.4-0.1,0.7L28,57.4
	c-0.1,0.1-0.1,0.2-0.1,0.4c0,0.1-0.1,0.1-0.1,0.2c0,0,0.1,0.1,0.1,0.2c0,0,0.1,0.1,0.1,0.1c-0.1,0.1-0.1,0.4-0.2,0.5
	c-0.1-0.1,0-0.3,0-0.4c0-0.1-0.1-0.1-0.2-0.1c-0.1,0.2-0.2,0.4-0.1,0.7v0.1c-0.1,0.2-0.1,0.3,0,0.5c0,0.2-0.1,0.3-0.2,0.4h0.1
	c0,0.3-0.1,0.4-0.1,0.6c-0.1,0-0.2,0.1-0.4,0.1C27,61,27,61,27,61.1c-0.1,0.1-0.1,0.1-0.2,0.1c0.1,0.1,0.1,0.1,0.1,0.2
	c-0.1,0.4-0.3,0.7-0.7,1c-0.1,0.1-0.1,0.2-0.2,0.3c-0.1,0.1-0.1,0.1-0.1,0.1c-0.1-0.2,0.1-0.4,0-0.4c-0.1-0.1-0.3-0.1-0.5-0.1
	c0,0.2,0,0.4-0.1,0.6c-0.2,0.1-0.3,0.1-0.4,0.2c0,0.1,0,0.2,0.1,0.4c0.1-0.1,0.1-0.2,0.1-0.2c0.2,0,0.3,0,0.2,0.2v0.1
	c-0.1,0.1-0.2,0.3-0.2,0.6c0,0.1-0.1,0.1-0.3,0.1h-0.1c0,0,0.1,0.1,0.2,0.1c-0.1,0.1-0.1,0.1-0.2,0.1v0.5c-0.1,0.1-0.1,0.2-0.1,0.3
	c-0.3,0-0.3,0-0.2,0.3c-0.1,0-0.2,0-0.4,0.1c0-0.1,0.1-0.1,0.1-0.2c0-0.1-0.1-0.1-0.2-0.2c0.2,0,0.4,0,0.4-0.1
	c0.1-0.1-0.1-0.1-0.1-0.2c-0.1-0.2-0.2-0.5-0.3-0.7c-0.1,0-0.1,0.1-0.2,0.1c0,0.2,0.1,0.4,0,0.7c0,0,0,0,0,0c0,0-0.1,0-0.1,0.1
	c0,0,0,0-0.1,0c0,0,0.1,0,0.1,0c0,0,0.1,0,0.1,0c0,0.1-0.1,0.2-0.1,0.4c0,0.1,0.1,0.1,0.1,0.3c-0.1,0.2-0.2,0.3-0.4,0.2
	c-0.1-0.2-0.1-0.2-0.3-0.2c0,0.2-0.1,0.4-0.1,0.5h0.4c0,0,0.1-0.1,0.3-0.1c0.1,0,0.1-0.1,0.3-0.2c0.1-0.1,0.3,0,0.4,0.1
	c0.1,0.1,0.1,0.1,0.1,0.1v0.1c0,0.1-0.1,0.2-0.1,0.3c0.1,0.2-0.1,2-0.1,2.2c-0.1-0.2-0.1-1.9-0.1-2c-0.1,0.1-0.2,1.8-0.3,2
	c0.1,0.1,0.1,0.1,0.1,0.2c0.2,0.1,0.4,0.1,0.4,0.2c0,0.2-0.1,0.2-0.2,0.2c0.1,0.2,0.1,0.4-0.1,0.6v0.2c0,0.1-0.1,0.4-0.1,0.5
	c-0.1,0.1-0.1,0.1-0.1,0.2c0,0.3-0.1,4.9-0.2,5.2c-0.2,0.1-0.3,0.4-0.4,0.7v0.1C23,77,23,76.6,22.9,76.8v0.1
	c-0.2,0.1-0.2-0.1-0.4,0.1c-0.1,0.1-0.1-0.4-0.1-0.2c0,0,0,0.1-0.1,0.1c-0.1,0.1-0.1,0.3-0.2,0.4c0,0-0.1-0.1-0.1-0.2
	c-0.1,0.1-0.1,0.1-0.1,0.1c0.1,0,0.1,0.1,0.1,0.1h0c0,0,0,0,0,0c-0.1,0.1-0.1,0.1-0.1,0.3v0.1c-0.3,0.4-0.3,2.4-0.3,2.8
	c-0.2,0.5-0.4,0.9-0.7,1.3v0.1c-0.2,0.1-0.4,0.3-0.4,0.6c0,0.2-0.1,0.4-0.1,0.7c-0.1,0.1-0.1,0.1-0.1,0.2c0,0.2-0.1,0.4-0.4,0.4
	c-0.1,0.1-0.1,0.3-0.1,0.4c0.1,0.1,0.1,0.2,0.1,0.3c-0.1,0-0.1,0-0.1,0.1c-0.1,0.2-0.1,0.5-0.1,0.7v0.1c-0.2,0.3-0.3,0.5-0.6,0.6
	c-0.1,0-0.3,0.1-0.4,0.2c-0.1,0.2-0.3,0.2-0.4,0.2c-0.2,0.1-0.3,0.1-0.4,0.1c0,0.1-0.1,0.1-0.1,0.2c0,0.1-0.1,0.2-0.3,0.2
	c-0.1,0-0.1,0.1-0.1,0.1c-0.2,0.1-0.6,0.4-0.9,0.1h-0.1c-0.4,0.1-0.9,0-1.1-0.1h-0.1c-0.2-0.1-0.5-0.2-0.7-0.4c0,0,0,0,0,0
	c0.3-0.3,0.7,0.4,1-0.1c-0.1-0.2-0.6,0-0.6-0.2c0.2,0,0.1-0.2,0.2-0.2c0.2,0.1,0.5,0.2,0.6-0.1c-0.2,0-0.1-0.4-0.4-0.4
	c0.1,0.3-0.3,0.2-0.4,0.4c0.1-0.4-0.1-0.4-0.1-0.7c-0.4-0.1-0.2,0.5-0.5,0.5c-0.1-0.2-0.3-0.4-0.4-0.6c0.1,0,0.1-0.1,0.1-0.1
	c0.1-0.1,0.1-0.1,0-0.2c-0.1-0.1,0-0.2,0-0.3c0.1,0.1,0.3,0.1,0.5,0.1c0-0.3-0.2-0.3-0.4-0.4v-0.1c0-0.1,0.1-0.3,0.1-0.4
	c0-0.1,0.1-0.1,0.1-0.1c-0.1-0.4,0.1-0.8,0.1-1.2v-8.1c0-0.2,0-1.3,0-2.3c0.2,0,0.3,0.1,0.2,0.3c1.4,0.7,2.5,0,4.1,0.3
	c0,0,0,0,0-0.1c0.1,0,0.2-0.1,0-0.3c0,0,0,0,0,0c0-0.1-0.1-0.2-0.2-0.3c-0.1,0.6-1.4,0.2-1.6-0.2c0.2-0.1,0.4-0.2,0.5-0.3h-0.3
	c0-0.1,0-0.2-0.2-0.2c0.2,0.6-0.5,0.8-0.6,0.3c0.3,0,0.4-0.1,0.5-0.3h-0.3c0-0.1,0-0.2-0.2-0.2c-0.1,0.4-0.1,0.9-0.6,0.9
	c0.1-0.6-0.7-0.5-1.2-0.3c0-0.7,0-1.3,0-1.5c-0.1-0.5-0.1-1-0.1-1.4v-1.2c0-0.3,0.1-0.5,0-0.7c0,0,0.1-0.1,0.1-0.2
	c0.1-0.1,0.1-0.3-0.1-0.4c-0.1,0-0.1-0.1-0.3-0.3h0.4c0-0.1,0.1-0.1,0.1-0.2c-0.1,0-0.1-0.1-0.2-0.1c-0.3,0.1-0.4,0-0.7-0.1
	c0,0,0,0,0-0.1c0.7,0.1,1.5-0.2,1.1-0.9c-0.5-0.1-0.5,0.9-0.8,0.5c0-0.2,0.3-0.1,0.3-0.3c-0.1,0-0.2,0-0.2-0.2
	c-0.2,0-0.2-0.1-0.3-0.2c0.2,0.4-0.2,0.3-0.5,0.3c0.1-0.2,0.1-0.3-0.1-0.4c-0.1,0.2-0.1,0.3,0,0.4c0,0,0,0.1,0,0.1
	c0.2,0,0.2,0.2,0.2,0.5c0,0,0.1,0,0.1,0c0,0.1,0,0.1-0.1,0.2c-0.1,0-0.1-0.1-0.2-0.1h0.1c0-0.1,0-0.2-0.1-0.3
	c-0.1,0-0.1,0.1-0.2,0.1c-0.1,0-0.1,0.1-0.1,0.2c-0.1,0.2,0.2,0.4,0.4,0.4c0,0,0,0,0,0.1c-0.1,0.2-0.2,0.3-0.1,0.4
	c0.2-0.1,0.4-0.4,0.5-0.4v-0.1c0.1,0,0.1-0.1,0.1-0.1l0.1,0.1c0.1,0.1,0.1,0.1,0,0.2c-0.1,0.1-0.1,0.2-0.3,0.3c0,0.1,0,0.1-0.1,0.1
	c-0.1,0-0.1-0.1-0.1,0.1h-0.1h-0.2v0.2c0.1,0.3,0.1,0.5-0.3,0.8c-0.1,0.1-0.1,0.2-0.1,0.4c0.1,0.2-0.1,0.4-0.2,0.4
	c0,0.1,0,0.1-0.1,0.1c0.1,0.1,0.1,0.1,0.2,0.3c0.1-0.1,0.1-0.2,0.4-0.2l0.1-0.1c-0.1-0.2,0.1-0.2,0.2-0.3c0.1,0.1,0.1,0.1,0,0.2
	c-0.1,0.1-0.1,0.1-0.1,0.2c-0.1,0.1-0.1,0.2-0.2,0.2c-0.3,0.1-0.4,0.3-0.6,0.5v0.1c0,0.1,0,0.1-0.2,0.2c0.1-0.2-0.3-0.2-0.2-0.5h0.1
	c0-0.1,0.1-0.1,0.1-0.1s0-0.1-0.1-0.1c0,0-0.1,0.1-0.1,0.1c-0.1,0-0.1,0.1-0.1,0.1s-0.1,0-0.1,0.1c-0.1,0.2-0.1,0.4-0.2,0.7
	c0,0.2,0.1,0.3,0.3,0.3c-0.1,0.1-0.3,0.1-0.4,0.2c-0.1-0.1-0.3,0.1-0.5,0c-0.1-0.1-0.3,0.1-0.4-0.1c0,0.3,0.1,0.5-0.3,0.6l0.1,0.1
	c0.1,0,0.3,0.1,0.5,0.1c-0.1,0.1-0.1,0.1-0.1,0.1c-0.1,0-0.1,0.1-0.1,0.1c-0.1,0.1-0.2,0.1-0.4,0.1c-0.1,0-0.1-0.1-0.1,0
	c-0.1,0.1-0.2,0.1-0.3,0.3c-0.1,0.1,0,0.2,0,0.4v0.1v0.1c-0.1,0.1-0.1,0.1-0.1,0H9.7c-0.1,0-0.1,0.1-0.1,0.1
	c-0.1,0.2,0.1,0.2,0.1,0.3c-0.1,0.1-0.1,0.1-0.3,0.1c-0.1,0-0.1,0.1-0.2,0.1c0,0.2-0.1,0.4-0.1,0.5H8.7c-0.1,0.1-0.1,0.3-0.1,0.5
	h0.1C8.7,74,8.7,74,8.7,74.1c0,0.1-0.1,0.3-0.1,0.4c0,0.1-0.1,0.1-0.2,0.2c0,0.1,0.2,0.3,0.1,0.5c-0.1-0.1-0.1-0.1-0.3-0.1
	c-0.1,0.2-0.2,1.9-0.3,2.2c-0.1,0.1-0.1,0.3-0.3,0.4c0,0.2-0.1,0.3-0.2,0.3c-0.1,0.1-0.1,0.2-0.1,0.3C7.2,78,7,77.8,6.9,77.8
	c0.2,0.3,0,0.5,0.2,0.6c0,0,0,0,0,0c-0.2,0.1-0.2,0.1-0.1,0.2c0,0.1-0.1,0.1-0.1,0.2c0.1,0,0.1,0,0.2,0.1C7,79,7,79,6.9,79.1
	c0,0,0.1,0,0.1,0.1c0,0,0.1,0,0.1,0.1c0,0-0.1,0.1-0.1,0.1c-0.3,0.2-0.5,0.4-0.7,0.7h0c0-0.1,0-0.1-0.2-0.1c0,0,0,0,0,0.1
	c0,0,0,0,0,0c0,0,0,0.1,0,0.1c-0.1,0-0.1,0.1-0.2,0.2c-0.1,0.1,0.1,0.1,0,0.2c-0.1-0.1-0.2,0-0.4,0c-0.3,0.1-0.3,0.2-0.5,0.1
	c-0.1,0-0.1-0.1-0.1-0.1c-0.1,0-0.1,0-0.1-0.1c0,0.2,0,0.2,0.1,0.3c-0.1,0.1-0.4-0.1-0.5-0.1c0-0.1,0-0.3,0-0.3
	C4.2,80.1,4.1,80,4,80c-0.3-0.1-0.5-0.3-0.9-0.2c-0.1,0-0.2-0.1-0.3-0.1c-0.1-0.1-0.3-0.2-0.6-0.3C2,79.2,2,79.3,1.7,79.2
	c-0.2-0.1-0.4-0.3-0.2-0.7h0.1c-0.1-0.1,0-1.6-0.1-1.6c0-0.1-0.1-0.1-0.1-0.1v0.1c-0.2,0-0.3,0-0.4-0.1c0-0.3-0.1-0.4-0.4-0.4
	c0,0,0-0.1-0.1-0.1c0,0,0,0,0,0c0.2,0,0.2-0.2,0.3-0.2c0,0.1,0.1,0.2,0.2,0.2c0.2-0.4-0.6-0.5-0.7-0.2c0.1,0,0.1,0.1,0.1,0.2
	c-0.2-0.1-0.3-0.3-0.4-0.5c0-0.1,0-0.4,0.1-0.4c0.1-0.1,0.1-0.1,0.1-0.2c0.2-0.3,0.3-0.6,0.3-0.9c0.1-0.2,0.1-0.4,0.1-0.6
	c0.1-0.1,0.1-0.2,0.1-0.4c0-0.1,0.1-0.1,0.1-0.1c0,0,0-0.1,0-0.3c0.1-0.1,0.1-0.3,0.1-0.4c0.3,0,0.6,0,1,0c-0.1-0.5-0.5-0.4-0.9-0.3
	c0-0.1,0-0.1,0-0.2c0-0.1,0-0.1,0-0.2c0.3,0,0.6,0,0.6-0.4c-0.3-0.1-0.4,0.1-0.5,0.1c0.1-0.2,0.1-0.4,0.2-0.5
	c0.1-0.3,0.1-0.7,0.2-0.8c0.1-0.3-0.6-0.5-0.4-0.7c0.1-0.2,0.1-0.3,0.1-0.4c0.2-0.7,0.4-1.2,0.6-1.7C2,67.1,2,66.8,2.1,66.5
	c0.1-0.4-0.5-0.8-0.3-1.2c0-0.1,0.1-0.1,0.1-0.2c0-0.4,0-0.9,0.1-1.3c0.1-0.2,0.1-0.4,0.2-0.7v-0.2c0.1-0.3,0.1-0.4,0.1-0.7
	C2.7,61.9,2,61.4,2.1,61c0.1-0.4,0.1-0.7,0.2-0.9c0.1-0.2,0.1-0.5,0.1-0.7c0.1-0.2,0.1-0.4,0.1-0.6c0.2-0.1,0.2-0.3,0.2-0.6
	c-0.1-0.2-0.1-0.5,0-0.8c0.1-0.3,0.1-0.5,0.1-0.9c0-0.1,0-0.1,0.1-0.2c0.1-0.7,0.2-1.4,0.5-2.2c0.1-0.3,0.1-0.7,0.2-1
	c0.1-0.4,0.1-0.7,0.2-1c0.1-0.5,0.2-1,0.3-1.4c0.1-0.3,0.1-0.5,0.1-0.7c0.1-0.4,0.1-0.7,0.2-1c0-0.2,0.1-0.4,0.1-0.4
	c0.1-0.3,0.1-0.7,0.3-0.9c0-0.1,0.1-0.1,0.1-0.2c0-0.4,0.3-0.7,0.4-0.9c0.1-0.4,0.2-0.9,0.3-1.4c0,0,0,0,0,0c0,0,0,0,0,0
	c0,0,0-0.1,0-0.1c0,0,0.1-0.1,0.1-0.1v-0.1c0.1-0.5,0.2-0.8,0.4-1.2c0-0.1,0-0.1,0.1-0.2C6.4,43.1,6.5,43,6.6,43
	c0-0.1,0-0.1,0.2-0.1l0.3-0.1L7,42.4c-0.3,0.2-0.4,0.3-0.6,0.3c0-0.1,0.1-0.3,0.1-0.4c0.1-0.4,0.1-0.6,0.1-1c0-0.2,0.1-0.4,0.2-0.6
	C7,40.5,7,40.3,7.1,40.1c0.1,0,0.1,0.2,0.1,0.3c0.2-0.1,0.3-0.2,0.2-0.4c0.1,0,0.2-0.1,0.2-0.1c0.2,0.1,0.3,0,0.3,0.1
	c0,0,0.2-0.1,0.3-0.1c-0.1,0-0.1-0.1-0.2-0.1c-0.2,0-0.4-0.1-0.6-0.4c0,0-0.1,0-0.1,0.1c0-0.1,0-0.1,0.1-0.2c0,0,0.1-0.1,0.1-0.1
	c0,0,0,0,0,0c0,0,0,0,0-0.1c0.1-0.3,0.1-0.5,0.1-0.8c0-0.1,0.1-0.3,0.2-0.3c0.1-0.1,0.1-0.1,0.1-0.3c0.1-0.2,0.3-0.4,0.6-0.3
	c0.2,0.1,0.4,0.1,0.7,0.4v-0.4c0-0.1,0.1-0.3,0.3-0.3c0.1,0,0.3,0,0.3,0.1c0.2,0.1,0.4,0.2,0.7,0.4l0.3,0.3c0.3,0.1,0.4,0.4,0.6,0.7
	c0.1,0.1,0.1,0.2,0.1,0.3c0,0.2,0.1,0.5,0.1,0.7c-0.3-0.2-0.6-0.2-1-0.1c0,0.3,0.1,0.5,0.3,0.5c0.1,0,0.1,0,0.2-0.1
	c0.1,0.1,0.3-0.1,0.5-0.1c0,0,0,0,0,0c0,0,0,0.1,0,0.1c0,0.1,0.1,0.2,0.1,0.3c0,0,0,0.1-0.1,0.1c0,0,0,0,0.1,0c0,0.1,0,0.2,0,0.2
	c-0.1,0-0.2,0-0.3,0.1c0.1,0.1,0.2,0.1,0.2,0.1c0,0.1-0.1,0.2-0.1,0.3v0c0,0-0.1,0-0.2,0c-0.3,0-0.4,0.1-0.6,0c0-0.1-0.1,0-0.1,0
	L10,41.2l-0.1,0.3c0.1,0,0.2,0.1,0.3,0c0.1,0,0.2-0.2,0.3-0.2l0,0.1c0.3-0.1,0.6-0.1,0.8-0.1v0.2c0,0.1-0.1,0.2-0.1,0.3
	s0,0.4,0.1,0.5c0,0.4,0.1,0.6-0.1,0.9v0.2c0,0.1,0,0.2-0.1,0.4c-0.2,0.4-0.2,1-0.3,1.6c-0.1,0.2-0.1,0.4-0.1,0.4c0,0.2-0.1,0.7,0,1
	c0,0.3,0,0.7,0.1,1c0,0.4-0.1,0.7-0.1,0.9c0,0.1-0.1,0.1-0.1,0.1c0.1,0.2-0.1,0.4-0.2,0.6v0.1c-0.1,0.4-0.2,0.9-0.4,1.2
	c0,0.2-0.1,0.4-0.1,0.7c0,0.4,0,0.7-0.1,1c-0.1,0.3,0.1,0.7-0.1,1c-0.1,0.4,0,0.7-0.1,1.1c-0.1,0.5-0.1,1.1-0.1,1.6
	c0,0.1-0.1,0.4-0.2,0.7c0,0.5-0.1,1.1-0.2,1.6c0,0.2,0,0.5-0.1,0.7c-0.1,0.1-0.1,0.4-0.1,0.7c0,0.2-0.1,0.4-0.3,0.7
	c-0.1,0.1-0.1,0.2,0,0.3v0.3c-0.1,0.3-0.1,0.7-0.1,0.9v0.4l0.1-0.1c0.2-0.1,0.3-0.1,0.4-0.1c0.1,0,0.2-0.1,0.3-0.2
	c0.1-0.2,0.2-0.4,0.4-0.4c0.2-0.2,0.4-0.4,0.4-0.5c0.1-0.2,0.1-0.3,0.3-0.4c0.1-0.1,0.2-0.2,0.3-0.5c0.1-0.1-0.6-0.3-0.3-0.4
	c0.2-0.1,1.1-1.7,1.1-1.8c0-0.1,0.1-0.1,0.1-0.2c0.1-0.1,0.2-0.1,0.2-0.2c0.1-0.2,1.9-3.2,2.1-3.4c0,0,0.1,0,0.1-0.1
	c0.1-0.1,0.3-0.1,0.5-0.2c0.1,0,0.1,0,0.1-0.1c0.1-0.3,0.2-0.4,0.4-0.4c0.1,0,0.3-0.7,0.4-0.7c0.3,0,0.4,0,0.6-0.1
	c0.1-0.1,0.4-1.5,0.7-1.3c0.1,0,0.3,0.1,0.3,0.1c0.1,0.2,0.1-0.7,0.4-0.7c0-0.2,0.2,0.7,0.2,0.5c0.2,0,0.3,0.1,0.4,0.2
	c0.1,0.1,0.1,0.2,0.3,0.2c0.1,0.1,0.1,0.7,0.3,0.8c0.1,0.1-0.8,5.2-0.8,6.1c0.1,0.1,0.1,2,0.3,2.1c0.1,0.1,0,0.3,0.1,0.3
	c0.2,0.1,0.3,0.1,0.3,0.2c0.1,0.1,0.1,0.1,0.1,0.1c-0.1,0.2-0.1,0.4-0.1,0.4v0.1c0,0,0.1,0,0.1-0.1c0.1,0,0.1-0.1,0.1-0.1
	c0.3-0.3,0.3-0.3,0.1-0.5c0.1-0.1,0.2-0.3,0.3-0.5c0.1,0,0.1-0.1,0.1-0.1c0-0.5,0.1-2.3,0.4-2.7c0.1-0.1,0.1-0.2,0.1-0.3
	c0-0.3,0.1-0.5,0.2-0.7c0.1-0.2,0.2-0.4,0.2-0.7l0.1-0.1c0.2-0.1,0.1-0.2,0.1-0.4c0-0.1,0.1-0.1,0.1-0.3c0.1-0.1,0.1-0.2,0.2-0.3
	c0.3,0,0.7,0.1,0.8-0.1c-0.2,0-0.5-0.1-0.7,0c0,0,0,0,0,0c0,0,0-0.1,0.1-0.1c0.1-0.1,0.1-0.3,0.3-0.4c0.4-0.4,0.4-0.7,0.4-1.2
	c0-0.2,0.1-0.4,0.3-0.7c0,0,0.1-0.1,0.1-0.2c0-0.1,0.1-0.1,0.1-0.2c0.1,0,0.1-0.1,0.1-0.2c0-0.1,0-0.2,0.1-0.3
	c0.2-0.1,0.3-0.3,0.3-0.5c0-0.1,0-0.4,0.1-0.6v-0.2c0.1-0.1,0.1-0.2,0.1-0.2c0-0.2,0.1-0.3,0.1-0.4c0.1,0,0.2-0.1,0.2-0.1
	c0.1-0.1,0.1-0.1,0.1-0.4c-0.1-0.1-0.1-0.1-0.2-0.1c0-0.1,0-0.1,0.1-0.4c0.1-0.3,0.2-0.7,0.4-0.9c0.1-0.2,0.1-0.4,0.1-0.7
	c0.1-0.1,0.2-0.1,0.2-0.3c0.1-0.1,0.1-0.3,0.1-0.4c0-0.1,0-0.3,0.1-0.4c0-0.1,0.1-0.1,0.1-0.1c-0.1-0.1,0-0.2,0.2-0.3v-0.3
	c0.1-0.1,0.1-0.4,0.2-0.5c0.1,0,0.1-0.2,0.1-0.3c0.1-0.4,0.1-0.7,0.1-1c0.1-0.3,0.1-0.6,0.1-0.8l0.1-0.1c0.1-0.2,0.1-0.4,0.1-0.5
	c0.1-0.4,0.1-0.6,0.1-1c0.1-0.2,0.2-0.4,0.4-0.7c0.1-0.1,0.1-0.5,0.2-0.7c0.1-0.4,0.1-0.7,0.2-1c0.1-0.1,0.1-0.4,0.1-0.7
	c0.1-0.1,0.1-0.1,0.1-0.2c0.2-0.1,0.4-0.4,0.5-0.7c0.1-0.4,0.1-0.8,0.1-1.2c0-0.2-0.1-0.2,0-0.4c0.1-0.4,0.3-0.8,0.4-1.2
	c0.1-0.2,0.1-0.5,0.1-0.7s0.1-0.2,0.1-0.4c0.1-0.3,0.4-0.5,0.2-0.8c0,0,0.1-0.1,0.1-0.1c0-0.3,0.1-0.5,0.1-0.7
	c0.1-0.3,0.2-0.5,0.2-0.8c0.1-0.2,0.3-0.4,0.2-0.7c0-0.1,0.1-0.3,0.2-0.4c0.1-0.1,0.1-0.1,0.1-0.2v-0.1c0.1-0.1,0.1-0.4,0.3-0.6
	v-0.1c-0.1-0.4,0-0.6,0.1-0.9c0.1-0.1,0.1-0.1,0.1-0.1c0-0.1,0.1-0.2,0.3-0.2v-0.1c-0.1-0.2-0.1-0.3,0-0.4c0.1-0.1,0.1-0.2,0.2-0.4
	h0.1c0-0.1,0-0.4,0.1-0.4c0-0.1-0.1-0.2-0.1-0.3c0.1-0.1,0.4-0.3,0.5-0.5c-0.1-0.1-0.1-0.2-0.3-0.4c0.2-0.3,0.2-0.3,0.5-0.1
	c0-0.1,0-0.1,0.1-0.2c-0.1-0.1-0.2-0.1-0.4-0.1c0.1-0.1,0.2-0.4,0.2-0.5c0-0.1,0.2-0.3,0.1-0.4c0.1-0.2,0.3-0.4,0.3-0.7
	c0-0.2,0-0.3,0.1-0.6c0-0.1,0.1-0.3,0.1-0.4c0-0.2,0.1-0.3,0.1-0.4c0-0.1,0.1-0.4,0.3-0.6c0.1-0.1,0.1-0.2,0.1-0.4
	c0-0.2,0.1-0.4,0.1-0.6c0-0.1,0.1-0.1,0.2-0.2c0-0.1,0-0.4,0.1-0.5l0.1-0.1c0-0.2,0.1-0.4,0.1-0.6c0.1-0.1,0.1-0.2,0.3-0.1
	c0-0.1-0.1-0.1-0.1-0.3c0-0.1,0.1-0.2,0.1-0.3c-0.1-0.1-0.1-0.2,0-0.4c0.1-0.1,0.2-0.2,0.3-0.4c0,0.1,0.1,0.1,0.1,0.2v-0.1
	c0-0.1-0.1-0.4,0-0.4c0-0.1,0.1-0.3,0.1-0.5v-0.1c0.1-0.1,0.3-0.1,0.4-0.1c0-0.1,0.1-0.2,0.1-0.4c-0.1,0-0.1-0.1-0.1-0.1
	c0.1,0,0.2-0.1,0.4-0.1c-0.1-0.1-0.1-0.1-0.2-0.2c0.1-0.1,0.1-0.2,0.1-0.2c-0.1-0.3,0.1-0.4,0.2-0.7c0.1,0,0.2-0.1,0.2-0.2
	c0-0.1-0.1-0.1,0-0.3c0.1,0,0.1-0.1,0.1-0.1c0.1,0,0.3,0,0.4-0.1v-0.1h-0.4c0.1-0.1,0.3-0.1,0.4-0.4c0.1-0.1,0.1-0.1,0.1-0.2
	c-0.1-0.1,0-0.1,0-0.1c0-0.2,0.1-0.3,0.1-0.4h0.1c0-0.1-0.1-0.1,0-0.2v-0.1c0-0.4,0.4-0.6,0.4-0.9c0.1-0.1,0.1-0.4,0.1-0.6
	c0.1-0.1,0.1-0.1,0.1-0.1c0.2-0.1,0.3-0.1,0.3-0.4v-0.1c0.1-0.1,0.1,0,0.1-0.2c0-0.1,0.1-0.1,0.1-0.4c0-0.1,0.1-0.2,0.2-0.3
	c0-0.1,0.1-0.3,0.1-0.4c0.1,0,0.1-0.1,0.1-0.1c0.1,0,0.1-0.1,0.1-0.3c0.1-0.1,0.1-0.1,0.3-0.1V8.2c-0.1-0.1-0.1-0.2,0-0.4
	c0.1-0.2,0.1-0.4,0.2-0.5c0.1-0.1,0.1-0.2,0.1-0.2c0.3-0.2,0.4-0.7,0.6-0.9c0.1-0.2,0.3-0.5,0.4-0.7c0,0,0-0.1,0.1-0.1
	c0-0.2,0.1-0.4,0.2-0.4c0.1-0.1,0.2-0.1,0.2-0.2c0-0.3,0.1-0.4,0.2-0.5c0.1-0.2,0.1-0.4,0.3-0.6c0.1-0.4,0.4-0.7,0.7-1
	c0.1-0.1,0.2-0.4,0.3-0.5c0.1-0.1,0.1-0.1,0.1-0.2c0.4-0.4,0.6-0.7,0.8-1.1c0.1-0.2,0.4-0.6,0.6-0.7C41.9,0.1,42.4,0,42.5,0
	c0.1,0.1,0.1,0.1,0.2,0.1c0.1,0.1,0.3,0.1,0.4,0.1c0.1,0,0.2,0,0.2,0.1c0.1,0.1,0.2,0.1,0.2,0.3c0.1,0.1,0.1,0.3,0.1,0.5
	c0,0.3-0.1,0.6-0.1,1c0,0.1,0,0.1,0.1,0.2c0,0.2,0.1,0.4,0,0.6c0,0.2,0.1,0.4,0.1,0.5l0.1,0.1c-0.1,0.3,0,0.5,0.1,0.8
	c0.1,0.2-0.1,0.6-0.5,0.6c-0.1,0-0.3,0-0.4-0.3c0,0.1-0.1,0.1-0.2,0.1c-0.1,0-0.1-0.1-0.2-0.1c-0.1,0.2-0.1,0.4-0.1,0.6h-0.2
	c-0.1,0.1,0,0.3-0.1,0.4C42,5.8,42,5.9,42,6.2c0,0.1,0.1,0.2,0,0.4c0,0.1,0,0.1-0.1,0.1V6.1c-0.1,0-0.4,0.1-0.4,0.1
	c0,0.1-0.1,0.2-0.2,0.5c0,0.1-0.1,0.2,0.1,0.4c0.1-0.1,0.2-0.1,0.4,0c-0.2,0.1-0.3,0.3-0.6,0.3c0,0-0.1,0-0.1,0.1
	c-0.1,0-0.1,0.1-0.1,0.1c0,0.1,0.1,0.3,0.1,0.4c-0.2,0.1-0.4,0.4-0.6,0.6c-0.1,0.1-0.1,0.2,0,0.3c-0.1,0.1-0.2,0.3-0.3,0.4
	c-0.1-0.1-0.3,0.1-0.5,0h-0.3c0.1-0.1,0.2-0.2,0.2-0.4c0.1-0.1,0-0.2,0-0.4c0.1,0,0.2,0,0.2-0.1c-0.1-0.1-0.1-0.1-0.5,0v0.3
	C39.4,9,39.2,8.9,39.1,9c0.2,0.1,0.4,0.3,0.3,0.5c-0.2,0-0.4,0-0.4,0.2C39,9.8,39,9.9,39,10c0,0.1,0,0.1-0.1,0.1
	c-0.1,0.1-0.4,0.1-0.5,0.1c0.1,0.1,0.1,0.1,0.1,0.2c-0.1,0-0.1,0-0.2,0.1c0.1,0.1,0.1,0.1,0.1,0.3c-0.2-0.1-0.2-0.1-0.1-0.2v-0.3
	c-0.1,0.2-0.3,0.2-0.4,0c-0.1,0-0.1,0.1-0.2,0.2c0.1,0,0.2,0.1,0.3,0.1c0,0.1-0.1,0.4-0.1,0.6c0.3,0.2,0.3-0.1,0.4-0.3
	c0,0.1,0.1,0.1,0.1,0.1c0.1,0.1,0.2,0.1,0.3-0.1c0.1-0.1,0.1-0.3,0.2-0.4c0.1,0,0.1,0.1,0.3,0.1c0.1-0.1,0-0.2,0-0.4
	c0.2,0,0.4-0.1,0.6-0.1c0.1,0,0.1-0.1,0.1-0.1C40,9.7,40,9.6,40,9.5c0.1,0.1,0.4,0.1,0.3,0.4c-0.1,0.1-0.2,0.1-0.3,0.2
	c0,0.3,0,0.3-0.3,0c-0.1,0.1-0.1,0.1-0.1,0.3c0,0.1,0,0.1-0.1,0.2v0.1h0.2c-0.1,0.3-0.2,0.5-0.5,0.5c0,0.2-0.1,0.4-0.1,0.6
	c0,0.1-0.1,0.2-0.1,0.3c0.4,0,0.1,0.4,0.3,0.4h-0.1c0,0.3,0.1,0.4-0.2,0.5c0.1,0.1,0.1,0.2,0.1,0.3C39,13.5,39,13.5,39,13.5
	c-0.1,0.1,0.1,0.1,0.1,0.2C39,13.7,39,13.8,38.9,14c0.1,0.1,0.2,0,0.2,0.1h0.1c0.1,0,0.2,0,0.2,0.1v0.3c-0.2-0.1-0.3-0.1-0.4-0.1
	l0.1,0.1c-0.1,0.1-0.1,0.1-0.2,0.1c-0.1-0.1-0.1-0.2-0.4-0.3c-0.1,0.1-0.1,0.1-0.1,0.2c-0.1-0.1-0.1-0.1-0.3-0.2
	c0.1-0.1,0.3,0,0.4-0.2c0-0.3-0.2-0.3-0.2-0.4c0.1-0.1,0.2-0.1,0.4-0.1c-0.1-0.1-0.2-0.3-0.3-0.4c0.1-0.1,0.1-0.1,0.3-0.1
	c0.1-0.2,0.2-0.4,0.2-0.6v-0.1c-0.1,0-0.4-0.1-0.5-0.1c0,0-0.1,0.1-0.1,0.1c0,0.1-0.1,0.1-0.1,0.1v-0.2c0.1,0,0.1-0.2,0.3-0.1
	c0.1-0.1,0.1-0.3,0.3-0.4c-0.3-0.1-0.5-0.2-0.7-0.3C38,11.6,38,11.9,38,11.9c0.2,0.2,0,0.4,0,0.6c0,0.1-0.1,0.1-0.1,0.2
	c-0.1-0.1-0.1-0.1-0.2-0.1c-0.3,0.1-0.1,0.4-0.1,0.5c-0.2,0.1-0.3,0.4-0.4,0.4c-0.1,0.1-0.1,0.1-0.2,0.1c-0.2,0-0.4-0.1-0.6,0.1h0.2
	c0.1,0,0.2,0.1,0.1,0.3l-0.1,0.1c0.1,0.1,0.2,0.1,0.1,0.3c-0.1,0-0.1,0.1-0.1,0.1c0.1,0.1,0.1,0.2,0,0.3C36.5,15,36.4,15,36.3,15
	h-0.1c-0.1,0.2-0.1,0.1-0.2,0c0-0.1,0.1-0.1,0-0.2c-0.1-0.1-0.1-0.1-0.4,0.1c-0.1,0.1-0.1,0.2-0.3,0.1c-0.1,0-0.1,0.1-0.2,0.1v0.2
	h0.1c0.1,0.1,0.1,0.2,0.1,0.2c0,0.1,0.1,0.3,0.1,0.3c0-0.2,0-0.3,0.1-0.3c0-0.1,0.1-0.1,0.3-0.1c0,0.1,0,0.1,0.1,0.1
	c0.1,0,0.1-0.1,0.1-0.3h0.6c0,0.2-0.1,0.4,0.1,0.6v0.2H36c0-0.1-0.1-0.1-0.1-0.1h-0.4c0,0.1,0,0.1,0.2,0.2c0.1,0.1,0.1,0.4,0.1,0.4
	c-0.1,0.1-0.1,0.1-0.3,0.1v-0.5c-0.1-0.1-0.2-0.1-0.4-0.3c-0.1,0.1-0.1,0.1-0.3,0.3V16c0,0.1-0.1,0.1-0.1,0.2
	c0.1,0.1,0.1,0.3,0.2,0.4c0,0.1-0.1,0.2,0,0.4c0.1-0.1,0.1-0.1,0.1-0.4h0.1h0.1c0.1,0.1,0.1,0.4,0.1,0.7c0.1,0.1-0.1,0.1-0.1,0.3
	h0.1v0.1c0,0.1-0.1,0.1-0.1,0.1c-0.1-0.1-0.2-0.1-0.4-0.1c0,0.1,0,0.2-0.1,0.3c0.1,0.1,0.1,0.1,0.1,0.1c0,0.1-0.1,0.3-0.2,0.4
	c0.1,0.1,0.1,0.1,0.2,0.2c-0.1,0.1-0.3,0.1-0.4,0.4c0.1,0.1,0.1,0.1,0.3,0.1c0,0,0.1,0,0.1,0.1c0,0,0,0.1-0.1,0.1c0,0-0.1,0.1-0.1,0
	c-0.1,0-0.2-0.1-0.4-0.1c-0.1,0-0.2-0.1-0.1-0.3c0.1-0.2,0-0.4-0.1-0.5C34,18.3,34,18.1,34,18c0.1-0.1,0.1-0.1,0.2-0.2
	c0.1-0.1,0.3,0,0.3-0.1c-0.1-0.1-0.2-0.1-0.2-0.1c-0.1-0.1-0.1-0.1-0.2,0c-0.1,0.1-0.1,0.1-0.1,0.2c0,0.1-0.1,0.1,0,0.2
	c-0.2,0.1-0.2,0.4-0.2,0.7l-0.1,0.1c0.1,0.2,0,0.3,0,0.4c0,0.2,0,0.4-0.1,0.6c-0.1,0.1,0,0.2,0,0.3c0,0,0.1-0.1,0.1-0.1v0.3h0.2
	v-0.4c0-0.1-0.1-0.1-0.1-0.4c0.3-0.1,0.3-0.1,0.4,0.1c0.1,0,0.1-0.1,0.4,0c0,0,0,0.1,0.1,0.1c0.2,0,0.2,0,0.1,0.1
	c-0.1,0.1-0.1,0.1,0,0.2c0.1,0,0.1-0.2,0.2-0.1c0,0.1-0.1,0.2-0.1,0.4h-0.1v-0.2h-0.3c0,0.2,0.1,0.4,0,0.5c0,0.1-0.1,0.2-0.3,0.2
	v0.2c0,0.1,0,0.1,0.1,0.1c0-0.1,0-0.1,0.1-0.2l0.1,0.1c0,0.1-0.1,0.3-0.1,0.4c0,0,0,0.1-0.1,0.1h-0.1c0-0.2-0.1-0.3-0.1-0.4h-0.2
	c0.1,0.1,0.1,0.1,0.1,0.2h-0.4c0,0.2,0,0.4-0.1,0.4c-0.1-0.1-0.1-0.1-0.2-0.2V21h-0.4c-0.1,0.1-0.1,0.1-0.1,0.2c0,0,0.1,0.1,0.1,0.2
	c-0.1,0.1-0.3,0.1-0.4,0.1c0.2,0.1,0.4,0.1,0.5,0.1v-0.1c0-0.1,0.1-0.1,0.1-0.1c0.1,0.1,0.2,0.1,0.2,0.2c0,0-0.1,0.1-0.2,0.2
	c0.1,0,0.2,0,0.3,0.1c0.1-0.1,0.1-0.4,0.2-0.3v0.4c0.1,0.1,0.1,0.1,0,0.3c-0.3-0.1-0.5,0-0.7,0.1c0.1,0.1,0.1,0.1,0.2,0.1
	c0.1-0.1,0.1-0.1,0.2-0.1h0.1h0.1c0.1,0.1-0.1,0.1-0.1,0.2c0,0.1,0.1,0.1,0.1,0.2c-0.1,0.1-0.1,0-0.1-0.1c-0.1,0.1-0.1,0.1-0.2,0.3
	c0.2,0.2,0,0.4,0,0.5c-0.3,0-0.4,0.2-0.5,0.3v-0.2c-0.1-0.1-0.2-0.1-0.3-0.1c0,0.4-0.2,0.8,0.1,1.1c-0.1,0.3,0.1,0.4,0.2,0.6
	c-0.2-0.1-0.4-0.1-0.5-0.1v0.1h0.2v0.1c0,0.1-0.1,0.2-0.1,0.2c0,0.1,0.1,0.1,0.1,0.2c-0.1,0-0.2,0.1-0.3,0.1v-0.3
	c-0.1,0-0.3,0-0.3,0.1l-0.1,0.1c-0.1,0-0.1,0-0.1,0.1c0.1,0,0.2,0,0.4,0.3c0,0,0.1,0.1,0.2,0.1c-0.1,0.1-0.1,0.1-0.2,0.1
	c-0.2-0.1-0.4,0.1-0.4,0.3v0.1c0.1,0.1,0.2,0,0.2-0.1c0.2,0.1,0.4,0.1,0.4,0.2c0.1,0.1-0.1,0-0.1,0.1c0,0.1-0.1,0.1-0.1,0.1
	c-0.1,0.1-0.2,0.1-0.3,0.1c0,0.1-0.1,0.1-0.1,0.2c0.2,0,0.1,0.2,0.4,0.3c0.1,0,0.1,0,0.1,0.3C32,28.1,32,28,31.9,28
	c-0.1-0.1-0.2,0-0.3,0.2c0,0.1-0.1,0.2-0.1,0.4l0.1,0.1c-0.1,0-0.1,0.1-0.1,0.1v0.6c-0.2,0.1-0.3,0.1-0.4,0.2
	c0.1,0.1,0.1,0.1,0.5,0.1c0,0.2,0,0.2-0.2,0.3h-0.1c0.1,0.1-0.2,0-0.2,0.2c0.1,0,0.2,0.1,0.3,0.1v0.1c-0.1,0-0.3-0.1-0.4-0.1
	c-0.1-0.1-0.1-0.2-0.1-0.4h-0.2c0,0.1-0.1,0.1,0,0.2c0.1,0.1,0.2,0.2,0.4,0.4v0.1c0.1,0,0.2-0.1,0.4-0.1c0,0.1,0.1,0.1,0.2,0.1v0.1
	c-0.2,0.1-0.4,0.1-0.4,0.1c-0.1,0.1-0.1,0.1-0.1,0.1c0.1,0.1,0.2,0.1,0.4,0.2c-0.1,0.1-0.1,0.1-0.3,0.1c0,0.1,0,0.1-0.1,0.2v-0.1
	h-0.2c-0.2,0.1-0.2,0.1-0.4-0.1c0,0.1,0,0.2,0.1,0.3c0.1,0.1,0.1,0.1,0.1,0.3c-0.1,0.1,0,0.2,0.1,0.4c-0.1,0.1-0.2,0.2-0.3,0.4
	c-0.2,0.1-0.2,0.2-0.1,0.4c0,0.1,0.1,0.1,0.1,0.1c-0.1,0.1-0.2,0.1-0.2,0.2c0,0.1,0.1,0.1,0.2,0.1c-0.2,0.3-0.2,0.4-0.1,0.7
	c-0.1,0.1-0.2,0.1-0.3,0.2c0,0.1,0.1,0.1,0.3,0.1c0.1,0.1,0.1,0.1,0.1,0.1c-0.1,0.1-0.1,0.2-0.3,0.2c-0.1-0.2-0.2-0.4-0.3-0.5
	c-0.4-0.1-0.4,0.1-0.6,0.3c0.1,0.1,0.1,0.2,0.1,0.1c0.1,0,0.1-0.1,0.3-0.1c0.1-0.1,0.1-0.1,0.2-0.1c0.1,0.2,0,0.3,0,0.3
	c-0.1,0.1-0.2,0.1-0.4,0.3c0.2,0,0.4,0,0.4,0.1c0,0,0.1,0.1,0.1,0.1c0.2,0,0.3,0.1,0.4,0.1c-0.1,0.1-0.1,0.2-0.1,0.2
	c-0.2-0.1-0.4-0.1-0.4-0.1c-0.1,0.1-0.1,0.1-0.1,0.2c0,0,0.1,0.1,0.1,0.2h-0.1c-0.1,0.1-0.1,0.1-0.2,0.1c0.2,0.4,0.1,0.4-0.2,0.5
	c0,0.2,0,0.2-0.4,0.2c0,0,0,0.1-0.1,0.1c0.1,0.1,0.3,0.1,0.4,0c0.1-0.1,0.3-0.1,0.5,0c0,0.2,0,0.3-0.1,0.4c-0.2,0.1-0.2,0.4-0.2,0.7
	c0,0,0.1,0.1,0.1,0.1c0.1-0.1,0.2-0.1,0.2-0.2c-0.1-0.1-0.2-0.1-0.3-0.1c0.1,0,0.1-0.1,0.1-0.3c0.1,0.1,0.2,0.3,0.4,0.4
	c0.1,0,0.1-0.1,0.1-0.3c0.1-0.1,0.4,0.2,0.4-0.1c0.1,0.1,0.1,0.1,0.2,0.1c0.1-0.1,0.2-0.2,0.2-0.3c0.1,0.1,0.2,0.1,0.4,0.2
	c0.1,0.1,0.1,0.4,0,0.4c-0.1,0-0.4,0-0.4-0.1c-0.1-0.1-0.2-0.1-0.3-0.1h-0.1c-0.1,0-0.4,0.1-0.5,0.2h-0.1c-0.1,0.1-0.1,0.2-0.1,0.2
	c-0.2,0.1-0.3,0.3-0.4,0.2c-0.1,0-0.2,0-0.3,0.1c-0.1-0.1-0.2-0.4-0.4-0.3c0.1,0.3,0.1,0.3-0.1,0.4c0,0.1,0.1,0.3,0.2,0.6h-0.2
	c0,0.2-0.2,0.4,0,0.6c0.1,0,0,0.1,0,0.2c-0.4,0.1-0.4,0.2-0.2,0.6c-0.1,0.1-0.2,0.1-0.4,0.2c0.1,0.1,0.1,0.1,0,0.3
	c0,0.1,0,0.1,0.1,0.3c-0.1,0-0.1,0.1-0.1,0.1c-0.1,0.1-0.1,0.2,0.1,0.3C28,42,28,42.1,28,42.3c0,0,0,0,0,0v0H28c0,0,0.1,0.1,0.1,0.1
	c-0.1,0.2-0.1,0.4,0,0.5c0.1,0,0.1,0.1,0.1,0.1c0,0.1,0.1,0.1,0.1,0.1c0-0.1,0.2-0.1,0-0.3l0.1-0.1h0.1c0.1,0.1,0.1,0.2,0.1,0.4h0.2
	c0,0,0.1,0.1,0.1,0.2c0-0.1,0-0.1,0-0.2c0,0,0.1,0,0.1,0c0-0.1,0-0.1,0-0.1c0-0.1,0-0.1,0.1-0.1c-0.1-0.1-0.1-0.2-0.2-0.2
	c0,0,0,0,0,0c0-0.1,0.1-0.1,0.2-0.1C29,42.3,29,42.2,29,42.1c-0.1,0-0.1,0-0.2,0.1c0.1-0.1,0.4-0.1,0.4-0.4c0.1,0,0.1,0,0.2-0.1
	l-0.1-0.1c-0.4-0.2-0.4-0.2-0.4-0.5v-0.3c0-0.1,0.1-0.1,0.2-0.1v-0.1h-0.2c0.1-0.1,0.1-0.1,0.2-0.1h0.1c0,0.1,0.1,0.1,0.1,0.3
	c0,0.1,0.1,0.2,0.2,0.2c0,0,0,0,0,0l0.1,0.1h0.1c0,0,0,0,0,0c0,0,0.1,0,0.2,0c0.1-0.3,0.1-0.5,0.1-0.8c0.1,0,0.2-0.1,0.4-0.1
	c-0.1-0.1-0.3-0.1-0.4-0.1v-0.4c0.1-0.1,0.4,0.1,0.7,0c0.1-0.1-0.1-0.3-0.1-0.4c0.1-0.1,0.2-0.2,0.2-0.3v-0.2c0,0,0.1-0.1,0.2-0.1
	c0,0.2,0.1,0.4,0.1,0.6c-0.1,0.1-0.1,0.2-0.1,0.3c0.1,0.1-0.1,0.4,0,0.4c0.1,0,0.1-0.1,0.2-0.1c0,0.1,0.1,0.1,0.1,0.1
	c0,0,0.1,0.1,0.2,0.1c0.1,0,0.1,0.1,0.1,0.2c-0.1,0-0.1,0.1-0.1,0.1c0,0.1-0.2,0.1-0.2,0.1c-0.1-0.3-0.3-0.2-0.4-0.1
	c0-0.1,0-0.1-0.1-0.2c-0.1,0-0.1,0-0.1,0.2c0,0.1-0.1,0.1,0,0.1c0.1,0.1,0.3,0,0.3,0v0.2c0,0-0.2,0.1-0.4,0.1c0,0.1,0.1,0.2,0.1,0.2
	c-0.1,0.1-0.1,0.1-0.1,0.1c-0.1,0,0,0.1,0,0.1c0-0.1,0.1-0.1,0.1-0.1c0.1-0.1,0.1-0.2,0.2-0.2V41h0.4c0-0.1,0-0.1,0.1-0.1
	c0.1,0.1,0.1,0.1,0.1,0.2c-0.1,0-0.1,0.1-0.1,0.1c0.1,0.3-0.1,0.5-0.3,0.7c0.1,0,0.1,0.2,0.3,0.3c0.1,0.1,0.1,0.2,0,0.4
	c-0.2,0.2-0.2,0.4-0.2,0.4c0.1,0.1,0,0.4,0,0.5c0,0.1-0.1,0.1-0.1,0.1v-0.3c0-0.2,0.1-0.3,0-0.4v-0.1c0-0.1,0.1-0.1,0.1-0.3
	c0-0.1,0-0.1-0.1-0.2c0,0-0.1,0-0.1,0.1c-0.1,0.1-0.1,0-0.2-0.1c-0.1,0.3-0.2,0.5-0.4,0.6c-0.1-0.3-0.3-0.2-0.4-0.2l0,0c0,0,0,0,0,0
	l0,0v0c0,0-0.1,0.1-0.1,0.1c0.1,0.1,0.4,0.1,0.7,0.1c0,0-0.1,0.1-0.1,0.1c0.1,0,0.1,0.1,0.1,0.1c0.1,0,0.2,0.1,0.1,0.3
	c-0.2,0.2-0.1,0.4,0,0.6c0.1,0,0.1,0,0.1,0.1c-0.1,0-0.1,0.1-0.2,0.1c0,0.1,0.1,0.1,0.1,0.2c-0.2,0.2-0.2-0.1-0.3-0.1
	c-0.1,0.1-0.3,0.1-0.4,0.1c0,0.1,0,0.2,0.1,0.2c0.1,0,0.3,0,0.3,0.1c-0.2,0.1-0.3,0.1-0.4,0.1c-0.1,0.1-0.2,0.3-0.4,0.4
	c0.2,0.3,0.1,0.7-0.1,0.9c0.1-0.1,0.1-0.1,0.3-0.1c0.1,0.1,0.1,0.2,0,0.4c0,0.1-0.1,0.1-0.2,0.1c-0.2,0.1-0.2,0.2-0.1,0.4
	c0.1,0.1,0.1,0.1,0.1,0.2v0.1c0,0.1,0.1,0.1,0.1,0.3c0,0.1,0,0.1-0.1,0.1c0,0.1-0.1,0.1-0.1,0.1c0,0.3,0,0.3-0.1,0.4
	c-0.2,0.1-0.2,0.1,0,0.4c-0.1,0.2-0.2,0.3-0.1,0.4c0.1,0,0.1-0.1,0.2-0.1v1.2c-0.3-0.1-0.2-0.3-0.2-0.4c-0.1-0.1,0-0.4,0-0.6
	c-0.1-0.1-0.3-0.1-0.3,0.1c0,0.2,0,0.4,0.1,0.5c0,0,0,0.1-0.1,0.1V50c0.1,0.1,0,0.2,0,0.3c0,0.1,0.2,0.3,0,0.4
	c0,0.1,0.2,0.2,0.3,0.3C29.1,51,29,51,28.8,51v-0.1c-0.1-0.1-0.1-0.2-0.3-0.1c-0.1,0.1-0.1,0.4,0.1,0.4c0.1,0.1,0.1,0.1,0,0.3
	c0,0.1,0,0.3,0.1,0.4c0-0.1,0.1-0.1,0.1-0.2l0.1-0.1c0.1,0.1,0.2-0.1,0.3-0.1c0-0.1-0.1-0.2-0.1-0.4c0.1,0.1,0.1,0.1,0.2,0.2
	c-0.1,0.1-0.1,0.2-0.1,0.4c0,0.1-0.1,0.2-0.1,0.3h-0.4V52h-0.1c-0.2,0-0.4,0.1-0.5,0.4v0.1c0.1,0.1,0.2,0.1,0.2,0.2
	c0,0.1-0.1,0.3-0.1,0.3c-0.1,0.1-0.1,0.1-0.1,0.2c-0.1,0-0.1,0-0.1-0.1C28,53,28,53,27.8,53.2v0.1c-0.1-0.1-0.1-0.1-0.2-0.2
	c-0.1,0.1-0.2,0.2-0.3,0.4h0.4c0.1-0.1,0.2-0.1,0.4,0c-0.1,0-0.1,0.1-0.2,0.1v0.2V54c0,0-0.1-0.1-0.2-0.1c0,0-0.1-0.1-0.1-0.1
	c-0.1-0.1-0.1-0.1-0.2,0.1c0.1,0.1,0.1,0.1,0.2,0.1c-0.1,0.2-0.2,0.3-0.4,0.3c-0.1,0.1-0.2,0.2-0.2,0.5c-0.1,0-0.1-0.1-0.1,0
	c-0.1,0-0.2,0-0.2,0.1l0.1,0.1c0.2,0.1,0.2,0.1,0.1,0.2l0.1,0.1l0.1,0.1h-0.1h-0.2h-0.1c0.2,0.1,0.3,0.2,0.4,0.3
	c-0.1,0.1-0.1,0.1-0.2,0.2c-0.1,0.1-0.2,0.1-0.3,0.3c-0.1,0.2-0.1,0.6-0.2,0.8c-0.1,0.1-0.1,0.3,0.1,0.4c0,0.1,0,0.1,0.1,0.1
	c-0.1,0.1-0.1,0.1-0.2,0.1V58c0.1,0.2,0,0.5,0,0.7v0.1c0,0.1-0.2,0.3-0.3,0.2c-0.1-0.1-0.1-0.1-0.3,0c0.1,0.1,0.1,0.1,0.2,0.3
	c0-0.1,0.1-0.1,0.1-0.1h0.2c0.1,0.1,0.2,0.3,0.4,0.4c-0.1,0.1-0.1,0.1-0.2,0.2c0,0,0.1,0.1,0.1,0.1c0.1-0.1,0.4-0.4,0.5-0.6
	c-0.1-0.1-0.4-0.1-0.4-0.2c-0.1-0.1-0.1-0.1-0.1-0.3c0-0.1,0-0.2-0.1-0.4c0.2,0.1,0.3,0.1,0.5,0.2c-0.1,0.1-0.1,0.2-0.2,0.3
	c0.2,0.1,0.3,0.1,0.4,0c0-0.1,0.1-0.4,0.1-0.5c0-0.1,0-0.2,0.1-0.2c0.1-0.1,0.2-0.1,0.2-0.2c0.1-0.1,0.1-0.1-0.2-0.4l0.1-0.1
	c0.2,0,0.3-0.1,0.4-0.2c0-0.1,0.1-0.1,0.1-0.3c0.1-0.1,0.1-0.1,0.1-0.4c0-0.2,0.1-0.4,0.2-0.5c0.1-0.1,0.2-0.1,0.4-0.1
	c0.1,0,0.1,0,0.1,0.1c0.1,0.1,0,0.1-0.1,0.1C28.2,56.3,28.2,56.4,28.2,56.5 M29.8,42.5C29.8,42.6,29.9,42.5,29.8,42.5
	C29.8,42.4,29.8,42.4,29.8,42.5 M29.3,43.1h0.3c0.2,0,0.2,0,0.2,0.2c0,0,0,0,0,0c0,0,0,0,0,0c0,0,0-0.1,0.1-0.1c0,0,0,0,0-0.1
	c0,0-0.1-0.1-0.1-0.1c0,0,0,0,0,0c-0.1,0-0.3,0.1-0.4-0.1c0,0-0.1,0-0.1,0.1V43.1z M28.8,44.4c0-0.1,0.1-0.1,0.1-0.2l-0.1-0.1
	C28.8,44.1,28.8,44.3,28.8,44.4 M28.8,44.9h0.1C28.8,44.8,28.8,44.8,28.8,44.9 M28.2,45.7c0.1,0,0.2,0.1,0.4,0.1h0.1
	c-0.1-0.1-0.1-0.2-0.1-0.4c0,0,0,0,0,0c0,0,0-0.1-0.1-0.1c0,0,0.1,0,0.1,0c0.1,0,0.2,0,0.2-0.1c0,0,0-0.1,0-0.1h-0.4
	c0,0.1-0.1,0.1-0.1,0.2C28.4,45.4,28.4,45.5,28.2,45.7 M29.2,33.9l0.4-0.2c0,0,0-0.1-0.1-0.2l0.3-0.1c-0.3,0-0.4,0-0.5,0
	C29.3,33.6,29.2,33.7,29.2,33.9 M28.8,36.4c-0.1,0-0.1,0-0.1,0.2C28.8,36.6,28.8,36.6,28.8,36.4 M28.4,35.6c0,0.1,0.1,0.2,0.1,0.2
	c0,0.1,0.1,0,0.2,0c0.1,0,0.2-0.2,0.1-0.3L28.4,35.6z M26.6,50.5c0-0.4,0-0.4-0.1-0.3C26.4,50.3,26.5,50.3,26.6,50.5 M26.9,49.3
	h-0.2h0h0v0v0.2h0h0.2V49.3z M26.8,48.3c0-0.1-0.1-0.1-0.2-0.1c0,0,0,0-0.1,0c0,0,0,0.1,0,0.1c0,0.1,0,0.1,0.1,0.2
	C26.7,48.5,26.8,48.4,26.8,48.3 M26.5,46.1c0.4,0,0.4-0.1,0.4-0.3h-0.3C26.7,46,26.4,46,26.5,46.1 M27.3,47.4
	C27.9,47.1,26.9,47.1,27.3,47.4 M27.6,49.8c-0.1,0-0.1,0.1-0.2,0.1c0.1,0.1,0.1,0.2,0.3,0.3C27.7,50.1,27.5,50,27.6,49.8 M27.7,47.9
	c-0.1,0.2-0.1,0.4-0.2,0.4c-0.1,0,0,0.1-0.1,0.1v0.4l0.2,0.2c0.1-0.1,0.1-0.1,0.1-0.2c0-0.1-0.1-0.2-0.1-0.3h0.1
	c0-0.3,0.1-0.5,0.2-0.7C27.8,47.7,27.8,47.8,27.7,47.9 M28,47.1h-0.1c0-0.1-0.1-0.1-0.1,0c0,0,0,0,0,0c0,0,0,0.1-0.1,0.1
	c-0.1,0.1-0.1,0.3-0.1,0.5C27.7,47.5,27.8,47.5,28,47.1 M27.8,46.4C27.7,46.3,27.7,46.3,27.8,46.4c-0.2,0-0.2,0-0.2,0.1
	c0,0.1,0,0.1,0,0.1c0,0,0,0,0,0c0,0.1,0.1,0.1,0.1,0.1h0.1C27.9,46.5,27.9,46.5,27.8,46.4 M27.8,38.5c0,0.2,0,0.4,0.1,0.5
	c0,0,0,0,0,0c0,0,0.1,0,0.1-0.1c0,0,0,0,0,0c0-0.1,0-0.2,0.1-0.3C28.1,38.4,28,38.6,27.8,38.5 M28,37.5c0.1-0.1,0-0.1-0.2-0.1v0.2
	C28,37.5,28,37.5,28,37.5 M27.8,35.5l0.1,0.3c0.2-0.1,0.2-0.3,0.2-0.3C28,35.3,28,35.4,27.8,35.5 M27.7,36.2
	C27.6,36.2,27.6,36.2,27.7,36.2c0.3,0,0.3-0.1,0.4-0.2C27.8,36,27.7,36.1,27.7,36.2l-0.1-0.3C27.5,36,27.5,36,27.7,36.2 M27.4,45.8
	c0.1,0.1,0.1,0.1,0.1,0.2c0.3-0.1,0.3-0.2,0.2-0.5C27.7,45.7,27.5,45.7,27.4,45.8 M27.2,44.3c-0.1,0-0.2,0.1-0.1,0.2
	c0.1,0,0.2,0.1,0.4,0C27.4,44.3,27.2,44.3,27.2,44.3 M27.1,40c-0.1,0.1-0.1,0.1-0.1,0.2v0.1C27,40.3,27.1,40.3,27.1,40 M26.8,39
	c0.1,0.1,0.1,0.1,0.2,0H26.8z M26.8,40.4c0.1,0.1,0.1,0.1,0.1,0H26.8z M26.4,40.6c0.1,0.1,0.1,0.1,0.2,0.2c0-0.1,0.1-0.1,0.1-0.2
	C26.7,40.6,26.6,40.5,26.4,40.6L26.4,40.6z M26.4,41.4c0,0.1,0.1,0.1,0.1,0.1h0.1c-0.1-0.1,0.2-0.3,0.2-0.4c0-0.1,0-0.1-0.1-0.1
	h-0.1C26.5,41.2,26.4,41.2,26.4,41.4 M26.4,44.3h0.4c0-0.1-0.1-0.2-0.1-0.2h-0.1C26.5,44.1,26.3,44.1,26.4,44.3 M26.4,46.7
	c0.1,0,0.1,0.1,0.1,0.1c0.1,0,0.1-0.1,0.3-0.1c0-0.1,0-0.1,0.1-0.1v-0.1c-0.1-0.1-0.1-0.1-0.2-0.1c0.1,0,0.1,0.1,0.1,0.1
	C26.7,46.5,26.5,46.5,26.4,46.7 M26.3,50c0.3,0,0.4-0.1,0.3-0.3c0-0.1-0.1-0.1-0.1-0.2c-0.1-0.1-0.1-0.1-0.2-0.2
	C26.4,49.7,26.4,49.6,26.3,50 M25.9,43c0.1,0,0.2,0.1,0.2,0.1C26.2,42.9,26.2,42.9,25.9,43 M26.2,54.9c-0.2,0-0.2-0.2-0.4-0.1
	C25.6,55,26.2,55.1,26.2,54.9 M10.3,42.7c0.1,0,0.2-0.3,0.4-0.3c0-0.1-0.2-0.1-0.3-0.2C10.4,42.4,10.3,42.5,10.3,42.7 M1.2,75.1
	C2,74.8,0.8,74.7,1.2,75.1 M9.7,42.1c0.1,0.3-0.5,0.1-0.5,0.4c0.3,0.2,0.4-0.3,0.9,0C10.2,42.1,9.8,42.2,9.7,42.1 M9.8,39.9
	c0.1,0,0.2,0.1,0.3,0.1c-0.1,0-0.1,0-0.2,0.2c0,0,0.1,0.1,0.2,0.1c0.1,0,0-0.1,0-0.2c0,0,0,0,0.1,0c0-0.1-0.1-0.2-0.1-0.2
	C10.1,39.8,10,39.8,9.8,39.9 M9.5,41.7c0.4-0.2,0.4-0.2,0.2-0.3C9.7,41.4,9.7,41.5,9.5,41.7 M8.4,38.6c0.2,0.4,0.1,0.6,0.4,1
	c-0.1,0.1-0.2,0.2-0.4,0.3L8.4,40c0.2,0,0.5-0.1,0.7-0.1c0-0.1,0-0.2,0-0.3c-0.1-0.2-0.2-0.1-0.2-0.2c-0.1,0-0.1,0-0.1,0
	c0.1-0.1,0.2-0.1,0.2-0.3c-0.4,0.1-0.4-0.2-0.2-0.4C8.7,38.7,8.5,38.6,8.4,38.6 M8.2,40.5c0.1,0.3,0.3,0.3,0.5,0.2c0,0,0,0.1,0,0.1
	l0.1-0.1L8.9,41l0.3-0.1L9,40.6l0,0c0,0,0,0,0,0l0,0l0,0c-0.1-0.1-0.2-0.1-0.2-0.1c0-0.1,0.1-0.2,0.1-0.3
	C8.5,40.5,8.6,40.4,8.2,40.5 M8.1,41.6c0.4,0,0.6-0.3,0.7,0.1c0,0,0,0-0.1,0c0,0,0,0-0.1,0c0,0,0,0,0,0c-0.2,0-0.1,0.3-0.2,0.4
	c0,0,0.1,0,0.1,0c0,0,0,0,0,0c0,0,0.1,0,0.1-0.1c0.1,0,0.2-0.1,0.3-0.2c0,0,0,0,0.1,0c0,0,0,0,0,0c0.1-0.2,0.2-0.5,0.4-0.6
	c-0.6,0-0.8,0.3-1.1-0.1C8.2,41.3,8.2,41.5,8.1,41.6 M6.3,47.6c-0.1,0.2-0.1-0.1-0.2-0.1c0,0.3-0.6-0.1-0.4,0.4
	C6.1,47.7,6,48,6.3,48.1C6.1,47.8,6.6,47.6,6.3,47.6 M6.4,54.5c0.3,0,0.8,0.1,0.9-0.2C6.9,54.3,6.3,54,6.4,54.5 M7,53.8
	c-0.2,0-0.2-0.3-0.5-0.4C6.3,53.8,6.8,54.1,7,53.8 M8,52.4c-0.2-0.6-0.9-0.3-1.2,0C7.1,52.6,7.5,52.5,8,52.4 M8.3,51.3
	c-0.3-0.2-2.1-0.5-2,0.5C7,51.8,8.1,52,8.3,51.3 M6.8,50.8c-0.2,0-0.3,0.1-0.4,0.2C6.6,51,6.7,50.9,6.8,50.8 M7.7,41.1
	c0.4-0.2,0.4-0.2,0.2-0.3C7.9,40.9,7.9,40.9,7.7,41.1 M7.6,42.3c0.1-0.1,0.1-0.1,0-0.3C7.6,42.2,7.6,42.2,7.6,42.3 M7.7,50.9
	C7.3,50.6,7.2,51.4,7.7,50.9 M6.9,47.7c-0.1,0.4,0.5,0.5,0.6,0.2C7,48.1,7.3,47.6,6.9,47.7 M6.9,45.2c0-0.1-0.1-0.1-0.1,0
	c0.2,0,0.2,0.2,0.5,0.1c0-0.1,0-0.3-0.1-0.4C7.1,45.1,7.1,45.2,6.9,45.2 M5.9,44.3c0.4-0.1,0.7,0.1,1-0.2
	C6.5,44.1,5.9,43.9,5.9,44.3 M5.5,47.1c0,0.1,0,0.3,0.1,0.4c0-0.1,0.2-0.1,0.4-0.1c0.1-0.4-0.1-1.1-0.4-0.6c0.1,0,0.3,0.5,0.1,0.5
	C5.7,47.2,5.6,47.1,5.5,47.1 M6.1,51.2C4.4,51.1,6,52.6,6.1,51.2 M5.2,60.9h0.2v-0.2H5.2V60.9z M4.6,52.5c0.1,0.3,0.6-0.1,0.2-0.2
	C4.9,52.4,4.7,52.4,4.6,52.5 M4.8,53.1c0,0.1-0.2,0.3,0,0.4C4.8,53.4,5,53.2,4.8,53.1 M3.9,52.5c0.3-0.2,0.4,0.5,0.5,0.1
	c-0.3,0,0-0.4,0-0.5C4.1,52.1,4.1,52.4,3.9,52.5 M3.9,53.3c0.2,0,0.3-0.1,0.4-0.2C4.1,53,3.9,53,3.9,53.3 M3.8,57.8H4
	c0.1,0,0.1,0,0.1-0.1c-0.2,0-0.1-0.2-0.2-0.2C3.9,57.6,3.8,57.6,3.8,57.8 M3.8,61.5c0.2,0,0.4-0.1,0.5-0.2C4,61.2,3.8,61.2,3.8,61.5
	 M3.3,62.2c0.3,0.3,0.6,0,0.6-0.4C3.6,61.9,3.5,62.1,3.3,62.2 M4.3,74.5C3.5,74.3,4,74.8,4.3,74.5 M3.9,67.2c-0.3,0-0.5,0-0.5,0.2
	C3.6,67.5,4,67.6,3.9,67.2 M2.7,67.4c0.4,0.2,0.9-0.4,0.6-0.1C3,67.2,2.8,67,2.7,67.4 M1.9,68.5c0,0.3,0.2,0.5,0.5,0.5
	c0.2-0.3,1,0,1.5-0.5C3,68.4,2.8,68.4,1.9,68.5 M3.5,70.9c0.1,0,0.2-0.1,0.2-0.2c-0.3,0-0.6,0-0.6,0.4c0.4-0.1,0.4,0.2,0.6,0.2
	C3.8,71,3.6,71,3.5,70.9 M3.4,75c0.2,0,0.3-0.1,0.4-0.2C3.6,74.7,3.3,74.7,3.4,75 M3.5,69.7c-0.3,0.2-0.5-0.4-0.6,0
	C3,69.8,3.5,70,3.5,69.7 M2.7,70.1c0-0.1,0.2-0.1,0.2-0.3c-0.2-0.2,0-0.1-0.3,0L2.7,70.1c-0.1,0-0.1,0.1,0,0.2
	C2.7,70.2,2.7,70.2,2.7,70.1C2.9,70.1,2.8,70.1,2.7,70.1 M2.3,71.3c0.1-0.1,0.3-0.1,0.4-0.2C2.5,71,2,71.2,2.3,71.3 M2.5,70.5H2.3
	v0.2h0.2V70.5z M2.4,69.9c-0.2,0-0.3-0.1-0.5-0.1v0.4C2.2,70.2,2.4,70.2,2.4,69.9 M1.8,74H1.5v0.2h0.2V74z M2.1,72.7
	C2.1,72.7,2.1,72.7,2.1,72.7c0,0.4-0.5,0.4,0,0.6C2.1,73.1,2.1,72.9,2.1,72.7 M2.1,72.7c0-0.2,0-0.3,0-0.5c0.1,0.1,0.1,0.3,0.4,0.2
	c0.1-0.2-0.3-0.3-0.4-0.3c0-0.6,0-1-0.1-0.9c0.1,0.1,0.1,0.5,0.1,0.9c0,0,0,0,0,0.1c0,0,0,0,0,0C2.1,72.4,2.1,72.5,2.1,72.7
	 M2.1,73.3c0.1-0.2,0.4-0.5,0-0.6C2.1,72.9,2.1,73.1,2.1,73.3 M2.3,75.4C2.3,75.4,2.3,75.4,2.3,75.4C2.3,75.5,2.3,75.5,2.3,75.4
	 M3.2,75.2c-0.4,0.2-0.7,0.1-0.5-0.4c-0.2,0-0.4,0-0.5,0.1c0,0,0,0,0,0c0.1,0.4,0.3,0.6,0.7,0.7C2.9,75.4,3.2,75.5,3.2,75.2
	 M3.5,76.8c0,0.2-0.1,0.3-0.1,0.5c0.2,0,0.3-0.1,0.5-0.1C3.9,76.9,3.8,76.8,3.5,76.8c0.1-0.4-0.5-0.5-0.5-0.1
	C3.3,76.6,3.3,76.8,3.5,76.8 M3.6,77.9c-0.2,0-0.2-0.2-0.4-0.1v0.4h0.2C3.5,78,3.6,78,3.6,77.9 M4,78.4c0-0.1,0-0.1,0-0.2
	C3.9,78.2,3.9,78.3,4,78.4C3.9,78.4,3.9,78.4,4,78.4 M4.3,77.8L4.3,77.8L4.3,77.8C4.3,77.8,4.3,77.8,4.3,77.8 M4.3,77.5
	c-0.2,0-0.5-0.1-0.4,0.2c0.1,0,0.1,0,0.2,0C4.2,77.7,4.2,77.6,4.3,77.5 M4.6,68.7c-0.5,0.2-0.2-0.3-0.6-0.2
	C3.8,69,4.6,69.1,4.6,68.7 M4.8,56.3c0,0.1,0,0.3,0.2,0.2c0.1-0.4-0.7-0.5-0.9-0.2C4.6,56.2,4.5,56.5,4.8,56.3 M4.9,75.3
	C4.8,75.1,5.3,75,5,75C5,75.1,4.5,75.2,4.9,75.3 M5.6,78c-0.2-0.1-0.4-0.2-0.6-0.3c0,0.1-0.1,0.2-0.2,0.4c0.1,0.1,0.3,0.2,0.4,0.3
	c0,0.1,0.1,0.1,0.2,0c-0.1-0.2,0.1-0.2,0.1-0.3C5.6,78.1,5.6,78.1,5.6,78 M6,74.8c-0.2-0.2-0.6-0.1-0.7,0.1C5.5,74.9,6,75.1,6,74.8
	 M6,57.7c-0.2,0.1-0.4-0.4-0.5,0C5.6,57.7,6,58,6,57.7 M5.7,61.5c-0.1,0.3,0.4,0.5,0.4,0.2C5.9,61.7,6,61.4,5.7,61.5 M6,69.9h0.2
	v-0.2H6V69.9z M6.3,70.9C5.8,70.6,6,71.3,6.3,70.9 M6.2,78.1v0.4C6.6,78.7,6.6,77.9,6.2,78.1 M7.3,74.7c-0.7,0-0.7,0.2-1.2,0
	C6.2,75.1,7.2,75.2,7.3,74.7 M7.3,68.8c-0.5,0-0.3-0.1-0.1-0.2c-0.2-0.1-0.8-0.3-1.1,0.1c0.2,0,0.2,0.3,0.5,0.4
	C6.6,68.5,7.1,69.5,7.3,68.8 M7,56.6c0-0.2,0.3-0.1,0.2-0.4C7,56.1,6.7,56.5,7,56.6 M8.6,54.6c-0.8,0.2-2.7-0.3-3.2,1
	c0.3,0,0.5-0.2,0.9-0.1c0.1-0.2,0.2-0.5,0.5-0.6C6.8,54.9,6.8,55,7,55c0,0.1-0.2,0.3,0,0.4c0-0.1,0-0.1,0.1-0.1c0,0.1,0,0.1,0.1,0.1
	c0.1-0.2-0.4-0.4,0-0.5C7.5,54.9,7.9,55,8.6,55V54.6z M9,44.3C8.2,44.2,8.7,44.7,9,44.3 M9.3,72.4L9.3,72.4l-0.1,0.1h0.1V72.4z
	 M12.1,60.1c0.2,0,0.3-0.1,0.4-0.2C12.3,59.9,12.2,60,12.1,60.1 M11.9,62.1c0.1,0,0.1,0,0.1,0.1h0.2C12.4,61.9,11.8,61.8,11.9,62.1
	 M9.8,69.9H9.5c0,0.1-0.1,0.1-0.1,0.2C9.6,70.1,9.8,70.2,9.8,69.9 M10.1,66.1C10,66.1,10,66,9.8,66C9.6,66.3,10.2,66.4,10.1,66.1
	 M10.5,69.9c-0.1,0.1-0.1,0.2-0.1,0.3C10.6,70.1,10.6,70.1,10.5,69.9 M10.6,69.8c0.1-0.1,0.1-0.1,0.3-0.2c-0.2-0.1-0.3-0.1-0.4-0.1
	C10.6,69.5,10.6,69.6,10.6,69.8 M10.9,70.1h-0.2v0.2h0.2V70.1z M11,68.9c-0.1,0-0.1-0.1-0.2-0.1C10.7,69,10.7,69,11,68.9 M11,63.2
	c-0.2,0-0.1-0.3-0.1-0.5H10c-0.1,0.4,0.3,0.5,0,0.7C10.5,63.2,10.6,63.4,11,63.2 M11,61.6c0.1,0,0.1,0,0.1,0.1h0.2
	C11.6,61.4,11,61.3,11,61.6 M11.9,61.5c-0.2,0-0.2-0.2-0.4-0.1C11.3,61.6,11.9,61.7,11.9,61.5 M12.5,66c-0.3,0-0.7-0.1-0.7,0.2
	C12,66.5,12.3,66.2,12.5,66 M13,66.2c-0.1,0.1-0.1,0.1-0.1,0.1c0.1,0.1,0.2,0.1,0.3,0.1C13.1,66.4,13.1,66.3,13,66.2 M13,65.2
	c-0.3,0-0.5,0-0.6-0.2v0.5C12.8,65.6,13,65.5,13,65.2 M13.6,61.3c-0.9,0-1.1,0.1-1.5-0.1c0,0.2-0.1,0.3-0.1,0.4
	C12.6,61.6,13.3,61.8,13.6,61.3 M14.4,63.9c-0.2,0-0.2-0.3-0.5-0.2c0,0.1,0,0.2-0.1,0.2c0-0.1,0-0.2-0.1-0.2
	c0.1,0.2,0.1,0.5,0.2,0.6c-0.3,0-0.5,0-0.6,0.3c0.2-0.1,0.6,0.1,0.8,0c0.1,0,0.1-0.1,0.1-0.1c0,0-0.1-0.1-0.1-0.1
	c-0.1,0-0.2-0.1-0.3-0.1C13.9,64,14.4,64.2,14.4,63.9 M14.3,61.5C14.7,61.8,14.7,61,14.3,61.5 M23.2,56c0.1,0.1,0.1,0.1,0.3,0.1
	C23.4,56.1,23.5,55.8,23.2,56 M22.3,54.6c-0.1,0.4,0.8,0.5,0.9,0.1C22.6,54.9,22.6,54.3,22.3,54.6 M22.7,62c0.1,0.1,0.6,0.3,0.6,0
	C23.2,61.9,22.8,61.9,22.7,62 M22.1,58.1c0,0.1,0.1,0.1,0.1,0.3c0.1-0.1,0.2-0.1,0.2-0.2c0.1-0.1,0.1-0.2-0.1-0.3
	C22.2,58,22.2,58,22.1,58.1 M22.2,66.3c-0.1,0.1,0,0.2,0.2,0.3c0-0.1,0.3-0.3,0.2-0.4C22.4,66.1,22.2,66.1,22.2,66.3 M21.8,58.2
	c0.2,0,0.3-0.1,0.4-0.2C21.9,57.9,21.7,57.9,21.8,58.2 M20.2,65.1c0.3-0.6,1.3,0.5,1.4-0.3C21.4,64.6,19.9,64.7,20.2,65.1
	 M21.2,66.5c-0.3,0.1-0.9-0.2-0.9,0.2c0.2,0,0.2,0.2,0.3,0.3c0.4-0.2,0.5,0.1,0.6-0.2C21,66.8,21.1,66.6,21.2,66.5 M20.7,61.1
	c-0.1,0-0.1-0.1-0.2-0.1C20.1,61.2,20.6,61.4,20.7,61.1 M21.2,56.6c0,0.1,0,0.2,0.1,0.2c0-0.2,0.2-0.1,0.2-0.2
	C21.3,56.5,21.3,56.4,21.2,56.6 M20.8,57.1c0.1-0.3,0.4-0.7,0-0.7C20.7,56.4,20.5,57,20.8,57.1 M20.4,58.2c-0.1-0.3,0.6,0.1,0.5-0.2
	h-0.4c0-0.1,0-0.3-0.1-0.4C20.4,57.6,20.1,58.1,20.4,58.2 M20.3,62.1C20.6,62.7,20.6,61.7,20.3,62.1 M19.9,64.8c0.3,0,0.3,0,0.4-0.3
	C20.1,64.7,19.9,64.7,19.9,64.8 M19.4,66.3c0.3,0.6,0.1,0.9,0.6,1.4c-0.1-0.4,0.3-0.3,0.3-0.6c-0.5,0.1-0.5-0.2-0.3-0.5
	C19.8,66.6,19.7,66.4,19.4,66.3 M19.4,64.3c0.1,0,0.1,0,0.2,0c0.1,0,0.1,0,0.1,0C19.7,64.3,19.5,64.3,19.4,64.3 M19,64.9h0.5
	c0-0.3-0.2-0.4-0.5-0.3V64.9z M18.3,62.8L18.3,62.8h0.2v-0.2h-0.2h-0.1V62.8z M17.6,67.1c0.1,0,0.6,0.4,0.6,0
	C18.1,67.1,17.6,66.7,17.6,67.1 M17.4,63.6c0,0.1-0.1,0.3-0.1,0.4c0,0.1,0.1,0.2,0.1,0.4c0,0.1,0.1,0.1,0.2,0.1
	c0.1,0,0.1-0.1,0.1-0.1c0.1-0.4,0.1-0.6,0.2-0.9c0,0-0.1-0.1-0.1-0.1C17.7,63.3,17.5,63.3,17.4,63.6 M16.9,53.8
	c0.1,0.1,0.6,0.3,0.6,0C17.3,53.8,17.1,53.6,16.9,53.8 M16.8,66.5h0.3v-0.3h-0.3V66.5z M16.2,67.6c0.1,0.4,0.5,0.6,0.9,0.6
	C17.1,67.7,16.6,67.7,16.2,67.6 M16.6,61.6c-0.4,0-0.2,0.4-0.5,0.5c0.3,0,0.2,0.2,0.5,0V61.6z M16.5,56.3c-0.2,0-0.2-0.2-0.4-0.2
	C16,56.3,16.5,56.6,16.5,56.3 M16,52.9c0,0.2,0.1,0.3,0.2,0.4C16.3,53.1,16.2,52.9,16,52.9 M15.8,54.4c0.2,0,0.5,0,0.5-0.1
	c-0.1,0-0.3,0-0.4-0.1c0-0.1,0-0.1-0.1-0.1V54.4z M15.2,65.1v0.3c0.1,0.3,0.7,0,0.8-0.2C15.6,65.4,15.6,65,15.2,65.1 M15.7,67.4
	c0,0.3-0.4,0.1-0.5,0.3c0.2,0.2,0.6,0.2,0.8,0.3C16,67.8,15.9,67.5,15.7,67.4 M15.5,64.3c-0.3,0-0.4,0.1-0.5,0.3
	C15.3,64.6,15.5,64.5,15.5,64.3 M15,61.5h0.2v-0.2H15V61.5z M15.4,69.3c0-0.2,0.1-0.6-0.2-0.6c0,0.2,0,0.4-0.2,0.5
	c-0.2,0-0.2-0.2-0.5-0.2C14.4,69.5,15.1,69.2,15.4,69.3 M18.7,69.9c-0.3,0-0.1-0.5-0.5-0.5c0.1,0.4-0.3,0.3-0.5,0.5
	c0.1-0.5-0.2-0.6-0.2-0.9c-0.5-0.1-0.3,0.6-0.6,0.6c-0.2-0.5-0.6,0.2-0.9-0.1c0,1.1-0.7-0.1-0.7,1.2c0.2,0.4,0.7-0.3,0.9,0.2
	c-0.2,0-0.4,0-0.5,0.2c0.3,0,0.3,0.2,0.6,0.2c0.1-0.5,0.6-0.6,0-0.9c0.1-0.1,0.9-0.3,0.9,0c0,0.2-0.8,0.4-0.3,0.6
	c0.3-0.4,0.9,0.5,1.2-0.2c-0.1-0.3-0.7,0-0.8-0.3c0.2,0,0.1-0.3,0.3-0.3C18.1,70.3,18.5,70.3,18.7,69.9 M19.3,67.7
	c-0.3,0-0.3,0.1-0.2,0.3h-0.5v-0.6c-0.6,0.3-0.7,0.1-1.4,0c-0.1,0.5,0.2,0.6,0.2,0.9c-0.3,0.3-0.2,0-0.6,0c0,0.4,0.2,0.5,0.6,0.5
	c0-0.4,0-0.6,0.3-0.6c-0.1,0.7,0.4-0.2,0.5,0.3c0,0.4-0.5,0.2-0.5,0.5c0.6-0.1,0.5-0.1,1.1,0C18.8,68.4,19.3,68.3,19.3,67.7
	 M17.6,78c-0.1,0.1,0,0.3,0.1,0.3c-0.3,0.1-0.3,0.1-0.7,0c-0.1,0.5,0.4,0.4,0.6,0.5c0-0.2,0-0.3,0.1-0.4c0.2,0.2,0.6,0.2,0.7-0.1
	C17.8,78.6,18.1,77.9,17.6,78 M16.5,78.3C16.4,78.3,16.4,78.3,16.5,78.3c0,0.2,0,0.5,0.3,0.5c0.1-0.1,0.1-0.2,0.1-0.2c0,0,0,0,0,0
	c0,0,0,0,0-0.1c-0.1-0.2,0.1-0.4,0.1-0.4c0.1,0,0.1,0,0.2-0.1c-0.2,0-0.1-0.2-0.2-0.2c-0.1,0.1-0.1,0.2-0.1,0.3
	c-0.1,0.3-0.2-0.1-0.3-0.2c0.1,0.4-0.7-0.1-0.5,0.5C16.2,78.1,16.4,78.2,16.5,78.3 M17.3,75.4c-0.3,0.2-0.2-0.6-0.6-0.2
	c0.3,0.4,0,0.5,0,0.8c0.2-0.3,0.7,0.1,0.5-0.2C17.1,75.8,17.3,75.6,17.3,75.4 M17.4,76.9c0.1-0.1,0.3-0.2,0.1-0.4
	c-0.4,0-0.3,0.5-0.2,0.7c0.1,0.1,0.3,0.3,0.5,0.3C18.1,77.3,17.8,76.9,17.4,76.9C17.4,76.9,17.4,76.9,17.4,76.9 M16.9,81.7
	C17.5,81.7,15.5,81.6,16.9,81.7 M16.4,82.2h0.4c0-0.2-0.1-0.3-0.4-0.2V82.2z M16.8,83.3c0.3,0.5,0.1,0.7,0.5,1.1
	c-0.1-0.3,0.2-0.2,0.2-0.5c-0.4,0.1-0.4-0.2-0.2-0.4C17.1,83.4,17,83.3,16.8,83.3 M17.4,81.9c-0.3,0-0.4,0.1-0.5,0.3
	C17.2,82.3,17.3,82.1,17.4,81.9 M17.6,74.8c0-0.1-0.1-0.1-0.1,0c0,0,0,0,0,0c-0.1,0.1-0.4,0.1-0.3,0.3c0.2,0,0.2,0.1,0.3,0.3
	c0.4-0.1,1-0.5,0.6-0.7c0-0.1,0-0.2-0.1-0.3C17.9,74.6,17.8,74.8,17.6,74.8 M16.3,73.7c0.5-0.2,0.8,0.1,1.2-0.3
	C17.1,73.4,16.4,73.2,16.3,73.7 M15.4,74.3c0.2,0,0.3,0.2,0.6,0.2C16.3,74,15.3,74,15.4,74.3 M15.3,77.6c0.4,0.2,0.4-0.5,0-0.4V77.6
	z M15.9,77.9c-0.2-0.4-0.5,0.1-0.9,0C14.9,78.3,16,78.3,15.9,77.9 M15.3,83.9c0.1,0,0.5,0.3,0.5,0C15.7,83.8,15.3,83.6,15.3,83.9
	 M15,83.1h-0.2v0.2H15V83.1z M16.7,84.4c-0.2,0-0.3,0.1-0.1,0.2h-0.4v-0.5c-0.4,0.3-0.5,0.1-1.1,0c-0.1,0.4,0.1,0.4,0.1,0.7
	c-0.2,0.2-0.2,0-0.5,0c0,0.3,0.2,0.4,0.5,0.4c0-0.3,0-0.5,0.2-0.5c-0.1,0.6,0.3-0.2,0.4,0.2c0,0.3-0.4,0.1-0.4,0.4
	c0.5-0.1,0.4-0.1,0.9,0C16.3,84.9,16.7,84.8,16.7,84.4 M17.8,86c-0.6,0-0.8,0.3-1.1-0.1c0,0.2,0,0.4-0.1,0.5c0.4,0,0.6-0.3,0.7,0.1
	c-0.3-0.1-0.2,0.3-0.4,0.4C17.5,86.9,17.4,86.1,17.8,86 M18.1,83.4c-0.2,0.1-0.7-0.1-0.7,0.1c0.1,0,0.2,0.1,0.2,0.2
	c0.3-0.2,0.4,0.1,0.5-0.1C18,83.6,18.1,83.5,18.1,83.4 M18.7,82.1C18.5,82,18.4,82,18.3,82c-0.4,0-1.1,0-0.9,0.3
	c0.2-0.3,0.6,0,0.9,0C18.4,82.3,18.5,82.3,18.7,82.1 M19.1,83.9h-0.2v0.2h0.2V83.9z M20.7,69.8c-0.7-0.1-1,0.3-1.4-0.2
	c0,0.3,0,0.5-0.2,0.6c0.5,0.1,0.8-0.4,0.9,0.2c-0.4-0.1-0.3,0.3-0.5,0.5C20.4,70.9,20.2,70,20.7,69.8 M20.5,71.3
	c0.4,0.3,0.5-0.4,1.1,0c0.1-0.4-0.3-0.3-0.5-0.5C21.2,71.3,20.6,71,20.5,71.3 M19.9,82.7c0-0.1-0.1-0.1-0.1-0.2l-0.1,0.1L19.9,82.7
	L19.9,82.7z M20.2,73.7C19.2,73.5,19.9,74.2,20.2,73.7 M20.6,75.4c-0.2,0.1-0.3,0.1-0.4-0.1c0.1,0,0.1-0.2-0.1-0.1
	c0,0.2-0.1,0.3,0.1,0.6C20.5,75.6,20.7,75.5,20.6,75.4 M21.5,74.7c-0.2-0.4-0.3-1.1-0.7-0.9C21,74.1,20.9,74.5,21.5,74.7 M21.8,72.1
	c-0.2-0.2-1.1-0.3-0.9,0.3C21.3,72.4,21.6,72.3,21.8,72.1 M22.2,77C22,76.1,21.7,76.9,22.2,77 M22.6,71.7c-0.1,0.1-0.2,0.4-0.2,0.4
	c0,0-0.1,0-0.2,0.1c0.1,0.1,0.1,2.8,0.2,2.8C22.7,74.8,22.6,71.9,22.6,71.7 M22.7,70.6c0.1-0.4-0.1-0.6-0.4-0.6
	c0-0.1-0.1-0.1-0.1-0.2c-0.1,0.1-0.1,0.1-0.1,0.1c-0.1,0-0.1,0-0.2-0.1c0.1,0.9-1.3-0.3-1.1,0.5c0.1,0.4,0.9,0.6,1.4,0.5
	c0,0,0,0,0,0c0,0,0,0,0,0C22.5,70.7,22.6,70.6,22.7,70.6 M22.8,70.7c-0.1,0.1-0.1,0.1-0.1,0.3C23,70.9,23,70.9,22.8,70.7 M23,67.4
	c-0.1-0.1-0.1-0.1-0.1-0.1c-0.1,0-0.1,0-0.1,0.1c0,0.1,0,0.1,0.1,0.1C22.9,67.6,22.9,67.4,23,67.4 M23.5,64.6h-0.3
	c0,0.1-0.1,0.1-0.1,0.2c-0.1-0.1-0.2-0.1-0.3-0.1c-0.1-0.1-0.2-0.1-0.4,0c0.1,0,0.2,0,0.2,0.1V65c0.1,0.2,0.3,0.2,0.5,0.1
	c0.1,0,0.2-0.1,0.3-0.1c0,0,0-0.1,0-0.1C23.4,64.8,23.5,64.7,23.5,64.6 M23.5,57.7c0,0.2-0.3,0.1-0.4,0v0.2
	C23.1,58.3,23.9,57.8,23.5,57.7 M24.5,52.3c0,0.1,0,0.2,0.1,0.4h0.2v-0.3C24.7,52.3,24.6,52.2,24.5,52.3 M24.3,53.3
	c0,0-0.1,0.1-0.1,0.3h0.3c0.1-0.2,0.2-0.4,0.3-0.4c0-0.3,0-0.3-0.1-0.1C24.5,53,24.4,53,24.2,53C24.2,53.1,24.2,53.2,24.3,53.3
	 M24.6,55.2c0,0,0.1,0.1,0.1,0.2v-0.3C24.7,55.1,24.6,55.1,24.6,55.2 M24.5,59.8C24.5,59.8,24.4,59.8,24.5,59.8
	c-0.1,0.1-0.1,0.1,0,0.1V59.8C24.6,59.8,24.5,59.8,24.5,59.8 M23.9,53.1c0.1,0,0.1,0,0.1-0.1L23.9,53.1L23.9,53.1z M23.9,53.8
	c0.1,0.1,0.1,0.1,0.2-0.1c-0.1,0-0.1,0-0.2-0.1V53.8z M24.3,55.7v-0.1c-0.2,0-0.4,0-0.5-0.1v0.1C24,55.6,24.1,55.7,24.3,55.7
	 M24.6,62.6L24.6,62.6L24.6,62.6c-0.1,0-0.2,0.1-0.4,0.1c0,0,0,0,0,0c0,0,0,0.1,0,0.1c0,0,0,0,0,0.1c0,0,0.1,0.1,0.1,0.1
	c0,0,0,0,0.1,0c0.1-0.1,0-0.1,0-0.1C24.4,62.8,24.5,62.7,24.6,62.6C24.6,62.6,24.6,62.6,24.6,62.6 M24.8,62.8
	c-0.1,0.2-0.4,0.4,0,0.5C24.6,63.1,25.1,62.9,24.8,62.8 M24.9,61.7c0-0.3-0.1-0.3-0.3-0.3v-0.1h0.1v-0.1v-0.1c0-0.1-0.1-0.1-0.2-0.1
	c-0.3,0.2-0.4,0.4-0.3,0.7c0,0,0,0.1,0.1,0.1c0,0,0,0,0,0.1c0,0,0,0,0,0h0h0.2h0.1v-0.2c0,0,0.1-0.1,0.1-0.1
	C24.8,61.7,24.9,61.7,24.9,61.7 M25,57c0,0.1,0,0.2-0.1,0.2C25.1,57.2,25.1,57.2,25,57 M25.8,61.5c-0.2,0-0.6-0.5-0.7-0.1
	c0.1,0,0.2,0.1,0.2,0.2c0.1,0.1,0.1,0.2,0.2,0.3c0.1,0.1,0.2,0.2,0.5,0.2C26,61.6,25.5,61.8,25.8,61.5 M41.3,41.5
	c0-0.1-0.1-0.2-0.1-0.3L41,40.9c-0.2-0.2-0.3-0.3-0.5-0.4c-0.1-0.1-0.1-0.1-0.1-0.2c0.1-0.1,0-0.3-0.1-0.3c-0.1-0.1-0.1-0.1-0.1-0.2
	v-0.1c-0.1-0.1-0.1-0.1-0.1-0.2c0-0.1-0.1-0.1-0.1-0.1l-0.1-0.1h-0.1v0.1c0.1,0.1,0.1,0.1,0.1,0.2l-0.1,0.1h-0.1
	c0-0.1-0.1-0.1-0.1-0.1c0-0.1-0.1-0.1-0.1-0.1c-0.2-0.1-0.3,0-0.5-0.1v0.1c-0.1,0.1-0.1,0-0.2,0v-0.1c-0.2,0.1-0.1,0-0.2-0.1
	c0,0,0-0.1-0.1-0.1c0,0,0,0.1-0.1,0.1c-0.1,0.1,0,0.2-0.1,0.2c-0.1-0.1-0.1-0.2-0.1-0.2h-0.1c0,0.2-0.1,0.3-0.2,0.4
	c-0.1-0.1-0.1-0.1-0.1-0.2c0,0.1,0,0.2-0.1,0.2c-0.1,0.1-0.1,0.1-0.1,0.2c0,0,0,0.1-0.1,0.1c0,0,0-0.1-0.1-0.1l-0.1-0.1
	c-0.1,0.1-0.1,0.2,0.1,0.2c0.1,0,0.1,0,0.1,0.1h0.1c0,0,0,0.1-0.1,0.1c-0.1,0.1-0.1,0.1-0.1,0.2c0,0-0.1,0.1-0.1,0.1
	c0,0.1-0.1,0-0.1,0v-0.1c0.1,0,0.1,0,0.1-0.3c-0.2,0-0.2,0.1-0.1,0.2v0.1c-0.1,0.1-0.1,0.1-0.1,0.2c-0.1,0.1-0.1,0.1-0.1,0.2
	c0.1,0.1,0.1,0.1,0,0.2c-0.2,0.1-0.2,0.2-0.2,0.4c-0.2,0.1-0.5,0.1-0.7,0.2c-0.1,0.1-0.1,0.2-0.1,0.2c0.1,0.2,0.2,0.4,0.3,0.5
	s0.2,0.1,0.2,0.2c0,0.2,0,0.3-0.1,0.5c-0.1,0.1-0.1,0.2-0.2,0.3c0.2,0,0.2,0.1,0.2,0.1c0,0.1-0.1,0.1-0.1,0.1c0,0.1,0,0.2-0.1,0.2
	c-0.1,0.1-0.1,0.2-0.1,0.2c0,0.1,0,0.2-0.1,0.3v0.1c0,0.1,0,0.1-0.1,0.1c0,0-0.1,0-0.1,0.1l0.1,0.1h0.1c-0.1,0.1-0.1,0.2-0.1,0.2
	c0,0.1,0,0.1-0.1,0.2c0,0.1,0,0.2,0.1,0.2c0.1,0.1,0.1,0.2,0.1,0.2c-0.1,0.1-0.1,0.2,0,0.2c0,0.1,0.1,0.3-0.1,0.4
	c0.1,0,0.2,0.1,0.2,0.2c0,0.1,0,0.1,0.1,0.1l0.1-0.1c0.1,0.1,0.1,0.1,0.2,0.1h0.1c0-0.1,0.1-0.1,0.1-0.1c0.1,0,0.1,0,0.1-0.1
	S37,46.2,37,46.2H37c0,0.2-0.1,0.1-0.2,0.1c-0.1,0-0.1-0.1-0.1-0.2c-0.1,0-0.1-0.1-0.1-0.1s-0.1-0.1,0-0.1v-0.6
	c-0.1-0.1-0.1-0.1-0.1-0.2c0-0.1-0.1-0.1,0-0.2c0-0.1,0-0.2,0.1-0.2c0-0.1-0.1-0.1-0.1-0.2c0-0.1,0.1-0.1,0.1-0.2
	c0-0.1,0-0.2,0.1-0.2V44c-0.1-0.1,0-0.1,0-0.2c0.1,0.1,0.1,0.1,0.1,0.1c0.1,0.1,0.1,0.1,0.1,0.3c-0.1,0.1-0.1,0.2-0.1,0.3
	c0.1,0.1,0.1,0.1,0.1,0.1c0.1,0.1,0.1,0.1,0,0.2c0,0.1,0,0.1,0.1,0.1c0.1-0.1,0.1-0.1,0.1-0.2c0.1,0,0.1-0.1,0.1-0.1
	c-0.1-0.1,0.1-0.1,0.1-0.1h0.1c0.1,0.1,0.1,0.1,0.1,0.1c0,0.1,0,0.1,0.1,0.1h0.1c0-0.1,0-0.1,0.1-0.1c0.1,0.1,0.1,0.1,0,0.1
	c-0.1,0.1-0.1,0.1-0.1,0.2c0.1-0.1,0.2-0.1,0.3-0.2h0.1c0.1,0,0.2,0.1,0.2,0.1c0.1,0,0.2,0.1,0.2,0.1V45c0,0.1-0.1,0.1-0.1,0.2h0.1
	c-0.1,0.1-0.2,0.1-0.2,0.2l-0.2,0.2c0,0.1-0.1,0.2-0.2,0.3c0,0.1,0.1,0.1,0.1,0.1c0.1,0,0.1-0.1,0.1-0.1c0.1-0.1,0.1-0.2,0.1-0.2
	c0.1-0.1,0.2-0.1,0.3-0.1V45c0.1,0,0.1,0.1,0.1,0.1c0.1-0.1,0.1-0.1,0.1-0.1c0.1-0.1,0.1-0.1,0.1-0.2c0.1,0,0.2,0.1,0.3-0.1
	c0.2,0.1,0.2-0.1,0.2-0.2c0.1,0,0.1,0,0.2,0.1h0.1c0.1,0,0.1-0.1,0.1-0.1c0.2-0.1,0.3-0.2,0.5-0.3c0.1-0.1,0.1-0.2,0.1-0.2
	c0.1-0.1,0.1-0.1,0.2-0.2c0-0.1,0-0.1,0.1-0.2v-0.1c-0.1-0.1-0.1-0.2-0.1-0.2s0.1-0.1,0.1-0.1c0,0,0.1,0,0.1-0.1v-0.1
	c-0.1-0.1-0.1-0.1-0.1-0.1c0.1-0.1,0.2-0.2,0.2-0.3c0.1-0.1,0.2-0.2,0.3-0.2c0.1,0.1,0.1,0.1,0.1,0.1c0-0.1,0-0.1,0.1-0.1v-0.2
	l0.2-0.2c0.1-0.1,0.1-0.2,0-0.2c0.1-0.1,0.1-0.2,0.1-0.3V41.5z M42.1,11.1c-0.1,0-0.1,0.1-0.1,0.1c0,0-0.1,0-0.1-0.1
	c-0.1,0.1-0.1,0.1-0.2,0.1c0,0-0.1,0.1-0.1,0c-0.1,0-0.1-0.1-0.1-0.1c0.1-0.1,0-0.2-0.1-0.3c-0.1,0.1-0.2,0.2-0.4,0.3L40.8,11
	c0.1-0.1,0.1-0.1,0.2-0.2c0-0.1,0-0.1-0.1-0.1c0.1,0,0.1,0,0.1-0.1l0.1-0.1c-0.1,0-0.2,0-0.3,0.1c-0.1,0.1-0.1,0.1-0.1,0.2
	c0.1,0.3,0.1,0.5-0.1,0.7c0-0.1-0.1-0.1-0.1-0.2V11c-0.1-0.1-0.1-0.1-0.2-0.2c0.1,0,0.2-0.1,0.4-0.1v-0.2h-0.2v0.1
	c-0.2,0-0.2,0.1-0.3,0.3c-0.2,0.2-0.4,0.5-0.4,0.8c0.1,0.1,0.4,0.1,0.4,0.2c0,0.1-0.1,0.1-0.1,0.3c-0.1-0.1-0.3-0.2-0.4-0.3
	c-0.1,0.4-0.1,0.4,0.2,0.3c0.1,0,0.2,0,0.3,0.1c0.1,0,0.1,0.1,0.2,0.1c0.1-0.1,0.1,0,0.1,0.1c0,0.1-0.1,0.1-0.1,0.1
	c-0.1-0.1-0.1-0.1-0.2-0.1h-0.1c0,0.4,0,0.7-0.2,1c-0.1,0.1,0,0.5-0.2,0.7l0.1,0.1c0,0.1-0.1,0.2-0.2,0.2c-0.3,0.1-0.3,0.1-0.3,0.3
	c0,0.1,0,0.2-0.2,0.2c0.1,0.2,0.2,0.4,0.4,0.4c0.1-0.1,0.2-0.2,0.4-0.2h0.1C39.8,15,40,15,40.1,14.9c0.1,0.1,0.1,0.1,0.1,0.1
	c0.2,0.2,0.1-0.2,0.4-0.2v-0.1c-0.1,0-0.2,0-0.2-0.1c0-0.1,0.2-0.3,0.4-0.3c0-0.2-0.4-0.3-0.1-0.6c0.1,0,0.2-0.1,0.3-0.1
	c0,0.1,0,0.1,0.1,0.2c0-0.1,0.1-0.1,0.2-0.2l-0.1-0.1H41c0-0.1,0.2-0.1,0.3-0.1c0.1-0.2,0.1-0.4,0.4-0.6c0.1,0,0.1-0.1,0.1-0.3
	c0-0.1,0.1-0.1,0.1-0.2c-0.1-0.1,0-0.1,0.1-0.2c0.1,0,0.1-0.1,0.1-0.2c-0.1-0.1-0.1-0.1-0.4-0.2c0.1-0.1,0.2-0.3,0.3-0.4
	C42.1,11.4,42.1,11.4,42.1,11.1 M39.7,45.4c0,0.1,0,0.1,0.1,0.2c0.2-0.2,0.2-0.2,0.2-0.2L39.7,45.4C39.7,45.3,39.7,45.4,39.7,45.4
	 M36.8,15.6c0,0.1,0.1,0.2,0.1,0.3C37,15.7,37,15.7,36.8,15.6 M36.8,21.5c0-0.1,0-0.1-0.1-0.1h-0.1C36.7,21.4,36.7,21.5,36.8,21.5
	C36.8,21.6,36.8,21.5,36.8,21.5 M36.8,24L36.8,24L36.8,24l0.1,0.1C36.9,24.1,36.9,24,36.8,24 M17.4,75c0,0.2,0.2,0,0.3-0.1
	c-0.1,0-0.2-0.1-0.3-0.1C17.5,74.9,17.5,75,17.4,75 M36.6,20.1c-0.1,0.1-0.1,0.1,0,0.2C36.7,20.3,36.7,20.2,36.6,20.1L36.6,20.1z
	 M37.9,45.1c0,0.1,0,0.1,0.1,0.2c0.1,0,0.1-0.1,0.1-0.1l-0.1-0.1v-0.1C38,45,37.9,45,37.9,45.1 M37.1,46c0.1,0,0.2,0,0.2-0.1h0.1
	c0.1,0,0.2-0.1,0.1-0.2c-0.1-0.1-0.1-0.1-0.2-0.2c-0.2-0.1-0.2-0.3-0.2-0.5c0-0.1-0.1-0.1-0.1-0.2c0.1-0.1,0.1-0.1,0.1-0.1
	c-0.1,0-0.1,0-0.1-0.1L37,44.9c0.1,0.1,0.1,0.2,0.1,0.3C37,45.2,37,45.3,37,45.4c0,0.2,0.1,0.3,0.1,0.5c0.1-0.1,0.1-0.2,0.1-0.2
	C37.2,45.8,37.2,45.9,37.1,46C37.2,46,37.1,46,37.1,46 M36.6,20.8L36.6,20.8c0.1,0,0.2,0,0.4-0.1C36.7,20.6,36.7,20.7,36.6,20.8
	 M35.9,26.2C36,26,36,26,36.1,26c0-0.1,0-0.1,0.1-0.1C35.9,25.9,35.9,25.9,35.9,26.2 M36.2,16.5c-0.1,0.1-0.1,0.1-0.1,0.1h0.3
	C36.2,16.6,36.2,16.6,36.2,16.5 M36.4,22c0-0.4,0-0.4-0.3-0.4C36.2,21.7,36.3,21.8,36.4,22 M34.5,27.5c-0.1-0.1-0.1-0.1-0.3-0.1
	C34.3,27.5,34.3,27.6,34.5,27.5 M31.2,35.7H31C31.1,35.8,31.2,35.7,31.2,35.7 M31.2,36.2c0.2-0.1,0.5-0.1,0.7-0.1V36
	c0.1-0.1,0.2-0.1,0.4-0.3h-0.4c-0.1,0.1-0.1,0.1-0.2,0.3c-0.1,0.1-0.4,0.1-0.5-0.1C31,36,31,36.1,31,36.2
	C31.1,36.2,31.2,36.3,31.2,36.2 M31.3,40.4c0.1,0.1,0.2,0.1,0.3,0.1c0,0.1,0.1,0,0.1,0v-0.1C31.6,40.4,31.4,40.4,31.3,40.4
	 M31.9,36.8c0.1-0.1,0.2-0.1,0.3-0.4c-0.1,0-0.1,0-0.3-0.1c-0.1,0.1-0.1,0.3-0.2,0.4c-0.1-0.1-0.1-0.1-0.2-0.3
	c-0.1,0.1-0.2,0.2-0.3,0.3v0.1C31.1,37,30.9,37,31,37.2h0.6V37c-0.1,0-0.1-0.1-0.1-0.1c0-0.1,0.1-0.1,0.1-0.1
	C31.7,36.8,31.8,36.8,31.9,36.8 M32.1,34.1c-0.2-0.1-0.2-0.1-0.2,0.1C31.9,34.1,32,34.1,32.1,34.1 M32,28.5c-0.1,0-0.1,0.1-0.1,0.1
	v0.1C31.9,28.7,32,28.7,32,28.5 M32.7,31.8V32c0.1,0.1,0.2,0.3,0.3,0.3c0.1,0,0.3-0.1,0.1-0.3v-0.1c0.1-0.2,0.4-0.1,0.5-0.4h-0.4
	c-0.1-0.1-0.1-0.1-0.2-0.2c-0.1,0.1-0.1,0.3-0.1,0.4C32.9,31.8,32.8,31.8,32.7,31.8 M33.1,32.5c-0.1-0.1-0.2-0.1-0.2-0.1
	c0,0.1-0.1,0.1-0.2,0.2c0,0.1-0.2,0.2-0.2,0.3c0.1,0.2,0.1,0.2,0.4,0.1c0,0,0,0,0,0l0,0c0,0,0,0,0.1,0c0,0,0,0,0.1,0
	C33,32.8,33,32.6,33.1,32.5 M34.6,26.8c-0.1,0.1-0.3,0.1-0.4,0.2c0,0,0,0.1,0.1,0.1c0.1-0.1,0.2-0.1,0.3-0.1V26.8z M33.4,43.4v-0.3
	c-0.1,0-0.3,0-0.1,0.2c0,0.1,0,0.1-0.2,0.1c0,0-0.1,0.1,0,0.1c0,0.2-0.1,0.4-0.1,0.4c0.1,0.1,0.2,0.1,0.4,0c0.1-0.1,0.1-0.1,0-0.2
	v-0.1C33.3,43.6,33.3,43.5,33.4,43.4 M33.7,30.7c-0.1,0-0.3,0.1-0.4,0.1C33,31,33,31,33,31.3c0.1-0.1,0.2-0.1,0.3-0.1
	C33.5,31,33.6,30.8,33.7,30.7 M33.7,31.8h-0.1C33.6,31.8,33.6,31.8,33.7,31.8 M32,37.4c-0.1,0.1-0.3,0.1-0.3,0.4
	c0.1,0,0.3,0,0.4-0.1C32.1,37.6,32.1,37.5,32,37.4 M32.3,36c0.1,0,0.1,0.1,0.1,0.1C32.5,36,32.5,36,32.3,36 M31.9,34.3
	c-0.1,0-0.1,0-0.3,0.1C31.7,34.4,31.8,34.4,31.9,34.3 M32.3,38.6c0.1,0,0.1-0.1,0.1-0.2c-0.1,0-0.1,0.1-0.1,0.1
	C32.2,38.6,32.3,38.6,32.3,38.6 M2.1,72.2C2.1,72.2,2.1,72.2,2.1,72.2C2.1,72.2,2.1,72.2,2.1,72.2C2.1,72.2,2.1,72.3,2.1,72.2
	C2.1,72.2,2.1,72.2,2.1,72.2 M31.7,40L31.7,40L31.7,40C31.7,40.1,31.7,40,31.7,40 M32.8,34.3H33C32.9,34.1,32.9,34.2,32.8,34.3
	 M32.4,32.6C32.3,32.6,32.3,32.7,32.4,32.6c-0.1,0.1,0,0.1,0,0.1V32.6C32.4,32.7,32.4,32.6,32.4,32.6 M32.3,27.7
	C32.3,27.7,32.4,27.7,32.3,27.7c0-0.1-0.1-0.1-0.1-0.2C32.2,27.6,32.2,27.7,32.3,27.7 M32,34.5c0,0.1,0,0.2,0,0.2c0,0,0,0,0,0
	c0,0,0,0.1,0,0.1c0,0,0.1,0,0.1,0c0.1,0,0.2-0.1,0.2-0.2c0-0.1-0.1-0.2-0.3-0.2C32.1,34.4,32,34.4,32,34.5 M32.7,33.7v-0.5
	c-0.2,0.1-0.3-0.2-0.4,0c0.1,0.1,0.1,0.1,0.2,0.1c-0.1,0.1-0.2,0.1-0.4,0.2C32.3,33.6,32.4,33.7,32.7,33.7 M32.5,33.8
	c-0.1,0-0.1,0.1-0.1,0.1c0,0-0.1,0.1-0.1,0.2h0.2c0.1,0,0.2-0.1,0.2-0.1C32.8,33.9,32.8,33.9,32.5,33.8 M34.8,27.1V27h-0.1
	C34.7,27.1,34.6,27.1,34.8,27.1 M35.5,21.3c-0.1-0.1-0.1-0.2-0.2-0.3C35.2,21.3,35.4,21.3,35.5,21.3C35.4,21.4,35.4,21.3,35.5,21.3
	 M35.1,26.6v-0.1c-0.1-0.1-0.1-0.1-0.2-0.2c-0.1,0.1-0.1,0.1-0.1,0.1c0.1,0.1,0.1,0.1,0.2,0.2H35.1z M34.6,26L34.6,26v-0.1V26
	C34.6,26,34.6,26,34.6,26 M48.3,64.6c0.1-0.2,0.2-0.3,0.2-0.5c-0.2,0.1-0.5,0.2-0.8,0.4C47.9,64.6,48.1,64.6,48.3,64.6 M34.9,25.1
	c-0.1,0.1-0.1,0.3-0.1,0.4c0,0.1,0,0.1,0.1,0.2v-0.1c0.1-0.2,0.1-0.3,0.1-0.4C34.9,25.2,34.9,25.1,34.9,25.1 M34.1,21.6
	c-0.1,0,0,0.1,0.1,0.1c0.1-0.1,0.1-0.1,0.1-0.1C34.1,21.6,34.1,21.6,34.1,21.6 M35.8,27.7v-0.1c-0.1,0-0.2-0.1-0.2,0.1
	c0,0.1-0.1,0.1-0.1,0.1v0.1h0.2C35.8,27.9,35.8,27.8,35.8,27.7 M35.8,16.9h-0.3l0.1,0.1h0.3L35.8,16.9z M35.9,26.4
	c-0.1,0-0.1,0-0.1,0.1C35.9,26.5,35.9,26.5,35.9,26.4 M35.6,26.9c0.1,0.1,0.2,0.2,0.2,0.3C35.9,27,35.9,27,35.6,26.9 M78.6,50.7
	c-0.1,0.2-0.1,0.5-0.2,0.6c0,0.4-0.2,0.7-0.5,1c-0.1-0.1-0.3-0.2-0.4-0.3c-0.3,0.4-0.3,0.5,0.1,0.7c-0.1,0.1,0,0.1-0.1,0.2
	c-0.3,0.2-0.5,0.5-0.7,0.9c-0.2,0.2-0.4,0.5-0.7,0.6c0,0.3-0.2,0.6-0.4,0.9c-0.1,0.1-0.1,0.1-0.2,0.2c-0.1-0.1-0.1-0.2-0.2-0.2
	c-0.1,0-0.1,0-0.2,0c-0.2,0-0.3,0.1-0.3,0.3c-0.1,0.2-0.2,0.4-0.3,0.5c-0.2,0.2-0.4,0.5-0.6,0.7c0,0.2-0.1,0.4-0.3,0.5
	c-0.1,0.1-0.2,0.2-0.1,0.3l-0.1-0.1c-0.2,0.4-0.4,0.6-0.6,1c-0.1,0.2-0.2,0.3-0.3,0.4c-0.4,0.4-0.7,0.8-1.1,1.3l-0.1,0
	c-0.5,0.3-0.7,0.8-1.1,1.2c-0.1,0.1,0,0.1-0.1,0.2c-0.1,0.4-0.5,0.7-0.7,0.9c-0.3,0.2-0.4,0.4-0.6,0.7c-0.2,0.2-0.5,0.5-0.7,0.9
	c0,0,0,0.1,0,0.2c-0.1,0-0.1,0-0.2,0.1c0.1,0.1,0.1,0.1,0.2,0.2c-0.3,0.2-0.5,0.5-0.7,0.8c-0.1,0.1-0.2,0.3-0.3,0.6
	c-0.1,0.2-0.3,0.4-0.4,0.5c-0.1,0.1-0.2,0.1-0.3,0.1c-0.2-0.2-0.3,0-0.6,0.2c-0.2,0.1-0.3,0.2-0.3,0.5c0.1,0.1,0.1,0.1,0.2,0.1
	c-0.2,0.3-0.3,0.6-0.6,0.8c-0.2,0.1-0.4,0.3-0.4,0.7c0.2-0.1,0.3-0.1,0.3-0.1c0.1,0,0.2,0.2,0.3,0.3c0.1,0.3,0,0.5-0.1,0.7
	c0,0-0.1,0.1-0.1,0.1c-0.1-0.2-0.2-0.5-0.4-0.2c0.1,0.2,0.2,0.4,0.3,0.4c-0.1,0.1-0.1,0.2-0.2,0.3c-0.2,0.2-0.4,0.4-0.4,0.7
	c0,0.1,0,0.1-0.1,0.2c-0.3,0.3-0.7,0.7-1,1c0,0.1-0.2,0.2-0.4,0.1c0-0.2,0.2-0.3,0.1-0.5c0-0.2,0.3-0.3,0.3-0.5c0-0.1,0-0.2,0.1-0.2
	c0.4-0.3,0.6-0.7,0.8-1.1c0.2-0.2,0.1-0.4,0.1-0.5c-0.2,0-0.3,0.1-0.4,0.1c-0.1,0.1-0.2,0.2-0.3,0.2c-0.1,0.2-0.4,0.2-0.5,0.4
	c-0.2,0.2-0.4,0.4-0.5,0.6c-0.3,0.4-0.6,0.6-1,0.8c-0.1,0.1-0.2,0.2-0.4,0.3c-0.1,0-0.1-0.1-0.2,0l0.1,0.2c0,0,0,0,0,0
	c-0.2,0.2-0.4,1.3-0.7,1.5c-0.4,0.3-0.6,0.6-0.8,1.1c-0.2,0.4-0.5,0.8-0.8,1.2c-0.2,0-0.5,0.1-0.7,0.3c-0.1,0.1-0.3,0.2-0.5,0.1
	c-0.1,0-0.2,0-0.3,0.1c-0.2,0.2-0.3,0.4-0.6,0.4c-0.2,0-0.4,0.2-0.4,0.4c0,0.2-0.1,0.4-0.4,0.5c-0.2,0.2-0.3,0.4-0.4,0.7
	c-0.2-0.1-0.1-0.3-0.3-0.4c-0.1,0-0.3-0.2-0.5-0.2c-0.1-0.3,0.2-0.5-0.1-0.7c-0.2,0.2-0.3,0.4-0.6,0.5c-0.2,0.2-0.4,0.3-0.7,0.4
	c0,0,0,0,0,0c-0.1,0-0.1,0-0.1-0.1c0.3,0.2-0.1,0.5,0,0.6c-0.1,0.2-0.3,0.4-0.5,0.7c-0.1,0-0.1,0-0.1,0.1c0,0,0,0.1-0.1,0.1
	c-0.1,0-0.2,0-0.3,0c-0.1,0-0.2-0.2-0.1-0.3c0-0.1,0-0.1,0.1-0.2c0-0.1,0.1-0.2,0.1-0.2c-0.1-0.5,0.2-0.8,0.3-1.2
	c0.2-0.7,0.5-1.4,0.8-2.1c0.2-0.5,0.4-0.9,0.7-1.3c0.2-0.5,0.4-1.7,0.8-2.2c0.1-0.1,0.1-0.1,0.1-0.2c0-0.5,0.3-0.8,0.5-1.1
	c0.2-0.2,0.3-0.4,0.4-0.7c0-0.1,0-0.1,0.1-0.2c0.4-0.5,0.5-1.1,0.6-1.6c0-0.3,0.1-0.5,0.1-0.6c0-0.3,0.2-0.6,0-0.9
	c0.1-0.2,0.1-0.5,0.2-0.7c0.2-0.3,0.2-0.6,0.3-1c0.1-0.1,0.1-0.2,0.2-0.3c0.1-0.6,0.4-1.2,0.3-1.9c0.3-0.4,0.1-0.9,0.3-1.3
	c0.2-0.3,0.3-0.8,0.4-1.2c0,0,0,0,0,0c-0.2,0.1-0.3,0.1-0.4,0.2c-0.1,0.1-0.2,0.3-0.4,0.4c-0.3,0.2-0.6,0.4-0.7,0.6
	c-0.2,0.1-0.5,0.1-0.5,0.1c-0.2,0.3-0.5,0.5-0.6,0.8c-0.2,0.2-0.4,0.6-0.5,0.8c0,0.3,0.1,0.5,0.1,0.7h0.3c0.1,0.2,0.1,0.3,0,0.4
	c-0.3,0.2-0.5,0.6-0.8,0.7c-0.2,0.1-0.2,0.1-0.3,0.3c-0.1,0.5-0.7,0.7-0.8,1.3c0,0,0,0.1-0.1,0.1c-0.2,0.2-0.3,0.5-0.4,0.7
	c-0.2,0.3-0.4,0.5-0.8,0.4c0,0-0.1,0-0.1,0.1c-0.1,0.1-0.2,0.4-0.3,0.6c-0.2,0.2-0.3,0.4-0.6,0.3c-0.6,0.6-1.2,1.2-1.8,1.8
	c-0.3,0.3-0.7,0.6-1.1,1c-0.1,0.1-0.2,0.2-0.3,0.2c-0.2,0.1-0.3,0.2-0.5,0.2c-0.1,0.1-0.1,0.1-0.2,0.2c-0.6,0.4-1.6,1-2.3,1.2
	c-0.1,0.1-0.2,0.1-0.2,0.1c-0.2,0.1-0.5,0.1-0.6,0.1c-0.2,0-0.4,0-0.5-0.2C43.3,73,43,73,42.8,73.1c-0.2,0.1-0.5,0.1-0.6,0.3
	c-0.2,0.2-0.4,0.2-0.6,0.2h-1.1c-0.3-0.2-0.6-0.2-0.8-0.5c-0.3-0.2-0.4-0.5-0.2-0.7c0.1-0.1,0.1-0.1,0.2-0.2
	c0.1,0.1,0.1,0.1,0.1,0.2c0.1-0.1,0.1-0.2,0.1-0.3c-0.2-0.2-0.3-0.5-0.6-0.7c-0.5-0.2-0.6-0.7-0.6-1.1c-0.1-0.5,0.1-1,0.3-1.5
	c0.1-0.1,0.1-0.1,0.3-0.2c-0.1,0.3-0.1,0.6-0.2,0.9c0.1-0.1,0.1-0.1,0.2-0.2c0.1-0.1,0.1-0.2,0.1-0.2c0.4-1.2,0.9-2.3,1.2-3.5
	c0.1-0.2,0.1-0.4,0.2-0.7h0.1v-0.1c0,0,0,0.1-0.1,0.1c-0.1-0.1-0.2-0.3-0.2-0.3v-0.1c0-0.5,0.2-1,0.3-1.4c0-0.1,0.1-0.1,0.1-0.1
	c0.2,0.1,0.1,0.3,0.1,0.5c0,0.1,0.1,0.1,0.2,0.2c0,0,0,0,0,0.1c0-0.1,0-0.1,0.1-0.2c0.1-0.6,0.3-1.2,0.5-1.8
	c-0.1,0.2-0.2,0.4-0.3,0.6c0,0.1,0,0.2-0.1,0.3c0,0.1-0.1,0.2-0.2,0.2c-0.1-0.1-0.1-0.1-0.1-0.1c0.1-0.2,0.1-0.3,0.2-0.5
	c0-0.1,0.1-0.1,0.1-0.2c-0.1-0.4,0.2-0.9,0.3-1.3c0.1-0.1,0.1-0.2,0.1-0.3c0-0.1-0.1-0.2,0-0.2c0-0.1,0.1-0.2,0.2-0.2
	c0.2,0,0.2,0.1,0.2,0.2c-0.1,0.2-0.1,0.4-0.1,0.5c0,0.1-0.1,0.2-0.1,0.3c0,0,0,0,0,0c0,0,0-0.1,0.1-0.2c0.1-0.3,0.2-0.5,0.3-0.8
	c0.1-0.2,0.1-0.4,0.2-0.7c0,0,0.1-0.1,0.1-0.1c-0.1,0-0.1,0.1-0.1,0.1l0,0c0,0,0,0,0,0c0,0-0.1,0.1-0.1,0.2c0.1-0.7,0.3-1.2,0.4-1.8
	c0,0.1,0.1,0.3,0,0.5c0,0.3-0.1,0.6-0.2,0.9c0,0,0,0,0.1,0.1c0-0.1,0.1-0.1,0.1-0.1c0-0.2,0-0.2,0.1-0.3c0.3-0.6,0.3-1.2,0.5-1.8
	c0.1-0.5,0.3-1,0.4-1.4c0.1-0.5,0.2-0.8,0.2-1.2c0-0.1-0.1-0.2-0.1-0.3c-0.1,0.1-0.2,0.2-0.3,0.2c0.2-1.6,2.1-8.1,2.5-9.7
	c0.2-1,0.3-1.9,0.5-2.9c0.1-0.6,0.2-1.4,0.3-2c0.1-0.2,0.2-0.3,0.3-0.5c0.3,0,0.6-0.1,0.9-0.1c0.1,0.2,0.3,0.3,0.6,0.3
	c0.1,0,0.2,0,0.3,0.1c0.2,0.2,0.5,0.2,0.7,0.2c0.3,0.1,0.6,0.3,0.8,0.5c0.2,0.3,0.4,0.5,0.5,0.7c0.1,0.1,0.2,0.2,0.3,0.3
	c0.2,0.2,0.3,0.4,0.3,0.6c0.2,0.1,0.1-0.1,0.2-0.1H52c0.1,0.1,0.2,0.2,0.2,0.5c0,0.2,0,0.5,0.2,0.6c-0.2,0.3,0.2,0.5,0.2,0.8
	c-0.1,0.1,0,0.2,0,0.2c0.2,0.3,0.2,0.6,0.1,1c0,0.3,0.1,0.7,0.1,1c0,0.3,0,0.6-0.1,0.9c0,0-0.1-0.1-0.2-0.1c0,0.2-0.1,0.3-0.1,0.4
	h0.2c0,0,0,0,0,0c0,0.2,0,0.3-0.1,0.5c-0.1,0.4-1.7,5.7-1.8,6.1c0,0.2,0,0.3-0.1,0.3c-0.2,0.4-0.2,0.9-0.3,1.2
	c-0.1,0.3-0.1,0.7-0.2,1c-0.1,0.1-0.1,0.2,0,0.3c0,0.1,0,0.2-0.2,0.3c-0.1,0.1-0.2,0.2-0.3,0.3c-0.1,0.1-0.1,0-0.2-0.1
	c-0.1,0.2-0.1,0.4,0,0.6c0.3,0,0.2-0.4,0.5-0.5c0.1,0.2,0.1,0.3,0.1,0.5c0,0,0,0.1,0.1,0.1c-0.1,0.1-0.2,0.2-0.5,0.3
	c-0.2,0.2-0.3,0.3-0.3,0.6c0,0.2-0.1,0.3-0.2,0.4c0,0,0.1,0,0.1,0.1c0.2-0.2,0.3-0.5,0.5-0.6c0.1,0.1,0.1,0.1,0.1,0.2
	c-0.1,0.3-0.2,0.7-0.2,1c0,0.3-0.1,0.5-0.4,0.5c-0.2,0.1-0.3,0.2-0.3,0.4c0,0.3-0.3,0.6-0.5,1l-0.1,0.1v0.4c0.1,0.1,0.2,0.2,0.3,0.2
	c0,0.2,0.1,0.5,0,0.6c0,0.1,0,0.1-0.1,0.2c-0.1,0-0.1,0-0.2,0c0,0,0,0,0,0c-0.1-0.1-0.1-0.3-0.2-0.5c-0.2,0-0.1,0.2-0.1,0.2
	c0,0,0,0.1-0.1,0.1c-0.1,0-0.2,0-0.2,0.1c0.1,0,0.1,0.1,0.1,0.1c-0.1,0.1-0.1,0.3-0.2,0.4c-0.2,0.4-0.3,0.7-0.1,1.2
	c-0.3,0.3-0.6,0.6-0.7,0.9c0,0,0,0.1-0.1,0.1c0-0.1,0.1-0.1,0.1-0.1c-0.2,0-0.3-0.1-0.4-0.1c-0.1,0.4-0.5,0.2-0.7,0.1
	c0,0.3,0.1,0.5,0.2,0.6c-0.1-0.5,0.2-0.3,0.5-0.2c-0.1,0.2-0.1,0.4,0,0.6c0.1,0,0.1-0.1,0.2-0.1c0.1-0.1,0.2-0.2,0.2-0.2
	c0.3-0.2,0.6-0.2,0.9-0.5c0.2-0.2,0.5-0.3,0.8-0.4c0.1,0,0.2-0.1,0.2-0.1c0.5-0.3,0.9-0.6,1.3-1c0.1,0,0.2-0.1,0.3-0.1
	c0.3-0.1,0.6-0.4,0.8-0.6c0.1-0.2,0.3-0.3,0.5-0.5c0,0,0,0,0,0c0,0,0,0,0,0c0.1-0.1,0.1-0.1,0.2-0.2c0.1,0,0.1-0.1,0.2-0.1
	c0.1-0.1,0.2-0.2,0.3-0.2c0,0,0.1,0,0.1-0.1V62c0.4,0,0.5-0.3,1-0.2c0.1-0.6-0.4,0.1-0.4-0.2c0,0,0,0,0,0c0.1-0.1,0.3-0.2,0.4-0.3
	c0.7-0.6,1.5-1,2.3-1.4c0.8-0.3,1.5-0.6,2.3-0.9c0.1-0.3,0.2-0.5,0.3-0.7c0.2-0.8,0.5-1.6,0.7-2.3c0.1-0.6,0.4-1.3,0.6-1.9
	c-0.1-0.2-0.3,0.1-0.4-0.1c0-0.2,0.1-0.4,0.3-0.4c0.4-0.2,0.5-0.4,0.6-0.8c0-0.3-0.2-0.7-0.6-0.5c-0.2,0-1,0.1-1.2,0.2
	c-0.2,0.2,0.4,0.3,0.3,0.4c-0.2,0.1-0.3,0.1-0.4,0.1c-0.5-0.3-1.6-0.6-1.9-1c-0.1-0.1-0.1-0.2-0.1-0.3c-0.1-0.1-0.1-0.1-0.2-0.3
	c0.2-0.2,0.3-0.5,0.5-0.8c0.2-0.2,0.3-0.3,0.6-0.5c0.2-0.1,0.5-0.3,0.8-0.4c1-0.7,2.7-1.4,3.7-2c0.2-0.1,0.3-0.2,0.3-0.5
	c0.2-0.4,0.4-0.8,0.5-1.3c0.2-0.4,0.3-0.8,0.5-1.3c0.2-0.3,0.4-0.7,0.9-0.7c0.2,0,0.3-0.1,0.6-0.2c0.4,0.1,0.8,0.3,1.3,0.3
	c0.1,0,0.2,0,0.3,0c0.4,0.1,0.8,0.3,1.1,0.7c0.3-0.1,0.6-0.2,1-0.2c0.5-0.3,1-0.4,1.6-0.5c0.9-0.1,1.8-0.2,2.7-0.3
	c1.1-0.1,2.2,0,3.2,0.4c0.6,0.2,1.1,0.6,1.6,1c0.4,0.4,0.8,0.9,1.3,1.2c0.1,0,0.2,0.2,0.2,0.3c0.1,0.2,0.2,0.3,0.2,0.4
	c0,0.2,0.3,0.5,0.4,0.8c0,0.2,0.1,0.5,0.1,0.7c0,0.1,0,0.2,0,0.3c-0.1,0.2-0.2,0.5-0.2,0.8c0,0.3-0.1,0.6-0.2,0.8
	C78.9,50.2,78.7,50.5,78.6,50.7 M47.3,55.6c0-0.2-0.1-0.3-0.4-0.2v0.2H47.3z M47.7,56.5c0.1,0.3-0.7-0.1-0.6,0.2
	c0.3,0,0.3,0.2,0.6,0.1C47.8,56.7,48,56.6,47.7,56.5 M47.2,57.2c0.2-0.1,0.5-0.1,0.6-0.2C47.6,57,47,56.8,47.2,57.2 M47.4,56.2
	c0-0.3-0.1-0.4-0.4-0.4C47,56.2,47.3,56.1,47.4,56.2 M47.4,53.1C46.7,52.7,47.1,53.4,47.4,53.1 M47,60.8
	C47.2,61.5,47.6,61.1,47,60.8 M47.6,63c-0.2,0-0.5-0.1-0.3,0C47.5,63,47.6,63,47.6,63 M47.9,60.6c-0.2-0.2-0.5-0.1-0.6,0.1
	c0.3,0,0.2,0.5,0.5,0.5c0.4-0.2-0.4-0.4,0-0.6C47.7,60.6,47.8,60.7,47.9,60.6 M48.5,55.8c-0.2-0.1-1.1-0.2-0.7,0.2
	C47.9,55.8,48.5,56.4,48.5,55.8 M48.5,57.4c-0.1-0.1-0.3,0.1-0.4,0.1C48,58,48.8,57.6,48.5,57.4 M49.3,57.1c-0.1,0-0.5-0.3-0.5,0
	c0.1,0,0.1,0.1,0.1,0.2h0.2C49.1,57.2,49.2,57.2,49.3,57.1 M49.6,53.5c-0.4,0.1-0.6-0.3-0.7,0.1C49.3,53.5,49.5,54,49.6,53.5
	 M50.8,50.6c0.1,0.3-0.6,0.4-0.1,0.6C50.8,51,51.2,50.7,50.8,50.6 M50.1,50.3c0.4-0.1,0.5,0.2,0.9,0.1c0-0.3,0.2-0.4,0.2-0.6
	C50.8,49.6,50.4,50.1,50.1,50.3 M50,46.1c0.1,0,0.1,0.1,0.2,0.1c0-0.2,0-0.4-0.2-0.4V46.1z M49.7,50.9c0.2,0.2,0.4,0.1,0.5-0.1
	C50.1,50.7,49.8,50.7,49.7,50.9 M49.7,46.2c-0.1-0.3,0.4-0.6,0-0.7C49.6,45.7,49.1,46.2,49.7,46.2 M49.4,48.3h0.2V48h-0.2V48.3z
	 M48.9,51.7h-0.4c0.2,0.3-0.1,0.6,0.1,0.7c0.1-0.6,0.3,0.4,0.6,0.4c0.1-0.2,0.4-0.5,0-0.6c0,0.1,0,0.3-0.2,0.2
	C49.3,52,48.5,52.2,48.9,51.7 M48.3,42c0,0.3,0.2,0.4,0.5,0.4C48.9,42,48.6,42,48.3,42 M48.3,51.3c0.2,0,0.6,0.1,0.5-0.2
	C48.5,51,48.3,51.1,48.3,51.3 M47.9,52.3c0.1,0,0.5,0.3,0.5,0C48.3,52.3,47.9,52,47.9,52.3 M47.9,50.7c-0.2-0.2-0.5-0.2-0.5,0.1
	C47.7,50.8,47.8,51.1,47.9,50.7 M47.7,44.2h-0.5C47.1,44.7,47.8,44.7,47.7,44.2 M46.8,52.4c0.2-0.1,0.6,0.1,0.6-0.1
	C47.2,52.4,46.8,52.1,46.8,52.4 M45.9,61.5c0.5,0,0.3-0.8,0.9-0.7C46.1,60.4,45.9,61.2,45.9,61.5 M46.2,48.1
	c0.3,0.3,0.3-0.2,0.5-0.4C46.4,47.7,46.4,48,46.2,48.1 M45.4,53.6c0.5,0.1,0.4,0,0.9,0.2C46.5,53.2,45.4,52.9,45.4,53.6 M45,51.7
	c0.2,0,0.2,0.2,0.5,0.1C45.7,51.5,44.9,51.5,45,51.7 M44.4,64.8c0,0.4,0.6,0.7,0.6,0.2C44.7,65.2,44.7,64.9,44.4,64.8 M44.4,54.6
	C44.9,55,45.1,54.2,44.4,54.6 M42.6,65.2c0-0.3,0.3-0.6,0.5-0.4c-0.2-0.7-0.7,0.1-1.1-0.2C41.9,65.1,42.5,64.9,42.6,65.2 M42.2,72.5
	c-0.2-0.2-0.3-0.2-0.5-0.2c-0.3,0.1-0.7,0.1-1.1,0.1c-0.1,0.2-0.2,0.4-0.2,0.6c0.3,0.1,0.5,0.1,0.7,0C41.5,73,41.9,72.9,42.2,72.5
	 M43.3,66.3c0-0.4-0.5-0.2-0.2-0.7c-0.5,0.2-0.7,0.1-1,0.4c-0.2-0.5-0.8,0.1-1.2-0.2c0,0.6,1.1,0.1,1.2,0.6
	C42.7,66,42.7,66.2,43.3,66.3 M43.6,66.6C42.9,66.2,43.3,66.9,43.6,66.6 M43.7,62.4c-0.4-0.2-1.5-0.3-1.5,0.4c0.6-0.3,0.5-0.4,1,0
	c0.4,0-0.3-0.4,0.1-0.4C43.5,62.4,43.6,62.6,43.7,62.4 M42.8,61.5c0.1,0,0.1,0.1,0.1,0.2c-0.1,0-0.2,0-0.2,0.1
	c0.4-0.1,0.4,0.2,0.7,0.1c-0.1-0.8,0.2,0.2,0.4-0.2C44,61.6,43.2,61.4,42.8,61.5 M44.1,57.9c-0.1-0.3,0.5-0.1,0.5-0.4
	c-0.2,0-0.2-0.3-0.5-0.2C44.3,57.6,43.8,57.8,44.1,57.9 M45.5,65.9c-0.5,0-0.7,0-1.3-0.2c0,0.2-0.1,0.3-0.1,0.4
	C44.9,65.9,45.3,66.8,45.5,65.9 M45.8,57.4c0-0.2-0.1-0.3-0.2-0.4C45.6,57.3,45.7,57.4,45.8,57.4 M46.1,67.1c0-0.3-0.1-0.4-0.4-0.4
	v0.4H46.1z M46.5,68.1C46.1,67.8,46.1,68.6,46.5,68.1 M46.6,67.2c0.1-0.3-0.3-0.5-0.4-0.2C46.4,66.9,46.5,67.1,46.6,67.2 M47.7,66.6
	c0.2,0,0.2,0.2,0.5,0.1C48.3,66.4,47.6,66.4,47.7,66.6 M52.7,78.4c-0.1-0.2-0.2-0.5-0.4-0.3C52.3,78.4,52.5,78.4,52.7,78.4
	 M57.6,67.8h-0.9c-0.1,0.5,0.2,0.5,0.4,0.7C57.1,68.1,57.5,68.2,57.6,67.8 M57.6,67.1c-0.4,0-0.4-0.6-0.7-0.2
	C56.7,67.3,57.5,67.3,57.6,67.1 M66.9,49.2c0,0.1,0,0.3,0.1,0.4c0-0.1,0-0.1,0.1-0.1C67.1,49.3,67.1,49.2,66.9,49.2 M66.5,48.3
	c-0.1,0.3,0.3,0.5,0.4,0.2C66.7,48.5,66.7,48.3,66.5,48.3 M66.2,49.2C66.5,49.9,66.6,48.8,66.2,49.2 M66,48.5
	C66.4,48.9,66.4,48,66,48.5 M64.9,49.2c0.1,0.6,1.1,0.3,1.2-0.1C65.5,48.9,65.2,49.5,64.9,49.2 M64.9,50.6c0.3,0.1,0.3,0.3,0.7,0.2
	C65.6,50.5,65,50.2,64.9,50.6 M64.8,48.7c0.2-0.3,0.9,0.1,1.1-0.4c-0.5-0.4-0.7,0.3-1.1,0C64.8,48.6,64.6,48.7,64.8,48.7 M63.9,50.7
	c0.4,0.1,0.6-0.1,0.7-0.4C64.5,50.5,63.9,50.3,63.9,50.7 M63.1,49.2c0,0.2,0.1,0.3,0.1,0.5c0.5-0.1,0.7-0.3,1.2-0.1
	C63.8,49.1,64,49.3,63.1,49.2 M63.1,50.9c0.2-0.2,0.7-0.1,0.7-0.5C63.4,50.5,63.1,50.6,63.1,50.9 M63.4,57.7c0,0.3,0.2,0.4,0.4,0.5
	C63.7,57.9,63.8,57.6,63.4,57.7 M62.3,56.4c0.4-0.1,0.8,0,1.1-0.1C63.2,56,62.6,56.2,62.3,56.4 M63.2,61.8c-0.1,0,0.2,0.4,0.1,0.1
	C63.2,61.6,62,61.7,63.2,61.8 M62.7,64.2c0.2,0,0.5,0,0.5-0.1C63,64.1,62.7,64,62.7,64.2 M63.1,63C63.1,63,63.1,63,63.1,63
	 M62.2,56.4c-0.3,0-0.5-0.3-0.6,0.1C61.9,56.6,62,56.7,62.2,56.4 M61.5,61.3V62c0.2,0,0.3-0.1,0.5-0.1
	C61.9,61.6,61.8,61.4,61.5,61.3 M62.2,61.2C62.7,61.9,62.8,60.7,62.2,61.2 M62.8,57.7c-0.3,0.2-0.5-0.3-0.5,0
	C62.4,57.7,62.8,58,62.8,57.7 M63.3,58c-0.2,0-0.2-0.2-0.4-0.2C62.8,58,63.3,58.3,63.3,58 M62.6,49.7c0.1,0,0.1,0.1,0.2,0.1
	C63.2,49.6,62.6,49.4,62.6,49.7 M62.5,49.8c0,0.2,0.1,0.3,0.2,0.4C62.7,50,62.6,49.9,62.5,49.8 M61.5,48.9h0.4
	c0-0.2-0.1-0.3-0.4-0.2V48.9z M61.2,50.8c0.4-0.1,1.1,0.2,1.2-0.1C62.2,50.1,61.6,50.5,61.2,50.8 M60.6,56.6
	c0.2,0.1,0.3,0.3,0.6,0.2C61.4,56.5,60.6,56.5,60.6,56.6 M60.6,57.9c0,0.1,0,0.3,0.1,0.4c0-0.1,0-0.1,0.1-0.1
	C60.9,58,60.8,57.9,60.6,57.9 M60.5,56.4c-0.3,0-0.2,0.2-0.5,0C59.9,56.9,60.6,56.9,60.5,56.4 M60,56.8C59.6,56.4,59.6,57.3,60,56.8
	 M59.4,57.8c0.3,0.1,0.6,0.4,0.6-0.1C59.8,57.7,59.4,57.5,59.4,57.8 M59.3,69.5C58.5,69.4,59,69.9,59.3,69.5 M60.1,68.1
	c-0.2,0.5-1.2,0.1-1.1,0.5c0.2,0,0.2-0.2,0.4-0.1c-0.4,0.7,0.5,0,0.2,0.5C60.1,68.9,60.1,68.4,60.1,68.1 M61.4,66.2
	c0.1,0.3-0.6,0.5,0,0.5c0.2-0.3,0-0.6,0.6-0.4c0-0.2-0.1-0.3-0.1-0.5c-1.1,0.4-3.5-0.5-3.9,0.7c0.9-0.2,1.1-0.3,2-0.5
	c0,0.1,0,0.3,0.1,0.4C60.1,65.9,61.1,66.2,61.4,66.2 M61.5,67.6C61.2,67.1,60.7,67.7,61.5,67.6 M61.6,68.4c-0.2-0.1-0.8-0.5-0.9,0
	C61,68.4,61.5,68.8,61.6,68.4 M61.6,67.6c0.1,0,0.1,0.1,0.2,0.1c0-0.2,0-0.4-0.2-0.4V67.6z M62.1,68.2c0.1,0,0.1,0,0.1,0.1
	c-0.4,0.2-0.1-0.4-0.5-0.2v0.4c0.4,0.1,0.3,0,0.6,0.1C62.4,68.3,62.1,67.9,62.1,68.2 M62.6,66.7C62.2,66.3,62.2,67.2,62.6,66.7
	 M62.8,66.4c0-0.3-0.5-0.7-0.9-0.4C62.2,66.1,62.6,66.6,62.8,66.4 M63.4,65.9c-0.2,0-0.6-0.1-0.5,0.2C63.2,66.1,63.4,66,63.4,65.9
	 M63.9,62.7c-0.3-0.1-0.5-0.3-1-0.2c0.2,0.3,0.3,0.6,0.7,0.7C63.5,62.8,64.1,63.1,63.9,62.7 M65,62.6C63.9,62.4,64.8,63.1,65,62.6
	 M65.6,61.5c-0.3,0-0.5,0-0.5,0.4C65.5,61.9,65.5,61.6,65.6,61.5 M65.6,60.2c0.5,0,1,0.2,1.6-0.2c-0.7,0-0.7,0-0.9-0.6
	C66.5,60,65.5,59.5,65.6,60.2 M66.5,62.9c0-0.2,0.1-0.3,0.1-0.5c-0.2,0-0.4,0-0.5-0.1c0,0.5-0.2,0.2-0.6,0.2
	C65.6,62.9,66,62.8,66.5,62.9 M66.5,66c-0.4,0.2-0.7-0.3-0.7,0.3C66.1,66.3,66.6,66.5,66.5,66 M66.7,64.9c0,0.2-0.4,0.3,0,0.6
	C67,65.5,66.8,64.8,66.7,64.9 M67.4,64.1c-0.1-0.5-0.4-0.3-0.3-0.7c-0.2,0.1-0.3,0.1-0.5,0C66.8,63.9,67,64.4,67.4,64.1 M68,59.6
	c0.1,0,0.1,0,0.1,0.1c-0.2,0-0.3-0.1-0.4-0.1C67.6,60,68,59.9,68.1,60C68.2,59.8,68.2,59.3,68,59.6 M70.8,56.2
	c0-0.3-0.1-0.4-0.4-0.4C70.3,56.2,70.7,56.1,70.8,56.2 M71.7,56c-0.3,0-0.5,0-0.5,0.2C71.5,56.2,71.7,56.2,71.7,56 M73,51.9
	c-0.1-0.1-0.3,0.1-0.4,0.1C72.5,52.3,73.1,52,73,51.9 M73.2,49.1c-0.1,0-0.2,0-0.3,0c0.1-0.1,0.2-0.3,0.2-0.4c0-0.1,0-0.2,0-0.3
	c-1-0.3-1.9-0.1-2.9,0.2c-0.1-0.1-0.3-0.3-0.6-0.2l0,0.3c-0.3,0.1-0.7,0.2-1,0.3c-0.1,0-0.2,0.1-0.3,0c-0.3,0.3-0.8,0.5-1.2,0.7
	c-0.2,0.1-0.4,0.2-0.4,0.4c0.1,0.1,0.1,0.2,0.1,0.3c-0.4,0.1-0.4,0.5-0.5,0.8c0,0.3-0.1,0.6-0.1,0.9c-0.2,0.4-0.4,0.8-0.4,1.3
	c0,0.1,0,0.1,0,0.2c0,0.2-0.2,0.5-0.2,0.7c0,0.3-0.1,0.5-0.2,0.7c-0.3,0.4-0.3,0.9-0.4,1.3c0,0.3-0.1,0.5-0.1,0.7
	c0,0.2-0.1,0.4-0.2,0.5c0,0.1-0.1,0.3-0.1,0.4c0,0,0-0.1,0-0.1H64c-0.1,0.2,0.1,0.4,0.3,0.4c-0.1,0.2-0.2,0.4-0.1,0.7l0,0.1
	c-0.2,0.5-0.4,1-0.5,1.5c0,0.1-0.1,0.2-0.2,0.3c0,0.3-0.1,0.6-0.2,0.8c0,0-0.1,0-0.1,0c0,0,0,0.1,0.1,0.1c0,0.1-0.1,0.1-0.1,0.2
	c0.1,0.1,0.2,0.1,0.2,0c0.4,0.5,0.7,0.2,1.5,0.2c-0.1-0.4,0.1-0.4,0.1-0.7c-0.2-0.3-0.9,0.1-0.4,0.2c-0.4-0.1-0.2,0.3-0.6,0.2
	c0-0.3-0.2-0.3-0.4-0.2c0.3-0.4,0.5-0.7,0.8-1c0.4-0.3,0.6-0.6,0.9-0.9c0.2-0.2,0.3-0.4,0.5-0.6c0.6-0.6,1.1-1.3,1.6-1.9
	c0.2-0.2,0.3-0.4,0.4-0.6c0.4,0,0.7-0.2,0.5-0.4c-0.1,0.2-0.2,0.2-0.4,0.2c0.2-0.4,0.5-0.7,0.8-1.1c0.4-0.5,0.9-1,1.2-1.5
	c0.4-0.6,0.8-1.2,1.2-1.9c0.1-0.2,0.3-0.4,0.4-0.6h0.1v-0.1c0.4-0.6,0.7-1.2,1-1.8C73,49.3,73.1,49.2,73.2,49.1 M73.3,47.8
	c0-0.3-0.1-0.6-0.4-0.6c-0.1,0-0.2,0-0.3,0c-0.7,0.1-1.4,0.2-2,0.3c-0.1,0-0.2,0.1-0.3,0.1c0,0.1,0,0.1,0,0.3c0.2,0,0.2,0,0.3,0
	c0.3,0,0.6,0,0.9,0c0.5,0,1,0,1.4,0.1c0.1,0.1,0.1,0,0.1,0C73.2,47.9,73.3,47.8,73.3,47.8 M34.2,28.7c0.1-0.2,0.1-0.3,0.1-0.4
	C34.1,28.4,34.1,28.4,34.2,28.7 M35.4,24.2L35.4,24.2c-0.1,0.1-0.1,0.1-0.1,0.2c0.1,0.1-0.1,0.3-0.1,0.4c-0.1,0.2-0.1,0.3,0.1,0.4
	C35.3,24.7,35.5,24.5,35.4,24.2 M34.3,31.8c0.1,0,0.1-0.1,0-0.2c-0.1-0.1-0.1,0-0.1,0c-0.1,0.1-0.1,0.2-0.1,0.2l0.1,0.1
	C34.1,31.8,34.2,31.8,34.3,31.8 M34.6,27.8L34.6,27.8c-0.3,0-0.4,0.1-0.4,0.2c-0.1,0.1,0,0.1,0,0.1h0.1
	C34.5,28.1,34.5,27.9,34.6,27.8 M34.5,22.2c-0.1-0.1-0.1-0.1-0.2-0.1h-0.1c0.1,0.1,0.1,0.1,0.1,0.1C34.3,22.3,34.3,22.2,34.5,22.2
	 M38.5,57.9c-0.3,0.3-0.5,0.6-0.3,1.1c0,0.1-0.1,0.4-0.2,0.6c-0.2,0.3-0.5,0.7-0.6,1.1c-0.1,0.1-0.1,0.1-0.1,0.2
	c0.1,0.1,0.2,0.2,0.2,0.3c-0.1,0.1-0.2,0.3-0.2,0.4c-0.3,0.2-0.5,0.5-0.5,0.9c-0.1,0.3-0.2,0.6-0.3,0.9c0,0.2-0.1,0.5-0.1,0.6
	c0.1,0.6,0.1,1,0,1.5c-0.1,0.3-0.2,0.7-0.3,1c-0.1,0.2-0.1,0.3-0.2,0.6c0.1,0.1,0.1,0.1,0.1,0.2c-0.1,0.1-0.1,0.2-0.2,0.4
	c-0.3,0.5-0.5,1-0.6,1.6c0,0.1,0,0.2-0.1,0.2c-0.2,0.2-0.2,0.5-0.3,0.6c-0.1,0.2-0.1,0.4-0.4,0.4c-0.2,0-0.2,0.1-0.2,0.2
	c-0.1,0.3-0.2,0.6-0.4,0.7c-0.2,0.2-0.4,0.3-0.5,0.1c-0.1,0.1-0.2,0.2-0.2,0.2c-0.1,0.2-0.2,0.3-0.5,0.4c-0.3,0-0.5,0.1-0.7,0.4
	c-0.2,0.3-0.5,0.6-0.6,1c-0.1,0.5-0.2,0.6-0.7,0.6c-0.1,0-0.3-0.2-0.5-0.2c-0.3,0.3-0.4,0.8-0.7,1.2c-0.2-0.3-0.1-0.6-0.3-0.9
	c-0.5-0.1-0.6-0.6-0.6-1c-0.1-0.6,0-1.3,0.1-1.9c0.2-1.1,0.5-2.1,0.7-3c0.3-0.9,0.6-1.7,0.9-2.6c0.1-0.3,0.2-0.5,0.2-0.8
	c0,0,0.1,0.1,0,0.2c1.4,0.1,2,0,3.2,0.2c0-0.2-0.1-0.4-0.2-0.5c0,0.5-1.1,0.1-1.2-0.1c0.1-0.1,0.3-0.1,0.4-0.2h-0.2
	c0-0.1,0-0.1-0.1-0.1c0.2,0.5-0.4,0.7-0.5,0.2c0.2,0,0.3-0.1,0.4-0.2h-0.2c0-0.1,0-0.1-0.1-0.1c-0.1,0.3-0.1,0.7-0.5,0.7
	c0.1-0.4-0.4-0.4-0.7-0.3c0.1-0.3,0.1-0.6,0.2-0.9c0.4-1.5,0.7-3,1.1-4.5c0.1-0.3,0.3-0.7,0.4-1h0v0c0-0.1,0.1-0.1,0.1-0.2
	c0-0.1,0.1-0.2,0.1-0.3c0,0,0,0,0,0c0.1,0.1,0.2,0.1,0.3,0.2c0-0.2-0.1-0.3-0.3-0.4c0.1-0.4,0.3-0.8,0.4-1.2
	c0.5-0.7,0.6-1.4,0.9-2.1c0.2-0.5,0.4-1.1,0.7-1.7c0,0,0.1,0,0.1-0.1c0,0,0,0-0.1,0c0.3-0.8,0.6-1.5,1-2.3c0.5-1,0.7-2,1.1-3
	c0.2,0.1,0.2,0.2,0.2,0.5c0,0,0.3-0.1,0.4-0.1c0.1,0.1,0.2,0.2,0.3,0.3c0.1,0.1,1-0.9,1.1-0.2c0.5-0.1,1.4,0,1.2,0.8
	c0.1-0.3,0.3-0.7,0.7-0.8v0.3c0.1,0.8,0.1,1.6-0.1,2.5c-0.1,0.3-0.1,0.5-0.2,0.7c-0.2,0.8-0.5,1.5-0.7,2.3c0,0.1-0.1,0.1-0.1,0.2
	c0,0.4-0.1,0.7-0.3,1.1C39,55,39,55.4,38.9,55.7c-0.1,0.3-0.2,0.7-0.3,1.1C38.4,57.2,38.3,57.6,38.5,57.9 M30.9,66.6
	c0.2,0,0.2,0.2,0.5,0.1C31.6,66.4,30.9,66.4,30.9,66.6 M32.6,65.8c-0.4,0-1-0.1-1,0.2C32,65.9,32.3,66.2,32.6,65.8 M33,67.1
	c0-0.1,0-0.3-0.1-0.4c0,0.1,0,0.3-0.2,0.2c0-0.1-0.1-0.1-0.1,0C32.7,67,32.7,67.1,33,67.1 M35.3,61.6h0.4c0-0.3-0.1-0.4-0.4-0.4
	V61.6z M34.4,62.3c0.1,0,0.1,0,0.1,0.1h0.2C34.9,62.2,34.3,62.1,34.4,62.3 M33.9,57.2c0.2,0,0.3-0.1,0.4-0.2
	C34,57,33.8,56.9,33.9,57.2 M34,58.7c0.1,0,0.1,0,0.2,0C34.4,58.8,34.2,58.7,34,58.7 M33.6,57.8c0,0.4,0,1.4,0.2,1.1
	c-0.1-0.1-0.1-0.1-0.1-0.2c0-0.2,0.3-0.2,0.4-0.4c-0.2,0-0.4,0-0.4-0.2c0.3,0,0.5,0,0.5-0.2H33.6z M33.8,58.7c0,0,0.1,0,0.2,0
	C33.9,58.7,33.8,58.7,33.8,58.7 M33.1,57.6c0-0.7,0-1,0.6-0.7c0-0.4-0.5-0.3-0.7-0.5C32.7,56.7,32.7,57.3,33.1,57.6 M32.9,58.9
	c-0.1,0.3,0.3,0.2,0.4,0.4C33.3,59,33.2,58.9,32.9,58.9 M32,59.2c0.3,0,0.4,0.2,0.7,0.1C32.9,58.9,32,59,32,59.2 M32,59.7
	c0.2,0.2,0.5,0.2,0.5-0.1C32.3,59.6,32.1,59.5,32,59.7 M32,60.5h0.2v-0.2H32V60.5z M33.5,63.2c-0.2,0-0.1-0.4-0.4-0.4
	c0.1,0.3-0.3,0.2-0.4,0.4c0.1-0.4-0.1-0.4-0.1-0.7c-0.4-0.1-0.2,0.5-0.5,0.5c-0.2-0.4-0.5-0.6-0.7-0.9c0,0.9-0.5,0.7-0.5,1.7
	c0.2,0.4,0.6-0.3,0.7,0.1c-0.1,0-0.3,0-0.4,0.1c0.2,0,0.3,0.1,0.5,0.1c0.1-0.4,0.4-0.5,0-0.7c0.1-0.1,0.7-0.3,0.7,0
	c0,0.1-0.6,0.3-0.2,0.5c0.3-0.3,0.7,0.4,1-0.1c-0.1-0.2-0.6,0-0.6-0.2c0.2,0,0.1-0.2,0.2-0.2C33,63.4,33.4,63.4,33.5,63.2
	 M32.5,60.3c0.6,0.1,0.6,0,1.1,0.3C33.9,59.8,32.5,59.4,32.5,60.3 M33.9,59.5c-0.4,0,0.2-0.2,0.1-0.3h0.1c0-0.2-0.1-0.3-0.4-0.2v0.2
	h0.1c-0.1,0.3-0.5,0.2-0.7,0.4C33.3,59.9,33.8,59.8,33.9,59.5 M35.1,63c-0.6,0-0.8,0.3-1.1-0.1c0,0.2,0,0.4-0.1,0.5
	c0.4,0,0.6-0.3,0.7,0.1c-0.3-0.1-0.2,0.3-0.4,0.4C34.8,63.9,34.7,63.2,35.1,63 M34.7,66.1C33.9,65.9,34.4,66.5,34.7,66.1 M35.5,64.5
	c0-0.1,0.1-0.2,0.1-0.3c0.1,0,0.1,0,0.2,0.1c0.1-0.3-0.3-0.2-0.4-0.4c0,0.3-0.3,0.2-0.5,0.3c-0.2,0-0.3,0-0.3,0.2
	C35.1,64.3,35.1,64.6,35.5,64.5 M35.9,64.9c-0.2-0.2-0.8-0.2-0.7,0.2C35.5,65.1,35.8,65,35.9,64.9 M36.4,60.9h-0.2v0.2h0.2V60.9z
	 M36.1,59.8C36.1,59.8,36,59.8,36.1,59.8C36,59.8,36.1,59.8,36.1,59.8 M36.2,59.8C36.2,59.8,36.2,59.8,36.2,59.8
	C36.2,59.8,36.2,59.8,36.2,59.8 M36.4,59.8C36.4,59.8,36.4,59.8,36.4,59.8C36.4,59.8,36.4,59.8,36.4,59.8 M36.9,56.2
	c-0.4,0-0.5,0.5-0.1,0.5C36.8,56.5,36.8,56.3,36.9,56.2 M37.4,58.4h-0.2v0.2h0.2V58.4z M35.3,18.3L35.3,18.3h-0.1
	C35.2,18.4,35.2,18.4,35.3,18.3C35.3,18.4,35.3,18.3,35.3,18.3 M35.4,28.7L35.4,28.7L35.4,28.7L35.4,28.7L35.4,28.7z M33.9,31.2
	L33.9,31.2h0.1C34,31.1,34,31.1,33.9,31.2L33.9,31.2z M88.5,72.1c0.3,0.7,0.1,1.1-0.7,1.1c-2.6,0.1-2,0.4-3.4-1.9
	c-0.3-0.6-0.3-1-0.9-1.6c-1.9-0.9-2.2,0-2,1.1c0,0.2,0.1,0.4,0.1,0.5c0,1.7-0.3,1.9-1.5,2c-1.5,0-1.5-0.5-1.6-0.7c0-0.3,0-0.6,0-0.9
	c0.2,0,0.3,0.2,0.5,0.2c0-0.3,0.4-0.2,0.3-0.6c-0.3-0.3-0.7-0.1-0.9,0.2c0.1-3.1,0.1-6.1,0.2-9.2c0-0.5,0.1-0.8,0.3-1.1
	c0.1,0.1,0.2,0.2,0.5-0.1C79.3,61,79.2,61,79.2,61c0.2-0.2,0.5-0.3,0.5-0.3c1.1-0.2,2.2-0.2,3.3-0.4c0.2,0,1.5,0.1,1.7,0.2
	c1.1,0.4,1.3,0.4,1.7,0.7c0.4,0.3,1.2,0.6,1.3,1c0.3,0.9,0.7,1.8,0.7,2.7c-0.2,0.3-0.4,0.6-1,0.5C88,65,87,65.2,86.7,65
	c-0.3,0.7-0.9,0.4-1.5,0.3c0.1-0.5-0.2-1-1-1.3c-0.3-0.1-0.7-0.3-1-0.3c-1.1-0.1-1.7,0.1-1.8,1.2c0,0.3,0.1,0.9,0.4,1.1
	c0.5,0.3,0.9,0.6,1.5,0.5c0.5-0.1,1.2-0.2,1.5-0.6c0,0,0,0,0-0.1c0.4,0.1,0.7,0.2,0.7-0.2c0.3,0,0.1,0.5,0.5,0.5
	c0.5-0.3-0.4-0.5,0-0.6c0.2,0.1,0.3,0.2,0.3,0.5c0.4,0,0.3-0.3,0.6,0c0-0.2,0-0.5,0.2-0.5c0.4,0,0.8,0.2,1,0.5
	c0-0.1,0.2-0.2,0.3-0.2c0,0.1,0,0.2-0.1,0.2c-0.2,0.6-0.1,1.5-1.4,2.3c-0.5,0.3-0.7,0.5-0.2,1c0.5,0.7,0.7,1.6,1.3,2.2
	C88.3,71.6,88.4,71.9,88.5,72.1 M86.2,64.5c0.2-0.2,0.6-0.7,0-0.8C86.3,64.2,85.6,64.3,86.2,64.5 M85.3,63c0.3,0.1,0.1,0.5,0.6,0.3
	C86.1,63,85.2,62.8,85.3,63 M85.3,61.4C86.4,61.1,84.8,60.9,85.3,61.4 M83.2,62.9c0.6,0.7,1.1,0.3,1.9,0.3
	C85,62.2,84,63.1,83.2,62.9 M84,61.9c0,0.2-0.1,0.4-0.2,0.5c0.5,0,1.1,0.1,1-0.5C84.3,61.8,84.3,62.2,84,61.9 M84,61.1
	c-0.1-0.1-0.5,0.1-0.5,0.2C83.4,61.6,84.1,61.2,84,61.1 M83.2,62.2C82.4,61.8,82.8,62.8,83.2,62.2 M80.5,61.3h0.3
	c0.2-0.4-0.5-0.5-0.5-0.2C80.4,61.1,80.5,61.1,80.5,61.3 M80.9,62.6c0.4-0.2,0.9-0.3,1-0.8c-0.5,0.4-1.3-0.2-1.4,0.3
	C81,62,81.2,62.3,80.9,62.6 M82.6,68.4c0.1-0.8-1.4-0.4-1.4,0C81.8,68.4,82,68.1,82.6,68.4 M82.9,68c0.1,0,0.2,0.1,0.2,0.3
	c0.3,0,0.3-0.2,0.5-0.3c0,0.2,0.2,0.2,0.3,0.3C84,67.8,83,67.7,82.9,68 M100.4,71.1C100.4,71.1,100.4,71.1,100.4,71.1
	c-0.1,0.7-1,0.2-1.8,0.5v0.6c0.7,0,0.4-0.3,1.1-0.5c0,0.2,0.2,0.2,0.2,0.5c-0.9,0.2-1.5,0.2-1.9,0.3c0.4,0,0.4,0.4,0.6,0.6
	c-1.7,0.2-5.2-0.1-6.6,0.1c-0.6,0.1-0.8-0.1-1.1-0.7c-0.7-1.6-0.8-3.2-0.7-4.9c0-0.8,0.1-1.6,0-2.4h0.3V65h-0.3c0-0.3,0-0.7-0.1-1
	c-0.1-0.7,0-1.4,0.1-2c0.1-1,0.4-1.3,1.4-1.3c1.7,0,3.3-0.1,5-0.1l3.1-0.1c0.2,0,0.4,0.2,0.5,0.4c0.1,0.3,0.1,0.7,0.1,1.1
	c-0.1-0.1-0.3-0.2-0.5-0.2c-0.1,0.3,0.2,0.5,0.5,0.6c0,0.1,0,0.2,0,0.2c0-0.1-0.1-0.1-0.3-0.2c0.2,0.6-0.7,0-0.5,0.6
	c0.2,0.1,0.3,0,0.4,0c-0.2,0.1-0.3,0.1-0.5,0.1c-1.5,0.4-2.3,0.1-3.9,0.3c-0.4,0-0.8,0.1-1.2,0.1c-0.5,0-0.8,0.2-0.9,0.7
	c-0.2,0.7-0.1,0.9,0.6,0.9c0.2,0,0.5,0,0.7,0c-0.1,0.1-0.1,0.2-0.1,0.3c0.4,0.1,0.5-0.1,0.6-0.3c0.6,0,1.1,0,1.7,0
	c0.1,0,0.3,0,0.4,0c-0.2,0.1-0.4,0.4-0.1,0.5c0-0.2,0.3-0.3,0.3-0.5c0,0,0.1,0,0.1,0c0,0,0.1,0,0.1,0c-0.1,0-0.1,0.1-0.1,0.3
	c0.6-0.1,0.8-0.2,1.1,0.2c0-0.1,0-0.1,0-0.2c0.1,0.2,0.2,0.5,0.2,1c0,0.3,0,0.5-0.1,0.7c-0.2,0-0.5-0.1-0.5,0
	c0.2,0.1,0.2,0.2,0.2,0.4c-0.2,0.2-0.6,0.3-1,0.4C96.6,68,95.5,68,94.4,68c0-0.4,0-0.6-0.3-0.6c0,0.2-0.1,0.5,0,0.6
	c-0.8,0-1,0.1-1,0.7c0,0.9,0.3,1.4,1,1.4c1.4,0.1,2.9,0,4.3-0.1C99.6,69.9,100.2,70.2,100.4,71.1 M95.2,65.5c0.2,0,0.4,0.3,0.5,0
	C95.5,65.4,95.4,65.2,95.2,65.5 M94.9,65.8c0.1,0,0.2,0,0.2,0.2c0.2,0,0.4,0,0.3-0.3C95.2,65.6,95,65.6,94.9,65.8 M95.4,61.8
	C95.3,62.7,96.1,61.9,95.4,61.8 M98.1,62.1c0.2,0.1,0.3,0.2,0.6,0.2c0-0.2,0.1-0.4,0.2-0.5C98.5,61.7,98.2,61.7,98.1,62.1
	 M96.7,62.9c0.6,0.4,1.5,0.5,2.1,0C98.1,62.7,97.2,62.5,96.7,62.9 M95.1,61.3c0.8-0.1,1.2,0.3,1.6-0.2C96.1,61,95,61,95.1,61.3
	 M92.8,65.5v0.5C93.3,66.2,93.3,65.2,92.8,65.5 M92.8,67.1c0,0.3,0.1,0.4,0.3,0.5C93.2,67.3,93,67.1,92.8,67.1 M93.8,66.9h-0.5
	c0,0.4,0.1,0.5,0.5,0.5V66.9z M92.7,61c0.1,0.6,1.5,0.7,1.6,0C93.4,60.9,93.4,61.3,92.7,61 M92.7,65.1c0.8-0.2,0.9,1.5,1.3,0.6
	C93.4,65.8,93.4,64.4,92.7,65.1 M92,65.3c-0.5-0.1-0.6-0.6-1.3-0.5c0,0.7,0.5,0.9,1,1.1C91.6,65.5,92,65.6,92,65.3 M92.5,61.1
	c-0.2-0.3-0.8-0.1-1,0.2C91.8,61.2,92.5,61.5,92.5,61.1 M93.3,72.5c-0.4-0.2-0.5-0.6-1-0.8c0.1,0.5,0.1,0.5,0,1
	c0.4-0.2,0.6,0.7,0.8,0.2C92.9,72.8,93.2,72.7,93.3,72.5 M94.1,72.2c-0.2,0-0.3-0.3-0.5-0.3c0,0.2-0.3,0.1-0.3,0.3
	c0.1,0,0.2,0.1,0.2,0.3C93.8,72.6,94.1,72.5,94.1,72.2 M93,71.6c0.6-0.1,0.6,0.2,1.1,0.2C94.3,71.2,93,71.3,93,71.6 M96.2,72.4
	c0.1,0.4-0.8-0.1-0.6,0.3C95.9,72.9,96.6,72.7,96.2,72.4 M99.9,70.8h-0.3c0,0.2-0.1,0.2-0.2,0.3C99.7,71.1,100,71.1,99.9,70.8
	 M113.1,63.2c0,0-0.1,0-0.1,0c0,0.2,0,0.3,0.1,0.4c0,1.1-0.2,2.1-0.1,3.2c0,0.2,0,0.4,0,0.5c0,1.5,0,3,0.1,4.5
	c0.1,1.3-0.3,1.6-1.6,1.3c-0.6-0.1-1-0.3-1.4-0.7c0.1-0.1,0.1-0.2,0.2-0.4c-0.2-0.1-0.4-0.1-0.5-0.1c-1.1-1.6-2.5-2.9-4.1-4.5
	c0,1.6-0.2,3,0,4.4c0,0.2,0.1,0.5,0.1,0.7c0,0,0,0,0,0c-0.9,0.1-1.8,0-2.7,0.6c-0.3-0.2-0.4-0.6-0.5-1.1c0.8,0.4,0.7-0.5,0-0.1
	c0-0.1,0-0.2,0-0.3c0.1-1.2,0.1-2.5,0.1-3.7c0.3-0.1,0.4-0.3,0.8-0.3c0-0.4-0.1-0.5-0.5-0.5c0,0.3-0.1,0.3-0.3,0.4
	c0-0.2,0-0.3,0-0.5c0-0.9-0.1-1.9-0.1-2.8c0.1-0.2,0.2-0.4,0-0.5c0-0.6,0-1.2,0-1.8c0-0.3,0-0.7,0-0.4c0-0.1,0.1-0.2,0.2-0.4
	c0,0.1,0.2,0.2,0.3,0.3c0-0.2-0.1-0.3-0.2-0.4c0.4-0.3,1-0.6,1.4-0.4c0.2,0.1,0.4,0.3,0.7,0.5c-0.6,0-1.3-0.2-1.4,0.3
	c0.8,0.1,1.1,0.1,1.5-0.2c0.5,0.5,1,1.1,1.6,1.9v0.3c0.1,0,0.2,0,0.2,0c0.1,0.2,0.3,0.3,0.4,0.5c-0.1,0.1-0.2,0.2-0.3,0.3
	c0.2,0,0.4,0.1,0.5,0.2c0-0.1,0-0.1,0.1-0.2c0.3,0.4,0.7,0.8,1.1,1.3c-0.2-0.1-0.4-0.3-0.5,0c0.1,0.2,0.4,0.2,0.7,0.1
	c0.3,0.3,0.7,0.7,1,1.1c0.3,0.4,0.4-0.1,0.4-1c0.2,0,0.4,0,0.5-0.1c-0.2-0.1-0.4-0.2-0.5-0.2c0-1.1-0.1-2.7-0.2-3.6
	c0-0.2,0.2-1.1,0.4-1.1c0.5-0.1,0.9-0.2,1.4-0.1c1,0.1,1.2,0.2,1.4,1.2C113.1,62.3,113.1,62.8,113.1,63.2 M103.9,63.2
	c0.7,0,1.1,0.3,1.4-0.3C104.6,63,104.1,62.5,103.9,63.2 M104.7,64v0.3h0.5C105.2,64,105.1,64,104.7,64 M103.6,63
	c-0.2,0-0.3-0.3-0.5-0.3c0,0.3-0.2,0.3-0.3,0.5C103,63.1,103.6,63.4,103.6,63 M104.9,65.6c0.2-0.9-0.8-0.6-1-0.2
	C104.4,65.3,104.5,65.6,104.9,65.6 M104.9,72c0.1,0,0.2,0.1,0.2,0.3c0.4,0,0.5-0.2,0.5-0.6C105.2,71.8,105,71.8,104.9,72
	 M105.7,65.1c0,0.4,0,0.6,0.3,0.6C106.2,65.6,106.1,65.1,105.7,65.1 M106.7,64.7c0.1-0.5-0.5-0.4-0.3-1c-0.2,0-0.5,0-0.5,0.2
	c0.1,0,0.2,0.1,0.2,0.3c0,0.2-0.3,0.1-0.3,0.3C105.9,64.7,106.3,64.7,106.7,64.7 M106.7,65c0,0.6,0.5,0.7,1,0.8
	C107.8,65,107,65.3,106.7,65 M110.5,64.7c0.2-0.2,0.2-0.6-0.2-0.6c0,0.2-0.3,0.1-0.3,0.3C110.3,64.4,110.3,64.6,110.5,64.7
	 M110.4,70.1c-0.2-1-1.4-0.9-1.8-0.2C109.3,70.4,109.4,69.9,110.4,70.1 M110.4,72.4c0.2,0,0.3,0.2,0.6,0.2
	C111.3,72.1,110.3,72.1,110.4,72.4 M111.3,71.1c-0.3-0.1-0.6,0.5-0.3,0.5C111,71.3,111.4,71.4,111.3,71.1 M111.5,64.5h-0.3
	c0,0.2-0.1,0.2-0.2,0.3C111.3,64.8,111.6,64.8,111.5,64.5 M112.3,62.4C111.6,61.8,111.9,62.9,112.3,62.4 M112.8,65.6
	c-0.3-0.5-0.8,0.5,0,0.3V65.6z M163.5,65.9c-0.7,2-1.3,4.1-1.7,6.2c-0.2,1-0.1,1.1-1.3,1.1c-0.5,0-1.2,0.2-1.4-0.3
	c-0.1-0.4-0.8-2.3-1.1-3.4c0.2-0.1,0.3-0.2,0.6-0.2c0-0.4-0.1-0.5-0.5-0.5c0,0.2-0.1,0.3-0.2,0.3c0-0.1,0-0.1,0-0.2
	c-0.6-2.6-0.8-2.2-0.9-2.1c-0.6,0.7-0.5,1.4-0.8,2.2c-0.4,1.2-0.6,2.4-1,3.6c-0.1,0.2-0.1,0.3-0.2,0.4c-0.3,0-0.8-0.1-1.3,0.1v0.1
	c-0.2,0-0.3,0-0.5-0.1c-0.5,0-0.8-0.3-0.9-0.7c-0.2-0.6-0.3-1.2-0.5-1.7c0.5-0.1,1.1-0.3,1.6-0.7c-0.6,0-1.2,0.1-1.3-0.3
	c-0.2,0.1-0.3,0.3-0.5,0.5c-0.1-0.2-0.1-0.4-0.2-0.6c0.2,0,0.5-0.4,0.4-0.7c-0.2,0-0.4,0-0.6-0.1c-0.2-0.5-0.3-1.1-0.5-1.7
	c0,0,0,0,0,0c0,0,0.1,0,0.1-0.1c-0.1,0-0.1,0-0.2-0.1c-0.4-1.4-0.8-2.8-1.5-4.1c0,0,0,0,0,0c0.1-0.1,0.2-0.2,0.2-0.3
	c-0.2,0-0.3,0-0.4,0c-0.2-0.4-0.4-0.8-0.6-1.2c-0.2-0.6-0.1-0.8,0.5-0.8c0.8,0,1.2,0.1,2.1-0.1c0.6-0.1,0.8,0.3,1.1,0.8
	c0,0,0,0.1,0,0.1c-0.7-0.2-1.6-0.4-2.1,0c0.6,0.4,1.5,0.5,2.1,0c0.7,1.4,1,3,1.4,4.5c0.1,0.2,0.1,0.4,0.2,0.7c0.3-0.2,0.3-0.7,0.4-1
	c0.4,0.2,0.9,0.4,0.7,0.1c-0.3,0.2-0.5-0.1-0.7-0.3c0.1-0.2,0.2-0.5,0.3-0.8c0,0,0,0.1,0,0.1c0.7,0.2,1.1-0.6,0.5-0.6
	c0.2,0.5-0.3,0.3-0.5,0.4c0.1-0.3,0.2-0.7,0.3-0.8c0-0.1,0-0.1,0-0.2c-0.1,0.7,1.2,0.8,1.3,0.3c-0.5,0.2-0.7-0.2-1.3-0.3
	c0.1-0.6,0.2-1,0.9-1.1c0.7-0.1,1.4-0.2,2.1-0.1c0.4,0,0.8,0.2,1.1,0.6c-0.2,0-0.4,0.1-0.4,0.3c0.2,0,0.4,0,0.6,0
	c0.1,0.1,0.1,0.2,0.1,0.3c0.1,0.3,0.2,0.6,0.3,1c-0.2,0-0.4,0-0.5,0.4c0.2,0,0.4,0,0.6,0.1c0.1,0.3,0.1,0.6,0.2,0.9v0.1h0
	c0,0.2,0.1,0.4,0.1,0.5c0.4-0.3,0.5-0.8,0.6-1.2c0.3-1.3,0.8-2.6,1.3-3.8c0.1,0,0.1-0.1,0.2-0.3c0,0,0,0-0.1,0c0,0,0-0.1,0-0.1
	c0-1.1,2.8-0.1,2.8-0.1c0.4,0.2,0.5,0.3,0.2,1.1c-0.3,0.7-0.5,1.3-0.8,2c-0.1,0.1-0.3,0.1-0.2,0.3c0,0,0,0,0.1,0
	c-0.2,0.5-0.4,1-0.6,1.6c0,0-0.1-0.1-0.1-0.1C163.2,65.8,163.3,65.9,163.5,65.9 M150.6,63.2C150.4,64.2,151.3,63.4,150.6,63.2
	 M151.9,62.6c-0.6-0.1-1.7-0.1-1.6,0.2C151.1,62.7,151.4,63.1,151.9,62.6 M155.2,65h-0.3v0.3h0.3V65z M152.7,66.6
	c-0.3-0.1-0.7,0.4-0.3,0.5C152.4,66.9,152.6,66.8,152.7,66.6 M153.9,67.1c0-0.3-0.1-0.5-0.3-0.6c0,0.5-1.1-0.2-0.8,0.5
	C153.4,66.9,153.6,66.7,153.9,67.1 M154.1,68.7c0.8,0-0.5-0.2-0.5-0.2c0.4,0.1,0,1,0.6,0.8C154.3,69.1,154.1,69,154.1,68.7
	 M154.8,65.8h-0.3v0.3h0.3V65.8z M155.1,72.3h-0.3c0,0.2-0.1,0.2-0.2,0.3C154.8,72.6,155.1,72.6,155.1,72.3 M154.8,66.6h0.3
	c0,0.2-0.1,0.4-0.2,0.5C155.9,67.4,155.1,65.9,154.8,66.6 M155.2,69v0.8C156,69.9,155.8,69,155.2,69 M155.6,64.2
	C155.4,65.2,156.3,64.3,155.6,64.2 M156.7,65.8c-0.2,0-0.9,0.3-0.5,0.3C156.4,66.1,156.6,66,156.7,65.8 M156.7,62.6
	C156.6,63.6,157.4,62.7,156.7,62.6 M157.5,65.2c0,0.3-0.2,0.7-0.2,0.8C157.7,65.9,158.1,65.3,157.5,65.2 M158.1,62.9
	c0-0.3-0.1-0.4-0.3-0.5C157.8,62.7,157.9,62.9,158.1,62.9 M158.8,64.5c-0.2,0-0.3-0.3-0.5-0.3c0,0.3-0.2,0.3-0.3,0.5
	C158.2,64.6,158.8,64.9,158.8,64.5 M159.1,66.9c0.5-0.1,0.6,0.2,1,0.2C160.2,66.2,159.2,66.5,159.1,66.9 M162.3,65.2
	c0,0.3-0.2,0.3-0.3,0.5c0.2,0,0.4,0.1,0.5,0.2c0-0.2,0.1-0.2,0.2-0.3C162.4,65.5,162.5,65.2,162.3,65.2 M161.7,64.4v0.5
	C162.1,65.1,162.1,64.1,161.7,64.4 M161.5,63.9c0.3-0.1,0.8-0.1,1-0.3C162,63.6,161.5,63.5,161.5,63.9 M160.9,66.6
	c0,0.4,0,0.6,0.3,0.6C161.4,67.1,161.3,66.6,160.9,66.6 M161.8,66.1c0.1-0.5-0.5-0.4-0.3-1c-0.2,0-0.5,0-0.5,0.2
	c0.1,0,0.2,0.1,0.2,0.3c0,0.2-0.3,0.1-0.3,0.3C161.1,66.2,161.4,66.2,161.8,66.1 M161.8,66.5c0,0.6,0.5,0.7,1,0.8
	C163,66.5,162.1,66.7,161.8,66.5 M163.1,64.9c0.4,0,0.8,0,0.8-0.3C163.6,64.6,162.9,64.3,163.1,64.9 M133.9,69.3
	c0.5,0.7,0.7,1.6,1.3,2.2c0.1,0.1,0.2,0.4,0.3,0.6c0.1,0.2,0.1,0.3,0.1,0.4c-0.1,0-0.1,0.1-0.1,0.2c0.1,0,0.1,0,0.1,0
	c-0.1,0.3-0.3,0.4-0.8,0.5c-0.2,0-0.4,0-0.6,0c0.1-0.1,0.4-0.1,0.3-0.5c-0.4-0.4-0.9,0-1,0.5c0.1,0,0.2,0,0.3,0
	c-1.4,0.1-1.2-0.1-2.4-1.9c-0.3-0.6-0.3-1-0.9-1.6c-1.9-0.9-2.2,0-2,1.1c0,0.2,0.1,0.4,0.1,0.5c0,1.7-0.3,1.9-1.5,2
	c-1.5,0-1.5-0.5-1.5-0.7c0-0.4,0-0.7,0-1.1c0-0.5,0-1,0-1.6c0.6-0.1,0.9-0.3,0.9-0.7c-0.3,0.1-0.6,0-0.9,0c0-0.8,0-1.6,0.1-2.4
	c0.1,0.1,0.3,0.3,0.4,0.6c0.2-0.4-0.1-0.7,0.2-0.8c0.3,0.3,0.2,0,0.6,0v0.5c0.5-0.3,0.5-0.6,1.3-0.3c-0.6-0.5-1.6-0.6-2.5-0.8
	c0-1.3,0.1-2.5,0.1-3.8c-0.1-1.2,0.8-1.5,1-1.6c1.1-0.2,2.2-0.2,3.3-0.4c0.2,0,1.5,0.1,1.7,0.2c1.1,0.4,1.3,0.4,1.7,0.7
	c0.4,0.3,1.2,0.6,1.3,1c0.4,1.2,1.1,2.4,0.6,3.8c-0.2,0.6-0.1,1.5-1.4,2.3C133.6,68.6,133.3,68.8,133.9,69.3 M127.1,70
	c-0.2,0-0.2-0.2-0.5-0.2C126.3,70.2,127.1,70.3,127.1,70 M134.7,62.6C133.8,62.2,134.1,63.2,134.7,62.6 M134,63.4
	c0,0.2,0.1,0.4,0.2,0.5c0.5-0.2,0.6,0.1,1-0.3C134.8,63.4,134.4,63,134,63.4 M131,62.9c0.1-0.1,0.9-0.1,1.1,0
	C132.3,62.2,130.3,62.7,131,62.9 M128.4,62.6C128.8,63.4,128.8,62.1,128.4,62.6 M131.3,64c-0.3-0.1-0.7-0.3-1-0.3
	c-1.1-0.1-1.7,0.1-1.8,1.2c0,0.3,0.1,0.9,0.4,1.1c0.5,0.3,1,0.6,1.5,0.5c0.5-0.1,1.2-0.2,1.5-0.6C132.6,65.1,132.3,64.4,131.3,64
	 M132.7,63.2h-0.5v0.5C132.7,63.8,132.6,63.4,132.7,63.2 M132.9,70c0.2,0.1,0.3,0.2,0.6,0.2C133.8,69.7,132.8,69.7,132.9,70
	 M133.7,64.1c-0.1-0.3-0.1-0.7-0.3-0.8c0.2,0.6-0.7,0-0.5,0.6C133.3,63.8,133.5,63.9,133.7,64.1 M146.1,73.1c-0.2,0-0.3,0.1-0.6,0.1
	c0,0,0.1-0.1,0.1-0.1c-0.5,0.1-0.8-0.4-1,0.2c0.1,0,0.3,0,0.4,0c-1.7,0.1-4.4-0.1-5.8,0c-0.1-0.4-0.5-0.7-0.6-0.2
	c0.2,0.1,0.3,0.1,0.4,0.2c0,0,0,0-0.1,0c-0.6,0.1-0.8-0.1-1.1-0.7c-0.4-0.9-0.6-1.9-0.7-2.8c0.1,0,0.3,0,0.4,0.1
	c0-0.3-0.2-0.4-0.5-0.5c0-0.6,0-1.1,0-1.7c0.1-1.3,0.1-2.5,0-3.8c-0.1-0.7,0-1.4,0.1-2c0.1-0.5,0.2-0.9,0.4-1c0.7,0.3,0.4,0.1,0.1,0
	c0.2-0.1,0.5-0.2,0.9-0.2c1.7,0,3.3-0.1,5-0.1l3.1-0.1c0.2,0,0.4,0.2,0.5,0.4c0.2,0.5,0.1,1.2,0,1.7c-0.2,0-0.4,0.2-0.5,0.3
	c0.1,0,0.2,0,0.4,0c-0.1,0.3-0.5,0.3-0.8,0.4c-0.9,0.3-1.6,0.2-2.4,0.2c0.1-0.1,0.1-0.1,0.1-0.3c-0.5,0.2-0.9,0.1-0.6-0.5
	c-0.3,0-0.5,0-0.6,0.2c0.1,0.3,0.2,0.5,0.4,0.6c-0.1,0-0.1,0-0.2,0c0,0,0,0,0,0c-0.7,0.1-1.1-0.6-1.6-0.2c0,0.1,0.1,0.2,0.2,0.3
	c-0.1,0-0.1,0-0.2,0c-0.5,0-0.8,0.2-0.9,0.7c-0.2,0.7-0.1,0.9,0.6,0.9c0.9,0,1.9,0,2.8,0c0.3,0,0.5,0,0.8,0c1.1,0,1.2,0.1,1.4,1.2
	c0,0,0,0-0.1,0c0,0.2,0,0.3,0.1,0.4c0,0.7-0.6,1.1-1.4,1.2c-1.1,0.1-2.3,0.2-3.4,0.1c-0.8,0-1,0.1-1,0.7c0,0.5,0.1,0.8,0.2,1.1
	c0,0,0,0,0,0.1c0,0,0,0,0.1,0c0.1,0.2,0.3,0.2,0.6,0.3v0c0.2,0,0.2,0.2,0.5,0.2c0-0.1,0-0.1,0-0.2c0.5,0,1,0,1.4,0
	c0.1,0.1,0.2,0.2,0.2,0.4c0.7-0.3,1,0.3,1.4,0c0.1-0.3-0.2-0.4-0.3-0.5c0.4,0,0.8-0.1,1.2-0.1c0.3,0,0.6,0,0.9,0c0,0-0.1,0,0,0.1
	c0.1,0.1,0.3,0.1,0.4,0.1c0.4,0.2,0.6,0.6,0.7,1.2C147.7,72.7,147.2,73.1,146.1,73.1 M144.3,62.8c0.3,0,0.4-0.1,0.5-0.3
	C144.5,62.5,144.2,62.4,144.3,62.8 M140.4,62.9C141.5,62.6,140,62.4,140.4,62.9 M145.4,66.8h0.3v-0.3h-0.3V66.8z M144.9,67.3
	c0.3,0,0.4-0.1,0.5-0.3C145.2,67,144.9,66.9,144.9,67.3 M144.3,65.8c0.3,0,0.4-0.2,0.6-0.2c0-0.4-0.1-0.5-0.5-0.5
	C144.5,65.5,144.3,65.5,144.3,65.8 M144.1,66.9h0.3c0-0.2,0.1-0.2,0.2-0.3c-0.2,0-0.2-0.2-0.5-0.2V66.9z M141.4,66
	c0.2-0.2,0.6-0.7,0-0.8C141.5,65.6,140.8,65.8,141.4,66 M139.8,66.8c1,0.5-0.6,0-0.3,0.5c0.8-0.1,1.3,0.4,1.3-0.2
	c0.3,0,0.1,0.5,0.5,0.5c0.5-0.3-0.4-0.5,0-0.6c0.2,0.1,0.3,0.2,0.3,0.5c0.4,0,0.3-0.3,0.6,0c0-0.2,0-0.5,0.2-0.5
	c0.4,0,0.8,0.2,1,0.5c0-0.3,0.7,0,0.6-0.5c-0.6,0,0.4-0.6-0.2-0.6c-0.3,0.3-0.4,0.7-1.1,0.6c0.5-0.5-0.5-0.3-0.8-0.5
	C141.5,67.4,140.4,66.5,139.8,66.8 M138.4,64.4c0.6,0.7,1.1,0.3,1.9,0.3C140.2,63.7,139.2,64.6,138.4,64.4 M138.4,63.7
	C137.6,63.3,138,64.3,138.4,63.7 M139.2,63.4c0,0.2-0.1,0.4-0.2,0.5c0.5,0,1.1,0.1,1-0.5C139.5,63.3,139.5,63.7,139.2,63.4
	 M139.2,62.6c-0.1-0.1-0.5,0.1-0.5,0.2C138.5,63,139.3,62.7,139.2,62.6 M138.4,62.6c-0.3-0.3-1-0.2-1.1,0.2
	C137.6,62.7,138.3,63,138.4,62.6 M138.5,67.1c0,0.2,0,0.4,0.3,0.3c-0.1-0.5-1-1-1.4-0.6C138.2,66.8,137.9,67.7,138.5,67.1
	 M139.9,69.6c-0.5,0.1-0.7-0.2-1-0.2c-0.2-0.2-0.8-0.2-0.9,0.1c0.1,0,0.2,0.1,0.2,0.3c0.3,0,0.3-0.2,0.4-0.3
	c-0.1,0.6,0.6,0.5,0.8,0.7C139.2,69.7,140.2,70.3,139.9,69.6 M142.5,72.2c-0.5-0.2-0.7-0.1-1.3,0v0.5
	C141.6,72.8,142.4,73.1,142.5,72.2 M124.6,61.6c0,0.2,0,0.5,0.1,0.8c0.1,1-0.3,1.3-1.3,1.4c-1.4,0-3,0.1-4.4,0.1
	c-0.5,0-0.7,0-0.7,0.8c0.1,0.7,0.1,0.8,0.8,0.7c1.1,0,2.2-0.1,3.2,0c0.2,0,0.5,0.2,0.5,0.4c0.2,0.6,0.4,1.1,0.1,1.8
	c-0.2,0.7-0.6,0.8-1.2,0.9c-0.5,0.1-1.2,0-1.7,0c-1.7,0-1.7,0.3-1.7,1.4c0,0.7,0.2,1.4,0.2,2.1c0,1.2-0.3,1.5-1.5,1.5
	c-0.2,0-0.4,0-0.5,0c-0.8-0.1-1.2-0.2-1.3-0.5c0.5-0.2,1.2-0.1,1.5-0.4c-0.6,0.2-0.5-0.4-1-0.3c0.1,0.6-0.5,0.3-0.6,0.2v0.3
	c0-0.2,0-0.5,0-0.8c0-0.2,0-0.4,0-0.5c0-1.1,0.2-2.2,0-3.2c-0.1-0.7,0.1-1.4,0.2-2c0.1-0.8,0-1.5-0.1-2.3c0.4-0.1,0.7,0.3,1-0.1
	c-0.2-0.2-0.7-0.3-1-0.1c0-0.4-0.1-0.7-0.1-1.1c0-1.3,0.3-1.8,1.6-1.6c1.1,0.2,2.1,0.1,3.1,0c1.3-0.2,2.8-0.2,4.1,0
	C124.3,60.8,124.7,61,124.6,61.6 M116.3,65.6c-0.4,0-0.6,0-0.6,0.3C116,66,116.3,65.9,116.3,65.6 M121.8,65.8c0.2,0,0.2,0.5,0.3,0.2
	C122.2,65.6,121.3,65.6,121.8,65.8 M119.7,66.3c0.3,0,0.5-0.1,0.6-0.3C120,66,119.5,65.8,119.7,66.3 M118.7,68.5
	c0-0.2,0.9-0.2,0.3-0.5C119.1,68.2,118.1,68.2,118.7,68.5 M118.4,63.4h-0.8v0.3C117.9,63.6,118.6,63.9,118.4,63.4"/>
</svg>
