<?xml version="1.0" encoding="utf-8"?>
<!-- Generator: Adobe Illustrator 20.1.0, SVG Export Plug-In . SVG Version: 6.00 Build 0)  -->
<svg version="1.1" id="Layer_3" xmlns="http://www.w3.org/2000/svg" xmlns:xlink="http://www.w3.org/1999/xlink" x="0px" y="0px"
	 viewBox="0 0 62.5 46.4" style="enable-background:new 0 0 62.5 46.4;" xml:space="preserve">
<style type="text/css">
	.st0{clip-path:url(#SVGID_2_);}
	.st1{fill:url(#SVGID_3_);}
	.st2{clip-path:url(#SVGID_5_);}
	.st3{fill:url(#SVGID_6_);}
	.st4{fill:#F7323F;}
	.st5{fill:#F3F1F1;}
	.st6{fill:#8D8D8D;}
</style>
<title>GK logo</title>
<g>
	<defs>
		<path id="SVGID_1_" d="M23.7,7.6c-8.9,8.9-8.8,23.3,0.1,32.1s23.3,8.8,32.1-0.1s8.8-23.3-0.1-32.1c-4.3-4.2-10-6.6-16-6.6
			C33.7,0.9,27.9,3.3,23.7,7.6"/>
	</defs>
	<clipPath id="SVGID_2_">
		<use xlink:href="#SVGID_1_"  style="overflow:visible;"/>
	</clipPath>
	<g class="st0">
		
			<linearGradient id="SVGID_3_" gradientUnits="userSpaceOnUse" x1="-395.8027" y1="-65.7814" x2="-394.8027" y2="-65.7814" gradientTransform="matrix(-39.1082 54.3648 -54.3648 -39.1082 -18997.5977 18944.8652)">
			<stop  offset="0" style="stop-color:#4D4D4F"/>
			<stop  offset="1.000000e-02" style="stop-color:#58595B"/>
			<stop  offset="0.1" style="stop-color:#717375"/>
			<stop  offset="0.24" style="stop-color:#9D9FA2"/>
			<stop  offset="0.28" style="stop-color:#B0B2B5"/>
			<stop  offset="0.34" style="stop-color:#E2E3E4"/>
			<stop  offset="0.37" style="stop-color:#F8F8F9"/>
			<stop  offset="0.42" style="stop-color:#E0E1E2"/>
			<stop  offset="0.5" style="stop-color:#BCBEC0"/>
			<stop  offset="0.62" style="stop-color:#BCBEC0"/>
			<stop  offset="0.67" style="stop-color:#A4A6A8"/>
			<stop  offset="0.78" style="stop-color:#6F6F71"/>
			<stop  offset="0.87" style="stop-color:#4E4D4F"/>
			<stop  offset="0.91" style="stop-color:#414042"/>
			<stop  offset="1" style="stop-color:#414042"/>
		</linearGradient>
		<polygon class="st1" points="-7.8,32.4 31.8,-22.7 87.2,17.2 47.6,72.2 		"/>
	</g>
</g>
<g>
	<defs>
		<path id="SVGID_4_" d="M24.9,8.8c-8.2,8.2-8.2,21.5,0,29.7s21.5,8.2,29.7,0s8.2-21.5,0-29.7c-3.9-3.9-9.3-6.2-14.8-6.2
			C34.2,2.7,28.8,4.9,24.9,8.8"/>
	</defs>
	<clipPath id="SVGID_5_">
		<use xlink:href="#SVGID_4_"  style="overflow:visible;"/>
	</clipPath>
	<g class="st2">
		
			<linearGradient id="SVGID_6_" gradientUnits="userSpaceOnUse" x1="-460.4643" y1="-77.1719" x2="-459.4643" y2="-77.1719" gradientTransform="matrix(29.6561 -29.6561 29.6561 29.6561 15969.9023 -11328.2588)">
			<stop  offset="0" style="stop-color:#58595B"/>
			<stop  offset="1.000000e-02" style="stop-color:#58595B"/>
			<stop  offset="3.000000e-02" style="stop-color:#727375"/>
			<stop  offset="9.000000e-02" style="stop-color:#B1B3B6"/>
			<stop  offset="0.18" style="stop-color:#C4C6C8"/>
			<stop  offset="0.36" style="stop-color:#F6F6F8"/>
			<stop  offset="0.37" style="stop-color:#F8F8F9"/>
			<stop  offset="0.5" style="stop-color:#E8E9EA"/>
			<stop  offset="0.82" style="stop-color:#C4C6C8"/>
			<stop  offset="0.92" style="stop-color:#B1B3B6"/>
			<stop  offset="0.92" style="stop-color:#B0B2B5"/>
			<stop  offset="0.95" style="stop-color:#7B7B7E"/>
			<stop  offset="0.98" style="stop-color:#595A5C"/>
			<stop  offset="0.99" style="stop-color:#4D4D4F"/>
			<stop  offset="1" style="stop-color:#4D4D4F"/>
		</linearGradient>
		<polygon class="st3" points="-5.3,24.7 39.7,-20.3 84.7,24.7 39.7,69.7 		"/>
	</g>
</g>
<path class="st4" d="M54.1,38.3c-8.1,8.1-21.2,8.1-29.2,0s-8.1-21.2,0-29.2C33,1,46.1,1,54.1,9C62.2,17.1,62.2,30.2,54.1,38.3
	C54.1,38.3,54.1,38.3,54.1,38.3"/>
<path class="st5" d="M41.4,16c-0.2-0.3-0.5-0.6-0.8-0.8c-0.4-0.2-0.9-0.2-1.3-0.1l-0.5,0.1c-0.4,0.1-0.8,0.4-1.2,0.6
	c-0.5,0.4-0.9,0.9-1.2,1.5c-0.3,0.6-0.4,1.2-0.4,1.8c0,0.4,0.1,0.9,0.3,1.2c0.2,0.3,0.5,0.6,0.9,0.7c0.4,0.2,0.8,0.2,1.3,0.1
	c0.2,0,0.3-0.1,0.5-0.1c0.3-0.1,0.6-0.2,0.9-0.4c0.8-0.5,1.4-1.3,1.8-2.2c0.2-0.4,0.2-0.9,0.2-1.4C41.7,16.8,41.6,16.4,41.4,16
	 M40.1,17.9c-0.1,0.4-0.2,0.8-0.3,1.2c-0.1,0.4-0.3,0.7-0.6,1c-0.1,0.1-0.2,0.2-0.3,0.3c-0.2,0.1-0.3,0.2-0.5,0.2
	c-0.3,0-0.5-0.1-0.7-0.3c-0.2-0.3-0.3-0.6-0.2-0.9c0-0.3,0-0.7,0.1-1c0.1-0.4,0.2-0.8,0.3-1.2c0.1-0.4,0.3-0.7,0.6-1
	c0.1-0.1,0.2-0.3,0.3-0.4c0.1-0.1,0.3-0.2,0.5-0.2c0.3-0.1,0.6,0,0.7,0.2c0.2,0.3,0.3,0.6,0.3,1C40.2,17.3,40.2,17.7,40.1,17.9"/>
<path class="st5" d="M47.3,15.1c-0.2-0.3-0.5-0.6-0.8-0.7c-0.4-0.2-0.9-0.2-1.3-0.1l-0.5,0.1c-0.4,0.1-0.8,0.4-1.2,0.6
	c-0.5,0.4-0.9,0.9-1.2,1.5c-0.3,0.6-0.4,1.2-0.4,1.8c0,0.4,0.1,0.8,0.3,1.2c0.2,0.3,0.5,0.6,0.8,0.7c0.4,0.1,0.8,0.2,1.3,0.1
	c0.2,0,0.3-0.1,0.5-0.1c0.3-0.1,0.6-0.2,0.9-0.4c0.4-0.3,0.8-0.6,1.1-1c0.3-0.4,0.5-0.8,0.7-1.3c0.1-0.4,0.2-0.9,0.2-1.4
	C47.6,15.9,47.5,15.5,47.3,15.1 M46,17c-0.1,0.4-0.2,0.8-0.3,1.2c-0.1,0.4-0.3,0.7-0.6,1c-0.1,0.1-0.2,0.2-0.3,0.3
	c-0.2,0.1-0.3,0.2-0.5,0.2c-0.3,0.1-0.5,0-0.7-0.3c-0.2-0.3-0.3-0.6-0.2-0.9c0-0.3,0-0.7,0.1-1c0.1-0.4,0.2-0.8,0.3-1.2
	c0.1-0.4,0.3-0.7,0.6-1c0.1-0.1,0.2-0.2,0.3-0.3c0.1-0.1,0.3-0.2,0.5-0.2c0.3-0.1,0.5,0,0.7,0.2c0.2,0.3,0.3,0.6,0.3,1
	C46.1,16.4,46.1,16.7,46,17"/>
<path class="st5" d="M53,10.7l-0.8,3.2c-0.3-0.4-0.7-0.6-1.2-0.5c-0.2,0-0.4,0.1-0.5,0.1c-1.3,0.6-2.2,1.8-2.6,3.1
	c-0.2,0.5-0.2,1-0.3,1.5v0.1c0,0.4,0.1,0.8,0.4,1.1c0.5,0.5,1.3,0.3,1.9,0c0.2-0.2,0.5-0.3,0.7-0.5c0.2-0.3,0.5-0.5,0.7-0.8
	c-0.2,0.9,0.3,1.7,1.1,1.6l1.8-7.3c0-0.1,0.1-0.3,0.1-0.4v-0.1c0-0.6-0.4-1-1-1C53.1,10.8,53.1,10.8,53,10.7 M51.9,15.2l-0.3,1.2
	c-0.2,0.7-0.6,1.3-1.1,1.8c-0.2,0.2-0.5,0.3-0.7,0.4c-1.1,0.2-0.6-1.6-0.4-2.3c0.2-0.7,0.6-1.4,1.1-1.9c0.2-0.1,0.4-0.2,0.7-0.3
	C51.8,14,52,14.6,51.9,15.2"/>
<path class="st5" d="M33.3,21.7c-0.6,0.5-1.3,0.8-2,0.9c-2.7,0.3-3.4-1.9-2.6-4.5c1-3.4,4.1-5.9,7-4.6l-0.2,0.7
	c-2-1.5-4.6,1.6-5.2,3.8c-0.4,1.5-0.8,3.9,1.4,3.7c1.1-0.2,2-1.2,2.2-2.3l0.8-3c0.5-0.1,1.3,0.5,1,1.6l-1.8,6.8
	c-0.5,0.1-1.4-0.4-1.1-1.5"/>
<path class="st5" d="M29.3,32.1l1.6-6.3l0,0c0.5-0.1,1,0.3,1.1,0.9c0,0.1,0,0.3,0,0.4c0.5-0.8,1.3-1.4,2.2-1.5c1,0,1.3,1.1,1.1,1.9
	l-1,4c-0.5,0.1-1.3-0.5-1-1.6l0.5-2.1c0.2-0.8-0.2-1.1-0.5-1c-0.5,0-1.3,0.9-1.5,1.6l-1,3.6"/>
<path class="st5" d="M49.5,22.9c-0.8,0.2-1.5,0.8-1.9,1.5l0.6-2.2c0.3-1.1-0.5-1.5-1.1-1.5c-0.8,2.9-1.7,6-2.4,8.9l1.5-0.2l1.1-4
	c0.2-0.7,0.8-1.2,1.5-1.3c0.3,0,0.7,0.2,0.5,1.1l-0.5,2.1c-0.3,1.1,0.5,1.9,1,1.8l1.1-4.3C51.1,23.8,50.5,22.8,49.5,22.9"/>
<path class="st5" d="M39,23c0,0.3,0,0.6-0.2,0.8c-0.2,0.3-0.4,0.4-0.7,0.5c-0.3,0.1-0.6,0.1-0.8,0c-0.2-0.1-0.4-0.3-0.5-0.5
	c0-0.3,0-0.5,0.2-0.8c0.2-0.3,0.4-0.4,0.7-0.5c0.2-0.1,0.4-0.1,0.6-0.1c0.2,0,0.3,0.1,0.5,0.2C38.9,22.7,39,22.8,39,23"/>
<path class="st5" d="M37,24.8c0.5-0.1,1.3,0.6,1,1.7l-1.2,4.5c-0.5,0.1-1.3-0.4-1.1-1.6"/>
<path class="st5" d="M30,26l-1.6,0.3l-2.5,3l1-4c0.3-1.2-0.5-1.7-1-1.6l-2.4,9.2l1.5-0.2l0.8-3l1.6,2.6l1.6-0.3l-1.7-2.8"/>
<path class="st5" d="M53.9,22.4l0.2-0.9c0.3-1.1-0.5-1.5-1-1.5c-0.6,2.3-1.2,4.7-1.8,7c-0.3,1.1,0.5,1.7,1,1.6l1.2-4.6
	c0.2-0.5,0.6-0.9,1.1-1l0.6-0.1l0.3-0.8"/>
<path class="st5" d="M37,36.3c0.1,1.1,1.4,1.2,2.5,1.2c0.8-0.1,1.6-0.3,2.4-0.6c1.2-0.5,3.3-2.1,2.7-3.8c-0.4-1.1-1.7-1.3-3-1.1l0,0
	c-1.2,0.2-2.1,0.4-2.2,0s0.4-1,1.2-1.6c0.1,0,0.2,0,0.4-0.1c0.2,0,0.3-0.1,0.5-0.1c0.3-0.1,0.6-0.2,0.9-0.4c0.4-0.3,0.7-0.6,1-1
	c0.3-0.5,0.6-1,0.7-1.6c0.4-1.1-0.1-2.2-1-2.8c0.2-0.3,0.5-0.6,0.8-0.8c0.2-0.2,0.6-0.3,0.9-0.1c0.1,0.1,0.3,0.2,0.5,0.2
	c0.2,0,0.4,0,0.6-0.2c0.3-0.3,0.3-0.7,0-1c-0.3-0.3-0.9-0.3-1.8,0.4c-0.5,0.4-0.9,0.9-1.2,1.4c-0.4-0.1-0.8-0.1-1.2,0
	c-0.2,0-0.3,0.1-0.5,0.1c-1,0.4-1.9,1.2-2.3,2.2c-0.5,0.9-0.5,2.1,0,3c0.2,0.3,0.5,0.6,0.9,0.7l0.2,0.1c-0.5,0.3-0.9,0.6-1.3,1
	c-0.4,0.4-0.6,0.9-0.7,1.4c0.1,1,1.5,0.8,3.1,0.5c0.2,0,0.4,0,0.6,0c1.1,0,1.6,0.6,1.6,0.9c0,0.9-0.6,1.8-1.4,2.2l-0.3,0.1
	c-1.9,0.7-3.2,0.4-3.4-0.5c-0.1-0.7,0.3-1.4,1.6-2.2C39.9,33.7,36.9,34.3,37,36.3 M42.7,26.9c-0.1,0.8-0.4,1.6-0.8,2.3
	c-0.1,0.1-0.2,0.2-0.3,0.3c-0.2,0.1-0.3,0.2-0.5,0.2c-0.3,0.1-0.5,0-0.7-0.2c-0.6-0.7-0.2-2.3,0-3.1c0.2-0.5,0.5-1,0.9-1.4
	c0.1-0.1,0.3-0.2,0.5-0.2C42.8,24.5,42.7,26.1,42.7,26.9"/>
<path class="st6" d="M7.7,7.1C7.5,7.1,7.5,7,7.5,7c0-0.1,0-0.1,0-0.2l-1-0.3C6.4,6.5,6.3,6.6,6.2,6.6c0,0,0,0,0-0.1V6.4L5.4,6.1
	c-0.5,0.5-1.2,1-1.5,1C3.8,7.1,3.6,7,3.6,6.8C3.8,6.4,3.9,6,4.2,5.7L3.3,5.3c-0.5,0.5-0.9,1.1-1,1.8c0,0.6,0.5,0.7,0.8,0.7
	c0.4,0,0.9-0.1,1.2-0.4c0.2,0-0.1,0.4-0.3,0.5c-1.8,1.1-3.3,2.1-3.3,3c0,0.4,0.4,0.4,0.7,0.4s1.7-0.2,3.9-3.4
	c0.1-0.2,0.3-0.3,0.4-0.4C6,7.3,6.3,7.2,6.5,7c0.1,0,0.1,0,0.1,0.1c0,0.1-0.1,0.3-0.1,0.4c0,0.2,0.2,0.4,0.4,0.4
	C7.6,7.9,8.2,7.5,8.5,7L8.1,6.9C8,7,7.8,7.1,7.7,7.1 M1.9,10.8c-0.1,0-0.2-0.1-0.2-0.1c0,0,0,0,0,0c0-0.4,1.4-1.4,1.6-1.4s0,0,0,0
	C3.3,9.5,2.3,10.7,1.9,10.8 M9.3,7.2c0,0.3,0.1,0.7,0.8,0.7c0.4,0,0.7-0.2,1-0.5C10.5,7.3,9.9,7.2,9.3,7.2L9.3,7.2 M14.1,7.3
	c0,0.2,0.1,0.6,0.5,0.6c0.8,0,1.8-1,1.8-1s0,0,0,0s-0.1,0.4-1.3,1.8s-1.7,2-1.7,2.3c0,0.2,0.2,0.4,0.4,0.4c0.1,0,0.6,0,1.8-2
	c0.9-1.4,1.3-2.3,1.7-2.9C16.3,6.8,15.2,7.1,14.1,7.3 M11.8,7.4l-0.2,0.3c0,0-0.1,0.1,0,0.1h0.9c0,0,0.1,0,0.1-0.1l0.3-0.3
	C12.4,7.4,12.1,7.4,11.8,7.4"/>
<path class="st6" d="M18.2,4.5c0.1-0.3,0.3-0.5,0.6-0.6c0.1,0,0.2,0.1,0.2,0.3c0,0.3-0.2,0.5-0.5,0.6C18.4,4.8,18.2,4.7,18.2,4.5
	 M6.9,6.1l0.9,0.2C7.7,6.4,7.6,6.6,7.5,6.8l-1-0.3c0.1-0.1,0.2-0.1,0.2-0.2L6.9,6.1 M18.5,5.1c0,0.1-0.1,0.3-0.5,0.6
	c-0.2,0.3-0.5,0.5-0.6,0.8c-1,0.4-2.1,0.7-3.3,0.8c0,0,0-0.1,0-0.1c0-0.1,0-0.2,0.1-0.4V6.8c-0.1,0-0.2,0.1-0.3,0.1
	c-0.5,0-0.3-0.3-0.5-0.3c0,0-0.1,0-0.1,0.1l-0.5,0.8c-0.3,0-0.7,0-1,0C12,7,12.3,6.5,12.5,6.1c0.6-0.1,1.2-0.3,1.8-0.5
	c0,0,0,0.1,0,0.1c0,0.3,0.1,0.4,0.2,0.4c0.1,0,0.2-0.1,0.2-0.2c0.8-1,1.5-1.1,1.7-1.1c0.1,0,0.2,0.1,0.2,0.2c0,0,0,0,0,0
	c0,0.5-0.9,1.2-1.4,1.4c-0.1,0-0.2,0.1-0.2,0.2c0,0.1,0.1,0.3,0.2,0.3c0,0,0,0,0.1,0c0.6,0,1.2-0.8,1.8-1.4c0.3-0.4,0.7-0.6,1.1-0.8
	C18.4,4.9,18.4,4.9,18.5,5.1C18.4,5.1,18.4,5.1,18.5,5.1 M15.4,6.1C15.4,6.1,15.5,6.1,15.4,6.1c0.2,0.1,0.8-0.4,0.8-0.6
	c0,0,0-0.1-0.1-0.1C15.8,5.5,15.6,5.8,15.4,6.1 M8.6,6.4h0.6C8.9,6.5,8.7,6.7,8.5,6.9l-0.5,0C8.3,6.8,8.4,6.6,8.6,6.4 M11.8,6.3
	c-0.2,0.4-0.4,0.8-0.7,1.1c-0.6,0-1.2-0.1-1.7-0.2c0-0.2,0.1-0.5,0.1-0.7c0.3,0,0.6,0,1,0c-0.1,0.1-0.2,0.3-0.2,0.5
	c0,0.1,0.1,0.2,0.2,0.2c0,0,0,0,0,0c0.4,0,0.6-0.3,0.9-0.7L11.8,6.3 M3.6,5.1l0.9,0.3L4.3,5.7L3.4,5.3L3.6,5.1 M6.6,6.1L6.3,6.4
	L5.5,6.1l0.2-0.2L6.6,6.1"/>
<path class="st6" d="M7.4,4.9c0-0.1-0.1-0.1-0.2-0.1C7,4.8,6.7,5,6.5,5.1C6.4,5.2,6.1,5.5,5.8,5.8L6.6,6c0.2-0.3,0.5-0.7,0.6-0.8
	S7.4,5,7.4,4.9 M8.2,3.7C8.2,3.7,8.2,3.7,8.2,3.7l0.5-0.9l0,0c-0.1,0-0.2,0-0.3,0C7.1,2.9,5.8,3.4,4.7,4.2C4.3,4.5,3.9,4.8,3.6,5.1
	l0.9,0.3C4.6,5.2,4.8,5,5,4.8c0.7-0.7,1.5-1.1,2.5-1.2C7.7,3.7,8,3.7,8.2,3.7 M14.4,4.8c-0.2,0-0.7,0.6-0.8,0.6S13.5,5.1,13.4,5
	s-0.3-0.2-0.7-0.2h-0.5c-0.2,0-0.3,0-0.3-0.1S11.2,3,9.8,3C9.4,3,9.1,3.1,9.1,3.6s0.3,1,1.4,1.4h0.1c-0.2,0.4-0.6,0.7-1,0.8
	c0,0-0.1,0-0.1-0.1c0,0,0,0,0,0c0-0.1,0.1-0.3,0.1-0.4c0-0.2-0.1-0.5-0.5-0.5S8.1,5,6.9,6.1l0.9,0.2c0.3-0.4,0.7-0.7,1.1-0.9
	C9,5.4,9,5.4,9,5.4S8.8,5.7,8.7,5.8C8.5,5.9,8.5,6,8.5,6.1c0,0.1,0.1,0.1,0.1,0.2c0,0,0,0.1,0,0.1h0.6c0.1,0,0.2-0.1,0.2-0.1
	c0.1,0,0.1,0,0.1,0.1l0,0c0.3,0,0.6,0,1,0c0.1-0.2,0.3-0.4,0.5-0.6c0.2-0.1,0.3-0.2,0.3-0.3s-0.1-0.2-0.1-0.2s0-0.1,0.2-0.1
	s0.3,0.1,0.3,0.2c-0.1,0.3-0.2,0.6-0.3,0.9l0.4,0C11.9,6,12,5.7,12,5.4c0,0,0-0.1,0.1-0.1c0,0,0,0,0,0h0.4c0.1,0,0.2,0.1,0.2,0.3
	c0,0.2-0.1,0.4-0.2,0.5c0.6-0.1,1.2-0.3,1.8-0.5c0-0.4,0.2-0.6,0.2-0.7S14.6,4.8,14.4,4.8 M11.4,4.8c-0.3,0-1.6-0.5-1.6-1.1
	c0-0.2,0.1-0.3,0.3-0.3c0,0,0,0,0.1,0C11.1,3.4,11.5,4.7,11.4,4.8C11.5,4.8,11.5,4.8,11.4,4.8"/>
<path class="st6" d="M6.8,6.2C6.7,6.3,6.6,6.4,6.5,6.5h0.1C6.7,6.4,6.8,6.3,6.8,6.2L7,6.1H6.9L6.8,6.2"/>
<path class="st6" d="M14.2,6.7L14.2,6.7c-0.2,0-0.2,0-0.3,0.1c-0.3,0-0.3-0.1-0.4-0.2s0-0.1-0.1-0.1c-0.1,0-0.1,0-0.1,0.1l-0.2,0.3
	l-0.4,0.6h0.1l0.4-0.5l0.2-0.3c0,0,0,0,0.1,0c0,0,0,0,0,0.1S13.4,7,13.8,7c0.1,0,0.2,0,0.3-0.1h0.1l0,0c0,0,0,0.1,0,0.1
	c0,0.1-0.1,0.2-0.1,0.3c0,0,0,0.1,0,0.1h0.1c0,0,0,0,0-0.1c0-0.1,0-0.3,0.1-0.4C14.2,6.9,14.2,6.8,14.2,6.7
	C14.2,6.7,14.2,6.7,14.2,6.7"/>
<path class="st6" d="M11.2,6.3c-0.1,0.2-0.2,0.3-0.3,0.4C10.8,6.9,10.6,7,10.4,7c-0.1,0-0.1,0-0.1-0.1c0,0,0,0,0,0
	c0-0.2,0.1-0.3,0.2-0.5h-0.1c-0.1,0.1-0.2,0.3-0.2,0.5c0,0.1,0.1,0.2,0.2,0.2c0,0,0,0,0,0c0.2,0,0.4-0.1,0.6-0.3
	c0.1-0.1,0.2-0.3,0.3-0.5L11.2,6.3"/>
<path class="st6" d="M7.5,6.7L7.5,6.7c0.2-0.2,0.3-0.3,0.4-0.5H7.8C7.7,6.4,7.6,6.6,7.5,6.7"/>
<path class="st6" d="M5.5,6.1L5.5,6.1l0.4-0.2L5.8,5.9L5.5,6.1"/>
<path class="st6" d="M8.5,6.4c0,0.1-0.1,0.1-0.2,0.2C8.2,6.7,8.1,6.8,8,6.9h0.1c0.1-0.1,0.2-0.2,0.3-0.3C8.5,6.5,8.5,6.5,8.5,6.4
	L8.5,6.4"/>
<path class="st6" d="M8.6,6.9L8.5,7h0.1L8.6,6.9C8.8,6.7,9,6.5,9.2,6.4H9.1C8.9,6.5,8.7,6.7,8.6,6.9"/>
<path class="st6" d="M4.3,5.7L4.3,5.7l0.2-0.2H4.4L4.3,5.7"/>
<path class="st6" d="M15.1,6.7c0-0.1,0.1-0.2,0.2-0.2c0.6-0.2,1.4-0.9,1.4-1.4h-0.1c0,0.5-0.9,1.2-1.4,1.3c-0.2,0-0.3,0.2-0.3,0.3
	H15.1z"/>
<path class="st6" d="M15.1,5.6c-0.1,0.1-0.2,0.2-0.3,0.3c-0.1,0.1-0.1,0.1-0.2,0.2c0,0-0.1-0.1-0.1-0.4c0,0,0-0.1,0-0.1h-0.1
	c0,0,0,0,0,0.1c0,0.3,0.1,0.5,0.2,0.5s0.2-0.1,0.3-0.2L15.1,5.6L15.1,5.6z"/>
<path class="st6" d="M15.1,5.7C15.5,5.2,16,5,16.5,4.9c0.2,0,0.2,0.2,0.2,0.2h0c0-0.2-0.1-0.3-0.2-0.3c0,0,0,0,0,0
	C15.9,4.9,15.4,5.2,15.1,5.7L15.1,5.7z"/>
<path class="st6" d="M16.2,5.5c0-0.1,0-0.1-0.1-0.1c-0.3,0.1-0.6,0.4-0.8,0.7c0,0.1,0,0.1,0.1,0.1C15.7,6.2,16.2,5.7,16.2,5.5
	 M15.5,6.1c0.1-0.3,0.4-0.5,0.7-0.6l0,0C16.1,5.6,15.6,6.1,15.5,6.1L15.5,6.1"/>
<path class="st6" d="M18.8,3.8c-0.3,0.1-0.5,0.3-0.6,0.6c0,0.2,0.2,0.3,0.3,0.3C18.8,4.7,19,4.4,19,4.1C19,4,18.9,3.9,18.8,3.8
	 M18.5,4.7c-0.1,0-0.3-0.1-0.3-0.2c0.1-0.3,0.3-0.5,0.5-0.6c0.1,0,0.2,0.1,0.2,0.2C18.9,4.4,18.7,4.6,18.5,4.7"/>
<path class="st6" d="M11.7,7.4L11.7,7.4C12,7,12.3,6.6,12.5,6.1h-0.1C12.2,6.5,11.9,7,11.7,7.4"/>
<path class="st6" d="M3.4,5.3L3.4,5.3l0.2-0.2H3.6L3.4,5.3"/>
<path class="st6" d="M6.5,6.1L6.3,6.4h0.1l0.3-0.3H6.5"/>
<path class="st6" d="M9.4,6.5C9.3,6.7,9.3,6.9,9.3,7.1h0.1C9.4,6.9,9.4,6.7,9.4,6.5L9.4,6.5L9.4,6.5L9.4,6.5"/>
<path class="st6" d="M11.8,6.3c-0.1,0.2-0.2,0.4-0.3,0.5C11.4,7,11.2,7.2,11,7.4h0.1C11.4,7,11.7,6.7,11.8,6.3L11.8,6.3"/>
<path class="st6" d="M15.1,6.7c0,0.2,0.1,0.3,0.3,0.3c0,0,0,0,0,0c0.2,0,0.3,0,0.5-0.1c0.5-0.3,0.9-0.7,1.2-1.1l0.2-0.2
	c0.3-0.3,0.6-0.6,1.1-0.8V4.8c-0.5,0.1-0.8,0.4-1.1,0.8L17,5.8C16.5,6.4,15.9,7,15.4,7C15.3,7,15.2,6.9,15.1,6.7
	C15.1,6.8,15.1,6.8,15.1,6.7L15.1,6.7z"/>
<path class="st6" d="M18.3,4.9c0.1,0,0.2,0.1,0.2,0.1c0,0,0,0,0,0c0,0,0,0.2-0.4,0.6c-0.3,0.3-0.5,0.6-0.7,0.9l0.1-0.1
	C17.6,6.2,17.8,6,18,5.7c0.3-0.3,0.5-0.5,0.5-0.6C18.5,5,18.4,4.8,18.3,4.9C18.3,4.8,18.3,4.8,18.3,4.9L18.3,4.9z"/>
<path class="st6" d="M7.7,7.1c-0.1,0-0.2,0-0.2-0.1c0-0.1,0-0.1,0-0.2H7.5c0,0.1,0,0.1,0,0.2c0,0.1,0.1,0.2,0.2,0.2c0,0,0,0,0,0
	C7.9,7.1,8,7,8.1,6.9H8C7.9,7,7.8,7.1,7.7,7.1"/>
<path class="st6" d="M6.2,6.6C6.2,6.6,6.3,6.6,6.2,6.6c0.2,0,0.3,0,0.4-0.1H6.5C6.4,6.5,6.4,6.5,6.2,6.6L6.2,6.6l0.1-0.1H6.3
	L6.2,6.6C6.3,6.6,6.2,6.6,6.2,6.6"/>
<path class="st6" d="M3.3,9.1C2.9,9.2,2.7,9.4,2.4,9.6c-0.3,0.2-0.7,0.7-0.7,0.9c0,0.1,0.1,0.2,0.2,0.2c0,0,0,0,0.1,0
	c0.2,0,0.5-0.2,0.6-0.4C2.9,10,3.2,9.6,3.3,9.1C3.4,9.1,3.4,9.1,3.3,9.1C3.3,9.1,3.3,9.1,3.3,9.1 M3.3,9.2C3.1,9.6,2.8,10,2.5,10.3
	c-0.2,0.2-0.4,0.3-0.6,0.4c-0.1,0-0.1,0-0.1-0.1C1.8,10.2,3.1,9.2,3.3,9.2L3.3,9.2L3.3,9.2z"/>
<path class="st6" d="M4,7.2c0.6-0.2,1.1-0.5,1.6-1H5.5C4.9,6.7,4.3,7.2,4,7.2c-0.1,0-0.2-0.1-0.2-0.3c0.1-0.4,0.3-0.8,0.6-1.1H4.3
	C4,6.1,3.8,6.5,3.7,6.9c0,0.2,0.1,0.3,0.3,0.3c0,0,0,0,0,0"/>
<path class="st6" d="M0.8,10.9c0-0.9,1.4-1.8,3.4-3V7.8C2.2,9.1,0.8,10,0.8,10.9L0.8,10.9z"/>
<path class="st6" d="M3.3,7.7C3,7.7,2.5,7.7,2.5,7.1c0.1-0.7,0.5-1.3,1-1.8H3.4c-0.5,0.5-0.9,1.1-1,1.8c0,0.4,0.3,0.7,0.9,0.7
	L3.3,7.7z"/>
<path class="st6" d="M4.2,7.9c0.2-0.1,0.4-0.4,0.4-0.5c0,0,0-0.1-0.1-0.1c-0.1,0-0.2,0-0.2,0.1C4,7.6,3.7,7.7,3.3,7.7v0.1
	c0.4,0,0.7-0.1,1-0.2c0.1,0,0.1-0.1,0.2-0.1l0,0C4.5,7.7,4.4,7.8,4.2,7.9"/>
<path class="st6" d="M6.5,7.5c0,0.3,0.3,0.4,0.5,0.4C7.6,7.8,8.2,7.5,8.6,7H8.5C8.1,7.5,7.6,7.8,7,7.8C6.8,7.9,6.6,7.7,6.5,7.5
	L6.5,7.5z"/>
<path class="st6" d="M0.8,10.9c0,0.5,0.5,0.5,0.7,0.5c0.5,0,0.9-0.2,1.3-0.5c1-0.8,1.9-1.9,2.6-3c0.1-0.1,0.2-0.2,0.3-0.3l0.1-0.1
	l0,0C6,7.4,6.2,7.2,6.5,7.1l0,0L6.5,7c0,0-0.1,0-0.1,0C6.2,7.1,6,7.3,5.8,7.4l0,0L5.7,7.5C5.5,7.6,5.4,7.7,5.3,7.8
	c-2.2,3.3-3.6,3.5-3.8,3.5S0.8,11.3,0.8,10.9L0.8,10.9z"/>
<path class="st6" d="M10.1,7.8c-0.5,0-0.7-0.2-0.7-0.6l0,0H9.3l0,0C9.3,7.6,9.6,7.9,10.1,7.8c0.4,0.1,0.7-0.1,1-0.4H11
	C10.7,7.6,10.4,7.8,10.1,7.8"/>
<path class="st6" d="M12.5,7.7C12.5,7.7,12.4,7.8,12.5,7.7l-0.9,0.1l0.2-0.2V7.4h-0.1l-0.1,0.1l-0.1,0.2c0,0,0,0,0,0.1l0,0
	c0,0,0,0,0.1,0L12.5,7.7C12.5,7.8,12.5,7.7,12.5,7.7l0.3-0.3h-0.1L12.5,7.7"/>
<path class="st6" d="M14.6,7.9c-0.1,0-0.2,0-0.3-0.1c-0.1-0.1-0.1-0.3-0.1-0.5h-0.1c0,0.2,0,0.4,0.2,0.5C14.3,7.9,14.5,7.9,14.6,7.9
	L14.6,7.9z"/>
<path class="st6" d="M6.6,7.5c0-0.1,0-0.2,0-0.3c0,0,0-0.1,0-0.1l0,0c0,0,0-0.1,0-0.1l0,0l0,0l0,0l0,0v0.1C6.5,7.2,6.5,7.3,6.6,7.5
	L6.6,7.5z"/>
<path class="st6" d="M13.6,11.2c0-0.1-0.1-0.1-0.1-0.2c0-0.2,0.3-0.6,0.9-1.3l0.8-1c0.4-0.5,0.7-0.9,0.9-1.1H16
	c-0.2,0.3-0.5,0.6-0.9,1.1l-0.8,0.9c-0.6,0.8-0.9,1.1-0.9,1.3C13.4,11.1,13.4,11.2,13.6,11.2L13.6,11.2z"/>
<path class="st6" d="M13.5,11.3c0.1,0.1,0.2,0.2,0.3,0.2c0.4,0,1.1-0.7,1.9-2c0.4-0.7,0.8-1.3,1.1-1.8c0.3-0.5,0.4-0.8,0.7-1.2
	l-0.1,0.1c-0.2,0.3-0.4,0.6-0.6,1.1c-0.3,0.5-0.6,1.1-1.1,1.8c-1,1.7-1.6,2-1.8,2C13.7,11.4,13.6,11.4,13.5,11.3L13.5,11.3z"/>
<path class="st6" d="M16.1,7.6c0.4-0.6,0.4-0.7,0.4-0.7c0,0,0,0,0-0.1c0,0,0,0-0.1,0c0,0,0,0-0.1,0.1c-0.5,0.5-1,0.8-1.7,0.9v0
	c0.7-0.1,1.3-0.5,1.7-0.9l0-0.1C16.3,7.2,16.2,7.4,16.1,7.6L16.1,7.6z"/>
<path class="st6" d="M12.5,5.3L12.5,5.3h-0.3c-0.1,0-0.1,0-0.1,0.1c0,0,0,0,0,0c0,0.3-0.1,0.6-0.3,0.9h0.1C12,6,12.1,5.8,12.1,5.4
	l0,0h0.3l0,0c0.1,0,0.2,0.1,0.2,0.2c0,0,0,0,0,0c0,0.2-0.1,0.4-0.2,0.5h0.1c0.1-0.2,0.2-0.4,0.2-0.6C12.8,5.5,12.7,5.3,12.5,5.3"/>
<path class="st6" d="M10.1,3.4c-0.2,0-0.3,0.1-0.4,0.3c0,0,0,0,0,0.1c0,0.7,1.3,1.1,1.6,1.1c0.1,0,0.1-0.1,0.1-0.1
	S11.1,3.4,10.1,3.4 M11.4,4.8c-0.3,0-1.5-0.5-1.5-1.1c0-0.1,0.1-0.3,0.2-0.3c0,0,0,0,0,0C11,3.5,11.4,4.7,11.4,4.8
	C11.4,4.9,11.4,4.8,11.4,4.8"/>
<path class="st6" d="M9.4,6.3c-0.1,0-0.2,0-0.3,0.1h0.1c0.1,0,0.1,0,0.2,0c0.1,0,0.1,0,0.1,0l0,0h0.1l0,0C9.5,6.4,9.5,6.3,9.4,6.3"
	/>
<path class="st6" d="M11,5.8c0.2-0.1,0.3-0.2,0.3-0.3c0-0.1,0-0.1-0.1-0.1c0,0-0.1-0.1-0.1-0.1l0,0c0,0,0.1,0,0.1,0h0.1
	c0.2,0,0.2,0.1,0.2,0.1c-0.1,0.3-0.2,0.6-0.3,0.9h0.1c0.2-0.3,0.3-0.6,0.3-0.9c0-0.2-0.1-0.2-0.3-0.2h-0.1c-0.1,0-0.2,0-0.2,0
	c0,0,0,0.1,0,0.1c0,0,0,0.1,0.1,0.1c0,0,0.1,0.1,0.1,0.1S11.1,5.7,11,5.8c-0.2,0.1-0.4,0.3-0.6,0.6h0.1C10.6,6.2,10.8,6,11,5.8"/>
<path class="st6" d="M7.4,4.9c0-0.1-0.1-0.2-0.2-0.2c-0.3,0-0.5,0.1-0.8,0.3L6.3,5.3L5.8,5.9h0.1l0.5-0.5l0.2-0.2
	C6.7,5,7,4.9,7.2,4.9C7.3,4.9,7.4,4.9,7.4,4.9L7.4,4.9z"/>
<path class="st6" d="M7.4,4.9c0,0-0.1,0.1-0.2,0.2l0,0C7.1,5.2,6.8,5.6,6.6,6h0.1c0.2-0.3,0.5-0.7,0.6-0.8l0,0C7.4,5,7.4,5,7.4,4.9
	L7.4,4.9z"/>
<path class="st6" d="M6,4.1C5.7,4.3,5.3,4.5,5,4.8C4.8,5,4.6,5.2,4.4,5.5h0.1c0.2-0.2,0.4-0.4,0.5-0.6c0.3-0.3,0.6-0.5,1-0.7L6,4.1z
	"/>
<path class="st6" d="M9.5,5.8L9.5,5.8L9.5,5.8c0-0.2,0.1-0.3,0.1-0.4c0-0.1,0-0.2-0.1-0.3C9.4,4.9,9.2,4.8,9,4.8
	C8.6,4.8,8.1,5,6.9,6.2H7c1.1-1.1,1.6-1.3,2-1.3c0.2,0,0.3,0.1,0.4,0.2c0.1,0.1,0.1,0.2,0.1,0.3c0,0.1,0,0.2-0.1,0.3
	C9.4,5.7,9.4,5.7,9.5,5.8C9.4,5.8,9.4,5.8,9.5,5.8L9.5,5.8z"/>
<path class="st6" d="M9.4,5.9C9.5,5.9,9.5,5.9,9.4,5.9C10,5.7,10.3,5.4,10.5,5h-0.1c-0.1,0.1-0.5,0.7-1,0.8l0,0L9.4,5.9z"/>
<path class="st6" d="M14.6,4.9c0,0-0.1-0.1-0.1-0.1c-0.2,0-0.4,0.2-0.6,0.4c-0.1,0.1-0.1,0.1-0.2,0.2c0,0-0.1-0.1-0.1-0.2
	c0-0.1-0.1-0.1-0.1-0.2c-0.1-0.2-0.3-0.2-0.7-0.2h-0.3v0.1h0.3c0.4,0,0.6,0,0.7,0.2c0,0.1,0.1,0.1,0.1,0.2c0.1,0.1,0.1,0.2,0.2,0.2
	s0.1,0,0.3-0.2s0.4-0.4,0.5-0.4s0.1,0,0.1,0.1c0,0.1,0,0.1-0.1,0.2c-0.1,0.2-0.1,0.4-0.2,0.5h0.1c0-0.2,0.1-0.3,0.1-0.5
	C14.6,5.1,14.6,5,14.6,4.9C14.6,4.9,14.6,4.8,14.6,4.9"/>
<path class="st6" d="M12.5,4.8h-0.3c-0.2,0-0.2,0-0.3-0.1h-0.1c0.1,0.1,0.1,0.1,0.4,0.1L12.5,4.8L12.5,4.8z"/>
<path class="st6" d="M9.1,5.5c0-0.1-0.1-0.1-0.2-0.1c-0.4,0.2-0.7,0.4-1,0.8v0.1L7.8,6.3h0.1l0.1-0.1L8,6.1c0.2-0.3,0.5-0.5,0.9-0.7
	C8.9,5.4,9,5.4,9.1,5.5L9.1,5.5C9,5.5,8.9,5.6,8.7,5.7L8.6,5.7l0,0C8.5,5.9,8.4,5.9,8.4,6l0,0c0,0,0,0.1,0.1,0.1c0,0,0,0,0,0.1h0.1
	c0,0,0-0.1-0.1-0.1l0,0c0-0.1,0-0.1,0.2-0.2l0,0l0.1,0C8.9,5.7,9.1,5.6,9.1,5.5"/>
<path class="st6" d="M8.5,6.3L8.5,6.3C8.5,6.3,8.5,6.3,8.5,6.3L8.5,6.3C8.6,6.3,8.6,6.3,8.5,6.3L8.5,6.3L8.5,6.3"/>
<path class="st6" d="M11.9,4.7c-0.2-0.4-0.8-1.8-2.2-1.8C9.5,2.9,9.2,3,9.1,3.3c0,0.1,0,0.2,0,0.3c0,0.4,0.2,1,1.4,1.4h0.1
	c0,0-0.1-0.1-0.1-0.1l0,0c-1.2-0.4-1.4-1-1.4-1.3c0-0.1,0-0.2,0-0.2C9.3,3.1,9.5,3,9.8,3C11,3,11.7,4.4,11.9,4.7L11.9,4.7L11.9,4.7
	L11.9,4.7z"/>
<path class="st6" d="M8.8,2.8L8.8,2.8H8.6v0L8.8,2.8L8.2,3.6l0,0C8,3.6,7.8,3.6,7.6,3.6c-0.5,0-1.1,0.2-1.5,0.5v0.1
	c0.4-0.3,1-0.4,1.5-0.5c0.2,0,0.4,0,0.6,0.1h0.1l0,0L8.8,2.8C8.8,2.8,8.8,2.8,8.8,2.8"/>
<path class="st6" d="M4.7,4.3c1.1-0.8,2.4-1.3,3.7-1.5h0.1V2.7H8.4C7.1,2.9,5.8,3.4,4.7,4.3C4.3,4.5,3.9,4.8,3.5,5.1h0.1
	C4,4.8,4.3,4.5,4.7,4.3"/>
</svg>
