<svg id="Layer_1" data-name="Layer 1" xmlns="http://www.w3.org/2000/svg" viewBox="0 0 16 16"><defs><style>.cls-1{fill:#263849;}</style></defs><title>cart</title><path class="cls-1" d="M11.74,10.86H6.26a1.94,1.94,0,0,1,1.34.73A1.89,1.89,0,0,1,8,13.05a1.95,1.95,0,1,1-2.12-2.2H5.79c-.22,0-.43,0-.65,0A1.27,1.27,0,0,1,4,9.87L2.46,3.59l-.13-.53H.88a.65.65,0,0,1,0-1.3H2.38a1.28,1.28,0,0,1,1.2,1l1.26,5,.43,1.72,0,0h7.44L14,5H5.18c-.06,0-.08,0-.1-.08l-.3-1.22H15.66v.05L14,9.9a1.29,1.29,0,0,1-1.26,1h-.61a1.95,1.95,0,1,1-.36,0ZM6.08,13.45a.65.65,0,1,0-.65-.65A.65.65,0,0,0,6.08,13.45Zm5.84,0a.65.65,0,1,0-.65-.65A.65.65,0,0,0,11.92,13.45Z"/></svg>