<svg id="Layer_1" data-name="Layer 1" xmlns="http://www.w3.org/2000/svg" viewBox="0 0 21 21"><defs><style>.cls-1{fill:#fff;}</style></defs><title>cart</title><path class="cls-1" d="M18.79,13.57v2H6.55A2.06,2.06,0,0,1,4.47,14a2.27,2.27,0,0,1,.24-1.6c.4-.74.84-1.46,1.27-2.18a.29.29,0,0,0,0-.31L2.42,2.39a.19.19,0,0,0-.2-.13H.32v-2H3.54a.19.19,0,0,1,.21.14c.25.57.52,1.14.77,1.72a.28.28,0,0,0,.31.2H19.68a1.28,1.28,0,0,1,.74.17,1,1,0,0,1,.24,1.36c-.31.49-.57,1-.85,1.51C18.87,7,17.92,8.71,17,10.42a2,2,0,0,1-1.91,1.1H7.82a.32.32,0,0,0-.33.2c-.23.47-.48.92-.73,1.39s-.08.47.28.47H18.79Z"/><path class="cls-1" d="M6.48,16.65a2.05,2.05,0,1,1-2.07,2A2.07,2.07,0,0,1,6.48,16.65Z"/><path class="cls-1" d="M16.73,16.65a2.05,2.05,0,1,1-2,2.07A2.07,2.07,0,0,1,16.73,16.65Z"/></svg>