<svg id="Layer_1" data-name="Layer 1" xmlns="http://www.w3.org/2000/svg" viewBox="0 0 21 21"><defs><style>.cls-1{fill:#fff;}</style></defs><title>my emi card</title><path class="cls-1" d="M.11,5.74s0,.1,0,0Z"/><path class="cls-1" d="M.11,7.74q0,3.86,0,7.71a1.6,1.6,0,0,0,1.68,1.69H19.23a1.6,1.6,0,0,0,1.69-1.7q0-3.85,0-7.69c0-.08,0-.15,0-.24H.11Zm2.31,1.8H11.1v1.23H2.42Z"/><path class="cls-1" d="M20.92,5.86c0,.32,0-.13,0,0Z"/><path class="cls-1" d="M19.17,3.83H1.66A1.57,1.57,0,0,0,.12,5.3c0,.25,0,.38,0,.44s0,.07,0,.5H20.92V5.58A1.61,1.61,0,0,0,19.17,3.83Z"/></svg>