<?xml version="1.0" encoding="utf-8"?>
<!-- Generator: Adobe Illustrator 21.1.0, SVG Export Plug-In . SVG Version: 6.00 Build 0)  -->
<svg version="1.0" id="Layer_1" xmlns="http://www.w3.org/2000/svg" xmlns:xlink="http://www.w3.org/1999/xlink" x="0px" y="0px"
	 viewBox="0 0 26 26" enable-background="new 0 0 26 26" xml:space="preserve">
<g>
	<path fill="#FFFFFF" d="M23.6,15.4l-5,1.4v0c0.1,0.5,0.1,1-0.2,1.5c-0.3,0.5-0.7,0.8-1.2,1c-0.5,0.2-1.1,0.1-1.6-0.2l-2.9-1.6
		l0.3-0.5l2.9,1.6c0.4,0.2,0.8,0.3,1.2,0.1c0.4-0.1,0.7-0.4,0.9-0.7c0.1-0.2,0.2-0.4,0.2-0.6c0.1-0.5-0.2-1-0.6-1.3l-7.1-3.9
		c0,0-0.8-0.5-1.7-0.2c0,0,0,0,0,0c-0.2,0-7.8,2.2-8.1,2.3h0L2,19.9L7,18.4c0.5,0.3,4.4,2.7,4.9,3c0.9,0.5,1.9,0.2,2.2,0.2
		c0,0,10.4-2.9,10.4-2.9c0.7-0.2,1.3-1.1,1-2.1C25.2,15.7,24.4,15.2,23.6,15.4z"/>
	<polygon fill="#FFFFFF" points="19.1,3.6 13.1,7.6 13.6,8.3 14.8,7.5 14.8,13 23.5,13 23.5,7.6 24.6,8.4 25.1,7.6 	"/>
</g>
</svg>
