<?xml version="1.0" encoding="utf-8"?>
<!-- Generator: Adobe Illustrator 21.1.0, SVG Export Plug-In . SVG Version: 6.00 Build 0)  -->
<svg version="1.0" id="Layer_1" xmlns="http://www.w3.org/2000/svg" xmlns:xlink="http://www.w3.org/1999/xlink" x="0px" y="0px"
	 viewBox="0 0 26 26" enable-background="new 0 0 26 26" xml:space="preserve">
<g>
	<path fill="#FFFFFF" d="M20.2,10.7l1.7-2.9h-3.3c-0.3,0-0.5-0.2-0.5-0.5V4.1l-2.9,1.6c-0.2,0.1-0.5,0-0.6-0.2L13,2.7l-1.7,2.9
		c-0.1,0.2-0.4,0.3-0.6,0.2L7.9,4.1v3.3c0,0.3-0.2,0.5-0.5,0.5H4.1l1.7,2.9c0.1,0.2,0,0.5-0.2,0.6L2.8,13l2.9,1.6
		c0.2,0.1,0.3,0.4,0.2,0.6l-1.7,2.9h3.3c0.3,0,0.5,0.2,0.5,0.5v3.3l2.9-1.7c0.2-0.1,0.5,0,0.6,0.2l1.7,2.9l1.7-2.9
		c0.1-0.2,0.4-0.3,0.6-0.2l2.9,1.7v-3.3c0-0.3,0.2-0.5,0.5-0.5h3.3l-1.7-2.9c-0.1-0.2,0-0.5,0.2-0.6l2.9-1.6l-2.9-1.7
		C20.2,11.2,20.1,11,20.2,10.7z M9,10.4c0-1,0.8-1.8,1.8-1.8c1,0,1.8,0.8,1.8,1.8c0,1-0.8,1.8-1.8,1.8C9.8,12.1,9,11.3,9,10.4z
		 M10.5,17.4c-0.1,0.2-0.4,0.2-0.6,0.1c-0.2-0.1-0.2-0.4-0.1-0.6l6.1-8.6C16,8.1,16.3,8,16.5,8.2c0.2,0.1,0.2,0.4,0.1,0.6L10.5,17.4
		z M15.5,17.3c-1,0-1.8-0.8-1.8-1.8c0-1,0.8-1.8,1.8-1.8c1,0,1.8,0.8,1.8,1.8C17.3,16.4,16.5,17.3,15.5,17.3z"/>
	<path fill="#FFFFFF" d="M15.5,14.6c-0.5,0-0.9,0.4-0.9,0.9c0,0.5,0.4,0.9,0.9,0.9c0.5,0,0.9-0.4,0.9-0.9C16.4,15,16,14.6,15.5,14.6
		z"/>
	<path fill="#FFFFFF" d="M11.6,10.4c0-0.5-0.4-0.9-0.9-0.9c-0.5,0-0.9,0.4-0.9,0.9c0,0.5,0.4,0.9,0.9,0.9
		C11.2,11.2,11.6,10.8,11.6,10.4z"/>
</g>
</svg>
