<?xml version="1.0" encoding="utf-8"?>
<!-- Generator: Adobe Illustrator 21.1.0, SVG Export Plug-In . SVG Version: 6.00 Build 0)  -->
<svg version="1.1" id="Layer_1" xmlns="http://www.w3.org/2000/svg" xmlns:xlink="http://www.w3.org/1999/xlink" x="0px" y="0px"
	 viewBox="0 0 16 16" style="enable-background:new 0 0 16 16;" xml:space="preserve">
<style type="text/css">
	.st0{fill:#263849;}
</style>
<title>log out</title>
<path class="st0" d="M8,0.4c-0.6,0-1.1,0.1-1.7,0.2c-1.5,0.3-2.9,1.1-4,2.3c-0.3,0.3-0.3,0.7,0,0.9S3,4,3.3,3.7l0.4-0.4
	c0.4-0.4,0.9-0.7,1.5-1c1.9-1,4.2-0.9,6.1,0.2c2.4,1.4,3.6,4.3,3,7c-0.4,1.7-1.5,3.2-3,4.1c-0.9,0.5-1.8,0.8-2.8,0.8
	c-0.5,0-1,0-1.5-0.1c-1.1-0.2-2.1-0.6-2.9-1.3c-0.3-0.2-0.5-0.4-0.7-0.7c-0.1-0.1-0.3-0.2-0.5-0.2c-0.2,0-0.4,0.2-0.5,0.4
	c-0.1,0.2,0,0.5,0.1,0.7c1.7,1.8,4.2,2.7,6.6,2.4c0.5-0.1,0.9-0.2,1.4-0.3c3.2-1,5.3-4,5.3-7.3c0-0.5,0-1-0.1-1.4
	c-0.2-1.2-0.7-2.4-1.4-3.3c-0.5-0.6-1-1.1-1.6-1.6C11.3,0.9,9.7,0.4,8,0.4z M2.5,8.7H8c0.4,0,0.6-0.3,0.6-0.6c0-0.4-0.3-0.6-0.6-0.6
	H2.5l0,0l1-1l0.1-0.1c0.2-0.2,0.2-0.5,0.1-0.7C3.6,5.3,3.3,5.2,2.9,5.3c-0.1,0-0.2,0.1-0.2,0.2L0.5,7.7c0,0-0.1,0.1-0.1,0.1
	C0.2,8.1,0.3,8.4,0.5,8.6l2.2,2.2h0.1C3.1,11,3.5,11,3.7,10.7C4,10.4,3.9,10,3.6,9.8L2.5,8.7L2.5,8.7z"/>
<path class="st0" d="M8,0.4c1.6,0,3.2,0.5,4.5,1.5c0.6,0.4,1.2,1,1.6,1.6c0.7,1,1.2,2.1,1.5,3.3c0.2,0.9,0.2,1.9,0,2.8
	c-0.5,2.8-2.5,5-5.2,5.9C10,15.6,9.5,15.7,9,15.8c-0.3,0-0.7,0.1-1,0.1c-2.1,0-4.2-0.9-5.6-2.5c-0.2-0.2-0.2-0.4-0.1-0.7
	c0.1-0.2,0.3-0.4,0.5-0.4c0.2,0,0.4,0,0.5,0.2c0.2,0.2,0.5,0.5,0.7,0.7c0.9,0.7,1.9,1.1,2.9,1.3c0.5,0.1,1,0.1,1.5,0.1
	c1-0.1,1.9-0.3,2.8-0.8c3.1-1.8,4.2-5.7,2.4-8.8c-0.1-0.1-0.1-0.2-0.2-0.4c-0.5-0.8-1.3-1.5-2.1-2C9.4,1.4,7.1,1.3,5.2,2.3
	c-0.5,0.3-1,0.6-1.5,1L3.3,3.7c-0.3,0.3-0.7,0.3-0.9,0S2.2,3,2.4,2.8c1.1-1.2,2.5-2,4-2.3C6.9,0.4,7.5,0.3,8,0.4z"/>
<path class="st0" d="M2.5,8.7L2.5,8.7l1.1,1.1c0.3,0.2,0.3,0.7,0.1,0.9C3.4,11,3,11.1,2.7,10.8H2.7L0.5,8.6C0.2,8.4,0.2,8.1,0.4,7.8
	c0,0,0.1-0.1,0.1-0.1l2.3-2.3c0.2-0.3,0.6-0.3,0.9,0c0.1,0.1,0.1,0.1,0.2,0.2c0.1,0.2,0.1,0.5-0.1,0.7L3.6,6.4l-1,1l0,0H8
	c0.4,0,0.7,0.3,0.7,0.7c0,0.4-0.3,0.7-0.7,0.7H2.5L2.5,8.7z"/>
</svg>
