<svg id="Layer_1" data-name="Layer 1" xmlns="http://www.w3.org/2000/svg" viewBox="0 0 16 16"><defs><style>.cls-1{fill:#263849;}</style></defs><title>log out</title><path class="cls-1" d="M8,15.82a7.8,7.8,0,0,0,1.66-.18,7.6,7.6,0,0,0,4-2.28.64.64,0,0,0-.91-.91l-.39.38a6.23,6.23,0,0,1-1.49,1,6.39,6.39,0,0,1-6.07-.21,6.46,6.46,0,0,1-3-7A6.46,6.46,0,0,1,4.8,2.49a6.31,6.31,0,0,1,2.8-.83,6.43,6.43,0,0,1,1.45.08A6.31,6.31,0,0,1,12,3.06a8.54,8.54,0,0,1,.72.68.6.6,0,0,0,.53.18.61.61,0,0,0,.52-.43.61.61,0,0,0-.14-.65A7.66,7.66,0,0,0,7,.43,7.46,7.46,0,0,0,5.61.73,7.74,7.74,0,0,0,.28,8,7.78,7.78,0,0,0,.4,9.44a7.71,7.71,0,0,0,1.45,3.33,7.76,7.76,0,0,0,1.61,1.58A7.65,7.65,0,0,0,8,15.82Zm5.54-8.37H8A.64.64,0,0,0,8,8.74h5.49l0,0-1,1-.13.13a.62.62,0,0,0-.1.68.64.64,0,0,0,1.06.18l2.22-2.22a.76.76,0,0,0,.11-.13.64.64,0,0,0-.11-.81L13.3,5.4l-.05,0a.64.64,0,0,0-.86,1l1.1,1.1Z"/><path class="cls-1" d="M8,15.82a7.65,7.65,0,0,1-4.53-1.48,7.76,7.76,0,0,1-1.61-1.58A7.71,7.71,0,0,1,.4,9.44a7.72,7.72,0,0,1,0-2.84A7.74,7.74,0,0,1,5.61.73,7.46,7.46,0,0,1,7,.43,7.72,7.72,0,0,1,8,.36a7.73,7.73,0,0,1,5.63,2.48.61.61,0,0,1,.14.65.61.61,0,0,1-.52.43.6.6,0,0,1-.53-.18A8.54,8.54,0,0,0,12,3.06,6.31,6.31,0,0,0,9.05,1.74,6.43,6.43,0,0,0,7.6,1.66a6.31,6.31,0,0,0-2.8.83,6.46,6.46,0,0,0-2.14,9.19,6.39,6.39,0,0,0,2.1,2,6.4,6.4,0,0,0,6.07.21,6.23,6.23,0,0,0,1.49-1l.39-.38a.64.64,0,0,1,.91.91,7.6,7.6,0,0,1-4,2.28A7.8,7.8,0,0,1,8,15.82Z"/><path class="cls-1" d="M13.53,7.45l0,0-1.1-1.1a.64.64,0,0,1,.86-1l.05,0,2.22,2.22a.64.64,0,0,1,.11.81.76.76,0,0,1-.11.13L13.3,10.79a.64.64,0,0,1-1.06-.18.62.62,0,0,1,.1-.68l.13-.13,1-1,0,0H8A.64.64,0,0,1,8,7.45h5.55Z"/></svg>