<svg id="Layer_1" data-name="Layer 1" xmlns="http://www.w3.org/2000/svg" viewBox="0 0 21 21"><defs><style>.cls-1{fill:#fff;}</style></defs><title>my orders</title><path class="cls-1" d="M10.69,20.7H1.49a.8.8,0,0,1-.87-1.06q.45-2.31.91-4.61L3.07,7.28a.73.73,0,0,1,.85-.7H17.45a.73.73,0,0,1,.85.7l1.89,9.55c.19.94.38,1.87.55,2.81a1.38,1.38,0,0,1-.07.64.61.61,0,0,1-.63.42H10.69Zm-3.53-11A1.19,1.19,0,0,0,8.33,8.54,1.18,1.18,0,1,0,6,8.54,1.18,1.18,0,0,0,7.15,9.72Zm7.06,0A1.18,1.18,0,0,0,15.4,8.54a1.18,1.18,0,1,0-1.18,1.17Z"/><path class="cls-1" d="M10.55.29a4.53,4.53,0,0,1,2.37.55,3.18,3.18,0,0,1,1.5,2.21c.12.62.15,2.23.18,2.86a.76.76,0,0,1-.8.84A.81.81,0,0,1,13,5.93c0-.5,0-2-.13-2.49a1.77,1.77,0,0,0-1.85-1.56,5.77,5.77,0,0,0-1.17.06A1.61,1.61,0,0,0,8.5,3.29c-.11.53-.12,2.06-.17,2.6A.91.91,0,0,1,8,6.56a.74.74,0,0,1-.74.15.64.64,0,0,1-.5-.56c-.07-1.29,0-3.54.85-4.62A3.22,3.22,0,0,1,9.75.38C10.06.33,10.37.31,10.55.29Z"/></svg>