<svg id="Layer_1" data-name="Layer 1" xmlns="http://www.w3.org/2000/svg" viewBox="0 0 21 21"><defs><style>.cls-1{fill:#263849;}</style></defs><title>shipping 21x21</title><path class="cls-1" d="M13.68,15.78H13a.38.38,0,0,1,0-.06q0-4.3,0-8.6a.88.88,0,0,1,.9-.87c1,0,2,0,3.07,0a1.27,1.27,0,0,1,1.15.68L20,10.22a3.23,3.23,0,0,1,.44,1.66c0,1,0,2,0,3.07a.77.77,0,0,1-.55.79l-1.6,0v-.47l1.13,0s.4-.38.4-.47c0-1.06,0-2.13,0-3.19a2.15,2.15,0,0,0-.25-.93c-.62-1.13-1.27-2.25-1.9-3.37a.76.76,0,0,0-.7-.41h-3c-.23,0-.29.06-.29.29q0,3.54,0,7.07s0,.81,0,.9l.95,0,.1.56H13.4"/><path class="cls-1" d="M15.07,16.13l-2.32,0-.08-.39v-2q0-3.29,0-6.58a1.2,1.2,0,0,1,1.22-1.2c1,0,2,0,3.07,0a1.59,1.59,0,0,1,1.43.85l1.87,3.29a3.57,3.57,0,0,1,.48,1.83c0,1,0,2,0,3.06a1.09,1.09,0,0,1-.77,1.1l-.09,0L18,16.12V15l1.32,0,.21-.23v-.4c0-.9,0-1.8,0-2.7a1.83,1.83,0,0,0-.21-.78c-.42-.77-.85-1.52-1.28-2.28L17.36,7.5a.43.43,0,0,0-.41-.24h-3v7s0,.34,0,.59l.9,0Zm5-1.14a1.74,1.74,0,0,1-.35.43h.07A.43.43,0,0,0,20.1,15ZM15.57,6.6h1.38a1.11,1.11,0,0,1,.62.18,1,1,0,0,0-.61-.2c-1,0-2,0-3.06,0a.59.59,0,0,0-.3.08.79.79,0,0,1,.3-.05h1.67Z"/><path class="cls-1" d="M14.36,15.58a2,2,0,1,1,2.06,2A2,2,0,0,1,14.36,15.58Zm2-1a1,1,0,1,0,1,1A1,1,0,0,0,16.39,14.56Z"/><path class="cls-1" d="M7.44,13.32a2,2,0,1,1-2,2.06A2.05,2.05,0,0,1,7.44,13.32ZM6.31,15.37a1.15,1.15,0,1,0,1.14-1.15A1.15,1.15,0,0,0,6.31,15.37Z"/><path class="cls-1" d="M5.73,15.61a.22.22,0,0,1-.25.18H2.7v-5a4,4,0,0,0,.68.17v4.14c.28,0,1.66,0,1.93,0a1.56,1.56,0,0,0,.54-.18"/><path class="cls-1" d="M5.48,16.12H2.37V10.34l.43.15a3.76,3.76,0,0,0,.63.15l.28,0v4.09c.48,0,1.38,0,1.58,0a2.06,2.06,0,0,0,.36-.11l.11.21.37.2c-.15.27-.8.35-.8.35-.2,0-1,0-1.67,0H3.05V11.24H3v4.23H5.48a.19.19,0,0,0-.07.06l.63.2A.54.54,0,0,1,5.48,16.12Z"/><path class="cls-1" d="M9.16,15c.07.13,0,.12.19.11h3.56v-.24q0-5,0-9.9c0-.53-.24-.77-.76-.77H7a4.07,4.07,0,0,0-.84-.68h6.07a1.34,1.34,0,0,1,1.33,1,2.54,2.54,0,0,1,.07.67q0,3.34,0,6.69c0,1.31,0,2.61,0,3.93l-.08,0H9.21c-.14,0,0,0,0-.12"/><path class="cls-1" d="M9,16.12l-.13-.23-.08-.22.2-.16a.25.25,0,0,0-.07.26l.26-.09,0-.22h4.08V10.29q0-2.57,0-5.14a2.29,2.29,0,0,0-.05-.59,1,1,0,0,0-1-.72H7.07l0,0h5.05A1,1,0,0,1,13.24,5V15.43H9.35a.42.42,0,0,1-.46-.25L9.22,15l0-.2h3.31V5c0-.35-.09-.44-.44-.44H6.82l-.1-.1a3.79,3.79,0,0,0-.77-.63L5,3.19h7.23a1.65,1.65,0,0,1,1.65,1.2,2.86,2.86,0,0,1,.08.76q0,2.57,0,5.15V16l-.26.05-.15,0H9Z"/><path class="cls-1" d="M.13,7.12a4.11,4.11,0,1,1,4.11,4.11A4.12,4.12,0,0,1,.13,7.12Zm1.15,0a3,3,0,1,0,3-3A3,3,0,0,0,1.27,7.12Z"/><rect class="cls-1" x="3.92" y="4.74" width="0.82" height="2.73"/><rect class="cls-1" x="4.94" y="6.2" width="0.83" height="2.73" transform="translate(-3.62 9.87) rotate(-69.12)"/></svg>