<svg id="Layer_1" data-name="Layer 1" xmlns="http://www.w3.org/2000/svg" viewBox="0 0 21 21"><defs><style>.cls-1{fill:#fff;}</style></defs><title>shop by</title><path class="cls-1" d="M5,9.71H1.31a.82.82,0,0,1-.94-.93q0-3.75,0-7.51a.81.81,0,0,1,.88-.9H8.88a.78.78,0,0,1,.82.77c0,.06,0,.12,0,.18q0,3.74,0,7.49a.79.79,0,0,1-.44.81,1.28,1.28,0,0,1-.5.09Z"/><path class="cls-1" d="M11.29,15.94c0-1.26,0-2.53,0-3.79a.77.77,0,0,1,.84-.86H19.8a.78.78,0,0,1,.82.88c0,1.07,0,2.14,0,3.21q0,2.15,0,4.3a.83.83,0,0,1-1,.94H12.21a.81.81,0,0,1-.92-.92q0-1.71,0-3.43Q11.29,16.11,11.29,15.94Zm1.54,1.92,5-5H16.39a.38.38,0,0,0-.23.11l-3.22,3.22a.35.35,0,0,0-.11.2C12.82,16.89,12.83,17.4,12.83,17.85ZM14,19.08h1.58a.32.32,0,0,0,.19-.11L19,15.74a.37.37,0,0,0,.1-.23c0-.48,0-1,0-1.43a.23.23,0,0,0,0-.08Zm0-6.24H12.84V14ZM17.87,19l0,.06h1s.13-.07.13-.11c0-.36,0-.72,0-1.13l-.2.18Z"/><path class="cls-1" d="M9.71,16q0,1.85,0,3.7c0,.65-.3.94-.94.94H1.3a.82.82,0,0,1-.93-.92q0-3.75,0-7.51a.8.8,0,0,1,.89-.9H8.77c.65,0,.93.28.93.93Q9.71,14.1,9.71,16ZM4.07,12.84A1.59,1.59,0,0,1,1.93,15v1.94a1.57,1.57,0,0,1,2.13,2.13H6a1.59,1.59,0,0,1,2.14-2.15V15A1.57,1.57,0,0,1,6,12.84Z"/><path class="cls-1" d="M15.94,9.71H12.22c-.63,0-.92-.28-.92-.91q0-3.77,0-7.53a.8.8,0,0,1,.88-.89h7.6a.8.8,0,0,1,.85.86c0,.71,0,1.42,0,2.13q0,2.7,0,5.4c0,.65-.29.94-.95.94Zm3.13-1.55c0-.08,0-.14,0-.2,0-1.94,0-3.88,0-5.83,0-.2-.08-.23-.25-.23h-6V8.16Z"/><path class="cls-1" d="M5,17.5a1.54,1.54,0,0,1,0-3.09A1.54,1.54,0,1,1,5,17.5Z"/></svg>