<!DOCTYPE svg  PUBLIC '-//W3C//DTD SVG 1.1//EN'  'http://www.w3.org/Graphics/SVG/1.1/DTD/svg11.dtd'>
<svg xmlns="http://www.w3.org/2000/svg" xml:space="preserve" height="80px" viewBox="0 0 80 80" width="80px" version="1.1" y="0px" x="0px" xmlns:xlink="http://www.w3.org/1999/xlink" enable-background="new 0 0 80 80">
	<g>
		<path d="m80 39.8l-13.1 0.1 13.1-0.1z" fill="none"/>
		<path d="m58.5 59.6c-4.9 4.5-11.4 7.3-18.5 7.3v13.1c10.6 0 20.2-4.2 27.4-10.9l-8.9-9.5z" fill="#E7E7E7"/>
		<g fill="#B9B9B9">
			<path d="m0 39.9v0.1c0 10.1 3.8 19.2 9.9 26.2l9.8-8.6c-4.2-4.7-6.7-10.9-6.7-17.6 0-7.7 3.3-14.7 8.5-19.6l-9-9.5c-7.7 7.3-12.5 17.7-12.5 29z"/>
			<path d="m12.6 10.8l9 9.5c4.9-4.5 11.4-7.3 18.5-7.3 8 0 15.3 3.6 20.2 9.2l9.8-8.6c-7.4-8.3-18.1-13.6-30.1-13.6-10.6 0-20.3 4.2-27.4 10.8z"/>
		</g>
		<path d="m19.7 57.8l-9.8 8.6c7.4 8.3 18.1 13.6 30.1 13.6v-13.1c-8.1 0-15.3-3.6-20.3-9.1z" fill="#DCDCDC"/>
		<path d="m58.4 59.5l9 9.5c7.8-7.3 12.6-17.6 12.6-29v-0.2l-13.1 0.1v0.1c0 7.7-3.3 14.6-8.5 19.5z" fill="#F1F3F4"/>
		<path d="m66.8 40l13.1-0.1c0-10.1-3.8-19.2-9.9-26.2l-9.8 8.6c4.1 4.7 6.7 10.9 6.6 17.7z" fill="#fff"/>
		<animateTransform attributeName="transform" begin="0s" dur="1.2s" type="rotate" from="0 40 40" to="360 40 40" repeatCount="indefinite" />
	</g>
</svg>
