<!DOCTYPE svg  PUBLIC '-//W3C//DTD SVG 1.1//EN'  'http://www.w3.org/Graphics/SVG/1.1/DTD/svg11.dtd'>
<svg xmlns="http://www.w3.org/2000/svg" xml:space="preserve" height="24px" viewBox="0 0 24 24" width="24px" version="1.1" y="0px" x="0px" xmlns:xlink="http://www.w3.org/1999/xlink" enable-background="new 0 0 24 24">
<g enable-background="new    " fill="#365EBF">
	<path opacity=".5" d="m4.4 16.4l-2.8 1.6c2.2 3.8 6 6 10.4 6v-3.1c-3.3 0-6.1-1.8-7.6-4.5z"/>
	<path opacity=".7" d="m3.2 12c0-1.6 0.4-3.1 1.2-4.4l-2.8-1.6c-2.2 3.8-2.2 8.2 0 12l2.7-1.6c-0.7-1.3-1.1-2.8-1.1-4.4z"/>
	<path opacity=".9" d="m12 3.2v-3.2c-4.4 0-8.2 2.2-10.4 6l2.7 1.6c1.6-2.6 4.4-4.4 7.7-4.4z"/>
	<path d="m12 3.2c3.2 0 6.1 1.8 7.6 4.4l2.7-1.6c-2.2-3.8-6-6-10.4-6l0.1 3.2z"/>
	<path opacity=".1" d="m22.3 6l-2.7 1.6c0.8 1.3 1.2 2.8 1.2 4.4s-0.4 3.1-1.2 4.4l2.7 1.6c2.2-3.8 2.2-8.2 0-12z"/>
	<path opacity=".3" d="m19.6 16.4c-1.5 2.7-4.4 4.4-7.6 4.4v3.1c4.4 0 8.2-2.2 10.4-6l-2.8-1.5z"/>
	<animateTransform attributeName="transform" type="rotate" dur="1.2s" from="0 12 12" to="360 12 12" repeatCount="indefinite" id="spin" />
</g>
</svg>
