<svg xmlns="http://www.w3.org/2000/svg" width="200" height="200"><path fill="none" stroke="gray" stroke-width="2" stroke-miterlimit="10" d="M4 10.05v6H1v-9h5s3.3-1.56 5-3c1.7-1.44 2-3 2-3s2-.7 2 3c0 1.8-2 3-2 3h2.63c1.3 0 2.37 1.06 2.37 2.37v5.03c0 1.4-1.2 2.5-2.6 2.37L7 16.05" stroke-linecap="round" stroke-linejoin="round"/><path fill="none" stroke="#365EBF" stroke-width="2" stroke-miterlimit="10" d="M4 30.05v6H1v-9h5s3.3-1.56 5-3c1.7-1.44 2-3 2-3s2-.7 2 3c0 1.8-2 3-2 3h2.63c1.3 0 2.37 1.06 2.37 2.37v5.03c0 1.4-1.2 2.5-2.6 2.37L7 36.05" stroke-linecap="round" stroke-linejoin="round"/><path fill="none" stroke="#FFF" stroke-width="2" stroke-miterlimit="10" d="M4 50.05v6H1v-9h5s3.3-1.56 5-3c1.7-1.44 2-3 2-3s2-.7 2 3c0 1.8-2 3-2 3h2.63c1.3 0 2.37 1.06 2.37 2.37v5.03c0 1.4-1.2 2.5-2.6 2.37L7 56.05" stroke-linecap="round" stroke-linejoin="round"/><path fill="none" stroke="#2CA01C" stroke-width="2" stroke-miterlimit="10" d="M4 70.05v6H1v-9h5s3.3-1.56 5-3c1.7-1.44 2-3 2-3s2-.7 2 3c0 1.8-2 3-2 3h2.63c1.3 0 2.37 1.06 2.37 2.37v5.03c0 1.4-1.2 2.5-2.6 2.37L7 76.05" stroke-linecap="round" stroke-linejoin="round"/></svg>