<?xml version="1.0" encoding="utf-8"?>
<!-- Generator: Adobe Illustrator 19.1.0, SVG Export Plug-In . SVG Version: 6.00 Build 0)  -->
<svg version="1.1" id="Layer_1" xmlns="http://www.w3.org/2000/svg" xmlns:xlink="http://www.w3.org/1999/xlink" x="0px" y="0px"
	 viewBox="0 0 28 28" style="enable-background:new 0 0 28 28;" xml:space="preserve">
<style type="text/css">
	.st0{fill:none;stroke:#FFFFFF;stroke-width:2;stroke-miterlimit:10;}
	.st1{fill:#FFFFFF;}
</style>
<g>
	<polygon points="11.3,-23 13.9,-21.1 16.5,-23 26,-29.7 26,-31.1 2,-31.1 2,-29.7 	"/>
	<path d="M17.2-21.1l-2.8,1.9c-0.3,0.2-0.6,0.2-0.8,0l-2.8-1.9l-8.8,6h24L17.2-21.1z"/>
	<polygon points="18.1,-22.1 25.9,-17.2 25.9,-27.2 	"/>
	<polygon points="2,-27.1 2,-17.1 9.6,-22.1 	"/>
</g>
<polyline class="st0" points="20,20.9 6,13.9 20,6.9 "/>
<circle class="st1" cx="20" cy="6.9" r="4"/>
<circle class="st1" cx="20" cy="20.9" r="4"/>
<circle class="st1" cx="6" cy="13.9" r="4"/>
</svg>
