<?xml version="1.0" encoding="utf-8"?>
<!-- Generator: Adobe Illustrator 15.1.0, SVG Export Plug-In  -->
<!DOCTYPE svg PUBLIC "-//W3C//DTD SVG 1.1//EN" "http://www.w3.org/Graphics/SVG/1.1/DTD/svg11.dtd" [
	<!ENTITY ns_flows "http://ns.adobe.com/Flows/1.0/">
]>
<svg version="1.1"
	 xmlns="http://www.w3.org/2000/svg" xmlns:xlink="http://www.w3.org/1999/xlink" xmlns:a="http://ns.adobe.com/AdobeSVGViewerExtensions/3.0/"
	 x="0px" y="0px" width="162px" height="58px" viewBox="0 0 162 58" overflow="visible" enable-background="new 0 0 162 58"
	 xml:space="preserve">
<defs>
</defs>
<path fill="#51C4F1" d="M161.2568,16.8774C158.8662,7.0981,148.501,0,136.6143,0c-3.0596,0-6.0742,0.478-8.9609,1.4214
	c-0.6309,0.2065-1.2617,0.5034-1.873,0.7905c-0.5508,0.2593-1.5557,0.731-1.959,0.7788c-0.2305-0.0908-0.7002-0.3921-1.0195-0.5972
	c-0.7422-0.4766-1.584-1.0166-2.6094-1.313c-1.3301-0.3843-2.9033-0.5713-4.8066-0.5713c-1.834,0-3.7988,0.1694-5.6963,0.334
	c-1.2705,0.1094-2.584,0.2227-3.8232,0.2812c-0.9043,0.0435-1.832,0.0723-2.7676,0.1016c-3.2734,0.1006-6.6572,0.2056-9.5947,0.9092
	c-0.7822,0.1875-1.4736,0.5171-2.085,0.8081c-0.4668,0.2222-1.0479,0.498-1.334,0.5186c-0.8779,0.0625-1.915-0.1318-3.0596-0.335
	c-1.1709-0.208-2.3828-0.4229-3.6709-0.4492C77.6265,2.561,70.896,3.7783,65.0078,4.8452c-1,0.1812-1.9707,0.3569-2.9023,0.52
	c-0.6675,0.1162-1.3145,0.2139-1.936,0.3081c-3.2075,0.4868-6.7612,1.0254-8.8818,3.9443
	c-0.3931-0.0068-0.7983,0.0171-1.2109,0.0479c-0.2817,0.021-0.5654,0.0581-0.856,0.0264c-0.7637-0.0786-1.6411-0.3413-2.5698-0.6191
	c-0.9482-0.2832-1.9277-0.5767-3.0078-0.7563c-2.4634-0.4102-4.9932-0.6177-7.519-0.6177c-6.1992,0-12.3599,1.2065-18.3091,3.5864
	c-5.2266,2.0913-12.3164,5.6221-14.4482,12.3193c-5.3799,6.5513-3.6035,19.3042,0.3828,25.0317
	c4.0454,5.8105,11.2686,8.8809,20.8882,8.8799c7.479,0,15.7666-1.9229,22.1699-5.1416c5.7988-2.916,9.6235-5.7168,11.9868-8.7852
	c0.0366,0.0332,0.0728,0.0645,0.1064,0.0928c0.7534,0.6562,1.6064,1.4004,2.7285,1.7295c0.9849,0.29,1.9863,0.4307,3.062,0.4307
	c1.8623,0,3.5581-0.4248,5.1973-0.835c0.6909-0.1738,1.3442-0.3369,1.9941-0.4648c0.4575-0.0908,0.9277-0.1758,1.3926-0.2598
	c1.9912-0.3613,3.8721-0.7012,5.2212-1.457c1.1631-0.6494,1.8984-1.6855,2.4902-2.5176c0.1167-0.165,0.2681-0.377,0.4048-0.5557
	c0.252,0.1406,0.5654,0.3438,0.8027,0.4971c0.9336,0.6064,2.0977,1.3604,3.5703,1.5293c0.3027,0.0352,0.625,0.0518,0.959,0.0518
	c1.3789,0,2.8594-0.3008,4.293-0.5908c0.7334-0.1484,1.4902-0.3027,2.1953-0.4072c0.8438-0.126,1.7314-0.2256,2.5879-0.3232
	c1.5684-0.1768,3.0488-0.3447,4.3555-0.6602c0.8457-0.2031,1.5234-0.5742,2.0176-0.8457c0.166-0.0918,0.3945-0.2168,0.4395-0.2256
	c0.1592,0,0.3184,0.0146,0.4795,0.0273c0.4668,0.0361,0.9385,0.0615,1.4033,0.0303c3.0859-0.2129,6.2314-0.7246,9.2734-1.2188
	c1.4238-0.2314,2.8945-0.4707,4.3105-0.6699c1.332-0.1875,2.6406-0.3301,4.0234-0.4795c1.9316-0.21,3.9277-0.4248,6.0078-0.7764
	c0.7656-0.1289,1.3809-0.3818,1.8291-0.5664c0.1504-0.0625,0.3506-0.1445,0.4463-0.1719c0.2617,0.0059,0.5195-0.0273,0.7715-0.0928
	c0.6953-0.1807,1.4941-0.6846,2-1.5771c0.3496,0.1016,0.7354,0.2324,1.1367,0.3672c0.6543,0.2207,1.332,0.4492,2.0039,0.6055
	c2.4229,0.5625,4.9707,0.8594,7.3691,0.8594c4.8271,0,8.9004-1.1807,11.5928-3.3418c1.749-0.4824,3.2393-1.5889,4.3525-3.2383
	C161.8936,25.1558,162.0811,20.2451,161.2568,16.8774z"/>
<path fill-rule="evenodd" clip-rule="evenodd" fill="#1064AD" d="M130.7852,30.5737c-0.6992,1.0254-2.0693,1.2246-3.1123,1.4004
	c-3.4287,0.5791-6.6523,0.7803-9.9551,1.2441c-4.4238,0.623-8.9922,1.5654-13.377,1.8672c-0.7822,0.0547-1.5801-0.168-2.333,0
	c-0.8223,0.1836-1.5664,0.8672-2.4873,1.0898c-1.8145,0.4355-4.3125,0.5791-6.6895,0.9326
	c-2.4062,0.3574-4.9082,1.1357-6.6895,0.9326c-1.7832-0.2031-3.3926-2.4414-5.2881-2.1777
	c-1.626,0.2266-2.3599,2.8105-3.7329,3.5781c-1.1836,0.6621-3.5894,0.9727-5.7549,1.4004c-3.0273,0.5957-5.853,1.8193-8.8672,0.9336
	c-1.6875-0.4971-3.8311-4.6162-5.7549-1.0898c-2.3525,3.0664-7.1187,6.1924-11.1997,8.2441
	c-11.1001,5.5801-31.6729,8.2344-39.3535-2.7998c-3.3081-4.751-5.1035-16.6738-0.1558-21.9321
	c1.4326-5.5615,7.3286-8.8101,12.9106-11.0439c7.2241-2.8901,15.6509-4.2339,24.2656-2.7998
	c1.9717,0.3281,3.8516,1.2017,5.7559,1.3999c1.3882,0.1445,2.7827-0.4565,3.8882,0.4663c1.2842-4.0752,5.02-3.9868,9.8003-4.8218
	c6.2412-1.0903,14.272-2.7739,20.6855-2.6445c2.3496,0.0479,4.8223,0.9355,7.002,0.7778c1.416-0.1025,2.709-1.1177,3.8887-1.3994
	c3.4473-0.8257,7.8613-0.7451,11.8213-0.9336c4.7451-0.2261,9.8984-1.1606,13.376-0.1553c1.4082,0.4062,2.793,1.9302,4.2002,2.022
	c1.5674,0.1016,3.5781-1.2539,4.9775-1.7114c12.9395-4.229,27.207,2.5088,29.8652,13.3774
	c1.0605,4.3354-0.1035,10.8726-4.5098,11.5103c-3.4883,3.3091-10.6406,3.8003-16.9561,2.3325
	c-1.0869-0.252-2.4121-0.8154-3.5771-1.0879C132.4697,29.2612,130.7158,28.8047,130.7852,30.5737z"/>
<path fill-rule="evenodd" clip-rule="evenodd" fill="#FFFFFF" d="M135.7148,4.7534c6.8496-0.2173,13.1338,2.2559,16.4873,6.2227
	c2.1338,2.522,4.2695,6.0732,2.4893,10.4214c-3.5303,8.6265-19.7549,6.1025-25.5088-0.3115
	c-2.2363-2.4902-4.9062-7.3125-3.4238-11.3545C126.9092,6.5996,130.7393,4.9116,135.7148,4.7534z M134.7812,12.5312
	c-0.5654,3.1484,2.0674,5.8457,3.8877,6.9995c2.8174,1.7827,7.9854,1.8398,8.5566-1.5557c0.752-4.4688-5.0967-9.0537-9.4883-8.0884
	C136.335,10.1948,135.0498,11.043,134.7812,12.5312z"/>
<path fill-rule="evenodd" clip-rule="evenodd" fill="#FFFFFF" d="M122.1826,10.0425c-2.0762,0.2051-4.4492,0.3096-6.6895,0.4663
	c-2.2871,0.1606-4.6309-0.0464-6.377,0.7778c0.2305,1.1709,0.5771,2.2222,1.3994,2.8003c3.6709-0.019,6.8818-0.9023,10.7334-0.4673
	c1.0479,1.1812,1.5781,2.8809,2.0215,4.667c-2.6855,1.2837-7.9102,0.3311-10.8867,1.7104c0.0801,1.3193,0.5488,2.25,1.2432,2.9561
	c4.6455,0.0298,8.79-1.27,13.2227-0.9331c1.248,0.9287,1.9111,3.2715,2.0205,4.8213c-1.2793,0.9683-3.5938,0.8008-5.9102,1.0889
	c-6.0098,0.7476-13.0117,2.0381-19.1328,2.333c-1.5381-1.374-1.7305-3.709-2.334-5.5996
	c-1.8271-5.7358-4.1484-11.7964-5.9082-17.7324c2.9365-1.0889,6.5557-0.856,10.1094-1.0889
	c4.8447-0.3174,9.8145-0.6738,14.4658-0.4663C121.4346,6.252,122.1572,8.4248,122.1826,10.0425z"/>
<path fill-rule="evenodd" clip-rule="evenodd" fill="#FFFFFF" d="M90.4502,20.3086c2.46,2.5581,5.2012,4.7627,7.9336,7.1553
	c0.8506,0.7461,2.0566,1.5293,2.1777,2.7993c-1.6816,0.9639-4.1094,1.042-6.3779,1.4004c-2.2676,0.3574-4.8955,1.2676-6.5322,0.9336
	c-1.2158-0.248-2.4336-1.8916-3.4238-2.9561c-3.0557-3.2896-6.5581-6.6899-9.1758-9.9546c2.6831-0.8696,7.1514-0.3994,7.6221-3.1113
	c0.25-1.4434-0.8721-3.0181-2.4888-3.2666c-2.0239-0.3101-7.4238,0.4565-7.7778,1.5557c-0.3843,1.1904,0.8682,3.3843,1.2437,4.8223
	c1.3589,5.1865,2.5332,9.1909,3.4229,14.1548c-0.3379,1.1777-1.9136,1.0859-2.9561,1.2441
	c-3.2363,0.4922-7.1265,1.584-10.5767,1.4004c-1.2236-3.9922-2.2969-8.291-3.2661-12.5996
	c-0.978-4.3364-2.0059-8.7163-2.6445-12.9102c1.1157-1.2305,3.3813-1.1289,5.4434-1.4004
	c5.6323-0.7412,12.9595-1.8345,18.355-2.1777c7.1035-0.4517,12.3057,1.0039,13.5322,5.7554
	C95.9229,16.8755,93.1553,19.1914,90.4502,20.3086z"/>
<path fill-rule="evenodd" clip-rule="evenodd" fill="#1064AD" d="M137.7373,9.8867c4.3916-0.9653,10.2402,3.6196,9.4883,8.0884
	c-0.5713,3.3955-5.7393,3.3384-8.5566,1.5557c-1.8203-1.1538-4.4531-3.8511-3.8877-6.9995
	C135.0498,11.043,136.335,10.1948,137.7373,9.8867z"/>
<path fill-rule="evenodd" clip-rule="evenodd" fill="#FFFFFF" d="M36.6309,12.998c7.1738-0.2324,13.7681,1.7095,17.2656,5.4438
	c1.6357,1.7466,3.4985,5.0664,3.7339,9.333c0.1782,3.2344-0.7402,6.2959-2.022,8.4004
	c-4.5767,7.5068-17.1841,12.166-27.9985,12.5986c-8.7607,0.3506-16.3862-2.0674-19.2886-8.0889
	c-3.3994-7.0527,0.0591-15.1675,3.8882-18.9766c2.5474-2.5327,6.313-4.5098,10.4224-6.0664
	C26.7388,14.0869,31.5269,13.1631,36.6309,12.998z M23.5649,26.064c-0.9736,1.4551-2.0488,4.3594-1.2441,7.1543
	c2.5977,9.0293,19.1689,6.3477,20.376-2.7988c0.7915-5.9893-4.0337-9.6841-10.4214-9.022
	C28.7349,21.7642,25.2427,23.5542,23.5649,26.064z"/>
<path fill-rule="evenodd" clip-rule="evenodd" fill="#1064AD" d="M32.2754,21.3975c6.3877-0.6621,11.2129,3.0327,10.4214,9.022
	c-1.207,9.1465-17.7783,11.8281-20.376,2.7988c-0.8047-2.7949,0.2705-5.6992,1.2441-7.1543
	C25.2427,23.5542,28.7349,21.7642,32.2754,21.3975z"/>
</svg>
